<?xml version="1.0" encoding="utf-8"?>
<!-- Generator: Adobe Illustrator 22.0.1, SVG Export Plug-In . SVG Version: 6.00 Build 0)  -->
<svg version="1.1" id="Layer_1" xmlns="http://www.w3.org/2000/svg" xmlns:xlink="http://www.w3.org/1999/xlink" x="0px" y="0px"
	 viewBox="0 0 3811.7 2462.5" style="enable-background:new 0 0 3811.7 2462.5;" xml:space="preserve">
<style type="text/css">
	.st0{fill:#FFFFFF;}
	.st1{fill:#8AB6C5;}
	.st2{fill:#384261;}
	.st3{fill:#6A7493;}
	.st4{fill:#1C283E;}
	.st5{fill:#574D5E;}
	.st6{fill:#4C4C65;}
	.st7{fill:#B47943;}
	.st8{fill:#E0A865;}
	.st9{fill:#372A1B;}
	.st10{fill:#CDE0DE;}
	.st11{fill:#4E7A89;}
	.st12{fill:none;stroke:#22746B;stroke-width:42;stroke-miterlimit:10;}
	.st13{fill:none;stroke:#DB5253;stroke-width:42;stroke-miterlimit:10;}
</style>
<g>
	<polygon class="st0" points="1313.5,1925.8 1124,1842.8 1124,1907.8 506.3,1907.8 506.3,1943.8 1124,1943.8 1124,2008.8 	"/>
</g>
<g>
	<path class="st1" d="M196.3,2443.6c0,10.4,8.5,18.9,18.9,18.9l559.4,0c10.4,0,18.9-8.5,18.9-18.9v-92.2c0-10.4-8.5-18.9-18.9-18.9
		l-559.4,0c-10.4,0-18.9,8.5-18.9,18.9V2443.6z"/>
	<path class="st2" d="M170.9,2418.2c0,10.4,8.5,18.9,18.9,18.9l559.4,0c10.4,0,18.9-8.5,18.9-18.9V2326c0-10.4-8.5-18.9-18.9-18.9
		l-559.4,0c-10.4,0-18.9,8.5-18.9,18.9V2418.2z"/>
	<path class="st3" d="M768.3,2293.9v92.2c0,10.4-8.5,18.9-18.9,18.9H190c-10.4,0-18.9-8.5-18.9-18.9v-92.2
		c0-10.4,8.5-18.9,18.9-18.9h559.4C759.7,2275,768.3,2283.5,768.3,2293.9z"/>
	<path class="st3" d="M0,1452.8v641.1c0,3,0.4,6,1.2,8.7c3.8,13.1,15.9,22.7,30.2,22.7l876.5,0c17.4,0,31.4-14.1,31.4-31.4v-641.1
		c0-17.4-14-31.4-31.4-31.4l-876.5,0C14.1,1421.4,0,1435.5,0,1452.8z"/>
	<path class="st2" d="M939.3,1484.5v661.1c0,17.4-14.1,31.4-31.4,31.4H31.4c-17.4,0-31.4-16.1-31.4-33.5v-659.1
		c0-17.3,14.1-31.4,31.4-31.4h876.5C925.3,1453.1,939.3,1467.2,939.3,1484.5z"/>
	<rect x="43.1" y="1497.5" class="st1" width="853.2" height="612.1"/>
	<g>
		<path class="st4" d="M894.9,1497.6v595.3H44.5v-595.3H894.9 M907.9,1478.3H31.4c-3.5,0-6.3,2.8-6.3,6.3v627.7h889.1v-627.7
			C914.2,1481.1,911.4,1478.3,907.9,1478.3L907.9,1478.3z"/>
	</g>
	<path class="st5" d="M304,2332.6c0,5.8,4.7,10.5,10.5,10.5h310.3c5.8,0,10.5-4.7,10.5-10.5v-101.9c0-5.8-4.7-10.5-10.5-10.5H314.5
		c-5.8,0-10.5,4.7-10.5,10.5V2332.6z"/>
	<path class="st2" d="M304,2333.5c0,5.8,4.7,10.5,10.5,10.5h310.3c5.8,0,10.5-4.7,10.5-10.5v-101.9c0-5.8-4.7-10.5-10.5-10.5H314.5
		c-5.8,0-10.5,4.7-10.5,10.5V2333.5z"/>
	<rect x="44.3" y="1497.5" class="st0" width="850.5" height="42"/>
	<path class="st6" d="M77.1,1519.3c0,5.9-4.8,10.6-10.6,10.6c-5.9,0-10.6-4.7-10.6-10.6c0-5.9,4.8-10.6,10.6-10.6
		C72.3,1508.7,77.1,1513.4,77.1,1519.3z"/>
	<path class="st3" d="M939.3,2143.6v63c0,17.4-14.1,31.4-31.4,31.4H31.4C14.1,2238,0,2224,0,2206.6v-63H939.3z"/>
	<g>
		<path class="st2" d="M495.4,2173.5v24.2h-28.8v-24.2H495.4"/>
	</g>
</g>
<g>
	<polygon class="st0" points="1010.7,1706.6 1200.2,1623.6 1200.2,1688.6 1817.9,1688.6 1817.9,1724.6 1200.2,1724.6 1200.2,1789.6 
			"/>
</g>
<g>
	<path class="st7" d="M737.7,1649.1l-305.1-0.1l-51.5-51.5l-179.3-0.1c-17,0-30.9,13.9-30.9,30.9l-0.1,403.9l597.7,0.2l0.1-352.4
		C768.6,1663,754.7,1649.1,737.7,1649.1z"/>
	<rect x="217.6" y="1674.4" class="st0" width="494.6" height="136.1"/>
	<rect x="170.8" y="1721.2" class="st8" width="597.7" height="311.1"/>
	<g>
		<path class="st9" d="M687.8,1964.9c-8.6,7.2-18.3,13-28.7,17.3c-13.7,5.6-28.1,8.4-42.8,8.2l-98.1-1c-13.3-0.1-26.3-2.7-38.7-7.5
			c-1.2-0.5-2.3-1-3.5-1.5l-0.4-0.2c-13-5.6-24.6-13.7-34.6-23.8c-7.7-7.9-14.2-16.8-19.2-26.5c-1.5-2.8-2.8-5.7-3.9-8.5
			c-5.6-13.6-8.4-28-8.2-42.8c0.1-14.8,3.2-29.1,9-42.6c1.2-2.8,2.6-5.6,4.1-8.4l0.6-1.2l1.3,0.2c16.6,2.3,31.3,12.5,39.2,27.4
			l0.4,0.8l-0.4,0.9c-3.2,7.4-4.9,15.3-5,23.4c-0.1,8.1,1.4,16.1,4.5,23.5c9.2,22.4,30.8,37,55,37.3l98.6,1.6
			c14.3,0.1,28.7-4.2,39.7-13.4c0,0,0,0,0,0c13.5-11.4,20.9-28.6,21-46.2c0.3-33.2-26.7-60.8-59.8-61.1l-99.3-1.1l-0.6-1
			c-4.6-7.8-10.2-15-17-21.9c-6.1-6.2-12.9-11.7-20.2-16.4l-3.2-2.1l3.6-1.3c12.5-4.6,25.6-6.9,38.9-6.8l98.1,0.9
			c14.7,0.1,29,3.2,42.6,9.1c13,5.6,24.6,13.7,34.6,23.8c10,10.1,17.7,21.9,23.1,35c5.6,13.6,8.4,28,8.2,42.8
			c-0.1,14.8-3.2,29.1-9,42.6c-5.7,13-13.6,24.7-23.8,34.7C692.1,1961.1,690,1963.1,687.8,1964.9L687.8,1964.9z"/>
		<path class="st4" d="M717,1839.8c-5.3-12.9-12.9-24.5-22.7-34.4c-9.8-10-21.2-17.9-34-23.4c-13.2-5.8-27.3-8.8-41.8-8.9l-98.1-0.9
			c-13.1-0.1-26,2.1-38.2,6.6c7.4,4.8,14.2,10.3,20.5,16.7c6.7,6.8,12.4,14.1,17.2,22.3c0,0,0,0,0,0l98.1,0.9
			c34.3,0.3,61.8,28.5,61.5,62.8c-0.3,34.3-28.4,61.9-62.7,61.6l-98.1-0.9c0,0,0,0,0,0c-25.7-0.2-47.6-16.1-56.8-38.5
			c-3.1-7.5-4.7-15.7-4.7-24.3c0.1-8.6,1.9-16.8,5.1-24.2c-7.5-14-21.4-24.2-37.8-26.4c-1.5,2.7-2.8,5.5-4,8.3
			c-5.8,13.2-8.7,27.3-8.9,41.8c-0.1,14.5,2.6,28.6,8.1,42c1.2,2.9,2.5,5.6,3.9,8.4c4.9,9.6,11.2,18.3,18.9,26.1
			c9.8,10,21.2,17.8,34,23.4c1.3,0.5,2.5,1.1,3.8,1.6c12.1,4.7,24.9,7.2,38,7.4l98.1,0.9c14.5,0.1,28.6-2.6,42-8.1
			c12.9-5.3,24.5-13,34.4-22.7c10-9.8,17.8-21.2,23.4-34c5.8-13.2,8.7-27.3,8.9-41.8C725.2,1867.3,722.5,1853.1,717,1839.8z"/>
		<path class="st9" d="M457.8,1981.8c-12.5,4.6-25.6,6.9-38.9,6.8l-98.1-0.9c-14.7-0.1-29-3.2-42.6-9.1c-13-5.6-24.6-13.7-34.6-23.8
			c-10-10.1-17.7-21.9-23.1-35c-5.6-13.6-8.4-28-8.2-42.8c0.1-14.8,3.2-29.1,9-42.6c5.7-13,13.7-24.7,23.8-34.6c2.1-2,4.2-4,6.4-5.8
			c8.6-7.2,18.2-13.1,28.6-17.3c13.7-5.6,28.1-8.4,42.8-8.3l98.1,0.9c13.3,0.1,26.3,2.7,38.7,7.5c1.2,0.5,2.3,1,3.5,1.5l0.4,0.2
			c13,5.6,24.6,13.7,34.6,23.8c7.7,7.9,14.2,16.8,19.2,26.5c1.4,2.8,2.8,5.7,3.9,8.5c5.6,13.6,8.4,28,8.2,42.8
			c-0.1,14.8-3.2,29.1-9,42.6c-1.2,2.8-2.6,5.6-4.1,8.4l-0.6,1.2l-1.3-0.2c-16.6-2.3-31.3-12.5-39.3-27.4l-0.4-0.8l0.4-0.9
			c3.2-7.4,4.9-15.3,5-23.4c0.1-8.1-1.4-16.1-4.5-23.5c-9.2-22.4-30.8-37-55-37.3l-98.1-0.9c-14.3-0.1-28.2,4.8-39.2,14
			c-13.5,11.4-21.4,28-21.6,45.6c-0.3,33.2,26.4,60.5,59.6,60.8l98,0.9l1.1-0.1l0.6,1c4.6,7.8,10.1,15,16.9,21.9
			c6.1,6.2,12.8,11.7,20.2,16.4l3.2,2.1L457.8,1981.8z"/>
		<path class="st4" d="M222.3,1918.8c5.3,12.9,12.9,24.5,22.7,34.4c9.8,10,21.2,17.9,34,23.4c13.2,5.8,27.3,8.8,41.8,8.9l98.1,0.9
			c13.1,0.1,26-2.1,38.2-6.6c-7.4-4.8-14.2-10.3-20.5-16.7c-6.7-6.8-12.4-14.1-17.2-22.3c0,0,0,0,0,0l-98.1-0.9
			c-34.3-0.3-61.8-28.5-61.5-62.8c0.3-34.3,28.4-61.9,62.7-61.6l98.1,0.9c0,0,0,0,0,0c25.7,0.2,47.6,16.1,56.8,38.5
			c3.1,7.5,4.7,15.7,4.7,24.3c-0.1,8.6-1.9,16.8-5.1,24.2c7.5,14,21.4,24.2,37.8,26.4c1.5-2.7,2.8-5.5,4-8.3
			c5.8-13.2,8.7-27.3,8.9-41.8c0.1-14.5-2.6-28.6-8.1-42c-1.2-2.9-2.5-5.6-3.9-8.4c-4.9-9.6-11.2-18.3-18.8-26.1
			c-9.8-10-21.2-17.8-34-23.4c-1.3-0.5-2.5-1.1-3.8-1.6c-12.1-4.7-24.9-7.2-38-7.4l-98.1-0.9c-14.5-0.1-28.6,2.6-42,8.1
			c-12.9,5.3-24.5,13-34.4,22.7c-10,9.8-17.8,21.2-23.4,34c-5.8,13.2-8.7,27.3-8.9,41.8C214.1,1891.4,216.8,1905.5,222.3,1918.8z"/>
	</g>
</g>
<g>
	<path class="st1" d="M196.3,2443.6c0,10.4,8.5,18.9,18.9,18.9l559.4,0c10.4,0,18.9-8.5,18.9-18.9v-92.2c0-10.4-8.5-18.9-18.9-18.9
		l-559.4,0c-10.4,0-18.9,8.5-18.9,18.9V2443.6z"/>
	<path class="st2" d="M170.9,2418.2c0,10.4,8.5,18.9,18.9,18.9l559.4,0c10.4,0,18.9-8.5,18.9-18.9V2326c0-10.4-8.5-18.9-18.9-18.9
		l-559.4,0c-10.4,0-18.9,8.5-18.9,18.9V2418.2z"/>
	<path class="st3" d="M768.3,2293.9v92.2c0,10.4-8.5,18.9-18.9,18.9H190c-10.4,0-18.9-8.5-18.9-18.9v-92.2
		c0-10.4,8.5-18.9,18.9-18.9h559.4C759.7,2275,768.3,2283.5,768.3,2293.9z"/>
	<path class="st3" d="M0,1452.8v641.1c0,3,0.4,6,1.2,8.7c3.8,13.1,15.9,22.7,30.2,22.7l876.5,0c17.4,0,31.4-14.1,31.4-31.4v-641.1
		c0-17.4-14-31.4-31.4-31.4l-876.5,0C14.1,1421.4,0,1435.5,0,1452.8z"/>
	<path class="st2" d="M939.3,1484.5v661.1c0,17.4-14.1,31.4-31.4,31.4H31.4c-17.4,0-31.4-16.1-31.4-33.5v-659.1
		c0-17.3,14.1-31.4,31.4-31.4h876.5C925.3,1453.1,939.3,1467.2,939.3,1484.5z"/>
	<rect x="43.1" y="1497.5" class="st1" width="853.2" height="612.1"/>
	<g>
		<path class="st4" d="M894.9,1497.6v595.3H44.5v-595.3H894.9 M907.9,1478.3H31.4c-3.5,0-6.3,2.8-6.3,6.3v627.7h889.1v-627.7
			C914.2,1481.1,911.4,1478.3,907.9,1478.3L907.9,1478.3z"/>
	</g>
	<path class="st5" d="M304,2332.6c0,5.8,4.7,10.5,10.5,10.5h310.3c5.8,0,10.5-4.7,10.5-10.5v-101.9c0-5.8-4.7-10.5-10.5-10.5H314.5
		c-5.8,0-10.5,4.7-10.5,10.5V2332.6z"/>
	<path class="st2" d="M304,2333.5c0,5.8,4.7,10.5,10.5,10.5h310.3c5.8,0,10.5-4.7,10.5-10.5v-101.9c0-5.8-4.7-10.5-10.5-10.5H314.5
		c-5.8,0-10.5,4.7-10.5,10.5V2333.5z"/>
	<rect x="44.3" y="1497.5" class="st0" width="850.5" height="42"/>
	<path class="st6" d="M77.1,1519.3c0,5.9-4.8,10.6-10.6,10.6c-5.9,0-10.6-4.7-10.6-10.6c0-5.9,4.8-10.6,10.6-10.6
		C72.3,1508.7,77.1,1513.4,77.1,1519.3z"/>
	<path class="st3" d="M939.3,2143.6v63c0,17.4-14.1,31.4-31.4,31.4H31.4C14.1,2238,0,2224,0,2206.6v-63H939.3z"/>
</g>
<g>
	<path class="st7" d="M737.7,1649.1l-305.1-0.1l-51.5-51.5l-179.3-0.1c-17,0-30.9,13.9-30.9,30.9l-0.1,403.9l597.7,0.2l0.1-352.4
		C768.6,1663,754.7,1649.1,737.7,1649.1z"/>
	<rect x="217.6" y="1674.4" class="st0" width="494.6" height="136.1"/>
	<rect x="170.8" y="1721.2" class="st8" width="597.7" height="311.1"/>
	<g>
		<path class="st9" d="M687.8,1964.9c-8.6,7.2-18.3,13-28.7,17.3c-13.7,5.6-28.1,8.4-42.8,8.2l-98.1-1c-13.3-0.1-26.3-2.7-38.7-7.5
			c-1.2-0.5-2.3-1-3.5-1.5l-0.4-0.2c-13-5.6-24.6-13.7-34.6-23.8c-7.7-7.9-14.2-16.8-19.2-26.5c-1.5-2.8-2.8-5.7-3.9-8.5
			c-5.6-13.6-8.4-28-8.2-42.8c0.1-14.8,3.2-29.1,9-42.6c1.2-2.8,2.6-5.6,4.1-8.4l0.6-1.2l1.3,0.2c16.6,2.3,31.3,12.5,39.2,27.4
			l0.4,0.8l-0.4,0.9c-3.2,7.4-4.9,15.3-5,23.4c-0.1,8.1,1.4,16.1,4.5,23.5c9.2,22.4,30.8,37,55,37.3l98.6,1.6
			c14.3,0.1,28.7-4.2,39.7-13.4c0,0,0,0,0,0c13.5-11.4,20.9-28.6,21-46.2c0.3-33.2-26.7-60.8-59.8-61.1l-99.3-1.1l-0.6-1
			c-4.6-7.8-10.2-15-17-21.9c-6.1-6.2-12.9-11.7-20.2-16.4l-3.2-2.1l3.6-1.3c12.5-4.6,25.6-6.9,38.9-6.8l98.1,0.9
			c14.7,0.1,29,3.2,42.6,9.1c13,5.6,24.6,13.7,34.6,23.8c10,10.1,17.7,21.9,23.1,35c5.6,13.6,8.4,28,8.2,42.8
			c-0.1,14.8-3.2,29.1-9,42.6c-5.7,13-13.6,24.7-23.8,34.7C692.1,1961.1,690,1963.1,687.8,1964.9L687.8,1964.9z"/>
		<path class="st4" d="M717,1839.8c-5.3-12.9-12.9-24.5-22.7-34.4c-9.8-10-21.2-17.9-34-23.4c-13.2-5.8-27.3-8.8-41.8-8.9l-98.1-0.9
			c-13.1-0.1-26,2.1-38.2,6.6c7.4,4.8,14.2,10.3,20.5,16.7c6.7,6.8,12.4,14.1,17.2,22.3c0,0,0,0,0,0l98.1,0.9
			c34.3,0.3,61.8,28.5,61.5,62.8c-0.3,34.3-28.4,61.9-62.7,61.6l-98.1-0.9c0,0,0,0,0,0c-25.7-0.2-47.6-16.1-56.8-38.5
			c-3.1-7.5-4.7-15.7-4.7-24.3c0.1-8.6,1.9-16.8,5.1-24.2c-7.5-14-21.4-24.2-37.8-26.4c-1.5,2.7-2.8,5.5-4,8.3
			c-5.8,13.2-8.7,27.3-8.9,41.8c-0.1,14.5,2.6,28.6,8.1,42c1.2,2.9,2.5,5.6,3.9,8.4c4.9,9.6,11.2,18.3,18.9,26.1
			c9.8,10,21.2,17.8,34,23.4c1.3,0.5,2.5,1.1,3.8,1.6c12.1,4.7,24.9,7.2,38,7.4l98.1,0.9c14.5,0.1,28.6-2.6,42-8.1
			c12.9-5.3,24.5-13,34.4-22.7c10-9.8,17.8-21.2,23.4-34c5.8-13.2,8.7-27.3,8.9-41.8C725.2,1867.3,722.5,1853.1,717,1839.8z"/>
		<path class="st9" d="M457.8,1981.8c-12.5,4.6-25.6,6.9-38.9,6.8l-98.1-0.9c-14.7-0.1-29-3.2-42.6-9.1c-13-5.6-24.6-13.7-34.6-23.8
			c-10-10.1-17.7-21.9-23.1-35c-5.6-13.6-8.4-28-8.2-42.8c0.1-14.8,3.2-29.1,9-42.6c5.7-13,13.7-24.7,23.8-34.6c2.1-2,4.2-4,6.4-5.8
			c8.6-7.2,18.2-13.1,28.6-17.3c13.7-5.6,28.1-8.4,42.8-8.3l98.1,0.9c13.3,0.1,26.3,2.7,38.7,7.5c1.2,0.5,2.3,1,3.5,1.5l0.4,0.2
			c13,5.6,24.6,13.7,34.6,23.8c7.7,7.9,14.2,16.8,19.2,26.5c1.4,2.8,2.8,5.7,3.9,8.5c5.6,13.6,8.4,28,8.2,42.8
			c-0.1,14.8-3.2,29.1-9,42.6c-1.2,2.8-2.6,5.6-4.1,8.4l-0.6,1.2l-1.3-0.2c-16.6-2.3-31.3-12.5-39.3-27.4l-0.4-0.8l0.4-0.9
			c3.2-7.4,4.9-15.3,5-23.4c0.1-8.1-1.4-16.1-4.5-23.5c-9.2-22.4-30.8-37-55-37.3l-98.1-0.9c-14.3-0.1-28.2,4.8-39.2,14
			c-13.5,11.4-21.4,28-21.6,45.6c-0.3,33.2,26.4,60.5,59.6,60.8l98,0.9l1.1-0.1l0.6,1c4.6,7.8,10.1,15,16.9,21.9
			c6.1,6.2,12.8,11.7,20.2,16.4l3.2,2.1L457.8,1981.8z"/>
		<path class="st4" d="M222.3,1918.8c5.3,12.9,12.9,24.5,22.7,34.4c9.8,10,21.2,17.9,34,23.4c13.2,5.8,27.3,8.8,41.8,8.9l98.1,0.9
			c13.1,0.1,26-2.1,38.2-6.6c-7.4-4.8-14.2-10.3-20.5-16.7c-6.7-6.8-12.4-14.1-17.2-22.3c0,0,0,0,0,0l-98.1-0.9
			c-34.3-0.3-61.8-28.5-61.5-62.8c0.3-34.3,28.4-61.9,62.7-61.6l98.1,0.9c0,0,0,0,0,0c25.7,0.2,47.6,16.1,56.8,38.5
			c3.1,7.5,4.7,15.7,4.7,24.3c-0.1,8.6-1.9,16.8-5.1,24.2c7.5,14,21.4,24.2,37.8,26.4c1.5-2.7,2.8-5.5,4-8.3
			c5.8-13.2,8.7-27.3,8.9-41.8c0.1-14.5-2.6-28.6-8.1-42c-1.2-2.9-2.5-5.6-3.9-8.4c-4.9-9.6-11.2-18.3-18.8-26.1
			c-9.8-10-21.2-17.8-34-23.4c-1.3-0.5-2.5-1.1-3.8-1.6c-12.1-4.7-24.9-7.2-38-7.4l-98.1-0.9c-14.5-0.1-28.6,2.6-42,8.1
			c-12.9,5.3-24.5,13-34.4,22.7c-10,9.8-17.8,21.2-23.4,34c-5.8,13.2-8.7,27.3-8.9,41.8C214.1,1891.4,216.8,1905.5,222.3,1918.8z"/>
	</g>
</g>
<path class="st1" d="M1577.4,2443.6c0,10.4,8.5,18.9,18.9,18.9l559.4,0c10.4,0,18.9-8.5,18.9-18.9v-92.2c0-10.4-8.5-18.9-18.9-18.9
	l-559.4,0c-10.4,0-18.9,8.5-18.9,18.9V2443.6z"/>
<path class="st2" d="M1552,2418.2c0,10.4,8.5,18.9,18.9,18.9l559.4,0c10.4,0,18.9-8.5,18.9-18.9V2326c0-10.4-8.5-18.9-18.9-18.9
	l-559.4,0c-10.4,0-18.9,8.5-18.9,18.9V2418.2z"/>
<path class="st3" d="M2149.4,2293.9v92.2c0,10.4-8.5,18.9-18.9,18.9H1571c-10.4,0-18.9-8.5-18.9-18.9v-92.2
	c0-10.4,8.5-18.9,18.9-18.9h559.4C2140.8,2275,2149.4,2283.5,2149.4,2293.9z"/>
<path class="st3" d="M1381.1,1452.8v641.1c0,3,0.4,6,1.2,8.7c3.8,13.1,15.9,22.7,30.2,22.7l876.5,0c17.4,0,31.4-14.1,31.4-31.4
	v-641.1c0-17.4-14-31.4-31.4-31.4l-876.5,0C1395.2,1421.4,1381.1,1435.5,1381.1,1452.8z"/>
<path class="st2" d="M2320.4,1484.5v661.1c0,17.4-14.1,31.4-31.4,31.4h-876.5c-17.4,0-31.4-16.1-31.4-33.5v-659.1
	c0-17.3,14.1-31.4,31.4-31.4H2289C2306.4,1453.1,2320.4,1467.2,2320.4,1484.5z"/>
<rect x="1424.2" y="1497.5" class="st1" width="853.2" height="612.1"/>
<g>
	<path class="st4" d="M2275.9,1497.6v595.3h-850.4v-595.3H2275.9 M2289,1478.3h-876.5c-3.5,0-6.3,2.8-6.3,6.3v627.7h889.1v-627.7
		C2295.3,1481.1,2292.5,1478.3,2289,1478.3L2289,1478.3z"/>
</g>
<path class="st5" d="M1685.1,2332.6c0,5.8,4.7,10.5,10.5,10.5h310.3c5.8,0,10.5-4.7,10.5-10.5v-101.9c0-5.8-4.7-10.5-10.5-10.5
	h-310.3c-5.8,0-10.5,4.7-10.5,10.5V2332.6z"/>
<path class="st2" d="M1685.1,2333.5c0,5.8,4.7,10.5,10.5,10.5h310.3c5.8,0,10.5-4.7,10.5-10.5v-101.9c0-5.8-4.7-10.5-10.5-10.5
	h-310.3c-5.8,0-10.5,4.7-10.5,10.5V2333.5z"/>
<rect x="1425.4" y="1497.5" class="st0" width="850.5" height="42"/>
<path class="st6" d="M1458.1,1519.3c0,5.9-4.8,10.6-10.6,10.6c-5.9,0-10.6-4.7-10.6-10.6c0-5.9,4.8-10.6,10.6-10.6
	C1453.4,1508.7,1458.1,1513.4,1458.1,1519.3z"/>
<path class="st3" d="M2320.4,2143.6v63c0,17.4-14.1,31.4-31.4,31.4h-876.5c-17.4,0-31.4-14.1-31.4-31.4v-63H2320.4z"/>
<g>
	<path class="st7" d="M2155.9,1369.7l-295.7-74.9l-37.3-62.6l-173.8-44.1c-16.5-4.2-33.4,5.9-37.5,22.4l-99.2,391.5l579.4,146.8
		l86.6-341.6C2182.4,1390.8,2172.3,1373.9,2155.9,1369.7z"/>
	
		<rect x="1621.2" y="1325.3" transform="matrix(0.9694 0.2454 -0.2454 0.9694 399.0302 -415.8958)" class="st0" width="494.6" height="136.1"/>
	
		<rect x="1541.3" y="1369.1" transform="matrix(0.9694 0.2457 -0.2457 0.9694 430.9606 -405.3562)" class="st8" width="597.7" height="311.1"/>
	<g>
		<path class="st9" d="M2030,1663.7c-10.1,4.9-20.9,8.1-32.1,9.7c-14.6,2.1-29.3,1.2-43.5-2.5l-94.8-25c-12.8-3.4-24.8-9-35.7-16.8
			c-1-0.7-2-1.5-3-2.3l-0.3-0.3c-11.2-8.7-20.5-19.3-27.7-31.6c-5.5-9.5-9.6-19.8-12.1-30.4c-0.7-3.1-1.3-6.2-1.7-9.2
			c-2.1-14.6-1.2-29.2,2.5-43.5c3.8-14.3,10.2-27.4,19.2-39.1c1.9-2.4,3.9-4.8,6.1-7.2l0.9-1l1.2,0.5c15.6,6.3,27.3,19.8,31.3,36.2
			l0.2,0.9l-0.6,0.7c-4.9,6.4-8.5,13.6-10.6,21.5c-2.1,7.9-2.5,15.9-1.4,23.9c3.5,24,20.8,43.5,44.2,49.6l95.2,25.7
			c13.8,3.6,28.9,2.9,41.8-3.3c0,0,0,0,0,0c15.9-7.7,27.2-22.6,31.7-39.6c8.5-32.1-10.9-65.5-43-73.9l-96-25.4l-0.4-1.1
			c-2.5-8.7-6.2-17.1-11.1-25.4c-4.4-7.5-9.6-14.5-15.5-20.9l-2.6-2.8l3.8-0.4c13.3-1.4,26.5-0.4,39.3,3l94.8,25
			c14.2,3.7,27.4,10.2,39.1,19.3c11.2,8.6,20.5,19.3,27.7,31.6c7.2,12.3,11.8,25.6,13.8,39.7c2.1,14.6,1.2,29.2-2.5,43.5
			c-3.8,14.3-10.2,27.4-19.2,39.1c-8.7,11.2-19.3,20.6-31.5,27.8C2035.2,1661,2032.6,1662.5,2030,1663.7L2030,1663.7z"/>
		<path class="st4" d="M2089,1549.5c-2-13.8-6.5-26.9-13.6-39c-7-12.1-16.2-22.5-27.2-31.1c-11.4-8.8-24.3-15.2-38.4-18.9l-94.8-25
			c-12.7-3.3-25.7-4.3-38.6-2.9c6,6.4,11.3,13.5,15.8,21.2c4.8,8.2,8.6,16.7,11.2,25.8c0,0,0,0,0,0l94.8,25
			c33.1,8.7,52.9,42.8,44.2,75.9c-8.7,33.1-42.7,53-75.9,44.3l-94.8-25c0,0,0,0,0,0c-24.8-6.5-42.2-27.3-45.6-51.2
			c-1.2-8-0.7-16.4,1.4-24.7c2.2-8.3,6-15.8,10.9-22.2c-3.8-15.4-14.8-28.7-30.2-34.9c-2.1,2.3-4.1,4.6-5.9,7
			c-8.8,11.4-15.2,24.3-18.9,38.4c-3.7,14-4.5,28.4-2.5,42.7c0.4,3.1,1,6.1,1.7,9.1c2.4,10.5,6.4,20.5,11.9,29.9
			c7,12.1,16.2,22.5,27.2,31c1.1,0.8,2.2,1.7,3.3,2.5c10.6,7.6,22.4,13.1,35.1,16.5l94.8,25c14,3.7,28.4,4.5,42.7,2.4
			c13.8-2,26.9-6.6,39-13.6c12.1-7,22.5-16.2,31-27.2c8.8-11.4,15.2-24.4,18.9-38.4C2090.2,1578.2,2091.1,1563.8,2089,1549.5z"/>
		<path class="st9" d="M1802.9,1623.6c-13.3,1.4-26.5,0.4-39.3-3l-94.8-25c-14.2-3.7-27.4-10.2-39.1-19.3
			c-11.2-8.6-20.5-19.3-27.7-31.6c-7.2-12.3-11.8-25.6-13.8-39.7c-2.1-14.6-1.2-29.2,2.5-43.5c3.8-14.3,10.2-27.4,19.2-39.1
			c8.7-11.2,19.3-20.5,31.6-27.7c2.5-1.5,5.1-2.8,7.6-4.1c10.1-4.9,20.9-8.2,32-9.8c14.6-2.1,29.3-1.3,43.5,2.5l94.8,25
			c12.8,3.4,24.8,9,35.7,16.8c1,0.7,2,1.5,3,2.3l0.3,0.3c11.2,8.7,20.5,19.3,27.7,31.6c5.5,9.5,9.6,19.8,12.1,30.4
			c0.7,3.1,1.3,6.2,1.7,9.2c2.1,14.6,1.2,29.2-2.5,43.5c-3.8,14.3-10.2,27.4-19.2,39.1c-1.9,2.4-3.9,4.8-6.1,7.2l-0.9,1l-1.2-0.5
			c-15.6-6.3-27.3-19.8-31.3-36.2l-0.2-0.9l0.6-0.7c4.9-6.4,8.5-13.6,10.6-21.5c2.1-7.9,2.5-15.9,1.4-23.9
			c-3.5-24-20.8-43.5-44.2-49.6l-94.9-25c-13.8-3.6-28.5-2.2-41.4,4c-15.9,7.7-27.6,21.9-32.1,38.9c-8.5,32.1,10.7,65.1,42.8,73.6
			l94.8,25l1.1,0.2l0.3,1.1c2.5,8.7,6.2,17,11,25.4c4.4,7.5,9.6,14.5,15.5,20.9l2.6,2.8L1802.9,1623.6z"/>
		<path class="st4" d="M1590.1,1504.8c2,13.8,6.5,26.9,13.6,39c7,12.1,16.2,22.5,27.2,31.1c11.4,8.8,24.3,15.2,38.4,18.9l94.8,25
			c12.7,3.3,25.7,4.3,38.6,2.9c-6-6.4-11.3-13.5-15.8-21.2c-4.8-8.2-8.6-16.7-11.2-25.8c0,0,0,0,0,0l-94.8-25
			c-33.1-8.7-52.9-42.8-44.2-75.9c8.7-33.1,42.7-53,75.9-44.3l94.8,25c0,0,0,0,0,0c24.8,6.5,42.1,27.3,45.6,51.2
			c1.2,8,0.8,16.4-1.4,24.7c-2.2,8.3-6,15.8-10.9,22.2c3.8,15.4,14.8,28.7,30.2,34.9c2.1-2.3,4.1-4.6,5.9-7
			c8.8-11.4,15.2-24.3,18.9-38.4c3.7-14,4.5-28.4,2.5-42.7c-0.4-3.1-1-6.1-1.7-9.1c-2.4-10.5-6.4-20.5-11.9-29.9
			c-7-12.1-16.2-22.5-27.2-31c-1.1-0.8-2.2-1.7-3.3-2.5c-10.6-7.6-22.4-13.1-35.1-16.5l-94.8-25c-14-3.7-28.4-4.5-42.7-2.4
			c-13.8,2-26.9,6.6-39,13.6c-12.1,7-22.5,16.2-31,27.2c-8.8,11.4-15.2,24.4-18.9,38.4C1588.8,1476.1,1588,1490.5,1590.1,1504.8z"/>
	</g>
</g>
<g>
	<polygon class="st0" points="703.7,174.5 548.3,329.9 548.3,951.6 1189.4,951.6 1189.4,174.5 	"/>
	<polygon class="st10" points="703.7,174.5 548.3,329.9 703.7,329.9 	"/>
</g>
<g>
	<circle class="st11" cx="652.5" cy="585.8" r="21.4"/>
	<rect x="713" y="569.1" class="st11" width="415.4" height="33.4"/>
	<circle class="st11" cx="652.5" cy="874" r="21.4"/>
	<rect x="713" y="857.3" class="st11" width="415.4" height="33.4"/>
	<circle class="st11" cx="652.5" cy="657.8" r="21.4"/>
	<rect x="713" y="641.1" class="st11" width="379.4" height="33.4"/>
	<circle class="st11" cx="652.5" cy="729.9" r="21.4"/>
	<rect x="713" y="713.2" class="st11" width="397.4" height="33.4"/>
	<circle class="st11" cx="652.5" cy="801.9" r="21.4"/>
	<rect x="713" y="785.2" class="st11" width="325.4" height="33.4"/>
</g>
<g>
	<path class="st11" d="M829.6,449.2c1.3,0,2.1,0.8,2.1,2.1v57.2c0,1.3-0.8,2.1-2.1,2.1h-7.3c-1.3,0-2.1-0.8-2.1-2.1v-23.8h-15.4
		v23.8c0,1.3-0.8,2.1-2.1,2.1h-7.3c-1.3,0-2.1-0.8-2.1-2.1v-57.2c0-1.3,0.8-2.1,2.1-2.1h7.3c1.3,0,2.1,0.8,2.1,2.1v22.8h15.4v-22.8
		c0-1.3,0.8-2.1,2.1-2.1H829.6z"/>
	<path class="st11" d="M882.7,500.7c0.2,1,0.3,1.6,0.3,2.5v5.3c0,1.3-0.8,2.1-2.1,2.1h-7.3c-1.3,0-2.1-0.8-2.1-2.1v-6.9l-1.5-7.3
		h-13.2l-1.5,7.3v6.9c0,1.3-0.8,2.1-2.1,2.1h-7.3c-1.3,0-2.1-0.8-2.1-2.1v-5.3c0-0.9,0.1-1.5,0.3-2.5l11.3-49.7
		c0.3-1.2,1.1-1.8,2.3-1.8h11.5c1.2,0,2,0.6,2.3,1.8L882.7,500.7z M863.3,461.8l-4.5,21.9h9L863.3,461.8z"/>
	<path class="st11" d="M933.3,464.7c0.1,1.4-0.7,2.2-2,2.2h-7.4c-1.3,0-1.9-0.7-2.2-2.1c-0.7-4.4-3.8-6-7.7-6
		c-4.9,0-7.5,2.3-7.5,6.2c0,11.6,26.9,9.1,26.9,28.8c0,11.2-6.8,17.8-19.2,17.8c-11.6,0-18.3-6.1-19.1-16.5c-0.1-1.4,0.7-2.2,2-2.2
		h7.4c1.3,0,1.9,0.7,2.2,2.1c0.7,4.4,3.8,6,7.7,6c4.9,0,7.5-2.3,7.5-6.2c0-11.6-26.9-9.1-26.9-28.8c0-11.2,6.8-17.8,19.2-17.8
		C925.8,448.2,932.6,454.4,933.3,464.7z"/>
	<path class="st11" d="M982.2,449.2c1.3,0,2.1,0.8,2.1,2.1v57.2c0,1.3-0.8,2.1-2.1,2.1h-7.3c-1.3,0-2.1-0.8-2.1-2.1v-23.8h-15.4
		v23.8c0,1.3-0.8,2.1-2.1,2.1H948c-1.3,0-2.1-0.8-2.1-2.1v-57.2c0-1.3,0.8-2.1,2.1-2.1h7.3c1.3,0,2.1,0.8,2.1,2.1v22.8h15.4v-22.8
		c0-1.3,0.8-2.1,2.1-2.1H982.2z"/>
	<path class="st11" d="M1081.1,500.1c1.3,0,2.1,0.8,2.1,2.1v6.3c0,1.3-0.8,2.1-2.1,2.1h-28.4c-1.3,0-2.1-0.8-2.1-2.1v-6.3
		c0-1.3,0.8-2.1,2.1-2.1h8.4v-36.4l-6.2,3.2c-1.2,0.7-2.2,0.4-2.9-0.9l-3.2-5.6c-0.7-1.2-0.4-2.2,0.8-2.9l13.2-7.7
		c1-0.5,1.6-0.7,2.7-0.7h5c1.3,0,2.1,0.8,2.1,2.1v48.8H1081.1z"/>
</g>
<g>
	<polygon class="st0" points="1664.5,174.5 1509.1,329.9 1509.1,951.6 2150.2,951.6 2150.2,174.5 	"/>
	<polygon class="st10" points="1664.5,174.5 1509.1,329.9 1664.5,329.9 	"/>
</g>
<g>
	<circle class="st11" cx="1613.3" cy="585.8" r="21.4"/>
	<rect x="1673.8" y="569.1" class="st11" width="415.4" height="33.4"/>
	<circle class="st11" cx="1613.3" cy="874" r="21.4"/>
	<rect x="1673.8" y="857.3" class="st11" width="415.4" height="33.4"/>
	<circle class="st11" cx="1613.3" cy="657.8" r="21.4"/>
	<rect x="1673.8" y="641.1" class="st11" width="379.4" height="33.4"/>
	<circle class="st11" cx="1613.3" cy="729.9" r="21.4"/>
	<rect x="1673.8" y="713.2" class="st11" width="397.4" height="33.4"/>
	<circle class="st11" cx="1613.3" cy="801.9" r="21.4"/>
	<rect x="1673.8" y="785.2" class="st11" width="325.4" height="33.4"/>
</g>
<g>
	<path class="st11" d="M1793.3,449.2c1.3,0,2.1,0.8,2.1,2.1v57.2c0,1.3-0.8,2.1-2.1,2.1h-7.3c-1.3,0-2.1-0.8-2.1-2.1v-23.8h-15.4
		v23.8c0,1.3-0.8,2.1-2.1,2.1h-7.3c-1.3,0-2.1-0.8-2.1-2.1v-57.2c0-1.3,0.8-2.1,2.1-2.1h7.3c1.3,0,2.1,0.8,2.1,2.1v22.8h15.4v-22.8
		c0-1.3,0.8-2.1,2.1-2.1H1793.3z"/>
	<path class="st11" d="M1846.5,500.7c0.2,1,0.3,1.6,0.3,2.5v5.3c0,1.3-0.8,2.1-2.1,2.1h-7.3c-1.3,0-2.1-0.8-2.1-2.1v-6.9l-1.5-7.3
		h-13.2l-1.5,7.3v6.9c0,1.3-0.8,2.1-2.1,2.1h-7.3c-1.3,0-2.1-0.8-2.1-2.1v-5.3c0-0.9,0.1-1.5,0.3-2.5l11.3-49.7
		c0.3-1.2,1.1-1.8,2.3-1.8h11.5c1.2,0,2,0.6,2.3,1.8L1846.5,500.7z M1827.1,461.8l-4.5,21.9h9L1827.1,461.8z"/>
	<path class="st11" d="M1897.1,464.7c0.1,1.4-0.7,2.2-2,2.2h-7.4c-1.3,0-1.9-0.7-2.2-2.1c-0.7-4.4-3.8-6-7.7-6
		c-4.9,0-7.5,2.3-7.5,6.2c0,11.6,26.9,9.1,26.9,28.8c0,11.2-6.8,17.8-19.2,17.8c-11.6,0-18.3-6.1-19.1-16.5c-0.1-1.4,0.7-2.2,2-2.2
		h7.4c1.3,0,1.9,0.7,2.2,2.1c0.7,4.4,3.8,6,7.7,6c4.9,0,7.5-2.3,7.5-6.2c0-11.6-26.9-9.1-26.9-28.8c0-11.2,6.8-17.8,19.2-17.8
		C1889.6,448.2,1896.3,454.4,1897.1,464.7z"/>
	<path class="st11" d="M1946,449.2c1.3,0,2.1,0.8,2.1,2.1v57.2c0,1.3-0.8,2.1-2.1,2.1h-7.3c-1.3,0-2.1-0.8-2.1-2.1v-23.8h-15.4v23.8
		c0,1.3-0.8,2.1-2.1,2.1h-7.3c-1.3,0-2.1-0.8-2.1-2.1v-57.2c0-1.3,0.8-2.1,2.1-2.1h7.3c1.3,0,2.1,0.8,2.1,2.1v22.8h15.4v-22.8
		c0-1.3,0.8-2.1,2.1-2.1H1946z"/>
	<path class="st11" d="M2047.1,500.1c1.3,0,2.1,0.8,2.1,2.1v6.3c0,1.3-0.8,2.1-2.1,2.1h-33.6c-1.3,0-2.1-0.8-2.1-2.1v-12.2
		c0-1.1,0.4-1.8,1.2-2.6l20.5-18.1c4.4-3.8,5.2-5.9,5.2-9.1c0-6.3-3-7.7-7.7-7.7s-7.7,1.8-7.7,6.7v1.4c0,1.3-0.8,2.1-2.1,2.1h-7.3
		c-1.3,0-2.1-0.8-2.1-2.1v-0.5c0-11.4,6.1-18.2,19.2-18.2s19.2,6.8,19.2,18.2c0,6-1.7,10.1-8.4,15.8l-19,16.6v1.2H2047.1z"/>
</g>
<g>
	<path class="st11" d="M1793.3,359.1c1.3,0,2.1,0.8,2.1,2.1v57.2c0,1.3-0.8,2.1-2.1,2.1h-7.3c-1.3,0-2.1-0.8-2.1-2.1v-23.8h-15.4
		v23.8c0,1.3-0.8,2.1-2.1,2.1h-7.3c-1.3,0-2.1-0.8-2.1-2.1v-57.2c0-1.3,0.8-2.1,2.1-2.1h7.3c1.3,0,2.1,0.8,2.1,2.1v22.8h15.4v-22.8
		c0-1.3,0.8-2.1,2.1-2.1H1793.3z"/>
	<path class="st11" d="M1846.5,410.6c0.2,1,0.3,1.6,0.3,2.5v5.3c0,1.3-0.8,2.1-2.1,2.1h-7.3c-1.3,0-2.1-0.8-2.1-2.1v-6.9l-1.5-7.3
		h-13.2l-1.5,7.3v6.9c0,1.3-0.8,2.1-2.1,2.1h-7.3c-1.3,0-2.1-0.8-2.1-2.1v-5.3c0-0.9,0.1-1.5,0.3-2.5l11.3-49.7
		c0.3-1.2,1.1-1.8,2.3-1.8h11.5c1.2,0,2,0.6,2.3,1.8L1846.5,410.6z M1827.1,371.8l-4.5,21.9h9L1827.1,371.8z"/>
	<path class="st11" d="M1897.1,374.7c0.1,1.4-0.7,2.2-2,2.2h-7.4c-1.3,0-1.9-0.7-2.2-2.1c-0.7-4.4-3.8-6-7.7-6
		c-4.9,0-7.5,2.3-7.5,6.2c0,11.6,26.9,9.1,26.9,28.8c0,11.2-6.8,17.8-19.2,17.8c-11.6,0-18.3-6.1-19.1-16.5c-0.1-1.4,0.7-2.2,2-2.2
		h7.4c1.3,0,1.9,0.7,2.2,2.1c0.7,4.4,3.8,6,7.7,6c4.9,0,7.5-2.3,7.5-6.2c0-11.6-26.9-9.1-26.9-28.8c0-11.2,6.8-17.8,19.2-17.8
		C1889.6,358.1,1896.3,364.3,1897.1,374.7z"/>
	<path class="st11" d="M1946,359.1c1.3,0,2.1,0.8,2.1,2.1v57.2c0,1.3-0.8,2.1-2.1,2.1h-7.3c-1.3,0-2.1-0.8-2.1-2.1v-23.8h-15.4v23.8
		c0,1.3-0.8,2.1-2.1,2.1h-7.3c-1.3,0-2.1-0.8-2.1-2.1v-57.2c0-1.3,0.8-2.1,2.1-2.1h7.3c1.3,0,2.1,0.8,2.1,2.1v22.8h15.4v-22.8
		c0-1.3,0.8-2.1,2.1-2.1H1946z"/>
	<path class="st11" d="M2044.8,410c1.3,0,2.1,0.8,2.1,2.1v6.3c0,1.3-0.8,2.1-2.1,2.1h-28.4c-1.3,0-2.1-0.8-2.1-2.1v-6.3
		c0-1.3,0.8-2.1,2.1-2.1h8.4v-36.4l-6.2,3.2c-1.2,0.7-2.2,0.4-2.9-0.9l-3.2-5.6c-0.7-1.2-0.4-2.2,0.8-2.9l13.2-7.7
		c1-0.5,1.6-0.7,2.7-0.7h5c1.3,0,2.1,0.8,2.1,2.1V410H2044.8z"/>
</g>
<g>
	<polygon class="st0" points="2625.3,174.5 2469.9,329.9 2469.9,951.6 3110.9,951.6 3110.9,174.5 	"/>
	<polygon class="st10" points="2625.3,174.5 2469.9,329.9 2625.3,329.9 	"/>
</g>
<g>
	<circle class="st11" cx="2574" cy="585.8" r="21.4"/>
	<rect x="2634.6" y="569.1" class="st11" width="415.4" height="33.4"/>
	<circle class="st11" cx="2574" cy="874" r="21.4"/>
	<rect x="2634.6" y="857.3" class="st11" width="415.4" height="33.4"/>
	<circle class="st11" cx="2574" cy="657.8" r="21.4"/>
	<rect x="2634.6" y="641.1" class="st11" width="379.4" height="33.4"/>
	<circle class="st11" cx="2574" cy="729.9" r="21.4"/>
	<rect x="2634.6" y="713.2" class="st11" width="397.4" height="33.4"/>
	<circle class="st11" cx="2574" cy="801.9" r="21.4"/>
	<rect x="2634.6" y="785.2" class="st11" width="325.4" height="33.4"/>
</g>
<g>
	<path class="st11" d="M2754.1,449.2c1.3,0,2.1,0.8,2.1,2.1v57.2c0,1.3-0.8,2.1-2.1,2.1h-7.3c-1.3,0-2.1-0.8-2.1-2.1v-23.8h-15.4
		v23.8c0,1.3-0.8,2.1-2.1,2.1h-7.3c-1.3,0-2.1-0.8-2.1-2.1v-57.2c0-1.3,0.8-2.1,2.1-2.1h7.3c1.3,0,2.1,0.8,2.1,2.1v22.8h15.4v-22.8
		c0-1.3,0.8-2.1,2.1-2.1H2754.1z"/>
	<path class="st11" d="M2807.3,500.7c0.2,1,0.3,1.6,0.3,2.5v5.3c0,1.3-0.8,2.1-2.1,2.1h-7.3c-1.3,0-2.1-0.8-2.1-2.1v-6.9l-1.5-7.3
		h-13.2l-1.5,7.3v6.9c0,1.3-0.8,2.1-2.1,2.1h-7.3c-1.3,0-2.1-0.8-2.1-2.1v-5.3c0-0.9,0.1-1.5,0.3-2.5l11.3-49.7
		c0.3-1.2,1.1-1.8,2.3-1.8h11.5c1.2,0,2,0.6,2.3,1.8L2807.3,500.7z M2787.9,461.8l-4.5,21.9h9L2787.9,461.8z"/>
	<path class="st11" d="M2857.9,464.7c0.1,1.4-0.7,2.2-2,2.2h-7.4c-1.3,0-1.9-0.7-2.2-2.1c-0.7-4.4-3.8-6-7.7-6
		c-4.9,0-7.5,2.3-7.5,6.2c0,11.6,26.9,9.1,26.9,28.8c0,11.2-6.8,17.8-19.2,17.8c-11.6,0-18.3-6.1-19.1-16.5c-0.1-1.4,0.7-2.2,2-2.2
		h7.4c1.3,0,1.9,0.7,2.2,2.1c0.7,4.4,3.8,6,7.7,6c4.9,0,7.5-2.3,7.5-6.2c0-11.6-26.9-9.1-26.9-28.8c0-11.2,6.8-17.8,19.2-17.8
		C2850.4,448.2,2857.1,454.4,2857.9,464.7z"/>
	<path class="st11" d="M2906.7,449.2c1.3,0,2.1,0.8,2.1,2.1v57.2c0,1.3-0.8,2.1-2.1,2.1h-7.3c-1.3,0-2.1-0.8-2.1-2.1v-23.8H2882
		v23.8c0,1.3-0.8,2.1-2.1,2.1h-7.3c-1.3,0-2.1-0.8-2.1-2.1v-57.2c0-1.3,0.8-2.1,2.1-2.1h7.3c1.3,0,2.1,0.8,2.1,2.1v22.8h15.4v-22.8
		c0-1.3,0.8-2.1,2.1-2.1H2906.7z"/>
	<path class="st11" d="M3010.6,493.3c0,11.4-6.1,18.2-19.2,18.2s-19.2-6.8-19.2-18.2c0-1.1,0.8-1.6,2.1-1.6h7.3
		c1.3,0,2.1,0.8,2.1,2.1v0.5c0,4.9,3,6.7,7.7,6.7s7.7-1.8,7.7-6.7v-1.9c0-5.9-3-8.4-9.1-8.4h-0.8c-1.3,0-2.1-0.8-2.1-2.1v-4.4
		c0-1.3,0.8-2.1,2.1-2.1h0.8c6.1,0,9.1-2.1,9.1-8v-1.9c0-4.9-3-6.7-7.7-6.7s-7.7,1.8-7.7,6.7v0.5c0,1.3-0.8,2.1-2.1,2.1h-7.3
		c-1.3,0-2.1-0.6-2.1-1.6c0-11.4,6.1-18.2,19.2-18.2s19.2,6.8,19.2,18.2c0,6.5-2,10.8-6,13.4
		C3008.6,482.5,3010.6,486.8,3010.6,493.3z"/>
</g>
<g>
	<path class="st11" d="M2754.1,359.1c1.3,0,2.1,0.8,2.1,2.1v57.2c0,1.3-0.8,2.1-2.1,2.1h-7.3c-1.3,0-2.1-0.8-2.1-2.1v-23.8h-15.4
		v23.8c0,1.3-0.8,2.1-2.1,2.1h-7.3c-1.3,0-2.1-0.8-2.1-2.1v-57.2c0-1.3,0.8-2.1,2.1-2.1h7.3c1.3,0,2.1,0.8,2.1,2.1v22.8h15.4v-22.8
		c0-1.3,0.8-2.1,2.1-2.1H2754.1z"/>
	<path class="st11" d="M2807.3,410.6c0.2,1,0.3,1.6,0.3,2.5v5.3c0,1.3-0.8,2.1-2.1,2.1h-7.3c-1.3,0-2.1-0.8-2.1-2.1v-6.9l-1.5-7.3
		h-13.2l-1.5,7.3v6.9c0,1.3-0.8,2.1-2.1,2.1h-7.3c-1.3,0-2.1-0.8-2.1-2.1v-5.3c0-0.9,0.1-1.5,0.3-2.5l11.3-49.7
		c0.3-1.2,1.1-1.8,2.3-1.8h11.5c1.2,0,2,0.6,2.3,1.8L2807.3,410.6z M2787.9,371.8l-4.5,21.9h9L2787.9,371.8z"/>
	<path class="st11" d="M2857.9,374.7c0.1,1.4-0.7,2.2-2,2.2h-7.4c-1.3,0-1.9-0.7-2.2-2.1c-0.7-4.4-3.8-6-7.7-6
		c-4.9,0-7.5,2.3-7.5,6.2c0,11.6,26.9,9.1,26.9,28.8c0,11.2-6.8,17.8-19.2,17.8c-11.6,0-18.3-6.1-19.1-16.5c-0.1-1.4,0.7-2.2,2-2.2
		h7.4c1.3,0,1.9,0.7,2.2,2.1c0.7,4.4,3.8,6,7.7,6c4.9,0,7.5-2.3,7.5-6.2c0-11.6-26.9-9.1-26.9-28.8c0-11.2,6.8-17.8,19.2-17.8
		C2850.4,358.1,2857.1,364.3,2857.9,374.7z"/>
	<path class="st11" d="M2906.7,359.1c1.3,0,2.1,0.8,2.1,2.1v57.2c0,1.3-0.8,2.1-2.1,2.1h-7.3c-1.3,0-2.1-0.8-2.1-2.1v-23.8H2882
		v23.8c0,1.3-0.8,2.1-2.1,2.1h-7.3c-1.3,0-2.1-0.8-2.1-2.1v-57.2c0-1.3,0.8-2.1,2.1-2.1h7.3c1.3,0,2.1,0.8,2.1,2.1v22.8h15.4v-22.8
		c0-1.3,0.8-2.1,2.1-2.1H2906.7z"/>
	<path class="st11" d="M3007.9,410c1.3,0,2.1,0.8,2.1,2.1v6.3c0,1.3-0.8,2.1-2.1,2.1h-33.6c-1.3,0-2.1-0.8-2.1-2.1v-12.2
		c0-1.1,0.4-1.8,1.2-2.6l20.5-18.1c4.4-3.8,5.2-5.9,5.2-9.1c0-6.3-3-7.7-7.7-7.7s-7.7,1.8-7.7,6.7v1.4c0,1.3-0.8,2.1-2.1,2.1h-7.3
		c-1.3,0-2.1-0.8-2.1-2.1v-0.5c0-11.4,6.1-18.2,19.2-18.2s19.2,6.8,19.2,18.2c0,6-1.7,10.1-8.4,15.8l-19,16.6v1.2H3007.9z"/>
</g>
<path class="st2" d="M695.2,475.7H438.3c-15.2,0-27.6,12.4-27.6,27.6v203.1c0,15.2,12.4,27.6,27.6,27.6h130.9
	c5.8,1.6,8.8,6.5,8.8,15v119.1c0,8.1,1.2,14.1,3.3,18c4.2,7.5,12.9,11.1,26.1,11.1v-11.4c-8.7,0-13.2-5.1-13.2-15.6V749
	c0-9.9-2.7-17.1-8.4-21c5.7-3.9,8.4-10.8,8.4-21.3V586.1c0-10.5,4.5-15.6,13.2-15.6v-11.4c-13.2,0-21.9,3.6-26.1,11.1
	c-2.1,3.9-3.3,9.9-3.3,18v118.5c0,9.1-3.4,14.1-9.9,15.3H438.3c-8.6,0-15.6-7-15.6-15.6V503.3c0-8.6,7-15.6,15.6-15.6h256.9v21.7
	l63.2-27.7l-63.2-27.7V475.7z"/>
<g>
	<rect x="349.7" y="526.9" class="st2" width="134" height="156"/>
	<g>
		<path class="st0" d="M451.4,598.9V585c0-19.1-15.6-34.7-34.7-34.7h0c-19.1,0-34.7,15.6-34.7,34.7v13.9h-8.3v60h86v-60H451.4z
			 M400,585c0-9.2,7.5-16.7,16.7-16.7s16.7,7.5,16.7,16.7v13.9H400V585z"/>
	</g>
</g>
<path class="st2" d="M1655.9,475.7H1399c-15.2,0-27.6,12.4-27.6,27.6v203.1c0,15.2,12.4,27.6,27.6,27.6h130.9
	c5.8,1.6,8.8,6.5,8.8,15v119.1c0,8.1,1.2,14.1,3.3,18c4.2,7.5,12.9,11.1,26.1,11.1v-11.4c-8.7,0-13.2-5.1-13.2-15.6V749
	c0-9.9-2.7-17.1-8.4-21c5.7-3.9,8.4-10.8,8.4-21.3V586.1c0-10.5,4.5-15.6,13.2-15.6v-11.4c-13.2,0-21.9,3.6-26.1,11.1
	c-2.1,3.9-3.3,9.9-3.3,18v118.5c0,9.1-3.4,14.1-9.9,15.3H1399c-8.6,0-15.6-7-15.6-15.6V503.3c0-8.6,7-15.6,15.6-15.6h256.9v21.7
	l63.2-27.7l-63.2-27.7V475.7z"/>
<g>
	<rect x="1310.4" y="526.9" class="st2" width="134" height="156"/>
	<g>
		<path class="st0" d="M1412.1,598.9V585c0-19.1-15.6-34.7-34.7-34.7h0c-19.1,0-34.7,15.6-34.7,34.7v13.9h-8.3v60h86v-60H1412.1z
			 M1360.7,585c0-9.2,7.5-16.7,16.7-16.7s16.7,7.5,16.7,16.7v13.9h-33.4V585z"/>
	</g>
</g>
<path class="st2" d="M1655.9,385.7h-341c-15.2,0-27.6,12.4-27.6,27.6v46.9c0,8.6-7,15.6-15.6,15.6h-160.3v12h160.3
	c15.2,0,27.6-12.4,27.6-27.6v-46.9c0-8.6,7-15.6,15.6-15.6h341v21.7l63.2-27.7l-63.2-27.7V385.7z"/>
<path class="st2" d="M2616.7,475.7h-256.9c-15.2,0-27.6,12.4-27.6,27.6v203.1c0,15.2,12.4,27.6,27.6,27.6h130.9
	c5.8,1.6,8.8,6.5,8.8,15v119.1c0,8.1,1.2,14.1,3.3,18c4.2,7.5,12.9,11.1,26.1,11.1v-11.4c-8.7,0-13.2-5.1-13.2-15.6V749
	c0-9.9-2.7-17.1-8.4-21c5.7-3.9,8.4-10.8,8.4-21.3V586.1c0-10.5,4.5-15.6,13.2-15.6v-11.4c-13.2,0-21.9,3.6-26.1,11.1
	c-2.1,3.9-3.3,9.9-3.3,18v118.5c0,9.1-3.4,14.1-9.9,15.3h-129.7c-8.6,0-15.6-7-15.6-15.6V503.3c0-8.6,7-15.6,15.6-15.6h256.9v21.7
	l63.2-27.7l-63.2-27.7V475.7z"/>
<path class="st2" d="M2616.7,385.7h-341c-15.2,0-27.6,12.4-27.6,27.6v46.9c0,8.6-7,15.6-15.6,15.6h-157.3v12h157.3
	c15.2,0,27.6-12.4,27.6-27.6v-46.9c0-8.6,7-15.6,15.6-15.6h341v21.7l63.2-27.7l-63.2-27.7V385.7z"/>
<path class="st2" d="M3289.2,419.3l63.2-27.7l-63.2-27.7v21.7h-82.8c-15.2,0-27.6,12.4-27.6,27.6v46.9c0,8.6-7,15.6-15.6,15.6H3036
	v12h127.3c15.2,0,27.6-12.4,27.6-27.6v-46.9c0-8.6,7-15.6,15.6-15.6h82.8V419.3z"/>
<g>
	<path class="st2" d="M3376.3,393.4c0-6.7,5.2-12.6,12.6-12.6c6.9,0,12.4,5.9,12.4,12.6c0,6.9-5.5,12.6-12.4,12.6
		C3381.6,406,3376.3,400.6,3376.3,393.4z"/>
	<path class="st2" d="M3425.3,393.4c0-6.7,5.2-12.6,12.6-12.6c6.9,0,12.4,5.9,12.4,12.6c0,6.9-5.5,12.6-12.4,12.6
		C3430.5,406,3425.3,400.6,3425.3,393.4z"/>
	<path class="st2" d="M3474.2,393.4c0-6.7,5.2-12.6,12.6-12.6c6.9,0,12.4,5.9,12.4,12.6c0,6.9-5.5,12.6-12.4,12.6
		C3479.5,406,3474.2,400.6,3474.2,393.4z"/>
</g>
<g>
	<path class="st1" d="M651.9,7.6c14.7,0,21.9,1.7,26.9,6.5c4.5,4.1,7,10.6,7,17.4c0,8.1-2.5,13.2-8.3,17.4v0.4
		c7.8,4.1,11.5,10.8,11.5,21.1c0,8.3-2.9,15.2-8.1,19.4c-5.1,4.2-12.3,5.8-26.1,5.8h-34.6v-88H651.9z M638.4,43h11.1
		c11.1,0,15.4,0,17.2-2.5c1.1-1.5,1.2-3.7,1.2-7.3c0-4.1-0.1-6.6-1.5-7.9c-2.1-2.1-6.6-2.1-16.9-2.1h-11.1V43z M638.6,79.9h13.7
		c8.6,0,13.1-0.1,15.4-1.5c2.4-1.3,2.6-4.1,2.6-9.2c0-4.6-0.1-7.3-1.6-8.7c-2-2.1-6.5-2.2-16.5-2.2h-13.7V79.9z"/>
	<path class="st1" d="M722.8,7.6v72.2h41.1v15.8H704v-88H722.8z"/>
	<path class="st1" d="M842.1,13.3c6.5,5.9,8.3,15.3,8.3,38.4c0,23-1.8,32.5-8.3,38.3c-6.1,5.7-12.5,7.3-29,7.3
		c-16.5,0-23-1.6-29-7.3c-6.5-5.8-8.3-15.3-8.3-38.3c0-23.1,1.8-32.5,8.3-38.4c5.9-5.7,12.4-7.3,29-7.3
		C829.7,6,836.2,7.6,842.1,13.3z M797.8,24.7c-2.1,2.4-3,9.5-3,26.9c0,17.3,0.9,24.4,3,26.8c1.8,2.1,4,2.8,15.3,2.8
		c11.4,0,13.5-0.7,15.3-2.8c2.1-2.4,3-9.5,3-26.8c0-17.4-0.9-24.6-3-26.9c-1.8-2.1-4-2.8-15.3-2.8C801.7,22,799.6,22.6,797.8,24.7z"
		/>
	<path class="st1" d="M917.2,37c-0.4-6.6-0.7-11.1-3-13.1c-2-1.8-5.5-2-12.3-2c-10.2,0-12.7,0.7-14.4,2.8c-2,2.5-2.8,8.6-2.8,26.8
		c0,18.3,0.9,24.7,2.8,26.9c1.7,2.1,4.2,2.8,14.4,2.8c7.3,0,10.8-0.1,12.9-2.1c2.2-2.1,2.5-7.1,2.9-13.7h18.7
		c-0.7,14.1-2.8,20.2-8.4,25.3c-5.7,5.1-11.6,6.5-25.9,6.5c-14.5,0-22-1.2-28.6-7.4c-6.3-6.2-7.8-16.6-7.8-38.1
		c0-21.6,1.5-32.1,7.8-38.3c6.6-6.2,14.1-7.4,28.6-7.4c13.6,0,21.1,1.5,26.3,7.3c5.3,5.7,6.7,12.3,7.5,23.8H917.2z"/>
	<path class="st1" d="M980.2,60.3L970.4,72v23.6h-18.7v-88h18.7v37.2l31-37.2h22.8l-31.4,37.6l32.7,50.4h-22.4L980.2,60.3z"/>
	<path class="st1" d="M1108.4,7.6v72.2h17.3v15.8H1069V79.8h20.6V27.1l-20.6,7.7V17l24.3-9.4H1108.4z"/>
</g>
<g>
	<path class="st1" d="M1612.7,7.6c14.7,0,21.9,1.7,26.9,6.5c4.5,4.1,7,10.6,7,17.4c0,8.1-2.5,13.2-8.3,17.4v0.4
		c7.8,4.1,11.5,10.8,11.5,21.1c0,8.3-2.9,15.2-8.1,19.4c-5.1,4.2-12.3,5.8-26.1,5.8H1581v-88H1612.7z M1599.2,43h11.1
		c11.1,0,15.4,0,17.2-2.5c1.1-1.5,1.2-3.7,1.2-7.3c0-4.1-0.1-6.6-1.5-7.9c-2.1-2.1-6.6-2.1-16.9-2.1h-11.1V43z M1599.3,79.9h13.7
		c8.6,0,13.1-0.1,15.4-1.5c2.4-1.3,2.6-4.1,2.6-9.2c0-4.6-0.1-7.3-1.6-8.7c-2-2.1-6.5-2.2-16.5-2.2h-13.7V79.9z"/>
	<path class="st1" d="M1683.6,7.6v72.2h41.1v15.8h-59.8v-88H1683.6z"/>
	<path class="st1" d="M1802.9,13.3c6.5,5.9,8.3,15.3,8.3,38.4c0,23-1.8,32.5-8.3,38.3c-6.1,5.7-12.5,7.3-29,7.3
		c-16.5,0-23-1.6-29-7.3c-6.5-5.8-8.3-15.3-8.3-38.3c0-23.1,1.8-32.5,8.3-38.4c5.9-5.7,12.4-7.3,29-7.3
		C1790.5,6,1796.9,7.6,1802.9,13.3z M1758.5,24.7c-2.1,2.4-3,9.5-3,26.9c0,17.3,0.9,24.4,3,26.8c1.8,2.1,4,2.8,15.3,2.8
		c11.4,0,13.5-0.7,15.3-2.8c2.1-2.4,3-9.5,3-26.8c0-17.4-0.9-24.6-3-26.9c-1.8-2.1-4-2.8-15.3-2.8
		C1762.5,22,1760.4,22.6,1758.5,24.7z"/>
	<path class="st1" d="M1878,37c-0.4-6.6-0.7-11.1-3-13.1c-2-1.8-5.5-2-12.3-2c-10.2,0-12.7,0.7-14.4,2.8c-2,2.5-2.8,8.6-2.8,26.8
		c0,18.3,0.9,24.7,2.8,26.9c1.7,2.1,4.2,2.8,14.4,2.8c7.3,0,10.8-0.1,12.9-2.1c2.2-2.1,2.5-7.1,2.9-13.7h18.7
		c-0.7,14.1-2.8,20.2-8.4,25.3c-5.7,5.1-11.6,6.5-25.9,6.5c-14.5,0-22-1.2-28.6-7.4c-6.3-6.2-7.8-16.6-7.8-38.1
		c0-21.6,1.5-32.1,7.8-38.3c6.6-6.2,14.1-7.4,28.6-7.4c13.6,0,21.1,1.5,26.3,7.3c5.3,5.7,6.7,12.3,7.5,23.8H1878z"/>
	<path class="st1" d="M1941,60.3l-9.8,11.7v23.6h-18.7v-88h18.7v37.2l31-37.2h22.8l-31.4,37.6l32.7,50.4h-22.4L1941,60.3z"/>
	<path class="st1" d="M2024.6,82.3c0-12.1,1.3-18.1,6.6-23c3.2-3,7.3-5.1,14.3-8.3l17.7-7.8c6.9-3,9-5.8,9-11.7
		c0-4.4-0.4-6.7-2.1-8.2c-1.8-1.6-5.1-1.6-11.1-1.6c-5.3,0-10,0.1-11.7,1.5c-2.1,1.7-2.5,5.5-2.8,13.5h-18.2
		c0.1-10,0.4-20.5,8.3-26.1c5-3.6,11.7-4.5,24-4.5c11.6,0,17.6,1.1,22.3,4.1c6.5,4,10,11.7,10,21.6c0,11.6-6.9,20.6-19.9,26.4
		l-18.1,8.1c-3.4,1.5-5.7,2.8-7.1,4.2c-1.7,1.7-2.2,3.7-2.2,7v2.2h47.8v16h-66.7V82.3z"/>
</g>
<g>
	<path class="st1" d="M2573.4,7.6c14.7,0,21.9,1.7,26.9,6.5c4.5,4.1,7,10.6,7,17.4c0,8.1-2.5,13.2-8.3,17.4v0.4
		c7.8,4.1,11.5,10.8,11.5,21.1c0,8.3-2.9,15.2-8.1,19.4c-5.1,4.2-12.3,5.8-26.1,5.8h-34.6v-88H2573.4z M2560,43h11.1
		c11.1,0,15.4,0,17.2-2.5c1.1-1.5,1.2-3.7,1.2-7.3c0-4.1-0.1-6.6-1.5-7.9c-2.1-2.1-6.6-2.1-16.9-2.1H2560V43z M2560.1,79.9h13.7
		c8.6,0,13.1-0.1,15.4-1.5c2.4-1.3,2.6-4.1,2.6-9.2c0-4.6-0.1-7.3-1.6-8.7c-2-2.1-6.5-2.2-16.5-2.2h-13.7V79.9z"/>
	<path class="st1" d="M2644.3,7.6v72.2h41.1v15.8h-59.8v-88H2644.3z"/>
	<path class="st1" d="M2763.7,13.3c6.5,5.9,8.3,15.3,8.3,38.4c0,23-1.8,32.5-8.3,38.3c-6.1,5.7-12.5,7.3-29,7.3
		c-16.5,0-23-1.6-29-7.3c-6.5-5.8-8.3-15.3-8.3-38.3c0-23.1,1.8-32.5,8.3-38.4c5.9-5.7,12.4-7.3,29-7.3
		C2751.2,6,2757.7,7.6,2763.7,13.3z M2719.3,24.7c-2.1,2.4-3,9.5-3,26.9c0,17.3,0.9,24.4,3,26.8c1.8,2.1,4,2.8,15.3,2.8
		c11.4,0,13.5-0.7,15.3-2.8c2.1-2.4,3-9.5,3-26.8c0-17.4-0.9-24.6-3-26.9c-1.8-2.1-4-2.8-15.3-2.8
		C2723.3,22,2721.1,22.6,2719.3,24.7z"/>
	<path class="st1" d="M2838.8,37c-0.4-6.6-0.7-11.1-3-13.1c-2-1.8-5.5-2-12.3-2c-10.2,0-12.7,0.7-14.4,2.8c-2,2.5-2.8,8.6-2.8,26.8
		c0,18.3,0.9,24.7,2.8,26.9c1.7,2.1,4.2,2.8,14.4,2.8c7.3,0,10.8-0.1,12.9-2.1c2.2-2.1,2.5-7.1,2.9-13.7h18.7
		c-0.7,14.1-2.8,20.2-8.4,25.3c-5.7,5.1-11.6,6.5-25.9,6.5c-14.5,0-22-1.2-28.6-7.4c-6.3-6.2-7.8-16.6-7.8-38.1
		c0-21.6,1.5-32.1,7.8-38.3c6.6-6.2,14.1-7.4,28.6-7.4c13.6,0,21.1,1.5,26.3,7.3c5.3,5.7,6.7,12.3,7.5,23.8H2838.8z"/>
	<path class="st1" d="M2901.7,60.3L2892,72v23.6h-18.7v-88h18.7v37.2l31-37.2h22.8l-31.4,37.6l32.7,50.4h-22.4L2901.7,60.3z"/>
	<path class="st1" d="M3002.6,68.4l0.1,3.2c0.1,5.4,0.8,7.7,2.9,8.6c1.8,0.8,6.6,1.3,12.1,1.3c14.3,0,15.4-0.9,15.4-13.1
		c0-10-0.7-10.7-9.9-10.7h-16.8V42.4h17c3.8,0,5.9-0.1,7.3-1.1c1.6-1.2,1.7-3.7,1.7-8.7c0-10.6-0.8-11.1-13.7-11.1
		c-7.1,0-10.6,0.1-12.3,1.5c-2,1.5-2.4,4.2-2.6,11.7h-18.3c0.1-12,1.6-17.2,6.1-21.8c4.9-4.9,13.2-7,27.7-7c12.4,0,19,1.5,23.5,5.3
		c5.5,4.6,8.1,11.2,8.1,20.9c0,8.7-2,13.3-8.1,17.7v0.3c6.7,4.5,9.2,9.9,9.2,19.7c0,9.5-2.4,16.4-7.3,21.1c-5,5-10.7,6.3-25.3,6.3
		c-17.7,0-24.4-1.5-29.4-6.9c-4.8-5.1-6.1-11.1-6.1-21.9H3002.6z"/>
</g>
<g>
	<path class="st2" d="M645.9,1.6c14.7,0,21.9,1.7,26.9,6.5c4.5,4.1,7,10.6,7,17.4c0,8.1-2.5,13.2-8.3,17.4v0.4
		c7.8,4.1,11.5,10.8,11.5,21.1c0,8.3-2.9,15.2-8.1,19.4c-5.1,4.2-12.3,5.8-26.1,5.8h-34.6v-88H645.9z M632.4,37h11.1
		c11.1,0,15.4,0,17.2-2.5c1.1-1.5,1.2-3.7,1.2-7.3c0-4.1-0.1-6.6-1.5-7.9c-2.1-2.1-6.6-2.1-16.9-2.1h-11.1V37z M632.6,73.9h13.7
		c8.6,0,13.1-0.1,15.4-1.5c2.4-1.3,2.6-4.1,2.6-9.2c0-4.6-0.1-7.3-1.6-8.7c-2-2.1-6.5-2.2-16.5-2.2h-13.7V73.9z"/>
	<path class="st2" d="M716.8,1.6v72.2h41.1v15.8H698v-88H716.8z"/>
	<path class="st2" d="M836.1,7.3c6.5,5.9,8.3,15.3,8.3,38.4c0,23-1.8,32.5-8.3,38.3c-6.1,5.7-12.5,7.3-29,7.3c-16.5,0-23-1.6-29-7.3
		c-6.5-5.8-8.3-15.3-8.3-38.3c0-23.1,1.8-32.5,8.3-38.4c5.9-5.7,12.4-7.3,29-7.3C823.7,0,830.2,1.6,836.1,7.3z M791.8,18.7
		c-2.1,2.4-3,9.5-3,26.9c0,17.3,0.9,24.4,3,26.8c1.8,2.1,4,2.8,15.3,2.8c11.4,0,13.5-0.7,15.3-2.8c2.1-2.4,3-9.5,3-26.8
		c0-17.4-0.9-24.6-3-26.9c-1.8-2.1-4-2.8-15.3-2.8C795.7,16,793.6,16.6,791.8,18.7z"/>
	<path class="st2" d="M911.2,31c-0.4-6.6-0.7-11.1-3-13.1c-2-1.8-5.5-2-12.3-2c-10.2,0-12.7,0.7-14.4,2.8c-2,2.5-2.8,8.6-2.8,26.8
		c0,18.3,0.9,24.7,2.8,26.9c1.7,2.1,4.2,2.8,14.4,2.8c7.3,0,10.8-0.1,12.9-2.1c2.2-2.1,2.5-7.1,2.9-13.7h18.7
		c-0.7,14.1-2.8,20.2-8.4,25.3c-5.7,5.1-11.6,6.5-25.9,6.5c-14.5,0-22-1.2-28.6-7.4c-6.3-6.2-7.8-16.6-7.8-38.1
		c0-21.6,1.5-32.1,7.8-38.3c6.6-6.2,14.1-7.4,28.6-7.4c13.6,0,21.1,1.5,26.3,7.3c5.3,5.7,6.7,12.3,7.5,23.8H911.2z"/>
	<path class="st2" d="M974.2,54.3L964.4,66v23.6h-18.7v-88h18.7v37.2l31-37.2h22.8l-31.4,37.6l32.7,50.4h-22.4L974.2,54.3z"/>
	<path class="st2" d="M1102.4,1.6v72.2h17.3v15.8H1063V73.8h20.6V21.1l-20.6,7.7V11l24.3-9.4H1102.4z"/>
</g>
<g>
	<path class="st2" d="M1606.7,1.6c14.7,0,21.9,1.7,26.9,6.5c4.5,4.1,7,10.6,7,17.4c0,8.1-2.5,13.2-8.3,17.4v0.4
		c7.8,4.1,11.5,10.8,11.5,21.1c0,8.3-2.9,15.2-8.1,19.4c-5.1,4.2-12.3,5.8-26.1,5.8H1575v-88H1606.7z M1593.2,37h11.1
		c11.1,0,15.4,0,17.2-2.5c1.1-1.5,1.2-3.7,1.2-7.3c0-4.1-0.1-6.6-1.5-7.9c-2.1-2.1-6.6-2.1-16.9-2.1h-11.1V37z M1593.3,73.9h13.7
		c8.6,0,13.1-0.1,15.4-1.5c2.4-1.3,2.6-4.1,2.6-9.2c0-4.6-0.1-7.3-1.6-8.7c-2-2.1-6.5-2.2-16.5-2.2h-13.7V73.9z"/>
	<path class="st2" d="M1677.6,1.6v72.2h41.1v15.8h-59.8v-88H1677.6z"/>
	<path class="st2" d="M1796.9,7.3c6.5,5.9,8.3,15.3,8.3,38.4c0,23-1.8,32.5-8.3,38.3c-6.1,5.7-12.5,7.3-29,7.3
		c-16.5,0-23-1.6-29-7.3c-6.5-5.8-8.3-15.3-8.3-38.3c0-23.1,1.8-32.5,8.3-38.4c5.9-5.7,12.4-7.3,29-7.3
		C1784.5,0,1790.9,1.6,1796.9,7.3z M1752.5,18.7c-2.1,2.4-3,9.5-3,26.9c0,17.3,0.9,24.4,3,26.8c1.8,2.1,4,2.8,15.3,2.8
		c11.4,0,13.5-0.7,15.3-2.8c2.1-2.4,3-9.5,3-26.8c0-17.4-0.9-24.6-3-26.9c-1.8-2.1-4-2.8-15.3-2.8
		C1756.5,16,1754.4,16.6,1752.5,18.7z"/>
	<path class="st2" d="M1872,31c-0.4-6.6-0.7-11.1-3-13.1c-2-1.8-5.5-2-12.3-2c-10.2,0-12.7,0.7-14.4,2.8c-2,2.5-2.8,8.6-2.8,26.8
		c0,18.3,0.9,24.7,2.8,26.9c1.7,2.1,4.2,2.8,14.4,2.8c7.3,0,10.8-0.1,12.9-2.1c2.2-2.1,2.5-7.1,2.9-13.7h18.7
		c-0.7,14.1-2.8,20.2-8.4,25.3c-5.7,5.1-11.6,6.5-25.9,6.5c-14.5,0-22-1.2-28.6-7.4c-6.3-6.2-7.8-16.6-7.8-38.1
		c0-21.6,1.5-32.1,7.8-38.3c6.6-6.2,14.1-7.4,28.6-7.4c13.6,0,21.1,1.5,26.3,7.3c5.3,5.7,6.7,12.3,7.5,23.8H1872z"/>
	<path class="st2" d="M1935,54.3l-9.8,11.7v23.6h-18.7v-88h18.7v37.2l31-37.2h22.8l-31.4,37.6l32.7,50.4h-22.4L1935,54.3z"/>
	<path class="st2" d="M2018.6,76.3c0-12.1,1.3-18.1,6.6-23c3.2-3,7.3-5.1,14.3-8.3l17.7-7.8c6.9-3,9-5.8,9-11.7
		c0-4.4-0.4-6.7-2.1-8.2c-1.8-1.6-5.1-1.6-11.1-1.6c-5.3,0-10,0.1-11.7,1.5c-2.1,1.7-2.5,5.5-2.8,13.5h-18.2
		c0.1-10,0.4-20.5,8.3-26.1c5-3.6,11.7-4.5,24-4.5c11.6,0,17.6,1.1,22.3,4.1c6.5,4,10,11.7,10,21.6c0,11.6-6.9,20.6-19.9,26.4
		l-18.1,8.1c-3.4,1.5-5.7,2.8-7.1,4.2c-1.7,1.7-2.2,3.7-2.2,7v2.2h47.8v16h-66.7V76.3z"/>
</g>
<g>
	<path class="st2" d="M2567.4,1.6c14.7,0,21.9,1.7,26.9,6.5c4.5,4.1,7,10.6,7,17.4c0,8.1-2.5,13.2-8.3,17.4v0.4
		c7.8,4.1,11.5,10.8,11.5,21.1c0,8.3-2.9,15.2-8.1,19.4c-5.1,4.2-12.3,5.8-26.1,5.8h-34.6v-88H2567.4z M2554,37h11.1
		c11.1,0,15.4,0,17.2-2.5c1.1-1.5,1.2-3.7,1.2-7.3c0-4.1-0.1-6.6-1.5-7.9c-2.1-2.1-6.6-2.1-16.9-2.1H2554V37z M2554.1,73.9h13.7
		c8.6,0,13.1-0.1,15.4-1.5c2.4-1.3,2.6-4.1,2.6-9.2c0-4.6-0.1-7.3-1.6-8.7c-2-2.1-6.5-2.2-16.5-2.2h-13.7V73.9z"/>
	<path class="st2" d="M2638.3,1.6v72.2h41.1v15.8h-59.8v-88H2638.3z"/>
	<path class="st2" d="M2757.6,7.3c6.5,5.9,8.3,15.3,8.3,38.4c0,23-1.8,32.5-8.3,38.3c-6.1,5.7-12.5,7.3-29,7.3
		c-16.5,0-23-1.6-29-7.3c-6.5-5.8-8.3-15.3-8.3-38.3c0-23.1,1.8-32.5,8.3-38.4c5.9-5.7,12.4-7.3,29-7.3
		C2745.2,0,2751.7,1.6,2757.6,7.3z M2713.3,18.7c-2.1,2.4-3,9.5-3,26.9c0,17.3,0.9,24.4,3,26.8c1.8,2.1,4,2.8,15.3,2.8
		c11.4,0,13.5-0.7,15.3-2.8c2.1-2.4,3-9.5,3-26.8c0-17.4-0.9-24.6-3-26.9c-1.8-2.1-4-2.8-15.3-2.8
		C2717.3,16,2715.1,16.6,2713.3,18.7z"/>
	<path class="st2" d="M2832.8,31c-0.4-6.6-0.7-11.1-3-13.1c-2-1.8-5.5-2-12.3-2c-10.2,0-12.7,0.7-14.4,2.8c-2,2.5-2.8,8.6-2.8,26.8
		c0,18.3,0.9,24.7,2.8,26.9c1.7,2.1,4.2,2.8,14.4,2.8c7.3,0,10.8-0.1,12.9-2.1c2.2-2.1,2.5-7.1,2.9-13.7h18.7
		c-0.7,14.1-2.8,20.2-8.4,25.3c-5.7,5.1-11.6,6.5-25.9,6.5c-14.5,0-22-1.2-28.6-7.4c-6.3-6.2-7.8-16.6-7.8-38.1
		c0-21.6,1.5-32.1,7.8-38.3c6.6-6.2,14.1-7.4,28.6-7.4c13.6,0,21.1,1.5,26.3,7.3c5.3,5.7,6.7,12.3,7.5,23.8H2832.8z"/>
	<path class="st2" d="M2895.7,54.3L2886,66v23.6h-18.7v-88h18.7v37.2l31-37.2h22.8l-31.4,37.6l32.7,50.4h-22.4L2895.7,54.3z"/>
	<path class="st2" d="M2996.6,62.4l0.1,3.2c0.1,5.4,0.8,7.7,2.9,8.6c1.8,0.8,6.6,1.3,12.1,1.3c14.3,0,15.4-0.9,15.4-13.1
		c0-10-0.7-10.7-9.9-10.7h-16.8V36.4h17c3.8,0,5.9-0.1,7.3-1.1c1.6-1.2,1.7-3.7,1.7-8.7c0-10.6-0.8-11.1-13.7-11.1
		c-7.1,0-10.6,0.1-12.3,1.5c-2,1.5-2.4,4.2-2.6,11.7h-18.3c0.1-12,1.6-17.2,6.1-21.8c4.9-4.9,13.2-7,27.7-7c12.4,0,19,1.5,23.5,5.3
		c5.5,4.6,8.1,11.2,8.1,20.9c0,8.7-2,13.3-8.1,17.7v0.3c6.7,4.5,9.2,9.9,9.2,19.7c0,9.5-2.4,16.4-7.3,21.1c-5,5-10.7,6.3-25.3,6.3
		c-17.7,0-24.4-1.5-29.4-6.9c-4.8-5.1-6.1-11.1-6.1-21.9H2996.6z"/>
</g>
<g>
	<rect x="2271.2" y="526.9" class="st2" width="134" height="156"/>
	<g>
		<path class="st0" d="M2372.9,598.9V585c0-19.1-15.6-34.7-34.7-34.7h0c-19.1,0-34.7,15.6-34.7,34.7v13.9h-8.3v60h86v-60H2372.9z
			 M2321.5,585c0-9.2,7.5-16.7,16.7-16.7s16.7,7.5,16.7,16.7v13.9h-33.4V585z"/>
	</g>
</g>
<g>
	<path class="st2" d="M3186.8,1099.1H1902c-22.6,0-48.4,7.8-51.5,34.3h-13.3c-3.1-26.5-32-34.3-51.5-34.3H472.4
		c-17.9,0-62.4-1.6-65.5-54.6h14c3.1,19.5,19.5,34.3,51.5,34.3h1316.4c10.1,0,35.9-0.8,55.4,27.3c14.8-20.3,36.7-27.3,54.6-27.3
		h1288c32,0,48.4-14.8,51.5-34.3h14C3249.2,1097.5,3204.7,1099.1,3186.8,1099.1z"/>
</g>
<g>
	<path class="st1" d="M2958.5,2443.6c0,10.4,8.5,18.9,18.9,18.9l559.4,0c10.4,0,18.9-8.5,18.9-18.9v-92.2c0-10.4-8.5-18.9-18.9-18.9
		l-559.4,0c-10.4,0-18.9,8.5-18.9,18.9V2443.6z"/>
	<path class="st2" d="M2933.1,2418.2c0,10.4,8.5,18.9,18.9,18.9l559.4,0c10.4,0,18.9-8.5,18.9-18.9V2326c0-10.4-8.5-18.9-18.9-18.9
		l-559.4,0c-10.4,0-18.9,8.5-18.9,18.9V2418.2z"/>
	<path class="st3" d="M3530.5,2293.9v92.2c0,10.4-8.5,18.9-18.9,18.9h-559.4c-10.4,0-18.9-8.5-18.9-18.9v-92.2
		c0-10.4,8.5-18.9,18.9-18.9h559.4C3521.9,2275,3530.5,2283.5,3530.5,2293.9z"/>
	<path class="st3" d="M2762.2,1452.8v641.1c0,3,0.4,6,1.2,8.7c3.8,13.1,15.9,22.7,30.2,22.7l876.5,0c17.4,0,31.4-14.1,31.4-31.4
		v-641.1c0-17.4-14-31.4-31.4-31.4l-876.5,0C2776.3,1421.4,2762.2,1435.5,2762.2,1452.8z"/>
	<path class="st2" d="M3701.5,1484.5v661.1c0,17.4-14.1,31.4-31.4,31.4h-876.5c-17.4,0-31.4-16.1-31.4-33.5v-659.1
		c0-17.3,14.1-31.4,31.4-31.4h876.5C3687.5,1453.1,3701.5,1467.2,3701.5,1484.5z"/>
	<rect x="2805.3" y="1497.5" class="st1" width="853.2" height="612.1"/>
	<g>
		<path class="st4" d="M3657,1497.6v595.3h-850.4v-595.3H3657 M3670.1,1478.3h-876.5c-3.5,0-6.3,2.8-6.3,6.3v627.7h889.1v-627.7
			C3676.4,1481.1,3673.6,1478.3,3670.1,1478.3L3670.1,1478.3z"/>
	</g>
	<path class="st5" d="M3066.2,2332.6c0,5.8,4.7,10.5,10.5,10.5H3387c5.8,0,10.5-4.7,10.5-10.5v-101.9c0-5.8-4.7-10.5-10.5-10.5
		h-310.3c-5.8,0-10.5,4.7-10.5,10.5V2332.6z"/>
	<path class="st2" d="M3066.2,2333.5c0,5.8,4.7,10.5,10.5,10.5H3387c5.8,0,10.5-4.7,10.5-10.5v-101.9c0-5.8-4.7-10.5-10.5-10.5
		h-310.3c-5.8,0-10.5,4.7-10.5,10.5V2333.5z"/>
	<rect x="2806.5" y="1497.5" class="st0" width="850.5" height="42"/>
	<path class="st6" d="M2839.2,1519.3c0,5.9-4.8,10.6-10.6,10.6c-5.9,0-10.6-4.7-10.6-10.6c0-5.9,4.8-10.6,10.6-10.6
		C2834.5,1508.7,2839.2,1513.4,2839.2,1519.3z"/>
	<path class="st3" d="M3701.5,2143.6v63c0,17.4-14.1,31.4-31.4,31.4h-876.5c-17.4,0-31.4-14.1-31.4-31.4v-63H3701.5z"/>
</g>
<circle class="st0" cx="887.5" cy="1424" r="162"/>
<polyline class="st12" points="787.1,1430.1 840.8,1483.8 986.7,1358.5 "/>
<g>
	<circle class="st0" cx="3649.7" cy="1424" r="162"/>
	<g>
		<line class="st13" x1="3574.3" y1="1502.1" x2="3725" y2="1345.9"/>
		<line class="st13" x1="3725" y1="1502.1" x2="3574.3" y2="1345.9"/>
	</g>
</g>
<path class="st0" d="M2559.3,2399.4h-36v-90h36V2399.4z M2559.3,2249.4h-36v-90h36V2249.4z M2559.3,2099.4h-36v-90h36V2099.4z
	 M2559.3,1949.4h-36v-90h36V1949.4z M2559.3,1799.4h-36v-90h36V1799.4z M2559.3,1649.4h-36v-90h36V1649.4z M2559.3,1499.4h-36v-90
	h36V1499.4z"/>
</svg>
