<?xml version="1.0" encoding="utf-8"?>
<!-- Generator: Adobe Illustrator 22.0.1, SVG Export Plug-In . SVG Version: 6.00 Build 0)  -->
<svg version="1.1" id="Layer_1" xmlns="http://www.w3.org/2000/svg" xmlns:xlink="http://www.w3.org/1999/xlink" x="0px" y="0px"
	 viewBox="0 0 4564.3 2491" style="enable-background:new 0 0 4564.3 2491;" xml:space="preserve">
<style type="text/css">
	.st0{fill:#384261;}
	.st1{fill:#606A89;}
	.st2{fill:#CDE0DE;}
	.st3{fill:#2E3857;}
	.st4{fill:#F97071;}
	.st5{fill:#EF6667;}
	.st6{fill:#DB5253;}
	.st7{fill:#BD3435;}
	.st8{fill:#B32A2B;}
	.st9{fill:#FFFFFF;}
	.st10{fill:#B9CCCA;}
	.st11{fill:#F9A9AB;}
	.st12{fill:#6A7493;}
	.st13{fill:#56607F;}
	.st14{fill:#BFCED5;}
	.st15{fill:#E79899;}
	.st16{fill:#B5C4CB;}
	.st17{fill:#424C6B;}
</style>
<rect x="3226" y="585.7" class="st0" width="156.9" height="616.3"/>
<rect x="3208" y="585.7" class="st1" width="144.9" height="616.3"/>
<path class="st2" d="M3018.9,369h-297.2c-126.8,0-229.7,129.8-229.7,289.9s102.8,289.9,229.7,289.9h297.2
	c126.8,0,229.7-129.8,229.7-289.9S3145.7,369,3018.9,369z"/>
<path class="st3" d="M2586.7,600.5c0,0-0.5,3.8,0,6h152.1v-6V495.3v-6C2738.8,489.3,2593.4,559.6,2586.7,600.5z"/>
<path class="st0" d="M2738.8,489.3h-113.3c-18.7,32.6-32.1,70.3-38.7,111.2h152.1V489.3z"/>
<path class="st0" d="M3066.6,329.5h-168.1c-144.1,0-261,147.5-261,329.5s116.8,329.5,261,329.5h168.1c144.1,0,261-147.5,261-329.5
	S3210.7,329.5,3066.6,329.5z"/>
<path class="st3" d="M2898.5,988.4h168.1c91.3,0,171.6-59.2,218.3-148.8l-448.4-74.7c-57.7-4.8-134.6-5.8-186.7-5.7
	C2683.3,892.1,2782,988.4,2898.5,988.4z"/>
<path class="st0" d="M3213.7,329.5h-168.1c-144.1,0-261,147.5-261,329.5s116.8,329.5,261,329.5h168.1c144.1,0,261-147.5,261-329.5
	S3357.8,329.5,3213.7,329.5z"/>
<path class="st4" d="M4564.3,658.9c0,363.9-233.7,659.3-522,658.9c-301.3-0.4-414.8-198.4-1028.4-336.2
	c-119.8-26.9-208.4-163.6-208.4-322.8s88.5-295.9,208.4-322.8C3627.6,198.4,3767.3,2,4042.4,0C4330.6-2.1,4564.3,295,4564.3,658.9z"
	/>
<path class="st5" d="M2818.6,762.8c28.8,111.7,102.7,198.1,195.4,218.9c562.6,126.3,704.8,303.2,956.7,332.1
	c-44.4-13-84.7-25.8-110.2-37C3673.6,1194.5,3245.7,799,2818.6,762.8z"/>
<ellipse class="st6" cx="4042.4" cy="658.9" rx="522" ry="658.9"/>
<ellipse class="st6" cx="4042.4" cy="658.9" rx="522" ry="658.9"/>
<ellipse class="st7" cx="4078.4" cy="658.9" rx="438.5" ry="553.5"/>
<path class="st8" d="M4322.9,658.9c0-275.1-176.7-498.2-394.6-498.2c-15.8,0-31.4,1.2-46.8,3.5c-143.3,91.1-241.6,278.4-241.6,494.7
	s98.3,403.6,241.6,494.7c15.3,2.3,30.9,3.5,46.8,3.5C4146.2,1157.1,4322.9,934.1,4322.9,658.9z"/>
<path class="st2" d="M4105.4,658.9c0-81-51.8-147.6-118.8-151.3c-40.8-2.3-204.1-11-325.9-17.5c-13.5,53.2-20.8,110-20.8,168.8
	s7.3,115.6,20.8,168.8c121.8-6.5,285.1-15.2,325.9-17.5C4053.6,806.5,4105.4,739.9,4105.4,658.9z"/>
<ellipse class="st9" cx="3988.3" cy="658.9" rx="104.4" ry="131.8"/>
<ellipse class="st3" cx="3988.3" cy="658.9" rx="83.5" ry="105.4"/>
<path class="st10" d="M3726,658.9c0-69.7,33-130.3,81.5-161c-49-2.6-100.8-5.4-146.8-7.8c-13.5,53.2-20.8,110-20.8,168.8
	s7.3,115.6,20.8,168.8c46-2.4,97.8-5.2,146.8-7.8C3759,789.3,3726,728.7,3726,658.9z"/>
<path class="st11" d="M3508.3,264.3c-1.2-1.7-3.5-2.2-5.3-1.3c-94.2,46.7-210.6,71.2-313.3,92.7c-100.5,21.1-179.8,37.7-203,68.9
	c-13.8,18.5-9.1,29-2.7,34.5c7.3,6.3,21,9.5,40.8,9.5c12.4,0,27.1-1.2,44.2-3.7c41.2-6,93.3-19,146.5-36.8
	c125.9-42,235.2-101.2,292.3-158.3C3509.4,268.3,3509.5,265.9,3508.3,264.3z"/>
<path class="st0" d="M4071.8,658.9c0-46.7-24.1-86.3-57.4-100.2c-18.9,28.7-29.9,63.1-29.9,100.2s11,71.5,29.9,100.2
	C4047.8,745.3,4071.8,705.7,4071.8,658.9z"/>
<rect x="2726.8" y="585.7" class="st0" width="156.9" height="616.3"/>
<rect x="2708.8" y="585.7" class="st12" width="144.9" height="616.3"/>
<path class="st13" d="M3129.2,1150.3h-55.6c-11.9,0-21.6-9.7-21.6-21.6v-5.2c0-11.9,9.7-21.6,21.6-21.6h55.6
	c11.9,0,21.6,9.7,21.6,21.6v5.2C3150.8,1140.5,3141.1,1150.3,3129.2,1150.3z"/>
<rect x="2864" y="1124.6" class="st0" width="500.9" height="77.5"/>
<ellipse class="st14" cx="2782.3" cy="665.4" rx="38" ry="44.8"/>
<rect x="1181.5" y="585.7" transform="matrix(-1 -4.494683e-11 4.494683e-11 -1 2519.7644 1787.8104)" class="st12" width="156.9" height="616.3"/>
<rect x="1211.5" y="585.7" transform="matrix(-1 -4.493129e-11 4.493129e-11 -1 2567.803 1787.8104)" class="st0" width="144.9" height="616.3"/>
<path class="st2" d="M1545.4,369h297.2c126.8,0,229.7,129.8,229.7,289.9s-102.8,289.9-229.7,289.9h-297.2
	c-126.8,0-229.7-129.8-229.7-289.9S1418.6,369,1545.4,369z"/>
<path class="st3" d="M1977.6,600.5c0,0,0.5,3.8,0,6h-152.1v-6V495.3v-6C1825.5,489.3,1971,559.6,1977.6,600.5z"/>
<path class="st0" d="M1825.5,489.3h113.3c18.7,32.6,32.1,70.3,38.7,111.2h-152.1V489.3z"/>
<path class="st0" d="M1497.7,329.5h168.1c144.1,0,261,147.5,261,329.5s-116.8,329.5-261,329.5h-168.1c-144.1,0-261-147.5-261-329.5
	S1353.6,329.5,1497.7,329.5z"/>
<path class="st3" d="M1665.9,988.4h-168.1c-91.3,0-171.6-59.2-218.3-148.8l448.4-74.7c57.7-4.8,134.6-5.8,186.7-5.7
	C1881,892.1,1782.3,988.4,1665.9,988.4z"/>
<path class="st0" d="M1350.6,329.5h168.1c144.1,0,261,147.5,261,329.5s-116.8,329.5-261,329.5h-168.1c-144.1,0-261-147.5-261-329.5
	S1206.5,329.5,1350.6,329.5z"/>
<path class="st4" d="M0,658.9c0,363.9,233.7,659.3,522,658.9c301.3-0.4,414.8-198.4,1028.4-336.2
	c119.8-26.9,208.4-163.6,208.4-322.8s-88.5-295.9-208.4-322.8C936.7,198.4,797.1,2,522,0C233.7-2.1,0,295,0,658.9z"/>
<path class="st5" d="M1745.7,762.8c-28.8,111.7-102.7,198.1-195.4,218.9C987.8,1108,845.6,1285,593.6,1313.8
	c44.4-13,84.7-25.8,110.2-37C890.8,1194.5,1318.6,799,1745.7,762.8z"/>
<ellipse class="st6" cx="522" cy="658.9" rx="522" ry="658.9"/>
<ellipse class="st6" cx="522" cy="658.9" rx="522" ry="658.9"/>
<path class="st15" d="M625.4,67.4c-1.6,22.7-53,5.6-103.1,6.2c-50.7,0.6-100.8,17.8-103.8-6.2C416.6,51.9,471,35.9,522,34.8
	C573.1,33.6,626.4,53.3,625.4,67.4z"/>
<ellipse class="st7" cx="485.9" cy="658.9" rx="438.5" ry="553.5"/>
<path class="st8" d="M241.5,658.9c0-275.1,176.7-498.2,394.6-498.2c15.8,0,31.4,1.2,46.8,3.5c143.3,91.1,241.6,278.4,241.6,494.7
	s-98.3,403.6-241.6,494.7c-15.3,2.3-30.9,3.5-46.8,3.5C418.1,1157.1,241.5,934.1,241.5,658.9z"/>
<path class="st2" d="M459,658.9c0-81,51.8-147.6,118.8-151.3c40.8-2.3,204.1-11,325.9-17.5c13.5,53.2,20.8,110,20.8,168.8
	s-7.3,115.6-20.8,168.8c-121.8-6.5-285.1-15.2-325.9-17.5C510.7,806.5,459,739.9,459,658.9z"/>
<ellipse class="st9" cx="576" cy="658.9" rx="104.4" ry="131.8"/>
<ellipse class="st3" cx="576" cy="658.9" rx="83.5" ry="105.4"/>
<path class="st10" d="M838.3,658.9c0-69.7-33-130.3-81.5-161c49-2.6,100.8-5.4,146.8-7.8c13.5,53.2,20.8,110,20.8,168.8
	s-7.3,115.6-20.8,168.8c-46-2.4-97.8-5.2-146.8-7.8C805.3,789.3,838.3,728.7,838.3,658.9z"/>
<path class="st0" d="M492.5,658.9c0-46.7,24.1-86.3,57.4-100.2c18.9,28.7,29.9,63.1,29.9,100.2s-11,71.5-29.9,100.2
	C516.6,745.3,492.5,705.7,492.5,658.9z"/>
<rect x="1680.6" y="585.7" transform="matrix(-1 -4.494683e-11 4.494683e-11 -1 3518.1519 1787.8104)" class="st1" width="156.9" height="616.3"/>
<rect x="1710.7" y="585.7" transform="matrix(-1 -4.495616e-11 4.495616e-11 -1 3566.1904 1787.8104)" class="st0" width="144.9" height="616.3"/>
<path class="st13" d="M1435.1,1150.3h55.6c11.9,0,21.6-9.7,21.6-21.6v-5.2c0-11.9-9.7-21.6-21.6-21.6h-55.6
	c-11.9,0-21.6,9.7-21.6,21.6v5.2C1413.5,1140.5,1423.2,1150.3,1435.1,1150.3z"/>
<rect x="1199.5" y="1124.6" transform="matrix(-1 -4.491619e-11 4.491619e-11 -1 2899.8027 2326.6538)" class="st1" width="500.9" height="77.5"/>
<path class="st12" d="M1199.5,1124.6v77.5h170.7c-13.3-24.5-24.5-50.5-33.4-77.5H1199.5z"/>
<ellipse class="st16" cx="1782" cy="665.4" rx="38" ry="44.8"/>
<rect x="2182.4" y="933.9" class="st12" width="199.6" height="104.5"/>
<rect x="2248.9" y="933.9" class="st13" width="133.1" height="104.5"/>
<rect x="2226.8" y="933.9" class="st13" width="34.8" height="104.5"/>
<rect x="2149" y="977.9" class="st12" width="266.4" height="1513.2"/>
<rect x="2226.8" y="977.9" class="st13" width="110.2" height="1513.2"/>
<rect x="2335.2" y="977.9" class="st0" width="80.1" height="1513.2"/>
<rect x="2322.6" y="1201.7" class="st0" width="867.1" height="77.9"/>
<rect x="2313.6" y="1201.7" class="st13" width="729.1" height="77.9"/>
<rect x="1374.7" y="1201.7" transform="matrix(-1 -4.488289e-11 4.488289e-11 -1 3616.4934 2481.322)" class="st1" width="867.1" height="77.9"/>
<rect x="1521.7" y="1201.7" transform="matrix(-1 -4.305901e-11 4.305901e-11 -1 3803.3096 2481.322)" class="st17" width="760" height="77.9"/>
</svg>
