<?xml version="1.0" encoding="utf-8"?>
<!-- Generator: Adobe Illustrator 22.0.1, SVG Export Plug-In . SVG Version: 6.00 Build 0)  -->
<svg version="1.1" id="Layer_1" xmlns="http://www.w3.org/2000/svg" xmlns:xlink="http://www.w3.org/1999/xlink" x="0px" y="0px"
	 viewBox="0 0 2008.8 2008.8" style="enable-background:new 0 0 2008.8 2008.8;" xml:space="preserve">
<style type="text/css">
	.st0{fill:#FFFFFF;}
	.st1{fill:#E1F4F2;}
	.st2{fill:#CDE0DE;}
	.st3{fill:#384261;}
	.st4{fill:#2E3857;}
	.st5{fill:#424C6B;}
	.st6{fill:#6A7493;}
	.st7{fill:#1C283E;}
	.st8{fill:#E0A865;}
	.st9{fill:#6C98A7;}
	.st10{fill:#4E7A89;}
</style>
<circle class="st0" cx="1004.4" cy="1004.4" r="1004.4"/>
<g>
	<rect x="139.9" y="490.7" class="st1" width="910.3" height="248.7"/>
	<rect x="139.9" y="490.7" class="st2" width="910.3" height="43"/>
	<g>
		<rect x="104.2" y="311" class="st3" width="982.9" height="194.9"/>
		<rect x="915.8" y="311" class="st4" width="171.3" height="194.9"/>
		<rect x="801.7" y="311" class="st4" width="62.8" height="194.9"/>
		<g>
			<rect x="104.2" y="311" class="st5" width="171.3" height="194.9"/>
			<rect x="326.7" y="311" class="st5" width="62.8" height="194.9"/>
		</g>
	</g>
	<rect x="139.9" y="821" class="st1" width="910.3" height="218.7"/>
	<rect x="139.9" y="821" class="st2" width="910.3" height="43"/>
	<g>
		<rect x="104.2" y="641.3" class="st3" width="982.9" height="194.9"/>
		<rect x="915.8" y="641.3" class="st4" width="171.3" height="194.9"/>
		<rect x="801.7" y="641.3" class="st4" width="62.8" height="194.9"/>
		<g>
			<rect x="104.2" y="641.3" class="st5" width="171.3" height="194.9"/>
			<rect x="326.7" y="641.3" class="st5" width="62.8" height="194.9"/>
		</g>
	</g>
	<rect x="139.9" y="1514.1" class="st6" width="910.3" height="138"/>
	<rect x="139.9" y="1410.8" class="st7" width="910.3" height="150"/>
	<rect x="139.9" y="1151.2" class="st1" width="910.3" height="248.7"/>
	<rect x="139.9" y="1151.2" class="st2" width="910.3" height="43"/>
	<rect x="104.2" y="1301.8" class="st3" width="982.9" height="237"/>
	<rect x="915.8" y="1301.8" class="st4" width="171.3" height="237"/>
	<rect x="801.7" y="1301.8" class="st4" width="62.8" height="237"/>
	<g>
		<rect x="104.2" y="1301.8" class="st5" width="171.3" height="237"/>
		<rect x="326.7" y="1301.8" class="st5" width="62.8" height="237"/>
	</g>
	<g>
		<rect x="104.2" y="971.5" class="st3" width="982.9" height="194.9"/>
		<rect x="915.8" y="971.5" class="st4" width="171.3" height="194.9"/>
		<rect x="801.7" y="971.5" class="st4" width="62.8" height="194.9"/>
		<g>
			<rect x="104.2" y="971.5" class="st5" width="171.3" height="194.9"/>
			<rect x="326.7" y="971.5" class="st5" width="62.8" height="194.9"/>
		</g>
	</g>
	<rect x="104.2" y="1615.6" class="st3" width="981.8" height="82.2"/>
	<path class="st8" d="M677.7,1501.5H513.5c-12.5,0-22.7-10.2-22.7-22.7l0,0c0-12.5,10.2-22.7,22.7-22.7h164.3
		c12.5,0,22.7,10.2,22.7,22.7l0,0C700.4,1491.3,690.2,1501.5,677.7,1501.5z"/>
	<rect x="647.3" y="435.2" class="st9" width="1257.3" height="958"/>
	<rect x="647.3" y="435.2" class="st0" width="1257.3" height="958"/>
	<rect x="647.3" y="1333.8" class="st10" width="1257.3" height="59.4"/>
	<rect x="647.3" y="435.2" class="st10" width="1257.3" height="95.5"/>
	<circle class="st0" cx="707.2" cy="481.2" r="28.2"/>
	<circle class="st0" cx="792.8" cy="481.2" r="28.2"/>
	<circle class="st0" cx="878.4" cy="481.2" r="28.2"/>
	<path d="M882.9,665.7c-0.7-11.2-1.1-18.9-5.2-22.3c-3.4-3.2-9.4-3.4-20.9-3.4c-17.3,0-21.6,1.1-24.5,4.7
		c-3.4,4.3-4.7,14.6-4.7,45.7c0,31.3,1.6,42.1,4.7,45.9c2.9,3.6,7.2,4.7,24.5,4.7c12.4,0,18.4-0.2,22-3.6c3.8-3.6,4.3-12.1,4.9-23.4
		h31.9c-1.1,24.1-4.7,34.4-14.4,43.2c-9.7,8.8-19.8,11-44.1,11c-24.7,0-37.6-2-48.8-12.6c-10.8-10.6-13.3-28.3-13.3-65
		c0-36.9,2.5-54.7,13.3-65.2c11.2-10.6,24.1-12.6,48.8-12.6c23.2,0,36,2.5,44.8,12.4c9,9.7,11.5,20.9,12.8,40.5H882.9z"/>
	<path d="M1043.3,642.5h-70v33.5h64.3v27h-64.3v35.5h71.8v27H941.6V615.5h101.7V642.5z"/>
	<path d="M1155.6,765.6l-45.9-82.1l-10.8-22.5v104.6H1067V615.5h36.9l46.1,82.1l10.8,22.5V615.5h31.9v150.1H1155.6z"/>
	<path d="M1336.9,642.8h-45v122.8H1260V642.8h-45v-27.2h121.9V642.8z"/>
	<path d="M1359.2,615.5h55.3c25.4,0,38.2,3.8,47,13.5c7.4,8.3,11,20,11,37.1c0,16-2.9,26.8-9.4,34.9c-3.6,4.3-8.1,7.6-13.5,10.1
		l27.9,54.4h-35.1l-24.5-49h-26.8v49h-31.9V615.5z M1390.7,689.3h19.1c11.5,0,22.7,0,26.5-2.7c4.1-2.7,4.7-8.3,4.7-20.5
		s-0.7-17.8-4.7-20.7c-3.6-2.7-15.3-2.7-26.5-2.7h-19.1V689.3z"/>
	<path d="M1604.9,765.6l-9.4-27h-58.3l-9.7,27h-33.7l54.7-150.1h35.8l54.7,150.1H1604.9z M1566.7,655.4h-0.7l-19.6,55.8h39.6
		L1566.7,655.4z"/>
	<path d="M1685.5,615.5v123.1h70v27h-101.9V615.5H1685.5z"/>
	<g>
		<path d="M737.8,983.4V833.3h61.6c23.2,0,35.5,3.8,46.1,15.3c7.9,8.6,11.5,19.6,12.8,33.5c0.9,7.4,0.9,15.3,0.9,26.5
			c0,11,0,18.9-0.9,26.3c-1.4,13.7-4.9,25.2-12.6,33.5c-10.8,11.2-23.2,14.8-46.3,14.8H737.8z M769.5,956.4h28.1
			c13.3,0,19.6-1.6,23.4-6.3c4.9-6.1,6.1-15.3,6.1-41.6c0-26.5-1.1-35.8-6.1-41.8c-3.8-4.5-10.1-6.1-23.4-6.1h-28.1V956.4z"/>
		<path d="M982.1,983.4l-9.4-27h-58.3l-9.7,27H871l54.7-150.1h35.8l54.7,150.1H982.1z M943.9,873.2h-0.7L923.6,929h39.6L943.9,873.2
			z"/>
		<path d="M1130.2,860.6h-45v122.8h-31.9V860.6h-45v-27.2h121.9V860.6z"/>
		<path d="M1233.5,983.4l-9.4-27h-58.3l-9.7,27h-33.7l54.7-150.1h35.8l54.7,150.1H1233.5z M1195.2,873.2h-0.7L1175,929h39.6
			L1195.2,873.2z"/>
		<path d="M1341.5,833.3c25,0,37.3,2.9,45.9,11c7.6,7,11.9,18,11.9,29.7c0,13.7-4.3,22.5-14.2,29.7v0.7c13.3,7,19.6,18.4,19.6,36
			c0,14.2-4.9,25.9-13.7,33.1c-8.8,7.2-20.9,9.9-44.5,9.9h-58.9V833.3H1341.5z M1318.5,893.6h18.9c18.9,0,26.3,0,29.2-4.3
			c1.8-2.5,2-6.3,2-12.4c0-7-0.2-11.2-2.5-13.5c-3.6-3.6-11.2-3.6-28.8-3.6h-18.9V893.6z M1318.7,956.6h23.4
			c14.6,0,22.3-0.2,26.3-2.5s4.5-7,4.5-15.8c0-7.9-0.2-12.4-2.7-14.8c-3.4-3.6-11-3.8-28.1-3.8h-23.4V956.6z"/>
		<path d="M1528,983.4l-9.4-27h-58.3l-9.7,27h-33.7l54.7-150.1h35.8l54.7,150.1H1528z M1489.7,873.2h-0.7l-19.6,55.8h39.6
			L1489.7,873.2z"/>
		<path d="M1653.7,879.7c-0.7-10.8-0.9-15.7-3.8-18.7c-3.1-2.9-7.6-4.1-20.5-4.1c-18.7,0-21.1,2.2-21.1,15.3
			c0,9.2,2.7,12.8,12.1,15.7l31.7,10.6c25.2,8.1,34.6,20,34.6,42.7c0,17.5-5.9,29.7-17.3,36.9c-8.6,5.6-19.3,7.9-38,7.9
			c-27,0-40.9-4.7-49.7-16.2c-5.6-7.6-7.9-13.7-9-35.5h32.2c0.5,12.6,0.9,16,3.2,19.1c2.7,4.1,9.7,5.6,23.4,5.6
			c10.1,0,16.4-0.7,19.8-3.6c3.1-2.5,3.4-6.1,3.4-13.7c0-9.9-2.7-13.5-13.5-16.9l-31.7-10.6c-22-7.2-31.9-20-31.9-41.4
			c0-29,16-42.3,51.3-42.3c20.9,0,32.4,2.9,40.9,9.2c11.9,8.6,14.2,18.2,15.5,39.8H1653.7z"/>
		<path d="M1812.4,860.3h-70v33.5h64.3v27h-64.3v35.5h71.8v27h-103.5V833.3h101.7V860.3z"/>
	</g>
	<g>
		<polygon class="st7" points="1743.6,1099.5 1637.7,1161.1 1569.2,1262.7 1487.4,1000.5 		"/>
		
			<rect x="1638.4" y="1103.5" transform="matrix(0.7301 -0.6833 0.6833 0.7301 -367.3176 1465.903)" class="st7" width="67.7" height="188.9"/>
	</g>
</g>
</svg>
