<?xml version="1.0" encoding="utf-8"?>
<!-- Generator: Adobe Illustrator 22.0.1, SVG Export Plug-In . SVG Version: 6.00 Build 0)  -->
<svg version="1.1" id="Layer_1" xmlns="http://www.w3.org/2000/svg" xmlns:xlink="http://www.w3.org/1999/xlink" x="0px" y="0px"
	 viewBox="0 0 1901.1 1425.5" style="enable-background:new 0 0 1901.1 1425.5;" xml:space="preserve">
<style type="text/css">
	.st0{fill:#E1F4F2;}
	.st1{fill:#CDE0DE;}
	.st2{fill:#384261;}
	.st3{fill:#2E3857;}
	.st4{fill:#424C6B;}
	.st5{fill:#6A7493;}
	.st6{fill:#1C283E;}
	.st7{fill:#8AB6C5;}
	.st8{fill:#E0A865;}
	.st9{fill:#6C98A7;}
	.st10{fill:#FFFFFF;}
	.st11{fill:#4E7A89;}
</style>
<rect x="136.4" y="179.7" class="st0" width="910.3" height="248.7"/>
<rect x="136.4" y="179.7" class="st1" width="910.3" height="43"/>
<g>
	<rect x="100.7" y="0" class="st2" width="982.9" height="194.9"/>
	<rect x="912.3" y="0" class="st3" width="171.3" height="194.9"/>
	<rect x="798.2" y="0" class="st3" width="62.8" height="194.9"/>
	<g>
		<rect x="100.7" y="0" class="st4" width="171.3" height="194.9"/>
		<rect x="323.2" y="0" class="st4" width="62.8" height="194.9"/>
	</g>
</g>
<rect x="136.4" y="509.9" class="st0" width="910.3" height="218.7"/>
<rect x="136.4" y="509.9" class="st1" width="910.3" height="43"/>
<g>
	<rect x="100.7" y="330.3" class="st2" width="982.9" height="194.9"/>
	<rect x="912.3" y="330.3" class="st3" width="171.3" height="194.9"/>
	<rect x="798.2" y="330.3" class="st3" width="62.8" height="194.9"/>
	<g>
		<rect x="100.7" y="330.3" class="st4" width="171.3" height="194.9"/>
		<rect x="323.2" y="330.3" class="st4" width="62.8" height="194.9"/>
	</g>
</g>
<rect x="136.4" y="1203.1" class="st5" width="910.3" height="138"/>
<rect x="136.4" y="1099.8" class="st6" width="910.3" height="150"/>
<rect x="136.4" y="840.2" class="st0" width="910.3" height="248.7"/>
<rect x="136.4" y="840.2" class="st1" width="910.3" height="43"/>
<rect x="100.7" y="990.8" class="st2" width="982.9" height="237"/>
<rect x="912.3" y="990.8" class="st3" width="171.3" height="237"/>
<rect x="798.2" y="990.8" class="st3" width="62.8" height="237"/>
<g>
	<rect x="100.7" y="990.8" class="st4" width="171.3" height="237"/>
	<rect x="323.2" y="990.8" class="st4" width="62.8" height="237"/>
</g>
<g>
	<rect x="100.7" y="660.5" class="st2" width="982.9" height="194.9"/>
	<rect x="912.3" y="660.5" class="st3" width="171.3" height="194.9"/>
	<rect x="798.2" y="660.5" class="st3" width="62.8" height="194.9"/>
	<g>
		<rect x="100.7" y="660.5" class="st4" width="171.3" height="194.9"/>
		<rect x="323.2" y="660.5" class="st4" width="62.8" height="194.9"/>
	</g>
</g>
<path class="st7" d="M1152.2,1425.5H31c-17,0-31-13.9-31-31l0,0c0-17,13.9-31,31-31h1121.2c17,0,31,13.9,31,31l0,0
	C1183.1,1411.5,1169.2,1425.5,1152.2,1425.5z"/>
<rect x="100.7" y="1304.6" class="st2" width="981.8" height="82.2"/>
<path class="st8" d="M674.2,1190.5H510c-12.5,0-22.7-10.2-22.7-22.7l0,0c0-12.5,10.2-22.7,22.7-22.7h164.3
	c12.5,0,22.7,10.2,22.7,22.7l0,0C696.9,1180.3,686.7,1190.5,674.2,1190.5z"/>
<rect x="643.8" y="124.2" class="st9" width="1257.3" height="958"/>
<rect x="643.8" y="124.2" class="st10" width="1257.3" height="958"/>
<rect x="643.8" y="1022.8" class="st11" width="1257.3" height="59.4"/>
<rect x="643.8" y="124.2" class="st11" width="1257.3" height="95.5"/>
<circle class="st10" cx="703.7" cy="170.2" r="28.2"/>
<circle class="st10" cx="789.3" cy="170.2" r="28.2"/>
<circle class="st10" cx="874.9" cy="170.2" r="28.2"/>
<path d="M879.4,354.7c-0.7-11.2-1.1-18.9-5.2-22.3c-3.4-3.2-9.4-3.4-20.9-3.4c-17.3,0-21.6,1.1-24.5,4.7c-3.4,4.3-4.7,14.6-4.7,45.7
	c0,31.3,1.6,42.1,4.7,45.9c2.9,3.6,7.2,4.7,24.5,4.7c12.4,0,18.4-0.2,22-3.6c3.8-3.6,4.3-12.1,4.9-23.4h31.9
	c-1.1,24.1-4.7,34.4-14.4,43.2c-9.7,8.8-19.8,11-44.1,11c-24.7,0-37.6-2-48.8-12.6c-10.8-10.6-13.3-28.3-13.3-65
	c0-36.9,2.5-54.7,13.3-65.2c11.2-10.6,24.1-12.6,48.8-12.6c23.2,0,36,2.5,44.8,12.4c9,9.7,11.5,20.9,12.8,40.5H879.4z"/>
<path d="M1039.8,331.5h-70v33.5h64.3v27h-64.3v35.5h71.8v27H938.1V304.5h101.7V331.5z"/>
<path d="M1152.1,454.6l-45.9-82.1l-10.8-22.5v104.6h-31.9V304.5h36.9l46.1,82.1l10.8,22.5V304.5h31.9v150.1H1152.1z"/>
<path d="M1333.5,331.8h-45v122.8h-31.9V331.8h-45v-27.2h121.9V331.8z"/>
<path d="M1355.7,304.5h55.3c25.4,0,38.2,3.8,47,13.5c7.4,8.3,11,20,11,37.1c0,16-2.9,26.8-9.4,34.9c-3.6,4.3-8.1,7.6-13.5,10.1
	l27.9,54.4H1439l-24.5-49h-26.8v49h-31.9V304.5z M1387.2,378.3h19.1c11.5,0,22.7,0,26.5-2.7c4.1-2.7,4.7-8.3,4.7-20.5
	s-0.7-17.8-4.7-20.7c-3.6-2.7-15.3-2.7-26.5-2.7h-19.1V378.3z"/>
<path d="M1601.4,454.6l-9.4-27h-58.3l-9.7,27h-33.7l54.7-150.1h35.8l54.7,150.1H1601.4z M1563.2,344.4h-0.7l-19.6,55.8h39.6
	L1563.2,344.4z"/>
<path d="M1682,304.5v123.1h70v27H1650V304.5H1682z"/>
<g>
	<path d="M734.3,672.4V522.3h61.6c23.2,0,35.5,3.8,46.1,15.3c7.9,8.6,11.5,19.6,12.8,33.5c0.9,7.4,0.9,15.3,0.9,26.5
		c0,11,0,18.9-0.9,26.3c-1.4,13.7-4.9,25.2-12.6,33.5c-10.8,11.2-23.2,14.8-46.3,14.8H734.3z M766,645.4h28.1
		c13.3,0,19.6-1.6,23.4-6.3c4.9-6.1,6.1-15.3,6.1-41.6c0-26.5-1.1-35.8-6.1-41.8c-3.8-4.5-10.1-6.1-23.4-6.1H766V645.4z"/>
	<path d="M978.6,672.4l-9.4-27h-58.3l-9.7,27h-33.7l54.7-150.1h35.8l54.7,150.1H978.6z M940.4,562.2h-0.7L920.1,618h39.6
		L940.4,562.2z"/>
	<path d="M1126.7,549.6h-45v122.8h-31.9V549.6h-45v-27.2h121.9V549.6z"/>
	<path d="M1230,672.4l-9.4-27h-58.3l-9.7,27h-33.7l54.7-150.1h35.8l54.7,150.1H1230z M1191.7,562.2h-0.7l-19.6,55.8h39.6
		L1191.7,562.2z"/>
	<path d="M1338,522.3c25,0,37.3,2.9,45.9,11c7.6,7,11.9,18,11.9,29.7c0,13.7-4.3,22.5-14.2,29.7v0.7c13.3,7,19.6,18.4,19.6,36
		c0,14.2-4.9,25.9-13.7,33.1c-8.8,7.2-20.9,9.9-44.5,9.9H1284V522.3H1338z M1315,582.6h18.9c18.9,0,26.3,0,29.2-4.3
		c1.8-2.5,2-6.3,2-12.4c0-7-0.2-11.2-2.5-13.5c-3.6-3.6-11.2-3.6-28.8-3.6H1315V582.6z M1315.2,645.6h23.4c14.6,0,22.3-0.2,26.3-2.5
		s4.5-7,4.5-15.8c0-7.9-0.2-12.4-2.7-14.8c-3.4-3.6-11-3.8-28.1-3.8h-23.4V645.6z"/>
	<path d="M1524.5,672.4l-9.4-27h-58.3l-9.7,27h-33.7l54.7-150.1h35.8l54.7,150.1H1524.5z M1486.2,562.2h-0.7L1466,618h39.6
		L1486.2,562.2z"/>
	<path d="M1650.2,568.7c-0.7-10.8-0.9-15.7-3.8-18.7c-3.1-2.9-7.6-4.1-20.5-4.1c-18.7,0-21.1,2.2-21.1,15.3
		c0,9.2,2.7,12.8,12.1,15.7l31.7,10.6c25.2,8.1,34.6,20,34.6,42.7c0,17.5-5.9,29.7-17.3,36.9c-8.6,5.6-19.3,7.9-38,7.9
		c-27,0-40.9-4.7-49.7-16.2c-5.6-7.6-7.9-13.7-9-35.5h32.2c0.5,12.6,0.9,16,3.2,19.1c2.7,4.1,9.7,5.6,23.4,5.6
		c10.1,0,16.4-0.7,19.8-3.6c3.1-2.5,3.4-6.1,3.4-13.7c0-9.9-2.7-13.5-13.5-16.9l-31.7-10.6c-22-7.2-31.9-20-31.9-41.4
		c0-29,16-42.3,51.3-42.3c20.9,0,32.4,2.9,40.9,9.2c11.9,8.6,14.2,18.2,15.5,39.8H1650.2z"/>
	<path d="M1808.9,549.3h-70v33.5h64.3v27h-64.3v35.5h71.8v27h-103.5V522.3h101.7V549.3z"/>
</g>
<g>
	<polygon class="st6" points="1740.1,788.5 1634.2,850.1 1565.7,951.6 1483.9,689.5 	"/>
	
		<rect x="1634.9" y="792.5" transform="matrix(0.7301 -0.6833 0.6833 0.7301 -155.7485 1379.5869)" class="st6" width="67.7" height="188.9"/>
</g>
</svg>
