<?xml version="1.0" encoding="utf-8"?>
<!-- Generator: Adobe Illustrator 22.0.1, SVG Export Plug-In . SVG Version: 6.00 Build 0)  -->
<svg version="1.1" id="Layer_1" xmlns="http://www.w3.org/2000/svg" xmlns:xlink="http://www.w3.org/1999/xlink" x="0px" y="0px"
	 viewBox="0 0 6627.7 1870.3" style="enable-background:new 0 0 6627.7 1870.3;" xml:space="preserve">
<style type="text/css">
	.st0{fill:none;stroke:#1C283E;stroke-width:36;stroke-miterlimit:10;}
	.st1{fill:#FFFFFF;}
	.st2{fill:#E1F4F2;}
	.st3{fill:#CDE0DE;}
	.st4{fill:#384261;}
	.st5{fill:#2E3857;}
	.st6{fill:#424C6B;}
	.st7{fill:#6A7493;}
	.st8{fill:#1C283E;}
	.st9{fill:#E0A865;}
	.st10{fill:#6C98A7;}
	.st11{fill:#4E7A89;}
	.st12{font-family:'URWDock-Bold';}
	.st13{font-size:225px;}
</style>
<path class="st0" d="M669.4,969.5c0,345.2,42.3,739.6,556.5,739.6s1669.4-7,1669.4-7s2099.1,119.7,2261.1-190.2"/>
<path class="st0" d="M5924,928c0,282.4,72,708.9-304.6,725.5c-376.6,16.6-1527-59.6-1837.9-76.9s-1075.1-172.3-1739.7-39.4"/>
<circle class="st1" cx="681.6" cy="689" r="681.6"/>
<path class="st0" d="M1023.9,749.3c214,4.9,340.5,97.3,345.3,321"/>
<rect x="226.4" y="179.7" class="st2" width="910.3" height="248.7"/>
<rect x="226.4" y="179.7" class="st3" width="910.3" height="43"/>
<g>
	<rect x="190.7" y="0" class="st4" width="982.9" height="194.9"/>
	<rect x="1002.3" y="0" class="st5" width="171.3" height="194.9"/>
	<rect x="888.2" y="0" class="st5" width="62.8" height="194.9"/>
	<g>
		<rect x="190.7" y="0" class="st6" width="171.3" height="194.9"/>
		<rect x="413.3" y="0" class="st6" width="62.8" height="194.9"/>
	</g>
</g>
<rect x="226.4" y="509.9" class="st2" width="910.3" height="218.7"/>
<rect x="226.4" y="509.9" class="st3" width="910.3" height="43"/>
<g>
	<rect x="190.7" y="330.3" class="st4" width="982.9" height="194.9"/>
	<rect x="1002.3" y="330.3" class="st5" width="171.3" height="194.9"/>
	<rect x="888.2" y="330.3" class="st5" width="62.8" height="194.9"/>
	<g>
		<rect x="190.7" y="330.3" class="st6" width="171.3" height="194.9"/>
		<rect x="413.3" y="330.3" class="st6" width="62.8" height="194.9"/>
	</g>
</g>
<rect x="226.4" y="1203.1" class="st7" width="910.3" height="138"/>
<rect x="226.4" y="1099.8" class="st8" width="910.3" height="150"/>
<rect x="226.4" y="840.2" class="st2" width="910.3" height="248.7"/>
<rect x="226.4" y="840.2" class="st3" width="910.3" height="43"/>
<rect x="190.7" y="990.8" class="st4" width="982.9" height="237"/>
<rect x="1002.3" y="990.8" class="st5" width="171.3" height="237"/>
<rect x="888.2" y="990.8" class="st5" width="62.8" height="237"/>
<g>
	<rect x="190.7" y="990.8" class="st6" width="171.3" height="237"/>
	<rect x="413.3" y="990.8" class="st6" width="62.8" height="237"/>
</g>
<g>
	<rect x="190.7" y="660.5" class="st4" width="982.9" height="194.9"/>
	<rect x="1002.3" y="660.5" class="st5" width="171.3" height="194.9"/>
	<rect x="888.2" y="660.5" class="st5" width="62.8" height="194.9"/>
	<g>
		<rect x="190.7" y="660.5" class="st6" width="171.3" height="194.9"/>
		<rect x="413.3" y="660.5" class="st6" width="62.8" height="194.9"/>
	</g>
</g>
<rect x="190.7" y="1304.6" class="st4" width="981.8" height="82.2"/>
<path class="st9" d="M764.3,1190.5H600c-12.5,0-22.7-10.2-22.7-22.7l0,0c0-12.5,10.2-22.7,22.7-22.7h164.3
	c12.5,0,22.7,10.2,22.7,22.7l0,0C787,1180.3,776.8,1190.5,764.3,1190.5z"/>
<path class="st0" d="M2432.6,1058.5c0,408.5,138,563.1,541,568.6c403,5.5,1297.4-220.8,1871.5-44.2"/>
<path class="st0" d="M3150.2,1703.5c-385.9,0-940.1-21-933.1-666.5"/>
<circle class="st1" cx="2436.5" cy="689" r="681.6"/>
<path class="st0" d="M2778.8,763.9c214,4.9,340.5,97.3,345.3,321"/>
<path class="st0" d="M2094.1,749.3c-214,4.9-340.5,97.3-345.3,321"/>
<rect x="1981.3" y="179.7" class="st2" width="910.3" height="248.7"/>
<rect x="1981.3" y="179.7" class="st3" width="910.3" height="43"/>
<g>
	<rect x="1945.6" y="0" class="st4" width="982.9" height="194.9"/>
	<rect x="2757.2" y="0" class="st5" width="171.3" height="194.9"/>
	<rect x="2643.1" y="0" class="st5" width="62.8" height="194.9"/>
	<g>
		<rect x="1945.6" y="0" class="st6" width="171.3" height="194.9"/>
		<rect x="2168.1" y="0" class="st6" width="62.8" height="194.9"/>
	</g>
</g>
<rect x="1981.3" y="509.9" class="st2" width="910.3" height="218.7"/>
<rect x="1981.3" y="509.9" class="st3" width="910.3" height="43"/>
<g>
	<rect x="1945.6" y="330.3" class="st4" width="982.9" height="194.9"/>
	<rect x="2757.2" y="330.3" class="st5" width="171.3" height="194.9"/>
	<rect x="2643.1" y="330.3" class="st5" width="62.8" height="194.9"/>
	<g>
		<rect x="1945.6" y="330.3" class="st6" width="171.3" height="194.9"/>
		<rect x="2168.1" y="330.3" class="st6" width="62.8" height="194.9"/>
	</g>
</g>
<rect x="1981.3" y="1203.1" class="st7" width="910.3" height="138"/>
<rect x="1981.3" y="1099.8" class="st8" width="910.3" height="150"/>
<rect x="1981.3" y="840.2" class="st2" width="910.3" height="248.7"/>
<rect x="1981.3" y="840.2" class="st3" width="910.3" height="43"/>
<rect x="1945.6" y="990.8" class="st4" width="982.9" height="237"/>
<rect x="2757.2" y="990.8" class="st5" width="171.3" height="237"/>
<rect x="2643.1" y="990.8" class="st5" width="62.8" height="237"/>
<g>
	<rect x="1945.6" y="990.8" class="st6" width="171.3" height="237"/>
	<rect x="2168.1" y="990.8" class="st6" width="62.8" height="237"/>
</g>
<g>
	<rect x="1945.6" y="660.5" class="st4" width="982.9" height="194.9"/>
	<rect x="2757.2" y="660.5" class="st5" width="171.3" height="194.9"/>
	<rect x="2643.1" y="660.5" class="st5" width="62.8" height="194.9"/>
	<g>
		<rect x="1945.6" y="660.5" class="st6" width="171.3" height="194.9"/>
		<rect x="2168.1" y="660.5" class="st6" width="62.8" height="194.9"/>
	</g>
</g>
<rect x="1945.6" y="1304.6" class="st4" width="981.8" height="82.2"/>
<path class="st9" d="M2519.1,1190.5h-164.3c-12.5,0-22.7-10.2-22.7-22.7l0,0c0-12.5,10.2-22.7,22.7-22.7h164.3
	c12.5,0,22.7,10.2,22.7,22.7l0,0C2541.8,1180.3,2531.6,1190.5,2519.1,1190.5z"/>
<path class="st0" d="M3423.8,1724.5c385.9,0,940.1-21,933.1-666.5"/>
<circle class="st1" cx="4191.3" cy="689" r="681.6"/>
<path class="st0" d="M4533.6,763.9c214,4.9,340.5,97.3,345.3,321"/>
<path class="st0" d="M3849,763.9c-214,4.9-340.5,97.3-345.3,321"/>
<rect x="3736.1" y="179.7" class="st2" width="910.3" height="248.7"/>
<rect x="3736.1" y="179.7" class="st3" width="910.3" height="43"/>
<g>
	<rect x="3700.4" y="0" class="st4" width="982.9" height="194.9"/>
	<rect x="4512" y="0" class="st5" width="171.3" height="194.9"/>
	<rect x="4397.9" y="0" class="st5" width="62.8" height="194.9"/>
	<g>
		<rect x="3700.4" y="0" class="st6" width="171.3" height="194.9"/>
		<rect x="3922.9" y="0" class="st6" width="62.8" height="194.9"/>
	</g>
</g>
<rect x="3736.1" y="509.9" class="st2" width="910.3" height="218.7"/>
<rect x="3736.1" y="509.9" class="st3" width="910.3" height="43"/>
<g>
	<rect x="3700.4" y="330.3" class="st4" width="982.9" height="194.9"/>
	<rect x="4512" y="330.3" class="st5" width="171.3" height="194.9"/>
	<rect x="4397.9" y="330.3" class="st5" width="62.8" height="194.9"/>
	<g>
		<rect x="3700.4" y="330.3" class="st6" width="171.3" height="194.9"/>
		<rect x="3922.9" y="330.3" class="st6" width="62.8" height="194.9"/>
	</g>
</g>
<rect x="3736.1" y="1203.1" class="st7" width="910.3" height="138"/>
<rect x="3736.1" y="1099.8" class="st8" width="910.3" height="150"/>
<rect x="3736.1" y="840.2" class="st2" width="910.3" height="248.7"/>
<rect x="3736.1" y="840.2" class="st3" width="910.3" height="43"/>
<rect x="3700.4" y="990.8" class="st4" width="982.9" height="237"/>
<rect x="4512" y="990.8" class="st5" width="171.3" height="237"/>
<rect x="4397.9" y="990.8" class="st5" width="62.8" height="237"/>
<g>
	<rect x="3700.4" y="990.8" class="st6" width="171.3" height="237"/>
	<rect x="3922.9" y="990.8" class="st6" width="62.8" height="237"/>
</g>
<g>
	<rect x="3700.4" y="660.5" class="st4" width="982.9" height="194.9"/>
	<rect x="4512" y="660.5" class="st5" width="171.3" height="194.9"/>
	<rect x="4397.9" y="660.5" class="st5" width="62.8" height="194.9"/>
	<g>
		<rect x="3700.4" y="660.5" class="st6" width="171.3" height="194.9"/>
		<rect x="3922.9" y="660.5" class="st6" width="62.8" height="194.9"/>
	</g>
</g>
<rect x="3700.4" y="1304.6" class="st4" width="981.8" height="82.2"/>
<path class="st9" d="M4274,1190.5h-164.3c-12.5,0-22.7-10.2-22.7-22.7l0,0c0-12.5,10.2-22.7,22.7-22.7H4274
	c12.5,0,22.7,10.2,22.7,22.7l0,0C4296.7,1180.3,4286.4,1190.5,4274,1190.5z"/>
<circle class="st1" cx="5946.1" cy="689" r="681.6"/>
<path class="st0" d="M5603.8,763.9c-214,4.9-340.5,97.3-345.3,321"/>
<rect x="5491" y="179.7" class="st2" width="910.3" height="248.7"/>
<rect x="5491" y="179.7" class="st3" width="910.3" height="43"/>
<g>
	<rect x="5455.2" y="0" class="st4" width="982.9" height="194.9"/>
	<rect x="6266.8" y="0" class="st5" width="171.3" height="194.9"/>
	<rect x="6152.7" y="0" class="st5" width="62.8" height="194.9"/>
	<g>
		<rect x="5455.2" y="0" class="st6" width="171.3" height="194.9"/>
		<rect x="5677.8" y="0" class="st6" width="62.8" height="194.9"/>
	</g>
</g>
<rect x="5491" y="509.9" class="st2" width="910.3" height="218.7"/>
<rect x="5491" y="509.9" class="st3" width="910.3" height="43"/>
<g>
	<rect x="5455.2" y="330.3" class="st4" width="982.9" height="194.9"/>
	<rect x="6266.8" y="330.3" class="st5" width="171.3" height="194.9"/>
	<rect x="6152.7" y="330.3" class="st5" width="62.8" height="194.9"/>
	<g>
		<rect x="5455.2" y="330.3" class="st6" width="171.3" height="194.9"/>
		<rect x="5677.8" y="330.3" class="st6" width="62.8" height="194.9"/>
	</g>
</g>
<rect x="5491" y="1203.1" class="st7" width="910.3" height="138"/>
<rect x="5491" y="1099.8" class="st8" width="910.3" height="150"/>
<rect x="5491" y="840.2" class="st2" width="910.3" height="248.7"/>
<rect x="5491" y="840.2" class="st3" width="910.3" height="43"/>
<rect x="5455.2" y="990.8" class="st4" width="982.9" height="237"/>
<rect x="6266.8" y="990.8" class="st5" width="171.3" height="237"/>
<rect x="6152.7" y="990.8" class="st5" width="62.8" height="237"/>
<g>
	<rect x="5455.2" y="990.8" class="st6" width="171.3" height="237"/>
	<rect x="5677.8" y="990.8" class="st6" width="62.8" height="237"/>
</g>
<g>
	<rect x="5455.2" y="660.5" class="st4" width="982.9" height="194.9"/>
	<rect x="6266.8" y="660.5" class="st5" width="171.3" height="194.9"/>
	<rect x="6152.7" y="660.5" class="st5" width="62.8" height="194.9"/>
	<g>
		<rect x="5455.2" y="660.5" class="st6" width="171.3" height="194.9"/>
		<rect x="5677.8" y="660.5" class="st6" width="62.8" height="194.9"/>
	</g>
</g>
<rect x="5455.2" y="1304.6" class="st4" width="981.8" height="82.2"/>
<path class="st9" d="M6028.8,1190.5h-164.3c-12.5,0-22.7-10.2-22.7-22.7l0,0c0-12.5,10.2-22.7,22.7-22.7h164.3
	c12.5,0,22.7,10.2,22.7,22.7l0,0C6051.5,1180.3,6041.3,1190.5,6028.8,1190.5z"/>
<g>
	<rect x="930.4" y="912.4" class="st10" width="1257.3" height="958"/>
	<rect x="930.4" y="912.4" class="st1" width="1257.3" height="958"/>
	<rect x="930.4" y="1810.9" class="st11" width="1257.3" height="59.4"/>
	<rect x="930.4" y="912.4" class="st11" width="1257.3" height="95.5"/>
	<circle class="st1" cx="990.3" cy="958.3" r="28.2"/>
	<circle class="st1" cx="1075.9" cy="958.3" r="28.2"/>
	<circle class="st1" cx="1161.5" cy="958.3" r="28.2"/>
	<g>
		<polygon class="st8" points="2026.6,1576.6 1920.7,1638.2 1852.3,1739.8 1770.4,1477.6 		"/>
		
			<rect x="1921.4" y="1580.6" transform="matrix(0.7301 -0.6833 0.6833 0.7301 -616.9407 1788.0662)" class="st8" width="67.7" height="188.9"/>
	</g>
</g>
<g>
	<rect x="2685.2" y="912.4" class="st10" width="1257.3" height="958"/>
	<rect x="2685.2" y="912.4" class="st1" width="1257.3" height="958"/>
	<rect x="2685.2" y="1810.9" class="st11" width="1257.3" height="59.4"/>
	<rect x="2685.2" y="912.4" class="st11" width="1257.3" height="95.5"/>
	<circle class="st1" cx="2745.1" cy="958.3" r="28.2"/>
	<circle class="st1" cx="2830.7" cy="958.3" r="28.2"/>
	<circle class="st1" cx="2916.3" cy="958.3" r="28.2"/>
	<g>
		<polygon class="st8" points="3781.5,1576.6 3675.6,1638.2 3607.1,1739.8 3525.3,1477.6 		"/>
		
			<rect x="3676.3" y="1580.6" transform="matrix(0.7301 -0.6833 0.6833 0.7301 -143.3889 2987.1323)" class="st8" width="67.7" height="188.9"/>
	</g>
</g>
<g>
	<rect x="4440" y="912.4" class="st10" width="1257.3" height="958"/>
	<rect x="4440" y="912.4" class="st1" width="1257.3" height="958"/>
	<rect x="4440" y="1810.9" class="st11" width="1257.3" height="59.4"/>
	<rect x="4440" y="912.4" class="st11" width="1257.3" height="95.5"/>
	<circle class="st1" cx="4500" cy="958.3" r="28.2"/>
	<circle class="st1" cx="4585.6" cy="958.3" r="28.2"/>
	<circle class="st1" cx="4671.2" cy="958.3" r="28.2"/>
	<g>
		<polygon class="st8" points="5536.3,1576.6 5430.4,1638.2 5361.9,1739.8 5280.1,1477.6 		"/>
		
			<rect x="5431.1" y="1580.6" transform="matrix(0.7301 -0.6833 0.6833 0.7301 330.1629 4186.1987)" class="st8" width="67.7" height="188.9"/>
	</g>
</g>
<text transform="matrix(1 0 0 1 1052.7908 1343.6476)" class="st8 st12 st13">PORTAL 1</text>
<text transform="matrix(1 0 0 1 2807.6272 1343.6476)" class="st8 st12 st13">PORTAL 2</text>
<text transform="matrix(1 0 0 1 4562.4624 1343.6476)" class="st8 st12 st13">PORTAL 3</text>
</svg>
