<?xml version="1.0" encoding="utf-8"?>
<!-- Generator: Adobe Illustrator 22.0.1, SVG Export Plug-In . SVG Version: 6.00 Build 0)  -->
<svg version="1.1" id="Layer_1" xmlns="http://www.w3.org/2000/svg" xmlns:xlink="http://www.w3.org/1999/xlink" x="0px" y="0px"
	 viewBox="0 0 3462.6 1387.7" style="enable-background:new 0 0 3462.6 1387.7;" xml:space="preserve">
<style type="text/css">
	.st0{fill:#6C98A7;}
	.st1{fill:none;stroke:#1C283E;stroke-width:36;stroke-miterlimit:10;}
	.st2{fill:#E1F4F2;}
	.st3{fill:#CDE0DE;}
	.st4{fill:#384261;}
	.st5{fill:#2E3857;}
	.st6{fill:#424C6B;}
	.st7{fill:#6A7493;}
	.st8{fill:#1C283E;}
	.st9{fill:#E0A865;}
	.st10{fill:#FEF2A7;}
	.st11{fill:#F2E89D;}
	.st12{fill:none;stroke:#8E6134;stroke-width:18;stroke-miterlimit:10;}
	.st13{fill:#B47943;}
	.st14{fill:#8E6134;}
	.st15{fill:#FFFFFF;}
</style>
<circle class="st0" cx="2780.9" cy="689" r="681.6"/>
<circle class="st0" cx="681.6" cy="689" r="681.6"/>
<path class="st1" d="M2395,1148.6c-232.4,0-284.9,221.1-532.2,221.1h-221.2c-247.4,0-299.9-221.1-532.2-221.1"/>
<rect x="226.4" y="179.7" class="st2" width="910.3" height="248.7"/>
<rect x="226.4" y="179.7" class="st3" width="910.3" height="43"/>
<g>
	<rect x="190.7" y="0" class="st4" width="982.9" height="194.9"/>
	<rect x="1002.3" y="0" class="st5" width="171.3" height="194.9"/>
	<rect x="888.2" y="0" class="st5" width="62.8" height="194.9"/>
	<g>
		<rect x="190.7" y="0" class="st6" width="171.3" height="194.9"/>
		<rect x="413.3" y="0" class="st6" width="62.8" height="194.9"/>
	</g>
</g>
<rect x="226.4" y="509.9" class="st2" width="910.3" height="218.7"/>
<rect x="226.4" y="509.9" class="st3" width="910.3" height="43"/>
<g>
	<rect x="190.7" y="330.3" class="st4" width="982.9" height="194.9"/>
	<rect x="1002.3" y="330.3" class="st5" width="171.3" height="194.9"/>
	<rect x="888.2" y="330.3" class="st5" width="62.8" height="194.9"/>
	<g>
		<rect x="190.7" y="330.3" class="st6" width="171.3" height="194.9"/>
		<rect x="413.3" y="330.3" class="st6" width="62.8" height="194.9"/>
	</g>
</g>
<rect x="226.4" y="1203.1" class="st7" width="910.3" height="138"/>
<rect x="226.4" y="1099.8" class="st8" width="910.3" height="150"/>
<rect x="226.4" y="840.2" class="st2" width="910.3" height="248.7"/>
<rect x="226.4" y="840.2" class="st3" width="910.3" height="43"/>
<rect x="190.7" y="990.8" class="st4" width="982.9" height="237"/>
<rect x="1002.3" y="990.8" class="st5" width="171.3" height="237"/>
<rect x="888.2" y="990.8" class="st5" width="62.8" height="237"/>
<g>
	<rect x="190.7" y="990.8" class="st6" width="171.3" height="237"/>
	<rect x="413.3" y="990.8" class="st6" width="62.8" height="237"/>
</g>
<g>
	<rect x="190.7" y="660.5" class="st4" width="982.9" height="194.9"/>
	<rect x="1002.3" y="660.5" class="st5" width="171.3" height="194.9"/>
	<rect x="888.2" y="660.5" class="st5" width="62.8" height="194.9"/>
	<g>
		<rect x="190.7" y="660.5" class="st6" width="171.3" height="194.9"/>
		<rect x="413.3" y="660.5" class="st6" width="62.8" height="194.9"/>
	</g>
</g>
<rect x="190.7" y="1304.6" class="st4" width="981.8" height="82.2"/>
<path class="st9" d="M764.3,1190.5H600c-12.5,0-22.7-10.2-22.7-22.7l0,0c0-12.5,10.2-22.7,22.7-22.7h164.3
	c12.5,0,22.7,10.2,22.7,22.7l0,0C787,1180.3,776.8,1190.5,764.3,1190.5z"/>
<rect x="2325.8" y="179.7" class="st10" width="910.3" height="248.7"/>
<rect x="2325.8" y="179.7" class="st11" width="910.3" height="43"/>
<rect x="2290" y="0" class="st4" width="982.9" height="194.9"/>
<rect x="3101.7" y="0" class="st5" width="171.3" height="194.9"/>
<rect x="2987.6" y="0" class="st5" width="62.8" height="194.9"/>
<g>
	<rect x="2290" y="0" class="st6" width="171.3" height="194.9"/>
	<rect x="2512.6" y="0" class="st6" width="62.8" height="194.9"/>
</g>
<rect x="2325.8" y="509.9" class="st10" width="910.3" height="218.7"/>
<rect x="2325.8" y="509.9" class="st11" width="910.3" height="43"/>
<rect x="2290" y="330.3" class="st4" width="982.9" height="194.9"/>
<rect x="3101.7" y="330.3" class="st5" width="171.3" height="194.9"/>
<rect x="2987.6" y="330.3" class="st5" width="62.8" height="194.9"/>
<g>
	<rect x="2290" y="330.3" class="st6" width="171.3" height="194.9"/>
	<rect x="2512.6" y="330.3" class="st6" width="62.8" height="194.9"/>
</g>
<rect x="2325.8" y="1203.1" class="st7" width="910.3" height="138"/>
<rect x="2325.8" y="1099.8" class="st8" width="910.3" height="150"/>
<rect x="2325.8" y="840.2" class="st10" width="910.3" height="248.7"/>
<rect x="2325.8" y="840.2" class="st11" width="910.3" height="43"/>
<rect x="2290" y="990.8" class="st4" width="982.9" height="237"/>
<rect x="3101.7" y="990.8" class="st5" width="171.3" height="237"/>
<rect x="2987.6" y="990.8" class="st5" width="62.8" height="237"/>
<rect x="2290" y="990.8" class="st6" width="171.3" height="237"/>
<rect x="2512.6" y="990.8" class="st6" width="62.8" height="237"/>
<rect x="2290" y="660.5" class="st4" width="982.9" height="194.9"/>
<rect x="3101.7" y="660.5" class="st5" width="171.3" height="194.9"/>
<rect x="2987.6" y="660.5" class="st5" width="62.8" height="194.9"/>
<g>
	<rect x="2290" y="660.5" class="st6" width="171.3" height="194.9"/>
	<rect x="2512.6" y="660.5" class="st6" width="62.8" height="194.9"/>
</g>
<rect x="2290" y="1304.6" class="st4" width="981.8" height="82.2"/>
<path class="st2" d="M2863.6,1190.5h-164.3c-12.5,0-22.7-10.2-22.7-22.7l0,0c0-12.5,10.2-22.7,22.7-22.7h164.3
	c12.5,0,22.7,10.2,22.7,22.7l0,0C2886.3,1180.3,2876.1,1190.5,2863.6,1190.5z"/>
<path class="st12" d="M3103.1,420.6c0,0-275-322.1-321.6-323.1c-46.6,1-317.6,296.5-317.6,296.5"/>
<polygon class="st13" points="3135.1,782.9 2405.4,753.7 2417.9,369.6 3147.6,398.8 "/>
<g>
	<g>
		<path class="st14" d="M2550,488.2l-2.8,69.5l-7.7,7.1l7.1,7.7l-2.9,72.6l-11.9,11l-80.3-3.2l0.8-19.3l14.6,0.6l5.7-141.2
			l-14.6-0.6l0.8-19.3l80.3,3.2L2550,488.2z M2491.1,553.2l35.3,1.4l2.4-59.4l-35.3-1.4L2491.1,553.2z M2525.6,573.9l-35.3-1.4
			l-2.5,62.5l35.3,1.4L2525.6,573.9z"/>
		<path class="st14" d="M2669.9,642.5l-0.8,19.1l-47.4-1.9l0.7-18.7l12.8,0.5l-4.3-39.1l-29.7-1.2l-7.6,38.6l13,0.5l-0.7,18.7
			l-47-1.9l0.8-19.1l13.3,0.5l30.6-141.1l-17.5-0.7l0.7-18.7l48.3,1.9l21.7,161.9L2669.9,642.5z M2629,584.2l-9-79.8l-15.3,78.9
			L2629,584.2z"/>
		<path class="st14" d="M2766.7,654.1l-11.9,11l-58.2-2.3l-11-11.9l6.3-156.9l11.9-11l58.2,2.3l11,11.9l-1.8,45l-20.9-0.8l1.5-37.1
			l-39.3-1.6l-5.7,141.2l39.3,1.6l1.5-37.1l20.9,0.8L2766.7,654.1z"/>
		<path class="st14" d="M2894.1,651.5l-0.8,19.1l-48.6-1.9l0.8-19.1l12.8,0.5l-21.7-66.2l-13,20.6l-1.8,44.1l12.4,0.5l-0.8,19.1
			l-47.9-1.9l0.8-19.1l14.6,0.6l5.7-141.6l-14.6-0.6l0.8-19.1l48.1,1.9l-0.8,19.1l-12.6-0.5l-2.6,66.1l40-64.6l-13.3-0.5l0.8-19.1
			l46.8,1.9l-0.8,19.1l-12.4-0.5l-34.2,56.5l29,85.2L2894.1,651.5z"/>
		<path class="st14" d="M3015.1,514.7l-13.7-0.5l-6,149l-11.9,11l-54.6-2.2l-11-11.9l6-149l-13.7-0.5l0.8-19.3l47.4,1.9l-0.8,19.3
			l-12.6-0.5l-5.7,141.2l35.5,1.4l5.7-141.2l-12.6-0.5l0.8-19.3l47.2,1.9L3015.1,514.7z"/>
		<path class="st14" d="M3118.3,511l-3.3,82.5l-11.9,11l-43.2-1.7l-2.2,55.1l18.9,0.8l-0.8,19.3l-54.4-2.2l0.8-19.3l14.6,0.6
			l5.7-141.4l-14.6-0.4l0.8-19.3l78.7,3.2L3118.3,511z M3097.1,518l-33.7-1.4l-2.7,67.9l33.7,1.4L3097.1,518z"/>
	</g>
	<g>
		<path class="st15" d="M2541,479.2l-2.8,69.5l-7.7,7.1l7.1,7.7l-2.9,72.6l-11.9,11l-80.3-3.2l0.8-19.3l14.6,0.6l5.7-141.2
			l-14.6-0.6l0.8-19.3l80.3,3.2L2541,479.2z M2482.1,544.2l35.3,1.4l2.4-59.4l-35.3-1.4L2482.1,544.2z M2516.6,564.9l-35.3-1.4
			l-2.5,62.5l35.3,1.4L2516.6,564.9z"/>
		<path class="st15" d="M2660.9,633.5l-0.8,19.1l-47.4-1.9l0.7-18.7l12.8,0.5l-4.3-39.1l-29.7-1.2l-7.6,38.6l13,0.5l-0.7,18.7
			l-47-1.9l0.8-19.1l13.3,0.5l30.6-141.1l-17.5-0.7l0.7-18.7l48.3,1.9l21.7,161.9L2660.9,633.5z M2620,575.1l-9-79.8l-15.3,78.9
			L2620,575.1z"/>
		<path class="st15" d="M2757.7,645.1l-11.9,11l-58.2-2.3l-11-11.9l6.3-156.9l11.9-11l58.2,2.3l11,11.9l-1.8,45l-20.9-0.8l1.5-37.1
			l-39.3-1.6l-5.7,141.2l39.3,1.6l1.5-37.1l20.9,0.8L2757.7,645.1z"/>
		<path class="st15" d="M2885,642.5l-0.8,19.1l-48.6-1.9l0.8-19.1l12.8,0.5l-21.7-66.2l-13,20.6l-1.8,44.1l12.4,0.5l-0.8,19.1
			l-47.9-1.9l0.8-19.1l14.6,0.6l5.7-141.6l-14.6-0.6l0.8-19.1l48.1,1.9l-0.8,19.1l-12.6-0.5l-2.6,66.1l40-64.6l-13.3-0.5l0.8-19.1
			l46.8,1.9l-0.8,19.1l-12.4-0.5l-34.2,56.5l29,85.2L2885,642.5z"/>
		<path class="st15" d="M3006,505.7l-13.7-0.5l-6,149l-11.9,11l-54.6-2.2l-11-11.9l6-149l-13.7-0.5l0.8-19.3l47.4,1.9l-0.8,19.3
			l-12.6-0.5l-5.7,141.2l35.5,1.4l5.7-141.2l-12.6-0.5l0.8-19.3l47.2,1.9L3006,505.7z"/>
		<path class="st15" d="M3109.3,502l-3.3,82.5l-11.9,11l-43.2-1.7l-2.2,55.1l18.9,0.8l-0.8,19.3l-54.4-2.2l0.8-19.3l14.6,0.6
			l5.7-141.4l-14.6-0.4l0.8-19.3l78.7,3.2L3109.3,502z M3088.1,509l-33.7-1.4l-2.7,67.9l33.7,1.4L3088.1,509z"/>
	</g>
</g>
<ellipse class="st8" cx="2781.5" cy="113.8" rx="12.9" ry="13"/>
</svg>
