<?xml version="1.0" encoding="utf-8"?>
<!-- Generator: Adobe Illustrator 22.0.1, SVG Export Plug-In . SVG Version: 6.00 Build 0)  -->
<svg version="1.1" id="Layer_1" xmlns="http://www.w3.org/2000/svg" xmlns:xlink="http://www.w3.org/1999/xlink" x="0px" y="0px"
	 viewBox="0 0 1458 1666.3" style="enable-background:new 0 0 1458 1666.3;" xml:space="preserve">
<style type="text/css">
	.st0{fill:#6C98A7;}
	.st1{fill:#FFFFFF;}
	.st2{fill:#CDE0DE;}
	.st3{fill:#BD3435;}
	.st4{fill:#4E7A89;}
	.st5{fill:#1C283E;}
	.st6{fill:#0A0C1B;}
</style>
<circle class="st0" cx="729" cy="729" r="729"/>
<g>
	<polygon class="st1" points="379.4,141.7 169.9,424.1 315.5,1408.1 1330.1,1257.9 1148.1,28 	"/>
	<polygon class="st2" points="379.4,141.7 169.9,424.1 415.8,387.7 	"/>
</g>
<polygon class="st3" points="399.6,665.6 377.3,695.5 340.6,688.5 333.5,725.1 297.5,734.8 307,770.9 278.7,795.2 302.9,823.6 
	287.9,857.8 322.1,872.9 323.4,910.2 360.7,909 378.2,942 411.2,924.7 441.2,946.9 463.6,917 500.2,923.9 507.3,887.3 543.4,877.6 
	533.9,841.5 562.2,817.2 538,788.8 552.9,754.6 518.8,739.5 517.4,702.2 480.1,703.4 462.7,670.5 429.6,687.7 "/>
<rect x="696" y="408.6" transform="matrix(0.9892 -0.1464 0.1464 0.9892 -54.3051 112.7238)" class="st4" width="85.2" height="33.4"/>
<rect x="738.5" y="695.9" transform="matrix(0.9892 -0.1464 0.1464 0.9892 -95.9087 122.0451)" class="st4" width="85.2" height="33.4"/>
<rect x="749.2" y="767.7" transform="matrix(0.9892 -0.1464 0.1464 0.9892 -106.3096 124.3754)" class="st4" width="85.2" height="33.4"/>
<rect x="813" y="1198.6" transform="matrix(0.9892 -0.1464 0.1464 0.9892 -168.7151 138.3573)" class="st4" width="85.2" height="33.4"/>
<rect x="749.6" y="452.3" transform="matrix(0.9892 -0.1464 0.1464 0.9892 -58.5385 142.5813)" class="st4" width="379.4" height="33.4"/>
<rect x="760.1" y="522.8" transform="matrix(0.9892 -0.1464 0.1464 0.9892 -68.6503 146.202)" class="st4" width="397.4" height="33.4"/>
<rect x="772.1" y="612.2" transform="matrix(0.9892 -0.1464 0.1464 0.9892 -82.9059 131.3278)" class="st4" width="157.2" height="33.4"/>
<rect x="804" y="827.6" transform="matrix(0.9892 -0.1464 0.1464 0.9892 -114.1086 138.3188)" class="st4" width="157.2" height="33.4"/>
<rect x="846.5" y="1114.9" transform="matrix(0.9892 -0.1464 0.1464 0.9892 -155.7123 147.6401)" class="st4" width="157.2" height="33.4"/>
<rect x="814.1" y="892.9" transform="matrix(0.9892 -0.1464 0.1464 0.9892 -123.064 147.1008)" class="st4" width="247.3" height="33.4"/>
<rect x="835.4" y="1036.5" transform="matrix(0.9892 -0.1464 0.1464 0.9892 -143.8658 151.7614)" class="st4" width="247.3" height="33.4"/>
<rect x="824.4" y="960.3" transform="matrix(0.9892 -0.1464 0.1464 0.9892 -132.5013 153.7322)" class="st4" width="307.4" height="33.4"/>
<g>
	<path d="M702.2,1203.9l-54.5-368.1c-3.6-24.1-15.9-50.3-44.7-49.4l-2.1-14.1c27.8-7.5,31.5-39.5,28.4-60.3l-32.3-217.9
		c-2.8-19.1-8.2-66.7,47.8-78.4l2.2,15c-20.3,6.4-33.5,26.2-28.4,60.3l32.7,221.2c1.6,10.8,6.5,38.1-20.3,63.3
		c23.9,12.6,34.9,34.8,37.7,53.9l55,371.4c5,34.1,23.4,49.2,44.7,49.4l2.2,15C713.7,1270.1,705,1223,702.2,1203.9z"/>
</g>
<rect x="104" y="1376.7" class="st5" width="1247.6" height="289.7"/>
<g>
	<path class="st6" d="M240.2,1591v-129.7h51.9c19.8,0,29.7,3.1,39.3,13.4c10.9,11.7,11.1,30.7,11.1,51.7c0,21-0.2,39.9-11.1,51.5
		c-9.5,10.3-19.4,13-39.3,13H240.2z M264.3,1570.4h26.2c12.8,0,18.3-1.8,21.8-6c4.5-5.8,5.6-13.2,5.6-38.1c0-25.1-1.2-32.5-5.6-38.3
		c-3.5-4.3-8.9-6-21.8-6h-26.2V1570.4z"/>
	<path class="st6" d="M392.4,1481.9v33H449v20.6h-56.6v34.8H455v20.6h-86.7v-129.7h85.2v20.6H392.4z"/>
	<path class="st6" d="M501.1,1481.9v35h55.4v20.6h-55.4v53.5h-24.3v-129.7h83.4v20.6H501.1z"/>
	<path class="st6" d="M602.3,1591H578v-129.7h24.3V1591z"/>
	<path class="st6" d="M706.4,1591l-42.4-77.8l-9.3-19.4v97.2h-24.3v-129.7h29.7l42.6,77.8l9.3,19.4v-97.2h24.3V1591H706.4z"/>
	<path class="st6" d="M788.6,1591h-24.3v-129.7h24.3V1591z"/>
	<path class="st6" d="M872.6,1482.1V1591h-24.3v-108.9H809v-20.8h102.8v20.8H872.6z"/>
	<path class="st6" d="M956.5,1591h-24.3v-129.7h24.3V1591z"/>
	<path class="st6" d="M1078.4,1469.7c8.4,8.2,11.7,19.2,11.7,56.6c0,37.1-3.3,48.6-11.7,56.4c-8.7,8.2-17.9,10.5-42.2,10.5
		c-24.3,0-33.4-2.3-42.2-10.5c-8.4-7.8-11.7-19.2-11.7-56.4c0-37.3,3.3-48.4,11.7-56.6c8.6-8.4,17.7-10.5,42.2-10.5
		C1060.7,1459.2,1069.9,1461.3,1078.4,1469.7z M1011.8,1484.5c-3.3,3.7-4.7,14.6-4.7,41.8c0,27,1.4,37.9,4.7,41.6
		c3.1,3.3,5.6,4.5,24.5,4.5c18.9,0,21.4-1.2,24.5-4.5c3.3-3.7,4.7-14.6,4.7-41.6c0-27.2-1.4-38.1-4.7-41.8
		c-3.1-3.3-5.6-4.5-24.5-4.5C1017.4,1480,1014.9,1481.2,1011.8,1484.5z"/>
	<path class="st6" d="M1192,1591l-42.4-77.8l-9.3-19.4v97.2h-24.3v-129.7h29.7l42.6,77.8l9.3,19.4v-97.2h24.3V1591H1192z"/>
</g>
<g>
	<path class="st1" d="M233.7,1584.5v-129.7h51.9c19.8,0,29.7,3.1,39.3,13.4c10.9,11.7,11.1,30.7,11.1,51.7c0,21-0.2,39.9-11.1,51.5
		c-9.5,10.3-19.4,13-39.3,13H233.7z M257.8,1563.9h26.2c12.8,0,18.3-1.8,21.8-6c4.5-5.8,5.6-13.2,5.6-38.1c0-25.1-1.2-32.5-5.6-38.3
		c-3.5-4.3-8.9-6-21.8-6h-26.2V1563.9z"/>
	<path class="st1" d="M385.9,1475.4v33h56.6v20.6h-56.6v34.8h62.6v20.6h-86.7v-129.7H447v20.6H385.9z"/>
	<path class="st1" d="M494.6,1475.4v35H550v20.6h-55.4v53.5h-24.3v-129.7h83.4v20.6H494.6z"/>
	<path class="st1" d="M595.9,1584.5h-24.3v-129.7h24.3V1584.5z"/>
	<path class="st1" d="M699.9,1584.5l-42.4-77.8l-9.3-19.4v97.2h-24.3v-129.7h29.7l42.6,77.8l9.3,19.4v-97.2h24.3v129.7H699.9z"/>
	<path class="st1" d="M782.1,1584.5h-24.3v-129.7h24.3V1584.5z"/>
	<path class="st1" d="M866.1,1475.6v108.9h-24.3v-108.9h-39.3v-20.8h102.8v20.8H866.1z"/>
	<path class="st1" d="M950.1,1584.5h-24.3v-129.7h24.3V1584.5z"/>
	<path class="st1" d="M1071.9,1463.2c8.4,8.2,11.7,19.2,11.7,56.6c0,37.1-3.3,48.6-11.7,56.4c-8.7,8.2-17.9,10.5-42.2,10.5
		c-24.3,0-33.4-2.3-42.2-10.5c-8.4-7.8-11.7-19.2-11.7-56.4c0-37.3,3.3-48.4,11.7-56.6c8.6-8.4,17.7-10.5,42.2-10.5
		C1054.3,1452.7,1063.4,1454.8,1071.9,1463.2z M1005.3,1478c-3.3,3.7-4.7,14.6-4.7,41.8c0,27,1.4,37.9,4.7,41.6
		c3.1,3.3,5.6,4.5,24.5,4.5c18.9,0,21.4-1.2,24.5-4.5c3.3-3.7,4.7-14.6,4.7-41.6c0-27.2-1.4-38.1-4.7-41.8
		c-3.1-3.3-5.6-4.5-24.5-4.5C1010.9,1473.5,1008.4,1474.7,1005.3,1478z"/>
	<path class="st1" d="M1185.5,1584.5l-42.4-77.8l-9.3-19.4v97.2h-24.3v-129.7h29.7l42.6,77.8l9.3,19.4v-97.2h24.3v129.7H1185.5z"/>
</g>
</svg>
