<?xml version="1.0" encoding="utf-8"?>
<!-- Generator: Adobe Illustrator 22.0.1, SVG Export Plug-In . SVG Version: 6.00 Build 0)  -->
<svg version="1.1" id="Layer_1" xmlns="http://www.w3.org/2000/svg" xmlns:xlink="http://www.w3.org/1999/xlink" x="0px" y="0px"
	 viewBox="0 0 2008.8 2008.8" style="enable-background:new 0 0 2008.8 2008.8;" xml:space="preserve">
<style type="text/css">
	.st0{fill:#FFFFFF;}
	.st1{fill:#6A7493;}
	.st2{fill:#1C283E;}
	.st3{fill:#171728;stroke:#4C4C65;stroke-width:0;stroke-linecap:round;stroke-linejoin:round;}
	.st4{fill:#6A6A8D;}
	.st5{fill:#384261;}
	.st6{fill:#9ECAD9;}
	.st7{fill:#628E9D;}
	.st8{fill:#171728;}
	.st9{fill:#B4C6B6;}
	.st10{fill:#E0A865;}
	.st11{fill:#6C98A7;}
	.st12{fill:#4E7A89;}
</style>
<circle class="st0" cx="1004.4" cy="1004.4" r="1004.4"/>
<g>
	<rect x="180.4" y="338.5" class="st1" width="896.1" height="91.2"/>
	<rect x="173.3" y="1513.6" class="st1" width="910.3" height="138"/>
	<rect x="173.3" y="1422.2" class="st2" width="910.3" height="138"/>
	<polygon class="st2" points="1071.1,617.6 186.8,617.6 186.8,677 1071.1,677 1071.1,670.1 	"/>
	<polygon class="st1" points="1071.1,677 186.8,677 186.8,736.3 1071.1,736.3 1071.1,683.8 	"/>
	<g>
		<line class="st3" x1="1071.1" y1="913.5" x2="1071.1" y2="913.5"/>
		<polygon class="st2" points="1071.1,861 186.8,861 186.8,920.3 1071.1,920.3 1071.1,913.5 		"/>
	</g>
	<g>
		<line class="st4" x1="1071.1" y1="927.2" x2="1071.1" y2="927.2"/>
		<polygon class="st1" points="1071.1,920.3 186.8,920.3 186.8,979.7 1071.1,979.7 1071.1,927.2 		"/>
	</g>
	<g>
		<line class="st3" x1="1071.1" y1="1156.9" x2="1071.1" y2="1156.9"/>
		<polygon class="st2" points="1071.1,1104.4 186.8,1104.4 186.8,1163.7 1071.1,1163.7 1071.1,1156.9 		"/>
	</g>
	<g>
		<line class="st4" x1="1071.1" y1="1170.6" x2="1071.1" y2="1170.6"/>
		<polygon class="st1" points="1071.1,1163.7 186.8,1163.7 186.8,1223.1 1071.1,1223.1 1071.1,1170.6 		"/>
	</g>
	<g>
		<polygon class="st5" points="1071.1,663.3 186.8,663.3 137.5,614 137.5,429.2 169.7,397 1088.3,397 1120.4,429.2 1120.4,614 		"/>
		<polygon class="st5" points="1071.1,906.7 186.8,906.7 137.5,857.4 137.5,739.9 186.8,690.6 1071.1,690.6 1120.4,739.9 
			1120.4,857.4 		"/>
	</g>
	<line class="st4" x1="1071.1" y1="683.8" x2="1071.1" y2="683.8"/>
	<polygon class="st5" points="1071.1,1150.1 186.8,1150.1 137.5,1100.8 137.5,1029 186.8,934 1071.1,934 1120.4,1029 1120.4,1100.8 
			"/>
	<polygon class="st5" points="137.5,1538.2 137.5,1226.7 186.8,1177.4 1071.1,1177.4 1120.4,1226.7 1120.4,1538.2 	"/>
	<rect x="137.5" y="311.6" class="st5" width="981.8" height="45.6"/>
	<rect x="137.5" y="1615.1" class="st5" width="981.8" height="82.2"/>
	<g>
		<path class="st6" d="M903.8,747.6H354.1c-38.9,0-70.7-31.8-70.7-70.7v0c0-38.9,31.8-70.7,70.7-70.7h549.7
			c38.9,0,70.7,31.8,70.7,70.7v0C974.5,715.8,942.7,747.6,903.8,747.6z"/>
		<path class="st7" d="M908.8,606.2H349.1c-21.9,0-41.4,10.9-53.3,27.6h666.4C950.2,617.2,930.8,606.2,908.8,606.2z"/>
		<path class="st2" d="M310.8,682v-10c0-36.1,29.6-65.7,65.7-65.7h-27.4c-36.1,0-65.7,29.6-65.7,65.7v10c0,36.1,29.6,65.7,65.7,65.7
			h27.4C340.4,747.6,310.8,718.1,310.8,682z"/>
		<path class="st1" d="M947.1,682v-10c0-36.1-29.6-65.7-65.7-65.7h27.4c36.1,0,65.7,29.6,65.7,65.7v10c0,36.1-29.6,65.7-65.7,65.7
			h-27.4C917.6,747.6,947.1,718.1,947.1,682z"/>
	</g>
	<g>
		<path class="st6" d="M903.8,991.1H354.1c-38.9,0-70.7-31.8-70.7-70.7v0c0-38.9,31.8-70.7,70.7-70.7h549.7
			c38.9,0,70.7,31.8,70.7,70.7v0C974.5,959.2,942.7,991.1,903.8,991.1z"/>
		<path class="st7" d="M908.8,849.6H349.1c-21.9,0-41.4,10.9-53.3,27.6h666.4C950.2,860.6,930.8,849.6,908.8,849.6z"/>
		<path class="st8" d="M310.8,925.4v-10c0-36.1,29.6-65.7,65.7-65.7h-27.4c-36.1,0-65.7,29.6-65.7,65.7v10
			c0,36.1,29.6,65.7,65.7,65.7h27.4C340.4,991.1,310.8,961.5,310.8,925.4z"/>
		<path class="st1" d="M947.1,925.4v-10c0-36.1-29.6-65.7-65.7-65.7h27.4c36.1,0,65.7,29.6,65.7,65.7v10c0,36.1-29.6,65.7-65.7,65.7
			h-27.4C917.6,991.1,947.1,961.5,947.1,925.4z"/>
	</g>
	<g>
		<path class="st6" d="M903.8,1234.5H354.1c-38.9,0-70.7-31.8-70.7-70.7v0c0-38.9,31.8-70.7,70.7-70.7h549.7
			c38.9,0,70.7,31.8,70.7,70.7v0C974.5,1202.6,942.7,1234.5,903.8,1234.5z"/>
		<path class="st7" d="M908.8,1093H349.1c-21.9,0-41.4,10.9-53.3,27.6h666.4C950.2,1104,930.8,1093,908.8,1093z"/>
		<path class="st8" d="M310.8,1168.8v-10c0-36.1,29.6-65.7,65.7-65.7h-27.4c-36.1,0-65.7,29.6-65.7,65.7v10
			c0,36.1,29.6,65.7,65.7,65.7h27.4C340.4,1234.5,310.8,1204.9,310.8,1168.8z"/>
		<path class="st1" d="M947.1,1168.8v-10c0-36.1-29.6-65.7-65.7-65.7h27.4c36.1,0,65.7,29.6,65.7,65.7v10
			c0,36.1-29.6,65.7-65.7,65.7h-27.4C917.6,1234.5,947.1,1204.9,947.1,1168.8z"/>
	</g>
	<ellipse class="st9" cx="212.4" cy="1471.2" rx="28" ry="28"/>
	<ellipse class="st10" cx="303.7" cy="1471.2" rx="28" ry="28"/>
	<rect x="714.6" y="434.7" class="st11" width="1257.3" height="958"/>
	<rect x="714.6" y="434.7" class="st0" width="1257.3" height="958"/>
	<rect x="714.6" y="1333.3" class="st12" width="1257.3" height="59.4"/>
	<rect x="714.6" y="434.7" class="st12" width="1257.3" height="95.5"/>
	<circle class="st0" cx="774.5" cy="480.7" r="28.2"/>
	<circle class="st0" cx="860.1" cy="480.7" r="28.2"/>
	<circle class="st0" cx="945.8" cy="480.7" r="28.2"/>
	<path class="st2" d="M833.4,757.6h-30.9V612.3h30.9V757.6z"/>
	<path class="st2" d="M863,757.6V612.3h59.7c22.4,0,34.4,3.7,44.7,14.8c7.6,8.3,11.1,18.9,12.4,32.5c0.9,7.2,0.9,14.8,0.9,25.7
		c0,10.7,0,18.3-0.9,25.5c-1.3,13.3-4.8,24.4-12.2,32.5c-10.5,10.9-22.4,14.4-44.9,14.4H863z M893.8,731.4H921
		c12.9,0,18.9-1.5,22.7-6.1c4.8-5.9,5.9-14.8,5.9-40.3c0-25.7-1.1-34.6-5.9-40.5c-3.7-4.4-9.8-5.9-22.7-5.9h-27.2V731.4z"/>
	<path class="st2" d="M1106.6,638.4h-67.7v32.5h62.3V697h-62.3v34.4h69.5v26.1h-100.2V612.3h98.5V638.4z"/>
	<path class="st2" d="M1215.2,757.6l-44.4-79.5l-10.5-21.8v101.3h-30.9V612.3h35.7l44.7,79.5l10.5,21.8V612.3h30.9v145.3H1215.2z"/>
	<path class="st2" d="M1390.8,638.6h-43.6v118.9h-30.9V638.6h-43.6v-26.4h118.1V638.6z"/>
	<path class="st2" d="M1443.3,757.6h-30.9V612.3h30.9V757.6z"/>
	<path class="st2" d="M1569.2,638.4h-65.4v35.3h61v26.1h-61v57.7h-30.9V612.3h96.3V638.4z"/>
	<path class="st2" d="M1618.6,757.6h-30.9V612.3h30.9V757.6z"/>
	<path class="st2" d="M1746.7,638.4h-67.7v32.5h62.3V697h-62.3v34.4h69.5v26.1h-100.2V612.3h98.5V638.4z"/>
	<path class="st2" d="M1769.5,612.3h53.6c24.6,0,37,3.7,45.5,13.1c7.2,8.1,10.7,19.4,10.7,35.9c0,15.5-2.8,25.9-9.2,33.8
		c-3.5,4.1-7.8,7.4-13.1,9.8l27,52.7h-34l-23.7-47.5h-25.9v47.5h-30.9V612.3z M1800,683.7h18.5c11.1,0,22,0,25.7-2.6
		c3.9-2.6,4.6-8.1,4.6-19.8c0-11.8-0.7-17.2-4.6-20c-3.5-2.6-14.8-2.6-25.7-2.6H1800V683.7z"/>
	<path class="st2" d="M859.5,830.1H913c24.6,0,37,3.7,45.5,13.1c7.2,8.1,10.7,19.4,10.7,35.9c0,15.5-2.8,25.9-9.2,33.8
		c-3.5,4.1-7.8,7.4-13.1,9.8l27,52.7h-34l-23.7-47.5h-25.9v47.5h-30.9V830.1z M889.9,901.5h18.5c11.1,0,22,0,25.7-2.6
		c3.9-2.6,4.6-8.1,4.6-19.8c0-11.8-0.7-17.2-4.6-20c-3.5-2.6-14.8-2.6-25.7-2.6h-18.5V901.5z"/>
	<path class="st2" d="M1096,856.2h-67.7v32.5h62.3v26.1h-62.3v34.4h69.5v26.1H997.5V830.1h98.5V856.2z"/>
	<path class="st2" d="M1202.3,876.9c-0.4-8.1-1.1-15.3-3.9-18.7c-3.1-4.1-8.9-4.4-21.6-4.4c-17,0-21.3,1.1-24.2,4.6
		c-3.3,4.1-4.6,14.2-4.6,44.2c0,30.3,1.5,41,4.6,44.7c2.8,3.3,7.2,4.4,24.2,4.4c16.3,0,21.3-0.9,24.2-4.1c3.7-4.4,4.1-11.3,4.6-26.1
		h-27.9v-25.9h58.6V912c0,30.5-3.3,43.3-13.3,53.8c-8.5,9.2-19.6,12.2-45.7,12.2c-24.2,0-36.8-2-47.5-12.2
		c-10.7-10.2-13.1-27.4-13.1-63c0-35.7,2.4-52.9,12.8-63.2c10.9-10.2,23.3-12.2,47.7-12.2c20.7,0,28.8,2,37.7,7.2
		c10.9,6.8,16.3,18.3,18.1,42.3H1202.3z"/>
	<path class="st2" d="M1293.3,975.4h-30.9V830.1h30.9V975.4z"/>
	<path class="st2" d="M1393.7,875c-0.7-10.5-0.9-15.2-3.7-18.1c-3.1-2.8-7.4-3.9-19.8-3.9c-18.1,0-20.5,2.2-20.5,14.8
		c0,8.9,2.6,12.4,11.8,15.2l30.7,10.2c24.4,7.8,33.5,19.4,33.5,41.4c0,17-5.7,28.8-16.8,35.7c-8.3,5.4-18.7,7.6-36.8,7.6
		c-26.1,0-39.6-4.6-48.1-15.7c-5.4-7.4-7.6-13.3-8.7-34.4h31.2c0.4,12.2,0.9,15.5,3.1,18.5c2.6,3.9,9.4,5.4,22.7,5.4
		c9.8,0,15.9-0.7,19.2-3.5c3.1-2.4,3.3-5.9,3.3-13.3c0-9.6-2.6-13.1-13.1-16.3l-30.7-10.2c-21.3-7-30.9-19.4-30.9-40.1
		c0-28.1,15.5-40.9,49.7-40.9c20.3,0,31.4,2.8,39.6,8.9c11.5,8.3,13.7,17.6,15,38.6H1393.7z"/>
	<path class="st2" d="M1560.1,856.4h-43.6v118.9h-30.9V856.4h-43.6v-26.4h118.1V856.4z"/>
	<path class="st2" d="M1581.7,830.1h53.6c24.6,0,37,3.7,45.5,13.1c7.2,8.1,10.7,19.4,10.7,35.9c0,15.5-2.8,25.9-9.2,33.8
		c-3.5,4.1-7.8,7.4-13.1,9.8l27,52.7h-34l-23.7-47.5h-25.9v47.5h-30.9V830.1z M1612.2,901.5h18.5c11.1,0,22,0,25.7-2.6
		c3.9-2.6,4.6-8.1,4.6-19.8c0-11.8-0.7-17.2-4.6-20c-3.5-2.6-14.8-2.6-25.7-2.6h-18.5V901.5z"/>
	<path class="st2" d="M1784.7,925.7v49.7h-30.9v-49.7l-51.2-95.6h33.3l32.9,65.4h0.9l32.9-65.4h33.3L1784.7,925.7z"/>
	<g>
		<polygon class="st2" points="1797.2,1098.9 1691.2,1160.5 1622.8,1262.1 1541,999.9 		"/>
		
			<rect x="1691.9" y="1103" transform="matrix(0.7301 -0.6833 0.6833 0.7301 -352.4794 1502.3585)" class="st2" width="67.7" height="188.9"/>
	</g>
</g>
</svg>
