<?xml version="1.0" encoding="utf-8"?>
<!-- Generator: Adobe Illustrator 22.0.1, SVG Export Plug-In . SVG Version: 6.00 Build 0)  -->
<svg version="1.1" id="Layer_1" xmlns="http://www.w3.org/2000/svg" xmlns:xlink="http://www.w3.org/1999/xlink" x="0px" y="0px"
	 viewBox="0 0 1834.4 1385.7" style="enable-background:new 0 0 1834.4 1385.7;" xml:space="preserve">
<style type="text/css">
	.st0{fill:#6A7493;}
	.st1{fill:#1C283E;}
	.st2{fill:#171728;stroke:#4C4C65;stroke-width:0;stroke-linecap:round;stroke-linejoin:round;}
	.st3{fill:#6A6A8D;}
	.st4{fill:#384261;}
	.st5{fill:#9ECAD9;}
	.st6{fill:#628E9D;}
	.st7{fill:#171728;}
	.st8{fill:#B4C6B6;}
	.st9{fill:#E0A865;}
	.st10{fill:#6C98A7;}
	.st11{fill:#FFFFFF;}
	.st12{fill:#4E7A89;}
</style>
<g>
	<rect x="42.9" y="26.9" class="st0" width="896.1" height="91.2"/>
	<rect x="35.7" y="1202" class="st0" width="910.3" height="138"/>
	<rect x="35.7" y="1110.7" class="st1" width="910.3" height="138"/>
	<polygon class="st1" points="933.6,306 49.3,306 49.3,365.4 933.6,365.4 933.6,358.5 	"/>
	<polygon class="st0" points="933.6,365.4 49.3,365.4 49.3,424.7 933.6,424.7 933.6,372.2 	"/>
	<g>
		<line class="st2" x1="933.6" y1="601.9" x2="933.6" y2="601.9"/>
		<polygon class="st1" points="933.6,549.4 49.3,549.4 49.3,608.8 933.6,608.8 933.6,601.9 		"/>
	</g>
	<g>
		<line class="st3" x1="933.6" y1="615.6" x2="933.6" y2="615.6"/>
		<polygon class="st0" points="933.6,608.8 49.3,608.8 49.3,668.1 933.6,668.1 933.6,615.6 		"/>
	</g>
	<g>
		<line class="st2" x1="933.6" y1="845.3" x2="933.6" y2="845.3"/>
		<polygon class="st1" points="933.6,792.8 49.3,792.8 49.3,852.2 933.6,852.2 933.6,845.3 		"/>
	</g>
	<g>
		<line class="st3" x1="933.6" y1="859" x2="933.6" y2="859"/>
		<polygon class="st0" points="933.6,852.2 49.3,852.2 49.3,911.5 933.6,911.5 933.6,859 		"/>
	</g>
	<g>
		<polygon class="st4" points="933.6,351.7 49.3,351.7 0,302.4 0,117.6 32.1,85.4 950.7,85.4 982.9,117.6 982.9,302.4 		"/>
		<polygon class="st4" points="933.6,595.1 49.3,595.1 0,545.8 0,428.3 49.3,379.1 933.6,379.1 982.9,428.3 982.9,545.8 		"/>
	</g>
	<line class="st3" x1="933.6" y1="372.2" x2="933.6" y2="372.2"/>
	<polygon class="st4" points="933.6,838.5 49.3,838.5 0,789.2 0,717.4 49.3,622.5 933.6,622.5 982.9,717.4 982.9,789.2 	"/>
	<polygon class="st4" points="0,1226.7 0,915.1 49.3,865.9 933.6,865.9 982.9,915.1 982.9,1226.7 	"/>
	<rect x="0" class="st4" width="981.8" height="45.6"/>
	<rect y="1303.5" class="st4" width="981.8" height="82.2"/>
	<g>
		<path class="st5" d="M766.3,436.1H216.6c-38.9,0-70.7-31.8-70.7-70.7v0c0-38.9,31.8-70.7,70.7-70.7h549.7
			c38.9,0,70.7,31.8,70.7,70.7v0C837,404.3,805.2,436.1,766.3,436.1z"/>
		<path class="st6" d="M771.3,294.7H211.6c-21.9,0-41.4,10.9-53.3,27.6h666.4C812.7,305.6,793.2,294.7,771.3,294.7z"/>
		<path class="st1" d="M173.3,370.4v-10c0-36.1,29.6-65.7,65.7-65.7h-27.4c-36.1,0-65.7,29.6-65.7,65.7v10
			c0,36.1,29.6,65.7,65.7,65.7H239C202.8,436.1,173.3,406.5,173.3,370.4z"/>
		<path class="st0" d="M809.6,370.4v-10c0-36.1-29.6-65.7-65.7-65.7h27.4c36.1,0,65.7,29.6,65.7,65.7v10c0,36.1-29.6,65.7-65.7,65.7
			h-27.4C780.1,436.1,809.6,406.5,809.6,370.4z"/>
	</g>
	<g>
		<path class="st5" d="M766.3,679.5H216.6c-38.9,0-70.7-31.8-70.7-70.7v0c0-38.9,31.8-70.7,70.7-70.7h549.7
			c38.9,0,70.7,31.8,70.7,70.7v0C837,647.7,805.2,679.5,766.3,679.5z"/>
		<path class="st6" d="M771.3,538.1H211.6c-21.9,0-41.4,10.9-53.3,27.6h666.4C812.7,549,793.2,538.1,771.3,538.1z"/>
		<path class="st7" d="M173.3,613.8v-10c0-36.1,29.6-65.7,65.7-65.7h-27.4c-36.1,0-65.7,29.6-65.7,65.7v10
			c0,36.1,29.6,65.7,65.7,65.7H239C202.8,679.5,173.3,649.9,173.3,613.8z"/>
		<path class="st0" d="M809.6,613.8v-10c0-36.1-29.6-65.7-65.7-65.7h27.4c36.1,0,65.7,29.6,65.7,65.7v10c0,36.1-29.6,65.7-65.7,65.7
			h-27.4C780.1,679.5,809.6,649.9,809.6,613.8z"/>
	</g>
	<g>
		<path class="st5" d="M766.3,922.9H216.6c-38.9,0-70.7-31.8-70.7-70.7v0c0-38.9,31.8-70.7,70.7-70.7h549.7
			c38.9,0,70.7,31.8,70.7,70.7v0C837,891.1,805.2,922.9,766.3,922.9z"/>
		<path class="st6" d="M771.3,781.5H211.6c-21.9,0-41.4,10.9-53.3,27.6h666.4C812.7,792.4,793.2,781.5,771.3,781.5z"/>
		<path class="st7" d="M173.3,857.2v-10c0-36.1,29.6-65.7,65.7-65.7h-27.4c-36.1,0-65.7,29.6-65.7,65.7v10
			c0,36.1,29.6,65.7,65.7,65.7H239C202.8,922.9,173.3,893.3,173.3,857.2z"/>
		<path class="st0" d="M809.6,857.2v-10c0-36.1-29.6-65.7-65.7-65.7h27.4c36.1,0,65.7,29.6,65.7,65.7v10c0,36.1-29.6,65.7-65.7,65.7
			h-27.4C780.1,922.9,809.6,893.3,809.6,857.2z"/>
	</g>
	<ellipse class="st8" cx="74.9" cy="1159.6" rx="28" ry="28"/>
	<ellipse class="st9" cx="166.2" cy="1159.6" rx="28" ry="28"/>
	<rect x="577.1" y="123.1" class="st10" width="1257.3" height="958"/>
	<rect x="577.1" y="123.1" class="st11" width="1257.3" height="958"/>
	<rect x="577.1" y="1021.7" class="st12" width="1257.3" height="59.4"/>
	<rect x="577.1" y="123.1" class="st12" width="1257.3" height="95.5"/>
	<circle class="st11" cx="637" cy="169.1" r="28.2"/>
	<circle class="st11" cx="722.6" cy="169.1" r="28.2"/>
	<circle class="st11" cx="808.2" cy="169.1" r="28.2"/>
	<path class="st1" d="M695.9,446H665V300.7h30.9V446z"/>
	<path class="st1" d="M725.5,446V300.7h59.7c22.4,0,34.4,3.7,44.7,14.8c7.6,8.3,11.1,18.9,12.4,32.5c0.9,7.2,0.9,14.8,0.9,25.7
		c0,10.7,0,18.3-0.9,25.5c-1.3,13.3-4.8,24.4-12.2,32.5c-10.5,10.9-22.4,14.4-44.9,14.4H725.5z M756.2,419.9h27.2
		c12.9,0,18.9-1.5,22.7-6.1c4.8-5.9,5.9-14.8,5.9-40.3c0-25.7-1.1-34.6-5.9-40.5c-3.7-4.4-9.8-5.9-22.7-5.9h-27.2V419.9z"/>
	<path class="st1" d="M969,326.9h-67.7v32.5h62.3v26.1h-62.3v34.4h69.5V446H870.6V300.7H969V326.9z"/>
	<path class="st1" d="M1077.7,446l-44.4-79.5l-10.5-21.8V446h-30.9V300.7h35.7l44.7,79.5l10.5,21.8V300.7h30.9V446H1077.7z"/>
	<path class="st1" d="M1253.3,327.1h-43.6V446h-30.9V327.1h-43.6v-26.4h118.1V327.1z"/>
	<path class="st1" d="M1305.7,446h-30.9V300.7h30.9V446z"/>
	<path class="st1" d="M1431.6,326.9h-65.4v35.3h61v26.1h-61V446h-30.9V300.7h96.3V326.9z"/>
	<path class="st1" d="M1481.1,446h-30.9V300.7h30.9V446z"/>
	<path class="st1" d="M1609.1,326.9h-67.7v32.5h62.3v26.1h-62.3v34.4h69.5V446h-100.2V300.7h98.5V326.9z"/>
	<path class="st1" d="M1632,300.7h53.6c24.6,0,37,3.7,45.5,13.1c7.2,8.1,10.7,19.4,10.7,35.9c0,15.5-2.8,25.9-9.2,33.8
		c-3.5,4.1-7.8,7.4-13.1,9.8l27,52.7h-34l-23.7-47.5h-25.9V446H1632V300.7z M1662.5,372.2h18.5c11.1,0,22,0,25.7-2.6
		c3.9-2.6,4.6-8.1,4.6-19.8c0-11.8-0.7-17.2-4.6-20c-3.5-2.6-14.8-2.6-25.7-2.6h-18.5V372.2z"/>
	<path class="st1" d="M721.9,518.5h53.6c24.6,0,37,3.7,45.5,13.1c7.2,8.1,10.7,19.4,10.7,35.9c0,15.5-2.8,25.9-9.2,33.8
		c-3.5,4.1-7.8,7.4-13.1,9.8l27,52.7h-34l-23.7-47.5h-25.9v47.5h-30.9V518.5z M752.4,590h18.5c11.1,0,22,0,25.7-2.6
		c3.9-2.6,4.6-8.1,4.6-19.8c0-11.8-0.7-17.2-4.6-20c-3.5-2.6-14.8-2.6-25.7-2.6h-18.5V590z"/>
	<path class="st1" d="M958.5,544.7h-67.7v32.5H953v26.1h-62.3v34.4h69.5v26.1H860V518.5h98.5V544.7z"/>
	<path class="st1" d="M1064.8,565.4c-0.4-8.1-1.1-15.3-3.9-18.7c-3.1-4.1-8.9-4.4-21.6-4.4c-17,0-21.3,1.1-24.2,4.6
		c-3.3,4.1-4.6,14.2-4.6,44.2c0,30.3,1.5,41,4.6,44.7c2.8,3.3,7.2,4.4,24.2,4.4c16.3,0,21.3-0.9,24.2-4.1c3.7-4.4,4.1-11.3,4.6-26.1
		h-27.9v-25.9h58.6v16.6c0,30.5-3.3,43.3-13.3,53.8c-8.5,9.2-19.6,12.2-45.7,12.2c-24.2,0-36.8-2-47.5-12.2
		c-10.7-10.2-13.1-27.4-13.1-63c0-35.7,2.4-52.9,12.8-63.2c10.9-10.2,23.3-12.2,47.7-12.2c20.7,0,28.8,2,37.7,7.2
		c10.9,6.8,16.3,18.3,18.1,42.3H1064.8z"/>
	<path class="st1" d="M1155.8,663.8h-30.9V518.5h30.9V663.8z"/>
	<path class="st1" d="M1256.2,563.4c-0.7-10.5-0.9-15.2-3.7-18.1c-3.1-2.8-7.4-3.9-19.8-3.9c-18.1,0-20.5,2.2-20.5,14.8
		c0,8.9,2.6,12.4,11.8,15.2l30.7,10.2c24.4,7.8,33.5,19.4,33.5,41.4c0,17-5.7,28.8-16.8,35.7c-8.3,5.4-18.7,7.6-36.8,7.6
		c-26.1,0-39.6-4.6-48.1-15.7c-5.4-7.4-7.6-13.3-8.7-34.4h31.2c0.4,12.2,0.9,15.5,3.1,18.5c2.6,3.9,9.4,5.4,22.7,5.4
		c9.8,0,15.9-0.7,19.2-3.5c3.1-2.4,3.3-5.9,3.3-13.3c0-9.6-2.6-13.1-13.1-16.3l-30.7-10.2c-21.3-7-30.9-19.4-30.9-40.1
		c0-28.1,15.5-40.9,49.7-40.9c20.3,0,31.4,2.8,39.6,8.9c11.5,8.3,13.7,17.6,15,38.6H1256.2z"/>
	<path class="st1" d="M1422.6,544.9H1379v118.9h-30.9V544.9h-43.6v-26.4h118.1V544.9z"/>
	<path class="st1" d="M1444.1,518.5h53.6c24.6,0,37,3.7,45.5,13.1c7.2,8.1,10.7,19.4,10.7,35.9c0,15.5-2.8,25.9-9.2,33.8
		c-3.5,4.1-7.8,7.4-13.1,9.8l27,52.7h-34l-23.7-47.5h-25.9v47.5h-30.9V518.5z M1474.6,590h18.5c11.1,0,22,0,25.7-2.6
		c3.9-2.6,4.6-8.1,4.6-19.8c0-11.8-0.7-17.2-4.6-20c-3.5-2.6-14.8-2.6-25.7-2.6h-18.5V590z"/>
	<path class="st1" d="M1647.1,614.1v49.7h-30.9v-49.7l-51.2-95.6h33.3l32.9,65.4h0.9l32.9-65.4h33.3L1647.1,614.1z"/>
	<g>
		<polygon class="st1" points="1659.6,787.4 1553.7,848.9 1485.3,950.5 1403.4,688.3 		"/>
		
			<rect x="1554.4" y="791.4" transform="matrix(0.7301 -0.6833 0.6833 0.7301 -176.697 1324.3123)" class="st1" width="67.7" height="188.9"/>
	</g>
</g>
</svg>
