<?xml version="1.0" encoding="utf-8"?>
<!-- Generator: Adobe Illustrator 22.0.1, SVG Export Plug-In . SVG Version: 6.00 Build 0)  -->
<svg version="1.1" id="Layer_1" xmlns="http://www.w3.org/2000/svg" xmlns:xlink="http://www.w3.org/1999/xlink" x="0px" y="0px"
	 viewBox="0 0 1935.1 1424.3" style="enable-background:new 0 0 1935.1 1424.3;" xml:space="preserve">
<style type="text/css">
	.st0{fill:#6A7493;}
	.st1{fill:#1C283E;}
	.st2{fill:#171728;stroke:#4C4C65;stroke-width:0;stroke-linecap:round;stroke-linejoin:round;}
	.st3{fill:#6A6A8D;}
	.st4{fill:#384261;}
	.st5{fill:#8AB6C5;}
	.st6{fill:#9ECAD9;}
	.st7{fill:#628E9D;}
	.st8{fill:#171728;}
	.st9{fill:#B4C6B6;}
	.st10{fill:#E0A865;}
	.st11{fill:#6C98A7;}
	.st12{fill:#FFFFFF;}
	.st13{fill:#4E7A89;}
</style>
<g>
	<rect x="143.5" y="26.9" class="st0" width="896.1" height="91.2"/>
	<rect x="136.4" y="1202" class="st0" width="910.3" height="138"/>
	<rect x="136.4" y="1110.7" class="st1" width="910.3" height="138"/>
	<polygon class="st1" points="1034.3,306 149.9,306 149.9,365.4 1034.3,365.4 1034.3,358.5 	"/>
	<polygon class="st0" points="1034.3,365.4 149.9,365.4 149.9,424.7 1034.3,424.7 1034.3,372.2 	"/>
	<g>
		<line class="st2" x1="1034.3" y1="601.9" x2="1034.3" y2="601.9"/>
		<polygon class="st1" points="1034.3,549.4 149.9,549.4 149.9,608.8 1034.3,608.8 1034.3,601.9 		"/>
	</g>
	<g>
		<line class="st3" x1="1034.3" y1="615.6" x2="1034.3" y2="615.6"/>
		<polygon class="st0" points="1034.3,608.8 149.9,608.8 149.9,668.1 1034.3,668.1 1034.3,615.6 		"/>
	</g>
	<g>
		<line class="st2" x1="1034.3" y1="845.3" x2="1034.3" y2="845.3"/>
		<polygon class="st1" points="1034.3,792.8 149.9,792.8 149.9,852.2 1034.3,852.2 1034.3,845.3 		"/>
	</g>
	<g>
		<line class="st3" x1="1034.3" y1="859" x2="1034.3" y2="859"/>
		<polygon class="st0" points="1034.3,852.2 149.9,852.2 149.9,911.5 1034.3,911.5 1034.3,859 		"/>
	</g>
	<g>
		<polygon class="st4" points="1034.3,351.7 149.9,351.7 100.7,302.4 100.7,117.6 132.8,85.4 1051.4,85.4 1083.6,117.6 
			1083.6,302.4 		"/>
		<polygon class="st4" points="1034.3,595.1 149.9,595.1 100.7,545.8 100.7,428.3 149.9,379.1 1034.3,379.1 1083.6,428.3 
			1083.6,545.8 		"/>
	</g>
	<line class="st3" x1="1034.3" y1="372.2" x2="1034.3" y2="372.2"/>
	<polygon class="st4" points="1034.3,838.5 149.9,838.5 100.7,789.2 100.7,717.4 149.9,622.5 1034.3,622.5 1083.6,717.4 
		1083.6,789.2 	"/>
	<polygon class="st4" points="100.7,1226.7 100.7,915.1 149.9,865.9 1034.3,865.9 1083.6,915.1 1083.6,1226.7 	"/>
	<rect x="100.7" class="st4" width="981.8" height="45.6"/>
	<path class="st5" d="M1152.2,1424.3H31c-17,0-31-13.9-31-31l0,0c0-17,13.9-31,31-31h1121.2c17,0,31,13.9,31,31l0,0
		C1183.1,1410.4,1169.2,1424.3,1152.2,1424.3z"/>
	<rect x="100.7" y="1303.5" class="st4" width="981.8" height="82.2"/>
	<g>
		<path class="st6" d="M867,436.1H317.3c-38.9,0-70.7-31.8-70.7-70.7v0c0-38.9,31.8-70.7,70.7-70.7H867c38.9,0,70.7,31.8,70.7,70.7
			v0C937.7,404.3,905.9,436.1,867,436.1z"/>
		<path class="st7" d="M872,294.7H312.2c-21.9,0-41.4,10.9-53.3,27.6h666.4C913.4,305.6,893.9,294.7,872,294.7z"/>
		<path class="st1" d="M273.9,370.4v-10c0-36.1,29.6-65.7,65.7-65.7h-27.4c-36.1,0-65.7,29.6-65.7,65.7v10
			c0,36.1,29.6,65.7,65.7,65.7h27.4C303.5,436.1,273.9,406.5,273.9,370.4z"/>
		<path class="st0" d="M910.3,370.4v-10c0-36.1-29.6-65.7-65.7-65.7H872c36.1,0,65.7,29.6,65.7,65.7v10c0,36.1-29.6,65.7-65.7,65.7
			h-27.4C880.7,436.1,910.3,406.5,910.3,370.4z"/>
	</g>
	<g>
		<path class="st6" d="M867,679.5H317.3c-38.9,0-70.7-31.8-70.7-70.7v0c0-38.9,31.8-70.7,70.7-70.7H867c38.9,0,70.7,31.8,70.7,70.7
			v0C937.7,647.7,905.9,679.5,867,679.5z"/>
		<path class="st7" d="M872,538.1H312.2c-21.9,0-41.4,10.9-53.3,27.6h666.4C913.4,549,893.9,538.1,872,538.1z"/>
		<path class="st8" d="M273.9,613.8v-10c0-36.1,29.6-65.7,65.7-65.7h-27.4c-36.1,0-65.7,29.6-65.7,65.7v10
			c0,36.1,29.6,65.7,65.7,65.7h27.4C303.5,679.5,273.9,649.9,273.9,613.8z"/>
		<path class="st0" d="M910.3,613.8v-10c0-36.1-29.6-65.7-65.7-65.7H872c36.1,0,65.7,29.6,65.7,65.7v10c0,36.1-29.6,65.7-65.7,65.7
			h-27.4C880.7,679.5,910.3,649.9,910.3,613.8z"/>
	</g>
	<g>
		<path class="st6" d="M867,922.9H317.3c-38.9,0-70.7-31.8-70.7-70.7v0c0-38.9,31.8-70.7,70.7-70.7H867c38.9,0,70.7,31.8,70.7,70.7
			v0C937.7,891.1,905.9,922.9,867,922.9z"/>
		<path class="st7" d="M872,781.5H312.2c-21.9,0-41.4,10.9-53.3,27.6h666.4C913.4,792.4,893.9,781.5,872,781.5z"/>
		<path class="st8" d="M273.9,857.2v-10c0-36.1,29.6-65.7,65.7-65.7h-27.4c-36.1,0-65.7,29.6-65.7,65.7v10
			c0,36.1,29.6,65.7,65.7,65.7h27.4C303.5,922.9,273.9,893.3,273.9,857.2z"/>
		<path class="st0" d="M910.3,857.2v-10c0-36.1-29.6-65.7-65.7-65.7H872c36.1,0,65.7,29.6,65.7,65.7v10c0,36.1-29.6,65.7-65.7,65.7
			h-27.4C880.7,922.9,910.3,893.3,910.3,857.2z"/>
	</g>
	<ellipse class="st9" cx="175.6" cy="1159.6" rx="28" ry="28"/>
	<ellipse class="st10" cx="266.9" cy="1159.6" rx="28" ry="28"/>
	<rect x="677.8" y="123.1" class="st11" width="1257.3" height="958"/>
	<rect x="677.8" y="123.1" class="st12" width="1257.3" height="958"/>
	<rect x="677.8" y="1021.7" class="st13" width="1257.3" height="59.4"/>
	<rect x="677.8" y="123.1" class="st13" width="1257.3" height="95.5"/>
	<circle class="st12" cx="737.7" cy="169.1" r="28.2"/>
	<circle class="st12" cx="823.3" cy="169.1" r="28.2"/>
	<circle class="st12" cx="908.9" cy="169.1" r="28.2"/>
	<path class="st1" d="M796.6,446h-30.9V300.7h30.9V446z"/>
	<path class="st1" d="M826.2,446V300.7h59.7c22.4,0,34.4,3.7,44.7,14.8c7.6,8.3,11.1,18.9,12.4,32.5c0.9,7.2,0.9,14.8,0.9,25.7
		c0,10.7,0,18.3-0.9,25.5c-1.3,13.3-4.8,24.4-12.2,32.5c-10.5,10.9-22.4,14.4-44.9,14.4H826.2z M856.9,419.9h27.2
		c12.9,0,18.9-1.5,22.7-6.1c4.8-5.9,5.9-14.8,5.9-40.3c0-25.7-1.1-34.6-5.9-40.5c-3.7-4.4-9.8-5.9-22.7-5.9h-27.2V419.9z"/>
	<path class="st1" d="M1069.7,326.9H1002v32.5h62.3v26.1H1002v34.4h69.5V446H971.2V300.7h98.5V326.9z"/>
	<path class="st1" d="M1178.4,446l-44.4-79.5l-10.5-21.8V446h-30.9V300.7h35.7l44.7,79.5l10.5,21.8V300.7h30.9V446H1178.4z"/>
	<path class="st1" d="M1353.9,327.1h-43.6V446h-30.9V327.1h-43.6v-26.4h118.1V327.1z"/>
	<path class="st1" d="M1406.4,446h-30.9V300.7h30.9V446z"/>
	<path class="st1" d="M1532.3,326.9H1467v35.3h61v26.1h-61V446H1436V300.7h96.3V326.9z"/>
	<path class="st1" d="M1581.7,446h-30.9V300.7h30.9V446z"/>
	<path class="st1" d="M1709.8,326.9h-67.7v32.5h62.3v26.1h-62.3v34.4h69.5V446h-100.2V300.7h98.5V326.9z"/>
	<path class="st1" d="M1732.7,300.7h53.6c24.6,0,37,3.7,45.5,13.1c7.2,8.1,10.7,19.4,10.7,35.9c0,15.5-2.8,25.9-9.2,33.8
		c-3.5,4.1-7.8,7.4-13.1,9.8l27,52.7h-34l-23.7-47.5h-25.9V446h-30.9V300.7z M1763.2,372.2h18.5c11.1,0,22,0,25.7-2.6
		c3.9-2.6,4.6-8.1,4.6-19.8c0-11.8-0.7-17.2-4.6-20c-3.5-2.6-14.8-2.6-25.7-2.6h-18.5V372.2z"/>
	<path class="st1" d="M822.6,518.5h53.6c24.6,0,37,3.7,45.5,13.1c7.2,8.1,10.7,19.4,10.7,35.9c0,15.5-2.8,25.9-9.2,33.8
		c-3.5,4.1-7.8,7.4-13.1,9.8l27,52.7h-34l-23.7-47.5h-25.9v47.5h-30.9V518.5z M853.1,590h18.5c11.1,0,22,0,25.7-2.6
		c3.9-2.6,4.6-8.1,4.6-19.8c0-11.8-0.7-17.2-4.6-20c-3.5-2.6-14.8-2.6-25.7-2.6h-18.5V590z"/>
	<path class="st1" d="M1059.1,544.7h-67.7v32.5h62.3v26.1h-62.3v34.4h69.5v26.1H960.7V518.5h98.5V544.7z"/>
	<path class="st1" d="M1165.4,565.4c-0.4-8.1-1.1-15.3-3.9-18.7c-3.1-4.1-8.9-4.4-21.6-4.4c-17,0-21.3,1.1-24.2,4.6
		c-3.3,4.1-4.6,14.2-4.6,44.2c0,30.3,1.5,41,4.6,44.7c2.8,3.3,7.2,4.4,24.2,4.4c16.3,0,21.3-0.9,24.2-4.1c3.7-4.4,4.1-11.3,4.6-26.1
		h-27.9v-25.9h58.6v16.6c0,30.5-3.3,43.3-13.3,53.8c-8.5,9.2-19.6,12.2-45.7,12.2c-24.2,0-36.8-2-47.5-12.2
		c-10.7-10.2-13.1-27.4-13.1-63c0-35.7,2.4-52.9,12.8-63.2c10.9-10.2,23.3-12.2,47.7-12.2c20.7,0,28.8,2,37.7,7.2
		c10.9,6.8,16.3,18.3,18.1,42.3H1165.4z"/>
	<path class="st1" d="M1256.5,663.8h-30.9V518.5h30.9V663.8z"/>
	<path class="st1" d="M1356.9,563.4c-0.7-10.5-0.9-15.2-3.7-18.1c-3.1-2.8-7.4-3.9-19.8-3.9c-18.1,0-20.5,2.2-20.5,14.8
		c0,8.9,2.6,12.4,11.8,15.2l30.7,10.2c24.4,7.8,33.5,19.4,33.5,41.4c0,17-5.7,28.8-16.8,35.7c-8.3,5.4-18.7,7.6-36.8,7.6
		c-26.1,0-39.6-4.6-48.1-15.7c-5.4-7.4-7.6-13.3-8.7-34.4h31.2c0.4,12.2,0.9,15.5,3.1,18.5c2.6,3.9,9.4,5.4,22.7,5.4
		c9.8,0,15.9-0.7,19.2-3.5c3.1-2.4,3.3-5.9,3.3-13.3c0-9.6-2.6-13.1-13.1-16.3l-30.7-10.2c-21.3-7-30.9-19.4-30.9-40.1
		c0-28.1,15.5-40.9,49.7-40.9c20.3,0,31.4,2.8,39.6,8.9c11.5,8.3,13.7,17.6,15,38.6H1356.9z"/>
	<path class="st1" d="M1523.3,544.9h-43.6v118.9h-30.9V544.9h-43.6v-26.4h118.1V544.9z"/>
	<path class="st1" d="M1544.8,518.5h53.6c24.6,0,37,3.7,45.5,13.1c7.2,8.1,10.7,19.4,10.7,35.9c0,15.5-2.8,25.9-9.2,33.8
		c-3.5,4.1-7.8,7.4-13.1,9.8l27,52.7h-34l-23.7-47.5h-25.9v47.5h-30.9V518.5z M1575.3,590h18.5c11.1,0,22,0,25.7-2.6
		c3.9-2.6,4.6-8.1,4.6-19.8c0-11.8-0.7-17.2-4.6-20c-3.5-2.6-14.8-2.6-25.7-2.6h-18.5V590z"/>
	<path class="st1" d="M1747.8,614.1v49.7h-30.9v-49.7l-51.2-95.6h33.3l32.9,65.4h0.9l32.9-65.4h33.3L1747.8,614.1z"/>
	<g>
		<polygon class="st1" points="1760.3,787.4 1654.4,848.9 1585.9,950.5 1504.1,688.3 		"/>
		
			<rect x="1655.1" y="791.4" transform="matrix(0.7301 -0.6833 0.6833 0.7301 -149.5298 1393.1014)" class="st1" width="67.7" height="188.9"/>
	</g>
</g>
</svg>
