<?xml version="1.0" encoding="utf-8"?>
<!-- Generator: Adobe Illustrator 22.0.1, SVG Export Plug-In . SVG Version: 6.00 Build 0)  -->
<svg version="1.1" id="Layer_1" xmlns="http://www.w3.org/2000/svg" xmlns:xlink="http://www.w3.org/1999/xlink" x="0px" y="0px"
	 viewBox="0 0 1125.4 1125.4" style="enable-background:new 0 0 1125.4 1125.4;" xml:space="preserve">
<style type="text/css">
	.st0{clip-path:url(#SVGID_2_);}
	.st1{fill:#FFFFFF;}
	.st2{fill:#B3BDC8;}
	.st3{fill-rule:evenodd;clip-rule:evenodd;fill:#DCE1E4;}
	.st4{fill-rule:evenodd;clip-rule:evenodd;fill:#7E8E9E;}
	.st5{fill-rule:evenodd;clip-rule:evenodd;fill:#1C283E;}
	.st6{fill:#384261;}
	.st7{fill-rule:evenodd;clip-rule:evenodd;fill:#8E6134;}
</style>
<g>
	<defs>
		<circle id="SVGID_1_" cx="562.7" cy="562.7" r="562.7"/>
	</defs>
	<clipPath id="SVGID_2_">
		<use xlink:href="#SVGID_1_"  style="overflow:visible;"/>
	</clipPath>
	<g class="st0">
		<circle class="st1" cx="562.7" cy="562.7" r="562.7"/>
		<g>
			<rect x="227.4" y="201.6" class="st2" width="670.6" height="200.7"/>
			<g>
				<rect x="146.4" y="443.1" class="st3" width="832.7" height="863.4"/>
				<rect x="119.3" y="391.7" class="st3" width="886.7" height="51.3"/>
				<rect x="146.4" y="443.1" class="st4" width="832.7" height="18.5"/>
				<g>
					<g>
						<rect x="193.9" y="496" class="st4" width="102.6" height="158.2"/>
						<rect x="202" y="496" class="st5" width="102.6" height="158.2"/>
						<rect x="210.1" y="504.1" class="st6" width="94.5" height="150.1"/>
					</g>
					<g>
						<rect x="350.6" y="496" class="st4" width="102.6" height="158.2"/>
						<rect x="358.7" y="496" class="st5" width="102.6" height="158.2"/>
						<rect x="366.8" y="504.1" class="st6" width="94.5" height="150.1"/>
					</g>
					<g>
						<rect x="507.4" y="496" class="st4" width="102.6" height="158.2"/>
						<rect x="515.5" y="496" class="st5" width="102.6" height="158.2"/>
						<rect x="523.6" y="504.1" class="st6" width="94.5" height="150.1"/>
					</g>
					<g>
						<rect x="664.1" y="496" class="st4" width="102.6" height="158.2"/>
						<rect x="672.2" y="496" class="st5" width="102.6" height="158.2"/>
						<rect x="680.3" y="504.1" class="st6" width="94.5" height="150.1"/>
					</g>
					<g>
						<rect x="820.8" y="496" class="st4" width="102.6" height="158.2"/>
						<rect x="828.9" y="496" class="st5" width="102.6" height="158.2"/>
						<rect x="837" y="504.1" class="st6" width="94.5" height="150.1"/>
					</g>
				</g>
				<g>
					<g>
						<rect x="193.9" y="690.6" class="st4" width="102.6" height="158.2"/>
						<rect x="202" y="690.6" class="st5" width="102.6" height="158.2"/>
						<rect x="210.1" y="698.7" class="st6" width="94.5" height="150.1"/>
					</g>
					<g>
						<rect x="350.6" y="690.6" class="st4" width="102.6" height="158.2"/>
						<rect x="358.7" y="690.6" class="st5" width="102.6" height="158.2"/>
						<rect x="366.8" y="698.7" class="st6" width="94.5" height="150.1"/>
					</g>
					<g>
						<rect x="507.4" y="690.6" class="st4" width="102.6" height="158.2"/>
						<rect x="515.5" y="690.6" class="st5" width="102.6" height="158.2"/>
						<rect x="523.6" y="698.7" class="st6" width="94.5" height="150.1"/>
					</g>
					<g>
						<rect x="664.1" y="690.6" class="st4" width="102.6" height="158.2"/>
						<rect x="672.2" y="690.6" class="st5" width="102.6" height="158.2"/>
						<rect x="680.3" y="698.7" class="st6" width="94.5" height="150.1"/>
					</g>
					<g>
						<rect x="820.8" y="690.6" class="st4" width="102.6" height="158.2"/>
						<rect x="828.9" y="690.6" class="st5" width="102.6" height="158.2"/>
						<rect x="837" y="698.7" class="st6" width="94.5" height="150.1"/>
					</g>
				</g>
				<g>
					<g>
						<rect x="193.9" y="885.1" class="st7" width="102.6" height="158.2"/>
						<rect x="202" y="885.1" class="st5" width="102.6" height="158.2"/>
						<rect x="210.1" y="893.2" class="st6" width="94.5" height="150.1"/>
					</g>
					<g>
						<rect x="350.6" y="885.1" class="st4" width="102.6" height="158.2"/>
						<rect x="358.7" y="885.1" class="st5" width="102.6" height="158.2"/>
						<rect x="366.8" y="893.2" class="st6" width="94.5" height="150.1"/>
					</g>
					<g>
						<rect x="507.4" y="885.1" class="st4" width="102.6" height="158.2"/>
						<rect x="515.5" y="885.1" class="st5" width="102.6" height="158.2"/>
						<rect x="523.6" y="893.2" class="st6" width="94.5" height="150.1"/>
					</g>
					<g>
						<rect x="664.1" y="885.1" class="st4" width="102.6" height="158.2"/>
						<rect x="672.2" y="885.1" class="st5" width="102.6" height="158.2"/>
						<rect x="680.3" y="893.2" class="st6" width="94.5" height="150.1"/>
					</g>
					<g>
						<rect x="820.8" y="885.1" class="st4" width="102.6" height="158.2"/>
						<rect x="828.9" y="885.1" class="st5" width="102.6" height="158.2"/>
						<rect x="837" y="893.2" class="st6" width="94.5" height="150.1"/>
					</g>
				</g>
				<g>
					<g>
						<rect x="193.9" y="1079.7" class="st7" width="102.6" height="158.2"/>
						<rect x="202" y="1079.7" class="st5" width="102.6" height="158.2"/>
						<rect x="210.1" y="1087.8" class="st6" width="94.5" height="150.1"/>
					</g>
					<g>
						<rect x="820.8" y="1079.7" class="st4" width="102.6" height="158.2"/>
						<rect x="828.9" y="1079.7" class="st5" width="102.6" height="158.2"/>
						<rect x="837" y="1087.8" class="st6" width="94.5" height="150.1"/>
					</g>
				</g>
			</g>
			<g>
				<path class="st6" d="M413.8,284.8c-5.8-14.9-17.6-21.4-39.5-21.4c-31.1,0-42.6,12.8-42.6,32.9c0,20,11.5,32.9,42.6,32.9
					c21.8,0,36.8-6.4,40.9-22.4h19c-6.2,24.2-27,34.9-64.2,34.9c-43,0-70.2-14.3-70.2-45.4c0-31.1,28.2-45.4,68.9-45.4
					c20,0,34.1,3.6,43.2,10.6l4.3-7.2H433v30.5H413.8z"/>
				<path class="st6" d="M496.6,318.7c0,6,2.4,7.2,7.2,7.2h15.4v12.5h-73.9v-12.5h15.4c4.8,0,7.2-1.2,7.2-7.2V274
					c0-6-2.4-7.2-7.2-7.2h-15.4v-12.5h73.9v12.5h-15.4c-4.8,0-7.2,1.2-7.2,7.2V318.7z"/>
				<path class="st6" d="M655.9,288.7c-1.2-15.8-2.9-21.8-15.8-21.8h-25.3v51.8c0,6,2.4,7.2,7.2,7.2h15.4v12.5h-73.9v-12.5h15.4
					c4.8,0,7.2-1.2,7.2-7.2v-51.8h-25.3c-13,0-14.6,6-15.8,21.8h-15.6v-34.3h142.3v34.3H655.9z"/>
				<path class="st6" d="M767.5,318.7c0,6,2.4,7.2,7.2,7.2H790v12.5h-73.9v-12.5h15.4c4.8,0,7.2-1.2,7.2-7.2v-9.4l-40.2-36.4
					c-5.5-5-11-6.1-18.8-6.1h-2.9v-12.5h69.8v12.5h-11c-4.4,0-5.5,3.1-2.4,5.9l25.8,22.9l25.3-22.9c3.1-2.8,2-5.9-2.4-5.9h-11v-12.5
					h54.7v12.5h-2.9c-7.8,0-12.1,1-17.6,6.1l-37.6,34.9V318.7z"/>
			</g>
		</g>
	</g>
</g>
</svg>
