<?xml version="1.0" encoding="utf-8"?>
<!-- Generator: Adobe Illustrator 22.0.1, SVG Export Plug-In . SVG Version: 6.00 Build 0)  -->
<svg version="1.1" id="Layer_1" xmlns="http://www.w3.org/2000/svg" xmlns:xlink="http://www.w3.org/1999/xlink" x="0px" y="0px"
	 viewBox="0 0 2267.7 1877.7" style="enable-background:new 0 0 2267.7 1877.7;" xml:space="preserve">
<style type="text/css">
	.st0{fill:#FFB287;}
	.st1{fill:#FFA87D;}
	.st2{fill:#FFC69B;}
	.st3{fill:#FFDCBC;}
	.st4{fill:#F58D6C;}
	.st5{fill:#FDDAB5;}
	.st6{fill:#FDDFC0;}
	.st7{fill:#9ECAD9;}
	.st8{fill:none;stroke:#384261;stroke-width:15.6816;stroke-miterlimit:10;}
	.st9{fill:#7E8E9E;}
	.st10{fill:#384261;}
	.st11{font-family:'Colt-Bold';}
	.st12{font-size:85.536px;}
	.st13{fill:#EF6667;}
	.st14{fill:#DCE1E4;}
	.st15{fill:#242E4D;}
	.st16{fill:#1C283E;}
	.st17{fill:#628E9D;}
	.st18{fill:#FFFFFF;}
	.st19{fill:#DB5253;}
	.st20{fill:#6C98A7;}
	.st21{fill:#8AB6C5;}
	.st22{fill:#8E6134;}
	.st23{fill:#B47943;}
	.st24{fill:none;stroke:#1C283E;stroke-width:11.88;stroke-linecap:round;stroke-miterlimit:10;}
	.st25{fill:#B3BDC8;}
	.st26{fill:none;stroke:#0E6057;stroke-width:11.88;stroke-linecap:round;stroke-miterlimit:10;}
	.st27{fill:#D2D7DA;}
	.st28{fill:#D6BB67;}
	.st29{fill:#EACF7B;}
	.st30{fill:#4E7A89;}
</style>
<g>
	<path class="st0" d="M1239.3,281.1l15.9-49.4l73.6-140.8c3.9-6.6,9.4-11.7,15.7-15c2.9-1.6,6.1-2.9,9.4-3.8l205.8-53.5
		c12.9,49.3-7.2,84.9-54,97.1l-17.8,4.6l0,0l-98.1,25.5l-115.5,196.7L1239.3,281.1L1239.3,281.1z"/>
	<path class="st1" d="M1487.8,120.3L1487.8,120.3l17.8-4.6c25.4-6.6,43-20.2,51.6-39.1l-121.8-0.9c-3.5,0-6.9,0.4-10.1,1.2
		c-7,1.6-13.6,5.1-19,10.5l-116.1,118.8l-19.5,41.8l17.8,68.3l2.5-2.5l98.7-168L1487.8,120.3z"/>
	<path class="st2" d="M1490.1,36.7l60-15.6c-1.2,18.5-12.8,31.6-33.4,37l-19.7,5.1L1490.1,36.7L1490.1,36.7z"/>
	<path class="st3" d="M1490.1,36.7l60-15.6c0,0.2,0,0.4,0,0.5c-6.5,11.1-18,19.1-33.9,23.3l-22.4,5.8L1490.1,36.7L1490.1,36.7z"/>
	<path class="st4" d="M1389.7,145.8l-121.2,206.3l-25.4-14.9L1358,141.5l0,0l21.4-9.9l142.7-45.8c29.9-10.1,38.9-39.4,37.5-67
		c12.7,49.2-7.4,84.6-54.1,96.8l-17.8,4.6l0,0L1389.7,145.8L1389.7,145.8z"/>
	<path class="st0" d="M1271.7,257l-3.5-43.9l139.2-116.7c5.4-5.4,12.1-8.8,19-10.5c3.2-0.8,6.6-1.2,10.1-1.2l212.6,1.6
		c-0.3,51-29,80.2-77.3,79.8l-18.4-0.1l0,0l-101.3-0.8l-162.5,160.1L1271.7,257L1271.7,257z"/>
	<path class="st2" d="M1577.2,85.8l62,0.5c-5.9,17.6-20.6,27.2-41.8,27.1l-20.4-0.2L1577.2,85.8L1577.2,85.8z"/>
	<path class="st3" d="M1577.2,85.8l62,0.5c-0.1,0.2-0.1,0.3-0.2,0.5c-9.1,9-22.3,13.8-38.8,13.7l-23.1-0.2L1577.2,85.8L1577.2,85.8z
		"/>
	<path class="st4" d="M1452,165.2l-170.5,167.9l4.5-118l149.2-74.6l160.2,1.2c31.5-2,47.8-28,53.6-55c-0.5,50.8-29.1,79.8-77.3,79.4
		l-18.4-0.1l0,0L1452,165.2L1452,165.2z"/>
	<path class="st0" d="M823.9,423.3l353.4-55.4l81.1-142.3c5-9.9,14.1-17.7,25.7-20.8l222.3-55.4c7.4-1.9,14.9-1.6,21.7,0.5
		c3.2,0.9,6.3,2.2,9.3,4l183.3,107.7c-25.8,44-65.2,54.9-106.9,30.4l-15.8-9.3l0,0l-87.4-51.3L1408.2,258l-25.8,194.4
		c-4.6,34.9-66.3,82.7-109.1,98l-390,101.4L823.9,423.3L823.9,423.3z"/>
	<path class="st5" d="M1666.4,230.2l53.4,31.4c-13.9,12.3-31.4,13.3-49.7,2.6l-17.6-10.3L1666.4,230.2L1666.4,230.2z"/>
	<path class="st6" d="M1666.4,230.2l53.4,31.4c-0.1,0.1-0.3,0.2-0.4,0.3c-12.4,3.3-26.2,0.8-40.4-7.6l-19.9-11.7L1666.4,230.2
		L1666.4,230.2z"/>
	<path class="st4" d="M1510.6,231.4L1408.2,258L1384,439.8l-29-11.7l52.7-200.4l83.5-21.7l0,0l17.2-4.5l138.2,81.1
		c28.3,14,55.4-0.4,73.9-20.8c-25.8,43.7-65.1,54.6-106.7,30.1l-15.8-9.3l0,0L1510.6,231.4L1510.6,231.4z"/>
	
		<rect x="1472.7" y="2.5" transform="matrix(1 -6.300221e-03 6.300221e-03 1 -1.6098 11.7827)" class="st7" width="793.3" height="517.8"/>
	<g>
		<line class="st8" x1="1545.3" y1="188.2" x2="2168" y2="184.3"/>
		<line class="st8" x1="1545.5" y1="227.4" x2="2030.9" y2="224.4"/>
		<line class="st8" x1="1546.3" y1="352.3" x2="1835.5" y2="350.4"/>
		<g>
			<path class="st9" d="M1788.4,413.2c-10.6,0.1-20.9-1-30.8-4.6c-8.6,9.1-24.1,11.3-38.6,11.4c-8.5,0.1-16.7-0.6-22.8-1
				c-1.4-0.1-4-0.6-4-2.3c0-0.7,0.2-1.4,0.2-2c0-4.5-5.8-6.1-14.2-6c-19.8,0.1-54.1,9.2-60.9,9.2c-8.6,0.1-9.6-7.9-9.7-14.7
				c-12.9,3.7-36.2,9.4-49.9,9.5c-6.5,0-10.8-1.2-10.8-4.5c0-3,2.9-7.5,10.3-7.5c2.2,0,3.9,0.5,3.9,1.8c0,0.5-0.6,1.1-0.6,1.7
				c0,0.5,1.3,0.5,3.1,0.5c7.2,0,24.7-2.4,26-2.8c7.3-2,14.6-3.9,21.7-6.7c0.7-0.3,3.3-1,5.5-1c1.8,0,3.4,0.4,3.4,1.9
				c0.1,9.8,5.6,12.7,12.6,12.7c9.1-0.1,21.1-5,29.1-6.9c8.4-2,16.8-3.2,25.4-3.3c2,0,4.2,0.1,6.2,0.2c2.9,0.2,10.5,2.1,11.6,5.8
				c1.8,6.3,8.6,8.6,16.4,8.6c11.8-0.1,25.9-5.6,28.3-10.7c1.1-2.3,4.8-3.6,7.8-3.7c1.2,0,2.4,0.2,3.1,0.6c10.1,5,21.2,6.5,32.5,6.5
				c15.4-0.1,31.3-3.2,45.9-4.6c0.5,0,0.9-0.1,1.3-0.1c2.7,0,3.8,0.9,3.8,2.2c0,2-2.9,4.8-6.7,5.2
				C1821.8,410.1,1804.9,413.1,1788.4,413.2z"/>
		</g>
		<text transform="matrix(1 -6.300001e-03 6.300001e-03 1 1520.9755 129.95)" class="st10 st11 st12">PERMIT</text>
		<polygon class="st13" points="2106.3,279.1 2124,296.5 2147.4,288.2 2155.8,311.6 2180.4,314.2 2177.9,338.9 2198.9,352 
			2185.9,373.2 2199.2,394.1 2178.3,407.5 2181.2,432.1 2156.6,435.1 2148.5,458.6 2125,450.6 2107.5,468.2 2089.8,450.8 
			2066.4,459.1 2058,435.8 2033.3,433.1 2035.9,408.4 2014.9,395.3 2027.9,374.2 2014.6,353.2 2035.5,339.8 2032.6,315.2 
			2057.2,312.2 2065.3,288.7 2088.8,296.7 		"/>
	</g>
	<path class="st0" d="M1633.3,379.1L1391,451.5l-65-19.6l-8.3-7l46.8-75.4l18.7-4.9l226-58.7c25.6-6.7,52.1,8.9,58.7,34.5l0,0
		C1674.5,346,1658.9,372.4,1633.3,379.1L1633.3,379.1z"/>
	<path class="st4" d="M876,623.5l399.1-103.7c37-9.6,70.5-51.3,101.1-83.4c11.6-12.2,24.5-18.2,49.2-24.7l240.5-62.5
		c-4.5,17.4-18,32-36.6,36.8l-189.6,57.3c-60.3,16.1-82.4,90.6-164.4,106.5l-392,101.9L876,623.5L876,623.5z"/>
	<path class="st2" d="M1658.2,322.9L1658.2,322.9c-5.2-19.9-26.5-34.4-45.5-26.7l-21.1,8.4c-45.9,18.4-31.7,72.9,17.3,66.7l22.5-2.9
		C1651.8,365.8,1663.3,342.7,1658.2,322.9L1658.2,322.9z"/>
	<path class="st0" d="M1608.9,371.3l22.5-2.9c10.1-1.3,18-7.6,22.8-16.1l-66.9,17.4C1593.5,371.6,1600.7,372.3,1608.9,371.3z"/>
	<polygon class="st14" points="1234.1,636.5 1139.8,273.5 950.4,322.8 1044.8,685.7 	"/>
	<polygon class="st14" points="1234.1,636.5 1217,570.5 1027.6,619.7 1044.8,685.7 	"/>
	<polygon class="st10" points="1125.2,704.3 1011.7,267.3 265.1,464.7 323.7,766.2 438.5,882.8 	"/>
	<polygon class="st15" points="438.5,882.8 872.8,769.9 872.8,304 272.6,462.7 272.6,502.9 323.7,766.2 	"/>
	<polygon class="st16" points="1125.2,704.3 1098.4,601.4 352.4,795.3 438.5,882.8 	"/>
	<path class="st17" d="M1185.8,613c-2.8-10.8-13.9-17.3-24.6-14.5c-10.8,2.8-17.3,13.9-14.5,24.6c2.8,10.8,13.9,17.3,24.6,14.5
		C1182.1,634.9,1188.6,623.8,1185.8,613L1185.8,613z"/>
</g>
<g>
	<rect x="200.5" y="167.2" class="st10" width="600.2" height="1186.1"/>
	<g>
		<polygon class="st10" points="235.1,353.6 242.5,391.8 242.5,351.6 		"/>
		<polygon class="st10" points="408.5,771.7 293.7,655.1 242.5,391.8 242.5,1353.3 842.7,1353.3 842.7,658.8 		"/>
	</g>
	<polygon class="st16" points="800.7,167.2 800.7,160.3 800.7,199.2 200.5,199.2 200.5,167.2 	"/>
	<rect x="190.2" y="147.1" class="st10" width="620.8" height="37.7"/>
	<g>
		<g>
			<g>
				<path class="st10" d="M346.7,264.7l-1.9-30.5c-0.2-0.7-1.5-0.7-1.5,0c-0.1,6.6-11.7,1.1-15.8,0.1c-35.8-8.2-59.9,20.6-59.9,44.5
					c0,30.9,20.5,47.8,46.8,47.8c21,0,31.6-13.4,35-27.9c0.4-1.8-1.6-1.4-2.1,0c-6.3,20.2-22.1,25.3-29.9,25.2
					c-16.9-0.2-32.7-13.9-33.3-45.1c-0.7-39.7,44.1-65.7,61.2-14.6C345.6,265.3,346.4,265.6,346.7,264.7"/>
				<path class="st10" d="M369.6,323.8c7.7,1,14.5-6,14.5-12.8v-16.6C351.3,306.5,361.5,323.3,369.6,323.8 M361.3,269.6
					c9.3-3.9,34.4-2.7,34.4,8.8v35.2c0,9.6,9.5,12.9,12.2,6.5c0.9-0.9,2.3-0.2,1.6,1.2c-1.7,6.8-18.5,7.9-24.4-1.2
					c-32.3,23.5-52.9-22.8-14.3-23.5c12.1-1.8,13.4-8.8,13.4-13.6c0-12.1-6.3-13.2-10.1-13.2c-4,0-7.3,1.2-9.5,7.4
					C361.2,289.6,342.5,278.5,361.3,269.6z"/>
			</g>
			<path class="st10" d="M426.5,268.4l-15.7,2.1c-1,0.2-1,0.7,0.9,1.2c3.4,0.1,5.6,2.4,5.6,7.4v36.7c0,4.4-6.2,8.2-7.4,8.8
				c-2.9,1.2,1.5,1,1.5,1H437c0.9,0,3.5,0.2,0.1-1.3c-3.9-1.5-8.2-4.6-8.2-8.4s0-27.5,0-27.5c0-11.6,7.6-17.9,15-17.9
				c7.8,0,14.3,1.7,14.3,17.8V316c0,4-5.2,7.7-8,8.7c-1.8,0.5-2.6,1.1-1,1.1h27.4c1.5,0.1,2.1-0.4,0.7-0.7c-6.6-2.6-7.4-7.4-7.4-9
				v-32.2c0-18.4-17.7-16-23.9-16c-7.8,0.1-16.1,5-16.9,7.2C428.8,268.9,428.1,268.3,426.5,268.4"/>
			<g>
				<path class="st10" d="M564.2,323.8c9.7,0,16.2-3.8,16.2-26.4c0-21.6-6.5-26.8-16.2-26.8s-17.6,12.6-17.6,27
					C546.6,312.1,554.5,323.8,564.2,323.8 M580,321c-2.7,4.6-9.3,5.7-17.4,5.7c-15.5,0-28.1-11.9-28.1-28.3c0-14.5,8.2-30.8,29-30.8
					c18.8,0,18.6,12.5,18.6,2.1v-18.4c0-9.5-3.8-12.3-6.7-13.2c-4.3-1.5-9.8-1.7-1-1.7l16.3-0.4c-1,0.2,1.1,0.2,1.1,1.7v71.9
					c0,5,1.8,12.7,9.9,14.9c0.7,0.1,1.6,0.6,0.7,0.9l-17.8,1.9c-2.6,0.2-3.7-1-4.7-6"/>
				<path class="st10" d="M498.3,323.8c7.7,1,14.5-6,14.5-12.8v-16.6C480,306.5,490.2,323.3,498.3,323.8 M490,269.5
					c9.3-3.9,34.4-2.7,34.4,8.8v35.2c0,9.6,9.5,12.9,12.2,6.5c0.9-0.9,2.3-0.2,1.6,1.2c-1.7,6.8-18.5,7.9-24.4-1.2
					c-32.3,23.5-52.9-22.8-14.3-23.5c12.1-1.8,13.4-8.8,13.4-13.6c0-12.1-6.3-13.2-10.1-13.2c-4,0-7.3,1.2-9.5,7.4
					C489.9,289.5,471.2,278.4,490,269.5z"/>
				<path class="st10" d="M622.1,323.9c7.7,1,14.5-6,14.5-12.8v-16.6C603.8,306.6,614,323.4,622.1,323.9 M613.8,269.7
					c9.3-3.9,34.4-2.7,34.4,8.8v35.2c0,9.6,9.5,12.9,12.2,6.5c0.9-0.9,2.3-0.2,1.6,1.2c-1.7,6.8-18.5,7.9-24.4-1.2
					c-32.3,23.5-52.9-22.8-14.3-23.5c12.1-1.8,13.4-8.8,13.4-13.7c0-12.1-6.3-13.2-10.1-13.2c-4,0-7.3,1.2-9.5,7.4
					C613.7,289.6,595,278.6,613.8,269.7z"/>
			</g>
			<rect x="599.5" y="236.1" class="st10" width="13.4" height="27.3"/>
			<rect x="642.7" y="236.1" class="st10" width="13.4" height="27.3"/>
			<path class="st10" d="M625.9,241.8l1.9-3.9l1.9,3.8c0.2,0.4,0.4,0.4,0.8,0.2l1.6-0.8l-1.1,5.2c-0.2,1,0.4,1.3,1,0.6l2.3-2.5
				l0.6,1.4c0.2,0.4,0.5,0.4,0.9,0.3l2.4-0.5l-0.8,3v0.1c-0.1,0.4-0.3,0.7,0.2,0.9l0.9,0.4l-5,4.2c-0.5,0.5-0.3,0.7-0.1,1.3l0.5,1.4
				l-4.6-0.8c-0.6-0.1-1-0.1-1,0.3l0.2,5.3h-1.4l0.2-5.3c0-0.5-0.4-0.5-1.3-0.3l-4.3,0.8l0.6-1.4c0.2-0.5,0.2-0.9-0.2-1.3l-5.1-4.1
				l0.9-0.6c0.3-0.2,0.3-0.4,0.1-0.9l-1-3.1l2.4,0.5c0.7,0.2,0.9,0,1-0.4l0.7-1.4l2.4,2.7c0.4,0.5,1,0.2,0.8-0.6l-1.2-5.7l1.8,1
				C625.5,242,625.8,242,625.9,241.8"/>
		</g>
		<g>
			<g>
				<path class="st18" d="M341.3,259.3l-1.9-30.5c-0.2-0.7-1.5-0.7-1.5,0c-0.1,6.6-11.7,1.1-15.8,0.1c-35.8-8.2-59.9,20.6-59.9,44.5
					c0,30.9,20.5,47.8,46.8,47.8c21,0,31.6-13.4,35-27.9c0.4-1.8-1.6-1.4-2.1,0c-6.3,20.2-22.1,25.3-29.9,25.2
					c-16.9-0.2-32.7-13.9-33.3-45.1c-0.7-39.7,44.1-65.7,61.2-14.6C340.2,259.9,341,260.2,341.3,259.3"/>
				<path class="st18" d="M364.2,318.4c7.7,1,14.5-6,14.5-12.8V289C345.9,301.1,356.1,317.9,364.2,318.4 M355.9,264.2
					c9.3-3.9,34.4-2.7,34.4,8.8v35.2c0,9.6,9.5,12.9,12.2,6.5c0.9-0.9,2.3-0.2,1.6,1.2c-1.7,6.8-18.5,7.9-24.4-1.2
					c-32.3,23.5-52.9-22.8-14.3-23.5c12.1-1.8,13.4-8.8,13.4-13.6c0-12.1-6.3-13.2-10.1-13.2c-4,0-7.3,1.2-9.5,7.4
					C355.8,284.2,337.1,273.1,355.9,264.2z"/>
			</g>
			<path class="st18" d="M421.1,263l-15.7,2.1c-1,0.2-1,0.7,0.9,1.2c3.4,0.1,5.6,2.4,5.6,7.4v36.7c0,4.4-6.2,8.2-7.4,8.8
				c-2.9,1.2,1.5,1,1.5,1h25.7c0.9,0,3.5,0.2,0.1-1.3c-3.9-1.5-8.2-4.6-8.2-8.4s0-27.5,0-27.5c0-11.6,7.6-17.9,15-17.9
				c7.8,0,14.3,1.7,14.3,17.8v27.7c0,4-5.2,7.7-8,8.7c-1.8,0.5-2.6,1.1-1,1.1h27.4c1.5,0.1,2.1-0.4,0.7-0.7c-6.6-2.6-7.4-7.4-7.4-9
				v-32.2c0-18.4-17.7-16-23.9-16c-7.8,0.1-16.1,5-16.9,7.2C423.4,263.5,422.7,262.9,421.1,263"/>
			<g>
				<path class="st18" d="M558.8,318.4c9.7,0,16.2-3.8,16.2-26.4c0-21.6-6.5-26.8-16.2-26.8s-17.6,12.6-17.6,27
					C541.2,306.7,549.1,318.4,558.8,318.4 M574.6,315.6c-2.7,4.6-9.3,5.7-17.4,5.7c-15.5,0-28.1-11.9-28.1-28.3
					c0-14.5,8.2-30.8,29-30.8c18.8,0,18.6,12.5,18.6,2.1v-18.4c0-9.5-3.8-12.3-6.7-13.2c-4.3-1.5-9.8-1.7-1-1.7l16.3-0.4
					c-1,0.2,1.1,0.2,1.1,1.7v71.9c0,5,1.8,12.7,9.9,14.9c0.7,0.1,1.6,0.6,0.7,0.9l-17.8,1.9c-2.6,0.2-3.7-1-4.7-6"/>
				<path class="st18" d="M492.9,318.4c7.7,1,14.5-6,14.5-12.8V289C474.6,301.1,484.8,317.9,492.9,318.4 M484.6,264.1
					c9.3-3.9,34.4-2.7,34.4,8.8v35.2c0,9.6,9.5,12.9,12.2,6.5c0.9-0.9,2.3-0.2,1.6,1.2c-1.7,6.8-18.5,7.9-24.4-1.2
					c-32.3,23.5-52.9-22.8-14.3-23.5c12.1-1.8,13.4-8.8,13.4-13.6c0-12.1-6.3-13.2-10.1-13.2c-4,0-7.3,1.2-9.5,7.4
					C484.5,284.1,465.8,273,484.6,264.1z"/>
				<path class="st18" d="M616.7,318.5c7.7,1,14.5-6,14.5-12.8v-16.6C598.4,301.2,608.6,318,616.7,318.5 M608.4,264.3
					c9.3-3.9,34.4-2.7,34.4,8.8v35.2c0,9.6,9.5,12.9,12.2,6.5c0.9-0.9,2.3-0.2,1.6,1.2c-1.7,6.8-18.5,7.9-24.4-1.2
					c-32.3,23.5-52.9-22.8-14.3-23.5c12.1-1.8,13.4-8.8,13.4-13.7c0-12.1-6.3-13.2-10.1-13.2c-4,0-7.3,1.2-9.5,7.4
					C608.2,284.2,589.6,273.2,608.4,264.3z"/>
			</g>
			<rect x="594.1" y="230.7" class="st19" width="13.4" height="27.3"/>
			<rect x="637.2" y="230.7" class="st19" width="13.4" height="27.3"/>
			<path class="st19" d="M620.5,236.4l1.9-3.9l1.9,3.8c0.2,0.4,0.4,0.4,0.8,0.2l1.6-0.8l-1.1,5.2c-0.2,1,0.4,1.3,1,0.6l2.3-2.5
				l0.6,1.4c0.2,0.4,0.5,0.4,0.9,0.3l2.4-0.5l-0.8,3v0.1c-0.1,0.4-0.3,0.7,0.2,0.9l0.9,0.4l-5,4.2c-0.5,0.5-0.3,0.7-0.1,1.3l0.5,1.4
				l-4.6-0.8c-0.6-0.1-1-0.1-1,0.3l0.2,5.3h-1.4l0.2-5.3c0-0.5-0.4-0.5-1.3-0.3l-4.3,0.8l0.6-1.4c0.2-0.5,0.2-0.9-0.2-1.3l-5.1-4.1
				l0.9-0.6c0.3-0.2,0.3-0.4,0.1-0.9l-1-3.1l2.4,0.5c0.7,0.2,0.9,0,1-0.4l0.7-1.4l2.4,2.7c0.4,0.5,1,0.2,0.8-0.6l-1.2-5.7l1.8,1
				C620.1,236.6,620.4,236.6,620.5,236.4"/>
		</g>
	</g>
	<g>
		<rect x="477.9" y="364" class="st16" width="45.4" height="922.6"/>
		<rect x="484.5" y="364" class="st20" width="38.8" height="922.6"/>
		<rect x="492.2" y="377.3" class="st21" width="31.1" height="909.3"/>
		<rect x="552.1" y="364" class="st16" width="45.4" height="922.6"/>
		<rect x="558.7" y="364" class="st20" width="38.8" height="922.6"/>
		<rect x="566.4" y="377.3" class="st21" width="31.1" height="909.3"/>
		<rect x="626.3" y="364" class="st16" width="45.4" height="922.6"/>
		<rect x="632.9" y="364" class="st20" width="38.8" height="922.6"/>
		<rect x="640.6" y="377.3" class="st21" width="31.1" height="909.3"/>
		<rect x="700.5" y="364" class="st16" width="45.4" height="922.6"/>
		<rect x="707.1" y="364" class="st20" width="38.8" height="922.6"/>
		<rect x="714.7" y="377.3" class="st21" width="31.1" height="909.3"/>
		<rect x="403.7" y="364" class="st16" width="45.4" height="922.6"/>
		<rect x="410.3" y="364" class="st20" width="38.8" height="922.6"/>
		<rect x="418" y="377.3" class="st21" width="31.1" height="909.3"/>
		<rect x="329.5" y="364" class="st16" width="45.4" height="922.6"/>
		<rect x="336.1" y="364" class="st20" width="38.8" height="922.6"/>
		<rect x="343.8" y="377.3" class="st21" width="31.1" height="909.3"/>
		<rect x="255.3" y="364" class="st16" width="45.4" height="922.6"/>
		<rect x="261.9" y="364" class="st20" width="38.8" height="922.6"/>
		<rect x="269.6" y="377.3" class="st21" width="31.1" height="909.3"/>
	</g>
</g>
<g>
	<rect x="618.2" y="594.7" class="st22" width="623.1" height="140.7"/>
	<g>
		<g>
			<path class="st22" d="M712.9,656.2c-0.3,0.1-0.2,1,0.1,1c7.4,3.1,13,8.5,13,17.8c0,7.1-4,12.2-9.2,15.7c-5.2,3.7-15,4.8-19.3,4.8
				c-3,0-14.9-0.2-19.8-0.3c-3.9-0.1-6.5,0.1-8.2,0.1c-1.9,0-3.5-0.8-3.5-1.7c0-1,1.8-1.6,3-1.8c6.6-1.3,7-2.9,7.4-6.6
				c0.2-2.3,0.9-13.1,0.9-34.4c0-9.2-0.3-14.7-0.6-16.2c-0.5-2.4-1.2-3.2-6.8-4.3c-1.4-0.2-2.8-0.9-2.8-2.1c0-0.9,1.6-1.4,3-1.4h7.1
				c3.5,0,16.6-0.8,21.1-0.8c6.3,0,12.3,1.2,15.5,3.2c5.3,3.2,7.6,8,7.6,13.3C721.5,650.6,715.9,654.1,712.9,656.2z M695,629.7
				c-0.6,0-2.6,0.3-3.8,0.6c-0.2,0.1-0.9,1.1-1,1.7c-0.2,1.7-0.4,4.9-0.4,23c0,0.5,0.5,1.4,1.2,1.4c3.9,0,10-0.6,12.6-2.6
				c3.3-2.4,5.2-6,5.2-10.3C708.8,634.7,702.8,629.7,695,629.7z M703.8,661.9c-2.5-1.4-5.6-2.1-9.3-2.1c-1.5,0-3.3,0.4-3.7,0.8
				c-0.3,0.3-0.9,0.9-0.9,5.1c-0.1,2.8,0.2,15.8,0.4,19c0.1,0.9,0.6,2.6,1.4,3.5c1.8,1.9,4.9,3.7,6.8,3.7c6.9,0,13.2-6.9,13.2-15.9
				C711.8,669.6,708.5,664.5,703.8,661.9z"/>
			<path class="st22" d="M793.9,626.5c2.6,0.6,5.3,1.3,7.8,1.6c0.8,0,1.6,1.3,1.6,2.9c0.1,3,0.3,6.8,0.5,9.9
				c0.1,2.3-0.6,4.1-1.8,4.1c-0.5,0-1.5-1.3-2.1-2.9c-1.1-3.3-2.7-6.3-4.5-7.7c-4.6-3.9-10.1-6.3-16-6.3c-17.2,0-25.3,13.6-25.3,30
				c0,7.2,1.3,13.5,3.7,18.2c5.9,11.9,15.8,16.1,24.2,16.1c1.4,0,6.7-0.2,10.5-2.5c4-2.3,6.9-5.4,9.4-9.8c1.3-2.4,2.1-3.3,2.9-3.3
				c1.2,0,1.2,2.8,0.9,4c-0.5,2.7-2.3,7.5-3.2,9.4c-0.3,1-2.3,2.7-3.9,3.5c-1.5,0.5-9,3.1-18.9,3.1c-16,0-27.3-7.1-31.7-12.2
				c-4.1-4.7-9.1-12.3-9.1-24.3c0-13.1,7.3-22.2,11.9-25.9c9.2-7.6,20.3-9.7,29.2-9.7C784.9,624.8,790.1,625.5,793.9,626.5z"/>
			<path class="st22" d="M839.5,626.2c6.7,0,9,0.4,17.5,0.4c0.2,0,1.1,1,1.2,1.5c1,3.1,1.9,5.2,4.1,9.7
				c5.4,11.1,15.5,32.4,17.6,35.1c0.2,0.2,0.9,0.4,1,0.3c2.5-4.5,14.6-28.3,18-36.7c0.5-1.3,2.6-6,3.1-8.3c0.1-0.4,1.1-1.6,1.3-1.6
				c7.6,0,16.2-0.4,17.2-0.4c1.3,0,2.9,0.3,2.9,1.3c0,1.1-1.2,1.6-3.1,2.1c-1.7,0.4-3.1,1-4.9,1.8c-1.8,0.9-2.6,3.1-2.6,8.6
				c0,18.1,0.6,39.4,1.3,44.8c0.5,3.6,1.5,5.4,6.9,6.8c1.8,0.4,2.9,1.5,2.9,2.3c0,1.2-1.6,1.6-3.2,1.6c-1.2,0-11.3-0.5-15.2-0.5
				c-1.9,0-7.8,0.3-10.3,0.3c-1.7,0-3.1-0.4-3.1-1.5c0-1,1.5-1.9,3-2.3c4.4-1.1,4.8-4.4,5.1-8.7c0.4-5.3,0.6-33.1,0.5-38.5
				c0-1.1-0.6-1.6-1.1-0.8c-3.6,7-12.6,26.2-15.8,33.4c-2.8,6.3-5.1,12-6.5,15.4c-1.3,3.1-2.5,3.3-3,3.3s-1.5-1.2-2.1-2.4
				c-0.5-1.7-1.9-5.9-4-11c-5.6-13.8-15-34-17.1-38c-0.3-0.6-0.6-0.4-0.6,0.3c-0.9,7.2-1.8,26-1.7,37.7c0.1,6.2,1.1,7.6,6.6,9.3
				c2.3,0.8,3.1,1.4,3.1,2.4c0,0.9-1.3,1.5-3.1,1.5c-3.2,0-7.3-0.4-9.9-0.4c-2.6,0-7.1,0.4-9.6,0.4c-1.6,0-3.3-0.2-3.3-1.5
				c0-0.8,1.1-1.4,2.9-2.1c5.9-2.1,7.1-3.5,8.1-11c1-8.2,3.5-33.9,3.6-43.5c0-1.4-0.2-5.5-4.1-6.5c-1.7-0.5-3.1-1-4.4-1.3
				c-0.8-0.2-2.3-1-2.3-1.9C836.4,626.6,837.2,626.2,839.5,626.2z"/>
			<path class="st22" d="M933.8,654.7c4.4-0.9,11.2-3.5,13-3.9c0.5,0,1.1,0.9,1.1,1.2c-0.2,3.7-0.5,18.1-0.5,24.4
				c0,3.3,0.1,7.1,0.2,10.9c0.1,3.2,1.4,3.7,4.2,4.5c1.6,0.5,2.4,1.2,2.4,2.1c0,0.9-1.5,1.4-3,1.4c-0.8,0-6.6-0.3-9-0.3
				c-3.5,0-8.6,0.4-10.5,0.4c-1.7,0-3-0.6-3-1.4c0-0.8,0.8-1.3,2.8-1.9c2.6-0.8,3.8-2.1,4-3.1c0.4-1.5,0.6-9.2,0.6-16.8
				c0-2.3,0-8.4-0.2-9.7c-0.1-0.9-1.4-1.9-3.7-3.9c-0.6-0.6-1.3-1.2-1.3-1.7C930.9,655.9,932.1,655,933.8,654.7z M948.1,635.1
				c0,3.6-3.8,6.6-6.5,6.6c-1,0-3.1-0.6-4.3-1.8c-1.1-1.1-2.1-2.6-2.1-4.8c0-1.3,0.5-3.5,1.7-4.8c1.3-1.2,3.3-1.9,5.4-1.9
				C946.1,628.4,948.1,632.6,948.1,635.1z"/>
			<path class="st22" d="M962,654.8c2.2-0.6,7-2.4,8.7-3.2c1.7-0.9,3.1-1.6,3.7-1.6c0.4,0,1.2,1.2,1.2,1.6c0,1.2-0.1,3.8-0.1,4.8
				c0,0.6,0.8,0.5,0.8,0.5c4.3-3.2,8.9-5.8,13.7-5.8c5.3,0,8.4,2.6,9.9,4.3c2.5,2.8,3.9,7.6,3.9,13.1c0,2.3,0.2,18.1,0.3,19.7
				c0.2,1.6,1,2.9,3.8,3.7c2.1,0.5,2.8,1.1,2.8,1.9c0,0.9-1.3,1.5-3.1,1.5c-2.6,0-6.8-0.2-9.8-0.2c-2.7,0-7,0.3-8.5,0.3
				s-2.9-0.3-2.9-1.5c0-0.8,1.2-1.4,2.6-1.8c2.5-1,3-1.9,3.2-5.5s0.2-17,0.2-20.1c0-2.2-0.9-5.1-2.4-6.5c-1.2-1.1-3.9-2.3-6.2-2.3
				c-3.8,0-5.6,1.1-7.1,2.2c-0.4,0.3-1,1.7-1.1,2.4c-0.1,1.8,0.1,25.1,0.2,26.3c0.1,1.5,0.4,2.3,3.8,3.3c1,0.4,1.8,1.2,1.8,1.8
				c0,0.8-1.2,1.5-3,1.5c-2.1,0-6-0.2-8.3-0.2c-4,0-8.2,0.3-10,0.3s-2.9-0.6-2.9-1.6c0-0.9,1.1-1.4,2.3-1.7c3.6-1.2,4.1-2.1,4.4-6
				c0.3-3.2,0.5-11.9,0.5-22.8c0-1.2-0.8-2.3-3.1-4.4c-0.9-0.9-1.2-1.2-1.2-1.5C960.1,656.5,961.2,655.1,962,654.8z"/>
			<path class="st22" d="M1019.9,654.7c4.4-0.9,11.2-3.5,13-3.9c0.5,0,1.1,0.9,1.1,1.2c-0.2,3.7-0.5,18.1-0.5,24.4
				c0,3.3,0.1,7.1,0.2,10.9c0.1,3.2,1.4,3.7,4.2,4.5c1.6,0.5,2.4,1.2,2.4,2.1c0,0.9-1.5,1.4-3,1.4c-0.8,0-6.6-0.3-9-0.3
				c-3.5,0-8.6,0.4-10.5,0.4c-1.7,0-3-0.6-3-1.4c0-0.8,0.8-1.3,2.8-1.9c2.6-0.8,3.8-2.1,4-3.1c0.4-1.5,0.6-9.2,0.6-16.8
				c0-2.3,0-8.4-0.2-9.7c-0.1-0.9-1.4-1.9-3.7-3.9c-0.6-0.6-1.3-1.2-1.3-1.7C1017,655.9,1018.2,655,1019.9,654.7z M1034.1,635.1
				c0,3.6-3.8,6.6-6.5,6.6c-1,0-3.1-0.6-4.3-1.8c-1.1-1.1-2.1-2.6-2.1-4.8c0-1.3,0.5-3.5,1.7-4.8c1.3-1.2,3.3-1.9,5.4-1.9
				C1032.2,628.4,1034.1,632.6,1034.1,635.1z"/>
			<path class="st22" d="M1068.5,651.6c1.4,0.2,3.7,1.1,3.9,1.2c0.4,0.3,0.9,1,1,1.8c0.2,1.5,0.4,6.2,0.4,6.9c0,1-0.9,2.3-1.6,2.3
				c-0.8,0-1.7-1.4-2.4-2.6c-2.4-4.5-5.1-7-9-7c-2.7,0-5.4,2.7-5.4,5.5c0,3.9,4.1,6.3,9.5,9.3c9.3,5,10.6,8.7,10.6,13.6
				c0,5.1-3.2,8.6-6.8,10.9c-2.3,1.5-7.8,2.7-10.9,2.7c-3.3,0-8.9-0.8-10.9-2.5c-0.4-0.5-2.1-5.1-2.1-8.9c0-1.6,0.6-2.5,1.1-2.5
				c1.1,0,1.8,1.2,2.6,2.5c3.6,6,7.8,8.1,10.5,8.1c1.3,0,3.2-0.6,4.3-1.4c1.5-1.2,2.2-3.1,2.2-4.9c0-1.8-0.9-3.8-4.3-5.9
				c-2.9-1.8-4.2-2.7-7.4-4.6c-4-2.5-7.6-6.6-7.6-12.1c0-4,2.3-8.3,6.8-10.8c2.4-1.3,5.4-2.3,9.4-2.3
				C1064.8,651,1067.1,651.3,1068.5,651.6z"/>
			<path class="st22" d="M1110.6,652.2c0.4,0,1.6,0.4,1.6,1.2c0-0.3,0.3,3.1,0.3,4.4c0,1.1-2.1,1.3-2.8,1.3c-0.4,0-9.4,0-10.3,0
				c-0.6,0-1.1,0.5-1.1,0.8c0,5.4-0.1,15.4-0.1,21.8c0,2.7,0.5,4,1.7,5.1s3.6,1.8,5.3,1.8c1.1,0,3.3-0.8,4.8-1.5
				c0.9-0.5,1.4-0.8,1.8-0.8c0.3,0,0.8,0.5,0.8,1.7c0,1-1.1,2.4-1.7,3.1c-2.9,3-7.2,5.1-12.3,5.1c-4.3,0-8.3-2.2-10-4.6
				c-1.4-1.8-1.9-3.5-1.9-7.7c0-4,0.4-19.7,0.4-23.4c0-0.8-1.8-1.5-4.1-2.4c-0.9-0.3-1.3-1.2-1.3-1.8c0-0.4,0.1-0.6,0.5-1
				c5.4-3.6,9-6.2,11.3-8.6c1.3-1.5,2.1-2.4,2.5-2.4c0.8,0,2.2,1.1,2.2,1.8c0,0.4,0,2.3,0,5.4c0,0.3,0.5,1,1,1
				C1101.5,652.5,1110.2,652.2,1110.6,652.2z"/>
			<path class="st22" d="M1118.8,655.3c4.1-1.3,9-2.9,10.9-4.1c1.2-0.8,2.3-1.3,2.6-1.3c0.6,0,1.3,1,1.3,1.3c0,1.9-0.3,4-0.3,6
				c0,0.3,0.5,0.8,0.9,0.4c3.3-3.6,8.1-6.7,11.4-6.7c4.8,0,6.3,2.9,6.3,4.4c0,0.3-0.3,1.2-0.6,1.7c-1.2,1.8-4.5,6.3-5.3,6.4
				c-0.4,0-1.6-0.1-1.9-0.4c-1.2-1.1-4.8-3-6.8-3c-1,0-2.1,0.1-2.7,0.6s-1,1.2-1,2.2c0,2.2,0.5,20.9,0.6,22.6c0.2,3.3,1,5.3,2.5,5.6
				c1.1,0.2,3.3,1,4.6,1.4c1.7,0.5,2.2,1.3,2.2,1.7c0,0.9-1.3,1.3-3,1.3c-3.2,0-8.9-0.5-15.2-0.5c-2.3,0-4.5,0.3-7.1,0.3
				c-1.2,0-2.6-0.3-2.6-1.5c0-0.8,1.6-1.3,2.5-1.6c3.9-1.4,4.1-2.6,4.2-9.1c0-2.7,0-10.7,0-17.8c0-1.9-0.2-3.6-0.9-4.1
				c-1.7-1.4-3.9-3.3-3.9-3.8C1117.4,657.2,1117.6,655.6,1118.8,655.3z"/>
			<path class="st22" d="M1157.2,652.1c3.8,0,7.5,0.4,10.7,0.4s7.2-0.2,8.7-0.2c1,0,2.6,0.4,2.6,1.3c0,0.9-0.6,1.4-2.6,2.1
				c-2.9,0.9-3,1.5-2.1,4.3c1.6,5.4,6.8,17.5,8.3,20.4c0.2,0.3,0.8,0.3,1.1-0.3c1.3-3.1,6.9-17,7.8-19.5c0.8-2.6-0.2-4-4.1-5.1
				c-1.4-0.4-2.3-1.3-2.3-1.7c0-1,1.3-1.4,2.7-1.4c2.1,0,4.9,0.2,6.4,0.2c1.6,0,4.8-0.4,7.6-0.4c1.5,0,2.3,0.5,2.3,1.3
				c0,0.9-1.2,1.5-2.6,1.9c-2.3,0.6-3.8,2.2-5.6,5.3c-2.4,5-10.3,24.1-12.2,28.9c-3.6,9-8.2,20.6-11.7,29.4
				c-0.9,2.4-4.1,3.7-6.2,3.7c-4,0-5.7-3.3-5.7-5.9c0-1.7,1.5-5.3,4.9-5.3c0.6,0,3.8,0.1,5,0.1c1,0,1.5-0.8,1.9-1.8
				c1-1.7,4-10,4.8-12.2c0.2-0.8,0.3-1.8,0.1-2.3c-0.4-0.8-1.4-3.3-1.8-4.6c-2.7-6.8-10.4-24.9-13.3-31c-1.2-2.2-1.7-3-4.7-4
				c-1.5-0.5-2.5-1.1-2.5-2.2C1154.6,652.9,1155.4,652.1,1157.2,652.1z"/>
		</g>
		<g>
			<path class="st18" d="M707.5,650.8c-0.3,0.1-0.2,1,0.1,1c7.4,3.1,13,8.5,13,17.8c0,7.1-4,12.2-9.2,15.7c-5.2,3.7-15,4.8-19.3,4.8
				c-3,0-14.9-0.2-19.8-0.3c-3.9-0.1-6.5,0.1-8.2,0.1c-1.9,0-3.5-0.8-3.5-1.7c0-1,1.8-1.6,3-1.8c6.6-1.3,7-2.9,7.4-6.6
				c0.2-2.3,0.9-13.1,0.9-34.4c0-9.2-0.3-14.7-0.6-16.2c-0.5-2.4-1.2-3.2-6.8-4.3c-1.4-0.2-2.8-0.9-2.8-2.1c0-0.9,1.6-1.4,3-1.4h7.1
				c3.5,0,16.6-0.8,21.1-0.8c6.3,0,12.3,1.2,15.5,3.2c5.3,3.2,7.6,8,7.6,13.3C716.1,645.2,710.5,648.7,707.5,650.8z M689.6,624.3
				c-0.6,0-2.6,0.3-3.8,0.6c-0.2,0.1-0.9,1.1-1,1.7c-0.2,1.7-0.4,4.9-0.4,23c0,0.5,0.5,1.4,1.2,1.4c3.9,0,10-0.6,12.6-2.6
				c3.3-2.4,5.2-6,5.2-10.3C703.4,629.3,697.4,624.3,689.6,624.3z M698.4,656.5c-2.5-1.4-5.6-2.1-9.3-2.1c-1.5,0-3.3,0.4-3.7,0.8
				c-0.3,0.3-0.9,0.9-0.9,5.1c-0.1,2.8,0.2,15.8,0.4,19c0.1,0.9,0.6,2.6,1.4,3.5c1.8,1.9,4.9,3.7,6.8,3.7c6.9,0,13.2-6.9,13.2-15.9
				C706.4,664.2,703.1,659.1,698.4,656.5z"/>
			<path class="st18" d="M788.5,621.1c2.6,0.6,5.3,1.3,7.8,1.6c0.8,0,1.6,1.3,1.6,2.9c0.1,3,0.3,6.8,0.5,9.9
				c0.1,2.3-0.6,4.1-1.8,4.1c-0.5,0-1.5-1.3-2.1-2.9c-1.1-3.3-2.7-6.3-4.5-7.7c-4.6-3.9-10.1-6.3-16-6.3c-17.2,0-25.3,13.6-25.3,30
				c0,7.2,1.3,13.5,3.7,18.2c5.9,11.9,15.8,16.1,24.2,16.1c1.4,0,6.7-0.2,10.5-2.5c4-2.3,6.9-5.4,9.4-9.8c1.3-2.4,2.1-3.3,2.9-3.3
				c1.2,0,1.2,2.8,0.9,4c-0.5,2.7-2.3,7.5-3.2,9.4c-0.3,1-2.3,2.7-3.9,3.5c-1.5,0.5-9,3.1-18.9,3.1c-16,0-27.3-7.1-31.7-12.2
				c-4.1-4.7-9.1-12.3-9.1-24.3c0-13.1,7.3-22.2,11.9-25.9c9.2-7.6,20.3-9.7,29.2-9.7C779.5,619.4,784.7,620.1,788.5,621.1z"/>
			<path class="st18" d="M834.1,620.8c6.7,0,9,0.4,17.5,0.4c0.2,0,1.1,1,1.2,1.5c1,3.1,1.9,5.2,4.1,9.7
				c5.4,11.1,15.5,32.4,17.6,35.1c0.2,0.2,0.9,0.4,1,0.3c2.5-4.5,14.6-28.3,18-36.7c0.5-1.3,2.6-6,3.1-8.3c0.1-0.4,1.1-1.6,1.3-1.6
				c7.6,0,16.2-0.4,17.2-0.4c1.3,0,2.9,0.3,2.9,1.3c0,1.1-1.2,1.6-3.1,2.1c-1.7,0.4-3.1,1-4.9,1.8c-1.8,0.9-2.6,3.1-2.6,8.6
				c0,18.1,0.6,39.4,1.3,44.8c0.5,3.6,1.5,5.4,6.9,6.8c1.8,0.4,2.9,1.5,2.9,2.3c0,1.2-1.6,1.6-3.2,1.6c-1.2,0-11.3-0.5-15.2-0.5
				c-1.9,0-7.8,0.3-10.3,0.3c-1.7,0-3.1-0.4-3.1-1.5c0-1,1.5-1.9,3-2.3c4.4-1.1,4.8-4.4,5.1-8.7c0.4-5.3,0.6-33.1,0.5-38.5
				c0-1.1-0.6-1.6-1.1-0.8c-3.6,7-12.6,26.2-15.8,33.4c-2.8,6.3-5.1,12-6.5,15.4c-1.3,3.1-2.5,3.3-3,3.3s-1.5-1.2-2.1-2.4
				c-0.5-1.7-1.9-5.9-4-11c-5.6-13.8-15-34-17.1-38c-0.3-0.6-0.6-0.4-0.6,0.3c-0.9,7.2-1.8,26-1.7,37.7c0.1,6.2,1.1,7.6,6.6,9.3
				c2.3,0.8,3.1,1.4,3.1,2.4c0,0.9-1.3,1.5-3.1,1.5c-3.2,0-7.3-0.4-9.9-0.4c-2.6,0-7.1,0.4-9.6,0.4c-1.6,0-3.3-0.2-3.3-1.5
				c0-0.8,1.1-1.4,2.9-2.1c5.9-2.1,7.1-3.5,8.1-11c1-8.2,3.5-33.9,3.6-43.5c0-1.4-0.2-5.5-4.1-6.5c-1.7-0.5-3.1-1-4.4-1.3
				c-0.8-0.2-2.3-1-2.3-1.9C831,621.2,831.8,620.8,834.1,620.8z"/>
			<path class="st18" d="M928.4,649.3c4.4-0.9,11.2-3.5,13-3.9c0.5,0,1.1,0.9,1.1,1.2c-0.2,3.7-0.5,18.1-0.5,24.4
				c0,3.3,0.1,7.1,0.2,10.9c0.1,3.2,1.4,3.7,4.2,4.5c1.6,0.5,2.4,1.2,2.4,2.1c0,0.9-1.5,1.4-3,1.4c-0.8,0-6.6-0.3-9-0.3
				c-3.5,0-8.6,0.4-10.5,0.4c-1.7,0-3-0.6-3-1.4c0-0.8,0.8-1.3,2.8-1.9c2.6-0.8,3.8-2.1,4-3.1c0.4-1.5,0.6-9.2,0.6-16.8
				c0-2.3,0-8.4-0.2-9.7c-0.1-0.9-1.4-1.9-3.7-3.9c-0.6-0.6-1.3-1.2-1.3-1.7C925.5,650.5,926.7,649.6,928.4,649.3z M942.7,629.7
				c0,3.6-3.8,6.6-6.5,6.6c-1,0-3.1-0.6-4.3-1.8c-1.1-1.1-2.1-2.6-2.1-4.8c0-1.3,0.5-3.5,1.7-4.8c1.3-1.2,3.3-1.9,5.4-1.9
				C940.7,623,942.7,627.2,942.7,629.7z"/>
			<path class="st18" d="M956.6,649.4c2.2-0.6,7-2.4,8.7-3.2c1.7-0.9,3.1-1.6,3.7-1.6c0.4,0,1.2,1.2,1.2,1.6c0,1.2-0.1,3.8-0.1,4.8
				c0,0.6,0.8,0.5,0.8,0.5c4.3-3.2,8.9-5.8,13.7-5.8c5.3,0,8.4,2.6,9.9,4.3c2.5,2.8,3.9,7.6,3.9,13.1c0,2.3,0.2,18.1,0.3,19.7
				c0.2,1.6,1,2.9,3.8,3.7c2.1,0.5,2.8,1.1,2.8,1.9c0,0.9-1.3,1.5-3.1,1.5c-2.6,0-6.8-0.2-9.8-0.2c-2.7,0-7,0.3-8.5,0.3
				s-2.9-0.3-2.9-1.5c0-0.8,1.2-1.4,2.6-1.8c2.5-1,3-1.9,3.2-5.5s0.2-17,0.2-20.1c0-2.2-0.9-5.1-2.4-6.5c-1.2-1.1-3.9-2.3-6.2-2.3
				c-3.8,0-5.6,1.1-7.1,2.2c-0.4,0.3-1,1.7-1.1,2.4c-0.1,1.8,0.1,25.1,0.2,26.3c0.1,1.5,0.4,2.3,3.8,3.3c1,0.4,1.8,1.2,1.8,1.8
				c0,0.8-1.2,1.5-3,1.5c-2.1,0-6-0.2-8.3-0.2c-4,0-8.2,0.3-10,0.3s-2.9-0.6-2.9-1.6c0-0.9,1.1-1.4,2.3-1.7c3.6-1.2,4.1-2.1,4.4-6
				c0.3-3.2,0.5-11.9,0.5-22.8c0-1.2-0.8-2.3-3.1-4.4c-0.9-0.9-1.2-1.2-1.2-1.5C954.7,651.1,955.8,649.7,956.6,649.4z"/>
			<path class="st18" d="M1014.5,649.3c4.4-0.9,11.2-3.5,13-3.9c0.5,0,1.1,0.9,1.1,1.2c-0.2,3.7-0.5,18.1-0.5,24.4
				c0,3.3,0.1,7.1,0.2,10.9c0.1,3.2,1.4,3.7,4.2,4.5c1.6,0.5,2.4,1.2,2.4,2.1c0,0.9-1.5,1.4-3,1.4c-0.8,0-6.6-0.3-9-0.3
				c-3.5,0-8.6,0.4-10.5,0.4c-1.7,0-3-0.6-3-1.4c0-0.8,0.8-1.3,2.8-1.9c2.6-0.8,3.8-2.1,4-3.1c0.4-1.5,0.6-9.2,0.6-16.8
				c0-2.3,0-8.4-0.2-9.7c-0.1-0.9-1.4-1.9-3.7-3.9c-0.6-0.6-1.3-1.2-1.3-1.7C1011.6,650.5,1012.8,649.6,1014.5,649.3z M1028.7,629.7
				c0,3.6-3.8,6.6-6.5,6.6c-1,0-3.1-0.6-4.3-1.8c-1.1-1.1-2.1-2.6-2.1-4.8c0-1.3,0.5-3.5,1.7-4.8c1.3-1.2,3.3-1.9,5.4-1.9
				C1026.8,623,1028.7,627.2,1028.7,629.7z"/>
			<path class="st18" d="M1063.1,646.2c1.4,0.2,3.7,1.1,3.9,1.2c0.4,0.3,0.9,1,1,1.8c0.2,1.5,0.4,6.2,0.4,6.9c0,1-0.9,2.3-1.6,2.3
				c-0.8,0-1.7-1.4-2.4-2.6c-2.4-4.5-5.1-7-9-7c-2.7,0-5.4,2.7-5.4,5.5c0,3.9,4.1,6.3,9.5,9.3c9.3,5,10.6,8.7,10.6,13.6
				c0,5.1-3.2,8.6-6.8,10.9c-2.3,1.5-7.8,2.7-10.9,2.7c-3.3,0-8.9-0.8-10.9-2.5c-0.4-0.5-2.1-5.1-2.1-8.9c0-1.6,0.6-2.5,1.1-2.5
				c1.1,0,1.8,1.2,2.6,2.5c3.6,6,7.8,8.1,10.5,8.1c1.3,0,3.2-0.6,4.3-1.4c1.5-1.2,2.2-3.1,2.2-4.9c0-1.8-0.9-3.8-4.3-5.9
				c-2.9-1.8-4.2-2.7-7.4-4.6c-4-2.5-7.6-6.6-7.6-12.1c0-4,2.3-8.3,6.8-10.8c2.4-1.3,5.4-2.3,9.4-2.3
				C1059.4,645.6,1061.7,645.9,1063.1,646.2z"/>
			<path class="st18" d="M1105.2,646.8c0.4,0,1.6,0.4,1.6,1.2c0-0.3,0.3,3.1,0.3,4.4c0,1.1-2.1,1.3-2.8,1.3c-0.4,0-9.4,0-10.3,0
				c-0.6,0-1.1,0.5-1.1,0.8c0,5.4-0.1,15.4-0.1,21.8c0,2.7,0.5,4,1.7,5.1s3.6,1.8,5.3,1.8c1.1,0,3.3-0.8,4.8-1.5
				c0.9-0.5,1.4-0.8,1.8-0.8c0.3,0,0.8,0.5,0.8,1.7c0,1-1.1,2.4-1.7,3.1c-2.9,3-7.2,5.1-12.3,5.1c-4.3,0-8.3-2.2-10-4.6
				c-1.4-1.8-1.9-3.5-1.9-7.7c0-4,0.4-19.7,0.4-23.4c0-0.8-1.8-1.5-4.1-2.4c-0.9-0.3-1.3-1.2-1.3-1.8c0-0.4,0.1-0.6,0.5-1
				c5.4-3.6,9-6.2,11.3-8.6c1.3-1.5,2.1-2.4,2.5-2.4c0.8,0,2.2,1.1,2.2,1.8c0,0.4,0,2.3,0,5.4c0,0.3,0.5,1,1,1
				C1096.1,647.1,1104.8,646.8,1105.2,646.8z"/>
			<path class="st18" d="M1113.4,649.9c4.1-1.3,9-2.9,10.9-4.1c1.2-0.8,2.3-1.3,2.6-1.3c0.6,0,1.3,1,1.3,1.3c0,1.9-0.3,4-0.3,6
				c0,0.3,0.5,0.8,0.9,0.4c3.3-3.6,8.1-6.7,11.4-6.7c4.8,0,6.3,2.9,6.3,4.4c0,0.3-0.3,1.2-0.6,1.7c-1.2,1.8-4.5,6.3-5.3,6.4
				c-0.4,0-1.6-0.1-1.9-0.4c-1.2-1.1-4.8-3-6.8-3c-1,0-2.1,0.1-2.7,0.6s-1,1.2-1,2.2c0,2.2,0.5,20.9,0.6,22.6c0.2,3.3,1,5.3,2.5,5.6
				c1.1,0.2,3.3,1,4.6,1.4c1.7,0.5,2.2,1.3,2.2,1.7c0,0.9-1.3,1.3-3,1.3c-3.2,0-8.9-0.5-15.2-0.5c-2.3,0-4.5,0.3-7.1,0.3
				c-1.2,0-2.6-0.3-2.6-1.5c0-0.8,1.6-1.3,2.5-1.6c3.9-1.4,4.1-2.6,4.2-9.1c0-2.7,0-10.7,0-17.8c0-1.9-0.2-3.6-0.9-4.1
				c-1.7-1.4-3.9-3.3-3.9-3.8C1112,651.7,1112.2,650.2,1113.4,649.9z"/>
			<path class="st18" d="M1151.7,646.7c3.8,0,7.5,0.4,10.7,0.4s7.2-0.2,8.7-0.2c1,0,2.6,0.4,2.6,1.3c0,0.9-0.6,1.4-2.6,2.1
				c-2.9,0.9-3,1.5-2.1,4.3c1.6,5.4,6.8,17.5,8.3,20.4c0.2,0.3,0.8,0.3,1.1-0.3c1.3-3.1,6.9-17,7.8-19.5c0.8-2.6-0.2-4-4.1-5.1
				c-1.4-0.4-2.3-1.3-2.3-1.7c0-1,1.3-1.4,2.7-1.4c2.1,0,4.9,0.2,6.4,0.2c1.6,0,4.8-0.4,7.6-0.4c1.5,0,2.3,0.5,2.3,1.3
				c0,0.9-1.2,1.5-2.6,1.9c-2.3,0.6-3.8,2.2-5.6,5.3c-2.4,5-10.3,24.1-12.2,28.9c-3.6,9-8.2,20.6-11.7,29.4
				c-0.9,2.4-4.1,3.7-6.2,3.7c-4,0-5.7-3.3-5.7-5.9c0-1.7,1.5-5.3,4.9-5.3c0.6,0,3.8,0.1,5,0.1c1,0,1.5-0.8,1.9-1.8
				c1-1.7,4-10,4.8-12.2c0.2-0.8,0.3-1.8,0.1-2.3c-0.4-0.8-1.4-3.3-1.8-4.6c-2.7-6.8-10.4-24.9-13.3-31c-1.2-2.2-1.7-3-4.7-4
				c-1.5-0.5-2.5-1.1-2.5-2.2C1149.2,647.5,1150,646.7,1151.7,646.7z"/>
		</g>
	</g>
</g>
<g>
	<rect x="513.4" y="780.5" class="st23" width="832.7" height="863.4"/>
	<rect x="486.4" y="729.2" class="st23" width="886.7" height="51.3"/>
	<rect x="513.4" y="780.5" class="st22" width="832.7" height="18.5"/>
	<g>
		<g>
			<rect x="561" y="833.5" class="st22" width="102.6" height="158.2"/>
			<rect x="569.1" y="833.5" class="st16" width="102.6" height="158.2"/>
			<rect x="577.2" y="841.6" class="st10" width="94.5" height="150.1"/>
		</g>
		<g>
			<rect x="717.7" y="833.5" class="st22" width="102.6" height="158.2"/>
			<rect x="725.8" y="833.5" class="st16" width="102.6" height="158.2"/>
			<rect x="733.9" y="841.6" class="st10" width="94.5" height="150.1"/>
		</g>
		<g>
			<rect x="874.4" y="833.5" class="st22" width="102.6" height="158.2"/>
			<rect x="882.5" y="833.5" class="st16" width="102.6" height="158.2"/>
			<rect x="890.6" y="841.6" class="st10" width="94.5" height="150.1"/>
		</g>
		<g>
			<rect x="1031.1" y="833.5" class="st22" width="102.6" height="158.2"/>
			<rect x="1039.3" y="833.5" class="st16" width="102.6" height="158.2"/>
			<rect x="1047.4" y="841.6" class="st10" width="94.5" height="150.1"/>
		</g>
		<g>
			<rect x="1187.9" y="833.5" class="st22" width="102.6" height="158.2"/>
			<rect x="1196" y="833.5" class="st16" width="102.6" height="158.2"/>
			<rect x="1204.1" y="841.6" class="st10" width="94.5" height="150.1"/>
		</g>
	</g>
	<g>
		<g>
			<rect x="561" y="1028" class="st22" width="102.6" height="158.2"/>
			<rect x="569.1" y="1028" class="st16" width="102.6" height="158.2"/>
			<rect x="577.2" y="1036.1" class="st10" width="94.5" height="150.1"/>
		</g>
		<g>
			<rect x="717.7" y="1028" class="st22" width="102.6" height="158.2"/>
			<rect x="725.8" y="1028" class="st16" width="102.6" height="158.2"/>
			<rect x="733.9" y="1036.1" class="st10" width="94.5" height="150.1"/>
		</g>
		<g>
			<rect x="874.4" y="1028" class="st22" width="102.6" height="158.2"/>
			<rect x="882.5" y="1028" class="st16" width="102.6" height="158.2"/>
			<rect x="890.6" y="1036.1" class="st10" width="94.5" height="150.1"/>
		</g>
		<g>
			<rect x="1031.1" y="1028" class="st22" width="102.6" height="158.2"/>
			<rect x="1039.3" y="1028" class="st16" width="102.6" height="158.2"/>
			<rect x="1047.4" y="1036.1" class="st10" width="94.5" height="150.1"/>
		</g>
		<g>
			<rect x="1187.9" y="1028" class="st22" width="102.6" height="158.2"/>
			<rect x="1196" y="1028" class="st16" width="102.6" height="158.2"/>
			<rect x="1204.1" y="1036.1" class="st10" width="94.5" height="150.1"/>
		</g>
	</g>
	<g>
		<g>
			<rect x="561" y="1222.6" class="st22" width="102.6" height="158.2"/>
			<rect x="569.1" y="1222.6" class="st16" width="102.6" height="158.2"/>
			<rect x="577.2" y="1230.7" class="st10" width="94.5" height="150.1"/>
		</g>
		<g>
			<rect x="717.7" y="1222.6" class="st22" width="102.6" height="158.2"/>
			<rect x="725.8" y="1222.6" class="st16" width="102.6" height="158.2"/>
			<rect x="733.9" y="1230.7" class="st10" width="94.5" height="150.1"/>
		</g>
		<g>
			<rect x="874.4" y="1222.6" class="st22" width="102.6" height="158.2"/>
			<rect x="882.5" y="1222.6" class="st16" width="102.6" height="158.2"/>
			<rect x="890.6" y="1230.7" class="st10" width="94.5" height="150.1"/>
		</g>
		<g>
			<rect x="1031.1" y="1222.6" class="st22" width="102.6" height="158.2"/>
			<rect x="1039.3" y="1222.6" class="st16" width="102.6" height="158.2"/>
			<rect x="1047.4" y="1230.7" class="st10" width="94.5" height="150.1"/>
		</g>
		<g>
			<rect x="1187.9" y="1222.6" class="st22" width="102.6" height="158.2"/>
			<rect x="1196" y="1222.6" class="st16" width="102.6" height="158.2"/>
			<rect x="1204.1" y="1230.7" class="st10" width="94.5" height="150.1"/>
		</g>
	</g>
	<g>
		<g>
			<rect x="561" y="1417.1" class="st22" width="102.6" height="158.2"/>
			<rect x="569.1" y="1417.1" class="st16" width="102.6" height="158.2"/>
			<rect x="577.2" y="1425.2" class="st10" width="94.5" height="150.1"/>
		</g>
		<g>
			<rect x="717.7" y="1417.1" class="st22" width="102.6" height="158.2"/>
			<rect x="725.8" y="1417.1" class="st16" width="102.6" height="158.2"/>
			<rect x="733.9" y="1425.2" class="st10" width="94.5" height="150.1"/>
		</g>
		<g>
			<rect x="874.4" y="1417.1" class="st22" width="102.6" height="158.2"/>
			<rect x="882.5" y="1417.1" class="st16" width="102.6" height="158.2"/>
			<rect x="890.6" y="1425.2" class="st10" width="94.5" height="150.1"/>
		</g>
		<g>
			<rect x="1031.1" y="1417.1" class="st22" width="102.6" height="158.2"/>
			<rect x="1039.3" y="1417.1" class="st16" width="102.6" height="158.2"/>
			<rect x="1047.4" y="1425.2" class="st10" width="94.5" height="150.1"/>
		</g>
		<g>
			<rect x="1187.9" y="1417.1" class="st22" width="102.6" height="158.2"/>
			<rect x="1196" y="1417.1" class="st16" width="102.6" height="158.2"/>
			<rect x="1204.1" y="1425.2" class="st10" width="94.5" height="150.1"/>
		</g>
	</g>
</g>
<g>
	<rect x="56.2" y="1254.1" class="st14" width="658.1" height="406.4"/>
	<rect x="56.2" y="1254.1" class="st14" width="658.1" height="15.4"/>
	<polygon class="st10" points="641.4,1081.2 129.2,1081.2 56.2,1254.1 714.3,1254.1 	"/>
	<line class="st24" x1="641.4" y1="1081.2" x2="129.2" y2="1081.2"/>
	<line class="st24" x1="56.2" y1="1254.1" x2="714.3" y2="1254.1"/>
	<path class="st10" d="M579.6,1327.3c0-7-5.7-12.7-12.7-12.7h-39.1c-7,0-12.7,5.7-12.7,12.7c0,6,4.2,11,9.8,12.3v199.5h-5.7v47.4
		h56.3v-47.4h-5.7v-199.5C575.4,1338.3,579.6,1333.3,579.6,1327.3z"/>
	<path class="st10" d="M471.5,1327.3c0-7-5.7-12.7-12.7-12.7h-39.1c-7,0-12.7,5.7-12.7,12.7c0,6,4.2,11,9.8,12.3v199.5h-5.7v47.4
		h56.3v-47.4h-5.7v-199.5C467.3,1338.3,471.5,1333.3,471.5,1327.3z"/>
	<path class="st10" d="M363.4,1327.3c0-7-5.7-12.7-12.7-12.7h-39.1c-7,0-12.7,5.7-12.7,12.7c0,6,4.2,11,9.8,12.3v199.5H303v47.4
		h56.3v-47.4h-5.7v-199.5C359.3,1338.3,363.4,1333.3,363.4,1327.3z"/>
	<path class="st10" d="M255.3,1327.3c0-7-5.7-12.7-12.7-12.7h-39.1c-7,0-12.7,5.7-12.7,12.7c0,6,4.2,11,9.8,12.3v199.5H195v47.4
		h56.3v-47.4h-5.7v-199.5C251.2,1338.3,255.3,1333.3,255.3,1327.3z"/>
	<rect x="175" y="1571.6" class="st25" width="420.5" height="63.2"/>
	<rect x="149.4" y="1604" class="st25" width="471.8" height="63.2"/>
	<rect x="149.4" y="1227.1" class="st25" width="471.8" height="90.3"/>
	<path class="st25" d="M632.2,1195.6l-235.9-190.2c-6.4-5.2-15.6-5.2-22,0l-235.9,190.2c-5.8,4.7-8,12.5-5.5,19.5
		s9.1,11.7,16.5,11.7h471.8c7.4,0,14.1-4.7,16.5-11.7C640.2,1208.1,638,1200.3,632.2,1195.6z"/>
	<path class="st14" d="M385.3,1036.4L583,1195.8H187.6L385.3,1036.4"/>
	<g>
		<path class="st16" d="M217.3,1282.4l-7,7h-27l-7-7v-48.7l7-7h27l7,7v14.5h-12.8v-9.8h-15.4v39.3h15.4v-9.8h12.8V1282.4z"/>
		<path class="st16" d="M244.1,1238.4v39.3h6v11.7h-24.8v-11.7h6v-39.3h-6v-11.7H250v11.7H244.1z"/>
		<path class="st16" d="M294.7,1249.3v-10.9h-7v39.3h7v11.7h-26.9v-11.7h7.1v-39.3h-7v10.9h-11.3v-22.6h49.3v22.6H294.7z"/>
		<path class="st16" d="M343.3,1265v12.8h6.8v11.7h-26.5v-11.7h6.8V1265l-13.6-26.6h-5.2v-11.7h23.3v11.4h-4.5l6.9,15l6.9-15h-4.5
			v-11.4h22.6v11.7H357L343.3,1265z"/>
		<path class="st16" d="M434.8,1238.4v39.3h6v11.7h-23v-11.7h4.3v-14.4h-13.6v14.4h4.3v11.7h-23.1v-11.7h6v-39.3h-6v-11.7h23.1v11.7
			h-4.3v13.2h13.6v-13.2h-4.3v-11.7h23v11.7H434.8z"/>
		<path class="st16" d="M498.3,1277.7v11.7h-23.1v-11h4.8l-1.8-9.2H466l-1.8,9.2h4.7v11H446v-11.7h5.6l9.6-39.8h-6.7v-11.2h26.2
			l-0.2,0.1l12.3,50.9H498.3z M476.2,1259.4L472,1238l-4.2,21.4H476.2z"/>
		<path class="st16" d="M545.4,1265.6v23.8h-41.8v-11.7h6v-39.3h-6v-11.7h25.8v11.7h-7v39.3h11.9v-12.1L545.4,1265.6L545.4,1265.6z"
			/>
		<path class="st16" d="M594.2,1265.6v23.8h-41.8v-11.7h6v-39.3h-6v-11.7h25.8v11.7h-7v39.3H583v-12.1L594.2,1265.6L594.2,1265.6z"
			/>
	</g>
	<path class="st26" d="M129.2,1081.2"/>
	<path class="st26" d="M641.4,1081.2"/>
	<polygon class="st27" points="385.3,1036.4 187.6,1195.8 220,1195.8 401.5,1049.5 	"/>
	<g>
		<g>
			<rect x="102" y="1480" class="st10" width="50.3" height="68.1"/>
			<path class="st14" d="M152.4,1480H102c0-12.4,11.3-22.5,25.2-22.5S152.4,1467.5,152.4,1480z"/>
		</g>
		<g>
			<rect x="618.2" y="1480" class="st10" width="50.3" height="68.1"/>
			<path class="st14" d="M668.5,1480h-50.3c0-12.4,11.3-22.5,25.2-22.5C657.2,1457.5,668.5,1467.5,668.5,1480z"/>
		</g>
		<g>
			<rect x="102" y="1363.8" class="st10" width="50.3" height="68.1"/>
			<path class="st14" d="M152.4,1363.8H102c0-12.4,11.3-22.5,25.2-22.5S152.4,1351.3,152.4,1363.8z"/>
		</g>
		<g>
			<rect x="618.2" y="1363.8" class="st10" width="50.3" height="68.1"/>
			<path class="st14" d="M668.5,1363.8h-50.3c0-12.4,11.3-22.5,25.2-22.5C657.2,1341.3,668.5,1351.3,668.5,1363.8z"/>
		</g>
	</g>
</g>
<g>
	<g>
		<rect x="1252" y="1089.1" class="st28" width="35" height="39.7"/>
		<rect x="954.8" y="1089.1" class="st28" width="35" height="39.7"/>
	</g>
	<g>
		<rect x="857.2" y="1138.4" class="st29" width="527.4" height="503.5"/>
		<rect x="857.2" y="1149.2" class="st28" width="527.4" height="20.9"/>
		<rect x="843.7" y="1124.9" class="st29" width="554.4" height="27"/>
		<rect x="843.7" y="984.4" class="st29" width="554.4" height="113.5"/>
		<g>
			<rect x="1037.4" y="1501" class="st20" width="167.7" height="167.7"/>
			<polygon class="st30" points="1205.1,1512.6 1205.1,1501 1037.4,1501 1037.4,1668.6 1046.7,1668.6 1046.7,1512.6 			"/>
			<rect x="1114.3" y="1495.4" class="st29" width="13.9" height="175.5"/>
			<rect x="1037.4" y="1482.4" class="st28" width="167.7" height="21.3"/>
		</g>
		<g>
			<rect x="884.3" y="1508" class="st30" width="126" height="108.5"/>
			<rect x="895.1" y="1518.8" class="st20" width="115.1" height="97.7"/>
		</g>
		<g>
			<rect x="884.3" y="1338.4" class="st30" width="98.9" height="108.5"/>
			<rect x="895.1" y="1349.2" class="st20" width="88.1" height="97.7"/>
		</g>
		<g>
			<rect x="1259.2" y="1338.4" class="st30" width="98.9" height="108.5"/>
			<rect x="1270" y="1349.2" class="st20" width="88.1" height="97.7"/>
		</g>
		<g>
			<rect x="1134.3" y="1338.4" class="st30" width="98.9" height="108.5"/>
			<rect x="1145.1" y="1349.2" class="st20" width="88.1" height="97.7"/>
		</g>
		<g>
			<rect x="1009.3" y="1338.4" class="st30" width="98.9" height="108.5"/>
			<rect x="1020.1" y="1349.2" class="st20" width="88.1" height="97.7"/>
		</g>
		<g>
			<rect x="884.3" y="1197.9" class="st30" width="98.9" height="108.5"/>
			<rect x="895.1" y="1208.7" class="st20" width="88.1" height="97.7"/>
		</g>
		<g>
			<rect x="1259.2" y="1197.9" class="st30" width="98.9" height="108.5"/>
			<rect x="1270" y="1208.7" class="st20" width="88.1" height="97.7"/>
		</g>
		<g>
			<rect x="1134.3" y="1197.9" class="st30" width="98.9" height="108.5"/>
			<rect x="1145.1" y="1208.7" class="st20" width="88.1" height="97.7"/>
		</g>
		<g>
			<rect x="1009.3" y="1197.9" class="st30" width="98.9" height="108.5"/>
			<rect x="1020.1" y="1208.7" class="st20" width="88.1" height="97.7"/>
		</g>
		<g>
			<rect x="1232.2" y="1508" class="st30" width="126" height="108.5"/>
			<rect x="1243" y="1518.8" class="st20" width="115.1" height="97.7"/>
		</g>
	</g>
	<g>
		<path class="st10" d="M936.1,1071h-13.2l-3.7-13.3H902l-3.7,13.3H886l19.2-62.4h11.9L936.1,1071z M904.4,1048.3h12.5l-6.2-22.5
			L904.4,1048.3z"/>
		<path class="st10" d="M940.4,1024.3c0-9.9,8.2-16.6,18.4-16.6c15.6,0,19,13.5,19,13.5l-10.2,4.1c0,0-2.1-7.1-8.5-7.1
			c-3.4,0-6.1,2.1-6.1,5.4c0,4.3,3.3,7,9.5,10.7c7.9,4.8,14.5,10.8,14.5,19.8c0,11.2-8.5,17.7-19.2,17.7
			c-16.1,0-20.3-15.5-20.3-15.5l10.2-4.1c0,0,3.2,9.1,10,9.1c4.1,0,6.8-2.6,6.8-6.4c0-4.7-3.7-7.5-10.5-11.6
			C946.2,1038.7,940.4,1032.5,940.4,1024.3z"/>
		<path class="st10" d="M983.3,1024.3c0-9.9,8.2-16.6,18.4-16.6c15.6,0,19,13.5,19,13.5l-10.2,4.1c0,0-2.1-7.1-8.5-7.1
			c-3.4,0-6.1,2.1-6.1,5.4c0,4.3,3.3,7,9.5,10.7c7.9,4.8,14.5,10.8,14.5,19.8c0,11.2-8.5,17.7-19.2,17.7
			c-16.1,0-20.3-15.5-20.3-15.5l10.2-4.1c0,0,3.2,9.1,10,9.1c4.1,0,6.8-2.6,6.8-6.4c0-4.7-3.7-7.5-10.5-11.6
			C989.1,1038.7,983.3,1032.5,983.3,1024.3z"/>
		<path class="st10" d="M1027.4,1028.8c0-12.9,8.9-21,21.1-21c12.3,0,20.8,7.8,20.8,20.8v22.3c0,12.9-8.8,21.1-21,21.1
			c-12.3,0-20.9-7.9-20.9-20.9V1028.8z M1040,1051.2c0,6.1,3.2,9.5,8.3,9.5c5.2,0,8.4-3.5,8.4-9.5v-22.7c0-6-3.2-9.5-8.4-9.5
			c-5.1,0-8.3,3.6-8.3,9.5V1051.2z"/>
		<path class="st10" d="M1106.6,1048h12.2v3.2c0,12.7-8.5,20.7-20.2,20.7c-12,0-20.4-7.8-20.4-20.4v-23.2c0-12.7,8.7-20.6,20.7-20.6
			c11.8,0,20,7.7,20,20.3v2.6h-12.2v-2.7c0-5.7-3-9.1-7.9-9.1c-4.8,0-7.8,3.4-7.8,9.1v23.6c0,5.8,3,9.1,7.8,9.1
			c4.9,0,7.9-3.3,7.9-9.1L1106.6,1048L1106.6,1048z"/>
		<path class="st10" d="M1129,1008.7h13v62.4h-13V1008.7z"/>
		<path class="st10" d="M1198,1071h-13.2l-3.7-13.3h-17.2l-3.7,13.3h-12.5l19.2-62.4h11.9L1198,1071z M1166.3,1048.3h12.5l-6.2-22.5
			L1166.3,1048.3z"/>
		<path class="st10" d="M1218.8,1020.1v51h-12.7v-51H1193v-11.4h38.8v11.4H1218.8z"/>
		<path class="st10" d="M1239,1008.7h13v62.4h-13V1008.7z"/>
		<path class="st10" d="M1262.2,1028.8c0-12.9,8.9-21,21.1-21c12.3,0,20.8,7.8,20.8,20.8v22.3c0,12.9-8.8,21.1-21,21.1
			c-12.3,0-20.9-7.9-20.9-20.9V1028.8z M1274.9,1051.2c0,6.1,3.2,9.5,8.3,9.5c5.2,0,8.4-3.5,8.4-9.5v-22.7c0-6-3.2-9.5-8.4-9.5
			c-5.1,0-8.3,3.6-8.3,9.5V1051.2z"/>
		<path class="st10" d="M1325.5,1031.4v39.7h-11.6v-62.4h12.3l18.1,38.1v-38.1h11.5v62.4h-11.5L1325.5,1031.4z"/>
	</g>
</g>
<rect y="1636.3" class="st10" width="1430" height="241.4"/>
<g>
	<path class="st18" d="M450.7,1817h-25.6v-120.1h25.6V1817z"/>
	<path class="st18" d="M533.6,1734c-0.5-8.6-0.7-12.6-3.1-14.9c-2.5-2.3-6.1-3.2-16.4-3.2c-14.9,0-16.9,1.8-16.9,12.2
		c0,7.4,2.2,10.3,9.7,12.6l25.4,8.5c20.2,6.5,27.7,16,27.7,34.2c0,14-4.7,23.8-13.9,29.5c-6.8,4.5-15.5,6.3-30.4,6.3
		c-21.6,0-32.8-3.8-39.8-13c-4.5-6.1-6.3-11-7.2-28.4h25.7c0.4,10.1,0.7,12.8,2.5,15.3c2.2,3.2,7.7,4.5,18.7,4.5
		c8.1,0,13.1-0.5,15.8-2.9c2.5-2,2.7-4.9,2.7-11c0-7.9-2.2-10.8-10.8-13.5l-25.4-8.5c-17.6-5.8-25.6-16-25.6-33.1
		c0-23.2,12.8-33.8,41-33.8c16.7,0,25.9,2.3,32.8,7.4c9.5,6.8,11.3,14.6,12.4,31.9L533.6,1734L533.6,1734z"/>
	<path class="st18" d="M641.6,1734c-0.5-8.6-0.7-12.6-3.1-14.9c-2.5-2.3-6.1-3.2-16.4-3.2c-14.9,0-16.9,1.8-16.9,12.2
		c0,7.4,2.2,10.3,9.7,12.6l25.4,8.5c20.2,6.5,27.7,16,27.7,34.2c0,14-4.7,23.8-13.9,29.5c-6.8,4.5-15.5,6.3-30.4,6.3
		c-21.6,0-32.8-3.8-39.8-13c-4.5-6.1-6.3-11-7.2-28.4h25.7c0.4,10.1,0.7,12.8,2.5,15.3c2.2,3.2,7.7,4.5,18.7,4.5
		c8.1,0,13.1-0.5,15.8-2.9c2.5-2,2.7-4.9,2.7-11c0-7.9-2.2-10.8-10.8-13.5l-25.4-8.5c-17.6-5.8-25.6-16-25.6-33.1
		c0-23.2,12.8-33.8,41-33.8c16.7,0,25.9,2.3,32.8,7.4c9.5,6.8,11.3,14.6,12.4,31.9L641.6,1734L641.6,1734z"/>
	<path class="st18" d="M712.6,1697v79.9c0,9.4,0.4,14.2,2.7,16.7c2.7,3.1,7.9,3.8,21.2,3.8c13,0,18.2-0.7,21.1-3.8
		c2.3-2.5,2.7-7.2,2.7-16.7V1697h25.6v79.9c0,16.7-2.5,26.5-9.7,32.9c-7.6,7-16.2,9.4-39.6,9.4s-32.2-2.3-39.8-9.4
		c-7-6.5-9.7-16.2-9.7-32.9V1697H712.6z"/>
	<path class="st18" d="M891.3,1718.6h-56v26.8h51.5v21.6h-51.5v28.4h57.4v21.6h-82.8v-120.1h81.4L891.3,1718.6L891.3,1718.6z"/>
	<path class="st18" d="M910.2,1697h44.3c20.3,0,30.6,3.1,37.6,10.8c5.9,6.7,8.8,16,8.8,29.7c0,12.8-2.3,21.4-7.6,27.9
		c-2.9,3.4-6.5,6.1-10.8,8.1l22.3,43.6h-28.1l-19.6-39.2h-21.4v39.2h-25.6L910.2,1697L910.2,1697z M935.4,1756h15.3
		c9.2,0,18.2,0,21.2-2.2c3.2-2.2,3.8-6.7,3.8-16.4c0-9.7-0.5-14.2-3.8-16.6c-2.9-2.2-12.2-2.2-21.2-2.2h-15.3V1756z"/>
</g>
</svg>
