<?xml version="1.0" encoding="utf-8"?>
<!-- Generator: Adobe Illustrator 22.0.1, SVG Export Plug-In . SVG Version: 6.00 Build 0)  -->
<svg version="1.1" id="Layer_1" xmlns="http://www.w3.org/2000/svg" xmlns:xlink="http://www.w3.org/1999/xlink" x="0px" y="0px"
	 viewBox="0 0 1125.4 1125.4" style="enable-background:new 0 0 1125.4 1125.4;" xml:space="preserve">
<style type="text/css">
	.st0{clip-path:url(#SVGID_2_);}
	.st1{fill-rule:evenodd;clip-rule:evenodd;fill:#8E6134;}
	.st2{fill-rule:evenodd;clip-rule:evenodd;fill:#1C283E;}
	.st3{fill:#384261;}
	.st4{fill:#FFFFFF;}
	.st5{fill:#7A4D20;}
	.st6{fill-rule:evenodd;clip-rule:evenodd;fill:#B47943;}
	.st7{fill:#8E6134;}
	.st8{fill:#32150B;}
</style>
<g>
	<defs>
		<circle id="SVGID_1_" cx="562.7" cy="562.7" r="562.7"/>
	</defs>
	<clipPath id="SVGID_2_">
		<use xlink:href="#SVGID_1_"  style="overflow:visible;"/>
	</clipPath>
	<g class="st0">
		<rect x="277.9" y="1068.7" class="st1" width="133.6" height="206.1"/>
		<rect x="288.4" y="1068.7" class="st2" width="133.6" height="206.1"/>
		<rect x="299" y="1079.3" class="st3" width="123" height="195.5"/>
	</g>
	<g class="st0">
		<rect x="482" y="1068.7" class="st1" width="133.6" height="206.1"/>
		<rect x="492.6" y="1068.7" class="st2" width="133.6" height="206.1"/>
		<rect x="503.1" y="1079.3" class="st3" width="123" height="195.5"/>
	</g>
	<g class="st0">
		<rect x="686.2" y="1068.7" class="st1" width="133.6" height="206.1"/>
		<rect x="696.7" y="1068.7" class="st2" width="133.6" height="206.1"/>
		<rect x="707.3" y="1079.3" class="st3" width="123" height="195.5"/>
	</g>
	<g class="st0">
		<circle class="st4" cx="562.7" cy="562.7" r="562.7"/>
		<g>
			<rect x="407.6" y="366.9" class="st5" width="75.6" height="73.8"/>
			<rect x="642.2" y="366.9" class="st5" width="75.6" height="73.8"/>
		</g>
		<rect x="216" y="492.9" class="st6" width="693.5" height="890"/>
		<rect x="180.8" y="426.1" class="st6" width="763.9" height="66.9"/>
		<rect x="216" y="492.9" class="st1" width="693.5" height="24"/>
		<g>
			<rect x="277.9" y="561.9" class="st1" width="133.6" height="206.1"/>
			<rect x="288.4" y="561.9" class="st2" width="133.6" height="206.1"/>
			<rect x="299" y="572.4" class="st3" width="123" height="195.5"/>
		</g>
		<g>
			<rect x="482" y="561.9" class="st1" width="133.6" height="206.1"/>
			<rect x="492.6" y="561.9" class="st2" width="133.6" height="206.1"/>
			<rect x="503.1" y="572.4" class="st3" width="123" height="195.5"/>
		</g>
		<g>
			<rect x="686.2" y="561.9" class="st1" width="133.6" height="206.1"/>
			<rect x="696.7" y="561.9" class="st2" width="133.6" height="206.1"/>
			<rect x="707.3" y="572.4" class="st3" width="123" height="195.5"/>
		</g>
		<g>
			<rect x="277.9" y="815.3" class="st1" width="133.6" height="206.1"/>
			<rect x="288.4" y="815.3" class="st2" width="133.6" height="206.1"/>
			<rect x="299" y="825.9" class="st3" width="123" height="195.5"/>
		</g>
		<g>
			<rect x="482" y="815.3" class="st1" width="133.6" height="206.1"/>
			<rect x="492.6" y="815.3" class="st2" width="133.6" height="206.1"/>
			<rect x="503.1" y="825.9" class="st3" width="123" height="195.5"/>
		</g>
		<g>
			<rect x="686.2" y="815.3" class="st1" width="133.6" height="206.1"/>
			<rect x="696.7" y="815.3" class="st2" width="133.6" height="206.1"/>
			<rect x="707.3" y="825.9" class="st3" width="123" height="195.5"/>
		</g>
		<g>
			<rect x="210.9" y="201.4" class="st7" width="703.6" height="183.2"/>
			<g>
				<g>
					<path class="st8" d="M262.3,260.8h29.4c14.4,0,23.3,8.8,23.3,20.9c0,8.1-4.1,14.7-11,18.3c8,3.5,12.8,10.9,12.8,19.9
						c0,13-10.1,23-25.3,23h-29.2V260.8z M279,294.7h8.9c6.6,0,10.7-4.5,10.7-10.5c0-6.2-4-10.4-10.4-10.4H279V294.7z M279,330h9.6
						c7.2,0,11.7-5,11.7-11.8c0-6.7-4.5-11.5-11.6-11.5H279V330z"/>
					<path class="st8" d="M364.8,312.7h16.1v4.2c0,16.6-11.1,27.2-26.6,27.2c-15.8,0-26.8-10.2-26.8-26.8v-30.5
						c0-16.6,11.5-27.1,27.2-27.1c15.5,0,26.3,10.1,26.3,26.7v3.4h-16.1v-3.5c0-7.5-4-12-10.4-12c-6.3,0-10.3,4.5-10.3,12v31.1
						c0,7.6,4,12,10.3,12c6.4,0,10.4-4.3,10.4-12V312.7z"/>
					<path class="st8" d="M459.2,342.9l-11-29.9c-0.5,0.1-2.5,0.1-2.8,0.1h-6.1v29.8h-16.5v-82.1h25.9c16.3,0,27.4,11,27.4,26
						c0,9.5-4.9,17.5-12.7,21.7l14.4,34.3H459.2z M439.2,300.4h7.5c7.6,0,12.7-5.5,12.7-12.7c0-7.3-4.8-12.7-12.5-12.7h-7.6V300.4z"
						/>
					<path class="st8" d="M487.2,342.9v-82.1h44.5v14.7h-27.9v18.3H527v13.7h-23.2v20.7h28.5v14.7H487.2z"/>
					<path class="st8" d="M539.9,316.6v-29.3c0-17,11.7-27.7,27.8-27.7c16.2,0,27.3,10.3,27.3,27.3v1.8h-16.5v-1.9
						c0-7.9-4.2-12.5-11-12.5c-6.7,0-10.9,4.7-10.9,12.5v29.4c0,8.8,4.3,13.5,11.4,13.5s11.5-4.7,11.5-13.5v-5.9h-11.6v-12H595v17.8
						c0,17-11.6,27.8-27.7,27.8C551.2,344.1,539.9,333.6,539.9,316.6z"/>
					<path class="st8" d="M608.5,260.8h17.1v82.1h-17.1V260.8z"/>
					<path class="st8" d="M638.9,281.5c0-13,10.8-21.8,24.2-21.8c20.5,0,25,17.8,25,17.8l-13.5,5.4c0,0-2.8-9.4-11.1-9.4
						c-4.5,0-8,2.8-8,7.2c0,5.6,4.3,9.1,12.5,14.1c10.4,6.3,19.1,14.2,19.1,26c0,14.8-11.1,23.3-25.3,23.3
						c-21.2,0-26.7-20.4-26.7-20.4l13.5-5.4c0,0,4.2,12,13.1,12c5.4,0,8.9-3.4,8.9-8.4c0-6.2-4.9-9.8-13.8-15.2
						C646.5,300.4,638.9,292.1,638.9,281.5z"/>
					<path class="st8" d="M726.6,275.9v67.1h-16.6v-67.1h-17.2v-15h51v15H726.6z"/>
					<path class="st8" d="M788.9,342.9l-11-29.9c-0.5,0.1-2.5,0.1-2.8,0.1H769v29.8h-16.5v-82.1h25.9c16.3,0,27.4,11,27.4,26
						c0,9.5-4.9,17.5-12.7,21.7l14.4,34.3H788.9z M769,300.4h7.5c7.6,0,12.7-5.5,12.7-12.7c0-7.3-4.8-12.7-12.5-12.7H769V300.4z"/>
					<path class="st8" d="M830.7,312.4L807,260.8h18.5l13.8,34.9l13.9-34.9h17.6l-23.7,51.6v30.5h-16.5V312.4z"/>
				</g>
				<g>
					<path class="st4" d="M254.5,253h29.4c14.4,0,23.3,8.8,23.3,20.9c0,8.1-4.1,14.7-11,18.3c8,3.5,12.8,10.9,12.8,19.9
						c0,13-10.1,23-25.3,23h-29.2V253z M271.2,286.9h8.9c6.6,0,10.7-4.5,10.7-10.5c0-6.2-4-10.4-10.4-10.4h-9.1V286.9z M271.2,322.2
						h9.6c7.2,0,11.7-5,11.7-11.8c0-6.7-4.5-11.5-11.6-11.5h-9.7V322.2z"/>
					<path class="st4" d="M357,304.8H373v4.2c0,16.6-11.1,27.2-26.6,27.2c-15.8,0-26.8-10.2-26.8-26.8v-30.5
						c0-16.6,11.5-27.1,27.2-27.1c15.5,0,26.3,10.1,26.3,26.7v3.4H357v-3.5c0-7.5-4-12-10.4-12c-6.3,0-10.3,4.5-10.3,12v31.1
						c0,7.6,4,12,10.3,12c6.4,0,10.4-4.3,10.4-12V304.8z"/>
					<path class="st4" d="M451.3,335.1l-11-29.9c-0.5,0.1-2.5,0.1-2.8,0.1h-6.1v29.8h-16.5V253h25.9c16.3,0,27.4,11,27.4,26
						c0,9.5-4.9,17.5-12.7,21.7l14.4,34.3H451.3z M431.4,292.5h7.5c7.6,0,12.7-5.5,12.7-12.7c0-7.3-4.8-12.7-12.5-12.7h-7.6V292.5z"
						/>
					<path class="st4" d="M479.4,335.1V253h44.5v14.7H496V286h23.2v13.7H496v20.7h28.5v14.7H479.4z"/>
					<path class="st4" d="M532.1,308.8v-29.3c0-17,11.7-27.7,27.8-27.7c16.2,0,27.3,10.3,27.3,27.3v1.8h-16.5v-1.9
						c0-7.9-4.2-12.5-11-12.5c-6.7,0-10.9,4.7-10.9,12.5v29.4c0,8.8,4.3,13.5,11.4,13.5c7,0,11.5-4.7,11.5-13.5v-5.9H560v-12h27.2
						v17.8c0,17-11.6,27.8-27.7,27.8C543.4,336.3,532.1,325.8,532.1,308.8z"/>
					<path class="st4" d="M600.7,253h17.1v82.1h-17.1V253z"/>
					<path class="st4" d="M631,273.7c0-13,10.8-21.8,24.2-21.8c20.5,0,25,17.8,25,17.8l-13.5,5.4c0,0-2.8-9.4-11.1-9.4
						c-4.5,0-8,2.8-8,7.2c0,5.6,4.3,9.1,12.5,14.1c10.4,6.3,19.1,14.2,19.1,26c0,14.8-11.1,23.3-25.3,23.3
						c-21.2,0-26.7-20.4-26.7-20.4l13.5-5.4c0,0,4.2,12,13.1,12c5.4,0,8.9-3.4,8.9-8.4c0-6.2-4.9-9.8-13.8-15.2
						C638.7,292.5,631,284.3,631,273.7z"/>
					<path class="st4" d="M718.7,268v67.1h-16.6V268h-17.2v-15h51v15H718.7z"/>
					<path class="st4" d="M781.1,335.1l-11-29.9c-0.5,0.1-2.5,0.1-2.8,0.1h-6.1v29.8h-16.5V253h25.9c16.3,0,27.4,11,27.4,26
						c0,9.5-4.9,17.5-12.7,21.7l14.4,34.3H781.1z M761.2,292.5h7.5c7.6,0,12.7-5.5,12.7-12.7c0-7.3-4.8-12.7-12.5-12.7h-7.6V292.5z"
						/>
					<path class="st4" d="M822.8,304.6L799.2,253h18.5l13.8,34.9l13.9-34.9H863l-23.7,51.6v30.5h-16.5V304.6z"/>
				</g>
			</g>
		</g>
	</g>
</g>
</svg>
