<?xml version="1.0" encoding="utf-8"?>
<!-- Generator: Adobe Illustrator 22.0.1, SVG Export Plug-In . SVG Version: 6.00 Build 0)  -->
<svg version="1.1" id="Layer_1" xmlns="http://www.w3.org/2000/svg" xmlns:xlink="http://www.w3.org/1999/xlink" x="0px" y="0px"
	 viewBox="0 0 1904.4 2118.3" style="enable-background:new 0 0 1904.4 2118.3;" xml:space="preserve">
<style type="text/css">
	.st0{fill:#6C98A7;}
	.st1{fill:none;stroke:#FFFFFF;stroke-width:101.25;stroke-linecap:round;stroke-miterlimit:10;}
	.st2{fill:#1C283E;}
	.st3{fill:#CDE0DE;}
	.st4{fill:#BFCED5;}
	.st5{fill:#DE9D75;}
	.st6{fill:#B1452D;}
	.st7{fill:#C25D42;}
	.st8{fill:none;stroke:#1C283E;stroke-width:37.5105;stroke-linecap:round;stroke-linejoin:round;stroke-miterlimit:10;}
	.st9{fill:#384261;}
	.st10{fill:#F49D73;}
	.st11{fill:#E6E6E6;}
	.st12{fill:#FFFFFF;}
	.st13{fill:#8E6134;}
	.st14{fill:#F9B086;}
	.st15{fill:#B3BDC8;}
	.st16{fill:#C7C6DE;}
	.st17{fill:#8D3A25;}
	.st18{fill:none;stroke:#422B27;stroke-width:15.3;stroke-linecap:round;stroke-miterlimit:10;}
	.st19{fill:#422B27;}
	.st20{fill:none;stroke:#E1775A;stroke-width:11.475;stroke-linecap:round;stroke-miterlimit:10;}
	.st21{fill:#E88C64;}
	.st22{fill:none;stroke:#8D3A25;stroke-width:14.3438;stroke-linecap:round;stroke-miterlimit:10;}
	.st23{fill:none;stroke:#422B27;stroke-width:15.3;stroke-miterlimit:10;}
	.st24{fill:#FABA9A;}
	.st25{enable-background:new    ;}
	.st26{fill:#0A0C1B;}
	.st27{fill:#6A7493;}
	.st28{fill:#914732;}
</style>
<circle class="st0" cx="1001" cy="729" r="729"/>
<path class="st1" d="M722.2,1556.7"/>
<g>
	<path class="st2" d="M1267.5,2080c0,21.2-17.2,38.3-38.3,38.3c-21.2,0-38.3-17.2-38.3-38.3"/>
	<path class="st2" d="M1528.6,2080c0,21.2-17.2,38.3-38.3,38.3c-21.2,0-38.3-17.2-38.3-38.3"/>
	<path class="st2" d="M1737.6,2080c0,21.2-17.2,38.3-38.3,38.3c-21.2,0-38.3-17.2-38.3-38.3"/>
	<rect x="1321.5" y="1621.3" class="st3" width="69.1" height="309.9"/>
	<polygon class="st4" points="1321.5,1622.2 1321.5,1719.2 1390.5,1698 1390.5,1622.2 	"/>
	<polygon class="st2" points="1279.2,1973 1279.2,1994.3 1432.8,1994.3 1432.8,1956.5 	"/>
	<g>
		<path class="st2" d="M1445.5,1578.4c0-20.6-16.9-37.5-37.5-37.5h-104c-20.6,0-37.5,16.9-37.5,37.5v44.3
			c0,20.6,16.9,37.5,37.5,37.5h104c20.6,0,37.5-16.9,37.5-37.5V1578.4z"/>
	</g>
	<g>
		<path class="st2" d="M1572.4,1590c0-17.7-16.9-32.2-37.5-32.2h-357.7c-20.6,0-37.5,14.5-37.5,32.2s16.9,32.2,37.5,32.2h357.7
			C1555.5,1622.2,1572.4,1607.7,1572.4,1590z"/>
	</g>
	<g>
		<path class="st5" d="M1710.9,1541.8c2.8,20.4-11.7,37.2-32.3,37.2h-410.8c-20.6,0-39.8-16.7-42.7-37.2l-31.9-229.7
			c-2.8-20.4-1.2-53.5,3.7-73.6l109-446.1c4.9-20,25.2-40.7,45.2-46l213.2-56c20-5.2,53.2-9.5,73.8-9.5h40.5
			c20.6,0,36.3,16.8,34.8,37.4l-37,519.1c-1.5,20.6-0.3,54.1,2.5,74.6L1710.9,1541.8z"/>
	</g>
	<g>
		<path class="st6" d="M1648.7,1541.8c2.8,20.4-11.7,37.2-32.3,37.2H1214c-20.6,0-39.8-16.7-42.7-37.2l-31.9-229.7
			c-2.8-20.4-1.6-53.7,2.7-73.8l111.2-520.6c4.3-20.2,24.4-33.4,44.6-29.4L1611,750c20.2,4,35.6,24.1,34.2,44.7l-30.9,442.9
			c-1.4,20.6-0.3,54.1,2.6,74.6L1648.7,1541.8z"/>
	</g>
	<g>
		<path class="st7" d="M1197.3,1153.5c-20.6-0.4-34-17.2-29.6-37.4l85.6-398.3c4.3-20.2,24.8-36.7,45.4-36.7h317.8
			c20.6,0,36.3,16.8,34.8,37.4l-29,405.7c-1.5,20.6-19.6,37.1-40.2,36.7L1197.3,1153.5z"/>
	</g>
	<g>
		<path class="st6" d="M1653.9,1519c0,33-27,60-60,60H945.3c-33,0-60-27-60-60v-16.8c0-33,27-60,60-60h648.6c33,0,60,27,60,60V1519z
			"/>
	</g>
	<g>
		<path class="st5" d="M1397.3,1522.7c0,30.9,25.3,56.3,56.3,56.3h165.2c30.9,0,57.6-25.3,59.3-56.2l1.3-24.4
			c1.6-30.9-22.3-56.2-53.3-56.2h-172.5c-30.9,0-56.3,25.3-56.3,56.3V1522.7z"/>
	</g>
	<polyline class="st8" points="1017.7,2006.9 1356,1944.5 1699.2,2006.9 	"/>
	<polyline class="st8" points="1229.2,2006.9 1356,1944.5 1487.8,2006.9 	"/>
	<path class="st2" d="M1056.4,2080c0,21.2-17.2,38.3-38.3,38.3c-21.2,0-38.3-17.2-38.3-38.3"/>
	<g>
		<path class="st2" d="M979.7,2081.9c-3.1,0-5.6-2.5-5.6-5.6c0-24.2,19.7-44,44-44c24.2,0,44,19.7,44,44c0,3.1-2.5,5.6-5.6,5.6
			H979.7z"/>
		<g>
			<path class="st2" d="M1018,2037.9c21.2,0,38.3,17.2,38.3,38.3h-76.7C979.7,2055.1,996.8,2037.9,1018,2037.9 M1018,2026.6
				c-27.3,0-49.6,22.2-49.6,49.6c0,6.2,5,11.3,11.3,11.3h76.7c6.2,0,11.3-5,11.3-11.3C1067.6,2048.9,1045.4,2026.6,1018,2026.6
				L1018,2026.6z"/>
		</g>
	</g>
	<g>
		<path class="st2" d="M1190.8,2081.9c-3.1,0-5.6-2.5-5.6-5.6c0-24.2,19.7-44,44-44c24.2,0,44,19.7,44,44c0,3.1-2.5,5.6-5.6,5.6
			H1190.8z"/>
		<g>
			<path class="st2" d="M1229.2,2037.9c21.2,0,38.3,17.2,38.3,38.3h-76.7C1190.8,2055.1,1208,2037.9,1229.2,2037.9 M1229.2,2026.6
				c-27.3,0-49.6,22.2-49.6,49.6c0,6.2,5,11.3,11.3,11.3h76.7c6.2,0,11.3-5,11.3-11.3C1278.7,2048.9,1256.5,2026.6,1229.2,2026.6
				L1229.2,2026.6z"/>
		</g>
	</g>
	<g>
		<path class="st2" d="M1451.9,2081.9c-3.1,0-5.6-2.5-5.6-5.6c0-24.2,19.7-44,44-44c24.2,0,44,19.7,44,44c0,3.1-2.5,5.6-5.6,5.6
			H1451.9z"/>
		<g>
			<path class="st2" d="M1490.3,2037.9c21.2,0,38.3,17.2,38.3,38.3h-76.7C1451.9,2055.1,1469.1,2037.9,1490.3,2037.9 M1490.3,2026.6
				c-27.3,0-49.6,22.2-49.6,49.6c0,6.2,5,11.3,11.3,11.3h76.7c6.2,0,11.3-5,11.3-11.3C1539.9,2048.9,1517.6,2026.6,1490.3,2026.6
				L1490.3,2026.6z"/>
		</g>
	</g>
	<g>
		<path class="st2" d="M1660.9,2081.9c-3.1,0-5.6-2.5-5.6-5.6c0-24.2,19.7-44,44-44c24.2,0,44,19.7,44,44c0,3.1-2.5,5.6-5.6,5.6
			H1660.9z"/>
		<g>
			<path class="st2" d="M1699.2,2037.9c21.2,0,38.3,17.2,38.3,38.3h-76.7C1660.9,2055.1,1678.1,2037.9,1699.2,2037.9 M1699.2,2026.6
				c-27.3,0-49.6,22.2-49.6,49.6c0,6.2,5,11.3,11.3,11.3h76.7c6.2,0,11.3-5,11.3-11.3C1748.8,2048.9,1726.6,2026.6,1699.2,2026.6
				L1699.2,2026.6z"/>
		</g>
	</g>
	<g>
		<path class="st9" d="M1403.2,1934.9v-88.1c0-10.3-8.4-18.8-18.8-18.8h-56.9c-10.3,0-18.8,8.4-18.8,18.8v88.1"/>
	</g>
	<line class="st8" x1="1018" y1="2050.1" x2="1018" y2="2009.5"/>
	<line class="st8" x1="1229.2" y1="2050.1" x2="1229.2" y2="2009.5"/>
	<line class="st8" x1="1490.3" y1="2050.1" x2="1490.3" y2="2009.5"/>
	<line class="st8" x1="1699.2" y1="2050.1" x2="1699.2" y2="2009.5"/>
</g>
<g>
	<path class="st10" d="M1243.8,640.6l-100.2,314.1l-0.5,1.6c-4.3,13.5-15.3,23-28.1,26.1l-259.2,62.1c-16.8,4-33.8-6.4-37.8-23.2
		c-3.8-16,5.4-32.1,20.8-37.1l253.4-82.7l-28.6,27.7L1163.6,615c7.1-22.1,30.7-34.4,52.9-27.3
		C1238.7,594.8,1250.9,618.5,1243.8,640.6z"/>
</g>
<path class="st11" d="M1096.7,806.7l95.1,33.1l58.9-200.5c9.1-25.9,29.6-81.5,2.1-81.7c-27.9-0.2-78.7,3.3-100.8,66.1
	C1151.7,624.8,1096.7,806.7,1096.7,806.7z"/>
<path class="st12" d="M1185.3,1145.6l-23-500.5c0-45.4,37.9-82.2,84.2-89.5s95.8-8.5,95.8-8.5h74.7c45.4,0,119.8,29.9,128.6,45.7
	l-23,552.7H1185.3z"/>
<path class="st13" d="M1342,742c0-37.4-20.4-146-18.9-155.3l-17.1,7.8c0,0-37.6,59.6-37.6,149.9s0,360,0,360l36.2,26.6l37.4-31.3
	C1342,1099.6,1342,779.3,1342,742z"/>
<g>
	<path class="st14" d="M1560.2,645.7l-115.5,348.7l-0.4,1.2c-5.3,15.9-19.5,26.3-35.2,27.4l-315.9,23.6c-17.9,1.3-33.5-12.1-34.9-30
		c-1.3-17.2,11.2-32.3,28.1-34.7l313.9-42.6l-35.5,28.6l115.5-348.7c7.3-22.1,31.1-34,53.2-26.7
		C1555.6,599.9,1567.5,623.7,1560.2,645.7z"/>
</g>
<path class="st12" d="M1569.7,651.7l-61.4,213.4L1408,821.3l67.1-200.3c7.5-26.4,35-41.8,61.5-34.2c26.4,7.5,41.8,35,34.2,61.5
	C1570.5,649.4,1570.1,650.6,1569.7,651.7z"/>
<path class="st9" d="M1522.7,1145.6h-337.4l-1.2,151.7c1.9,62.9,68.7,97.2,154.5,95.3c85.8-1.9,183.1-15.3,184.1-89.6
	C1523.2,1263,1522.7,1145.6,1522.7,1145.6z"/>
<path class="st2" d="M1185.3,1145.6l-0.4,50h337.9c-0.1-28.1-0.2-50-0.2-50H1185.3z"/>
<rect x="1266.6" y="1145.6" class="st15" width="76.4" height="50"/>
<path class="st10" d="M877.4,1039.1c-65.4,20-56.7-9.2-83-2.4c-21.7,5.6-15.6,18.8-40.5,23.4l-43,10.2c-18.3,5-25.9-5.7-6.1-33.9
	c8.4-11.9,32-40,70.7-48.7c51.7-14.1,54.9-2.6,99.5-15.4C875,972.3,889.2,1036.9,877.4,1039.1z"/>
<path class="st14" d="M1123.3,1044.2c-69.8,10.4-56.4-14.4-82.7-7.5c-21.7,5.6-15.6,18.8-40.5,23.4l-43,10.2
	c-18.3,5-25.9-5.7-6.1-33.9c8.4-11.9,32-40,70.7-48.7c51.7-14.1,52.2-2.9,100.6-10.4C1122.2,977.3,1135.1,1042.1,1123.3,1044.2z"/>
<path class="st16" d="M1379,507.1c-59.6,0-107.9,3.5-107.9,7.8c0,4.3,24.9,7.8,55.6,7.8c59.6,0,107.9-3.5,107.9-7.8
	C1434.6,510.6,1409.7,507.1,1379,507.1z"/>
<rect x="1284" y="417.5" class="st10" width="136.3" height="130.1"/>
<path class="st17" d="M1346.4,316.3c-2.6,54.6,27.3,100.4,66.9,102.3c39.6,1.9,73.8-40.8,76.4-95.4l4.5-91l-145.3-5.1L1346.4,316.3z
	"/>
<path class="st10" d="M1304,127.6l-9.4,373.7c91.9,0,154.9-67.6,154.9-129.7c0-30.7,0-79.2,0-109.1
	C1449.5,203.9,1390.7,127.6,1304,127.6z"/>
<polygon class="st17" points="1496.1,204.9 1298.5,180.1 1292.1,313.7 1489.7,323.2 "/>
<path class="st17" d="M1360.8,76.2h-29.2v7.2c-52.8,17.5-106.1,49.9-106.1,106.1h90.7V318c74.7,0,135.3-34.6,135.3-105.6l44.6-7.7
	C1496.1,133.8,1435.5,76.2,1360.8,76.2z"/>
<path class="st17" d="M1451.6,189.5c0-71-45.3-113.3-120-113.3c-74.7,0-150.6,42.3-150.6,113.3S1241.5,318,1316.2,318
	C1391,318,1451.6,260.5,1451.6,189.5z"/>
<line class="st18" x1="1286" y1="288" x2="1169.3" y2="288"/>
<line class="st18" x1="1286" y1="288" x2="1169.3" y2="299.5"/>
<path class="st14" d="M1404.7,233.8c0-58.6-39.9-106.1-103.3-106.1s-114.8,47.5-114.8,106.1c0,26.8,11.6,41.4,11.3,69.9
	c-0.3,28.5-13.6,51.1-13.6,85.2c0,48.1,25.8,89.2,68.7,105.3c12.5,4.7,26.4,7.2,41.5,7.2c67.2,0,110.2-50.4,110.2-112.5
	C1404.7,358.1,1404.7,263.7,1404.7,233.8z"/>
<path class="st14" d="M1248.3,501.3c-12.5,0-22.7-10-22.9-22.5c-0.2-12.7,0-23.4,0-23.4l69.2-0.8c0.1,0-0.1,0,0,0
	c12.5,0,15.6,10,15.8,22.5c0.2,12.7-3.1,23.9-15.8,24.2l-45.8,0C1248.6,501.3,1248.5,501.3,1248.3,501.3z"/>
<path class="st19" d="M1239.2,291.1c0,8.2-6.7,15-15,15c-8.3,0.1-15-6.6-15-14.8c0-8.2,6.7-15,15-15
	C1232.5,276.2,1239.2,282.8,1239.2,291.1z"/>
<path class="st19" d="M1342.6,291.1c0,8.2-6.7,15-15,15c-8.3,0.1-15-6.6-15-14.8c0-8.2,6.7-15,15-15
	C1335.9,276.2,1342.6,282.8,1342.6,291.1z"/>
<line class="st20" x1="1236" y1="422" x2="1296.6" y2="422"/>
<path class="st17" d="M1260.4,380.7c-50.7-0.6-62.2,32.8-62.2,32.8c7.8,7.8,47.5,6.9,62.2,2"/>
<path class="st17" d="M1259.5,380.7l-7.7,17.9l7.7,16.9c14.7,4.9,69.7,5.9,77.5-2C1337,413.5,1315.7,379.5,1259.5,380.7z"/>
<path class="st21" d="M1233.3,367.4c4.2,9.9,15,16.6,27.3,16.6c11.5,0,21.9-5.8,26.4-14.8c2.8-5.7-0.6-7.9-2.8-6.7
	c-6.5,3.7-14.7,6-23.7,6c-8.7,0-16.7-2.1-23.1-5.7C1235.1,361.5,1231.4,363,1233.3,367.4z"/>
<line class="st22" x1="1304.9" y1="236" x2="1357.9" y2="242.4"/>
<line class="st22" x1="1233.7" y1="240.6" x2="1184.6" y2="248.7"/>
<path class="st23" d="M1247.6,302.4c0,22.2-18.2,40.4-40.6,40.6s-40.6-17.7-40.6-40c0-22.2,18.2-40.4,40.6-40.6
	S1247.6,280.1,1247.6,302.4z"/>
<path class="st23" d="M1366.9,302.3c0,24.7-20.2,44.9-45.1,45.1c-24.9,0.2-45.1-19.7-45.1-44.4s20.2-44.9,45.1-45.1
	C1346.7,257.7,1366.9,277.6,1366.9,302.3z"/>
<ellipse class="st24" cx="1260.4" cy="461" rx="20.9" ry="8.1"/>
<ellipse transform="matrix(0.3934 -0.9194 0.9194 0.3934 549.2804 1245.4738)" class="st24" cx="1218.5" cy="206.5" rx="20" ry="12.7"/>
<path class="st14" d="M1232.7,352.6c0,0,15-30.1,17.6-62.2c0.5-6.6,0.6-13.2-0.1-19.7c18.6,17.5,19.7,31.6,16.8,48.1
	C1264,335.3,1252,351.5,1232.7,352.6z"/>
<line class="st18" x1="1275" y1="285.6" x2="1244.5" y2="285.6"/>
<line class="st18" x1="1486.9" y1="288" x2="1370.3" y2="288"/>
<line class="st18" x1="1486.9" y1="288" x2="1370.3" y2="299.5"/>
<g class="st25">
	<g>
		<path class="st10" d="M1449.5,270.8c-15.3,0-27.7,20-27.7,44.6c0,24.6,12.4,44.6,27.7,44.6c15.3,0,27.7-20,27.7-44.6
			C1477.2,290.8,1464.7,270.8,1449.5,270.8"/>
	</g>
</g>
<polygon class="st13" points="1290.4,538.7 1300.9,607.4 1323.4,609 1369.3,539.4 1320.9,522.7 "/>
<path class="st11" d="M1434.6,514.9c0,4.3-54.1,7.8-113.7,7.8l50.1,70.8c0,0,77.9-11.7,77-35.9L1434.6,514.9z"/>
<path class="st11" d="M1270.8,593.5l50.1-70.8c-30.7,0-49.8-3.5-49.8-7.8l-13.4,43.2C1257.5,575,1262.3,589.5,1270.8,593.5z"/>
<path class="st14" d="M1301.4,127.6c99.9,0.5,123.9,32.4,123.3,54.1c-0.6,21.7-20,45.8-20,71.6l-71.7-57.6L1301.4,127.6z"/>
<path class="st17" d="M1273.1,155.5c39.2-0.5,65.8-36.8,121.3-12.1c-19.2-37.8-146.9-57.4-148.2-20.4
	C1245.4,148.1,1261.1,155.6,1273.1,155.5z"/>
<path class="st2" d="M902.7,1991c-7.4-30.8-23.9-28.2-58.8-25.6c-63.5,4.8-109.5,46.8-138.8,53.6c-23.1,5.3-101.1,5.7-93.8,67.6
	l8.3,31.7l149.4-13.6l56.4-18.1l44.4,15.9l42.2-15.9C911.9,2062.6,908.8,2016.6,902.7,1991z"/>
<polygon class="st26" points="911.9,2086.6 911.9,2118.3 820.6,2118.3 817.7,2094.2 769.6,2118.3 619.6,2118.3 611.2,2086.6 "/>
<path class="st26" d="M780.4,1998.5c17.4-1.5,29.7,1.9,42.8,12c13.8,10.6,59.9,18,67.3-6c7.4-24-10.1-51.6-8.3-79.2
	c1.8-27.6,14.4-94.7,19.9-154.1l-116,13.7c0,49.6,31.1,150.8-8.6,207.9C774.5,1997,777.9,1998.7,780.4,1998.5z"/>
<path class="st2" d="M1124.7,1991c-7.4-30.8-23.9-28.2-58.8-25.6c-63.5,4.8-109.5,46.8-138.8,53.6c-23.1,5.3-101.1,5.7-93.8,67.6
	l8.3,31.7l149.4-13.6l56.4-18.1l44.4,15.9l42.2-15.9C1133.9,2062.6,1130.9,2016.6,1124.7,1991z"/>
<polygon class="st26" points="1133.9,2086.6 1133.9,2118.3 1042.7,2118.3 1039.7,2094.2 991.7,2118.3 841.6,2118.3 833.3,2086.6 "/>
<path class="st26" d="M1002.4,1998.5c17.4-1.5,29.7,1.9,42.8,12c13.8,10.6,59.9,18,67.3-6c7.4-24-10.1-51.6-8.3-79.2
	c1.8-27.6,14.4-94.7,19.9-154.1l-116,13.7c0,49.6,31.1,150.8-8.6,207.9C996.5,1997,999.9,1998.7,1002.4,1998.5z"/>
<path class="st9" d="M1208.5,1223.6l102.5,118.9l-344.1,97.8L910.2,1972l-168.6,0c0,0,43-604.3,45.8-644.8
	c2.9-40.5,19.1-65.1,59.9-69C888.1,1254.4,1208.5,1223.6,1208.5,1223.6z"/>
<polygon class="st2" points="1272.4,1394.5 1225.3,1312.9 905.3,1348.2 841.3,1972 910.2,1972 968.3,1426.7 "/>
<path class="st9" d="M1376.1,1255.9L955.4,1291l20.3,676.3h165.9l3.9-525.1l261.9,0c51.9-0.2,114.6-19.5,115.3-139.2
	c0.5-77.9-78-67.5-78-67.5L1376.1,1255.9z"/>
<rect x="1799.3" y="1103" class="st2" width="58.1" height="1015.3"/>
<rect x="1439" y="1103" class="st9" width="58.1" height="1015.3"/>
<rect x="422" y="1103" class="st2" width="58.1" height="1015.3"/>
<rect x="61.7" y="1103" class="st9" width="58.1" height="1015.3"/>
<polygon class="st9" points="551.4,1006.7 551.4,1096.9 1031.8,1096.9 1001.7,1006.7 "/>
<polygon class="st27" points="1001.7,1006.7 1203.5,1030.7 1203.5,1096.9 1001.7,1096.9 "/>
<line class="st27" x1="1001.7" y1="1096.9" x2="1001.7" y2="1006.7"/>
<rect x="287.7" y="1023" class="st27" width="477.1" height="52.6"/>
<path class="st3" d="M920.9,781.9l-30-589c-0.5-9.6-8.4-17.1-18-17.1H129.3c-4.9,0-9.7,2-13,5.6s-5.2,8.4-4.9,13.3l30,589
	c0.5,9.6,8.4,17.1,18,17.1H903c4.9,0,9.7-2,13-5.6S921.2,786.9,920.9,781.9z"/>
<path class="st12" d="M878.9,781.9l-30-589c-0.5-9.6-8.4-17.1-18-17.1H87.2c-4.9,0-9.7,2-13,5.6c-3.4,3.6-5.2,8.4-4.9,13.3l30,589
	c0.5,9.6,8.4,17.1,18,17.1h743.7c4.9,0,9.7-2,13-5.6S879.2,786.9,878.9,781.9z"/>
<polygon class="st27" points="558,634.8 419.5,634.8 329.4,1036.2 503.8,1036.2 566.1,758.4 "/>
<polygon class="st9" points="557.9,634.8 383.5,634.8 293.4,1036.2 467.8,1036.2 "/>
<rect x="137.6" y="1023" class="st9" width="477.1" height="52.6"/>
<rect y="1067.3" class="st28" width="1568.1" height="73.9"/>
<rect x="1481.5" y="1067.3" class="st7" width="422.9" height="73.9"/>
</svg>
