<?xml version="1.0" encoding="utf-8"?>
<!-- Generator: Adobe Illustrator 22.0.1, SVG Export Plug-In . SVG Version: 6.00 Build 0)  -->
<svg version="1.1" id="Layer_1" xmlns="http://www.w3.org/2000/svg" xmlns:xlink="http://www.w3.org/1999/xlink" x="0px" y="0px"
	 viewBox="0 0 1888.1 2283.7" style="enable-background:new 0 0 1888.1 2283.7;" xml:space="preserve">
<style type="text/css">
	.st0{fill:#6C98A7;}
	.st1{fill:#F9B086;}
	.st2{fill:#E6E6E6;}
	.st3{fill:#FFFFFF;}
	.st4{fill:#273149;}
	.st5{fill:#8E6134;}
	.st6{fill:#1C283E;}
	.st7{fill:#0A0C1B;}
	.st8{fill:#384261;}
	.st9{fill:#B3BDC8;}
	.st10{fill:#F49D73;}
	.st11{fill:#C7C6DE;}
	.st12{fill:#8D3A25;}
	.st13{fill:none;stroke:#422B27;stroke-width:15.3;stroke-linecap:round;stroke-miterlimit:10;}
	.st14{fill:#422B27;}
	.st15{fill:none;stroke:#E1775A;stroke-width:11.475;stroke-linecap:round;stroke-miterlimit:10;}
	.st16{fill:#E88C64;}
	.st17{fill:none;stroke:#8D3A25;stroke-width:14.3438;stroke-linecap:round;stroke-miterlimit:10;}
	.st18{fill:none;stroke:#422B27;stroke-width:15.3;stroke-miterlimit:10;}
	.st19{fill:#FABA9A;}
	.st20{enable-background:new    ;}
	.st21{fill:#BD3435;}
	.st22{font-family:'URWDock-Bold';}
	.st23{font-size:194.4px;}
	.st24{clip-path:url(#SVGID_2_);}
	.st25{clip-path:url(#SVGID_4_);}
	.st26{clip-path:url(#SVGID_6_);}
	.st27{clip-path:url(#SVGID_8_);}
	.st28{fill:#9ECAD9;}
	.st29{fill:#7A4D20;}
	.st30{fill:#B47943;}
	.st31{fill:#32150B;}
</style>
<circle class="st0" cx="890" cy="897.7" r="729"/>
<g>
	<g>
		<path class="st1" d="M723.7,564.4L623.4,878.5L623,880c-6.8,21.3-29.6,33.1-51,26.3c-0.6-0.2-1.3-0.5-1.9-0.7l-265.6-99.9
			c-16.2-6.1-24.4-24.2-18.3-40.4c5.8-15.4,22.6-23.6,38.1-19.1l272.4,79.5l-53.4,27.1l100.2-314.1c7.1-22.1,30.7-34.4,52.9-27.3
			C718.6,518.5,730.7,542.3,723.7,564.4z"/>
	</g>
	<path class="st2" d="M576.6,730.5l95.1,33.1l58.9-200.5c9.1-25.9,29.6-81.5,2.1-81.7c-27.9-0.2-78.7,3.3-100.8,66.1
		C631.6,548.6,576.6,730.5,576.6,730.5z"/>
	<path class="st3" d="M665.2,1069.4l-23-500.5c0-45.4,37.9-82.2,84.2-89.5c46.4-7.3,95.8-8.5,95.8-8.5H897
		c45.4,0,119.8,29.9,128.6,45.7l-23,552.7L665.2,1069.4L665.2,1069.4z"/>
	<g>
		<path class="st1" d="M1030.1,538.9l84.1,264.2l0.3,0.8c1.2,3.9,1.8,8,1.7,11.9l-9.6,424.4c-0.4,18-15.3,32.2-33.3,31.8
			c-17.4-0.4-31.4-14.5-31.8-31.8l-9.5-424.4l2,12.8l-84.1-264.2c-7-22.1,5.2-45.8,27.3-52.9C999.3,504.5,1023,516.7,1030.1,538.9z"
			/>
	</g>
	<path class="st3" d="M1041.4,538.9l51.1,187.7l-88.5,34.2l-57.7-192.5c-9.1-25.9,4.6-54.3,30.6-63.4c25.9-9.1,54.3,4.6,63.4,30.6
		C1040.7,536.6,1041.1,537.8,1041.4,538.9z"/>
	<path class="st4" d="M1002.5,1069.4H665.2l-1.2,151.7c1.9,62.9,68.7,97.2,154.5,95.3s183.1-15.3,184.1-89.6
		C1003.1,1186.8,1002.5,1069.4,1002.5,1069.4z"/>
	<path class="st5" d="M821.9,665.8c0-37.4-20.4-146-18.9-155.3l-17.1,7.8c0,0-37.6,59.6-37.6,149.9s0,360,0,360l36.2,26.6l37.4-31.3
		C821.9,1023.4,821.9,703.1,821.9,665.8z"/>
	<path class="st6" d="M756.2,2156.3c-7.4-30.8-23.9-28.2-58.8-25.6c-63.5,4.8-109.5,46.8-138.8,53.6c-23.1,5.3-101.1,5.7-93.8,67.6
		l8.3,31.7l149.4-13.6l56.4-18.1l44.4,15.9l42.2-15.9C765.4,2228,762.4,2181.9,756.2,2156.3z"/>
	<polygon class="st7" points="765.4,2252 765.4,2283.7 674.2,2283.7 671.2,2259.6 623.2,2283.7 473.1,2283.7 464.8,2252 	"/>
	<path class="st7" d="M633.9,2163.9c17.4-1.5,29.7,1.9,42.8,12c13.8,10.6,59.9,18,67.3-6c7.4-24-10.1-51.6-8.3-79.2
		s14.4-94.7,19.9-154.1l-116,13.7c0,49.6,31.1,150.8-8.6,207.9C628,2162.4,631.4,2164.1,633.9,2163.9z"/>
	<path class="st6" d="M978.2,2156.3c-7.4-30.8-23.9-28.2-58.8-25.6c-63.5,4.8-109.5,46.8-138.8,53.6c-23.1,5.3-101.1,5.7-93.8,67.6
		l8.3,31.7l149.4-13.6l56.4-18.1l44.4,15.9l42.2-15.9C987.4,2228,984.4,2181.9,978.2,2156.3z"/>
	<polygon class="st7" points="987.4,2252 987.4,2283.7 896.2,2283.7 893.3,2259.6 845.2,2283.7 695.2,2283.7 686.8,2252 	"/>
	<path class="st7" d="M856,2163.9c17.4-1.5,29.7,1.9,42.8,12c13.8,10.6,59.9,18,67.3-6c7.4-24-10.1-51.6-8.3-79.2
		c1.8-27.6,14.4-94.7,19.9-154.1l-116,13.7c0,49.6,31.1,150.8-8.6,207.9C850,2162.4,853.5,2164.1,856,2163.9z"/>
	<polygon class="st8" points="668.7,1102.2 871.8,1123 763.8,2137.4 595.1,2137.4 	"/>
	<polygon class="st6" points="871.8,1123 802.9,1123 694.9,2137.4 763.8,2137.4 	"/>
	<polygon class="st6" points="786,1336 761.3,1262.1 805,1295.4 804,1325.6 	"/>
	<polygon class="st8" points="798.6,1112.5 1002.8,1112.5 995.1,2132.7 829.2,2132.7 	"/>
	
		<rect x="737.4" y="1134.6" transform="matrix(0.5251 -0.8511 0.8511 0.5251 -640.2418 1271.4955)" class="st8" width="163.4" height="149.5"/>
	<path class="st6" d="M665.2,1069.4l-0.4,50h337.9c-0.1-28.1-0.2-50-0.2-50H665.2z"/>
	<rect x="746.5" y="1069.4" class="st9" width="76.4" height="50"/>
	<path class="st10" d="M168.3,736.2c-19-9.8-51-27.3-51-27.3c-10.8-5.6-23.9,11.6,1.9,34.4c10.9,9.6,32.1,22.3,50,31.1L168.3,736.2z
		"/>
	<path class="st10" d="M310,743.8c-24-17.4-50-39.8-75-39.4s-53.4-0.4-53.4-0.4c0.9,25.4,30.9,23.2,44.3,24
		c8.4,12.2,30.3,18.6,40.8,21.5S310,743.8,310,743.8z"/>
	<path class="st1" d="M324.9,746.9c-28.8-7.7-16.5-14.6-43.6-15.1c-22.4-0.5-99,2-139.8,3.8c-19-9.8-40.3-21.7-40.3-21.7
		c-10.8-5.6-23.9,11.6,1.9,34.4c10.9,9.6,32.1,22.3,50,31.1c0,0,92.2,6.8,100.5,7.3c8.3,0.6,30.9,11.8,54.2,20.1"/>
	<path class="st1" d="M1041.9,1212.8c-0.5,29.8-16.5,58.3-12.4,92.5c4.9,40.6,12.1,67.9,28.4,62.1c10.5-3.7-7.2-65.9,2.9-88.8
		c1.6-3.7,2.5-43.1,2.5-43.1L1041.9,1212.8z"/>
	<path class="st1" d="M1107.2,1189.2c1.2,52.9,21.7,38.9,27.2,133.5c1,16.9,9.2,49.6-13.5,71.5c-20.9,20.1-56.8,32.7-53.5,10.5
		c6.7-44.9-2.6-119.9-13.4-112.7l-6-44L1107.2,1189.2z"/>
	<g>
		<path class="st11" d="M858.9,430.9c-59.6,0-107.9,3.5-107.9,7.8s24.9,7.8,55.6,7.8c59.6,0,107.9-3.5,107.9-7.8
			C914.4,434.4,889.6,430.9,858.9,430.9z"/>
		<rect x="763.9" y="341.3" class="st10" width="136.3" height="130.1"/>
		<path class="st12" d="M826.3,240.1c-2.6,54.6,27.3,100.4,66.9,102.3c39.6,1.9,73.8-40.8,76.4-95.4l4.5-91l-145.3-5.1L826.3,240.1z
			"/>
		<path class="st10" d="M783.8,51.4l-9.4,373.7c91.9,0,154.9-67.6,154.9-129.7c0-30.7,0-79.2,0-109.1
			C929.3,127.7,870.5,51.4,783.8,51.4z"/>
		<polygon class="st12" points="976,128.7 778.4,103.9 771.9,237.5 969.5,247 		"/>
		<path class="st12" d="M840.7,0h-29.2v7.2c-52.8,17.5-106.1,49.9-106.1,106.1h90.7v128.6c74.7,0,135.3-34.6,135.3-105.6l44.6-7.7
			C976,57.6,915.4,0,840.7,0z"/>
		<path class="st12" d="M931.4,113.3c0-71-45.3-113.3-120-113.3S660.8,42.3,660.8,113.3s60.6,128.6,135.3,128.6
			S931.4,184.3,931.4,113.3z"/>
		<line class="st13" x1="765.8" y1="211.8" x2="649.2" y2="211.8"/>
		<line class="st13" x1="765.8" y1="211.8" x2="649.2" y2="223.3"/>
		<path class="st1" d="M884.6,157.6c0-58.6-39.9-106.1-103.3-106.1S666.5,98.9,666.5,157.6c0,26.8,11.6,41.4,11.3,69.9
			s-13.6,51.1-13.6,85.2c0,48.1,25.8,89.2,68.7,105.3c12.5,4.7,26.4,7.2,41.5,7.2c67.2,0,110.2-50.4,110.2-112.5
			C884.6,281.9,884.6,187.5,884.6,157.6z"/>
		<path class="st1" d="M728.2,425.1c-12.5,0-22.7-10-22.9-22.5c-0.2-12.7,0-23.4,0-23.4l69.2-0.8c0.1,0-0.1,0,0,0
			c12.5,0,15.6,10,15.8,22.5c0.2,12.7-3.1,23.9-15.8,24.2h-45.8C728.5,425.1,728.3,425.1,728.2,425.1z"/>
		<path class="st14" d="M719.1,214.9c0,8.2-6.7,15-15,15c-8.3,0.1-15-6.6-15-14.8s6.7-15,15-15C712.3,200,719.1,206.6,719.1,214.9z"
			/>
		<path class="st14" d="M822.4,214.9c0,8.2-6.7,15-15,15c-8.3,0.1-15-6.6-15-14.8s6.7-15,15-15C815.7,200,822.4,206.6,822.4,214.9z"
			/>
		<line class="st15" x1="715.9" y1="345.8" x2="776.4" y2="345.8"/>
		<path class="st12" d="M740.3,304.5c-50.7-0.6-62.2,32.8-62.2,32.8c7.8,7.8,47.5,6.9,62.2,2"/>
		<path class="st12" d="M739.3,304.5l-7.7,17.9l7.7,16.9c14.7,4.9,69.7,5.9,77.5-2C816.8,337.3,795.5,303.3,739.3,304.5z"/>
		<path class="st16" d="M713.1,291.2c4.2,9.9,15,16.6,27.3,16.6c11.5,0,21.9-5.8,26.4-14.8c2.8-5.7-0.6-7.9-2.8-6.7
			c-6.5,3.7-14.7,6-23.7,6c-8.7,0-16.7-2.1-23.1-5.7C714.9,285.3,711.2,286.8,713.1,291.2z"/>
		<line class="st17" x1="784.7" y1="159.8" x2="837.7" y2="166.2"/>
		<line class="st17" x1="713.5" y1="164.4" x2="664.5" y2="172.5"/>
		<path class="st18" d="M727.4,226.2c0,22.2-18.2,40.4-40.6,40.6s-40.6-17.7-40.6-40s18.2-40.4,40.6-40.6
			C709.2,186,727.4,203.9,727.4,226.2z"/>
		<path class="st18" d="M846.8,226.1c0,24.7-20.2,44.9-45.1,45.1c-24.9,0.2-45.1-19.7-45.1-44.4s20.2-44.9,45.1-45.1
			S846.8,201.4,846.8,226.1z"/>
		<ellipse class="st19" cx="740.3" cy="384.8" rx="20.9" ry="8.1"/>
		
			<ellipse transform="matrix(0.3934 -0.9194 0.9194 0.3934 303.8366 721.0538)" class="st19" cx="698.3" cy="130.3" rx="20" ry="12.7"/>
		<path class="st1" d="M712.5,276.4c0,0,15-30.1,17.6-62.2c0.5-6.6,0.6-13.2-0.1-19.7c18.6,17.5,19.7,31.6,16.8,48.1
			S731.8,275.3,712.5,276.4z"/>
		<line class="st13" x1="754.8" y1="209.4" x2="724.3" y2="209.4"/>
		<line class="st13" x1="966.8" y1="211.8" x2="850.2" y2="211.8"/>
		<line class="st13" x1="966.8" y1="211.8" x2="850.2" y2="223.3"/>
		<g class="st20">
			<g>
				<path class="st10" d="M929.3,194.6c-15.3,0-27.7,20-27.7,44.6s12.4,44.6,27.7,44.6s27.7-20,27.7-44.6S944.6,194.6,929.3,194.6"
					/>
			</g>
		</g>
		<polygon class="st5" points="770.3,462.5 780.8,531.2 803.3,532.8 849.2,463.2 800.8,446.5 		"/>
		<path class="st2" d="M914.4,438.7c0,4.3-54.1,7.8-113.7,7.8l50.1,70.8c0,0,77.9-11.7,77-35.9L914.4,438.7z"/>
		<path class="st2" d="M750.6,517.3l50.1-70.8c-30.7,0-49.8-3.5-49.8-7.8l-13.4,43.2C737.3,498.8,742.1,513.3,750.6,517.3z"/>
		<path class="st1" d="M781.3,51.4c99.9,0.5,123.9,32.4,123.3,54.1s-20,45.8-20,71.6L813,119.6L781.3,51.4z"/>
		<path class="st12" d="M753,79.3c39.2-0.5,65.8-36.8,121.3-12.1c-19.2-37.8-147-57.4-148.2-20.4C725.3,71.9,740.9,79.4,753,79.3z"
			/>
	</g>
</g>
<polygon class="st21" points="198,228.2 235.8,265.8 286.2,248.3 303.9,298.6 356.8,304.7 351,357.7 396,386.1 367.8,431.3 
	396,476.5 351,505 356.8,558 303.9,564.1 286.2,614.3 235.8,596.9 198,634.4 160.2,596.9 109.9,614.3 92.2,564.1 39.2,558 45.1,505 
	0,476.5 28.2,431.3 0,386.1 45.1,357.7 39.2,304.7 92.2,298.6 109.9,248.3 160.2,265.8 "/>
<rect x="394.4" y="1545.4" class="st6" width="1247.6" height="289.7"/>
<text transform="matrix(1 0 0 1 704.2633 1759.7216)" class="st7 st22 st23">ISSUER</text>
<g class="st20">
	<path class="st3" d="M736.1,1753.2h-24.3v-129.7h24.3V1753.2z"/>
	<path class="st3" d="M827.8,1662.6c-0.6-9.3-0.8-13.6-3.1-16.5c-2.7-3.3-6.8-4.7-20.4-4.7c-16.5,0-19.6,2.5-19.6,15
		c0,9.1,2.7,12.6,11.9,15.6l27.6,9.3c21,7,29,16.9,29,36.2c0,15-4.7,25.3-14.2,31.3c-7.2,4.7-16.3,6.6-32.3,6.6
		c-22.9,0-34.8-3.9-42-13.6c-4.7-6.6-6.6-12.1-7.4-29.9h24.5c0.4,11.9,0.8,14.2,2.3,16.9c2.5,4.1,9.1,6,22.5,6
		c9.5,0,15.6-0.8,18.9-3.7c2.9-2.5,3.1-5.8,3.1-13.2c0-9.3-2.9-13.2-12.8-16.5l-27.8-9.1c-18.5-6.2-26.6-16.9-26.6-35.2
		c0-24.7,13-35.6,43-35.6c15.9,0,24.5,1.6,31.3,5.4c13,7.6,15.2,17.7,16.1,35.8H827.8z"/>
	<path class="st3" d="M943.1,1662.6c-0.6-9.3-0.8-13.6-3.1-16.5c-2.7-3.3-6.8-4.7-20.4-4.7c-16.5,0-19.6,2.5-19.6,15
		c0,9.1,2.7,12.6,11.9,15.6l27.6,9.3c21,7,29,16.9,29,36.2c0,15-4.7,25.3-14.2,31.3c-7.2,4.7-16.3,6.6-32.3,6.6
		c-22.9,0-34.8-3.9-42-13.6c-4.7-6.6-6.6-12.1-7.4-29.9H897c0.4,11.9,0.8,14.2,2.3,16.9c2.5,4.1,9.1,6,22.5,6
		c9.5,0,15.6-0.8,18.9-3.7c2.9-2.5,3.1-5.8,3.1-13.2c0-9.3-2.9-13.2-12.8-16.5l-27.8-9.1c-18.5-6.2-26.6-16.9-26.6-35.2
		c0-24.7,13-35.6,43-35.6c15.9,0,24.5,1.6,31.3,5.4c13,7.6,15.2,17.7,16.1,35.8H943.1z"/>
	<path class="st3" d="M1014.4,1623.6v86.9c0,10.5,0.4,16.5,3.3,19.8c3.5,3.7,10.5,4.3,24.5,4.3c13.6,0,20.6-0.6,24.3-4.3
		c3.1-3.3,3.5-9.1,3.5-19.8v-86.9h24.3v86.9c0,18.9-3.1,29.5-11.3,36.2c-8.2,6.8-15.9,8.7-40.8,8.7s-32.7-1.9-40.8-8.7
		c-8.2-6.6-11.3-17.3-11.3-36.2v-86.9H1014.4z"/>
	<path class="st3" d="M1146.1,1644.2v33h56.6v20.6h-56.6v34.8h62.6v20.6H1122v-129.7h85.1v20.6H1146.1z"/>
	<path class="st3" d="M1300.8,1753.2l-21.6-43.7h-26v43.7h-24.3v-129.7h46.5c21.6,0,32.5,3.1,39.7,11.3c6.2,7,9.1,16.7,9.1,31.5
		c0,15-2.9,24.7-9.1,31.9c-3.1,3.5-7,6.2-11.5,7.8l23.9,47.2H1300.8z M1252.8,1688.7h17.5c10.1,0,21.4,0,25.1-2.5
		c3.9-2.7,4.9-8,4.9-19.6s-1-17.1-4.9-19.8c-3.5-2.5-15-2.3-25.1-2.3h-17.5V1688.7z"/>
</g>
<g>
	<g>
		<defs>
			<circle id="SVGID_1_" cx="1536.4" cy="644.3" r="351.7"/>
		</defs>
		<clipPath id="SVGID_2_">
			<use xlink:href="#SVGID_1_"  style="overflow:visible;"/>
		</clipPath>
		<g class="st24">
			<rect x="1358.4" y="960.5" class="st5" width="83.5" height="128.8"/>
			<rect x="1365" y="960.5" class="st6" width="83.5" height="128.8"/>
			<rect x="1371.6" y="967.1" class="st8" width="76.9" height="122.2"/>
		</g>
	</g>
	<g>
		<defs>
			<circle id="SVGID_3_" cx="1536.4" cy="644.3" r="351.7"/>
		</defs>
		<clipPath id="SVGID_4_">
			<use xlink:href="#SVGID_3_"  style="overflow:visible;"/>
		</clipPath>
		<g class="st25">
			<rect x="1486" y="960.5" class="st5" width="83.5" height="128.8"/>
			<rect x="1492.6" y="960.5" class="st6" width="83.5" height="128.8"/>
			<rect x="1499.2" y="967.1" class="st8" width="76.9" height="122.2"/>
		</g>
	</g>
	<g>
		<defs>
			<circle id="SVGID_5_" cx="1536.4" cy="644.3" r="351.7"/>
		</defs>
		<clipPath id="SVGID_6_">
			<use xlink:href="#SVGID_5_"  style="overflow:visible;"/>
		</clipPath>
		<g class="st26">
			<rect x="1613.6" y="960.5" class="st5" width="83.5" height="128.8"/>
			<rect x="1620.2" y="960.5" class="st6" width="83.5" height="128.8"/>
			<rect x="1626.8" y="967.1" class="st8" width="76.9" height="122.2"/>
		</g>
	</g>
	<g>
		<defs>
			<circle id="SVGID_7_" cx="1536.4" cy="644.3" r="351.7"/>
		</defs>
		<clipPath id="SVGID_8_">
			<use xlink:href="#SVGID_7_"  style="overflow:visible;"/>
		</clipPath>
		<g class="st27">
			<circle class="st28" cx="1536.4" cy="644.3" r="351.7"/>
			<g>
				<rect x="1439.5" y="521.9" class="st29" width="47.2" height="46.1"/>
				<rect x="1586.1" y="521.9" class="st29" width="47.2" height="46.1"/>
			</g>
			<rect x="1319.7" y="600.6" class="st30" width="433.4" height="556.2"/>
			<rect x="1297.7" y="558.9" class="st30" width="477.4" height="41.8"/>
			<rect x="1319.7" y="600.6" class="st5" width="433.4" height="15"/>
			<g>
				<rect x="1358.4" y="643.7" class="st5" width="83.5" height="128.8"/>
				<rect x="1365" y="643.7" class="st6" width="83.5" height="128.8"/>
				<rect x="1371.6" y="650.3" class="st8" width="76.9" height="122.2"/>
			</g>
			<g>
				<rect x="1486" y="643.7" class="st5" width="83.5" height="128.8"/>
				<rect x="1492.6" y="643.7" class="st6" width="83.5" height="128.8"/>
				<rect x="1499.2" y="650.3" class="st8" width="76.9" height="122.2"/>
			</g>
			<g>
				<rect x="1613.6" y="643.7" class="st5" width="83.5" height="128.8"/>
				<rect x="1620.2" y="643.7" class="st6" width="83.5" height="128.8"/>
				<rect x="1626.8" y="650.3" class="st8" width="76.9" height="122.2"/>
			</g>
			<g>
				<rect x="1358.4" y="802.1" class="st5" width="83.5" height="128.8"/>
				<rect x="1365" y="802.1" class="st6" width="83.5" height="128.8"/>
				<rect x="1371.6" y="808.7" class="st8" width="76.9" height="122.2"/>
			</g>
			<g>
				<rect x="1486" y="802.1" class="st5" width="83.5" height="128.8"/>
				<rect x="1492.6" y="802.1" class="st6" width="83.5" height="128.8"/>
				<rect x="1499.2" y="808.7" class="st8" width="76.9" height="122.2"/>
			</g>
			<g>
				<rect x="1613.6" y="802.1" class="st5" width="83.5" height="128.8"/>
				<rect x="1620.2" y="802.1" class="st6" width="83.5" height="128.8"/>
				<rect x="1626.8" y="808.7" class="st8" width="76.9" height="122.2"/>
			</g>
			<g>
				<rect x="1316.5" y="418.4" class="st5" width="439.7" height="114.5"/>
				<g>
					<g>
						<path class="st31" d="M1348.7,455.6h18.4c9,0,14.6,5.5,14.6,13c0,5.1-2.6,9.2-6.9,11.4c5,2.2,8,6.8,8,12.5
							c0,8.1-6.3,14.4-15.8,14.4h-18.2L1348.7,455.6L1348.7,455.6z M1359.1,476.8h5.6c4.1,0,6.7-2.8,6.7-6.6c0-3.9-2.5-6.5-6.5-6.5
							h-5.7L1359.1,476.8L1359.1,476.8z M1359.1,498.8h6c4.5,0,7.3-3.2,7.3-7.4c0-4.2-2.8-7.2-7.3-7.2h-6.1L1359.1,498.8
							L1359.1,498.8z"/>
						<path class="st31" d="M1412.7,488h10v2.6c0,10.4-7,17-16.6,17c-9.9,0-16.8-6.4-16.8-16.8v-19c0-10.4,7.2-16.9,17-16.9
							c9.7,0,16.4,6.3,16.4,16.7v2.1h-10v-2.2c0-4.7-2.5-7.5-6.5-7.5s-6.4,2.8-6.4,7.5v19.4c0,4.8,2.5,7.5,6.4,7.5
							c4,0,6.5-2.7,6.5-7.5V488z"/>
						<path class="st31" d="M1471.7,506.9l-6.9-18.7c-0.3,0.1-1.5,0.1-1.8,0.1h-3.8v18.6h-10.3v-51.3h16.2
							c10.2,0,17.1,6.9,17.1,16.3c0,5.9-3.1,10.9-7.9,13.6l9,21.5h-11.6V506.9z M1459.2,480.3h4.7c4.8,0,7.9-3.4,7.9-7.9
							s-3-7.9-7.8-7.9h-4.8L1459.2,480.3L1459.2,480.3z"/>
						<path class="st31" d="M1489.2,506.9v-51.3h27.8v9.2h-17.4v11.4h14.5v8.6h-14.5v13h17.8v9.2h-28.2V506.9z"/>
						<path class="st31" d="M1522.2,490.5v-18.3c0-10.6,7.3-17.3,17.4-17.3s17.1,6.4,17.1,17.1v1.1h-10.3v-1.2
							c0-4.9-2.6-7.8-6.9-7.8c-4.2,0-6.8,2.9-6.8,7.8v18.4c0,5.5,2.7,8.4,7.1,8.4s7.2-2.9,7.2-8.4v-3.7h-7.3v-7.5h17v11.1
							c0,10.6-7.3,17.4-17.3,17.4C1529.2,507.6,1522.2,501.1,1522.2,490.5z"/>
						<path class="st31" d="M1565,455.6h10.7v51.3H1565V455.6z"/>
						<path class="st31" d="M1584,468.5c0-8.1,6.7-13.6,15.1-13.6c12.8,0,15.6,11.1,15.6,11.1l-8.4,3.4c0,0-1.8-5.9-7-5.9
							c-2.8,0-5,1.8-5,4.5c0,3.5,2.7,5.7,7.8,8.8c6.5,4,11.9,8.9,11.9,16.3c0,9.2-7,14.6-15.8,14.6c-13.3,0-16.7-12.7-16.7-12.7
							l8.4-3.4c0,0,2.6,7.5,8.2,7.5c3.4,0,5.6-2.1,5.6-5.3c0-3.9-3.1-6.2-8.6-9.5C1588.8,480.3,1584,475.2,1584,468.5z"/>
						<path class="st31" d="M1638.8,465v41.9h-10.4V465h-10.8v-9.4h31.9v9.4H1638.8z"/>
						<path class="st31" d="M1677.8,506.9l-6.9-18.7c-0.3,0.1-1.5,0.1-1.8,0.1h-3.8v18.6H1655v-51.3h16.2c10.2,0,17.1,6.9,17.1,16.3
							c0,5.9-3.1,10.9-7.9,13.6l9,21.5h-11.6V506.9z M1665.3,480.3h4.7c4.8,0,7.9-3.4,7.9-7.9s-3-7.9-7.8-7.9h-4.8L1665.3,480.3
							L1665.3,480.3z"/>
						<path class="st31" d="M1703.9,487.8l-14.8-32.2h11.6l8.6,21.8l8.7-21.8h11l-14.8,32.2v19h-10.3L1703.9,487.8L1703.9,487.8z"/>
					</g>
					<g>
						<path class="st3" d="M1343.8,450.7h18.4c9,0,14.6,5.5,14.6,13c0,5.1-2.6,9.2-6.9,11.4c5,2.2,8,6.8,8,12.5
							c0,8.1-6.3,14.4-15.8,14.4h-18.2L1343.8,450.7L1343.8,450.7z M1354.2,471.9h5.6c4.1,0,6.7-2.8,6.7-6.6c0-3.9-2.5-6.5-6.5-6.5
							h-5.7L1354.2,471.9L1354.2,471.9z M1354.2,493.9h6c4.5,0,7.3-3.2,7.3-7.4c0-4.2-2.8-7.2-7.3-7.2h-6.1L1354.2,493.9
							L1354.2,493.9z"/>
						<path class="st3" d="M1407.8,483.1h10v2.6c0,10.4-7,17-16.6,17c-9.9,0-16.8-6.4-16.8-16.8v-19c0-10.4,7.2-16.9,17-16.9
							c9.7,0,16.4,6.3,16.4,16.7v2.1h-10v-2.2c0-4.7-2.5-7.5-6.5-7.5s-6.4,2.8-6.4,7.5V486c0,4.8,2.5,7.5,6.4,7.5
							c4,0,6.5-2.7,6.5-7.5V483.1z"/>
						<path class="st3" d="M1466.8,502l-6.9-18.7c-0.3,0.1-1.5,0.1-1.8,0.1h-3.8V502H1444v-51.3h16.2c10.2,0,17.1,6.9,17.1,16.3
							c0,5.9-3.1,10.9-7.9,13.6l9,21.5h-11.6V502z M1454.4,475.4h4.7c4.8,0,7.9-3.4,7.9-7.9s-3-7.9-7.8-7.9h-4.8L1454.4,475.4
							L1454.4,475.4z"/>
						<path class="st3" d="M1484.3,502v-51.3h27.8v9.2h-17.4v11.4h14.5v8.6h-14.5v13h17.8v9.2h-28.2V502z"/>
						<path class="st3" d="M1517.3,485.6v-18.3c0-10.6,7.3-17.3,17.4-17.3s17.1,6.4,17.1,17.1v1.1h-10.3V467c0-4.9-2.6-7.8-6.9-7.8
							c-4.2,0-6.8,2.9-6.8,7.8v18.4c0,5.5,2.7,8.4,7.1,8.4s7.2-2.9,7.2-8.4v-3.7h-7.3v-7.5h17v11.1c0,10.6-7.3,17.4-17.3,17.4
							C1524.3,502.7,1517.3,496.2,1517.3,485.6z"/>
						<path class="st3" d="M1560.2,450.7h10.7V502h-10.7V450.7z"/>
						<path class="st3" d="M1579.1,463.6c0-8.1,6.7-13.6,15.1-13.6c12.8,0,15.6,11.1,15.6,11.1l-8.4,3.4c0,0-1.8-5.9-7-5.9
							c-2.8,0-5,1.8-5,4.5c0,3.5,2.7,5.7,7.8,8.8c6.5,4,11.9,8.9,11.9,16.3c0,9.2-7,14.6-15.8,14.6c-13.3,0-16.7-12.7-16.7-12.7
							l8.4-3.4c0,0,2.6,7.5,8.2,7.5c3.4,0,5.6-2.1,5.6-5.3c0-3.9-3.1-6.2-8.6-9.5C1583.9,475.4,1579.1,470.3,1579.1,463.6z"/>
						<path class="st3" d="M1633.9,460.1V502h-10.4v-41.9h-10.8v-9.4h31.9v9.4H1633.9z"/>
						<path class="st3" d="M1672.9,502l-6.9-18.7c-0.3,0.1-1.5,0.1-1.8,0.1h-3.8V502h-10.3v-51.3h16.2c10.2,0,17.1,6.9,17.1,16.3
							c0,5.9-3.1,10.9-7.9,13.6l9,21.5h-11.6V502z M1660.5,475.4h4.7c4.8,0,7.9-3.4,7.9-7.9s-3-7.9-7.8-7.9h-4.8L1660.5,475.4
							L1660.5,475.4z"/>
						<path class="st3" d="M1699,482.9l-14.8-32.2h11.6l8.6,21.8l8.7-21.8h11l-14.8,32.2v19H1699V482.9z"/>
					</g>
				</g>
			</g>
		</g>
	</g>
</g>
</svg>
