<?xml version="1.0" encoding="utf-8"?>
<!-- Generator: Adobe Illustrator 22.0.1, SVG Export Plug-In . SVG Version: 6.00 Build 0)  -->
<svg version="1.1" id="Layer_1" xmlns="http://www.w3.org/2000/svg" xmlns:xlink="http://www.w3.org/1999/xlink" x="0px" y="0px"
	 viewBox="0 0 1458 1666.3" style="enable-background:new 0 0 1458 1666.3;" xml:space="preserve">
<style type="text/css">
	.st0{fill:#6C98A7;}
	.st1{fill:#1C283E;}
	.st2{fill:#0A0C1B;}
	.st3{fill:#FFFFFF;}
	.st4{fill:#B47943;}
	.st5{fill:#E0A865;}
	.st6{fill:#372A1B;}
</style>
<circle class="st0" cx="729" cy="729" r="729"/>
<g>
	<rect x="105.2" y="1376.7" class="st1" width="1247.6" height="289.7"/>
	<g>
		<path class="st2" d="M423.1,1461.3v109.1h61.2v20.6h-85.5v-129.7H423.1z"/>
		<path class="st2" d="M527.8,1481.9v33h56.6v20.6h-56.6v34.8h62.6v20.6h-86.7v-129.7h85.1v20.6H527.8z"/>
		<path class="st2" d="M610.6,1591v-129.7h51.9c19.8,0,29.7,3.1,39.3,13.4c10.9,11.7,11.1,30.7,11.1,51.7c0,21-0.2,39.9-11.1,51.5
			c-9.5,10.3-19.4,13-39.3,13H610.6z M634.8,1570.4H661c12.8,0,18.3-1.7,21.8-6c4.5-5.8,5.6-13.2,5.6-38.1c0-25.1-1.2-32.5-5.6-38.3
			c-3.5-4.3-8.9-6-21.8-6h-26.2V1570.4z"/>
		<path class="st2" d="M813.4,1502.2c-0.8-9.5-1.6-15-4.1-18.1c-2.9-3.9-8.9-4.1-21.4-4.1c-16.3,0-20,1.2-22.5,4.3
			c-3.3,4.1-4.3,12.8-4.3,41.8c0,29.2,1.4,38.5,4.3,42c2.5,3.1,6.2,4.3,22.5,4.3c16.7,0,21.4-1,23.9-4.1c3.3-4.1,4.1-9.1,4.5-26.6
			h-26.6V1521h50.9v13.6c0,27.2-2.7,38.7-11.5,47.8c-7.4,8-16.9,10.7-40.4,10.7c-23.5,0-32.5-2.3-41-10.5
			c-8.2-8-11.3-19.2-11.3-56.4c0-37.3,3.1-48.6,11.3-56.6c8.6-8.2,17.5-10.5,41-10.5c16.7,0,22.9,1,30.3,4.9
			c11.9,5.8,16.5,15.6,18.5,38.1H813.4z"/>
		<path class="st2" d="M889.6,1481.9v33h56.6v20.6h-56.6v34.8h62.6v20.6h-86.7v-129.7h85.1v20.6H889.6z"/>
		<path class="st2" d="M1044.3,1591l-21.6-43.7h-26v43.7h-24.3v-129.7h46.5c21.6,0,32.5,3.1,39.7,11.3c6.2,7,9.1,16.7,9.1,31.5
			c0,15-2.9,24.7-9.1,31.9c-3.1,3.5-7,6.2-11.5,7.8l23.9,47.2H1044.3z M996.3,1526.5h17.5c10.1,0,21.4,0,25.1-2.5
			c3.9-2.7,4.9-8,4.9-19.6c0-11.7-1-17.1-4.9-19.8c-3.5-2.5-15-2.3-25.1-2.3h-17.5V1526.5z"/>
	</g>
	<g>
		<path class="st3" d="M416.6,1454.9v109.1h61.2v20.6h-85.5v-129.7H416.6z"/>
		<path class="st3" d="M521.3,1475.5v33h56.6v20.6h-56.6v34.8h62.6v20.6h-86.7v-129.7h85.1v20.6H521.3z"/>
		<path class="st3" d="M604.2,1584.5v-129.7h51.9c19.8,0,29.7,3.1,39.3,13.4c10.9,11.7,11.1,30.7,11.1,51.7c0,21-0.2,39.9-11.1,51.5
			c-9.5,10.3-19.4,13-39.3,13H604.2z M628.3,1563.9h26.2c12.8,0,18.3-1.7,21.8-6c4.5-5.8,5.6-13.2,5.6-38.1
			c0-25.1-1.2-32.5-5.6-38.3c-3.5-4.3-8.9-6-21.8-6h-26.2V1563.9z"/>
		<path class="st3" d="M806.9,1495.7c-0.8-9.5-1.6-15-4.1-18.1c-2.9-3.9-8.9-4.1-21.4-4.1c-16.3,0-20,1.2-22.5,4.3
			c-3.3,4.1-4.3,12.8-4.3,41.8c0,29.2,1.4,38.5,4.3,42c2.5,3.1,6.2,4.3,22.5,4.3c16.7,0,21.4-1,23.9-4.1c3.3-4.1,4.1-9.1,4.5-26.6
			h-26.6v-20.6h50.9v13.6c0,27.2-2.7,38.7-11.5,47.8c-7.4,8-16.9,10.7-40.4,10.7c-23.5,0-32.5-2.3-41-10.5
			c-8.2-8-11.3-19.2-11.3-56.4c0-37.3,3.1-48.6,11.3-56.6c8.6-8.2,17.5-10.5,41-10.5c16.7,0,22.9,1,30.3,4.9
			c11.9,5.8,16.5,15.6,18.5,38.1H806.9z"/>
		<path class="st3" d="M883.1,1475.5v33h56.6v20.6h-56.6v34.8h62.6v20.6H859v-129.7h85.1v20.6H883.1z"/>
		<path class="st3" d="M1037.9,1584.5l-21.6-43.7h-26v43.7h-24.3v-129.7h46.5c21.6,0,32.5,3.1,39.7,11.3c6.2,7,9.1,16.7,9.1,31.5
			c0,15-2.9,24.7-9.1,31.9c-3.1,3.5-7,6.2-11.5,7.8l23.9,47.2H1037.9z M989.8,1520h17.5c10.1,0,21.4,0,25.1-2.5
			c3.9-2.7,4.9-8,4.9-19.6c0-11.7-1-17.1-4.9-19.8c-3.5-2.5-15-2.3-25.1-2.3h-17.5V1520z"/>
	</g>
</g>
<path class="st4" d="M1265.1,492.8l-610.1-0.2l-103-103.1l-358.7-0.1c-34,0-61.8,27.8-61.8,61.8l-0.3,807.8l1195.4,0.4l0.2-704.8
	C1326.8,520.6,1299,492.8,1265.1,492.8z"/>
<rect x="224.8" y="543.4" class="st3" width="989.2" height="272.2"/>
<rect x="131.3" y="636.9" class="st5" width="1195.4" height="622.2"/>
<path class="st6" d="M1165.4,1124.5c-17.2,14.4-36.6,26-57.4,34.5c-27.3,11.3-56.2,16.7-85.6,16.5l-196.2-1.9
	c-26.5-0.3-52.6-5.3-77.5-15c-2.3-0.9-4.7-1.9-6.9-2.9l-0.8-0.3c-26-11.3-49.3-27.3-69.2-47.6c-15.4-15.7-28.3-33.6-38.4-53.1
	c-2.9-5.6-5.6-11.4-7.9-17c-11.2-27.2-16.7-56-16.4-85.5c0.3-29.5,6.4-58.2,18.1-85.2c2.4-5.6,5.2-11.3,8.2-16.9l1.3-2.3l2.6,0.4
	c33.3,4.6,62.6,25.1,78.5,54.9l0.9,1.6l-0.7,1.7c-6.4,14.8-9.8,30.5-9.9,46.8c-0.2,16.3,2.9,32.1,9,47c18.5,44.8,61.7,74.1,110,74.6
	l197.2,3.1c28.6,0.3,57.4-8.5,79.4-26.9c0,0,0,0,0,0c27.1-22.7,41.7-57.2,42.1-92.4c0.6-66.4-53.3-121.6-119.6-122.2L827.6,834
	l-1.3-2c-9.2-15.6-20.4-30-34-43.9c-12.1-12.3-25.7-23.4-40.3-32.9l-6.5-4.2l7.2-2.7c25-9.2,51.2-13.8,77.7-13.5l196.1,1.9
	c29.4,0.3,58.1,6.4,85.2,18.2c25.9,11.3,49.2,27.3,69.2,47.7c19.9,20.3,35.5,43.9,46.3,70.1c11.2,27.2,16.7,56,16.4,85.5
	c-0.3,29.6-6.4,58.2-18.1,85.2c-11.3,26-27.2,49.4-47.5,69.3C1174,1116.8,1169.8,1120.8,1165.4,1124.5L1165.4,1124.5z"/>
<path class="st1" d="M1223.7,874.1c-10.6-25.8-25.9-48.9-45.5-68.9c-19.6-19.9-42.4-35.8-68-46.9c-26.5-11.5-54.7-17.6-83.7-17.9
	l-196.1-1.9c-26.3-0.3-51.9,4.3-76.4,13.3c14.8,9.5,28.5,20.7,41,33.4c13.3,13.6,24.8,28.2,34.5,44.6c0,0,0,0,0.1,0l196.1,1.9
	c68.6,0.7,123.6,57,122.9,125.5c-0.7,68.6-56.8,123.8-125.3,123.1l-196.1-1.9c0,0,0,0-0.1,0c-51.4-0.5-95.1-32.3-113.6-76.9
	c-6.2-14.9-9.5-31.4-9.3-48.5c0.2-17.2,3.8-33.5,10.3-48.3c-15-28.1-42.8-48.4-75.6-52.9c-2.9,5.4-5.6,10.9-8.1,16.6
	c-11.5,26.5-17.5,54.7-17.8,83.7c-0.3,29,5.2,57.3,16.2,84c2.3,5.7,4.9,11.3,7.8,16.7c9.9,19.1,22.5,36.6,37.7,52.1
	c19.6,19.9,42.4,35.7,68,46.8c2.5,1.1,5.1,2.2,7.6,3.2c24.3,9.5,49.8,14.5,76.1,14.7l196.1,1.9c29,0.3,57.3-5.2,84-16.2
	c25.8-10.6,48.9-25.9,68.9-45.5c19.9-19.6,35.7-42.4,46.8-68c11.5-26.5,17.5-54.7,17.8-83.7C1240.1,929.1,1234.7,900.8,1223.7,874.1
	z"/>
<path class="st6" d="M705.2,1158.1c-25,9.2-51.2,13.8-77.7,13.5l-196.1-1.9c-29.4-0.3-58.1-6.4-85.2-18.2
	c-25.9-11.3-49.2-27.3-69.2-47.7c-19.9-20.3-35.5-43.9-46.3-70.1c-11.2-27.2-16.7-56-16.4-85.5c0.3-29.6,6.4-58.2,18.1-85.2
	c11.3-26,27.3-49.3,47.6-69.2c4.1-4,8.4-8,12.8-11.6c17.2-14.4,36.5-26.1,57.3-34.7c27.3-11.2,56.1-16.8,85.5-16.5l196.1,1.9
	c26.5,0.3,52.6,5.3,77.5,15c2.3,0.9,4.7,1.9,6.9,2.9l0.8,0.3c26,11.3,49.3,27.3,69.2,47.6c15.4,15.7,28.3,33.6,38.4,53.1
	c2.9,5.6,5.5,11.3,7.9,17c11.2,27.2,16.7,56,16.4,85.5c-0.3,29.5-6.4,58.2-18.1,85.2c-2.4,5.6-5.2,11.3-8.2,16.9l-1.3,2.3l-2.6-0.4
	c-33.3-4.6-62.6-25.1-78.5-54.9l-0.9-1.6l0.7-1.7c6.4-14.8,9.8-30.5,9.9-46.8c0.2-16.3-2.9-32.1-9-47c-18.5-44.8-61.7-74.1-110-74.6
	l-196.2-1.9c-28.6-0.3-56.4,9.7-78.3,28.1c-27.1,22.7-42.8,56-43.1,91.2c-0.6,66.4,52.8,121,119.1,121.6l196.1,1.9l2.2-0.1l1.2,2
	c9.2,15.6,20.3,30,33.9,43.8c12.1,12.3,25.7,23.4,40.3,32.8l6.5,4.2L705.2,1158.1z"/>
<path class="st1" d="M234.3,1032.3c10.6,25.8,25.9,48.9,45.5,68.9c19.6,19.9,42.4,35.8,68,46.9c26.5,11.5,54.7,17.6,83.7,17.9
	l196.1,1.9c26.3,0.3,51.9-4.3,76.4-13.3c-14.8-9.5-28.5-20.7-41-33.4c-13.3-13.6-24.8-28.2-34.5-44.6c0,0,0,0-0.1,0l-196.1-1.9
	c-68.6-0.7-123.6-57-122.9-125.5c0.7-68.6,56.8-123.8,125.3-123.1l196.1,1.9c0,0,0,0,0.1,0c51.4,0.5,95.1,32.3,113.5,76.9
	c6.2,14.9,9.5,31.4,9.3,48.5c-0.2,17.2-3.8,33.5-10.3,48.3c15,28.1,42.8,48.4,75.6,52.9c2.9-5.4,5.6-10.9,8.1-16.6
	c11.5-26.5,17.5-54.7,17.8-83.7c0.3-29-5.2-57.3-16.1-84c-2.4-5.7-4.9-11.3-7.8-16.7c-9.9-19.1-22.5-36.6-37.7-52.1
	c-19.6-19.9-42.4-35.7-68-46.8c-2.5-1.1-5.1-2.2-7.6-3.2c-24.3-9.5-49.8-14.5-76.1-14.7l-196.1-1.9c-29-0.3-57.3,5.2-84,16.2
	c-25.8,10.6-48.9,25.9-68.9,45.5c-19.9,19.6-35.7,42.5-46.8,68c-11.5,26.5-17.5,54.7-17.8,83.7
	C217.9,977.3,223.3,1005.6,234.3,1032.3z"/>
</svg>
