<?xml version="1.0" encoding="utf-8"?>
<!-- Generator: Adobe Illustrator 22.0.1, SVG Export Plug-In . SVG Version: 6.00 Build 0)  -->
<svg version="1.1" id="Layer_1" xmlns="http://www.w3.org/2000/svg" xmlns:xlink="http://www.w3.org/1999/xlink" x="0px" y="0px"
	 viewBox="0 0 1846.3 1436.4" style="enable-background:new 0 0 1846.3 1436.4;" xml:space="preserve">
<style type="text/css">
	.st0{fill:#9ECAD9;}
	.st1{fill:#1A3F45;}
	.st2{fill:none;}
	.st3{fill:#FFFFFF;}
	.st4{fill:none;stroke:#1A3F45;stroke-width:26.4;stroke-miterlimit:10;}
	.st5{fill:#5E796C;}
</style>
<g>
	
		<rect x="88.4" y="136.1" transform="matrix(0.9848 -0.1736 0.1736 0.9848 -110.6894 171.2105)" class="st0" width="1669.5" height="1164.2"/>
	<g>
		<path class="st1" d="M451.6,975.3l-27.8-19.5l-38.5,6.8l-14.8-10.4L351.5,845l10.4-14.8l56.3-9.9l14.8,10.4l18.9,107.2l-5.5,7.8
			l17.3,12.3L451.6,975.3z M391.9,939.9l35.4-6.2l-16-90.7l-35.4,6.2L391.9,939.9z"/>
		<path class="st1" d="M547.2,819.1l-11.7,2.1l17.4,98.9l-10.4,14.8l-53.3,9.4l-14.8-10.4L457,835l-11.7,2.1l-3.7-20.8l45.3-8
			l3.7,20.8l-10.6,1.9l16,90.7l32.4-5.7l-16-90.7l-10.6,1.9l-3.7-20.8l45.3-8L547.2,819.1z"/>
		<path class="st1" d="M668.4,891.2l3.7,20.8l-45.7,8.1l-3.6-20.4l10.3-1.8l-7.8-20l-27.3,4.8l-0.5,21.4l10.4-1.8l3.6,20.4l-45.2,8
			l-3.7-20.8l11.4-2l5.9-95.2l-14.9,2.6l-3.6-20.2l49.1-8.7l46.1,106.8L668.4,891.2z M617.9,859.1l-18.2-46.1l-1.2,49.5L617.9,859.1
			z"/>
		<path class="st1" d="M751.9,848.1l8.5,48.3L677,911.2l-3.7-20.8l12.7-2.2l-16-90.7l-12.7,2.2l-3.7-20.8l50.8-9l3.7,20.8l-15.1,2.7
			l16,90.7l27.6-4.9l-4.8-27.5L751.9,848.1z"/>
		<path class="st1" d="M785.4,777.1l16,90.7l12.6-2.2l3.7,20.8l-48.3,8.5l-3.7-20.8l12.7-2.2l-16-90.7l-12.7,2.2l-3.7-20.8l48.3-8.5
			l3.7,20.8L785.4,777.1z"/>
		<path class="st1" d="M870.4,782.2l-3.4-19.5l-26.3,4.6l6.5,37.1l32.1-5.7l3.7,20.8l-32.1,5.7l5.8,32.8l15.9-2.8l3.7,20.8
			l-51.6,9.1l-3.7-20.8l12.7-2.2l-16-90.7l-12.7,2.2l-3.7-20.8l82.6-14.6l7.1,40.4L870.4,782.2z"/>
		<path class="st1" d="M933.3,751l16,90.7l12.6-2.2l3.7,20.8l-48.3,8.5l-3.7-20.8l12.7-2.2l-16-90.7l-12.7,2.2l-3.7-20.8l48.3-8.5
			l3.7,20.8L933.3,751z"/>
		<path class="st1" d="M1056,831.4l-10.4,14.8l-56.3,9.9l-14.8-10.4l-18.9-107.2l10.4-14.8l56.3-9.9l14.8,10.4l5.5,31.4l-23,4.1
			l-4.1-23.2l-35.4,6.2l16,90.7l35.4-6.2l-4.1-23.2l23-4.1L1056,831.4z"/>
		<path class="st1" d="M1169.5,802.8l3.7,20.8l-45.7,8.1l-3.6-20.4l10.3-1.8l-7.8-20l-27.3,4.8l-0.5,21.4l10.4-1.8l3.6,20.4l-45.2,8
			l-3.7-20.8l11.4-2l5.9-95.2l-14.9,2.6l-3.6-20.2l49.1-8.7l46.1,106.8L1169.5,802.8z M1119,770.8l-18.2-46.1l-1.2,49.5L1119,770.8z
			"/>
		<path class="st1" d="M1247.9,721.6l-20.2,3.6l-4.5-25.3l-16.9,3l16,90.7l15.1-2.7l3.7,20.8l-53.1,9.4l-3.7-20.8l15.1-2.7l-16-90.7
			l-16.9,3l4.5,25.3l-20.5,3.6l-8.1-46.2l97.4-17.2L1247.9,721.6z"/>
		<path class="st1" d="M1287.2,688.6l16,90.7l12.6-2.2l3.7,20.8l-48.3,8.5l-3.7-20.8l12.7-2.2l-16-90.7l-12.7,2.2l-3.7-20.8
			l48.3-8.5l3.7,20.8L1287.2,688.6z"/>
		<path class="st1" d="M1391,661.8l18.9,107.2l-10.4,14.8l-56.3,9.9l-14.8-10.4l-18.9-107.2l10.4-14.8l56.3-9.9L1391,661.8z
			 M1334.1,680.3l16,90.7l35.4-6.2l-16-90.7L1334.1,680.3z"/>
		<path class="st1" d="M1509.8,649.3l-12.7,2.2l19.7,111.5l-22.7,4l-52-80.2l11.6,65.8l13.1-2.3l3.7,20.8l-47,8.3l-3.7-20.8
			l12.7-2.2l-16-90.7l-12.7,2.2l-3.7-20.8l35.6-6.3l51.7,79.6l-11.5-65.2l-12.7,2.2l-3.7-20.8l46.7-8.2L1509.8,649.3z"/>
	</g>
	<g>
		<path class="st1" d="M460,648.3c-1.9-5-7.8-8.4-17.5-6.6c-23.3,4.1-40.9,33.3-35.4,64.1c4.4,25,21.2,37.9,43.4,34
			c22.2-3.9,41.1-22.6,49-49.9c3.2-0.4,8.2,1.3,10.2,3c-8.6,33.3-28.9,62.6-64.3,68.8c-32.9,5.8-58.9-13-65.1-48.2
			c-6.9-39.2,13.7-84,56.4-91.5c29.4-5.2,45.7,11.2,48.5,27.4c2,11.4-2.5,23.5-14.1,25.5c-7.9,1.4-15.5-3.9-17-12
			C453.1,657,455.5,651.5,460,648.3z"/>
		<path class="st1" d="M594.7,677.8c-7,27-22.5,49.3-51,54.4c-24.5,4.3-42.5-6.8-46.5-29.7c-4.4-25,9.8-54.4,38.3-59.5
			c18.4-3.2,31.7,5.7,34,18.4c2.5,14.4-8.3,35.2-45.2,40.7c3.9,9.5,12.5,14,24.1,12c15.9-2.8,29.6-17,36.1-39.3
			C587.6,674.4,592.7,676.1,594.7,677.8z M522,691.1c20.3-3.9,27.7-14.4,26.4-21.7c-0.7-3.8-3.6-6.9-9.6-5.8
			C528.4,665.4,521.5,677.7,522,691.1z"/>
		<path class="st1" d="M584.5,674.8c2.1-8.2,4.1-17.3,5.6-26.4c-4.1-2.7-7.1-6.4-8-11.7c-1.5-8.4,3.8-16,11.9-17.5
			c6-1.1,11,1.3,14,5l-2.7,13.6l4.8,0.9c19.1,4,30.2,9,27.7,29.6l-2.2,18.5c-0.8,5.9-0.1,11.3,4.9,10.4c7.4-1.3,14.8-15.7,20.6-35.9
			c3.2-0.4,8.2,1.3,10.2,3c-7,27-19.1,48.2-38,51.6c-19.4,3.4-23.2-15.5-21.4-30.3l2.1-16.2c1.1-9.2,0.8-13.6-6.2-15.1l-7.8-1.9
			c-1.2,8.4-3,17.1-5.2,25.5C591.4,678.2,586.3,676.5,584.5,674.8z"/>
		<path class="st1" d="M655.6,623.4l10.1-1.8l2.7-22.3l25.2-11.9l-3.8,30l21.8-3.9l-2.3,19.2l-22,3.9l-4.4,35.9
			c-1.5,12,2.9,16.7,10.1,15.5c11.4-2,21.2-19.3,26.3-36.9c3.2-0.4,8.2,1.3,10.2,3c-6.9,26.6-19.1,48.2-41.6,52.2
			c-23.8,4.2-30.7-15.4-28.1-36.3l3.4-29.1l-9.9,1.8L655.6,623.4z"/>
		<path class="st1" d="M748.1,607.1l-7.3,59.3c-0.9,7.5,1.1,12.9,7.5,11.8c9.3-1.6,16-15.6,22-36.1c3.2-0.4,8.2,1.3,10.2,3
			c-7.2,27.7-18.6,48.2-38.7,51.7c-19.4,3.4-27-11.8-24.6-32l6.6-53.4L748.1,607.1z M736.4,569.9c8.1-1.4,15.4,3.9,16.8,11.9
			c1.4,7.9-3.6,15.1-11.7,16.6c-7.9,1.4-15.1-3.6-16.5-11.6C723.5,578.8,728.4,571.3,736.4,569.9z"/>
		<path class="st1" d="M811.5,680.7c4.7,7.2,6.2,17,4.7,28.8c-2.1,17.3-9.7,34-30.2,37.6c-22.7,4-27.4-15-25.3-31.2l15.9-129.2
			c2.4-19,12.3-28.8,23.7-30.8c15.6-2.7,28.8,9.4,27.1,29.7c-4.2,48.7-12.7,58.5-35.5,68.7l-1.6,12.9c6.3,1.8,11.8,2.2,16.8,1.3
			c16.7-2.9,25.1-20.3,30.3-38.3c3.2-0.4,8.2,1.3,10.2,3C842.5,653,833.6,675.1,811.5,680.7z M788.8,680.6l-4.9,39.2
			c-0.8,6.1,1.2,10.7,6.8,9.7c6.6-1.2,10.8-8.6,12.6-21.3c2-14-1-23.4-8.3-26.5C793.1,681.5,791,681,788.8,680.6z M794,638.5
			c13.3-6.6,16.8-17,20.6-53.3c0.8-8.3-3.1-11.9-7.4-11.1c-3.1,0.6-5.6,3.2-6.5,9.7L794,638.5z"/>
		<path class="st1" d="M866.2,586.2l-7.3,59.3c-0.9,7.5,1.1,12.9,7.5,11.8c9.3-1.6,16-15.6,22-36.1c3.2-0.4,8.2,1.3,10.2,3
			c-7.2,27.7-18.6,48.2-38.7,51.7c-19.4,3.4-27-11.8-24.6-32l6.6-53.4L866.2,586.2z M854.5,549.1c8.1-1.4,15.4,3.9,16.8,11.9
			s-3.6,15.1-11.7,16.6c-7.9,1.4-15.1-3.6-16.5-11.6C841.6,558,846.6,550.5,854.5,549.1z"/>
		<path class="st1" d="M935.2,591.8c-1.4-0.4-3.2-0.5-5.1-0.1c-12.2,2.2-21.3,19.5-18.4,35.7c2.4,13.6,11.8,20.6,25.7,18.2
			c15.7-2.8,29.6-17,36.1-39.3c3.2-0.4,8.2,1.3,10.2,3c-7,27-22.5,49.3-51,54.4c-24.5,4.3-42.5-6.8-46.5-29.5
			c-4.3-24.7,9.5-54.6,39.1-59.8c20.7-3.6,32.5,7.4,34.6,19.3c1.6,8.9-2.3,19.2-12.3,20.9c-7.4,1.3-14.5-3.6-15.8-11
			C931.1,599.2,932.4,594.9,935.2,591.8z"/>
		<path class="st1" d="M1058.6,552.3l-7.5,61.2c-0.8,5.9-0.2,11.3,4.9,10.4c7.4-1.3,14.8-15.7,20.6-35.9c3.2-0.4,8.2,1.3,10.2,3
			c-7,27-19.1,48.2-38,51.6c-10.8,1.9-16.7-3-19.6-10.4c-6,9.6-14.7,16.4-25.1,18.2c-16.5,2.9-29.6-6-33-25.4
			c-4.9-27.6,9.8-60.6,35.9-65.2c10.4-1.8,19.6,2,25.5,10.9l1.8-14.1L1058.6,552.3z M1013.8,581.7c-11.4,2-20.1,20.6-17.5,35
			c1.6,8.9,7.1,13.2,14.4,12c11.7-2.1,20.4-20.7,17.8-35.2C1026.9,584.7,1021.1,580.4,1013.8,581.7z"/>
		<path class="st1" d="M1071.2,550.1l10.1-1.8l2.7-22.3l25.2-11.9l-3.8,30l21.8-3.9l-2.3,19.2l-22,3.9l-4.4,35.9
			c-1.5,12,2.9,16.7,10.1,15.5c11.4-2,21.2-19.3,26.3-36.9c3.2-0.4,8.2,1.3,10.2,3c-6.9,26.6-19.1,48.2-41.6,52.2
			c-23.8,4.2-30.7-15.4-28.1-36.3l3.4-29.1l-9.9,1.8L1071.2,550.1z"/>
		<path class="st1" d="M1230.2,565.7c-7,27-22.5,49.3-51,54.4c-24.5,4.3-42.5-6.8-46.5-29.7c-4.4-25,9.8-54.4,38.3-59.5
			c18.4-3.2,31.7,5.7,34,18.4c2.5,14.4-8.3,35.2-45.2,40.7c3.9,9.5,12.5,14,24.1,12c15.9-2.8,29.6-17,36.1-39.3
			C1223.1,562.4,1228.2,564,1230.2,565.7z M1157.5,579.1c20.3-3.9,27.7-14.4,26.4-21.7c-0.7-3.8-3.6-6.9-9.6-5.8
			C1163.9,553.4,1157,565.7,1157.5,579.1z"/>
		<path class="st1" d="M1369.2,541.2c-5,19.1-15.9,29.1-33.7,33.1c-7.3,11.9-19.1,21.1-34.4,23.8c-22.5,4-40.5-8-44.2-29.2
			c-4.4-25,11.9-55.2,41.6-60.4c22-3.9,40.6,7.7,44.4,29.2c1.3,7.4,0.8,15.2-1.3,22.6c9.1-4.3,14.6-12.1,17.4-22
			C1362.1,537.9,1367.2,539.5,1369.2,541.2z M1316,549.4c1-0.2,2-0.2,2.9-0.2c0-1.9,0-4.1-0.4-6.1c-2.3-12.9-11-16-18.3-14.7
			c-12.6,2.2-22.4,19-19.5,35.3c2.2,12.7,10.6,15.9,17.9,14.6c3.8-0.7,7.4-2.5,10.5-5.4c-2-1.9-3.5-4.5-4.1-7.6
			C1303.7,557.9,1308.6,550.7,1316,549.4z"/>
		<path class="st1" d="M1400.2,576.9c4.7,7.2,6.2,17,4.7,28.8c-2.1,17.3-9.7,34-30.2,37.6c-22.7,4-27.4-15-25.3-31.2l15.9-129.2
			c2.4-19,12.3-28.8,23.7-30.8c15.6-2.7,28.8,9.4,27.1,29.7c-4.2,48.7-12.7,58.5-35.5,68.7l-1.6,12.9c6.3,1.8,11.8,2.2,16.8,1.3
			c16.7-2.9,25.1-20.3,30.3-38.3c3.2-0.4,8.2,1.3,10.2,3C1431.1,549.2,1422.2,571.3,1400.2,576.9z M1377.5,576.8l-4.9,39.2
			c-0.8,6.1,1.2,10.7,6.8,9.7c6.6-1.2,10.8-8.6,12.6-21.3c2-14-1-23.4-8.3-26.5C1381.7,577.7,1379.6,577.3,1377.5,576.8z
			 M1382.7,534.7c13.3-6.6,16.8-17,20.6-53.3c0.8-8.3-3.1-11.9-7.4-11.1c-3.1,0.6-5.6,3.2-6.5,9.7L1382.7,534.7z"/>
	</g>
	<path class="st2" d="M774.1,473.4c-3.3,4.7-2.2,11.3,2.6,14.6c4.7,3.3,11.3,2.2,14.6-2.6c3.3-4.7,2.2-11.3-2.6-14.6
		C784,467.5,777.4,468.6,774.1,473.4z"/>
	<path class="st3" d="M942,394.7c0,0-10-16.4-10.1-16.4c0,0-17.8,0.1-17.8,0.2l-6.5,9.3l-19.5-13.6c14.4-20.5,24.7-35.2,24.7-35.2
		c21.4,3.9,43.3-3.6,55.8-21.5l8.2-11.7c13.9-19.8,11.9-46.3-3-65.9c-0.1-0.1-32.3,45.6-32.3,45.6c-0.1,0.1-31.9-22.2-31.9-22.3
		c0,0,31.9-45.8,31.7-45.9c-23.4-7.1-48.8,0.1-62.6,19.8l-8.2,11.7c-12.5,17.8-12.1,41.1-1.1,59.8c0,0-10.3,14.8-24.6,35.3
		l-50.7-35.5c0,0-13.2-24.7-13.2-24.7c0-0.1-60.1-24.4-60.1-24.4c-0.1,0-16.5,23.4-16.5,23.5l43.3,48.1c0,0,27.8,4,27.8,4
		c0,0,24.6,17.2,50.8,35.6c-31.5,45-68.6,98.1-68.6,98.1c-8.6,12.2-5.3,29.2,7.5,37.3c12.1,7.7,28.4,3.2,36.6-8.5
		c0,0,36.6-52.2,67.7-96.7c11.6,8.1,19.5,13.7,19.5,13.7l-6.5,9.3c0,0.1,6,17,6.1,17c0,0,18.7,3.7,18.7,3.8l60,42
		c0,0,17.1,0.1,17.1,0.1c0.1,0,23.6-33.6,23.6-33.7l-5.8-15.9C1002.1,436.8,942,394.7,942,394.7z M791.3,485.4
		c-3.3,4.7-9.9,5.9-14.6,2.6c-4.7-3.3-5.9-9.9-2.6-14.6c3.3-4.7,9.9-5.9,14.6-2.6C793.4,474.1,794.6,480.6,791.3,485.4z"/>
	
		<rect x="181" y="397.6" transform="matrix(0.9848 -0.1736 0.1736 0.9848 -65.0765 77.7164)" class="st3" width="461.3" height="26.4"/>
	
		<rect x="192.9" y="467.8" transform="matrix(0.9848 -0.1736 0.1736 0.9848 -77.553 75.6411)" class="st3" width="401.2" height="26.4"/>
	
		<rect x="1068" y="241.2" transform="matrix(0.9848 -0.1736 0.1736 0.9848 -24.4404 229.3722)" class="st3" width="461.3" height="26.4"/>
	
		<rect x="1079.7" y="308.8" transform="matrix(0.9848 -0.1736 0.1736 0.9848 -36.2396 229.8248)" class="st3" width="431.3" height="26.4"/>
	<line class="st4" x1="295.2" y1="1078.6" x2="1606.9" y2="847.3"/>
	<line class="st4" x1="310.8" y1="1167.3" x2="794.7" y2="1082"/>
	<line class="st4" x1="1138.7" y1="1021.3" x2="1622.6" y2="936"/>
	<path class="st5" d="M596.5,1243.4c-15.2,2.7-30.3,6-45.5,8.7c-13.7,2.4-27.7,4.4-41.8,5c-2.9,0.2-5.4-0.9-6-3.9
		c-0.8-4.8-1.2-9.5-2-14.3c-0.6-3.1-1.1-6.5-1.9-9.6c-24.3,13.8-44.9,31.5-72.8,40c-1,0.3-2.1,0.5-3.3,0.8c-3.8,0.7-8.4,0.6-9.2-3.7
		c-0.1-0.5-0.2-1.2-0.3-1.7c-0.7-4.1-3.4-5-6.8-4.4c-6.3,1.1-15,7.8-16.5,8.7c-2.4,1.6-5.2,2.6-7.8,3.1c-5.5,1-10.3-0.4-10.9-3.5
		c-1.3-7.1,40.3-31,55.6-33.7c3.5-0.6,8.2-0.8,9.1,2.3c1.4,4.9,2,7.5,2.5,10.1c0.1,0.8,0.3,1.7,0.4,2.5
		c23.9-10.5,44.3-29.1,68.1-40.2c1.1-0.5,4.3-1.6,7.5-2.2c3.8-0.7,7.4-0.5,8.1,2.5c5.9,25.6,15.6,28.5,33.3,25.3
		c9.6-1.7,22.8-5.2,37-7.7c16.5-2.9,68.2-10.1,69.2-4.2c0.8,4.3-11.4,13.6-18.4,14.8c-0.3,0.1-0.9,0-1.2,0
		C627.4,1238.6,611.9,1240.7,596.5,1243.4z"/>
	<path class="st5" d="M1501,1067.6c-24.7,4.3-44.8-2.3-64,1c-8.6,1.5-17.2,4.9-26.5,12.2c-7.3,5.7-19.3,9.7-27.9,11.2
		c-7.1,1.3-9.1,0.4-10.4-6.9c-12.8,10.8-25.5,20.5-41.5,28c-1.6,0.8-4.1,1.8-6.8,2.2c-4.5,0.8-8.5,0.1-9.3-4.5
		c-1.2-6.6-2.3-13.1-3.5-19.7c-16.3,10.2-31,22.5-48.5,31.4c-1.1,0.5-3.2,1.2-5.5,1.7c-4.6,0.8-9.9,0.7-10.5-2.7
		c-0.4-2.3,2.5-8.1,2.1-10.3c-0.7-4-5.4-4.3-11.3-3.3c-12.6,2.2-31.2,11.5-32,11.8c-1.4,0.8-3,1.2-4.7,1.5
		c-5.1,0.9-10.6-0.2-11.2-3.5c-1.5-8.3,28.1-22.7,32-23.4c1.3-0.2,2.5-0.3,3.6-0.1c10.9-5,22.9-9.7,32.5-11.4
		c10.4-1.8,18.4-0.3,19.9,8.1c0.3,1.8,0.3,3.9,0.1,6.3c13.7-9.4,26.6-19.5,42.2-26.9c1.3-0.6,4.1-1.8,7.3-2.3
		c3.6-0.6,7.6-0.5,8.5,2.6c1.8,7.2,2.5,11.2,3.3,15.1c0.3,2,0.7,3.8,0.9,6.2c12.2-8.3,22.5-18.5,34.1-28.4c1.6-1.3,8.9-5.5,14.7-6.5
		c3.5-0.6,6.5-0.1,7,3c0.1,0.8,1.4,1.1,3.4,0.8c10.1-1.8,40.9-17.5,58.5-20.5c4-0.7,7.4-0.8,9.6,0.2c16.6,6.8,33.3,7.3,49.7,4.4
		c35.1-6.2,69.4-28.4,102.5-40.9c1.8-0.7,3.2-1.1,4.5-1.3c4.1-0.7,6.1,0.5,6.4,2.5c0.7,4-4.8,11.6-12,14.2
		C1582.4,1032.8,1541.4,1060.5,1501,1067.6z"/>
</g>
</svg>
