<?xml version="1.0" encoding="utf-8"?>
<!-- Generator: Adobe Illustrator 22.0.1, SVG Export Plug-In . SVG Version: 6.00 Build 0)  -->
<svg version="1.1" id="Layer_1" xmlns="http://www.w3.org/2000/svg" xmlns:xlink="http://www.w3.org/1999/xlink" x="0px" y="0px"
	 viewBox="0 0 1230.2 879.1" style="enable-background:new 0 0 1230.2 879.1;" xml:space="preserve">
<style type="text/css">
	.st0{fill:#E1F4F2;}
	.st1{fill:#9ECAD9;}
	.st2{enable-background:new    ;}
	.st3{fill:#384261;}
	.st4{fill:none;stroke:#384261;stroke-width:26.4;stroke-miterlimit:10;}
	.st5{fill:#628E9D;}
</style>
<rect x="14.1" y="20.5" transform="matrix(0.9994 -3.444907e-02 3.444907e-02 0.9994 -14.7786 21.4505)" class="st0" width="1202" height="838.2"/>
<polygon class="st1" points="992.1,497.5 1019.7,523.1 1054.8,509.6 1068.5,544.5 1105.9,547.6 1103.1,585 1135.6,604 1116.8,636.6 
	1137.8,667.7 1106.7,688.9 1112.1,726.1 1074.9,731.7 1063.6,767.5 1027.7,756.5 1002,783.9 974.5,758.3 939.4,771.8 925.7,736.8 
	888.2,733.8 891,696.3 858.6,677.4 877.4,644.8 856.4,613.6 887.5,592.5 882.1,555.3 919.2,549.7 930.5,513.8 966.4,524.9 "/>
<g class="st2">
	<path class="st3" d="M122.1,158.9l1.7,50.5l-15.7,0.5l-2.9-83.1l16.9-0.6l19.7,45.9l16.6-47.2l15.8-0.5l2.9,83.1l-15.6,0.5
		l-1.7-50.5l-13.5,38.5l-8,0.3L122.1,158.9z"/>
	<path class="st3" d="M227.7,122.6l16.6-0.6l2,56.8c0.6,16.9-10.6,27.9-26.5,28.5c-16,0.6-27.5-9.4-28.1-26.3l-2-57.1l17-0.6l2,57.2
		c0.3,7.7,4.5,12,10.9,11.8c6.5-0.2,10.4-4.8,10.1-12.5L227.7,122.6z"/>
	<path class="st3" d="M276.4,151.2l1.8,52.8l-15.4,0.5l-2.9-83.1l16.4-0.6l25.9,49.9l-1.7-50.7l15.3-0.5l2.9,83.1l-15.3,0.5
		L276.4,151.2z"/>
	<path class="st3" d="M332.4,119l17.3-0.6l2.9,83.1l-17.3,0.6L332.4,119z"/>
	<path class="st3" d="M405,169l16.3-0.6l0.1,4.3c0.6,16.9-10.3,27.9-26,28.5c-16,0.6-27.5-9.4-28.1-26.3l-1.1-30.9
		c-0.6-16.9,10.7-27.8,26.6-28.4c15.7-0.5,26.9,9.3,27.5,26.2l0.1,3.4l-16.3,0.6l-0.1-3.6c-0.3-7.6-4.5-12-11-11.7
		c-6.4,0.2-10.3,4.9-10,12.5l1.1,31.5c0.3,7.7,4.5,12,10.9,11.8c6.5-0.2,10.4-4.8,10.1-12.5L405,169z"/>
	<path class="st3" d="M435,115.5l17.3-0.6l2.9,83.1l-17.3,0.6L435,115.5z"/>
	<path class="st3" d="M487.7,168.8l1,28l-16.7,0.6l-2.9-83.1l25.2-0.9c17.2-0.6,29.3,10.8,29.8,26.4c0.5,15.9-10.8,28.1-28.3,28.7
		L487.7,168.8z M486.3,128.1l0.9,26.7l7-0.2c8.2-0.3,13.3-6,13.1-13.8c-0.3-7.7-5.7-13.2-13.9-13L486.3,128.1z"/>
	<path class="st3" d="M590.6,193.3l-17.6,0.6l-5.5-17.5l-22.9,0.8l-4.3,17.9l-16.6,0.6l22.7-84l15.9-0.5L590.6,193.3z M547.2,164.5
		l16.6-0.6l-9.3-29.6L547.2,164.5z"/>
	<path class="st3" d="M596.7,109.9l16.9-0.6l2.3,67.8l26.5-0.9l0.5,15.3l-43.3,1.5L596.7,109.9z"/>
	<path class="st3" d="M651.4,108l17.3-0.6l2.9,83.1l-17.3,0.6L651.4,108z"/>
	<path class="st3" d="M715,121l2.3,67.9l-16.9,0.6l-2.3-67.9l-17.5,0.6l-0.5-15.2l51.6-1.8l0.5,15.2L715,121z"/>
	<path class="st3" d="M763.1,156.5L737.3,105l18.8-0.6l15.2,34.9l12.9-35.9l17.8-0.6l-22.2,53.1l1.1,30.9l-16.7,0.6L763.1,156.5z"/>
</g>
<g class="st2">
	<path class="st3" d="M140.9,301.3c12.4-0.4,20.6,6,21,15.7c0.2,5.8-2.7,10.8-7.7,14c6.9,2.4,11.2,7.8,11.4,14.8
		c0.3,10-8.1,17.9-20.8,18.4l-31.2,1.1l-2.2-63L140.9,301.3z M137.9,326.1c4.8-0.2,7.1-2.9,7-6.1c-0.1-3.1-2.6-5.8-7.4-5.6l-8.5,0.3
		l0.4,11.7L137.9,326.1z M129.8,338.6l0.4,13l10.8-0.4c5.1-0.2,7.5-3.3,7.4-6.8c-0.1-3.5-2.7-6.4-7.9-6.2L129.8,338.6z"/>
	<path class="st3" d="M230.4,298.2l1.3,36.6c0.6,16.5-10.5,27.6-27.2,28.2c-16.7,0.6-28-9.3-28.5-25.8l-1.3-37.1l17.4-0.6l1.3,36.4
		c0.3,7.3,4.7,11.5,11.2,11.3c6.5-0.2,10.6-4.8,10.4-12.1l-1.3-36.4L230.4,298.2z"/>
	<path class="st3" d="M270.6,321.2c8.4,3.3,17.8,8.7,18.1,19.3c0.4,11-8.9,19.9-23,20.4c-16.2,0.6-25.3-9-25.3-9l9.5-11.1
		c0,0,7.3,6.7,16,6.4c3.1-0.1,5.3-1.8,5.3-4.1c-0.1-2.9-2.7-5-13.5-9.3c-8.2-3.2-14.6-8.6-14.9-18.1c-0.4-10.9,8.4-19,22.1-19.5
		c14-0.5,22.5,7.8,22.5,7.8l-9.5,11.1c0,0-5.3-5.4-12.3-5.2c-3.5,0.1-5.3,1.9-5.3,3.8C260.4,316.4,262.3,318,270.6,321.2z"/>
	<path class="st3" d="M299.5,295.8l17.5-0.6l2.2,63l-17.5,0.6L299.5,295.8z"/>
	<path class="st3" d="M349.6,319.8l1.3,37.3l-16.6,0.6l-2.2-63l17.5-0.6l25.5,35.2l-1.2-36.1l16.6-0.6l2.2,63l-16.6,0.6L349.6,319.8
		z"/>
	<path class="st3" d="M407.3,355.1l-2.2-63l47.7-1.6l0.5,14.8l-30.6,1.1l0.3,9l26.1-0.9l0.5,13.9l-26.1,0.9l0.4,10.3l31.5-1.1
		l0.5,14.8L407.3,355.1z"/>
	<path class="st3" d="M492.1,313.6c8.4,3.3,17.8,8.7,18.1,19.3c0.4,11-8.9,19.9-23,20.4c-16.2,0.6-25.3-9-25.3-9l9.5-11.1
		c0,0,7.3,6.7,16,6.4c3.1-0.1,5.3-1.8,5.3-4.1c-0.1-2.9-2.7-5-13.5-9.3c-8.2-3.2-14.6-8.6-14.9-18.1c-0.4-10.9,8.4-19,22.1-19.5
		c14-0.5,22.5,7.8,22.5,7.8l-9.5,11.1c0,0-5.3-5.4-12.3-5.2c-3.5,0.1-5.3,1.9-5.3,3.8C482,308.8,483.8,310.4,492.1,313.6z"/>
	<path class="st3" d="M546.3,311.7c8.4,3.3,17.8,8.7,18.1,19.3c0.4,11-8.9,19.9-23,20.4c-16.2,0.6-25.3-9-25.3-9l9.5-11.1
		c0,0,7.3,6.7,16,6.4c3.1-0.1,5.3-1.8,5.3-4.1c-0.1-2.9-2.7-5-13.5-9.3c-8.2-3.2-14.6-8.6-14.9-18.1c-0.4-10.9,8.4-19,22.1-19.5
		c14-0.5,22.5,7.8,22.5,7.8l-9.5,11.1c0,0-5.3-5.4-12.3-5.2c-3.5,0.1-5.3,1.9-5.3,3.8C536.1,306.9,538,308.5,546.3,311.7z"/>
</g>
<g class="st2">
	<path class="st3" d="M119,513.9L114.7,388l27.5-0.9l3.5,101.5l61.5-2.1l0.8,24.5L119,513.9z"/>
	<path class="st3" d="M221.7,384.3l28.2-1l4.3,125.9l-28.2,1L221.7,384.3z"/>
	<path class="st3" d="M339.8,378.4c33.3-1.1,49.1,18.7,49.1,18.7l-19.5,18.3c0,0-9.6-12.3-29-11.6c-22.3,0.8-38.1,18.4-37.3,40.7
		c0.8,22.5,17.7,39,40,38.2c20.5-0.7,29.9-15.6,29.9-15.6l20,16.6c0,0-14.9,23-49.6,24.2c-37.6,1.3-66.6-25.6-67.9-62
		C274.3,409.7,302.2,379.7,339.8,378.4z"/>
	<path class="st3" d="M412.6,503.8l-4.3-125.9l92.6-3.2l0.8,23.9l-65.1,2.2l0.9,26.1l56.1-1.9l0.8,22.3l-56.1,1.9l1,29.9l66.9-2.3
		l0.8,23.7L412.6,503.8z"/>
	<path class="st3" d="M553.4,413.9l2.9,84.9l-26.8,0.9l-4.3-125.9l28.4-1l61,80.8l-2.9-82.8l26.8-0.9l4.3,125.9l-26.8,0.9
		L553.4,413.9z"/>
	<path class="st3" d="M753.2,456.1c0.7,21-16.7,38.4-44.2,39.3c-31.5,1.1-48.7-17.2-48.7-17.2l15.6-18c0,0,14.3,13.6,33.8,12.9
		c9.5-0.3,15.8-5.9,15.6-13c-0.3-8.1-6.6-13.6-29.4-21.9c-17.7-6.2-30.7-17-31.3-35.1c-0.7-20.5,16-36.4,42.5-37.3
		c27.3-0.9,43.2,14.7,43.2,14.7l-15.6,18c0,0-10.8-11-26.5-10.4c-10.8,0.4-15.8,6.3-15.6,11.9c0.3,7.4,5.4,11.7,23.3,17.9
		C735,424.6,752.4,435.5,753.2,456.1z"/>
	<path class="st3" d="M776.9,491.3l-4.3-125.9l92.6-3.2l0.8,23.9l-65.1,2.2l0.9,26.1l56.1-1.9l0.8,22.3l-56.1,1.9l1,29.9l66.9-2.3
		l0.8,23.7L776.9,491.3z"/>
</g>
<line class="st4" x1="124.4" y1="616.3" x2="609.3" y2="605.4"/>
<line class="st4" x1="126.3" y1="682.3" x2="551.1" y2="673.2"/>
<path class="st5" d="M562.1,757.9c-70,2-138.5,16.3-208.7,18.3c-9.6,0.3-30,2.2-30.1-3.3c0-0.7,0.2-1.8,0.2-2.6
	c-0.1-3.7-3.7-5.1-9.4-5c-20.4,0.6-66.5,20.2-72.1,22.2c-11.9,4.2-23.2,8.2-35.6,8.4c-2.1,0.1-7.7-0.5-7.7-3.4
	c0-0.3,0.1-0.6,0.3-1.1c2.5-5.9,4.6-12,6.5-18.2c-19,12.3-40.9,25-60.8,25.6c-7.8,0.2-14.1,0-14.3-7.2c-0.1-2,1-2.9,2.9-7.4
	c2-4.4,11.5-7.2,17.9-7.4c3.6-0.1,6.3,0.6,6.4,2.4c0,0.3-0.1,0.6-0.3,1.1c0,0.1,0,0.1,0.2,0.1c2.7-0.1,46.5-21.9,57-28.2
	c1.5-0.8,8.9-3.4,14.2-3.6c3-0.1,5.4,0.7,5.5,3c0,0.5,0,0.9-0.1,1.4c-2.2,8.2-3.1,13.9-2.9,17.8c0.1,5.1,2,6.8,5.4,6.7
	c6.3-0.2,17.5-7,30.9-12.3c14.5-5.8,29.1-11.3,44.1-15.5c5.4-1.5,11.5-2.9,17.5-3.1c6.9-0.2,13.5,1.3,18.5,6.1
	c8.3,8.2,21.8,10.5,37.4,10c30.6-0.9,69.3-12.6,95-14.6c23.1-1.6,46-3.1,68.9-3.8c32.5-0.9,65-0.2,97.7,3.6c3,0.4,4.2,1.2,4.3,2.4
	c0.1,3.7-12.2,10.3-18.2,10.4c-0.3,0-0.6-0.1-0.9-0.1C608.2,757.9,585.1,757.2,562.1,757.9z"/>
</svg>
