<?xml version="1.0" encoding="utf-8"?>
<!-- Generator: Adobe Illustrator 22.0.1, SVG Export Plug-In . SVG Version: 6.00 Build 0)  -->
<svg version="1.1" id="Layer_1" xmlns="http://www.w3.org/2000/svg" xmlns:xlink="http://www.w3.org/1999/xlink" x="0px" y="0px"
	 viewBox="0 0 1846.3 1607" style="enable-background:new 0 0 1846.3 1607;" xml:space="preserve">
<style type="text/css">
	.st0{fill:#9ECAD9;}
	.st1{fill:#FEF2A7;}
	.st2{fill:none;stroke:#384261;stroke-width:26.4;stroke-miterlimit:10;}
	.st3{fill:#384261;}
	.st4{fill:#F4E89D;}
	.st5{font-family:'Colt-Bold';}
	.st6{font-size:144px;}
	.st7{fill:#628E9D;}
	.st8{font-family:'MumbleGrumbleIBB';}
	.st9{font-size:150px;}
	.st10{letter-spacing:-60;}
</style>
<circle class="st0" cx="942" cy="803.5" r="803.5"/>
<rect x="88.4" y="198.9" transform="matrix(0.9848 -0.1736 0.1736 0.9848 -121.5867 172.1639)" class="st1" width="1669.5" height="1164.2"/>
<line class="st2" x1="368.6" y1="1000.1" x2="1519.2" y2="797.2"/>
<line class="st2" x1="380" y1="1065.1" x2="863.9" y2="979.8"/>
<line class="st2" x1="1046.8" y1="947.6" x2="1530.7" y2="862.2"/>
<path class="st3" d="M287.4,482.9L215,542.3l5.8,5.2l68.5-54.2l82.9,27.6l3.7-6.8L287.4,482.9z M237.1,563.9l3.4-0.6l0.8,4.6
	l3.4-0.6l8.5,48.2l-3.4,0.6l0.8,4.4l-3.4,0.6l1.1,6.4l128-22.6l-1.1-6.4l-4.2,0.7l-0.8-4.4l-3.2,0.6l-8.5-48.2l3.2-0.6l-0.8-4.6
	l4.2-0.7l-1.1-6.4l-128,22.6L237.1,563.9z M333.5,551.7l3.2-0.6l-0.8-4.6l4.5-0.8l0.8,4.6l3.4-0.6l8.5,48.2l-3.4,0.6l0.8,4.4
	l-4.5,0.8l-0.8-4.4l-3.2,0.6L333.5,551.7z M308.5,556.1l3.2-0.6l-0.8-4.6l4.5-0.8l0.8,4.6l3.4-0.6l8.5,48.2l-3.4,0.6l0.8,4.4
	l-4.5,0.8l-0.8-4.4l-3.2,0.6L308.5,556.1z M283.6,560.5l3.2-0.6l-0.8-4.6l4.5-0.8l0.8,4.6l3.4-0.6l8.5,48.2l-3.4,0.6l0.8,4.4
	l-4.5,0.8l-0.8-4.4l-3.2,0.6L283.6,560.5z M258.6,564.9l3.2-0.6l-0.8-4.6l4.5-0.8l0.8,4.6l3.4-0.6l8.5,48.2l-3.4,0.6l0.8,4.4
	l-4.5,0.8l-0.8-4.4l-3.2,0.6L258.6,564.9z M290.3,499.6l-51.2,40.6l1.9,10.7l115.3-20.3l-1.7-9.5L290.3,499.6z M296.3,535.4
	c-7.6,1.3-14.9-3.8-16.3-11.4c-1.3-7.6,3.8-14.9,11.4-16.3c7.6-1.3,14.9,3.8,16.3,11.4C309.1,526.8,304,534.1,296.3,535.4z"/>
<g>
	<path class="st3" d="M499.7,556.8c2.5-1.5,3.8-0.5,5,1.2l5.5,8.2c1.2,1.6,0.2,3-1.7,4.3c-5.5,4.8-16.2,10.6-30,13
		c-34.4,6.1-58.2-11.7-65.3-52c-7.1-40.2,9-65.1,42.7-71.1c13.4-2.4,25.5-0.8,32.2,1.7c2.3,0.8,3.3,1.7,2.9,3.7l-2.2,9.3
		c-0.4,2-1.4,3.2-4.3,2.5c-5.7-1.6-13.9-2.5-22.8-0.9c-24.8,4.4-34.8,21.4-29.5,51.4c5.3,30,20.3,42.7,46,38.2
		C487.5,564.8,494.9,560.7,499.7,556.8z"/>
	<path class="st3" d="M513.1,455.8c-0.4-2.4,0.4-3.6,2.6-4l11.9-2.1c2.4-0.4,3.8,0.4,4.2,2.8l19.9,112.8c0.4,2.4-0.6,3.6-3,4
		l-11.9,2.1c-2.2,0.4-3.4-0.5-3.8-2.8L513.1,455.8z"/>
	<path class="st3" d="M551.7,449c-0.4-2.4,0.6-3.6,2.8-4l77.9-13.7c2.6-0.5,3.8,0.4,4.2,2.8l1.8,10.2c0.4,2.2-0.4,3.6-3,4l-29.4,5.2
		l17.5,99.2c0.4,2.4-0.4,3.6-3,4l-11.7,2.1c-2.2,0.4-3.6-0.4-4-2.8l-17.5-99.2l-29.6,5.2c-2.4,0.4-3.8-0.6-4.2-2.8L551.7,449z"/>
	<path class="st3" d="M726.1,534.6c0.4,2.4-0.6,3.6-2.8,4l-11.9,2.1c-2.4,0.4-3.6-0.4-4-2.8l-7.2-40.7L646.8,433
		c-1.4-1.7-1.1-4,1.7-4.5l12.8-2.3c2.7-0.5,3.8,0.6,5.1,2.3l28.6,35.8l11.9,15.8l5.8-18.9l14.8-43.5c0.3-2,1.2-3.4,3.9-3.8l12.8-2.3
		c2.7-0.5,3.6,1.6,3.1,3.7l-28.2,78.7L726.1,534.6z"/>
</g>
<rect x="117.7" y="206.8" transform="matrix(0.9848 -0.1736 0.1736 0.9848 -33.681 148.6096)" class="st4" width="1429.5" height="120"/>
<rect x="299.1" y="1235.1" transform="matrix(0.9848 -0.1736 0.1736 0.9848 -209.4923 195.7181)" class="st4" width="1429.5" height="120"/>
<rect x="1626.1" y="184.3" transform="matrix(0.9848 -0.1736 0.1736 0.9848 -86.6346 302.6067)" class="st4" width="120" height="924.2"/>
<rect x="100.2" y="453.4" transform="matrix(0.9848 -0.1736 0.1736 0.9848 -156.5387 41.7211)" class="st4" width="120" height="924.2"/>
<ellipse transform="matrix(0.9848 -0.1736 0.1736 0.9848 -68.6331 18.1668)" class="st4" cx="69.5" cy="401.3" rx="31.3" ry="31.3"/>
<ellipse transform="matrix(0.9848 -0.1736 0.1736 0.9848 -244.4444 65.2753)" class="st4" cx="250.8" cy="1429.6" rx="31.3" ry="31.3"/>
<ellipse transform="matrix(0.9848 -0.1736 0.1736 0.9848 1.271 279.0524)" class="st4" cx="1595.4" cy="132.3" rx="31.3" ry="31.3"/>
<ellipse transform="matrix(0.9848 -0.1736 0.1736 0.9848 -174.5403 326.1609)" class="st4" cx="1776.7" cy="1160.6" rx="31.3" ry="31.3"/>
<text transform="matrix(0.9848 -0.1736 0.1736 0.9848 354.6378 891.8311)" class="st3 st5 st6">PERMIT</text>
<text transform="matrix(0.9848 -0.1736 0.1736 0.9848 1048.3621 1086.2772)" class="st7 st8 st9 st10">e</text>
<text transform="matrix(0.9848 -0.1736 0.1736 0.9848 370.5736 1198.0828)" class="st7 st8 st9">n</text>
<path class="st3" d="M1504.6,282.1c-0.3-1.2-1.4-2-2.6-2c-31.4,0-75.5-16.5-76-16.7c-0.9-0.4-2-0.2-2.7,0.5
	c-0.4,0.3-36.2,31-65.8,41.7c-1.1,0.4-1.9,1.5-1.8,2.7c0.1,0.9,1.9,23.2,14.8,49.9c7.6,15.7,17.4,29.7,29.3,41.5
	c14.8,14.8,32.8,26.3,53.4,34.2c0.5,0.2,1,0.2,1.4,0.1c0.5-0.1,0.9-0.3,1.3-0.6c16.2-14.5,28.8-31.4,37.6-50.4
	c7-15.2,11.5-31.7,13.4-49C1510.2,304.5,1504.9,283,1504.6,282.1z M1439.7,392.4l-47.4-28.5l11.5-19.8l24.9,14.5
	c2.4,1.4,5.5,0.7,7.1-1.6l36.9-62.4l18.7,13L1439.7,392.4z"/>
</svg>
