<?xml version="1.0" encoding="utf-8"?>
<!-- Generator: Adobe Illustrator 22.0.1, SVG Export Plug-In . SVG Version: 6.00 Build 0)  -->
<svg version="1.1" id="Layer_1" xmlns="http://www.w3.org/2000/svg" xmlns:xlink="http://www.w3.org/1999/xlink" x="0px" y="0px"
	 viewBox="0 0 1669.5 1164.2" style="enable-background:new 0 0 1669.5 1164.2;" xml:space="preserve">
<style type="text/css">
	.st0{fill:#FEF2A7;}
	.st1{fill:none;stroke:#384261;stroke-width:26.4;stroke-miterlimit:10;}
	.st2{fill:#384261;}
	.st3{fill:#F4E89D;}
	.st4{font-family:'Colt-Bold';}
	.st5{font-size:144px;}
	.st6{fill:#628E9D;}
	.st7{font-family:'MumbleGrumbleIBB';}
	.st8{font-size:150px;}
	.st9{letter-spacing:-60;}
</style>
<rect x="0" y="0" class="st0" width="1669.5" height="1164.2"/>
<line class="st1" x1="250.5" y1="701.6" x2="1418.9" y2="701.6"/>
<line class="st1" x1="250.5" y1="767.6" x2="741.9" y2="767.6"/>
<line class="st1" x1="927.6" y1="767.6" x2="1418.9" y2="767.6"/>
<path class="st2" d="M260.4,178.2l-81.6,45.9l4.8,6.1l76.8-41.5l76.8,41.5l4.8-6.1L260.4,178.2z M196.8,249.2h3.5v4.7h3.4v48.9h-3.4
	v4.4h-3.5v6.5h129.9v-6.5h-4.3v-4.4h-3.3v-48.9h3.3v-4.7h4.3v-6.5H196.8V249.2z M293.9,253.9h3.3v-4.7h4.6v4.7h3.4v48.9h-3.4v4.4
	h-4.6v-4.4h-3.3V253.9z M268.5,253.9h3.3v-4.7h4.6v4.7h3.4v48.9h-3.4v4.4h-4.6v-4.4h-3.3V253.9z M243.2,253.9h3.3v-4.7h4.6v4.7h3.4
	v48.9H251v4.4h-4.6v-4.4h-3.3V253.9z M217.8,253.9h3.3v-4.7h4.6v4.7h3.4v48.9h-3.4v4.4h-4.6v-4.4h-3.3V253.9z M260.4,195.1
	L203,226.2V237H320v-9.7L260.4,195.1z M260.1,231.5c-7.8,0-14-6.3-14-14c0-7.8,6.3-14,14-14c7.8,0,14,6.3,14,14
	C274.1,225.2,267.8,231.5,260.1,231.5z"/>
<g>
	<path class="st2" d="M456.6,287.8c2.8-1,3.8,0.2,4.7,2.1l4,9c0.9,1.7-0.3,2.9-2.4,4c-6.2,3.8-17.8,7.6-31.8,7.6
		c-34.9,0-55.3-21.6-55.3-62.6c0-40.8,20.2-62.6,54.4-62.6c13.7,0,25.2,3.6,31.5,7.3c2.1,1.2,2.9,2.2,2.2,4.1l-3.8,8.8
		c-0.7,1.9-1.9,2.9-4.7,1.7c-5.4-2.6-13.3-4.8-22.3-4.8c-25.2,0-38,15-38,45.4c0,30.4,12.6,45.6,38.7,45.6
		C443.3,293.5,451.3,290.8,456.6,287.8z"/>
	<path class="st2" d="M487.4,190.7c0-2.4,1-3.5,3.3-3.5h12.1c2.4,0,3.6,1,3.6,3.5v114.6c0,2.4-1.2,3.5-3.6,3.5h-12.1
		c-2.2,0-3.3-1-3.3-3.5V190.7z"/>
	<path class="st2" d="M526.6,190.7c0-2.4,1.2-3.5,3.5-3.5h79.1c2.6,0,3.6,1,3.6,3.5v10.4c0,2.2-1,3.5-3.6,3.5h-29.9v100.7
		c0,2.4-1,3.5-3.6,3.5h-11.9c-2.2,0-3.5-1-3.5-3.5V204.5h-30.1c-2.4,0-3.6-1.2-3.6-3.5V190.7z"/>
	<path class="st2" d="M683.5,305.3c0,2.4-1.2,3.5-3.5,3.5h-12.1c-2.4,0-3.5-1-3.5-3.5V264L623,191.4c-1-1.9-0.3-4.1,2.4-4.1h13
		c2.8,0,3.6,1.2,4.7,3.1l21.9,40.3l9,17.6l9-17.6l22.1-40.3c0.7-1.9,1.7-3.1,4.5-3.1h13c2.8,0,3.3,2.2,2.4,4.1L683.5,264V305.3z"/>
</g>
<rect x="120" class="st3" width="1429.5" height="120"/>
<rect x="120" y="1044.2" class="st3" width="1429.5" height="120"/>
<rect x="1549.5" y="120" class="st3" width="120" height="924.2"/>
<rect y="120" class="st3" width="120" height="924.2"/>
<circle class="st3" cx="60" cy="60" r="31.3"/>
<circle class="st3" cx="60" cy="1104.2" r="31.3"/>
<circle class="st3" cx="1609.5" cy="60" r="31.3"/>
<circle class="st3" cx="1609.5" cy="1104.2" r="31.3"/>
<text transform="matrix(1 0 0 1 255.6231 592.5684)" class="st2 st4 st5">PERMIT</text>
<text transform="matrix(1 0 0 1 905.043 904.5244)" class="st6 st7 st8 st9">e</text>
<text transform="matrix(1 0 0 1 218.1368 896.9346)" class="st6 st7 st8">n</text>
<path class="st2" d="M1494,191.8c-0.1-1.2-1-2.2-2.2-2.5c-30.9-5.4-71.5-29.4-71.9-29.7c-0.9-0.5-1.9-0.5-2.8,0
	c-0.4,0.2-41.1,24.2-72,29.7c-1.2,0.2-2.1,1.2-2.2,2.4c-0.1,0.9-2.2,23.1,5.9,51.7c4.7,16.8,12,32.3,21.6,46
	c12,17.2,27.7,31.6,46.7,42.9c0.4,0.3,0.9,0.4,1.4,0.4c0.5,0,1-0.1,1.4-0.4c18.5-11.4,33.8-25.9,45.7-43.1
	c9.5-13.7,16.8-29.2,21.7-45.9C1495.6,214.8,1494.1,192.7,1494,191.8z M1410.9,289.1l-41.8-36.3l14.7-17.5l22,18.6
	c2.2,1.8,5.3,1.7,7.3-0.3l47.2-55.1l16.1,16L1410.9,289.1z"/>
</svg>
