<?xml version="1.0" encoding="utf-8"?>
<!-- Generator: Adobe Illustrator 22.0.1, SVG Export Plug-In . SVG Version: 6.00 Build 0)  -->
<svg version="1.1" id="Layer_1" xmlns="http://www.w3.org/2000/svg" xmlns:xlink="http://www.w3.org/1999/xlink" x="0px" y="0px"
	 viewBox="0 0 1669.5 1164.2" style="enable-background:new 0 0 1669.5 1164.2;" xml:space="preserve">
<style type="text/css">
	.st0{fill:#CDE0DE;}
	.st1{fill:#384261;}
	.st2{fill:none;stroke:#9ECAD9;stroke-width:19.8;stroke-miterlimit:10;}
	.st3{fill:none;stroke:#384261;stroke-width:26.4;stroke-miterlimit:10;}
	.st4{fill:#7E8E9E;}
	.st5{font-family:'SantEliaScript-Regular';}
	.st6{font-size:198px;}
</style>
<rect class="st0" width="1669.5" height="1164.2"/>
<path class="st1" d="M538.6,262.3c0-0.6,0.1-1.1,0.1-1.7c0-4.7-0.9-9-2.4-12.5c-5-1.2-10.5-2.2-16.3-3v-37.9c-2.8-1.2-6.2-2-10-2
	c-3.7,0-7.2,0.7-10,2v36.1c-3-0.1-6.1-0.2-9.3-0.2c-2.7,0-5.4,0.1-8.1,0.2v-36.1c-2.8-1.2-6.2-2-10-2c-3.7,0-7.2,0.7-10,2V245
	c-6.4,0.8-12.4,1.9-17.8,3.2c-1.5,3.5-2.4,7.8-2.4,12.5c0,4.7,0.9,9,2.4,12.5c2.3,0.5,4.6,1,7.1,1.5l0,22.4l11.8,16.7
	c4.9,1.2,10.7,2.1,16.9,2.6v36.9c2.8,1.2,6.2,2,10,2c3.7,0,7.2-0.7,10-2v-17.8c8.1,8.9,19.7,14.6,32.7,14.6
	c24.3,0,44.1-19.8,44.1-44.1C577.3,283.5,560.4,265,538.6,262.3z M533.3,336.2c-16.7,0-30.2-13.5-30.2-30.2
	c0-16.7,13.5-30.2,30.2-30.2c16.7,0,30.2,13.5,30.2,30.2C563.5,322.7,549.9,336.2,533.3,336.2z"/>
<polygon class="st1" points="548.8,287 529.9,287 516.3,312.4 528.4,312.4 522.2,327.8 526.5,327.8 552.7,302 537.1,302 "/>
<path class="st1" d="M647.4,225.1v-7.2h-35.6v13.2h40.4l6.2,6.2v20.4l-6.2,6.2H607l-6.2-6.2v-10.5h11v7.3h35.6v-14.1H607l-6.2-6.2
	v-19.5l6.2-6.2h45.3l6.2,6.2v10.4H647.4z"/>
<path class="st1" d="M740.5,254.9v9.1h-29v-8.9h8.9l-4-8.3H689l-4,8.3h8.9v8.9h-28.7v-9.1h8.2l19.3-37.6h-11v-8.7h26.7l23.8,46.4
	H740.5z M712.2,238.3l-9.6-19.9l-9.6,19.9H712.2z"/>
<path class="st1" d="M803.2,228.1h-10.5v-10.2H765v14.5h22.7v8.7H765v13.5h10.8v9.4h-31v-9.4h9.1v-36.7h-9.1v-9.4h58.4V228.1z"/>
<path class="st1" d="M860.7,228.1v-10.2h-29.2v13.5h22.4v8.7h-22.4v14.5h29.2v-10.2h10.5V264h-59.9v-9.4h9.1v-36.7h-9.1v-9.4h59.9
	v19.5H860.7z"/>
<path class="st1" d="M947.1,230.6h-10.2v-12.7h-17.4v36.7h10.8v9.4h-32.7v-9.4h10.8v-36.7h-17.3v12.7h-10.5v-22h66.5V230.6z"/>
<path class="st1" d="M993.6,242.2v12.8h10.3v9.1h-31.3v-9.1H983v-12.7l-22.9-24.6h-7.9v-9.1h30.3v8.8h-8.8l15,17.4l15-17.4h-8.8
	v-8.8h29.5v9.1h-7.9L993.6,242.2z"/>
<path class="st1" d="M671.5,338.1v9.1h-29v-8.9h8.9l-4-8.3h-27.4l-4,8.3h8.9v8.9h-28.7v-9.1h8.2l19.3-37.6h-11v-8.7h26.7l23.8,46.4
	H671.5z M643.2,321.4l-9.6-19.9l-9.6,19.9H643.2z"/>
<path class="st1" d="M743.1,301.1h-8.8v39.8l-6.2,6.2h-42.5l-6.2-6.2v-39.9h-8.8v-9.4h29.9v9.4h-10v36.7h32.7v-36.7h-10v-9.4h29.9
	V301.1z"/>
<path class="st1" d="M816.3,313.8h-10.2v-12.7h-17.4v36.7h10.8v9.4h-32.7v-9.4h10.8v-36.7h-17.3v12.7h-10.5v-22h66.5V313.8z"/>
<path class="st1" d="M888.5,301.1v36.7h9.2v9.4h-29.5v-9.4h9.2v-14.1h-34v14.1h9.2v9.4h-29.4v-9.4h9.1v-36.7h-9.1v-9.4h29.4v9.4
	h-9.2v13.2h34v-13.2h-9.2v-9.4h29.5v9.4H888.5z"/>
<path class="st1" d="M964.1,297.9v43l-6.2,6.2h-45.3l-6.2-6.2v-43l6.2-6.2h45.3L964.1,297.9z M917.4,301.1v36.7h35.6v-36.7H917.4z"
	/>
<path class="st1" d="M1041.8,338.1v9.1h-15.9l-24.9-24h-8v14.9h10.6v9.1h-30.6v-9.1h9.4v-37.3h-9.4v-9.1h59.3l6.2,6.2v19.1l-6.2,6.2
	h-17.4l15.7,14.9H1041.8z M992.9,314.9h35v-14.1h-35V314.9z"/>
<path class="st1" d="M1067.2,301.1v36.7h9.2v9.4H1047v-9.4h9.1v-36.7h-9.1v-9.4h29.4v9.4H1067.2z"/>
<path class="st1" d="M1149.8,313.8h-10.2v-12.7h-17.4v36.7h10.8v9.4h-32.7v-9.4h10.8v-36.7h-17.3v12.7h-10.5v-22h66.5V313.8z"/>
<path class="st1" d="M1196.3,325.3v12.8h10.3v9.1h-31.3v-9.1h10.4v-12.7l-22.9-24.6h-7.9v-9.1h30.3v8.8h-8.8l15,17.4l15-17.4h-8.8
	v-8.8h29.5v9.1h-7.9L1196.3,325.3z"/>
<path class="st2" d="M1577.1,143.1c28,0,50.7-22.7,50.7-50.7s-22.7-50.7-50.7-50.7s-50.7,22.7-50.7,50.7v979.4
	c0,28,22.7,50.7,50.7,50.7s50.7-22.7,50.7-50.7s-22.7-50.7-50.7-50.7H92.4c-28,0-50.7,22.7-50.7,50.7s22.7,50.7,50.7,50.7
	s50.7-22.7,50.7-50.7V92.4c0-28-22.7-50.7-50.7-50.7S41.7,64.4,41.7,92.4s22.7,50.7,50.7,50.7H1577.1z"/>
<line class="st3" x1="310.6" y1="764.4" x2="1358.9" y2="764.4"/>
<line class="st3" x1="310.6" y1="830.5" x2="1127.7" y2="830.5"/>
<g>
	<path class="st4" d="M717.5,935.6c-17.8,0-35.2-2-51.7-8.1c-14.5,15.3-40.7,18.7-65.1,18.7c-14.4,0-28.1-1.2-38.4-1.8
		c-2.4-0.1-6.7-1.1-6.7-4c0-1.2,0.4-2.4,0.4-3.4c0-7.5-9.6-10.3-23.8-10.3c-33.4,0-91.2,14.9-102.7,14.9
		c-14.5,0-16.1-13.3-16.2-24.8c-21.8,6.1-61,15.4-84.1,15.4c-11,0-18.2-2.1-18.2-7.7c0-5,5-12.5,17.4-12.5c3.7,0,6.6,0.9,6.6,3
		c0,0.8-1.1,1.8-1.1,2.8c0,0.8,2.1,0.9,5.3,0.9c12.1,0,41.6-3.8,43.8-4.5c12.3-3.3,24.7-6.3,36.6-11.1c1.2-0.5,5.5-1.6,9.2-1.6
		c3,0,5.7,0.7,5.7,3.3c0,16.5,9.2,21.5,21.1,21.5c15.3,0,35.6-8.2,49.1-11.4c14.1-3.3,28.4-5.3,42.8-5.3c3.4,0,7,0.1,10.4,0.4
		c4.9,0.4,17.7,3.6,19.5,9.9c3,10.7,14.4,14.7,27.5,14.7c19.9,0,43.7-9.1,47.8-17.7c1.8-3.8,8.1-6.1,13.2-6.1c2,0,4,0.4,5.3,1.1
		c17,8.6,35.6,11.2,54.6,11.2c25.9,0,52.7-5,77.3-7.3c0.8,0,1.5-0.1,2.1-0.1c4.5,0,6.3,1.6,6.3,3.7c0,3.4-5,8.1-11.4,8.7
		C773.7,930.7,745.2,935.6,717.5,935.6z"/>
</g>
<path class="st4" d="M1323,936.9c-6.1,0-11.9-0.7-16.8-3c-14.5-6.9-23.4-10-32.3-10c-7.9,0-16.1,2.5-28.8,7.3
	c-6.2,2.4-12,3.7-17,3.7c-9.6,0-16.8-4.8-19.1-15.7c-12.7,5.4-25.3,10.7-38.7,15c-1.1,0.4-3.2,0.7-5.3,0.7c-3.4,0-7-0.9-7-4
	c0-2.4,1.2-5.4,1.6-8.1c-12.8,6.9-25.1,14.5-38.5,20.3c-1.8,0.8-5.3,1.7-8.6,1.7c-3.8,0-6.2-11.2-6.2-14.9
	c-9.4-1.1-18.9-1.3-28.2-1.3c-4.5,0-7-2-7-4.4c0-4.4,6.3-7,19-9.2c5.9-1.1,11.6-2.1,16.9-2.1c10,0,17.9,3.4,20.2,14.5
	c13.1-7.1,25.6-15,39.5-21c1.8-0.8,5.4-1.7,8.6-1.7c4.9,0,6.5,1.5,6.5,7.1c0,2.1-0.1,4.2-0.3,6.3c11.2-4.4,22.3-8.8,33.3-13.7
	c1.2-0.5,5.7-1.8,9.4-1.8c3,0,5.5,0.8,5.5,3.3c0,8.8,5,12,11.6,12c15.2,0,41.3-15.2,52.9-15.2c5.7,0,8.6,2.9,14.7,6.5
	c12.5,7.7,22.3,14,38,13.9c2.2,0,4.9-0.3,7.1-0.3c4.8,0,6.7,1.6,6.7,3.6c0,3.3-5,7.8-11.2,8.3C1341.9,935.2,1332.2,936.9,1323,936.9
	z"/>
<text transform="matrix(1 0 0 1 465.7281 607.6995)" class="st1 st5 st6">License</text>
</svg>
