<?xml version="1.0" encoding="utf-8"?>
<!-- Generator: Adobe Illustrator 22.0.1, SVG Export Plug-In . SVG Version: 6.00 Build 0)  -->
<svg version="1.1" id="Layer_1" xmlns="http://www.w3.org/2000/svg" xmlns:xlink="http://www.w3.org/1999/xlink" x="0px" y="0px"
	 viewBox="0 0 1273.2 918.3" style="enable-background:new 0 0 1273.2 918.3;" xml:space="preserve">
<style type="text/css">
	.st0{fill:#8AB6C5;}
	.st1{fill:#FFFFFF;}
	.st2{enable-background:new    ;}
	.st3{fill:#384261;}
	.st4{fill:none;stroke:#EF6667;stroke-width:11.88;stroke-miterlimit:10;}
	.st5{fill:#EF6667;}
	.st6{fill:none;stroke:#384261;stroke-width:19.008;stroke-miterlimit:10;}
	.st7{fill:#7E8E9E;}
</style>
<g>
	
		<rect x="61.1" y="65.6" transform="matrix(0.9997 -2.440777e-02 2.440777e-02 0.9997 -11.6332 16.3048)" class="st0" width="1202" height="838.2"/>
	
		<rect x="10.1" y="14.5" transform="matrix(0.9997 -2.440777e-02 2.440777e-02 0.9997 -10.4011 15.0447)" class="st1" width="1202" height="838.2"/>
	<g class="st2">
		<path class="st3" d="M376.1,215.7l0.7,28l-16.7,0.4l-2-83.1l25.2-0.6c17.2-0.4,29.1,11.1,29.5,26.7c0.4,15.9-11.1,28-28.5,28.4
			L376.1,215.7z M375.1,175l0.7,26.7l7-0.2c8.2-0.2,13.4-5.9,13.2-13.6c-0.2-7.7-5.6-13.3-13.7-13.1L375.1,175z"/>
		<path class="st3" d="M463,241.6l-11.9-30c-0.5,0.1-2.5,0.2-2.8,0.2l-6.2,0.2l0.7,30.2l-16.7,0.4l-2-83.1l26.2-0.6
			c16.5-0.4,28.1,10.5,28.4,25.7c0.2,9.6-4.6,17.8-12.3,22.3l15.5,34.4L463,241.6z M441.8,199l7.6-0.2c7.7-0.2,12.7-5.9,12.5-13.1
			c-0.2-7.4-5.2-12.7-13-12.5l-7.7,0.2L441.8,199z"/>
		<path class="st3" d="M490.7,184.6c-0.4-17.2,11.2-28.3,27.5-28.7c16.4-0.4,27.9,9.8,28.3,27l0.7,29.7
			c0.4,17.2-11.1,28.4-27.3,28.8c-16.4,0.4-28.1-9.9-28.5-27.1L490.7,184.6z M508.3,214c0.2,8.1,4.6,12.6,11.4,12.4
			c6.9-0.2,11.1-4.9,10.9-13l-0.7-30.3c-0.2-8-4.6-12.6-11.5-12.4c-6.8,0.2-10.9,5-10.7,13L508.3,214z"/>
		<path class="st3" d="M551.4,156.3l18.3-0.4l16.5,56.2l13.9-56.9l17.2-0.4l-22.9,83.7l-15.9,0.4L551.4,156.3z"/>
		<path class="st3" d="M626.9,154.4l17.3-0.4l2,83.1l-17.3,0.4L626.9,154.4z"/>
		<path class="st3" d="M677.2,183.5l1.3,52.9l-15.4,0.4l-2-83.1l16.4-0.4l25.3,50.1l-1.2-50.7l15.3-0.4l2,83.1l-15.3,0.4
			L677.2,183.5z"/>
		<path class="st3" d="M770.9,203.5l16.3-0.4l0.1,4.3c0.4,16.9-10.6,27.8-26.3,28.2c-16,0.4-27.5-9.7-27.9-26.5l-0.8-30.9
			c-0.4-16.9,11-27.7,26.9-28.1c15.7-0.4,26.9,9.6,27.3,26.4l0.1,3.4l-16.3,0.4l-0.1-3.6c-0.2-7.6-4.3-12-10.9-11.9
			c-6.4,0.2-10.3,4.8-10.2,12.4l0.8,31.5c0.2,7.7,4.3,12,10.7,11.9c6.5-0.2,10.5-4.7,10.3-12.4L770.9,203.5z"/>
		<path class="st3" d="M802.9,233.3l-2-83.1l45.1-1.1l0.4,14.8l-28.3,0.7l0.5,18.5l23.5-0.6l0.3,13.9l-23.5,0.6l0.5,21l28.9-0.7
			l0.4,14.8L802.9,233.3z"/>
	</g>
	
		<rect x="64.1" y="68.6" transform="matrix(0.9997 -2.440777e-02 2.440777e-02 0.9997 -10.4024 15.0435)" class="st4" width="1093.9" height="730.1"/>
	<polygon class="st5" points="964.1,477.5 991.4,503.4 1026.6,490.2 1040,525.3 1077.4,528.7 1074.2,566.1 1106.5,585.4 
		1087.3,617.8 1108,649.2 1076.8,670 1081.8,707.3 1044.5,712.5 1032.9,748.2 997.1,736.8 971.1,763.9 943.8,738.1 908.6,751.3 
		895.3,716.1 857.8,712.8 861,675.3 828.8,656 847.9,623.6 827.2,592.3 858.5,571.4 853.5,534.2 890.7,529 902.3,493.2 938.1,504.7 
			"/>
	<line class="st6" x1="210.3" y1="588.3" x2="694.7" y2="576.4"/>
	<line class="st6" x1="211.5" y1="635.8" x2="610.5" y2="626.1"/>
	<g>
		<path class="st7" d="M506.2,704.3c-12.8,0.3-25.4-0.8-37.4-4.9c-10.2,11.3-28.9,14.2-46.5,14.6c-10.4,0.3-20.3-0.4-27.7-0.7
			c-1.7-0.1-4.9-0.6-4.9-2.7c0-0.9,0.2-1.7,0.2-2.5c-0.1-5.4-7.1-7.2-17.3-7c-24,0.6-65.4,12.3-73.6,12.5
			c-10.4,0.3-11.8-9.3-12.1-17.6c-15.6,4.8-43.6,12.2-60.2,12.6c-7.9,0.2-13.1-1.2-13.2-5.2c-0.1-3.6,3.4-9.1,12.3-9.3
			c2.7-0.1,4.8,0.5,4.8,2.1c0,0.6-0.7,1.3-0.7,2c0,0.6,1.5,0.6,3.8,0.6c8.7-0.2,29.9-3.5,31.5-4c8.8-2.6,17.7-5,26.1-8.6
			c0.8-0.4,4-1.2,6.6-1.3c2.2-0.1,4.1,0.4,4.1,2.3c0.3,11.9,7,15.3,15.6,15.1c11-0.3,25.5-6.5,35.1-9c10.1-2.6,20.3-4.3,30.7-4.6
			c2.5-0.1,5,0,7.5,0.1c3.5,0.2,12.8,2.3,14.2,6.8c2.4,7.6,10.6,10.3,20,10.1c14.3-0.4,31.3-7.3,34.1-13.6c1.3-2.8,5.7-4.5,9.4-4.6
			c1.4,0,2.9,0.2,3.8,0.7c12.4,5.9,25.8,7.4,39.5,7.1c18.6-0.5,37.8-4.5,55.5-6.6c0.6,0,1-0.1,1.5-0.1c3.2-0.1,4.6,1,4.6,2.5
			c0.1,2.5-3.5,5.9-8,6.5C546.6,699.8,526.1,703.8,506.2,704.3z"/>
	</g>
	<g class="st2">
		<path class="st3" d="M202.2,326.8l2.3,93.3l8.7-0.2l0.4,18.1l-36.9,0.9l-0.4-18.1l8.7-0.2l-2.3-93.3l-8.7,0.2l-0.4-18.1l36.9-0.9
			l0.4,18.1L202.2,326.8z"/>
		<path class="st3" d="M289.3,324.7l-8.7,0.2l2.7,111.4l-18,0.4l-20.9-78.9l1.5,61.2l8.3-0.2l0.4,18.1l-34,0.8l-0.4-18.1l8.7-0.2
			l-2.3-93.3l-8.7,0.2l-0.4-18.1l26.7-0.7l20.9,78.9l-1.5-61.2l-8.3,0.2l-0.4-18.1l34-0.8L289.3,324.7z"/>
		<path class="st3" d="M356.7,424.3l-10.1,10.5l-34.3,0.8l-10.5-10.1l-2.7-109l10.1-10.5l34.3-0.8l10.5,10.1l0.8,31.6l-19.4,0.5
			l-0.6-23.8l-16,0.4l2.3,93.3l16-0.4l-0.6-23.8l19.4-0.5L356.7,424.3z"/>
		<path class="st3" d="M422.9,313.6l2.7,109l-10.1,10.5l-34.3,0.8l-10.5-10.1l-2.7-109l10.1-10.5l34.3-0.8L422.9,313.6z
			 M387.6,322.3l2.3,93.3l16-0.4l-2.3-93.3L387.6,322.3z"/>
		<path class="st3" d="M504.2,412.8l0.4,18.1l-22.3,0.5l-14.1-58.3l-5.2,0.1l1,40.5l7.6-0.2l0.4,18.1l-35.8,0.9l-0.4-18.1l8.7-0.2
			l-2.3-93.3l-8.7,0.2l-0.4-18.1l50.5-1.2l10.5,10.1l1.2,50.5l-8.7,9.1l-0.2,0l11.4,41.4L504.2,412.8z M462.7,357.4l13.1-0.3
			l-0.9-36.9l-13.1,0.3L462.7,357.4z"/>
		<path class="st3" d="M567.5,310.1l1.4,57.8l-10.1,10.5l-21.7,0.5l0.8,33l11.3-0.3l0.4,18.1l-39.5,1l-0.4-18.1l8.7-0.2l-2.3-93.3
			l-8.7,0.2l-0.4-18.1l50-1.2L567.5,310.1z M548.2,318.3l-12.6,0.3l1,42.9l12.6-0.3L548.2,318.3z"/>
		<path class="st3" d="M635.3,308.4l2.7,109l-10.1,10.5l-34.3,0.8l-10.5-10.1l-2.7-109l10.1-10.5l34.3-0.8L635.3,308.4z
			 M600.1,317.1l2.3,93.3l16-0.4l-2.3-93.3L600.1,317.1z"/>
		<path class="st3" d="M716.7,407.6l0.4,18.1l-22.3,0.5l-14.1-58.3l-5.2,0.1l1,40.5l7.6-0.2l0.4,18.1l-35.8,0.9l-0.4-18.1l8.7-0.2
			l-2.3-93.3l-8.7,0.2l-0.4-18.1l50.5-1.2l10.5,10.1l1.2,50.5l-8.7,9.1l-0.2,0l11.4,41.4L716.7,407.6z M675.1,352.2l13.1-0.3
			l-0.9-36.9l-13.1,0.3L675.1,352.2z"/>
		<path class="st3" d="M793.4,405.7l0.4,18.1l-33.8,0.8l-0.4-17.7l6.5-0.2l-2.8-22.8l-13.6,0.3l-1.7,22.9l6.6-0.2l0.4,17.7
			l-33.4,0.8l-0.4-18.1l8.1-0.2l9.9-94.2l-9.7,0.2l-0.4-17.5l39-1l17.3,111.1L793.4,405.7z M761.2,367.1l-6.5-53l-3.9,53.2
			L761.2,367.1z"/>
		<path class="st3" d="M839.8,335.2l-0.6-24l-7.3,0.2l2.3,93.3l10.4-0.3l0.4,18.1l-40.2,1l-0.4-18.1l10.4-0.3l-2.3-93.3l-7.3,0.2
			l0.6,24l-16.8,0.4l-1-42.1l67.7-1.7l1,42.1L839.8,335.2z"/>
		<path class="st3" d="M892.1,309.9l2.3,93.3l8.7-0.2l0.4,18.1l-36.9,0.9l-0.4-18.1l8.7-0.2l-2.3-93.3l-8.7,0.2l-0.4-18.1l36.9-0.9
			l0.4,18.1L892.1,309.9z"/>
		<path class="st3" d="M965.9,300.4l2.7,109l-10.1,10.5l-34.3,0.8l-10.5-10.1l-2.7-109l10.1-10.5l34.3-0.8L965.9,300.4z M930.6,309
			l2.3,93.3l16-0.4l-2.3-93.3L930.6,309z"/>
		<path class="st3" d="M1048,306.1l-8.7,0.2l2.7,111.4l-18,0.4l-20.9-78.9l1.5,61.2l8.3-0.2l0.4,18.1l-34,0.8l-0.4-18.1l8.7-0.2
			l-2.3-93.3l-8.7,0.2l-0.4-18.1l26.7-0.7l20.9,78.9l-1.5-61.2l-8.3,0.2l-0.4-18.1l34-0.8L1048,306.1z"/>
	</g>
</g>
</svg>
