<?xml version="1.0" encoding="utf-8"?>
<!-- Generator: Adobe Illustrator 22.0.1, SVG Export Plug-In . SVG Version: 6.00 Build 0)  -->
<svg version="1.1" id="Layer_1" xmlns="http://www.w3.org/2000/svg" xmlns:xlink="http://www.w3.org/1999/xlink" x="0px" y="0px"
	 viewBox="0 0 1846.3 1607" style="enable-background:new 0 0 1846.3 1607;" xml:space="preserve">
<style type="text/css">
	.st0{fill:#9ECAD9;}
	.st1{fill:#CDE0DE;}
	.st2{fill:#384261;}
	.st3{fill:none;stroke:#9ECAD9;stroke-width:19.8;stroke-miterlimit:10;}
	.st4{fill:none;stroke:#384261;stroke-width:26.4;stroke-miterlimit:10;}
	.st5{fill:#7E8E9E;}
	.st6{font-family:'SantEliaScript-Regular';}
	.st7{font-size:198px;}
</style>
<circle class="st0" cx="912.1" cy="803.5" r="803.5"/>
<rect x="88.4" y="207.3" transform="matrix(0.9848 -0.1736 0.1736 0.9848 -123.0471 172.2917)" class="st1" width="1669.5" height="1164.2"/>
<path class="st2" d="M575.9,525.9c-0.1-0.5-0.1-1.1-0.2-1.7c-0.8-4.6-2.5-8.7-4.6-11.9c-5.1-0.3-10.7-0.4-16.6-0.1l-6.6-37.3
	c-3-0.7-6.5-0.9-10.2-0.2c-3.7,0.7-7,2-9.5,3.7l6.3,35.6c-3,0.4-6.1,0.9-9.2,1.4c-2.7,0.5-5.3,1-7.9,1.5l-6.3-35.5
	c-3-0.7-6.5-0.9-10.2-0.2c-3.7,0.7-7,2-9.5,3.7l6.5,37.1c-6.2,1.9-11.9,4-17,6.2c-0.9,3.7-1,8.1-0.2,12.7c0.8,4.6,2.5,8.7,4.6,11.9
	c2.3,0.1,4.8,0.2,7.2,0.3l3.9,22.1l14.6,14.4c5.1,0.3,10.9,0.2,17.1-0.4l6.4,36.3c3,0.7,6.5,0.9,10.2,0.2c3.7-0.7,7-2,9.5-3.7
	l-3.1-17.5c9.5,7.4,21.9,11,34.7,8.7c23.9-4.2,40-27.1,35.7-51C617.8,540,597.9,524.7,575.9,525.9z M583.6,599.6
	c-16.4,2.9-32.1-8.1-35-24.5c-2.9-16.4,8.1-32.1,24.5-35c16.4-2.9,32.1,8.1,35,24.5C611,581,600,596.7,583.6,599.6z"/>
<polygon class="st2" points="590.3,548.4 571.7,551.7 562.7,579.1 574.6,577 571.2,593.2 575.5,592.4 596.8,562.5 581.4,565.2 "/>
<path class="st2" d="M676.6,470.3l-1.3-7.1l-35.1,6.2l2.3,13l39.8-7l7.2,5l3.5,20.1l-5,7.2l-44.6,7.9l-7.2-5l-1.8-10.3l10.9-1.9
	l1.3,7.2l35.1-6.2l-2.5-13.9l-39.8,7l-7.2-5l-3.4-19.2l5-7.2l44.6-7.9l7.2,5l1.8,10.2L676.6,470.3z"/>
<path class="st2" d="M773.5,483.5l1.6,8.9l-28.6,5l-1.5-8.7l8.7-1.5l-5.4-7.5l-27,4.8l-2.5,8.9l8.8-1.6l1.5,8.7l-28.3,5l-1.6-8.9
	l8.1-1.4l12.5-40.4l-10.9,1.9l-1.5-8.6l26.3-4.6l31.5,41.5L773.5,483.5z M742.8,472l-12.9-17.9l-6,21.2L742.8,472z"/>
<path class="st2" d="M830.6,446.2l-10.3,1.8l-1.8-10l-27.3,4.8l2.5,14.3l22.3-3.9l1.5,8.6l-22.3,3.9l2.3,13.3l10.6-1.9l1.6,9.2
	l-30.6,5.4l-1.6-9.2l9-1.6l-6.4-36.2l-9,1.6l-1.6-9.2l57.5-10.1L830.6,446.2z"/>
<path class="st2" d="M887.2,436.2l-1.8-10l-28.8,5.1l2.3,13.3l22-3.9l1.5,8.6l-22,3.9l2.5,14.3l28.8-5.1l-1.8-10l10.3-1.8l3.4,19.2
	l-59,10.4l-1.6-9.2l9-1.6l-6.4-36.2l-9,1.6l-1.6-9.2l59-10.4l3.4,19.2L887.2,436.2z"/>
<path class="st2" d="M972.7,423.7l-10,1.8l-2.2-12.5l-17.1,3l6.4,36.2l10.6-1.9l1.6,9.2l-32.2,5.7l-1.6-9.2l10.6-1.9l-6.4-36.2
	l-17.1,3l2.2,12.5l-10.3,1.8l-3.8-21.7l65.4-11.5L972.7,423.7z"/>
<path class="st2" d="M1020.6,427l2.2,12.6l10.2-1.8l1.6,8.9l-30.8,5.4l-1.6-8.9l10.2-1.8l-2.2-12.5l-26.8-20.3l-7.8,1.4l-1.6-8.9
	l29.8-5.3l1.5,8.7l-8.7,1.5l17.8,14.5l11.7-19.7l-8.7,1.5l-1.5-8.7l29.1-5.1l1.6,8.9l-7.8,1.4L1020.6,427z"/>
<path class="st2" d="M720,577.4l1.6,8.9l-28.6,5l-1.5-8.7l8.7-1.5l-5.4-7.5l-27,4.8l-2.5,8.9l8.8-1.6l1.5,8.7l-28.3,5l-1.6-8.9
	l8.1-1.4l12.5-40.4l-10.9,1.9l-1.5-8.6l26.3-4.6l31.5,41.5L720,577.4z M689.3,565.9L676.4,548l-6,21.2L689.3,565.9z"/>
<path class="st2" d="M784.1,528.5l-8.7,1.5l6.9,39.2l-5,7.2l-41.8,7.4l-7.2-5l-6.9-39.3l-8.7,1.5l-1.6-9.2l29.4-5.2l1.6,9.2
	l-9.8,1.7l6.4,36.2l32.2-5.7l-6.4-36.2l-9.8,1.7l-1.6-9.2l29.4-5.2L784.1,528.5z"/>
<path class="st2" d="M858.3,528.3l-10,1.8l-2.2-12.5l-17.1,3l6.4,36.2l10.6-1.9l1.6,9.2l-32.2,5.7l-1.6-9.2l10.6-1.9l-6.4-36.2
	l-17.1,3l2.2,12.5l-10.3,1.8l-3.8-21.7l65.4-11.5L858.3,528.3z"/>
<path class="st2" d="M927.3,503.3l6.4,36.2l9.1-1.6l1.6,9.2l-29,5.1l-1.6-9.2l9.1-1.6l-2.5-13.9l-33.5,5.9l2.5,13.9l9.1-1.6l1.6,9.2
	L871,560l-1.6-9.2l9-1.6L872,513l-9,1.6l-1.6-9.2l28.9-5.1l1.6,9.2l-9.1,1.6l2.3,13l33.5-5.9l-2.3-13l-9.1,1.6l-1.6-9.2l29-5.1
	l1.6,9.2L927.3,503.3z"/>
<path class="st2" d="M1001.2,487l7.5,42.4l-5,7.2l-44.6,7.9l-7.2-5l-7.5-42.4l5-7.2l44.6-7.9L1001.2,487z M955.8,498.2l6.4,36.2
	l35.1-6.2l-6.4-36.2L955.8,498.2z"/>
<path class="st2" d="M1084.6,513.1l1.6,8.9l-15.7,2.8l-28.7-19.3l-7.9,1.4l2.6,14.7l10.4-1.8l1.6,8.9l-30.2,5.3l-1.6-8.9l9.3-1.6
	l-6.5-36.7l-9.3,1.6l-1.6-8.9l58.4-10.3l7.2,5l3.3,18.8l-5,7.2l-17.1,3l18,12L1084.6,513.1z M1032.5,498.7l34.5-6.1l-2.4-13.9
	l-34.5,6.1L1032.5,498.7z"/>
<path class="st2" d="M1103.3,472.2l6.4,36.2l9.1-1.6l1.6,9.2l-28.9,5.1l-1.6-9.2l9-1.6l-6.4-36.2l-9,1.6l-1.6-9.2l28.9-5.1l1.6,9.2
	L1103.3,472.2z"/>
<path class="st2" d="M1186.8,470.4l-10,1.8l-2.2-12.5l-17.1,3l6.4,36.2l10.6-1.9l1.6,9.2l-32.2,5.7l-1.6-9.2l10.6-1.9l-6.4-36.2
	l-17.1,3l2.2,12.5l-10.3,1.8l-3.8-21.7l65.4-11.5L1186.8,470.4z"/>
<path class="st2" d="M1234.6,473.7l2.2,12.6l10.2-1.8l1.6,8.9l-30.8,5.4l-1.6-8.9l10.2-1.8l-2.2-12.5l-26.8-20.3l-7.8,1.4l-1.6-8.9
	l29.8-5.3l1.5,8.7l-8.7,1.5l17.8,14.5l11.7-19.7l-8.7,1.5l-1.5-8.7l29.1-5.1l1.6,8.9l-7.8,1.4L1234.6,473.7z"/>
<path class="st3" d="M1578,228.1c27.6-4.9,46-31.2,41.1-58.8s-31.2-46-58.8-41.1c-27.6,4.9-46,31.2-41.1,58.8l170.1,964.5
	c4.9,27.6,31.2,46,58.8,41.1c27.6-4.9,46-31.2,41.1-58.8s-31.2-46-58.8-41.1L268.3,1350.6c-27.6,4.9-46,31.2-41.1,58.8
	c4.9,27.6,31.2,46,58.8,41.1c27.6-4.9,46-31.2,41.1-58.8L157,427.2c-4.9-27.6-31.2-46-58.8-41.1s-46,31.2-41.1,58.8
	s31.2,46,58.8,41.1L1578,228.1z"/>
<line class="st4" x1="438.6" y1="1059.9" x2="1471" y2="877.9"/>
<line class="st4" x1="450.1" y1="1125" x2="1254.8" y2="983.1"/>
<g>
	<path class="st5" d="M869.1,1157.9c-17.5,3.1-35,4.2-52.3,1.1c-11.6,17.6-36.8,25.5-60.8,29.8c-14.2,2.5-27.9,3.7-38.1,4.8
		c-2.4,0.3-6.8,0.1-7.3-2.7c-0.2-1.2,0-2.4-0.2-3.4c-1.3-7.4-11.3-8.5-25.2-6c-32.9,5.8-87.2,30.5-98.5,32.5
		c-14.3,2.5-18.2-10.3-20.3-21.6c-20.4,9.8-57.4,25.8-80.1,29.8c-10.8,1.9-18.3,1.1-19.3-4.4c-0.9-4.9,2.8-13.2,15-15.4
		c3.6-0.6,6.7-0.2,7,1.8c0.1,0.8-0.7,2-0.6,2.9c0.1,0.8,2.2,0.5,5.4,0c12-2.1,40.3-11,42.4-12c11.5-5.4,23.2-10.5,34.1-17.3
		c1.1-0.7,5.2-2.5,8.8-3.2c3-0.5,5.7-0.3,6.2,2.3c2.9,16.2,12.8,19.6,24.5,17.5c15.1-2.7,33.7-14.2,46.4-19.7
		c13.3-5.7,27-10.1,41.2-12.6c3.4-0.6,6.9-1.1,10.3-1.4c4.9-0.5,18,0.4,21,6.4c4.8,10,16.7,11.9,29.6,9.7
		c19.6-3.5,41.4-16.6,44-25.7c1.2-4.1,6.9-7.4,11.9-8.3c1.9-0.3,4-0.3,5.4,0.1c18.3,5.5,37,4.9,55.8,1.6c25.5-4.5,51-14.1,74.9-20.6
		c0.8-0.1,1.4-0.4,2.1-0.5c4.4-0.8,6.5,0.5,6.9,2.5c0.6,3.4-3.5,8.8-9.7,10.5C923.6,1143.3,896.4,1153,869.1,1157.9z"/>
</g>
<path class="st5" d="M1465.6,1054c-6,1.1-11.8,1.4-17-0.1c-15.5-4.2-24.7-5.8-33.6-4.3c-7.8,1.4-15.4,5.3-27.1,12.1
	c-5.7,3.4-11.2,5.7-16.1,6.6c-9.5,1.7-17.3-1.8-21.6-12.1c-11.5,7.5-23.1,14.9-35.5,21.5c-1,0.6-3,1.2-5.1,1.6
	c-3.4,0.6-7,0.3-7.6-2.7c-0.4-2.3,0.2-5.5,0.2-8.2c-11.4,9-22.2,18.7-34.4,26.7c-1.7,1.1-4.9,2.6-8.2,3.2c-3.8,0.7-8.1-10-8.7-13.6
	c-9.4,0.6-18.8,2-28,3.6c-4.4,0.8-7.2-0.7-7.6-3.1c-0.8-4.3,5-8,17.1-12.4c5.7-2.1,11.1-4.1,16.3-5c9.9-1.7,18.3,0.3,22.4,10.8
	c11.6-9.3,22.6-19.3,35.2-27.5c1.7-1.1,5-2.6,8.2-3.2c4.8-0.8,6.6,0.3,7.6,5.9c0.4,2.1,0.6,4.2,0.8,6.3
	c10.3-6.2,20.4-12.6,30.4-19.3c1.1-0.7,5.3-2.8,8.9-3.4c3-0.5,5.6-0.2,6,2.3c1.5,8.7,7,11,13.5,9.8c14.9-2.6,38-22.1,49.5-24.1
	c5.6-1,9,1.4,15.6,3.8c13.7,5.4,24.4,9.9,39.8,7c2.2-0.4,4.8-1.1,7-1.5c4.7-0.8,6.9,0.4,7.2,2.3c0.6,3.2-3.6,8.5-9.6,10.1
	C1483.9,1049,1474.7,1052.4,1465.6,1054z"/>
<text transform="matrix(0.9848 -0.1736 0.1736 0.9848 564.1785 878.6583)" class="st2 st6 st7">License</text>
</svg>
