<?xml version="1.0" encoding="utf-8"?>
<!-- Generator: Adobe Illustrator 22.0.1, SVG Export Plug-In . SVG Version: 6.00 Build 0)  -->
<svg version="1.1" id="Layer_1" xmlns="http://www.w3.org/2000/svg" xmlns:xlink="http://www.w3.org/1999/xlink" x="0px" y="0px"
	 viewBox="0 0 1846.3 1436.4" style="enable-background:new 0 0 1846.3 1436.4;" xml:space="preserve">
<style type="text/css">
	.st0{fill:#FEF2A7;}
	.st1{fill:none;stroke:#384261;stroke-width:26.4;stroke-miterlimit:10;}
	.st2{fill:#384261;}
	.st3{fill:#F4E89D;}
	.st4{font-family:'Colt-Bold';}
	.st5{font-size:144px;}
	.st6{fill:#628E9D;}
	.st7{font-family:'MumbleGrumbleIBB';}
	.st8{font-size:150px;}
	.st9{letter-spacing:-60;}
</style>
<rect x="88.4" y="136.1" transform="matrix(0.9848 -0.1736 0.1736 0.9848 -110.6894 171.2105)" class="st0" width="1669.5" height="1164.2"/>
<line class="st1" x1="368.6" y1="937.3" x2="1519.2" y2="734.4"/>
<line class="st1" x1="380" y1="1002.4" x2="863.9" y2="917.1"/>
<line class="st1" x1="1046.8" y1="884.8" x2="1530.7" y2="799.5"/>
<path class="st2" d="M287.4,420.2L215,479.6l5.8,5.2l68.5-54.2l82.9,27.6l3.7-6.8L287.4,420.2z M237.1,501.1l3.4-0.6l0.8,4.6
	l3.4-0.6l8.5,48.2l-3.4,0.6l0.8,4.4l-3.4,0.6l1.1,6.4l128-22.6l-1.1-6.4l-4.2,0.7l-0.8-4.4l-3.2,0.6l-8.5-48.2l3.2-0.6l-0.8-4.6
	l4.2-0.7l-1.1-6.4l-128,22.6L237.1,501.1z M333.5,489l3.2-0.6l-0.8-4.6l4.5-0.8l0.8,4.6l3.4-0.6l8.5,48.2l-3.4,0.6l0.8,4.4l-4.5,0.8
	l-0.8-4.4l-3.2,0.6L333.5,489z M308.5,493.4l3.2-0.6l-0.8-4.6l4.5-0.8l0.8,4.6l3.4-0.6l8.5,48.2l-3.4,0.6l0.8,4.4l-4.5,0.8l-0.8-4.4
	l-3.2,0.6L308.5,493.4z M283.6,497.8l3.2-0.6l-0.8-4.6l4.5-0.8l0.8,4.6l3.4-0.6l8.5,48.2l-3.4,0.6l0.8,4.4l-4.5,0.8l-0.8-4.4
	l-3.2,0.6L283.6,497.8z M258.6,502.2l3.2-0.6l-0.8-4.6l4.5-0.8l0.8,4.6l3.4-0.6l8.5,48.2l-3.4,0.6l0.8,4.4l-4.5,0.8l-0.8-4.4
	l-3.2,0.6L258.6,502.2z M290.3,436.8l-51.2,40.6L241,488l115.3-20.3l-1.7-9.5L290.3,436.8z M296.3,472.7
	c-7.6,1.3-14.9-3.8-16.3-11.4c-1.3-7.6,3.8-14.9,11.4-16.3c7.6-1.3,14.9,3.8,16.3,11.4C309.1,464.1,304,471.3,296.3,472.7z"/>
<g>
	<path class="st2" d="M499.7,494.1c2.5-1.5,3.8-0.5,5,1.2l5.5,8.2c1.2,1.6,0.2,3-1.7,4.3c-5.5,4.8-16.2,10.6-30,13
		c-34.4,6.1-58.2-11.7-65.3-52c-7.1-40.2,9-65.1,42.7-71.1c13.4-2.4,25.5-0.8,32.2,1.7c2.3,0.8,3.3,1.7,2.9,3.7l-2.2,9.3
		c-0.4,2-1.4,3.2-4.3,2.5c-5.7-1.6-13.9-2.5-22.8-0.9c-24.8,4.4-34.8,21.4-29.5,51.4c5.3,30,20.3,42.7,46,38.2
		C487.5,502,494.9,497.9,499.7,494.1z"/>
	<path class="st2" d="M513.1,393.1c-0.4-2.4,0.4-3.6,2.6-4l11.9-2.1c2.4-0.4,3.8,0.4,4.2,2.8l19.9,112.8c0.4,2.4-0.6,3.6-3,4
		l-11.9,2.1c-2.2,0.4-3.4-0.5-3.8-2.8L513.1,393.1z"/>
	<path class="st2" d="M551.7,386.3c-0.4-2.4,0.6-3.6,2.8-4l77.9-13.7c2.6-0.5,3.8,0.4,4.2,2.8l1.8,10.2c0.4,2.2-0.4,3.6-3,4
		l-29.4,5.2l17.5,99.2c0.4,2.4-0.4,3.6-3,4l-11.7,2.1c-2.2,0.4-3.6-0.4-4-2.8L587.3,394l-29.6,5.2c-2.4,0.4-3.8-0.6-4.2-2.8
		L551.7,386.3z"/>
	<path class="st2" d="M726.1,471.9c0.4,2.4-0.6,3.6-2.8,4l-11.9,2.1c-2.4,0.4-3.6-0.4-4-2.8l-7.2-40.7l-53.4-64.3
		c-1.4-1.7-1.1-4,1.7-4.5l12.8-2.3c2.7-0.5,3.8,0.6,5.1,2.3l28.6,35.8l11.9,15.8l5.8-18.9l14.8-43.5c0.3-2,1.2-3.4,3.9-3.8l12.8-2.3
		c2.7-0.5,3.6,1.6,3.1,3.7l-28.2,78.7L726.1,471.9z"/>
</g>
<rect x="117.7" y="144" transform="matrix(0.9848 -0.1736 0.1736 0.9848 -22.7837 147.6562)" class="st3" width="1429.5" height="120"/>
<rect x="299.1" y="1172.4" transform="matrix(0.9848 -0.1736 0.1736 0.9848 -198.595 194.7647)" class="st3" width="1429.5" height="120"/>
<rect x="1626.1" y="121.6" transform="matrix(0.9848 -0.1736 0.1736 0.9848 -75.7373 301.6533)" class="st3" width="120" height="924.2"/>
<rect x="100.2" y="390.6" transform="matrix(0.9848 -0.1736 0.1736 0.9848 -145.6414 40.7677)" class="st3" width="120" height="924.2"/>
<ellipse transform="matrix(0.9848 -0.1736 0.1736 0.9848 -57.7358 17.2134)" class="st3" cx="69.5" cy="338.6" rx="31.3" ry="31.3"/>
<ellipse transform="matrix(0.9848 -0.1736 0.1736 0.9848 -233.5471 64.3219)" class="st3" cx="250.8" cy="1366.9" rx="31.3" ry="31.3"/>
<ellipse transform="matrix(0.9848 -0.1736 0.1736 0.9848 12.1683 278.099)" class="st3" cx="1595.4" cy="69.5" rx="31.3" ry="31.3"/>
<ellipse transform="matrix(0.9848 -0.1736 0.1736 0.9848 -163.643 325.2075)" class="st3" cx="1776.7" cy="1097.8" rx="31.3" ry="31.3"/>
<text transform="matrix(0.9848 -0.1736 0.1736 0.9848 354.6378 829.0759)" class="st2 st4 st5">PERMIT</text>
<text transform="matrix(0.9848 -0.1736 0.1736 0.9848 1048.3621 1023.5221)" class="st6 st7 st8 st9">e</text>
<text transform="matrix(0.9848 -0.1736 0.1736 0.9848 370.5736 1135.3275)" class="st6 st7 st8">n</text>
<path class="st2" d="M1504.6,219.3c-0.3-1.2-1.4-2-2.6-2c-31.4,0-75.5-16.5-76-16.7c-0.9-0.4-2-0.2-2.7,0.5
	c-0.4,0.3-36.2,31-65.8,41.7c-1.1,0.4-1.9,1.5-1.8,2.7c0.1,0.9,1.9,23.2,14.8,49.9c7.6,15.7,17.4,29.7,29.3,41.5
	c14.8,14.8,32.8,26.3,53.4,34.2c0.5,0.2,1,0.2,1.4,0.1c0.5-0.1,0.9-0.3,1.3-0.6c16.2-14.5,28.8-31.4,37.6-50.4
	c7-15.2,11.5-31.7,13.4-49C1510.2,241.7,1504.9,220.2,1504.6,219.3z M1439.7,329.6l-47.4-28.5l11.5-19.8l24.9,14.5
	c2.4,1.4,5.5,0.7,7.1-1.6l36.9-62.4l18.7,13L1439.7,329.6z"/>
</svg>
