<?xml version="1.0" encoding="utf-8"?>
<!-- Generator: Adobe Illustrator 22.0.1, SVG Export Plug-In . SVG Version: 6.00 Build 0)  -->
<svg version="1.1" id="Layer_1" xmlns="http://www.w3.org/2000/svg" xmlns:xlink="http://www.w3.org/1999/xlink" x="0px" y="0px"
	 viewBox="0 0 1227.7 875.5" style="enable-background:new 0 0 1227.7 875.5;" xml:space="preserve">
<style type="text/css">
	.st0{fill:#FEF2A7;}
	.st1{enable-background:new    ;}
	.st2{fill:#384261;}
	.st3{fill:#FED453;}
	.st4{fill:none;stroke:#384261;stroke-width:23.76;stroke-miterlimit:10;}
	.st5{fill:#6A7493;}
</style>
<rect x="194.8" y="-163.2" transform="matrix(3.138720e-02 -0.9995 0.9995 3.138720e-02 157.0436 1037.6486)" class="st0" width="838.2" height="1202"/>
<g class="st1">
	<path class="st2" d="M166.5,197.7L156.3,167c-0.5,0.1-2.5,0-2.9,0l-6.2-0.2l-0.9,30.2l-16.7-0.5l2.6-83.1l26.2,0.8
		c16.5,0.5,27.4,12,27,27.2c-0.3,9.6-5.5,17.5-13.5,21.6l13.5,35.3L166.5,197.7z M147.7,153.9l7.6,0.2c7.7,0.2,13-5.2,13.2-12.4
		c0.2-7.4-4.5-13-12.3-13.2l-7.7-0.2L147.7,153.9z"/>
	<path class="st2" d="M196.8,198.6l2.6-83.1l45.1,1.4l-0.5,14.8l-28.3-0.9l-0.6,18.5l23.5,0.7l-0.4,13.9l-23.5-0.7l-0.7,21l28.9,0.9
		l-0.5,14.8L196.8,198.6z"/>
	<path class="st2" d="M252.9,173.8l0.9-29.7c0.5-17.2,12.8-27.7,29-27.1c16.4,0.5,27.3,11.3,26.8,28.5l-0.1,1.8l-16.7-0.5l0.1-1.9
		c0.2-8-3.9-12.8-10.8-13.1c-6.8-0.2-11.2,4.4-11.4,12.4l-0.9,29.8c-0.3,8.9,4,13.8,11.1,14c7.1,0.2,11.8-4.4,12.1-13.3l0.2-5.9
		l-11.8-0.4l0.4-12.1l27.5,0.9l-0.6,18c-0.5,17.2-12.6,27.8-28.9,27.3C263.5,201.9,252.4,191,252.9,173.8z"/>
	<path class="st2" d="M326.1,119.5l17.3,0.5l-2.6,83.1l-17.3-0.5L326.1,119.5z"/>
	<path class="st2" d="M358.1,147.3c0.5-17.2,12.8-27.7,29-27.1c16.4,0.5,27.3,11.3,26.8,28.5l-0.9,29.7
		c-0.5,17.2-12.6,27.8-28.9,27.3c-16.4-0.5-27.5-11.4-26.9-28.7L358.1,147.3z M374.1,177.7c-0.3,8.1,3.9,12.8,10.6,13.1
		c6.9,0.2,11.3-4.3,11.6-12.4l1-30.3c0.2-8-3.9-12.8-10.8-13.1c-6.8-0.2-11.2,4.4-11.4,12.4L374.1,177.7z"/>
	<path class="st2" d="M444.2,153.5l-1.7,52.8l-15.4-0.5l2.6-83.1l16.4,0.5l22.5,51.5l1.6-50.7l15.3,0.5l-2.6,83.1l-15.3-0.5
		L444.2,153.5z"/>
	<path class="st2" d="M558.8,210l-17.6-0.6l-4.3-17.8l-22.9-0.7l-5.4,17.5l-16.6-0.5l28.1-82.3l15.9,0.5L558.8,210z M517.5,178.4
		l16.6,0.5l-7.4-30.2L517.5,178.4z"/>
	<path class="st2" d="M570.4,127.1l16.9,0.5l-2.1,67.8l26.5,0.8l-0.5,15.3l-43.3-1.4L570.4,127.1z"/>
	<path class="st2" d="M692.2,178.6l-21-0.7l-1.1,35.5l-16.9-0.5l2.6-83.1l16.9,0.5l-1,32.3l21,0.7l1-32.3l16.7,0.5l-2.6,83.1
		l-16.7-0.5L692.2,178.6z"/>
	<path class="st2" d="M724,215.2l2.6-83.1l45.1,1.4l-0.5,14.8l-28.3-0.9l-0.6,18.5l23.5,0.7l-0.4,13.9l-23.5-0.7l-0.7,21l28.9,0.9
		l-0.5,14.8L724,215.2z"/>
	<path class="st2" d="M841.4,218.9l-17.6-0.6l-4.3-17.8l-22.9-0.7l-5.4,17.5l-16.6-0.5l28.1-82.3l15.9,0.5L841.4,218.9z
		 M800.1,187.3l16.6,0.5l-7.4-30.2L800.1,187.3z"/>
	<path class="st2" d="M853,136l16.9,0.5l-2.1,67.8l26.5,0.8l-0.5,15.3l-43.3-1.4L853,136z"/>
	<path class="st2" d="M927.4,153.6l-2.1,67.9l-16.9-0.5l2.1-67.9l-17.5-0.5l0.5-15.2l51.7,1.6l-0.5,15.2L927.4,153.6z"/>
	<path class="st2" d="M992.4,188.1l-21-0.7l-1.1,35.5l-16.9-0.5l2.6-83.1l16.9,0.5l-1,32.3l21,0.7l1-32.3l16.7,0.5l-2.6,83.1
		l-16.7-0.5L992.4,188.1z"/>
</g>
<g class="st1">
	<path class="st2" d="M185.6,317.1l-17.6-0.6l-4.3-17.8l-22.9-0.7l-5.4,17.5l-16.6-0.5l28.1-82.3l15.9,0.5L185.6,317.1z
		 M144.2,285.5l16.6,0.5l-7.4-30.2L144.2,285.5z"/>
	<path class="st2" d="M232.2,235.4l16.6,0.5l-1.8,56.8c-0.5,16.9-12.4,27.2-28.3,26.7c-16-0.5-26.9-11.2-26.3-28l1.8-57.1l17,0.5
		l-1.8,57.2c-0.2,7.7,3.7,12.2,10.1,12.4c6.5,0.2,10.7-4.1,10.9-11.8L232.2,235.4z"/>
	<path class="st2" d="M292.9,252.5l-2.1,67.9l-16.9-0.5L276,252l-17.5-0.5l0.5-15.2l51.7,1.6l-0.5,15.2L292.9,252.5z"/>
	<path class="st2" d="M357.9,287l-21-0.7l-1.1,35.5l-16.9-0.5l2.6-83.1l16.9,0.5l-1,32.3l21,0.7l1-32.3l16.7,0.5l-2.6,83.1
		l-16.7-0.5L357.9,287z"/>
	<path class="st2" d="M390.3,267.2c0.5-17.2,12.8-27.7,29-27.1c16.4,0.5,27.3,11.3,26.8,28.5l-0.9,29.7
		c-0.5,17.2-12.6,27.8-28.9,27.3c-16.4-0.5-27.5-11.4-26.9-28.7L390.3,267.2z M406.2,297.5c-0.3,8.1,3.9,12.8,10.6,13.1
		c6.9,0.2,11.3-4.3,11.6-12.4l1-30.3c0.2-8-3.9-12.8-10.8-13.1c-6.8-0.2-11.2,4.4-11.4,12.4L406.2,297.5z"/>
	<path class="st2" d="M496.2,326.9L486,296.2c-0.5,0.1-2.5,0-2.9,0l-6.2-0.2l-0.9,30.2l-16.7-0.5l2.6-83.1l26.2,0.8
		c16.5,0.5,27.4,12,27,27.2c-0.3,9.6-5.5,17.5-13.5,21.6l13.5,35.2L496.2,326.9z M477.4,283.1l7.6,0.2c7.7,0.2,13-5.2,13.2-12.4
		c0.2-7.4-4.5-13-12.3-13.2l-7.7-0.2L477.4,283.1z"/>
	<path class="st2" d="M529.7,244.7l17.3,0.5l-2.6,83.1l-17.3-0.5L529.7,244.7z"/>
	<path class="st2" d="M592.2,261.9l-2.1,67.9l-16.9-0.5l2.1-67.9l-17.5-0.5l0.5-15.2l51.7,1.6l-0.5,15.2L592.2,261.9z"/>
	<path class="st2" d="M637.9,300.4l-22.3-53l18.8,0.6l12.9,35.8l15.2-34.9l17.8,0.6l-25.6,51.5l-1,30.9l-16.7-0.5L637.9,300.4z"/>
</g>
<polygon class="st3" points="986.3,520.4 1012.1,547.7 1048,536.5 1059.4,572.4 1096.5,577.8 1091.3,615 1122.4,636.1 1101.5,667.3 
	1120.4,699.8 1088,718.9 1090.9,756.4 1053.5,759.5 1039.9,794.5 1004.8,781.1 977.3,806.8 951.5,779.4 915.6,790.6 904.2,754.8 
	867,749.4 872.3,712.1 841.2,691.1 862.1,659.8 843.2,627.3 875.6,608.3 872.7,570.8 910.1,567.7 923.7,532.6 958.8,546.1 "/>
<g class="st1">
	<path class="st2" d="M216,430.4l-1.6,52.3l-14.7,13.8l-57.8-1.8l-0.9,27.5l20.1,0.6l-0.7,21.2l-59.9-1.9l0.7-21.2l15.9,0.5
		l2.7-87.1l-15.9-0.5l0.7-21.2l97.6,3.1L216,430.4z M191.8,436.6l-48.1-1.5l-1.2,39.2l48.1,1.5L191.8,436.6z"/>
	<path class="st2" d="M310.5,460.9l0.6-20.6l-43.1-1.4l-1,32.1l43.6,1.4l-0.7,21.2l-43.6-1.4l-1.1,33.8l43.1,1.4l0.6-20.6l21.7,0.7
		l-1.3,41.8l-104.6-3.3l0.7-21.2l15.9,0.5l2.7-87.1l-15.9-0.5l0.7-21.2l104.6,3.3l-1.3,41.8L310.5,460.9z"/>
	<path class="st2" d="M463.4,531.8l-0.7,21.7l-30.9-1l-39-57.6l-7.3-0.2l-1.1,34.7l17.5,0.5l-0.7,21.7l-57.6-1.8l0.7-21.7l15.2,0.5
		l2.7-86.1l-15.2-0.5l0.7-21.7l97.8,3.1l13.8,14.7l-1.4,44.7l-14.7,13.8l-21.2-0.7l24.3,35.4L463.4,531.8z M386.1,475l47.1,1.5
		l1-31.7l-47.1-1.5L386.1,475z"/>
	<path class="st2" d="M604.4,450l-2.7,86.1l15.2,0.5l-0.7,21.7l-56.8-1.8l0.7-21.7l17.2,0.5l2.1-65.4l-35,50.9l-0.2,0l-31.9-53.2
		l-2.1,65.6l17.3,0.5l-0.7,21.7l-56.8-1.8l0.7-21.7l15.2,0.5l2.7-86.1l-15.2-0.5l0.7-21.7l40,1.3l31.5,54.5l34.9-52.4l39.8,1.3
		l-0.7,21.7L604.4,450z"/>
	<path class="st2" d="M668.8,451.6l-2.7,87.1l15.9,0.5l-0.7,21.2l-55.7-1.7l0.7-21.2l15.9,0.5l2.7-87.1l-15.9-0.5l0.7-21.2l55.7,1.7
		l-0.7,21.2L668.8,451.6z"/>
	<path class="st2" d="M813.3,482.5l-21.4-0.7l0.8-26.4l-25.7-0.8l-2.7,87.1l18.8,0.6l-0.7,21.2l-61.5-1.9l0.7-21.2l18.8,0.6
		l2.7-87.1l-25.7-0.8l-0.8,26.4l-21.7-0.7l1.5-47.6l118.5,3.7L813.3,482.5z"/>
</g>
<line class="st4" x1="99.3" y1="653.6" x2="460.2" y2="664.9"/>
<path class="st5" d="M337,770.5c-13.9-0.4-27.8-0.3-41.7-0.7c-12.5-0.4-25.2-1.2-37.7-3.3c-2.6-0.4-4.6-1.8-4.5-4.5
	c0.1-4.4,0.7-8.6,0.9-13c0.1-2.9,0.2-5.9,0.1-8.8c-24,7.7-45.4,19.4-71.5,21.8c-0.9,0.1-2,0.1-3,0.1c-3.5-0.1-7.5-1-7.4-4.9
	c0-0.5,0-1.1,0-1.5c0.1-3.8-2.1-5.1-5.1-5.2c-5.7-0.2-14.7,4.1-16.2,4.6c-2.5,1-5,1.4-7.5,1.3c-5-0.2-9-2.2-8.9-5.1
	c0.2-6.5,41.2-19.9,55.2-19.4c3.2,0.1,7.4,0.8,7.6,3.7c0.3,4.5,0.4,7,0.3,9.4c0,0.8,0,1.5-0.1,2.3c23-4.9,44.4-17.5,67.4-22.8
	c1.1-0.3,4.1-0.6,7-0.5c3.5,0.1,6.6,1,6.7,3.7c0.5,23.6,8.5,28,24.7,28.5c8.8,0.3,21-0.4,34,0c15.1,0.5,61.9,3.6,61.7,9
	c-0.1,3.9-12.6,9.9-18.9,9.7c-0.3,0-0.7-0.2-1.1-0.2C365.1,772,351.1,770.9,337,770.5z"/>
</svg>
