<?xml version="1.0" encoding="utf-8"?>
<!-- Generator: Adobe Illustrator 22.0.1, SVG Export Plug-In . SVG Version: 6.00 Build 0)  -->
<svg version="1.1" id="Layer_1" xmlns="http://www.w3.org/2000/svg" xmlns:xlink="http://www.w3.org/1999/xlink" x="0px" y="0px"
	 viewBox="0 0 1669.5 1164.2" style="enable-background:new 0 0 1669.5 1164.2;" xml:space="preserve">
<style type="text/css">
	.st0{fill:#9ECAD9;}
	.st1{fill:#1A3F45;}
	.st2{fill:none;}
	.st3{fill:#FFFFFF;}
	.st4{fill:none;stroke:#1A3F45;stroke-width:26.4;stroke-miterlimit:10;}
	.st5{fill:#5E796C;}
</style>
<g>
	<rect class="st0" width="1669.5" height="1164.2"/>
	<g>
		<path class="st1" d="M325.7,753.4l-24-24h-39.1l-12.8-12.8V607.8l12.8-12.8h57.1l12.8,12.8v108.9l-6.7,6.7l15,15.1L325.7,753.4z
			 M273.1,708.2h36v-92.1h-36V708.2z"/>
		<path class="st1" d="M447,616.2h-11.9v100.5l-12.8,12.8h-54.1l-12.8-12.8V616.2h-11.9V595h46v21.2h-10.8v92.1h32.9v-92.1H401V595
			h46V616.2z"/>
		<path class="st1" d="M553.8,708.2v21.2h-46.4v-20.7h10.4l-4.2-21H486l-4.2,21h10.6v20.7h-45.9v-21.2h11.6l22.3-92.7h-15.1V595
			h49.9l26.9,113.2H553.8z M509.7,667.9l-9.9-48.6l-9.7,48.6H509.7z"/>
		<path class="st1" d="M643.5,680.3v49.1h-84.7v-21.2h12.9v-92.1h-12.9V595h51.6v21.2h-15.3v92.1h28.1v-27.9H643.5z"/>
		<path class="st1" d="M688.9,616.2v92.1h12.8v21.2h-49.1v-21.2h12.9v-92.1h-12.9V595h49.1v21.2H688.9z"/>
		<path class="st1" d="M771.7,636v-19.8H745v37.6h32.6V675H745v33.3h16.1v21.2h-52.4v-21.2h12.9v-92.1h-12.9V595h83.8v41H771.7z"/>
		<path class="st1" d="M839.1,616.2v92.1h12.8v21.2h-49.1v-21.2h12.9v-92.1h-12.9V595h49.1v21.2H839.1z"/>
		<path class="st1" d="M945.9,716.6l-12.8,12.8h-57.1l-12.8-12.8V607.8l12.8-12.8h57.1l12.8,12.8v31.9h-23.4v-23.5h-36v92.1h36
			v-23.5h23.4V716.6z"/>
		<path class="st1" d="M1062.7,708.2v21.2h-46.4v-20.7h10.4l-4.2-21h-27.7l-4.2,21h10.6v20.7h-45.9v-21.2h11.6l22.3-92.7h-15.1V595
			h49.9l26.9,113.2H1062.7z M1018.5,667.9l-9.9-48.6l-9.7,48.6H1018.5z"/>
		<path class="st1" d="M1153.9,641.9h-20.5v-25.7h-17.1v92.1h15.3v21.2h-53.9v-21.2h15.3v-92.1h-17.1v25.7H1055V595h99V641.9z"/>
		<path class="st1" d="M1198.5,616.2v92.1h12.8v21.2h-49.1v-21.2h12.9v-92.1h-12.9V595h49.1v21.2H1198.5z"/>
		<path class="st1" d="M1305.3,607.8v108.9l-12.8,12.8h-57.1l-12.8-12.8V607.8l12.8-12.8h57.1L1305.3,607.8z M1246,616.2v92.1h36
			v-92.1H1246z"/>
		<path class="st1" d="M1424.4,616.2h-12.9v113.2h-23l-37.3-88v66.9h13.3v21.2h-47.7v-21.2h12.9v-92.1h-12.9V595h36.1l37.1,87.4
			v-66.2H1377V595h47.4V616.2z"/>
	</g>
	<g>
		<path class="st1" d="M390.8,432.8c-1-5.2-6.2-9.6-16.1-9.6c-23.7,0-46,25.7-46,57c0,25.4,14.3,41,36.8,41
			c22.5,0,44.4-15.1,57-40.7c3.2,0.2,7.9,2.7,9.6,4.7c-14.3,31.2-39.3,56.6-75.3,56.6c-33.4,0-55.8-23-55.8-58.8
			c0-39.8,28.1-80.3,71.4-80.3c29.9,0,43,19,43,35.4c0,11.6-6.6,22.7-18.3,22.7c-8.1,0-14.6-6.6-14.6-14.8
			C382.4,440.2,385.8,435.2,390.8,432.8z"/>
		<path class="st1" d="M518.3,485.3c-11.6,25.4-30.7,44.7-59.6,44.7c-24.9,0-40.7-14.1-40.7-37.3c0-25.4,19.2-51.9,48-51.9
			c18.6,0,30.2,11.1,30.2,24c0,14.6-14.3,33.3-51.6,32.3c2.2,10.1,9.9,16,21.7,16c16.1,0,32.1-11.6,42.3-32.4
			C511.9,480.7,516.6,483.2,518.3,485.3z M444.4,485.8c20.7-0.3,29.7-9.4,29.7-16.8c0-3.9-2.4-7.4-8.4-7.4
			C455.2,461.6,446.3,472.5,444.4,485.8z"/>
		<path class="st1" d="M508.7,480.6c3.5-7.7,7.1-16.3,10.1-25c-3.5-3.4-5.9-7.6-5.9-12.9c0-8.6,6.6-15.1,14.8-15.1
			c6,0,10.6,3.2,12.9,7.4l-5,12.9l4.5,1.7c18.1,7.2,28.2,14.1,22.2,33.9l-5.4,17.8c-1.8,5.7-2,11.1,3,11.1
			c7.6,0,17.3-12.9,26.5-31.8c3.2,0.2,7.9,2.7,9.6,4.7c-11.6,25.4-27.2,44.2-46.4,44.2c-19.7,0-20.2-19.3-15.8-33.6l4.9-15.6
			c2.7-8.9,3.2-13.3-3.5-16l-7.4-3.2c-2.7,8.1-5.9,16.3-9.6,24.2C515,485.1,510.3,482.6,508.7,480.6z"/>
		<path class="st1" d="M587.7,442.3H598l6.6-21.5l26.9-7.4l-8.9,28.9h22.2l-5.5,18.5h-22.3l-10.6,34.6c-3.5,11.6,0,17,7.2,17
			c11.6,0,24.2-15.3,32.3-31.8c3.2,0.2,7.9,2.7,9.6,4.7c-11.4,25-27.2,44.2-50.1,44.2c-24.2,0-27.6-20.5-21.3-40.7l8.4-28.1h-10.1
			L587.7,442.3z"/>
		<path class="st1" d="M681.6,442.3l-17.5,57.1c-2.2,7.2-1.2,12.9,5.4,12.9c9.4,0,18.5-12.6,27.9-31.8c3.2,0.2,7.9,2.7,9.6,4.7
			c-11.9,26-26.7,44.2-47,44.2c-19.7,0-24.5-16.3-18.6-35.8l15.8-51.4H681.6z M676.6,403.6c8.2,0,14.4,6.6,14.4,14.6
			s-6.2,14.3-14.4,14.3c-8.1,0-14.3-6.2-14.3-14.3S668.5,403.6,676.6,403.6z"/>
		<path class="st1" d="M731.3,525.7c3.4,7.9,3.2,17.8-0.3,29.2c-5,16.6-15.5,31.8-36.3,31.8c-23,0-24.4-19.5-19.5-35.1l38.1-124.5
			c5.7-18.3,17.1-26.2,28.7-26.2c15.8,0,26.7,14.3,21.5,33.9c-12.6,47.2-22.7,55.4-46.9,61.5l-3.9,12.4c5.9,2.9,11.3,4.2,16.3,4.2
			c17,0,28.2-15.6,36.5-32.4c3.2,0.2,7.9,2.7,9.6,4.7C766.6,503.9,754,524.1,731.3,525.7z M709,521.7l-11.6,37.8
			c-1.8,5.9-0.7,10.8,5,10.8c6.7,0,12.1-6.6,16.1-18.8c4.4-13.4,3-23.2-3.5-27.6C713,523.4,711,522.6,709,521.7z M721.4,481.2
			c14.3-4.2,19.5-13.8,29.6-48.9c2.2-8.1-1-12.3-5.4-12.3c-3.2,0-6,2.2-8.1,8.4L721.4,481.2z"/>
		<path class="st1" d="M801.6,442.3l-17.5,57.1c-2.2,7.2-1.2,12.9,5.4,12.9c9.4,0,18.5-12.6,27.9-31.8c3.2,0.2,7.9,2.7,9.6,4.7
			c-11.9,26-26.7,44.2-47,44.2c-19.7,0-24.5-16.3-18.6-35.8l15.8-51.4H801.6z M796.5,403.6c8.2,0,14.4,6.6,14.4,14.6
			s-6.2,14.3-14.4,14.3c-8.1,0-14.3-6.2-14.3-14.3S788.5,403.6,796.5,403.6z"/>
		<path class="st1" d="M868.6,459.7c-1.3-0.7-3-1-5-1c-12.4,0-24.4,15.5-24.4,31.9c0,13.8,8.1,22.3,22.2,22.3
			c16,0,32.1-11.6,42.3-32.4c3.2,0.2,7.9,2.7,9.6,4.7c-11.6,25.4-30.7,44.7-59.6,44.7c-24.9,0-40.7-14.1-40.7-37.1
			c0-25,18.8-52.1,48.9-52.1c21,0,30.7,12.9,30.7,25c0,9.1-5.5,18.5-15.8,18.5c-7.6,0-13.6-6-13.6-13.6
			C863.2,466.3,865.2,462.2,868.6,459.7z"/>
		<path class="st1" d="M997,442.3l-18,59c-1.8,5.7-2.2,11.1,3,11.1c7.6,0,17.3-12.9,26.5-31.8c3.2,0.2,7.9,2.7,9.6,4.7
			c-11.6,25.4-27.2,44.2-46.4,44.2c-10.9,0-16-5.9-17.5-13.6c-7.6,8.4-17.3,13.6-27.9,13.6c-16.8,0-28.1-11.1-28.1-30.7
			c0-28.1,20.2-58,46.7-58c10.6,0,19,5.4,23.2,15.1l4.2-13.6H997z M947.7,463.4c-11.6,0-23.4,16.8-23.4,31.4
			c0,9.1,4.7,14.3,12.1,14.3c11.9,0,23.7-16.8,23.7-31.6C960.2,468.6,955.1,463.4,947.7,463.4z"/>
		<path class="st1" d="M1009.7,442.3h10.2l6.6-21.5l26.9-7.4l-8.9,28.9h22.2l-5.5,18.5h-22.3l-10.6,34.6c-3.5,11.6,0,17,7.2,17
			c11.6,0,24.2-15.3,32.3-31.8c3.2,0.2,7.9,2.7,9.6,4.7c-11.4,25-27.2,44.2-50.1,44.2c-24.2,0-27.6-20.5-21.3-40.7l8.4-28.1h-10.1
			L1009.7,442.3z"/>
		<path class="st1" d="M1163.6,485.3c-11.6,25.4-30.7,44.7-59.6,44.7c-24.9,0-40.7-14.1-40.7-37.3c0-25.4,19.2-51.9,48-51.9
			c18.6,0,30.2,11.1,30.2,24c0,14.6-14.3,33.3-51.6,32.3c2.2,10.1,9.9,16,21.7,16c16.1,0,32.1-11.6,42.3-32.4
			C1157.2,480.7,1161.9,483.2,1163.6,485.3z M1089.7,485.8c20.7-0.3,29.7-9.4,29.7-16.8c0-3.9-2.4-7.4-8.4-7.4
			C1100.4,461.6,1091.5,472.5,1089.7,485.8z"/>
		<path class="st1" d="M1304.7,485.3c-8.2,18-20.7,25.9-39,26.7c-9.2,10.4-22.5,17.5-38,17.5c-22.8,0-38.5-15-38.5-36.5
			c0-25.4,21.3-52.2,51.4-52.2c22.3,0,38.6,14.6,38.6,36.5c0,7.6-1.8,15.1-5.2,22c9.7-2.7,16.5-9.4,21-18.6
			C1298.3,480.7,1303,483.2,1304.7,485.3z M1251,484.1c1,0,2,0.2,2.9,0.3c0.3-1.8,0.7-4,0.7-6c0-13.1-8.1-17.6-15.5-17.6
			c-12.8,0-25.4,14.8-25.4,31.4c0,12.9,7.7,17.5,15.1,17.5c3.9,0,7.7-1.2,11.3-3.5c-1.7-2.2-2.7-5-2.7-8.2
			C1237.4,490.3,1243.4,484.1,1251,484.1z"/>
		<path class="st1" d="M1329.1,525.7c3.4,7.9,3.2,17.8-0.3,29.2c-5,16.6-15.5,31.8-36.3,31.8c-23,0-24.4-19.5-19.5-35.1l38.1-124.5
			c5.7-18.3,17.1-26.2,28.7-26.2c15.8,0,26.7,14.3,21.5,33.9c-12.6,47.2-22.7,55.4-46.9,61.5l-3.9,12.4c5.9,2.9,11.3,4.2,16.3,4.2
			c17,0,28.2-15.6,36.5-32.4c3.2,0.2,7.9,2.7,9.6,4.7C1364.4,503.9,1351.8,524.1,1329.1,525.7z M1306.7,521.7l-11.6,37.8
			c-1.8,5.9-0.7,10.8,5,10.8c6.7,0,12.1-6.6,16.1-18.8c4.4-13.4,3-23.2-3.5-27.6C1310.8,523.4,1308.8,522.6,1306.7,521.7z
			 M1319.2,481.2c14.3-4.2,19.5-13.8,29.6-48.9c2.2-8.1-1-12.3-5.4-12.3c-3.2,0-6,2.2-8.1,8.4L1319.2,481.2z"/>
	</g>
	<path class="st2" d="M730.5,315.1c-4.1,4.1-4.1,10.7,0,14.8c4.1,4.1,10.7,4.1,14.8,0c4.1-4.1,4.1-10.7,0-14.8
		C741.2,311,734.6,311,730.5,315.1z"/>
	<path class="st3" d="M909.5,266.7c0,0-7-17.9-7.1-17.9c0,0-17.5-3-17.6-2.9l-8,8L860,237.2c17.7-17.7,30.5-30.4,30.5-30.4
		c20.4,7.6,43.3,4,58.7-11.5l10.1-10.1c17.1-17.1,19.7-43.5,8.5-65.4c-0.1-0.2-39.8,39.3-39.8,39.3c-0.1,0.1-27.6-27.4-27.5-27.5
		c0,0,39.3-39.6,39.2-39.7c-21.8-11-48-8.4-65.1,8.7l-10.1,10.1c-15.4,15.4-19,38.3-11.5,58.7c0,0-12.7,12.7-30.4,30.5l-43.7-43.7
		c0,0-8.7-26.6-8.7-26.6c0-0.1-55-34.5-55-34.5c-0.1-0.1-20.3,20.2-20.3,20.3l34.3,54.9c0,0.1,26.7,8.7,26.7,8.7
		c0,0,21.2,21.2,43.9,43.8c-38.8,38.9-84.6,84.7-84.6,84.7c-10.6,10.6-10.3,27.8,0.9,38c10.6,9.7,27.4,8.1,37.6-2
		c0,0,45.1-45,83.5-83.4c10,10,16.8,16.8,16.8,16.8l-8,8c-0.1,0.1,3,17.8,3.1,17.8c0,0,17.8,6.9,17.8,7l51.8,51.8
		c0,0,16.8,3.1,16.8,3.1c0.1,0,29.1-29,29.1-29.1l-3-16.7C961.4,318.7,909.5,266.8,909.5,266.7z M745.3,329.9
		c-4.1,4.1-10.7,4.1-14.8,0c-4.1-4.1-4.1-10.7,0-14.8c4.1-4.1,10.7-4.1,14.8,0C749.4,319.2,749.4,325.8,745.3,329.9z"/>
	<rect x="153.7" y="177.3" class="st3" width="461.3" height="26.4"/>
	<rect x="153.7" y="243.4" class="st3" width="401.2" height="26.4"/>
	<rect x="1054.4" y="177.3" class="st3" width="461.3" height="26.4"/>
	<rect x="1054.4" y="243.4" class="st3" width="431.3" height="26.4"/>
	<line class="st4" x1="153.7" y1="828" x2="1485.7" y2="828"/>
	<line class="st4" x1="153.7" y1="918" x2="645" y2="918"/>
	<line class="st4" x1="994.4" y1="918" x2="1485.7" y2="918"/>
	<path class="st5" d="M421.8,1042.6c-15.5,0-30.9,0.7-46.4,0.7c-13.9,0-28.1-0.5-42-2.4c-2.9-0.3-5.2-1.8-5.2-4.9
		c0-4.9,0.5-9.6,0.5-14.4c0-3.2,0-6.6-0.2-9.7c-26.4,9.4-49.7,23.2-78.6,26.7c-1,0.2-2.2,0.2-3.4,0.2c-3.9,0-8.4-0.8-8.4-5.2
		c0-0.5,0-1.2,0-1.7c0-4.2-2.5-5.5-5.9-5.5c-6.4,0-16.1,5-17.8,5.7c-2.7,1.2-5.5,1.7-8.2,1.7c-5.5,0-10.1-2.2-10.1-5.4
		c0-7.2,45-23.5,60.6-23.5c3.5,0,8.2,0.7,8.6,3.9c0.5,5,0.7,7.7,0.7,10.4c0,0.8,0,1.7,0,2.5c25.4-6.2,48.7-21,74.1-27.7
		c1.2-0.3,4.5-0.8,7.7-0.8c3.9,0,7.4,0.8,7.6,3.9c1.3,26.2,10.4,30.7,28.4,30.7c9.7,0,23.4-1.2,37.8-1.2c16.8,0,68.9,1.8,68.9,7.9
		c0,4.4-13.6,11.4-20.7,11.4c-0.3,0-0.8-0.2-1.2-0.2C453.1,1043.2,437.5,1042.6,421.8,1042.6z"/>
	<path class="st5" d="M1343.2,1026.6c-25,0-43.7-10.1-63.2-10.1c-8.7,0-17.8,1.8-28.2,7.4c-8.2,4.4-20.7,6.2-29.4,6.2
		c-7.2,0-9.1-1.2-9.1-8.6c-14.4,8.4-28.7,15.8-45.7,20.3c-1.7,0.5-4.4,1-7.1,1c-4.5,0-8.4-1.3-8.4-6c0-6.7,0-13.3,0-20
		c-17.8,7.2-34.4,16.8-53.3,22.5c-1.2,0.3-3.4,0.7-5.7,0.7c-4.7,0-9.9-1-9.9-4.5c0-2.3,3.9-7.6,3.9-9.7c0-4-4.5-5.2-10.6-5.2
		c-12.8,0-32.8,5.9-33.6,6c-1.5,0.5-3.2,0.7-4.9,0.7c-5.2,0-10.4-2-10.4-5.4c0-8.4,31.6-17.5,35.6-17.5c1.3,0,2.5,0.2,3.5,0.5
		c11.6-3,24.2-5.5,33.9-5.5c10.6,0,18.1,2.9,18.1,11.4c0,1.8-0.3,3.9-1,6.2c15.1-6.9,29.6-14.6,46.2-19.2c1.3-0.3,4.4-1,7.6-1
		c3.7,0,7.6,0.8,7.9,4c0.5,7.4,0.5,11.4,0.7,15.5c0,2,0,3.9-0.2,6.2c13.4-6,25.4-14.3,38.5-22c1.8-1,9.7-3.9,15.6-3.9
		c3.5,0,6.4,1,6.4,4.2c0,0.8,1.2,1.3,3.2,1.3c10.2,0,43.3-10.1,61.2-10.1c4,0,7.4,0.5,9.4,1.8c15.1,9.6,31.6,12.9,48.2,12.9
		c35.6,0,73.2-16,108-22.5c1.8-0.3,3.4-0.5,4.7-0.5c4.2,0,5.9,1.5,5.9,3.5c0,4-6.7,10.6-14.3,11.9
		C1429.4,1006.4,1384.2,1026.6,1343.2,1026.6z"/>
</g>
</svg>
