<?xml version="1.0" encoding="utf-8"?>
<!-- Generator: Adobe Illustrator 22.0.1, SVG Export Plug-In . SVG Version: 6.00 Build 0)  -->
<svg version="1.1" id="Layer_1" xmlns="http://www.w3.org/2000/svg" xmlns:xlink="http://www.w3.org/1999/xlink" x="0px" y="0px"
	 viewBox="0 0 1432.8 1166.4" style="enable-background:new 0 0 1432.8 1166.4;" xml:space="preserve">
<style type="text/css">
	.st0{fill:#7BC3CA;}
	.st1{fill:#CDE0DE;}
	.st2{fill:#4E7A89;}
	.st3{fill:#3A6675;}
	.st4{fill:#FFFFFF;}
	.st5{fill:#384261;}
	.st6{fill:#BD3435;}
	.st7{fill:#6A7493;}
</style>
<g>
	<rect class="st0" width="1432.8" height="1166.4"/>
	<rect class="st1" width="1432.8" height="1166.4"/>
	<rect class="st2" width="1432.8" height="89.7"/>
	<rect x="1343.2" class="st3" width="89.6" height="89.7"/>
	<circle class="st4" cx="64.3" cy="46.5" r="29.5"/>
	<circle class="st4" cx="150.8" cy="46.5" r="29.5"/>
</g>
<g>
	<path class="st5" d="M483.9,288.5c0,18.3-22.4,29.4-61.1,29.4H291.1v-16.7h18.1c6.5,0,9.3-1.5,9.3-9.5v-53c0-7.8-2.9-9.5-9.3-9.5
		h-18.1v-16.5h126.9c38.9,0,59.6,10.5,59.6,27.2c0,12-11.1,22.5-35.6,23.6C471.3,265.9,483.9,274.9,483.9,288.5z M408,256.6
		c17.6,0,24.3-4.4,24.3-13.7s-6.8-13.7-24.3-13.7h-47.4v27.3H408z M412.4,301.4c17.9,0,25.8-4.3,25.8-14.2s-8-14.4-25.8-14.4h-51.8
		v28.7H412.4z"/>
	<path class="st5" d="M697.8,317.9h-92.4v-16.7h15.8c6.3,0,8.2-4.1,4.5-9.2l-4.7-6.3h-77.7l-4.6,6.3c-3.8,5.1-1.8,9.2,4.5,9.2h16.4
		v16.7h-72.9v-16.7h4.5c10,0,14.5-1.9,20.7-9.9l39.9-52.8c3.9-4.9,2.2-9.2-4.4-9.2h-10.8v-16.5H615l57.6,78.5
		c5.7,7.8,10.5,9.9,20.6,9.9h4.6V317.9z M582.4,232.9l-27,36.5H609L582.4,232.9z"/>
	<path class="st5" d="M900.2,229.4c-6.6,0-9.3,1.5-9.3,9.5v79.1h-45l-88.4-78.5v52.4c0,8,2.7,9.5,9.3,9.5H785v16.7h-79.8v-16.7h18.1
		c6.5,0,9.3-1.5,9.3-9.5v-53c0-7.8-2.9-9.5-9.3-9.5h-18.1v-16.5h81l79.8,70.8v-44.9c0-8-2.7-9.5-9.3-9.5h-18.2v-16.7h79.2v16.7
		H900.2z"/>
	<path class="st5" d="M1141.7,317.9h-98.3v-16.7h11.4c6.1,0,6.6-4.1,2.4-7.7l-29.7-25.4l-29.7,13.4v10.2c0,8,2.7,9.5,9.3,9.5h16.5
		v16.7h-95.3v-16.7h18.1c6.5,0,9.3-1.5,9.3-9.5v-53c0-7.8-2.9-9.5-9.3-9.5h-18.1v-16.5h95.3v16.5h-16.5c-6.6,0-9.3,1.7-9.3,9.5v23.7
		l59.9-26.7c6.4-2.9,4.4-6.5,0.1-6.5h-13.5v-16.5h91.8v16.5h-8.4c-9,0-16.1,1.4-25.8,5.7l-38.6,17.2l46.4,39.9
		c8.1,6.9,15.9,9,27.3,9h4.6V317.9z"/>
</g>
<g>
	<rect x="138.6" y="422.1" class="st4" width="1155.6" height="317.4"/>
	<rect x="444.8" y="597" class="st1" width="752.1" height="96.8"/>
	<polygon class="st6" points="269,739.5 138.6,739.5 138.6,422.1 269,422.1 389.1,580.8 	"/>
	<g>
		<path class="st7" d="M496.9,550.3h-13.9l-3.8-13.9h-18.1l-3.8,13.9h-13.1l20.1-65.5h12.5L496.9,550.3z M463.6,526.5h13.1
			l-6.6-23.6L463.6,526.5z"/>
		<path class="st7" d="M529.6,526.2h12.8v3.4c0,13.3-8.9,21.7-21.2,21.7c-12.6,0-21.4-8.1-21.4-21.4v-24.3
			c0-13.3,9.2-21.6,21.7-21.6c12.4,0,21,8,21,21.3v2.7h-12.8v-2.8c0-6-3.2-9.5-8.3-9.5c-5.1,0-8.2,3.6-8.2,9.5v24.8
			c0,6.1,3.2,9.5,8.2,9.5c5.1,0,8.3-3.5,8.3-9.5V526.2z"/>
		<path class="st7" d="M581.6,526.2h12.8v3.4c0,13.3-8.9,21.7-21.2,21.7c-12.6,0-21.4-8.1-21.4-21.4v-24.3
			c0-13.3,9.2-21.6,21.7-21.6c12.4,0,21,8,21,21.3v2.7h-12.8v-2.8c0-6-3.2-9.5-8.3-9.5c-5.1,0-8.2,3.6-8.2,9.5v24.8
			c0,6.1,3.2,9.5,8.2,9.5c5.1,0,8.3-3.5,8.3-9.5V526.2z"/>
		<path class="st7" d="M604.8,550.3v-65.5h35.6v11.7h-22.3v14.6h18.5v11h-18.5v16.6h22.7v11.7H604.8z"/>
		<path class="st7" d="M647.6,501.3c0-10.4,8.6-17.4,19.3-17.4c16.4,0,19.9,14.2,19.9,14.2l-10.8,4.3c0,0-2.2-7.5-8.9-7.5
			c-3.6,0-6.4,2.2-6.4,5.7c0,4.5,3.5,7.3,10,11.2c8.3,5.1,15.3,11.3,15.3,20.8c0,11.8-8.9,18.6-20.2,18.6
			c-16.9,0-21.3-16.3-21.3-16.3l10.8-4.3c0,0,3.4,9.5,10.5,9.5c4.3,0,7.1-2.7,7.1-6.7c0-5-3.9-7.9-11-12.2
			C653.7,516.3,647.6,509.8,647.6,501.3z"/>
		<path class="st7" d="M692.7,501.3c0-10.4,8.6-17.4,19.3-17.4c16.4,0,19.9,14.2,19.9,14.2l-10.8,4.3c0,0-2.2-7.5-8.9-7.5
			c-3.6,0-6.4,2.2-6.4,5.7c0,4.5,3.5,7.3,10,11.2c8.3,5.1,15.3,11.3,15.3,20.8c0,11.8-8.9,18.6-20.2,18.6
			c-16.9,0-21.3-16.3-21.3-16.3l10.8-4.3c0,0,3.4,9.5,10.5,9.5c4.3,0,7.1-2.7,7.1-6.7c0-5-3.9-7.9-11-12.2
			C698.8,516.3,692.7,509.8,692.7,501.3z"/>
		<path class="st7" d="M810.1,550.3h-13.9l-3.8-13.9h-18.1l-3.8,13.9h-13.1l20.1-65.5h12.5L810.1,550.3z M776.8,526.5h13.1
			l-6.6-23.6L776.8,526.5z"/>
		<path class="st7" d="M842.8,526.2h12.8v3.4c0,13.3-8.9,21.7-21.2,21.7c-12.6,0-21.4-8.1-21.4-21.4v-24.3
			c0-13.3,9.2-21.6,21.7-21.6c12.4,0,21,8,21,21.3v2.7h-12.8v-2.8c0-6-3.2-9.5-8.3-9.5c-5.1,0-8.2,3.6-8.2,9.5v24.8
			c0,6.1,3.2,9.5,8.2,9.5c5.1,0,8.3-3.5,8.3-9.5V526.2z"/>
		<path class="st7" d="M894.8,526.2h12.8v3.4c0,13.3-8.9,21.7-21.2,21.7c-12.6,0-21.4-8.1-21.4-21.4v-24.3
			c0-13.3,9.2-21.6,21.7-21.6c12.4,0,21,8,21,21.3v2.7h-12.8v-2.8c0-6-3.2-9.5-8.3-9.5c-5.1,0-8.2,3.6-8.2,9.5v24.8
			c0,6.1,3.2,9.5,8.2,9.5c5.1,0,8.3-3.5,8.3-9.5V526.2z"/>
		<path class="st7" d="M917,506c0-13.6,9.4-22.1,22.2-22.1c12.9,0,21.8,8.2,21.8,21.8v23.4c0,13.6-9.3,22.2-22.1,22.2
			c-12.9,0-21.9-8.3-21.9-21.9V506z M930.3,529.5c0,6.4,3.4,10,8.7,10c5.4,0,8.8-3.7,8.8-10v-23.9c0-6.3-3.4-10-8.8-10
			c-5.3,0-8.7,3.7-8.7,10V529.5z"/>
		<path class="st7" d="M1000.8,484.8h13.1v44.7c0,13.3-9.1,21.7-21.6,21.7c-12.6,0-21.4-8.1-21.4-21.4v-45h13.4v45.1
			c0,6.1,3.2,9.5,8.2,9.5c5.1,0,8.3-3.5,8.3-9.5V484.8z"/>
		<path class="st7" d="M1036.8,508.7v41.7h-12.2v-65.5h12.9l19,40v-40h12.1v65.5h-12.1L1036.8,508.7z"/>
		<path class="st7" d="M1102.7,496.8v53.5h-13.3v-53.5h-13.8v-12h40.7v12H1102.7z"/>
	</g>
</g>
<g>
	<g>
		<rect x="359.1" y="843.7" class="st5" width="654.5" height="26.4"/>
	</g>
	<g>
		<rect x="359.1" y="909.7" class="st5" width="714.6" height="26.4"/>
	</g>
	<g>
		<rect x="359.1" y="975.8" class="st5" width="594.5" height="26.4"/>
	</g>
	<g>
		<rect x="359.1" y="1041.8" class="st5" width="474.4" height="26.4"/>
	</g>
</g>
</svg>
