<?xml version="1.0" encoding="utf-8"?>
<!-- Generator: Adobe Illustrator 22.0.1, SVG Export Plug-In . SVG Version: 6.00 Build 0)  -->
<svg version="1.1" id="Layer_1" xmlns="http://www.w3.org/2000/svg" xmlns:xlink="http://www.w3.org/1999/xlink" x="0px" y="0px"
	 viewBox="0 0 1432.8 1166.4" style="enable-background:new 0 0 1432.8 1166.4;" xml:space="preserve">
<style type="text/css">
	.st0{fill:#7BC3CA;}
	.st1{fill:#FFFFFF;}
	.st2{fill:#5E796C;}
	.st3{fill:#4A6558;}
	.st4{fill:#CDE0DE;}
	.st5{fill:#1A3F45;}
	.st6{fill:#22746B;}
	.st7{fill:#01626D;}
</style>
<rect class="st0" width="1432.8" height="1166.4"/>
<rect class="st1" width="1432.8" height="1166.4"/>
<rect class="st2" width="1432.8" height="89.7"/>
<rect x="1343.2" class="st3" width="89.6" height="89.7"/>
<circle class="st1" cx="64.3" cy="46.5" r="29.5"/>
<circle class="st1" cx="150.8" cy="46.5" r="29.5"/>
<rect x="580.6" y="711.7" class="st4" width="752.1" height="96.8"/>
<rect x="580.6" y="855.9" class="st4" width="752.1" height="96.8"/>
<g>
	<path class="st5" d="M153.8,742.6v53.5h-38.2v-7.7h-7.6v-23h7.6v-7.6h-7.6v-15.3h7.6V735h30.6v7.7H153.8z M115.6,750.3v7.7h23v-7.7
		H115.6z M123.2,773.2v7.7h15.3v-7.7H123.2z"/>
	<path class="st5" d="M199.7,796.2h-30.6v-7.7h-7.6v-45.9h7.6V735h30.6v7.7h7.6v15.3h-15.3v-7.7h-15.3v30.6h15.3v-7.7h15.3v15.3
		h-7.6V796.2z"/>
	<path class="st5" d="M253.3,796.2h-30.6v-7.7H215v-45.9h7.6V735h30.6v7.7h7.6v15.3h-15.3v-7.7h-15.3v30.6h15.3v-7.7h15.3v15.3h-7.6
		V796.2z"/>
	<path class="st5" d="M306.8,796.2h-30.6v-7.7h-7.6v-45.9h7.6V735h30.6v7.7h7.6v45.9h-7.6V796.2z M283.9,750.3v30.6h15.3v-30.6
		H283.9z"/>
	<path class="st5" d="M360.4,796.2h-30.6v-7.7h-7.6V735h15.3v45.9h15.3V735H368v53.5h-7.6V796.2z"/>
	<path class="st5" d="M391,796.2h-15.3V735h38.2v7.7h7.6v53.5h-15.3v-45.9H391V796.2z"/>
	<path class="st5" d="M467.5,796.2h-23v-7.7h-7.7v-38.2h-7.6V735h7.6v-15.3h15.3V735h15.3v15.3h-15.3v30.6h15.3V796.2z"/>
</g>
<g>
	<path class="st6" d="M558.9,630.6h-56.2v-22.5h45v-22.5h-33.8v-11.2h-11.2v-45h11.2v-11.2h56.2v22.5h-45v22.5h33.8v11.2h11.2v45
		h-11.2V630.6z"/>
	<path class="st6" d="M603.9,630.6h-22.5V518.1h22.5V630.6z"/>
	<path class="st6" d="M671.4,619.4v11.2h-45v-11.2h-11.2v-90h11.2v-11.2h45v11.2h11.2v22.5h-22.5v-11.2h-22.5v67.5h22.5v-11.2h-11.2
		v-22.5h33.8v45H671.4z"/>
	<path class="st6" d="M716.4,630.6h-22.5V518.1h22.5v22.5h11.2v11.2h11.2v11.2h11.2v-45h22.5v112.5h-22.5v-33.8h-11.2v-11.2h-11.2
		v-11.2h-11.2V630.6z"/>
	<path class="st6" d="M840.1,630.6h-22.5V518.1h22.5V630.6z"/>
	<path class="st6" d="M873.9,630.6h-22.5V518.1h22.5v22.5h11.2v11.2h11.2v11.2h11.2v-45h22.5v112.5h-22.5v-33.8h-11.2v-11.2h-11.2
		v-11.2h-11.2V630.6z"/>
</g>
<g>
	<path class="st5" d="M123.2,970.9h-15.3v-84.1h7.6v-7.7h30.6v7.7h7.6v45.9h-7.6v7.7h-23V970.9z M123.2,894.4V925h15.3v-30.6H123.2z
		"/>
	<path class="st5" d="M207.4,886.7v53.5h-38.2v-7.7h-7.6v-23h7.6V902h-7.6v-15.3h7.6v-7.7h30.6v7.7H207.4z M169.1,894.4v7.7h23v-7.7
		H169.1z M176.8,917.3v7.7h15.3v-7.7H176.8z"/>
	<path class="st5" d="M253.3,940.3H215V925h30.6v-7.7h-23v-7.7H215v-22.9h7.6v-7.7h38.2v15.3h-30.6v7.7h23v7.6h7.6v23h-7.6V940.3z"
		/>
	<path class="st5" d="M306.8,940.3h-38.2V925h30.6v-7.7h-23v-7.7h-7.6v-22.9h7.6v-7.7h38.2v15.3h-30.6v7.7h23v7.6h7.6v23h-7.6V940.3
		z"/>
	<path class="st5" d="M345.1,940.3h-15.3v-7.7h-7.6v-53.5h15.3v38.2h7.7V902h7.6v15.3h7.7v-38.2h15.3v53.5H368v7.7h-15.3v-7.7h-7.6
		V940.3z"/>
	<path class="st5" d="M421.6,940.3H391v-7.7h-7.6v-45.9h7.6v-7.7h30.6v7.7h7.6v45.9h-7.6V940.3z M398.6,894.4V925h15.3v-30.6H398.6z
		"/>
	<path class="st5" d="M452.2,940.3h-15.3v-53.5h7.6v-7.7h23v15.3h-15.3V940.3z"/>
	<path class="st5" d="M513.4,940.3h-30.6v-7.7h-7.6v-45.9h7.6v-7.7h23v-15.3H521v68.8h-7.6V940.3z M490.4,894.4V925h15.3v-30.6
		H490.4z"/>
</g>
<g>
	<path class="st6" d="M175.2,336.3c0-7.6,0.9-16.2,2.7-26.3c7.9-44.6,20.2-64.3,66.2-64.3c35.3,0,47.3,11.9,47.3,38
		c0,7.6-0.9,16.4-2.7,26.3c-8.1,44.6-20.3,64.1-66.2,64.1C187.3,374.1,175.2,362.4,175.2,336.3z M208.2,296.9
		c-2.9,11-5.8,27.9-5.8,36c0,14.8,7.2,19.1,25.4,19.1c18.5,0,26.3-7.7,31-28.8c2.5-11.5,5.8-27.5,5.8-36c0-14.8-7.2-19.3-25.6-19.3
		C220.4,267.9,213.7,275.8,208.2,296.9z"/>
	<path class="st6" d="M324.1,371.8h-23.2l16.7-95.4h20.5l-2.5,20.9c17.1-16,31-23.2,43.4-23.2c12.2,0,15.8,5.6,15.8,15.1
		c0,3.6-0.4,7.9-1.3,12.6l-12.4,70h-23.4l11-62.6c0.5-2.7,0.9-4.9,0.9-6.7c0-3.2-1.3-4.9-5-4.9c-7.2,0-16.9,6.3-30.8,18.4
		L324.1,371.8z"/>
	<path class="st6" d="M446.1,351.8l-1.6,19.8c-5.6,0.9-12.1,1.6-16.7,1.6c-26.8,0-22.5-16.2-19.3-35.6l17.8-100.8h23.8l-18.7,105.7
		c-1.1,6.3-2,10.1,6.8,10.1C440.2,352.5,443.6,352,446.1,351.8z"/>
	<path class="st6" d="M454.8,371.8l16.6-95.4h23.9l-16.7,95.4H454.8z M489.7,237.3c8.1,0,12.4,3.2,12.4,10.1
		c0,11.2-6.3,16.2-16,16.2c-8.1,0-12.4-3.1-12.4-9.7c0-1.1,0.2-2.2,0.4-3.4C475.6,241.4,480.3,237.3,489.7,237.3z"/>
	<path class="st6" d="M524.8,371.8h-23.2l16.7-95.4h20.5l-2.5,20.9c17.1-16,31-23.2,43.4-23.2c12.2,0,15.8,5.6,15.8,15.1
		c0,3.6-0.4,7.9-1.3,12.6l-12.4,70h-23.4l11-62.6c0.5-2.7,0.9-4.9,0.9-6.7c0-3.2-1.3-4.9-5-4.9c-7.2,0-16.9,6.3-30.8,18.4
		L524.8,371.8z"/>
	<path class="st6" d="M631.3,335.4c-0.5,2.9-0.7,5.4-0.7,7.6c0,7,3.4,10.4,18,10.4c10.3,0,18.7-1.6,29-3.1l-1.4,19.6
		c-10.1,1.8-24.7,3.8-34.7,3.8c-24.5,0-34.7-6.7-34.7-28.8c0-5.9,0.7-13.1,2.2-21.6c6.5-37.3,21.2-49.1,52.7-49.1
		c16.7,0,35.5,4,31.7,25C689.1,322.1,668.6,333.4,631.3,335.4z M633.1,321.7c22.1-1.6,38-9,38-20.5c0-5-1.8-8.1-12.2-8.1
		C642.5,293.1,636.7,302.5,633.1,321.7z"/>
	<path class="st6" d="M759.9,371.8h-25.4l21.8-123.5h48.2c33.5,0,41.6,17.8,37.4,41.4c-4.3,24.8-17.8,41.9-52,41.9
		c-8.1,0-14.8-0.5-22.9-1.4L759.9,371.8z M778,268.6l-7.6,42.1c7.9,0.7,11.2,1.1,19.1,1.1c17.3,0,23.9-6.5,26.3-19.3l0.9-5
		c2.2-11.9-1.6-18.9-16-18.9H778z"/>
	<path class="st6" d="M844.8,343.5c0-5.6,0.7-12.1,2-19.4c5.9-34.9,16.6-50.2,51.5-50.2c27,0,37.3,9.9,37.3,31.7
		c0,5.4-0.5,11.7-1.8,18.5c-6.1,34.9-17.3,50-51.8,50C854.9,374.1,844.8,364.7,844.8,343.5z M911.1,309.3c0-9.5-4-14.2-15.7-14.2
		h-0.7c-12.8,0-18.4,5-21.8,18.5c-2.2,8.6-3.8,20-3.8,25.2c0,10.3,4.1,14.2,15.5,14.2h0.7c14.9,0,20.2-6.7,23.2-24.3
		C909.8,321.7,911.1,314.2,911.1,309.3z"/>
	<path class="st6" d="M967.4,371.8h-22.9c5.6-31.7,11-63.7,16.6-95.4h20.3c-1.4,8.1-2.5,16-4,24.3c14.9-19.4,22.3-25.9,34.2-25.9
		c2.7,0,5.6,0.4,9,0.9c-1.8,8.3-3.8,16.4-5.8,24.7c-2.3-0.2-4.3-0.2-6.1-0.2c-9.5,0-15.5,3.1-31.7,18.2
		C973.9,336.1,970.6,354.1,967.4,371.8z"/>
	<path class="st6" d="M1021.9,296.9l3.6-20h10.4l7-20.2h20.2l-3.6,20.2h29.2l-3.6,20H1056l-7.2,41.4c-2.2,12.2-0.7,14.2,9.7,14.2
		c4.1,0,10.8-0.5,16.4-1.4l-1.3,19.8c-8.8,1.6-19.6,2.7-26.8,2.7c-21.6,0-26.6-8.3-21.8-35.3l7.4-41.4H1021.9z"/>
	<path class="st6" d="M1146.3,371.8c0.7-6.7,1.6-13.1,2.5-19.8c-14,14.2-24.3,22-38.9,22c-13.9,0-19.8-8.6-19.8-25.9
		c0-6.5,0.7-14,2.3-22.9c6.5-35.6,18-50.2,50.9-50.2c13.3,0,26.3,1.6,40,4.5c-5.4,30.8-11,61.6-16.4,92.3H1146.3z M1156.8,297.2
		c-5.4-0.9-10.8-1.4-16-1.4c-16.9,0-20,8.3-23.2,25c-1.6,8.3-2.7,16-2.7,20.7c0,7,2.3,9.5,7.9,9.5c7.7,0,15.1-6.7,27.7-18
		C1152.6,321.2,1154.8,309.1,1156.8,297.2z"/>
	<path class="st6" d="M1232.5,351.8l-1.6,19.8c-5.6,0.9-12.1,1.6-16.7,1.6c-26.8,0-22.5-16.2-19.3-35.6l17.8-100.8h23.8l-18.7,105.7
		c-1.1,6.3-2,10.1,6.8,10.1C1226.6,352.5,1230,352,1232.5,351.8z"/>
</g>
<g>
	<g>
		<polygon class="st7" points="1215.7,710.1 1211.7,703.1 1219.5,700.8 1291.2,679.3 1074.9,526.1 1097.6,790.2 1152.4,739.2 
			1158.4,733.7 1162.4,740.7 1211.1,825.3 1264.4,794.7 		"/>
	</g>
</g>
</svg>
