<?xml version="1.0" encoding="utf-8"?>
<!-- Generator: Adobe Illustrator 22.0.1, SVG Export Plug-In . SVG Version: 6.00 Build 0)  -->
<svg version="1.1" id="Layer_1" xmlns="http://www.w3.org/2000/svg" xmlns:xlink="http://www.w3.org/1999/xlink" x="0px" y="0px"
	 viewBox="0 0 1013.2 1745.5" style="enable-background:new 0 0 1013.2 1745.5;" xml:space="preserve">
<style type="text/css">
	.st0{clip-path:url(#SVGID_2_);}
	.st1{fill:#EF6667;}
	.st2{fill:#FFFFFF;}
	.st3{fill:#54291C;}
	.st4{fill:#693629;}
	.st5{fill:#F49D73;}
	.st6{fill:#6A7493;}
	.st7{fill:#EA9369;}
	.st8{fill:#384261;}
	.st9{fill:#F9B086;}
	.st10{fill:none;stroke:#422B27;stroke-width:23.0344;stroke-linecap:round;stroke-miterlimit:10;}
	.st11{fill:none;stroke:#F38486;stroke-width:28.1941;stroke-linecap:round;stroke-miterlimit:10;}
	.st12{fill:none;stroke:#E1775A;stroke-width:16.1241;stroke-linecap:round;stroke-miterlimit:10;}
	.st13{fill:#422B27;}
	.st14{fill:#F49369;}
	.st15{fill:none;stroke:#384261;stroke-width:24.57;stroke-miterlimit:10;}
	.st16{fill:#E6E6E6;}
</style>
<g>
	<defs>
		<path id="SVGID_1_" d="M570.9,1745.5H442.3C199,1745.5,0,1546.5,0,1303.2v-861C0,199,199,0,442.3,0h128.7
			c243.2,0,442.3,199,442.3,442.3v861C1013.2,1546.5,814.2,1745.5,570.9,1745.5z"/>
	</defs>
	<clipPath id="SVGID_2_">
		<use xlink:href="#SVGID_1_"  style="overflow:visible;"/>
	</clipPath>
	<g class="st0">
		<path class="st1" d="M570.9,1745.5H442.3C199,1745.5,0,1546.5,0,1303.2V934.1c0-243.2,199-442.3,442.3-442.3h128.7
			c243.2,0,442.3,199,442.3,442.3v369.2C1013.2,1546.5,814.2,1745.5,570.9,1745.5z"/>
		<g>
			<g>
				<path class="st2" d="M492.1,372c0,87.1-71.9,157.7-160.6,157.7c-28.9,0-56-7.5-79.5-20.6c-48.4-27.2-81.1-78.4-81.1-137.1
					c0-87.1,71.9-157.7,160.6-157.7S492.1,284.9,492.1,372z"/>
				<path class="st2" d="M842.3,378.3c0,87.1-71.9,157.7-160.6,157.7c-28.9,0-56-7.5-79.5-20.6c-48.4-27.2-81.1-78.4-81.1-137.1
					c0-87.1,71.9-157.7,160.6-157.7S842.3,291.2,842.3,378.3z"/>
			</g>
			
				<ellipse transform="matrix(0.4749 -0.88 0.88 0.4749 57.3909 653.9655)" class="st2" cx="576.7" cy="278.9" rx="116" ry="117.8"/>
			
				<ellipse transform="matrix(0.4749 -0.88 0.88 0.4749 -25.0573 509.4129)" class="st2" cx="414.4" cy="275.7" rx="116" ry="117.8"/>
			
				<ellipse transform="matrix(0.4749 -0.88 0.88 0.4749 -107.1265 664.7493)" class="st2" cx="503.5" cy="422.1" rx="116" ry="117.8"/>
			<ellipse class="st3" cx="506.6" cy="578.1" rx="100" ry="65.1"/>
			<path class="st4" d="M717.1,949.6c20.2-63,29.5-238.4-20.2-317.2c-49.7-78.8-119-94-190.3-94s-140.6,15.2-190.3,94
				s-40.4,254.2-20.2,317.2"/>
			<path class="st5" d="M349.9,949.7c3.3,37.8,1.5,79.4-24,81.6c-25.5,2.2-65.1-35.7-68.2-73.5c-4.2-50.9,14.6-70.3,40.1-72.6
				C323.2,883,346.6,911.8,349.9,949.7z"/>
			<path class="st4" d="M317.2,941.3c-18.1-3.5-29.9-27.8-35.1-66.5c-3.1-37,3.2-122.5,69.2-141.3
				C417.3,714.7,317.2,941.3,317.2,941.3z"/>
			<path class="st3" d="M617.8,1032.2c91.3,44.4,46.9,212.3,113.5,259.2c-24.7,19.7-148.1-17.3-180.2-86.4
				C519.1,1135.9,617.8,1032.2,617.8,1032.2z"/>
			<path class="st5" d="M664.1,949.7c-3.3,37.8-1.5,79.4,24,81.6c25.5,2.2,65.1-35.7,68.2-73.5c4.2-50.9-14.6-70.3-40.1-72.6
				S667.4,911.8,664.1,949.7z"/>
			<path class="st6" d="M554.3,1251.3c48.4-1.2,82.7-4.2,82.7-7.7c0-4.6-58.3-8.3-130.3-8.3s-130.3,3.7-130.3,8.3
				c0,3.5,34.3,6.5,82.7,7.7l1.1,0c25.6-0.1,46.7,26,46.5,67.6h0c-0.1-41.6,20.9-67.6,46.5-67.6L554.3,1251.3z"/>
			<rect x="403.1" y="1126.1" class="st5" width="207" height="218.2"/>
			<path class="st7" d="M403.1,1126.1v50.1c34.6,49.5,101.1,89.3,207,91.8v-141.9H403.1z"/>
			<path class="st2" d="M880.6,1396.7c-28.6-22.6-171.7-76.1-229.8-79.2H362.4c-58.1,3.1-201.2,56.6-229.8,79.2
				c-28.6,22.6-41,45.1-41,86.8l0,289.4c54.4,40.8,335.9,64.6,415,65.4c79-0.7,360.5-24.6,415-65.4l0-289.4
				C921.6,1441.8,909.2,1419.3,880.6,1396.7z"/>
			<g>
				<circle class="st8" cx="395.9" cy="1521.7" r="18.6"/>
				<circle class="st8" cx="617.3" cy="1521.7" r="18.6"/>
			</g>
			<g>
				<circle class="st8" cx="395.9" cy="1668.5" r="18.6"/>
				<circle class="st8" cx="617.3" cy="1668.5" r="18.6"/>
			</g>
			<g>
				<ellipse class="st8" cx="395.9" cy="1809.9" rx="18.6" ry="13.2"/>
				<ellipse class="st8" cx="617.3" cy="1809.9" rx="18.6" ry="13.2"/>
			</g>
			<g>
				<path class="st8" d="M636.9,1243.6C636.9,1243.6,636.9,1243.6,636.9,1243.6C637,1243.6,637,1243.6,636.9,1243.6L636.9,1243.6z"
					/>
				<path class="st8" d="M637,1243.7c-0.6,3.5-34.7,6.4-82.7,7.6h-1.1c-25.6-0.1-46.7,26-46.5,67.6h0c0.1-41.6-20.9-67.6-46.5-67.6
					l-1.1,0c-48.4-1.2-82.7-4.2-82.7-7.7c-15.9,20-24.9,64.5-24.3,85.9c31.5,19.6,127.8,24.8,154.6,24.1
					c26.8,0.7,123.1-4.5,154.6-24.1C661.8,1308.1,652.8,1263.7,637,1243.7z"/>
			</g>
			<path class="st9" d="M506.6,1229.1L506.6,1229.1c57.7-0.6,169.3-79.6,192.5-256.6c4.7-35.8,11.2-93.8,11-126.7
				c-0.6-101.4-91.1-186.6-203.5-186.6h-0.1c-112.4,0-202.9,85.2-203.5,186.6c-0.2,32.9,6.3,90.9,11,126.7
				C337.3,1149.5,450.3,1230.8,506.6,1229.1L506.6,1229.1z"/>
			<g>
				<line class="st10" x1="641.4" y1="850.4" x2="578.8" y2="840"/>
				<line class="st10" x1="369.8" y1="850.4" x2="432.4" y2="840"/>
			</g>
			<line class="st11" x1="490.5" y1="1114.6" x2="522.7" y2="1114.6"/>
			<line class="st12" x1="464.9" y1="1105.2" x2="548.4" y2="1105.2"/>
			<g>
				<path class="st13" d="M611.2,912.4c0,13.5-11,24.5-24.6,24.6c-13.6,0.1-24.6-10.7-24.6-24.2c0-13.5,11-24.5,24.6-24.6
					C600.2,888,611.2,898.9,611.2,912.4z"/>
				<path class="st13" d="M451.3,912.4c0,13.5-11,24.5-24.6,24.6c-13.6,0.1-24.6-10.7-24.6-24.2c0-13.5,11-24.5,24.6-24.6
					C440.3,888,451.3,898.9,451.3,912.4z"/>
			</g>
			<path class="st14" d="M506.7,1050.1c24.7,0,40.4-23.1,37.3-32.1c-3.1-9.2-14.2,10.1-37.4,10.9c-23.1-0.7-34.3-20-37.4-10.9
				C466.2,1027,481.9,1050.1,506.7,1050.1L506.7,1050.1z"/>
			<path class="st4" d="M506.6,647C419,647,326.5,690,328.6,819c48.3-13.9,110.4-22.3,178.1-22.3s129.7,8.4,178.1,22.3
				C686.7,690,594.3,647,506.6,647z"/>
			<g>
				<path class="st4" d="M303.2,859.9c-0.9-44.4,20.8-84.9,49.4-95.4l3.8-68.7L295.3,755l-3.8,98.3L303.2,859.9z"/>
				<path class="st4" d="M710.1,859.9c0.9-44.4-20.8-84.9-49.4-95.4l-3.8-68.7l61.1,59.1l3.8,98.3L710.1,859.9z"/>
			</g>
			<g>
				<ellipse class="st2" cx="721.8" cy="1012.4" rx="20.5" ry="21"/>
				<ellipse class="st2" cx="291.5" cy="1012.4" rx="20.5" ry="21"/>
			</g>
			<path class="st15" d="M504.1,1338.7v100.5c39.2-0.3,129.5,2,215.7,34.8c-0.7,89.7-11.7,283.3-21.7,376.7"/>
			<path class="st16" d="M489.8,472.4c0-26.5,3.8-111.8,3.8-111.8c3.8,49.3,24.6,113.7,24.6,113.7L489.8,472.4z"/>
			<path class="st16" d="M577.3,480c17-15.2,36.4-102.3,36.4-102.3c0,32.2-12.1,108-12.1,108L577.3,480z"/>
			<path class="st16" d="M662.1,502.8c12.8-14.8,45.2-68,45.2-68c-9.3,44.5-26,87.5-26,87.5L662.1,502.8z"/>
			<path class="st16" d="M423.5,489.5c-22.7-32.2-58.7-109.9-58.7-109.9c0,32.2,26.5,117.5,26.5,117.5L423.5,489.5z"/>
			<path class="st16" d="M333.6,492.1c-16-16.3-46.5-56.5-46.5-56.5c1.2,24.6,26.4,72.7,26.4,72.7L333.6,492.1z"/>
			<path class="st2" d="M506.6,461.9c-42.4,0-175.2,16.2-225.1,37.7l0,251.3c0,0,75.8-46.3,225.1-46.3
				c149.3,0,225.1,46.3,225.1,46.3l0-251.3C681.8,478,549,461.9,506.6,461.9z"/>
		</g>
	</g>
</g>
</svg>
