<?xml version="1.0" encoding="utf-8"?>
<!-- Generator: Adobe Illustrator 22.0.1, SVG Export Plug-In . SVG Version: 6.00 Build 0)  -->
<svg version="1.1" id="Layer_1" xmlns="http://www.w3.org/2000/svg" xmlns:xlink="http://www.w3.org/1999/xlink" x="0px" y="0px"
	 viewBox="0 0 5262.7 3071.4" style="enable-background:new 0 0 5262.7 3071.4;" xml:space="preserve">
<style type="text/css">
	.st0{fill:#FFFFFF;}
	.st1{clip-path:url(#SVGID_2_);}
	.st2{fill-rule:evenodd;clip-rule:evenodd;fill:#8E6134;}
	.st3{fill-rule:evenodd;clip-rule:evenodd;fill:#1C283E;}
	.st4{fill:#384261;}
	.st5{fill:#7A4D20;}
	.st6{fill-rule:evenodd;clip-rule:evenodd;fill:#B47943;}
	.st7{fill:#8E6134;}
	.st8{fill:#32150B;}
	.st9{clip-path:url(#SVGID_4_);}
	.st10{fill:none;}
	.st11{fill-rule:evenodd;clip-rule:evenodd;fill:#384261;}
	.st12{fill-rule:evenodd;clip-rule:evenodd;fill:#6C98A7;}
	.st13{fill-rule:evenodd;clip-rule:evenodd;fill:#8AB6C5;}
	.st14{clip-path:url(#SVGID_6_);}
	.st15{fill:#B3BDC8;}
	.st16{fill-rule:evenodd;clip-rule:evenodd;fill:#DCE1E4;}
	.st17{fill-rule:evenodd;clip-rule:evenodd;fill:#7E8E9E;}
	.st18{fill:none;stroke:#EF6667;stroke-width:9.504;stroke-miterlimit:10;}
	.st19{fill:#EF6667;}
	.st20{fill:none;stroke:#384261;stroke-width:15.2064;stroke-miterlimit:10;}
	.st21{fill:#7E8E9E;}
	.st22{fill:#FEF2A7;}
	.st23{fill:#FED453;}
	.st24{fill:none;stroke:#384261;stroke-width:19.008;stroke-miterlimit:10;}
	.st25{fill:#6A7493;}
	.st26{fill:#E1F4F2;}
	.st27{fill:#9ECAD9;}
	.st28{fill:none;stroke:#384261;stroke-width:21.12;stroke-miterlimit:10;}
	.st29{fill:#628E9D;}
	.st30{clip-path:url(#SVGID_8_);}
	.st31{fill:#54291C;}
	.st32{fill:#693629;}
	.st33{fill:#F49D73;}
	.st34{fill:#EA9369;}
	.st35{fill:#F9B086;}
	.st36{fill:none;stroke:#422B27;stroke-width:23.0344;stroke-linecap:round;stroke-miterlimit:10;}
	.st37{fill:none;stroke:#F38486;stroke-width:28.1941;stroke-linecap:round;stroke-miterlimit:10;}
	.st38{fill:none;stroke:#E1775A;stroke-width:16.1241;stroke-linecap:round;stroke-miterlimit:10;}
	.st39{fill:#422B27;}
	.st40{fill:#F49369;}
	.st41{fill:none;stroke:#384261;stroke-width:24.57;stroke-miterlimit:10;}
	.st42{fill:#E6E6E6;}
</style>
<path class="st0" d="M2291.6,2855.3c-12.4,0-25.1-0.7-37.6-2.2l4.2-35.8c11.1,1.3,22.3,2,33.4,2c17,0,34.1-1.6,50.8-4.6l6.5,35.4
	C2330,2853.6,2310.8,2855.3,2291.6,2855.3z M2192.4,2840.3c-27.5-8-56.6-19.2-86.5-33.3l15.4-32.6c28.2,13.3,55.5,23.8,81.2,31.3
	L2192.4,2840.3z M2409.7,2832.7l-13.1-33.5c25.4-9.9,50.7-23.7,75-40.8l20.7,29.4C2465.6,2806.6,2437.8,2821.7,2409.7,2832.7z
	 M2051.5,2778.7c-24.6-13.9-50.8-30.1-77.7-48.1l20-29.9c26.2,17.5,51.5,33.2,75.4,46.7L2051.5,2778.7z M2540.8,2748.7l-24.3-26.6
	c20.5-18.7,40.5-40.2,59.5-63.8l28.1,22.5C2584,2705.9,2562.7,2728.7,2540.8,2748.7z M1924,2695.8c-22.8-16.5-46.5-34.4-72.4-54.7
	l22.2-28.3c25.5,20,48.9,37.6,71.3,53.9L1924,2695.8z M2640.5,2631.3l-29.9-20.1c16.1-23.9,31.1-49.4,44.7-75.8l32,16.5
	C2673.1,2579.5,2657.3,2606.2,2640.5,2631.3z M1804.4,2603.5c-25.4-20.6-50.6-41.5-69.8-57.4l23-27.7c19,15.8,44.1,36.6,69.4,57.1
	L1804.4,2603.5z M1688.5,2507.7c-22.2-18.5-46-38.1-69.4-57.1l22.7-28c23.6,19.1,47.4,38.9,69.7,57.4L1688.5,2507.7z M2713.4,2496.3
	l-33.2-14c12-28.3,21.8-56.2,29-82.7l34.7,9.5C2736.3,2437.1,2726,2466.5,2713.4,2496.3z M1572.4,2413.3c-26.5-20.6-49.9-38-71.6-53
	l20.5-29.6c22.3,15.4,46.2,33.1,73.2,54.2L1572.4,2413.3z M2756.5,2347.7l-35.7-4.4c1.2-9.6,1.8-18.6,1.8-26.6
	c0-20.9,2.9-42.7,8.7-65l34.9,9c-5,19.3-7.5,38.1-7.5,55.9C2758.6,2326.2,2757.9,2336.6,2756.5,2347.7z M1451.4,2328.3
	c-28.8-17.2-54.2-29.6-77.5-37.8l11.9-34c25.7,9,53.2,22.4,84.1,40.9L1451.4,2328.3z M2785.6,2207.7l-32.6-15.4
	c12.9-27.3,29.5-54.1,49.5-79.7l28.4,22.1C2812.6,2158.3,2797.3,2182.8,2785.6,2207.7z M2869.2,2091.7l-25.4-25.5
	c21.7-21.5,45.7-41.6,71.4-59.6l20.6,29.5C2911.9,2052.9,2889.4,2071.6,2869.2,2091.7z M2985.2,2005.5l-17.3-31.6
	c26.9-14.7,55.3-27.5,84.6-38l12.2,33.9C3037.1,1979.7,3010.4,1991.7,2985.2,2005.5z M3120.3,1952.9l-8.7-34.9
	c28.8-7.2,58.7-12.5,88.9-15.6c0.7-0.1,1.4-0.1,2.1-0.2l3.9,35.8c-0.8,0.1-1.5,0.2-2.3,0.2
	C3175.7,1941.2,3147.5,1946.1,3120.3,1952.9z M3267.9,1927l-8.9-34.9c29-7.4,55.4-18,78.3-31.6l18.4,31
	C3329.8,1906.8,3300.3,1918.8,3267.9,1927z M3406.6,1852.7l-25-25.9c19.5-18.9,36-41.6,49.1-67.5l32.1,16.2
	C3447.9,1805.1,3429,1831,3406.6,1852.7z M3485.9,1716.9l-34.5-10.3c7.7-25.6,13.2-54.1,16.4-84.9l35.8,3.7
	C3500.2,1658.3,3494.3,1689.1,3485.9,1716.9z M908.3,1597.3c-8.4,0-16.7-0.1-24.8-0.2l0.7-36c7.9,0.2,16,0.2,24.1,0.2
	c21,0,42.8-0.5,64.8-1.6l1.7,36C952.2,1596.7,929.9,1597.3,908.3,1597.3z M1035.4,1591.5l-3.2-35.9c29.6-2.6,59.4-6.2,88.4-10.5
	l5.4,35.6C1096.2,1585.2,1065.7,1588.8,1035.4,1591.5z M1185.9,1570.4l-6.9-35.3c29.5-5.8,58.6-12.5,86.5-20l9.4,34.8
	C1246.2,1557.5,1216.2,1564.4,1185.9,1570.4z M3507.3,1563.8l-36-0.6c0.1-4.5,0.1-9.2,0.1-13.9c0-23.5-1-47.8-2.9-74.4l35.9-2.7
	c2,27.5,3,52.7,3,77.1C3507.4,1554.2,3507.3,1559.1,3507.3,1563.8z M1333.3,1532.3l-11.2-34.2c28.6-9.4,56.5-19.9,82.7-31.2
	l14.2,33.1C1391.8,1511.7,1363,1522.6,1333.3,1532.3z M1474.4,1473.9l-16.5-32c26.7-13.7,52.1-28.7,75.7-44.6l20.1,29.9
	C1529.1,1443.8,1502.4,1459.6,1474.4,1473.9z M3462,1417.6c-5.6-27.7-16.2-52.2-32.4-74.9l29.3-20.9c19.2,26.9,31.7,55.9,38.4,88.6
	L3462,1417.6z M1603.2,1390.6l-22.7-27.9c22.9-18.7,44.3-38.8,63.4-59.8l26.6,24.2C1650.2,1349.4,1627.6,1370.8,1603.2,1390.6z
	 M3392.1,1301.4c-21.9-19.7-47.4-37.4-69.8-53.1l20.6-29.5c23.3,16.2,49.8,34.6,73.3,55.9L3392.1,1301.4z M1709.6,1279.1l-29.1-21.2
	c17-23.4,32.2-48.3,45-74.2l32.2,16C1744,1227.4,1727.8,1254.1,1709.6,1279.1z M3272.8,1212.8c-29.6-22.8-51.1-43.9-67.5-66.4
	l29.1-21.2c14.4,19.7,33.6,38.5,60.4,59.1L3272.8,1212.8z M1782.2,1143l-33.8-12.4c8.5-23.1,15.6-47.5,21.1-72.3c0.9-4,1.8-8,2.8-12
	l35,8.3c-0.9,3.8-1.8,7.7-2.6,11.5C1798.8,1092.4,1791.3,1118.3,1782.2,1143z M3175,1088.9c-1.9-5.6-3.7-11.4-5.2-17.2
	c-5.6-21.9-9.8-46.4-12.8-74.9l35.8-3.8c2.8,26.7,6.7,49.5,11.9,69.7c1.3,4.9,2.7,9.7,4.3,14.4L3175,1088.9z M1822.8,997.8
	l-34.4-10.6c8.9-28.8,19.4-57.7,31.3-86.1l33.2,13.9C1841.5,942.2,1831.4,970.1,1822.8,997.8z M3152.4,936
	c-0.6-10.7-1.1-21.6-1.6-32.3c-0.9-18.8-1.8-38.2-3.1-57.4l35.9-2.4c1.3,19.6,2.3,39.2,3.2,58.1c0.5,10.6,1,21.5,1.6,32L3152.4,936z
	 M1877.2,861.3l-32.3-15.8c13.3-27.2,28.1-54.2,43.8-80.4l30.8,18.6C1904.3,808.9,1890.1,835,1877.2,861.3z M3142.3,787.6
	c-3.9-31.6-9.4-59.6-16.8-85.5l34.6-9.8c7.8,27.7,13.7,57.4,17.8,90.9L3142.3,787.6z M1951.5,734l-29.7-20.3
	c17.2-25.1,35.7-49.8,54.9-73.3l27.9,22.8C1985.9,685.9,1968.1,709.8,1951.5,734z M3106.3,647.9c-11.5-26.3-25.8-51.2-42.8-74.2
	l29-21.4c18.5,25.1,34.3,52.4,46.8,81.2L3106.3,647.9z M2043.2,618.7l-26.5-24.4c20.8-22.6,42.6-44.3,65-64.6l24.2,26.6
	C2084.3,575.9,2063.2,596.9,2043.2,618.7z M3026.3,530.2c-19.3-19.6-41.5-38.4-66.1-55.9l20.8-29.4c26.3,18.7,50.1,38.8,70.9,60
	L3026.3,530.2z M2150.7,518.1l-22.5-28.1c24.1-19.3,49.1-37.4,74.4-53.7l19.6,30.2C2197.9,482.2,2173.9,499.5,2150.7,518.1z
	 M2911.2,443c-24-13.9-50.4-27.2-78.4-39.6l14.5-32.9c29.3,12.9,56.8,26.8,81.9,41.4L2911.2,443z M2272.5,436.3l-17.4-31.5
	c27.2-15,55.1-28.4,83-39.8l13.6,33.3C2325.2,409.1,2298.5,421.9,2272.5,436.3z M2778.5,381.6c-27.5-9.7-55.9-17.3-84.2-22.6
	l6.6-35.4c30.1,5.6,60.2,13.7,89.5,24L2778.5,381.6z M2406.8,378.4l-10.8-34.3c29.7-9.3,59.9-16.6,89.8-21.7l6,35.5
	C2463.6,362.6,2435,369.6,2406.8,378.4z M2636.7,351.3c-15.2-1.2-30.7-1.9-46.1-1.9c-13.6,0-27.4,0.5-41.1,1.5L2547,315
	c14.5-1,29.2-1.6,43.6-1.6c16.3,0,32.8,0.7,49,2L2636.7,351.3z"/>
<g>
	<defs>
		<circle id="SVGID_1_" cx="3917.3" cy="565.9" r="562.7"/>
	</defs>
	<clipPath id="SVGID_2_">
		<use xlink:href="#SVGID_1_"  style="overflow:visible;"/>
	</clipPath>
	<g class="st1">
		<rect x="3632.5" y="1071.9" class="st2" width="133.6" height="206.1"/>
		<rect x="3643.1" y="1071.9" class="st3" width="133.6" height="206.1"/>
		<rect x="3653.6" y="1082.5" class="st4" width="123" height="195.5"/>
	</g>
	<g class="st1">
		<rect x="3836.7" y="1071.9" class="st2" width="133.6" height="206.1"/>
		<rect x="3847.2" y="1071.9" class="st3" width="133.6" height="206.1"/>
		<rect x="3857.8" y="1082.5" class="st4" width="123" height="195.5"/>
	</g>
	<g class="st1">
		<rect x="4040.8" y="1071.9" class="st2" width="133.6" height="206.1"/>
		<rect x="4051.4" y="1071.9" class="st3" width="133.6" height="206.1"/>
		<rect x="4061.9" y="1082.5" class="st4" width="123" height="195.5"/>
	</g>
	<g class="st1">
		<circle class="st0" cx="3917.3" cy="565.9" r="562.7"/>
		<g>
			<rect x="3762.2" y="370.1" class="st5" width="75.6" height="73.8"/>
			<rect x="3996.9" y="370.1" class="st5" width="75.6" height="73.8"/>
		</g>
		<rect x="3570.6" y="496.1" class="st6" width="693.5" height="890"/>
		<rect x="3535.4" y="429.3" class="st6" width="763.9" height="66.9"/>
		<rect x="3570.6" y="496.1" class="st2" width="693.5" height="24"/>
		<g>
			<rect x="3632.5" y="565.1" class="st2" width="133.6" height="206.1"/>
			<rect x="3643.1" y="565.1" class="st3" width="133.6" height="206.1"/>
			<rect x="3653.6" y="575.7" class="st4" width="123" height="195.5"/>
		</g>
		<g>
			<rect x="3836.7" y="565.1" class="st2" width="133.6" height="206.1"/>
			<rect x="3847.2" y="565.1" class="st3" width="133.6" height="206.1"/>
			<rect x="3857.8" y="575.7" class="st4" width="123" height="195.5"/>
		</g>
		<g>
			<rect x="4040.8" y="565.1" class="st2" width="133.6" height="206.1"/>
			<rect x="4051.4" y="565.1" class="st3" width="133.6" height="206.1"/>
			<rect x="4061.9" y="575.7" class="st4" width="123" height="195.5"/>
		</g>
		<g>
			<rect x="3632.5" y="818.5" class="st2" width="133.6" height="206.1"/>
			<rect x="3643.1" y="818.5" class="st3" width="133.6" height="206.1"/>
			<rect x="3653.6" y="829.1" class="st4" width="123" height="195.5"/>
		</g>
		<g>
			<rect x="3836.7" y="818.5" class="st2" width="133.6" height="206.1"/>
			<rect x="3847.2" y="818.5" class="st3" width="133.6" height="206.1"/>
			<rect x="3857.8" y="829.1" class="st4" width="123" height="195.5"/>
		</g>
		<g>
			<rect x="4040.8" y="818.5" class="st2" width="133.6" height="206.1"/>
			<rect x="4051.4" y="818.5" class="st3" width="133.6" height="206.1"/>
			<rect x="4061.9" y="829.1" class="st4" width="123" height="195.5"/>
		</g>
		<g>
			<rect x="3565.6" y="204.6" class="st7" width="703.6" height="183.2"/>
			<g>
				<g>
					<path class="st8" d="M3617,264.1h29.4c14.4,0,23.3,8.8,23.3,20.9c0,8.1-4.1,14.7-11,18.3c8,3.5,12.8,10.9,12.8,19.9
						c0,13-10.1,23-25.3,23H3617V264.1z M3633.6,297.9h8.9c6.6,0,10.7-4.5,10.7-10.5c0-6.2-4-10.4-10.4-10.4h-9.1V297.9z
						 M3633.6,333.2h9.6c7.2,0,11.7-5,11.7-11.8c0-6.7-4.5-11.5-11.6-11.5h-9.7V333.2z"/>
					<path class="st8" d="M3719.4,315.9h16.1v4.2c0,16.6-11.1,27.2-26.6,27.2c-15.8,0-26.8-10.2-26.8-26.8V290
						c0-16.6,11.5-27.1,27.2-27.1c15.5,0,26.3,10.1,26.3,26.7v3.4h-16.1v-3.5c0-7.5-4-12-10.4-12c-6.3,0-10.3,4.5-10.3,12v31.1
						c0,7.6,4,12,10.3,12c6.4,0,10.4-4.3,10.4-12V315.9z"/>
					<path class="st8" d="M3813.8,346.1l-11-29.9c-0.5,0.1-2.5,0.1-2.8,0.1h-6.1v29.8h-16.5v-82.1h25.9c16.3,0,27.4,11,27.4,26
						c0,9.5-4.9,17.5-12.7,21.7l14.4,34.3H3813.8z M3793.9,303.6h7.5c7.6,0,12.7-5.5,12.7-12.7c0-7.3-4.8-12.7-12.5-12.7h-7.6V303.6
						z"/>
					<path class="st8" d="M3841.8,346.1v-82.1h44.5v14.7h-27.9V297h23.2v13.7h-23.2v20.7h28.5v14.7H3841.8z"/>
					<path class="st8" d="M3894.6,319.9v-29.3c0-17,11.7-27.7,27.8-27.7c16.2,0,27.3,10.3,27.3,27.3v1.8h-16.5v-1.9
						c0-7.9-4.2-12.5-11-12.5c-6.7,0-10.9,4.7-10.9,12.5v29.4c0,8.8,4.3,13.5,11.4,13.5c7,0,11.5-4.7,11.5-13.5v-5.9h-11.6v-12h27.2
						v17.8c0,17-11.6,27.8-27.7,27.8C3905.8,347.3,3894.6,336.9,3894.6,319.9z"/>
					<path class="st8" d="M3963.2,264.1h17.1v82.1h-17.1V264.1z"/>
					<path class="st8" d="M3993.5,284.7c0-13,10.8-21.8,24.2-21.8c20.5,0,25,17.8,25,17.8l-13.5,5.4c0,0-2.8-9.4-11.1-9.4
						c-4.5,0-8,2.8-8,7.2c0,5.6,4.3,9.1,12.5,14.1c10.4,6.3,19.1,14.2,19.1,26c0,14.8-11.1,23.3-25.3,23.3
						c-21.2,0-26.7-20.4-26.7-20.4l13.5-5.4c0,0,4.2,12,13.1,12c5.4,0,8.9-3.4,8.9-8.4c0-6.2-4.9-9.8-13.8-15.2
						C4001.1,303.6,3993.5,295.4,3993.5,284.7z"/>
					<path class="st8" d="M4081.2,279.1v67.1h-16.6v-67.1h-17.2v-15h51v15H4081.2z"/>
					<path class="st8" d="M4143.6,346.1l-11-29.9c-0.5,0.1-2.5,0.1-2.8,0.1h-6.1v29.8h-16.5v-82.1h25.9c16.3,0,27.4,11,27.4,26
						c0,9.5-4.9,17.5-12.7,21.7l14.4,34.3H4143.6z M4123.6,303.6h7.5c7.6,0,12.7-5.5,12.7-12.7c0-7.3-4.8-12.7-12.5-12.7h-7.6V303.6
						z"/>
					<path class="st8" d="M4185.3,315.6l-23.7-51.6h18.5L4194,299l13.9-34.9h17.6l-23.7,51.6v30.5h-16.5V315.6z"/>
				</g>
				<g>
					<path class="st0" d="M3609.2,256.3h29.4c14.4,0,23.3,8.8,23.3,20.9c0,8.1-4.1,14.7-11,18.3c8,3.5,12.8,10.9,12.8,19.9
						c0,13-10.1,23-25.3,23h-29.2V256.3z M3625.8,290.1h8.9c6.6,0,10.7-4.5,10.7-10.5c0-6.2-4-10.4-10.4-10.4h-9.1V290.1z
						 M3625.8,325.4h9.6c7.2,0,11.7-5,11.7-11.8c0-6.7-4.5-11.5-11.6-11.5h-9.7V325.4z"/>
					<path class="st0" d="M3711.6,308.1h16.1v4.2c0,16.6-11.1,27.2-26.6,27.2c-15.8,0-26.8-10.2-26.8-26.8v-30.5
						c0-16.6,11.5-27.1,27.2-27.1c15.5,0,26.3,10.1,26.3,26.7v3.4h-16.1v-3.5c0-7.5-4-12-10.4-12c-6.3,0-10.3,4.5-10.3,12v31.1
						c0,7.6,4,12,10.3,12c6.4,0,10.4-4.3,10.4-12V308.1z"/>
					<path class="st0" d="M3806,338.3l-11-29.9c-0.5,0.1-2.5,0.1-2.8,0.1h-6.1v29.8h-16.5v-82.1h25.9c16.3,0,27.4,11,27.4,26
						c0,9.5-4.9,17.5-12.7,21.7l14.4,34.3H3806z M3786.1,295.8h7.5c7.6,0,12.7-5.5,12.7-12.7c0-7.3-4.8-12.7-12.5-12.7h-7.6V295.8z"
						/>
					<path class="st0" d="M3834,338.3v-82.1h44.5v14.7h-27.9v18.3h23.2v13.7h-23.2v20.7h28.5v14.7H3834z"/>
					<path class="st0" d="M3886.8,312v-29.3c0-17,11.7-27.7,27.8-27.7c16.2,0,27.3,10.3,27.3,27.3v1.8h-16.5v-1.9
						c0-7.9-4.2-12.5-11-12.5c-6.7,0-10.9,4.7-10.9,12.5v29.4c0,8.8,4.3,13.5,11.4,13.5s11.5-4.7,11.5-13.5v-5.9h-11.6v-12h27.2
						v17.8c0,17-11.6,27.8-27.7,27.8C3898,339.5,3886.8,329,3886.8,312z"/>
					<path class="st0" d="M3955.3,256.3h17.1v82.1h-17.1V256.3z"/>
					<path class="st0" d="M3985.7,276.9c0-13,10.8-21.8,24.2-21.8c20.5,0,25,17.8,25,17.8l-13.5,5.4c0,0-2.8-9.4-11.1-9.4
						c-4.5,0-8,2.8-8,7.2c0,5.6,4.3,9.1,12.5,14.1c10.4,6.3,19.1,14.2,19.1,26c0,14.8-11.1,23.3-25.3,23.3
						c-21.2,0-26.7-20.4-26.7-20.4l13.5-5.4c0,0,4.2,12,13.1,12c5.4,0,8.9-3.4,8.9-8.4c0-6.2-4.9-9.8-13.8-15.2
						C3993.3,295.8,3985.7,287.6,3985.7,276.9z"/>
					<path class="st0" d="M4073.4,271.3v67.1h-16.6v-67.1h-17.2v-15h51v15H4073.4z"/>
					<path class="st0" d="M4135.7,338.3l-11-29.9c-0.5,0.1-2.5,0.1-2.8,0.1h-6.1v29.8h-16.5v-82.1h25.9c16.3,0,27.4,11,27.4,26
						c0,9.5-4.9,17.5-12.7,21.7l14.4,34.3H4135.7z M4115.8,295.8h7.5c7.6,0,12.7-5.5,12.7-12.7c0-7.3-4.8-12.7-12.5-12.7h-7.6V295.8
						z"/>
					<path class="st0" d="M4177.5,307.8l-23.7-51.6h18.5l13.8,34.9l13.9-34.9h17.6l-23.7,51.6v30.5h-16.5V307.8z"/>
				</g>
			</g>
		</g>
	</g>
</g>
<g>
	<defs>
		<circle id="SVGID_3_" cx="4700" cy="1537.3" r="562.7"/>
	</defs>
	<clipPath id="SVGID_4_">
		<use xlink:href="#SVGID_3_"  style="overflow:visible;"/>
	</clipPath>
	<g class="st9">
		<circle class="st0" cx="4700" cy="1537.3" r="562.7"/>
		<circle class="st0" cx="4700" cy="1537.3" r="562.7"/>
		<circle class="st10" cx="4706.7" cy="1537.3" r="562.7"/>
		<g>
			<rect x="4339.9" y="1291.7" class="st11" width="720.2" height="1326"/>
			<polygon class="st3" points="5060.1,1291.7 5060.1,1283.5 5060.1,1330.1 4339.9,1330.1 4339.9,1291.7 			"/>
			<rect x="4327.5" y="1267.6" class="st11" width="744.9" height="45.2"/>
			<g>
				<rect x="4789.6" y="1391.6" class="st3" width="71.9" height="1152.7"/>
				<rect x="4800.1" y="1391.6" class="st12" width="61.5" height="1152.7"/>
				<rect x="4812.2" y="1412.7" class="st13" width="49.3" height="1131.6"/>
			</g>
			<g>
				<rect x="4915.3" y="1391.6" class="st3" width="71.9" height="1152.7"/>
				<rect x="4925.7" y="1391.6" class="st12" width="61.5" height="1152.7"/>
				<rect x="4937.9" y="1412.7" class="st13" width="49.3" height="1131.6"/>
			</g>
			<g>
				<rect x="4664" y="1391.6" class="st3" width="71.9" height="1152.7"/>
				<rect x="4674.5" y="1391.6" class="st12" width="61.5" height="1152.7"/>
				<rect x="4686.6" y="1412.7" class="st13" width="49.3" height="1131.6"/>
			</g>
			<g>
				<rect x="4538.4" y="1391.6" class="st3" width="71.9" height="1152.7"/>
				<rect x="4548.8" y="1391.6" class="st12" width="61.5" height="1152.7"/>
				<rect x="4561" y="1412.7" class="st13" width="49.3" height="1131.6"/>
			</g>
			<g>
				<rect x="4412.8" y="1391.6" class="st3" width="71.9" height="1152.7"/>
				<rect x="4423.2" y="1391.6" class="st12" width="61.5" height="1152.7"/>
				<rect x="4435.4" y="1412.7" class="st13" width="49.3" height="1131.6"/>
			</g>
			<g>
				<path class="st4" d="M4515.4,1204.6h-21.6v65.2h-26.3v-151.2h26.3v59.6h21.6v-59.6h26.6v151.2h-26.6V1204.6z"/>
				<path class="st4" d="M4563.6,1269.8v-151.2h59.4v26.1h-33v35.2h26.6v24.4h-26.6v39.3h34.1v26.1H4563.6z"/>
				<path class="st4" d="M4713.7,1269.8h-27.4l-4.5-29.4h-23.1l-4.5,29.4h-25.7l29.8-151.2h25.7L4713.7,1269.8z M4661.6,1219.3h17.1
					l-8.6-53.8L4661.6,1219.3z"/>
				<path class="st4" d="M4724.5,1269.8v-151.2h26.3v125.1h29.8v26.1H4724.5z"/>
				<path class="st4" d="M4821.9,1144.8v125.1h-26.8v-125.1H4772v-26.1h73v26.1H4821.9z"/>
				<path class="st4" d="M4905.9,1204.6h-21.6v65.2H4858v-151.2h26.3v59.6h21.6v-59.6h26.6v151.2h-26.6V1204.6z"/>
			</g>
		</g>
	</g>
</g>
<g>
	<defs>
		<circle id="SVGID_5_" cx="3882.8" cy="2508.7" r="562.7"/>
	</defs>
	<clipPath id="SVGID_6_">
		<use xlink:href="#SVGID_5_"  style="overflow:visible;"/>
	</clipPath>
	<g class="st14">
		<circle class="st0" cx="3882.8" cy="2508.7" r="562.7"/>
		<g>
			<rect x="3547.6" y="2147.5" class="st15" width="670.6" height="200.7"/>
			<g>
				<rect x="3466.5" y="2389" class="st16" width="832.7" height="863.4"/>
				<rect x="3439.5" y="2337.7" class="st16" width="886.7" height="51.3"/>
				<rect x="3466.5" y="2389" class="st17" width="832.7" height="18.5"/>
				<g>
					<g>
						<rect x="3514.1" y="2442" class="st17" width="102.6" height="158.2"/>
						<rect x="3522.2" y="2442" class="st3" width="102.6" height="158.2"/>
						<rect x="3530.3" y="2450.1" class="st4" width="94.5" height="150.1"/>
					</g>
					<g>
						<rect x="3670.8" y="2442" class="st17" width="102.6" height="158.2"/>
						<rect x="3678.9" y="2442" class="st3" width="102.6" height="158.2"/>
						<rect x="3687" y="2450.1" class="st4" width="94.5" height="150.1"/>
					</g>
					<g>
						<rect x="3827.5" y="2442" class="st17" width="102.6" height="158.2"/>
						<rect x="3835.6" y="2442" class="st3" width="102.6" height="158.2"/>
						<rect x="3843.7" y="2450.1" class="st4" width="94.5" height="150.1"/>
					</g>
					<g>
						<rect x="3984.2" y="2442" class="st17" width="102.6" height="158.2"/>
						<rect x="3992.3" y="2442" class="st3" width="102.6" height="158.2"/>
						<rect x="4000.4" y="2450.1" class="st4" width="94.5" height="150.1"/>
					</g>
					<g>
						<rect x="4141" y="2442" class="st17" width="102.6" height="158.2"/>
						<rect x="4149.1" y="2442" class="st3" width="102.6" height="158.2"/>
						<rect x="4157.2" y="2450.1" class="st4" width="94.5" height="150.1"/>
					</g>
				</g>
				<g>
					<g>
						<rect x="3514.1" y="2636.5" class="st17" width="102.6" height="158.2"/>
						<rect x="3522.2" y="2636.5" class="st3" width="102.6" height="158.2"/>
						<rect x="3530.3" y="2644.7" class="st4" width="94.5" height="150.1"/>
					</g>
					<g>
						<rect x="3670.8" y="2636.5" class="st17" width="102.6" height="158.2"/>
						<rect x="3678.9" y="2636.5" class="st3" width="102.6" height="158.2"/>
						<rect x="3687" y="2644.7" class="st4" width="94.5" height="150.1"/>
					</g>
					<g>
						<rect x="3827.5" y="2636.5" class="st17" width="102.6" height="158.2"/>
						<rect x="3835.6" y="2636.5" class="st3" width="102.6" height="158.2"/>
						<rect x="3843.7" y="2644.7" class="st4" width="94.5" height="150.1"/>
					</g>
					<g>
						<rect x="3984.2" y="2636.5" class="st17" width="102.6" height="158.2"/>
						<rect x="3992.3" y="2636.5" class="st3" width="102.6" height="158.2"/>
						<rect x="4000.4" y="2644.7" class="st4" width="94.5" height="150.1"/>
					</g>
					<g>
						<rect x="4141" y="2636.5" class="st17" width="102.6" height="158.2"/>
						<rect x="4149.1" y="2636.5" class="st3" width="102.6" height="158.2"/>
						<rect x="4157.2" y="2644.7" class="st4" width="94.5" height="150.1"/>
					</g>
				</g>
				<g>
					<g>
						<rect x="3514.1" y="2831.1" class="st2" width="102.6" height="158.2"/>
						<rect x="3522.2" y="2831.1" class="st3" width="102.6" height="158.2"/>
						<rect x="3530.3" y="2839.2" class="st4" width="94.5" height="150.1"/>
					</g>
					<g>
						<rect x="3670.8" y="2831.1" class="st17" width="102.6" height="158.2"/>
						<rect x="3678.9" y="2831.1" class="st3" width="102.6" height="158.2"/>
						<rect x="3687" y="2839.2" class="st4" width="94.5" height="150.1"/>
					</g>
					<g>
						<rect x="3827.5" y="2831.1" class="st17" width="102.6" height="158.2"/>
						<rect x="3835.6" y="2831.1" class="st3" width="102.6" height="158.2"/>
						<rect x="3843.7" y="2839.2" class="st4" width="94.5" height="150.1"/>
					</g>
					<g>
						<rect x="3984.2" y="2831.1" class="st17" width="102.6" height="158.2"/>
						<rect x="3992.3" y="2831.1" class="st3" width="102.6" height="158.2"/>
						<rect x="4000.4" y="2839.2" class="st4" width="94.5" height="150.1"/>
					</g>
					<g>
						<rect x="4141" y="2831.1" class="st17" width="102.6" height="158.2"/>
						<rect x="4149.1" y="2831.1" class="st3" width="102.6" height="158.2"/>
						<rect x="4157.2" y="2839.2" class="st4" width="94.5" height="150.1"/>
					</g>
				</g>
				<g>
					<g>
						<rect x="3514.1" y="3025.7" class="st2" width="102.6" height="158.2"/>
						<rect x="3522.2" y="3025.7" class="st3" width="102.6" height="158.2"/>
						<rect x="3530.3" y="3033.8" class="st4" width="94.5" height="150.1"/>
					</g>
					<g>
						<rect x="4141" y="3025.7" class="st17" width="102.6" height="158.2"/>
						<rect x="4149.1" y="3025.7" class="st3" width="102.6" height="158.2"/>
						<rect x="4157.2" y="3033.8" class="st4" width="94.5" height="150.1"/>
					</g>
				</g>
			</g>
			<g>
				<path class="st4" d="M3734,2230.8c-5.8-14.9-17.6-21.4-39.5-21.4c-31.1,0-42.6,12.8-42.6,32.9c0,20,11.5,32.9,42.6,32.9
					c21.8,0,36.8-6.4,40.9-22.4h19c-6.2,24.2-27,34.9-64.2,34.9c-43,0-70.2-14.3-70.2-45.4c0-31.1,28.2-45.4,68.9-45.4
					c20,0,34.1,3.6,43.2,10.6l4.3-7.2h16.8v30.5H3734z"/>
				<path class="st4" d="M3816.8,2264.6c0,6,2.4,7.2,7.2,7.2h15.4v12.5h-73.9v-12.5h15.4c4.8,0,7.2-1.2,7.2-7.2V2220
					c0-6-2.4-7.2-7.2-7.2h-15.4v-12.5h73.9v12.5H3824c-4.8,0-7.2,1.2-7.2,7.2V2264.6z"/>
				<path class="st4" d="M3976,2234.6c-1.2-15.8-2.9-21.8-15.8-21.8h-25.3v51.8c0,6,2.4,7.2,7.2,7.2h15.4v12.5h-73.9v-12.5h15.4
					c4.8,0,7.2-1.2,7.2-7.2v-51.8h-25.3c-13,0-14.6,6-15.8,21.8h-15.6v-34.3h142.3v34.3H3976z"/>
				<path class="st4" d="M4087.6,2264.6c0,6,2.4,7.2,7.2,7.2h15.4v12.5h-73.9v-12.5h15.4c4.8,0,7.2-1.2,7.2-7.2v-9.4l-40.2-36.4
					c-5.5-5-11-6.1-18.8-6.1h-2.9v-12.5h69.8v12.5h-11c-4.4,0-5.5,3.1-2.4,5.9l25.8,22.9l25.3-22.9c3.1-2.8,2-5.9-2.4-5.9h-11v-12.5
					h54.7v12.5h-2.9c-7.8,0-12.1,1-17.6,6.1l-37.6,34.9V2264.6z"/>
			</g>
		</g>
	</g>
</g>
<g>
	
		<rect x="2642.3" y="-93.7" transform="matrix(0.1122 -0.9937 0.9937 0.1122 2258.6431 3302.4009)" class="st0" width="670.6" height="961.6"/>
	<g>
		<path class="st4" d="M2816,188.9l-2.5,22.3l-13.3-1.5l7.5-66.1l20,2.3c13.7,1.5,21.9,11.9,20.5,24.4
			c-1.4,12.7-11.8,20.9-25.7,19.4L2816,188.9z M2819.7,156.5l-2.4,21.2l5.6,0.6c6.5,0.7,11.3-3.2,12-9.4c0.7-6.1-3-11.1-9.5-11.9
			L2819.7,156.5z"/>
		<path class="st4" d="M2882.5,219l-6.2-25.1c-0.4,0.1-2-0.1-2.3-0.2l-4.9-0.6l-2.7,24l-13.3-1.5l7.5-66.1l20.9,2.4
			c13.1,1.5,21.1,11.4,19.7,23.5c-0.9,7.6-5.6,13.6-12.2,16.3l8.5,29L2882.5,219z M2870.3,182.9l6,0.7c6.1,0.7,10.7-3.3,11.4-9
			c0.7-5.9-2.7-10.6-9-11.3l-6.1-0.7L2870.3,182.9z"/>
		<path class="st4" d="M2911,176.9c1.5-13.7,12-21.2,24.9-19.8c13,1.5,21.1,10.8,19.5,24.5l-2.7,23.6c-1.5,13.7-11.9,21.3-24.8,19.9
			c-13-1.5-21.2-10.9-19.6-24.6L2911,176.9z M2921.8,202.1c-0.7,6.4,2.3,10.5,7.6,11.1c5.5,0.6,9.3-2.7,10-9.1l2.7-24.1
			c0.7-6.3-2.3-10.5-7.7-11.1c-5.4-0.6-9.2,2.8-9.9,9.1L2921.8,202.1z"/>
		<path class="st4" d="M2962.5,161.1l14.5,1.6l6.9,46.3l17.3-43.6l13.7,1.5l-27.3,63.9l-12.7-1.4L2962.5,161.1z"/>
		<path class="st4" d="M3023,167.9l13.8,1.6l-7.5,66.1l-13.8-1.6L3023,167.9z"/>
		<path class="st4" d="M3060,196.5l-4.7,42l-12.3-1.4l7.5-66.1l13,1.5l14.6,42.5l4.6-40.3l12.2,1.4l-7.5,66.1l-12.2-1.4L3060,196.5z
			"/>
		<path class="st4" d="M3132.5,222.6l12.9,1.5l-0.4,3.4c-1.5,13.4-11.4,20.9-23.9,19.5c-12.8-1.4-20.7-10.7-19.2-24.1l2.8-24.6
			c1.5-13.4,11.7-20.8,24.4-19.3c12.5,1.4,20.2,10.5,18.7,23.9l-0.3,2.7l-12.9-1.5l0.3-2.8c0.7-6-2.1-10-7.3-10.6
			c-5.1-0.6-8.7,2.6-9.4,8.7l-2.8,25c-0.7,6.1,2.1,10,7.2,10.6c5.2,0.6,8.8-2.5,9.5-8.7L3132.5,222.6z"/>
		<path class="st4" d="M3155,249.8l7.5-66.1l35.9,4.1l-1.3,11.8l-22.5-2.5l-1.7,14.7l18.7,2.1l-1.2,11.1l-18.7-2.1l-1.9,16.7l23,2.6
			l-1.3,11.8L3155,249.8z"/>
	</g>
	
		<rect x="2540" y="95.1" transform="matrix(0.9937 0.1122 -0.1122 0.9937 62.2683 -331.7599)" class="st18" width="875.1" height="584.1"/>
	<polygon class="st19" points="3334.9,585.1 3353.6,561.5 3330.1,542.7 3336.8,513.4 3307.5,506.6 3300.7,477.3 3271.4,483.9 
		3252.6,460.4 3229,479.1 3201.9,466.1 3188.8,493.2 3158.7,493.3 3158.6,523.3 3131.5,536.4 3144.5,563.6 3125.8,587.1 
		3149.3,605.9 3142.6,635.3 3171.9,642 3178.7,671.3 3208,664.7 3226.8,688.2 3250.4,669.5 3277.5,682.5 3290.6,655.4 3320.7,655.4 
		3320.8,625.3 3347.9,612.2 	"/>
	<line class="st20" x1="2643.1" y1="465.9" x2="3028.2" y2="509.4"/>
	<line class="st20" x1="2638.8" y1="503.7" x2="2956.1" y2="539.6"/>
	<path class="st21" d="M2864.9,590.2c-10.2-1.2-20-3.4-29.1-8c-9.3,7.8-24.5,8.1-38.5,6.5c-8.2-0.9-16-2.5-21.9-3.5
		c-1.4-0.2-3.8-1-3.6-2.7c0.1-0.7,0.4-1.3,0.4-1.9c0.5-4.3-4.8-6.5-12.9-7.4c-19.1-2.2-53.2,2.6-59.7,1.9c-8.3-0.9-8.4-8.7-7.7-15.3
		c-12.9,2.1-35.9,4.9-49.1,3.4c-6.3-0.7-10.3-2.4-9.9-5.6c0.3-2.9,3.7-6.9,10.8-6c2.1,0.2,3.7,1,3.6,2.2c-0.1,0.5-0.7,1-0.8,1.5
		c-0.1,0.5,1.2,0.7,3,0.9c6.9,0.8,24,0.5,25.4,0.3c7.2-1.1,14.5-2,21.6-4c0.7-0.2,3.3-0.5,5.4-0.3c1.7,0.2,3.2,0.7,3,2.3
		c-1.1,9.4,3.9,12.9,10.7,13.7c8.8,1,20.9-2.4,28.8-3.3c8.3-1,16.6-1.2,24.8-0.3c2,0.2,4,0.5,5.9,0.9c2.8,0.5,9.9,3.2,10.5,6.9
		c1,6.3,7.3,9.3,14.8,10.2c11.4,1.3,25.6-2.4,28.5-7c1.3-2.1,5-3,7.9-2.6c1.1,0.1,2.2,0.5,3,0.9c9.2,6,19.7,8.7,30.5,10
		c14.8,1.7,30.5,0.5,44.7,0.8c0.5,0.1,0.8,0,1.2,0.1c2.6,0.3,3.5,1.3,3.4,2.5c-0.2,2-3.4,4.3-7.1,4.3
		C2897.4,591,2880.7,592,2864.9,590.2z"/>
	<g>
		<path class="st4" d="M2665.1,257.9l-8.4,74.2l7,0.8l-1.6,14.4l-29.4-3.3l1.6-14.4l7,0.8l8.4-74.2l-7-0.8l1.6-14.4l29.4,3.3
			l-1.6,14.4L2665.1,257.9z"/>
		<path class="st4" d="M2734.6,265.7l-7-0.8l-10,88.6l-14.3-1.6l-7.9-64.8l-5.5,48.7l6.6,0.7l-1.6,14.4l-27-3.1l1.6-14.4l7,0.8
			l8.4-74.2l-7-0.8l1.6-14.4l21.2,2.4l7.9,64.8l5.5-48.7l-6.6-0.7l1.6-14.4l27,3.1L2734.6,265.7z"/>
		<path class="st4" d="M2777.5,352.1l-9.2,7.2l-27.3-3.1l-7.2-9.2l9.8-86.7l9.2-7.2l27.3,3.1l7.2,9.2l-2.8,25.1l-15.5-1.7l2.1-18.9
			l-12.7-1.4l-8.4,74.2l12.7,1.4l2.1-18.9l15.5,1.7L2777.5,352.1z"/>
		<path class="st4" d="M2842.2,271.6l-9.8,86.7l-9.2,7.2l-27.3-3.1l-7.2-9.2l9.8-86.7l9.2-7.2l27.3,3.1L2842.2,271.6z M2813.3,274.6
			l-8.4,74.2l12.8,1.4l8.4-74.2L2813.3,274.6z"/>
		<path class="st4" d="M2896.1,359.1l-1.6,14.4l-17.8-2l-4.8-47.8l-4.1-0.5l-3.6,32.2l6.1,0.7l-1.6,14.4l-28.5-3.2l1.6-14.4l7,0.8
			l8.4-74.2l-7-0.8l1.6-14.4l40.2,4.5l7.2,9.2l-4.5,40.2l-7.9,6.3l-0.1,0l4.5,34L2896.1,359.1z M2869.3,310.7l10.4,1.2l3.3-29.4
			l-10.4-1.2L2869.3,310.7z"/>
		<path class="st4" d="M2957.7,284.7l-5.2,46l-9.2,7.2l-17.3-1.9l-3,26.3l9,1l-1.6,14.4l-31.4-3.5l1.6-14.4l7,0.8l8.4-74.2l-7-0.8
			l1.6-14.4l39.8,4.5L2957.7,284.7z M2941.6,289.1l-10-1.1l-3.9,34.1l10,1.1L2941.6,289.1z"/>
		<path class="st4" d="M3012,290.8l-9.8,86.7l-9.2,7.2l-27.3-3.1l-7.2-9.2l9.8-86.7l9.2-7.2l27.3,3.1L3012,290.8z M2983.1,293.8
			l-8.4,74.2l12.8,1.4l8.4-74.2L2983.1,293.8z"/>
		<path class="st4" d="M3065.9,378.2l-1.6,14.4l-17.8-2l-4.8-47.8l-4.1-0.5l-3.6,32.2l6.1,0.7l-1.6,14.4l-28.5-3.2l1.6-14.4l7,0.8
			l8.4-74.2l-7-0.8l1.6-14.4l40.2,4.5l7.2,9.2l-4.5,40.2l-7.9,6.3l-0.1,0l4.5,34L3065.9,378.2z M3039,329.8l10.4,1.2l3.3-29.4
			l-10.4-1.2L3039,329.8z"/>
		<path class="st4" d="M3127.2,385.2l-1.6,14.4l-26.9-3l1.6-14l5.2,0.6l0.2-18.4l-10.8-1.2l-3.9,18l5.3,0.6l-1.6,14l-26.5-3
			l1.6-14.4l6.4,0.7l18.1-73.6l-7.7-0.9l1.6-13.9l31,3.5l1.6,89.9L3127.2,385.2z M3105.8,351.1l0.6-42.7l-8.9,41.8L3105.8,351.1z"/>
		<path class="st4" d="M3171.9,334.4l2.2-19.1l-5.8-0.7l-8.4,74.2l8.2,0.9l-1.6,14.4l-31.9-3.6l1.6-14.4l8.2,0.9l8.4-74.2l-5.8-0.7
			l-2.2,19.1l-13.4-1.5l3.8-33.5l53.8,6.1l-3.8,33.5L3171.9,334.4z"/>
		<path class="st4" d="M3216.3,320.1l-8.4,74.2l7,0.8l-1.6,14.4l-29.4-3.3l1.6-14.4l7,0.8l8.4-74.2l-7-0.8l1.6-14.4l29.4,3.3
			l-1.6,14.4L3216.3,320.1z"/>
		<path class="st4" d="M3276.1,320.6l-9.8,86.7l-9.2,7.2l-27.3-3.1l-7.2-9.2l9.8-86.7l9.2-7.2l27.3,3.1L3276.1,320.6z M3247.2,323.6
			l-8.4,74.2l12.8,1.4l8.4-74.2L3247.2,323.6z"/>
		<path class="st4" d="M3340.8,334.2l-7-0.8l-10,88.6l-14.3-1.6l-7.9-64.8l-5.5,48.7l6.6,0.7l-1.6,14.4l-27-3.1l1.6-14.4l7,0.8
			l8.4-74.2l-7-0.8l1.6-14.4l21.2,2.4l7.9,64.8l5.5-48.7l-6.6-0.7l1.6-14.4l27,3.1L3340.8,334.2z"/>
	</g>
</g>
<g>
	
		<rect x="3458.6" y="1032.7" transform="matrix(0.1266 -0.992 0.992 0.1266 1812.3986 5085.3813)" class="st22" width="670.6" height="961.6"/>
	<g>
		<path class="st4" d="M3456,1287.9l-5.8-25.2c-0.4,0-2-0.2-2.3-0.2l-4.9-0.6l-3.1,23.9l-13.3-1.7l8.4-66l20.8,2.7
			c13.1,1.7,20.9,11.7,19.4,23.7c-1,7.6-5.8,13.5-12.4,16.1l8.1,29.1L3456,1287.9z M3444.4,1251.6l6,0.8c6.1,0.8,10.7-3.1,11.5-8.9
			c0.7-5.8-2.6-10.7-8.8-11.5l-6.1-0.8L3444.4,1251.6z"/>
		<path class="st4" d="M3480.4,1291l8.4-66l35.8,4.6l-1.5,11.8l-22.4-2.9l-1.9,14.7l18.7,2.4l-1.4,11l-18.7-2.4l-2.1,16.7l22.9,2.9
			l-1.5,11.8L3480.4,1291z"/>
		<path class="st4" d="M3527.4,1275.5l3-23.6c1.7-13.7,12.3-21,25.2-19.4c13,1.7,20.9,11.1,19.2,24.8l-0.2,1.4l-13.3-1.7l0.2-1.5
			c0.8-6.3-2.1-10.5-7.6-11.2c-5.4-0.7-9.2,2.7-10.1,9l-3,23.7c-0.9,7.1,2.1,11.3,7.8,12s9.7-2.6,10.6-9.7l0.6-4.7l-9.3-1.2l1.2-9.6
			l21.9,2.8l-1.8,14.3c-1.7,13.7-12.2,21.2-25.1,19.5C3533.7,1298.8,3525.7,1289.2,3527.4,1275.5z"/>
		<path class="st4" d="M3590.2,1237.9l13.8,1.8l-8.4,66l-13.8-1.8L3590.2,1237.9z"/>
		<path class="st4" d="M3614,1262.6c1.7-13.7,12.3-21,25.2-19.4c13,1.7,20.9,11.1,19.2,24.8l-3,23.6c-1.7,13.7-12.2,21.2-25.1,19.5
			c-13-1.7-21-11.2-19.2-24.9L3614,1262.6z M3624.3,1288c-0.8,6.4,2.1,10.5,7.5,11.2c5.5,0.7,9.3-2.5,10.1-9l3.1-24
			c0.8-6.3-2.1-10.5-7.6-11.2c-5.4-0.7-9.2,2.7-10.1,9L3624.3,1288z"/>
		<path class="st4" d="M3682.4,1274.1l-5.4,42l-12.3-1.6l8.4-66l13,1.7l14,42.7l5.1-40.3l12.2,1.6l-8.4,66l-12.2-1.6L3682.4,1274.1z
			"/>
		<path class="st4" d="M3769.8,1327.9l-14-1.8l-2.1-14.5l-18.2-2.3l-5.7,13.6l-13.2-1.7l28.7-63.4l12.6,1.6L3769.8,1327.9z
			 M3739.3,1299.6l13.2,1.7l-3.6-24.6L3739.3,1299.6z"/>
		<path class="st4" d="M3785.7,1262.9l13.4,1.7l-6.9,53.8l21,2.7l-1.6,12.2l-34.4-4.4L3785.7,1262.9z"/>
		<path class="st4" d="M3879.5,1313.3l-16.7-2.1l-3.6,28.2l-13.4-1.7l8.4-66l13.4,1.7l-3.3,25.6l16.7,2.1l3.3-25.6l13.3,1.7l-8.4,66
			l-13.3-1.7L3879.5,1313.3z"/>
		<path class="st4" d="M3902.4,1344.8l8.4-66l35.8,4.6l-1.5,11.8l-22.4-2.9l-1.9,14.7l18.7,2.4l-1.4,11l-18.7-2.4l-2.1,16.7
			l22.9,2.9l-1.5,11.8L3902.4,1344.8z"/>
		<path class="st4" d="M3996,1356.8l-14-1.8l-2.1-14.5l-18.2-2.3l-5.7,13.6l-13.2-1.7l28.7-63.4l12.6,1.6L3996,1356.8z
			 M3965.5,1328.5l13.2,1.7l-3.6-24.6L3965.5,1328.5z"/>
		<path class="st4" d="M4012,1291.8l13.4,1.7l-6.9,53.8l21,2.7l-1.6,12.2l-34.4-4.4L4012,1291.8z"/>
		<path class="st4" d="M4070.2,1311.4l-6.9,53.9l-13.4-1.7l6.9-53.9l-13.9-1.8l1.5-12.1l41,5.2l-1.5,12.1L4070.2,1311.4z"/>
		<path class="st4" d="M4119.7,1343.9l-16.7-2.1l-3.6,28.2l-13.4-1.7l8.4-66l13.4,1.7l-3.3,25.6l16.7,2.1l3.3-25.6l13.3,1.7l-8.4,66
			l-13.3-1.7L4119.7,1343.9z"/>
		<path class="st4" d="M3462.1,1384.5l-14-1.8l-2.1-14.5l-18.2-2.3l-5.7,13.6l-13.2-1.7l28.7-63.4l12.6,1.6L3462.1,1384.5z
			 M3431.6,1356.2l13.2,1.7l-3.6-24.6L3431.6,1356.2z"/>
		<path class="st4" d="M3505.9,1323l13.2,1.7l-5.7,45.1c-1.7,13.4-11.9,20.7-24.6,19.1c-12.7-1.6-20.5-11-18.8-24.3l5.8-45.4
			l13.5,1.7l-5.8,45.4c-0.8,6.1,2,10,7.1,10.7c5.2,0.7,8.8-2.4,9.6-8.5L3505.9,1323z"/>
		<path class="st4" d="M3553.3,1341.3l-6.9,53.9l-13.4-1.7l6.9-53.9l-13.9-1.8l1.5-12.1l41,5.2l-1.5,12.1L3553.3,1341.3z"/>
		<path class="st4" d="M3602.8,1373.8l-16.7-2.1l-3.6,28.2l-13.4-1.7l8.4-66l13.4,1.7l-3.3,25.6l16.7,2.1l3.3-25.6l13.3,1.7l-8.4,66
			l-13.3-1.7L3602.8,1373.8z"/>
		<path class="st4" d="M3630.4,1360.5c1.7-13.7,12.3-21,25.2-19.4c13,1.7,20.9,11.1,19.2,24.8l-3,23.6
			c-1.7,13.7-12.2,21.2-25.1,19.5c-13-1.7-21-11.2-19.2-24.9L3630.4,1360.5z M3640.8,1385.9c-0.8,6.4,2.1,10.5,7.5,11.2
			c5.5,0.7,9.3-2.5,10.1-9l3.1-24c0.8-6.3-2.1-10.5-7.6-11.2c-5.4-0.7-9.2,2.7-10.1,9L3640.8,1385.9z"/>
		<path class="st4" d="M3710.6,1416.2l-5.8-25.2c-0.4,0-2-0.2-2.3-0.2l-4.9-0.6l-3.1,23.9l-13.3-1.7l8.4-66l20.8,2.7
			c13.1,1.7,20.9,11.7,19.4,23.7c-1,7.6-5.8,13.5-12.4,16.1l8.1,29.1L3710.6,1416.2z M3698.9,1379.9l6,0.8
			c6.1,0.8,10.7-3.1,11.5-8.9c0.7-5.8-2.6-10.7-8.8-11.5l-6.1-0.8L3698.9,1379.9z"/>
		<path class="st4" d="M3743.9,1353.4l13.8,1.8l-8.4,66l-13.8-1.8L3743.9,1353.4z"/>
		<path class="st4" d="M3792.8,1371.9l-6.9,53.9l-13.4-1.7l6.9-53.9l-13.9-1.8l1.5-12.1l41,5.2l-1.5,12.1L3792.8,1371.9z"/>
		<path class="st4" d="M3826.6,1406.1l-13.8-43.9l14.9,1.9l7.5,29.5l14.8-26.7l14.1,1.8l-24.3,39.1l-3.1,24.5l-13.3-1.7
			L3826.6,1406.1z"/>
	</g>
	<polygon class="st23" points="4164.7,1733.6 4183.7,1710.3 4160.6,1691.1 4167.6,1661.9 4138.4,1654.7 4132.1,1625.3 
		4102.6,1631.5 4084.2,1607.8 4060.3,1626.1 4033.4,1612.7 4019.9,1639.6 3989.8,1639.2 3989.3,1669.3 3962.1,1682 3974.6,1709.3 
		3955.6,1732.6 3978.8,1751.7 3971.7,1781 4000.9,1788.2 4007.3,1817.6 4036.7,1811.4 4055.2,1835.1 4079,1816.8 4105.9,1830.2 
		4119.4,1803.3 4149.5,1803.7 4150,1773.6 4177.3,1760.9 	"/>
	<g>
		<path class="st4" d="M3477.7,1477l-5.3,41.5l-12.8,9.9l-45.9-5.9l-2.8,21.9l15.9,2l-2.1,16.8l-47.6-6.1l2.1-16.8l12.6,1.6
			l8.8-69.2l-12.6-1.6l2.1-16.8l77.5,9.9L3477.7,1477z M3458,1480.1l-38.2-4.9l-4,31.1l38.2,4.9L3458,1480.1z"/>
		<path class="st4" d="M3550.6,1508.5l2.1-16.3l-34.2-4.4l-3.2,25.5l34.6,4.4l-2.1,16.8l-34.6-4.4l-3.4,26.9l34.2,4.4l2.1-16.3
			l17.2,2.2l-4.2,33.2l-83-10.6l2.1-16.8l12.6,1.6l8.8-69.2l-12.6-1.6l2.1-16.8l83,10.6l-4.2,33.2L3550.6,1508.5z"/>
		<path class="st4" d="M3667,1576.7l-2.2,17.2l-24.6-3.1l-26.7-48.9l-5.8-0.7l-3.5,27.5l13.9,1.8l-2.2,17.2l-45.8-5.8l2.2-17.2
			l12.1,1.5l8.7-68.4l-12.1-1.5l2.2-17.2l77.6,9.9l9.9,12.8l-4.5,35.5l-12.8,9.9l-16.8-2.1l16.7,30.1L3667,1576.7z M3609.7,1525.5
			l37.4,4.8l3.2-25.2l-37.4-4.8L3609.7,1525.5z"/>
		<path class="st4" d="M3785.5,1522.3l-8.7,68.4l12.1,1.5l-2.2,17.2l-45.1-5.8l2.2-17.2l13.6,1.7l6.6-51.9l-31.7,37.9l-0.1,0
			l-21.3-44.8l-6.6,52.1l13.8,1.8l-2.2,17.2l-45.1-5.8l2.2-17.2l12.1,1.5l8.7-68.4l-12.1-1.5l2.2-17.2l31.8,4.1l20.9,45.8l31.8-39.1
			l31.6,4l-2.2,17.2L3785.5,1522.3z"/>
		<path class="st4" d="M3836.7,1528.4l-8.8,69.2l12.6,1.6l-2.1,16.8l-44.2-5.6l2.1-16.8l12.6,1.6l8.8-69.2l-12.6-1.6l2.1-16.8
			l44.2,5.6l-2.1,16.8L3836.7,1528.4z"/>
		<path class="st4" d="M3949.3,1564.1l-17-2.2l2.7-21l-20.4-2.6l-8.8,69.2l14.9,1.9l-2.1,16.8l-48.8-6.2l2.1-16.8l14.9,1.9l8.8-69.2
			l-20.4-2.6l-2.7,21l-17.2-2.2l4.8-37.8l94.1,12L3949.3,1564.1z"/>
	</g>
	<line class="st24" x1="3367.6" y1="1646.2" x2="3654.2" y2="1682.7"/>
	<path class="st25" d="M3548,1757.4c-11-1.4-22.1-2.3-33.2-3.7c-10-1.3-20-2.9-29.8-5.5c-2-0.5-3.5-1.8-3.3-4
		c0.4-3.5,1.2-6.8,1.7-10.3c0.3-2.3,0.6-4.7,0.8-7c-19.7,4.3-37.6,12-58.6,11.9c-0.7,0-1.6-0.1-2.4-0.2c-2.8-0.4-5.9-1.4-5.5-4.5
		c0-0.4,0.1-0.8,0.2-1.2c0.4-3-1.3-4.2-3.7-4.5c-4.6-0.6-12,2.1-13.2,2.5c-2,0.6-4.1,0.7-6,0.4c-4-0.5-7-2.5-6.7-4.8
		c0.7-5.2,34.3-12.7,45.5-11.3c2.5,0.3,5.8,1.2,5.8,3.5c-0.1,3.6-0.2,5.6-0.5,7.5c-0.1,0.6-0.2,1.2-0.2,1.8
		c18.7-2.1,36.7-10.6,55.4-13c0.9-0.1,3.3-0.2,5.6,0.1c2.8,0.4,5.2,1.3,5,3.4c-1.4,18.8,4.6,22.9,17.5,24.5c7,0.9,16.8,1.3,27.1,2.6
		c12,1.5,49,7.6,48.5,11.9c-0.4,3.1-10.8,6.9-15.8,6.3c-0.2,0-0.6-0.2-0.8-0.2C3570.3,1760.7,3559.2,1758.8,3548,1757.4z"/>
</g>
<g>
	
		<rect x="2579.7" y="2064.1" transform="matrix(0.1102 -0.9939 0.9939 0.1102 64.257 5161.6558)" class="st26" width="670.6" height="961.6"/>
	<polygon class="st27" points="3289.4,2758.8 3308,2735.3 3284.6,2716.5 3291.1,2687.1 3261.8,2680.4 3255,2651.1 3225.7,2657.8 
		3206.8,2634.4 3183.3,2653.1 3156.1,2640.2 3143.1,2667.3 3113,2667.4 3113,2697.5 3085.9,2710.6 3099,2737.7 3080.3,2761.3 
		3103.8,2780.1 3097.2,2809.4 3126.6,2816.1 3133.4,2845.4 3162.7,2838.8 3181.6,2862.2 3205.1,2843.5 3232.2,2856.4 3245.3,2829.3 
		3275.4,2829.2 3275.4,2799.1 3302.4,2785.9 	"/>
	<g>
		<path class="st4" d="M2557.2,2265.9l-4.5,40.1l-12.5-1.4l7.3-66.1l13.4,1.5l10.3,38.6l18.6-35.4l12.6,1.4l-7.3,66.1l-12.4-1.4
			l4.5-40.1l-15.2,28.9l-6.3-0.7L2557.2,2265.9z"/>
		<path class="st4" d="M2645.4,2249.4l13.2,1.5l-5,45.2c-1.5,13.4-11.6,20.9-24.3,19.5c-12.8-1.4-20.7-10.6-19.2-24l5-45.4l13.5,1.5
			l-5,45.5c-0.7,6.1,2.1,10,7.2,10.6c5.2,0.6,8.8-2.6,9.5-8.7L2645.4,2249.4z"/>
		<path class="st4" d="M2680.9,2277.7l-4.7,42l-12.3-1.4l7.3-66.1l13,1.4l14.7,42.5l4.5-40.3l12.2,1.4l-7.3,66.1l-12.2-1.4
			L2680.9,2277.7z"/>
		<path class="st4" d="M2729.4,2258.7l13.8,1.5l-7.3,66.1l-13.8-1.5L2729.4,2258.7z"/>
		<path class="st4" d="M2781.5,2306.8l12.9,1.4l-0.4,3.4c-1.5,13.4-11.4,20.9-23.9,19.5c-12.8-1.4-20.7-10.6-19.2-24l2.7-24.6
			c1.5-13.4,11.7-20.8,24.3-19.4c12.5,1.4,20.3,10.5,18.8,23.9l-0.3,2.7l-12.9-1.4l0.3-2.8c0.7-6-2.1-10-7.3-10.6
			c-5.1-0.6-8.7,2.7-9.4,8.7l-2.8,25c-0.7,6.1,2.1,10,7.2,10.6c5.2,0.6,8.8-2.6,9.5-8.7L2781.5,2306.8z"/>
		<path class="st4" d="M2811.8,2267.9l13.8,1.5l-7.3,66.1l-13.8-1.5L2811.8,2267.9z"/>
		<path class="st4" d="M2847.7,2316.2l-2.5,22.3l-13.3-1.5l7.3-66.1l20,2.2c13.7,1.5,21.9,11.9,20.5,24.4
			c-1.4,12.7-11.8,21-25.7,19.4L2847.7,2316.2z M2851.3,2283.8l-2.4,21.3l5.6,0.6c6.5,0.7,11.3-3.2,11.9-9.4
			c0.7-6.1-3-11.1-9.5-11.9L2851.3,2283.8z"/>
		<path class="st4" d="M2926.7,2347.5l-14-1.6l-2.3-14.5l-18.2-2l-5.4,13.6l-13.2-1.5l27.6-63.9l12.7,1.4L2926.7,2347.5z
			 M2895.7,2319.7l13.2,1.5l-4-24.5L2895.7,2319.7z"/>
		<path class="st4" d="M2941.6,2282.3l13.4,1.5l-6,53.9l21.1,2.3l-1.4,12.2l-34.5-3.8L2941.6,2282.3z"/>
		<path class="st4" d="M2985.5,2287.1l13.8,1.5l-7.3,66.1l-13.8-1.5L2985.5,2287.1z"/>
		<path class="st4" d="M3034.7,2304.8l-6,54l-13.4-1.5l6-54l-13.9-1.5l1.3-12.1l41.1,4.6l-1.3,12.1L3034.7,2304.8z"/>
		<path class="st4" d="M3069,2338.5l-14.5-43.7l14.9,1.7l8,29.4l14.4-26.9l14.2,1.6l-23.7,39.4l-2.7,24.6l-13.3-1.5L3069,2338.5z"/>
	</g>
	<g>
		<path class="st4" d="M2555.7,2380.8c9.9,1.1,15.7,7.1,14.8,14.8c-0.5,4.7-3.4,8.2-7.7,10.2c5.2,2.7,7.9,7.5,7.3,13.1
			c-0.9,7.9-8.5,13.3-18.6,12.1l-24.8-2.8l5.6-50.1L2555.7,2380.8z M2542.5,2409l-1.2,10.4l8.6,1c4.1,0.5,6.4-1.8,6.7-4.6
			s-1.4-5.4-5.5-5.8L2542.5,2409z M2550.4,2400.1c3.8,0.4,6-1.5,6.2-4c0.3-2.5-1.4-4.9-5.2-5.3l-6.8-0.8l-1,9.3L2550.4,2400.1z"/>
		<path class="st4" d="M2627.4,2388.7l-3.2,29.1c-1.5,13.1-11.5,20.7-24.8,19.2c-13.3-1.5-21.1-10.6-19.6-23.7l3.3-29.6l13.8,1.5
			l-3.2,29c-0.6,5.8,2.4,9.7,7.6,10.3c5.2,0.6,9-2.6,9.6-8.4l3.2-29L2627.4,2388.7z"/>
		<path class="st4" d="M2657.1,2411.6c6.3,3.6,13.1,8.9,12.1,17.4c-1,8.7-9.3,14.8-20.6,13.5c-12.9-1.4-19-10.1-19-10.1l8.8-7.7
			c0,0,5,6.1,11.9,6.9c2.5,0.3,4.4-0.8,4.6-2.7c0.3-2.3-1.6-4.3-9.6-8.9c-6.1-3.5-10.6-8.5-9.7-16.1c1-8.7,8.9-14.1,19.8-12.9
			c11.2,1.2,16.9,8.8,16.9,8.8l-8.8,7.7c0,0-3.6-4.9-9.2-5.5c-2.8-0.3-4.4,0.9-4.6,2.4C2649.6,2406.7,2650.9,2408.1,2657.1,2411.6z"
			/>
		<path class="st4" d="M2683.5,2394.9l14,1.5l-5.6,50.1l-14-1.5L2683.5,2394.9z"/>
		<path class="st4" d="M2721,2419.7l-3.3,29.7l-13.2-1.5l5.6-50.1l14,1.5l16.1,30.8l3.2-28.7l13.2,1.5l-5.6,50.1l-13.2-1.5
			L2721,2419.7z"/>
		<path class="st4" d="M2763.1,2454.5l5.6-50.1l37.9,4.2l-1.3,11.8l-24.3-2.7l-0.8,7.2l20.8,2.3l-1.2,11.1l-20.8-2.3l-0.9,8.2
			l25,2.8l-1.3,11.8L2763.1,2454.5z"/>
		<path class="st4" d="M2835.7,2431.4c6.3,3.6,13.1,8.9,12.1,17.4c-1,8.7-9.3,14.8-20.6,13.5c-12.9-1.4-19-10.1-19-10.1l8.8-7.7
			c0,0,5,6.1,11.9,6.9c2.5,0.3,4.4-0.8,4.6-2.7c0.3-2.3-1.6-4.3-9.6-8.9c-6.1-3.5-10.6-8.5-9.7-16.1c1-8.7,8.9-14.1,19.8-12.9
			c11.2,1.2,16.9,8.8,16.9,8.8l-8.8,7.7c0,0-3.6-4.9-9.2-5.5c-2.8-0.3-4.4,0.9-4.6,2.4C2828.2,2426.5,2829.5,2427.9,2835.7,2431.4z"
			/>
		<path class="st4" d="M2879.3,2436.3c6.3,3.6,13.1,8.9,12.1,17.4c-1,8.7-9.3,14.8-20.6,13.5c-12.9-1.4-19-10.1-19-10.1l8.8-7.7
			c0,0,5,6.1,11.9,6.9c2.5,0.3,4.4-0.8,4.6-2.7c0.3-2.3-1.6-4.3-9.6-8.9c-6.1-3.5-10.6-8.5-9.7-16.1c1-8.7,8.9-14.1,19.8-12.9
			c11.2,1.2,16.9,8.8,16.9,8.8l-8.8,7.7c0,0-3.6-4.9-9.2-5.5c-2.8-0.3-4.4,0.9-4.6,2.4C2871.8,2431.3,2873.1,2432.8,2879.3,2436.3z"
			/>
	</g>
	<g>
		<path class="st4" d="M2513.7,2546.6l11.1-100.2l21.9,2.4l-9,80.7l48.9,5.4l-2.2,19.5L2513.7,2546.6z"/>
		<path class="st4" d="M2610,2455.8l22.5,2.5l-11.1,100.2l-22.5-2.5L2610,2455.8z"/>
		<path class="st4" d="M2704.2,2464.8c26.5,2.9,36.7,20.4,36.7,20.4l-17.6,12.2c0,0-6.2-10.8-21.6-12.5c-17.7-2-32.3,10.2-34.2,27.9
			c-2,17.9,9.5,32.9,27.3,34.9c16.3,1.8,25.5-8.9,25.5-8.9l13.9,15.5c0,0-14.4,16.5-42.1,13.4c-29.9-3.3-49.8-28-46.6-56.9
			C2648.7,2482,2674.3,2461.5,2704.2,2464.8z"/>
		<path class="st4" d="M2747.3,2572.5l11.1-100.2l73.7,8.2l-2.1,19l-51.8-5.7l-2.3,20.8l44.7,5l-2,17.7l-44.7-5l-2.6,23.8l53.2,5.9
			l-2.1,18.9L2747.3,2572.5z"/>
		<path class="st4" d="M2869.1,2517.6l-7.5,67.6l-21.3-2.4l11.1-100.2l22.6,2.5l38.9,71l7.3-65.8l21.3,2.4l-11.1,100.2l-21.3-2.4
			L2869.1,2517.6z"/>
		<path class="st4" d="M3022.4,2574c-1.9,16.7-17.6,28.5-39.5,26c-25-2.8-36.5-19.3-36.5-19.3l14.4-12.5c0,0,9.8,12.4,25.2,14.1
			c7.6,0.8,13.2-2.9,13.8-8.5c0.7-6.4-3.6-11.6-20.7-20.7c-13.3-7-22.3-17-20.7-31.4c1.8-16.3,16.9-27,37.9-24.6
			c21.8,2.4,32.5,16.6,32.5,16.6l-14.4,12.5c0,0-7.3-9.9-19.8-11.3c-8.6-1-13.2,3.2-13.7,7.6c-0.7,5.9,3,9.9,16.4,16.9
			C3011.6,2547,3024.2,2557.7,3022.4,2574z"/>
		<path class="st4" d="M3037.1,2604.6l11.1-100.2l73.7,8.2l-2.1,19l-51.8-5.7l-2.3,20.8l44.7,5l-2,17.7l-44.7-5l-2.6,23.8l53.2,5.9
			l-2.1,18.9L3037.1,2604.6z"/>
	</g>
	<line class="st28" x1="2506.1" y1="2628.1" x2="2891.3" y2="2675.6"/>
	<line class="st28" x1="2500" y1="2680.6" x2="2837.4" y2="2722.5"/>
	<path class="st29" d="M2836.3,2790.8c-55.7-6.5-111.5-3.1-167.3-9.6c-7.6-0.9-24-1.7-23.5-6.1c0.1-0.6,0.4-1.4,0.5-2
		c0.3-3-2.4-4.5-6.9-5c-16.2-1.9-55,8.3-59.7,9.2c-9.9,2-19.3,3.8-29.2,2.5c-1.7-0.2-6-1.3-5.7-3.6c0-0.2,0.2-0.5,0.3-0.8
		c2.7-4.4,5-9,7.3-13.7c-16.5,7.5-35.2,15.1-51.1,13.2c-6.2-0.7-11.2-1.7-10.5-7.4c0.2-1.6,1.1-2.2,3.2-5.5
		c2.1-3.3,9.9-4.4,15.1-3.8c2.9,0.3,4.9,1.2,4.8,2.6c0,0.2-0.2,0.5-0.3,0.8c0,0.1,0,0.1,0.1,0.1c2.1,0.3,39.3-12,48.4-15.7
		c1.3-0.5,7.4-1.7,11.6-1.2c2.4,0.3,4.2,1.2,4,3c0,0.4-0.1,0.7-0.2,1.1c-2.7,6.2-4,10.6-4.4,13.7c-0.5,4.1,0.8,5.6,3.5,6
		c5,0.6,14.7-3.5,25.9-6.2c12.2-2.9,24.3-5.6,36.7-7.2c4.4-0.6,9.4-1,14.2-0.4c5.5,0.6,10.6,2.6,13.9,6.9c5.7,7.4,16,10.8,28.4,12.3
		c24.3,2.8,56.3-2,76.9-0.6c18.4,1.4,36.8,2.8,55,5c25.9,3,51.5,7.3,76.9,14.2c2.3,0.6,3.2,1.5,3.1,2.4c-0.3,3-10.8,6.7-15.6,6.2
		c-0.2,0-0.5-0.2-0.7-0.2C2872.8,2796.2,2854.6,2793,2836.3,2790.8z"/>
</g>
<g>
	<defs>
		<path id="SVGID_7_" d="M570.9,2251.5H442.3C199,2251.5,0,2052.4,0,1809.2v-861C0,705,199,506,442.3,506h128.7
			c243.2,0,442.3,199,442.3,442.3v861C1013.2,2052.4,814.2,2251.5,570.9,2251.5z"/>
	</defs>
	<clipPath id="SVGID_8_">
		<use xlink:href="#SVGID_7_"  style="overflow:visible;"/>
	</clipPath>
	<g class="st30">
		<path class="st19" d="M570.9,2251.5H442.3C199,2251.5,0,2052.4,0,1809.2V1440c0-243.2,199-442.3,442.3-442.3h128.7
			c243.2,0,442.3,199,442.3,442.3v369.2C1013.2,2052.4,814.2,2251.5,570.9,2251.5z"/>
		<g>
			<g>
				<path class="st0" d="M492.1,877.9c0,87.1-71.9,157.7-160.6,157.7c-28.9,0-56-7.5-79.5-20.6c-48.4-27.2-81.1-78.4-81.1-137.1
					c0-87.1,71.9-157.7,160.6-157.7S492.1,790.8,492.1,877.9z"/>
				<path class="st0" d="M842.3,884.3c0,87.1-71.9,157.7-160.6,157.7c-28.9,0-56-7.5-79.5-20.6c-48.4-27.2-81.1-78.4-81.1-137.1
					c0-87.1,71.9-157.7,160.6-157.7S842.3,797.2,842.3,884.3z"/>
			</g>
			
				<ellipse transform="matrix(0.4749 -0.88 0.88 0.4749 -387.8698 919.6299)" class="st0" cx="576.7" cy="784.9" rx="116" ry="117.8"/>
			
				<ellipse transform="matrix(0.4749 -0.88 0.88 0.4749 -470.318 775.0773)" class="st0" cx="414.4" cy="781.7" rx="116" ry="117.8"/>
			
				<ellipse transform="matrix(0.4749 -0.88 0.88 0.4749 -552.3872 930.4138)" class="st0" cx="503.5" cy="928.1" rx="116" ry="117.8"/>
			<ellipse class="st31" cx="506.6" cy="1084" rx="100" ry="65.1"/>
			<path class="st32" d="M717.1,1455.6c20.2-63,29.5-238.4-20.2-317.2c-49.7-78.8-119-94-190.3-94s-140.6,15.2-190.3,94
				c-49.7,78.8-40.4,254.2-20.2,317.2"/>
			<path class="st33" d="M349.9,1455.6c3.3,37.8,1.5,79.4-24,81.6c-25.5,2.2-65.1-35.7-68.2-73.5c-4.2-50.9,14.6-70.3,40.1-72.6
				C323.2,1388.9,346.6,1417.8,349.9,1455.6z"/>
			<path class="st32" d="M317.2,1447.3c-18.1-3.5-29.9-27.8-35.1-66.5c-3.1-37,3.2-122.5,69.2-141.3
				C417.3,1220.7,317.2,1447.3,317.2,1447.3z"/>
			<path class="st31" d="M617.8,1538.2c91.3,44.4,46.9,212.3,113.5,259.2c-24.7,19.7-148.1-17.3-180.2-86.4
				C519.1,1641.9,617.8,1538.2,617.8,1538.2z"/>
			<path class="st33" d="M664.1,1455.6c-3.3,37.8-1.5,79.4,24,81.6c25.5,2.2,65.1-35.7,68.2-73.5c4.2-50.9-14.6-70.3-40.1-72.6
				C690.7,1388.9,667.4,1417.8,664.1,1455.6z"/>
			<path class="st25" d="M554.3,1757.3c48.4-1.2,82.7-4.2,82.7-7.7c0-4.6-58.3-8.3-130.3-8.3s-130.3,3.7-130.3,8.3
				c0,3.5,34.3,6.5,82.7,7.7l1.1,0c25.6-0.1,46.7,26,46.5,67.6h0c-0.1-41.6,20.9-67.6,46.5-67.6L554.3,1757.3z"/>
			<rect x="403.1" y="1632.1" class="st33" width="207" height="218.2"/>
			<path class="st34" d="M403.1,1632.1v50.1c34.6,49.5,101.1,89.3,207,91.8v-141.9H403.1z"/>
			<path class="st0" d="M880.6,1902.7c-28.6-22.6-171.7-76.1-229.8-79.2H362.4c-58.1,3.1-201.2,56.6-229.8,79.2
				c-28.6,22.6-41,45.1-41,86.8l0,289.4c54.4,40.8,335.9,64.6,415,65.4c79-0.7,360.5-24.6,415-65.4l0-289.4
				C921.6,1947.8,909.2,1925.3,880.6,1902.7z"/>
			<g>
				<circle class="st4" cx="395.9" cy="2027.7" r="18.6"/>
				<circle class="st4" cx="617.3" cy="2027.7" r="18.6"/>
			</g>
			<g>
				<circle class="st4" cx="395.9" cy="2174.5" r="18.6"/>
				<circle class="st4" cx="617.3" cy="2174.5" r="18.6"/>
			</g>
			<g>
				<ellipse class="st4" cx="395.9" cy="2315.9" rx="18.6" ry="13.2"/>
				<ellipse class="st4" cx="617.3" cy="2315.9" rx="18.6" ry="13.2"/>
			</g>
			<g>
				<path class="st4" d="M636.9,1749.5C636.9,1749.6,636.9,1749.6,636.9,1749.5C637,1749.6,637,1749.6,636.9,1749.5L636.9,1749.5z"
					/>
				<path class="st4" d="M637,1749.6c-0.6,3.5-34.7,6.4-82.7,7.6h-1.1c-25.6-0.1-46.7,26-46.5,67.6h0c0.1-41.6-20.9-67.6-46.5-67.6
					l-1.1,0c-48.4-1.2-82.7-4.2-82.7-7.7c-15.9,20-24.9,64.5-24.3,85.9c31.5,19.6,127.8,24.8,154.6,24.1
					c26.8,0.7,123.1-4.5,154.6-24.1C661.8,1814.1,652.8,1769.7,637,1749.6z"/>
			</g>
			<path class="st35" d="M506.6,1735.1L506.6,1735.1c57.7-0.6,169.3-79.6,192.5-256.6c4.7-35.8,11.2-93.8,11-126.7
				c-0.6-101.4-91.1-186.6-203.5-186.6h-0.1c-112.4,0-202.9,85.2-203.5,186.6c-0.2,32.9,6.3,90.9,11,126.7
				C337.3,1655.5,450.3,1736.8,506.6,1735.1L506.6,1735.1z"/>
			<g>
				<line class="st36" x1="641.4" y1="1356.4" x2="578.8" y2="1346"/>
				<line class="st36" x1="369.8" y1="1356.4" x2="432.4" y2="1346"/>
			</g>
			<line class="st37" x1="490.5" y1="1620.5" x2="522.7" y2="1620.5"/>
			<line class="st38" x1="464.9" y1="1611.1" x2="548.4" y2="1611.1"/>
			<g>
				<path class="st39" d="M611.2,1418.3c0,13.5-11,24.5-24.6,24.6c-13.6,0.1-24.6-10.7-24.6-24.2s11-24.5,24.6-24.6
					C600.2,1394,611.2,1404.8,611.2,1418.3z"/>
				<path class="st39" d="M451.3,1418.3c0,13.5-11,24.5-24.6,24.6c-13.6,0.1-24.6-10.7-24.6-24.2s11-24.5,24.6-24.6
					C440.3,1394,451.3,1404.8,451.3,1418.3z"/>
			</g>
			<path class="st40" d="M506.7,1556.1c24.7,0,40.4-23.1,37.3-32.1c-3.1-9.2-14.2,10.1-37.4,10.9c-23.1-0.7-34.3-20-37.4-10.9
				C466.2,1533,481.9,1556.1,506.7,1556.1L506.7,1556.1z"/>
			<path class="st32" d="M506.6,1152.9c-87.7,0-180.1,43-178.1,172.1c48.3-13.9,110.4-22.3,178.1-22.3s129.7,8.4,178.1,22.3
				C686.7,1196,594.3,1152.9,506.6,1152.9z"/>
			<g>
				<path class="st32" d="M303.2,1365.8c-0.9-44.4,20.8-84.9,49.4-95.4l3.8-68.7l-61.1,59.1l-3.8,98.3L303.2,1365.8z"/>
				<path class="st32" d="M710.1,1365.8c0.9-44.4-20.8-84.9-49.4-95.4l-3.8-68.7l61.1,59.1l3.8,98.3L710.1,1365.8z"/>
			</g>
			<g>
				<ellipse class="st0" cx="721.8" cy="1518.3" rx="20.5" ry="21"/>
				<ellipse class="st0" cx="291.5" cy="1518.3" rx="20.5" ry="21"/>
			</g>
			<path class="st41" d="M504.1,1844.7v100.5c39.2-0.3,129.5,2,215.7,34.8c-0.7,89.7-11.7,283.3-21.7,376.7"/>
			<path class="st42" d="M489.8,978.4c0-26.5,3.8-111.8,3.8-111.8c3.8,49.3,24.6,113.7,24.6,113.7L489.8,978.4z"/>
			<path class="st42" d="M577.3,986c17-15.2,36.4-102.3,36.4-102.3c0,32.2-12.1,108-12.1,108L577.3,986z"/>
			<path class="st42" d="M662.1,1008.8c12.8-14.8,45.2-68,45.2-68c-9.3,44.5-26,87.5-26,87.5L662.1,1008.8z"/>
			<path class="st42" d="M423.5,995.4c-22.7-32.2-58.7-109.9-58.7-109.9c0,32.2,26.5,117.5,26.5,117.5L423.5,995.4z"/>
			<path class="st42" d="M333.6,998.1c-16-16.3-46.5-56.5-46.5-56.5c1.2,24.6,26.4,72.7,26.4,72.7L333.6,998.1z"/>
			<path class="st0" d="M506.6,967.8c-42.4,0-175.2,16.2-225.1,37.7l0,251.3c0,0,75.8-46.3,225.1-46.3
				c149.3,0,225.1,46.3,225.1,46.3l0-251.3C681.8,984,549,967.8,506.6,967.8z"/>
		</g>
	</g>
</g>
<polygon class="st0" points="1370.2,2377.6 1443.4,2167 1163.9,2187.8 "/>
</svg>
