<?xml version="1.0" encoding="utf-8"?>
<!-- Generator: Adobe Illustrator 22.0.1, SVG Export Plug-In . SVG Version: 6.00 Build 0)  -->
<svg version="1.1" id="Layer_1" xmlns="http://www.w3.org/2000/svg" xmlns:xlink="http://www.w3.org/1999/xlink" x="0px" y="0px"
	 viewBox="0 0 2008.8 2008.8" style="enable-background:new 0 0 2008.8 2008.8;" xml:space="preserve">
<style type="text/css">
	.st0{fill:#9ECAD9;}
	.st1{fill:#D7EAE8;}
	.st2{clip-path:url(#SVGID_2_);}
	.st3{fill:#E1F4F2;}
	.st4{clip-path:url(#SVGID_4_);}
	.st5{fill:#4E7A89;}
	.st6{fill:#54291C;}
	.st7{fill:#693629;}
	.st8{fill:#F49D73;}
	.st9{fill:#7E88A7;}
	.st10{fill:#EA9369;}
	.st11{fill:#384261;}
	.st12{fill:#E6E6E6;}
	.st13{fill:#F9B086;}
	.st14{fill:none;stroke:#422B27;stroke-width:14.175;stroke-linecap:round;stroke-miterlimit:10;}
	.st15{fill:none;stroke:#F38486;stroke-width:17.3502;stroke-linecap:round;stroke-miterlimit:10;}
	.st16{fill:none;stroke:#E1775A;stroke-width:9.9225;stroke-linecap:round;stroke-miterlimit:10;}
	.st17{fill:#422B27;}
	.st18{fill:#F49369;}
	.st19{fill:#FFFFFF;}
	.st20{font-family:'UniformCondensed-Bold';}
	.st21{font-size:107.9999px;}
	.st22{font-family:'UniformCondensed-Black';}
	.st23{font-size:80.9999px;}
	.st24{letter-spacing:6;}
	.st25{fill:none;stroke:#384261;stroke-width:23.76;stroke-miterlimit:10;}
</style>
<circle class="st0" cx="1004.4" cy="1004.4" r="1004.4"/>
<g>
	<path class="st1" d="M1916.7,1564.3L196.4,1706.5c-53.3,4.4-100.5-35.6-104.9-88.9L3.2,549.3c-4.4-53.3,35.6-100.5,88.9-104.9
		l1720.3-142.2c53.3-4.4,100.5,35.6,104.9,88.9l88.3,1068.3C2010,1512.7,1970,1559.9,1916.7,1564.3z"/>
	<g>
		<defs>
			<path id="SVGID_1_" d="M1916.7,1564.3L196.4,1706.5c-53.3,4.4-100.5-35.6-104.9-88.9L3.2,549.3c-4.4-53.3,35.6-100.5,88.9-104.9
				l1720.3-142.2c53.3-4.4,100.5,35.6,104.9,88.9l88.3,1068.3C2010,1512.7,1970,1559.9,1916.7,1564.3z"/>
		</defs>
		<clipPath id="SVGID_2_">
			<use xlink:href="#SVGID_1_"  style="overflow:visible;"/>
		</clipPath>
		<g class="st2">
			<path class="st3" d="M318,1704.3c-19.8-21.8-58.5-52.1-116.5-44.3l-0.6-7.6c28-16.8,93-39.8,163,48.2L318,1704.3L318,1704.3z"/>
			<path class="st3" d="M259.2,1538.9c0,0,77.3,63.5,124.1,101.1c25,20.1,46.8,39.8,61.8,53.9l109.1-9
				C475.9,1644.2,305.7,1556.7,259.2,1538.9L259.2,1538.9z"/>
			<path class="st3" d="M298.5,1459.2c0,0,92.9,14.2,116.9,66.8c24,52.6,46,81.4,75.5,94.2c22,9.6,61,33.6,75.4,63.6l986.4-81.5
				c6.7-17.7,20.2-41.1,47.5-60.7c51.5-37,54.3-56.9,68.7-93c14.5-36.1,10-64.1,102.4-108.9c0,0-66.9-16.3-117.7,55.6
				c-50.8,71.9-25.2,65.4-77.2,95.9c-52.1,30.5-76.1,56.5-76.1,56.5l171.3-304.6l-237.8,266.4c0,0,4.4-52.8,39.3-79.7
				c34.9-26.9,32.7-79.1,34.9-105.5c2.2-26.4,17.4-80.1,80.1-113.6c0,0-98.3-0.6-109.2,105.1c0,0-9.3,46.6-41.3,82
				c-32,35.4-48.6,45.5-60.1,66.1l87-321.6l-164.5,308.4c0,0-15-49,14.7-86.4c29.7-37.4,17.4-106.2,13.1-132.1
				c-4.3-25.8,11.3-75.2,49.2-117.6c0,0-81.9,39.5-79.4,96.1c2.5,56.6-5.1,96.5-24.5,126.5c-19.4,30-41.8,49.3-45.2,86.7l15.2-344.1
				l-91,352.5c0,0-21.8-52.8-3.4-93.6c18.5-40.8-3.5-95.8-17.3-129.6c-13.7-33.8-3.2-91.5,17.8-128.1c0,0-75.6,36.8-46.7,148
				c28.9,111.2-33.3,125-27.4,170.4l-61.2-318.1l-12.9,319.9c0,0-2-23.9-26.2-52.4c-24.2-28.6-26-76.5-24.3-135.6
				c1.7-59.1-38.8-99.4-70.4-112.1c0,0,48.8,61.5,37.7,112.6c-11.1,51.1-8.2,112,5.3,143.7c13.5,31.6,6.8,82.4,6.8,82.4
				l-139.8-318.2l66.1,324.3c0,0-25.6-45.9-48.4-57.1c-22.8-11.2-47.5-72.5-48.9-116.1c-1.4-43.5-62.5-95.3-93.2-97.1
				c0,0,56.3,47.8,62.4,121.5c6.1,73.7,16.4,92.5,40.4,118.9c24,26.4,19.3,74.8,19.3,74.8l-212.9-277.2L723,1522.4
				c0,0-34.1-43-63.2-51.6c-29.1-8.5-52.2-50.3-69-94.7c-16.8-44.5-71.9-77-117.6-75.4c0,0,65.6,27.3,86.1,91.1
				c20.6,63.8,33.2,84.6,63.7,110.5c30.5,25.9,43,70.7,43,70.7l-268.9-215.8l211.8,264.2c0,0-42.6-40.2-77.3-37.3
				c-34.7,2.9-73-37.6-91.4-75.4C421.7,1470.9,358,1439,298.5,1459.2L298.5,1459.2z"/>
			<polygon class="st3" points="1574.1,1600.5 1829.2,1406.9 1676.1,1592.1 1574.1,1600.5 			"/>
			<path class="st3" d="M1754.2,1585.6c15.2-29.2,63-102.7,148.7-79.1l0.4,4.5c-21.5,5.1-77.6,22.6-99.4,70.5L1754.2,1585.6
				L1754.2,1585.6z"/>
		</g>
	</g>
	<g>
		<defs>
			<path id="SVGID_3_" d="M790.8,1497.8l-561.9,46.4c-14.9,1.2-28.1-10-29.4-24.9L146,870.9c-1.2-14.9,10-28.1,24.9-29.4L732.7,795
				c14.9-1.2,28.1,10,29.4,24.9l53.6,648.5C816.9,1483.3,805.7,1496.5,790.8,1497.8z"/>
		</defs>
		<clipPath id="SVGID_4_">
			<use xlink:href="#SVGID_3_"  style="overflow:visible;"/>
		</clipPath>
		<g class="st4">
			<path class="st5" d="M790.8,1497.8l-561.9,46.4c-14.9,1.2-28.1-10-29.4-24.9L146,870.9c-1.2-14.9,10-28.1,24.9-29.4L732.7,795
				c14.9-1.2,28.1,10,29.4,24.9l53.6,648.5C816.9,1483.3,805.7,1496.5,790.8,1497.8z"/>
			
				<ellipse transform="matrix(0.9966 -8.238488e-02 8.238488e-02 0.9966 -72.3615 40.8086)" class="st6" cx="458.3" cy="897.2" rx="61.5" ry="40.1"/>
			<path class="st7" d="M606.2,1114.5c9.2-39.6,6-147.7-28.5-193.5s-77.7-51.6-121.5-48c-43.7,3.6-85.4,16.4-111.9,67.3
				c-26.5,50.9-11.9,158,3.7,195.5"/>
			<path class="st8" d="M381,1133.1c4,23,4.9,48.6-10.6,51.3c-15.5,2.7-41.7-18.6-45.6-41.6c-5.1-31,5.4-43.9,20.9-46.5
				C361.3,1093.5,377.1,1110.1,381,1133.1z"/>
			<path class="st7" d="M360.6,1129.6c-11.3-1.2-19.7-15.5-24.9-39c-3.8-22.5-4.3-75.3,35.3-90.2S360.6,1129.6,360.6,1129.6z"/>
			<path class="st6" d="M549.6,1170.1c58.3,22.6,39.5,127.8,82.8,153.2c-14.1,13.4-91.7-3.1-114.9-43.8S549.6,1170.1,549.6,1170.1z"
				/>
			<path class="st8" d="M573.7,1117.2c-0.1,23.4,3.1,48.8,18.9,48.9c15.7,0.1,38.1-25.2,38.1-48.6c0-31.5-12.5-42.4-28.3-42.5
				S573.8,1093.8,573.7,1117.2z"/>
			<path class="st9" d="M571,1286.9c1.3,15.1-33.5,30.7-77.6,34.3c-44.1,3.6-80.6-4.5-82.2-21.1c-0.3-2.8,35.4-8,79.5-11.7
				C534.8,1284.8,570.8,1284.1,571,1286.9z"/>
			
				<rect x="428" y="1233.2" transform="matrix(0.9966 -8.238488e-02 8.238488e-02 0.9966 -105.4543 44.9258)" class="st8" width="127.4" height="134.3"/>
			<path class="st10" d="M422.7,1238.6l2.5,30.7c23.8,28.6,66.5,49.7,131.6,45.8l-7.2-87L422.7,1238.6z"/>
			<path class="st11" d="M383.8,1375.6"/>
			<path class="st0" d="M727,1353.4c-18.7-12.4-109.2-37.9-145-36.9l-176.8,14.6c-35.5,4.8-120.5,44.9-136.9,60.2
				c-16.4,15.3-22.9,29.8-20.7,55.3l14.7,177.5c35.5,22.2,209.3,22.6,257.8,19.1c48.4-4.5,219.9-33.4,251.2-61.1l-14.7-177.5
				C754.4,1379,745.6,1365.8,727,1353.4z"/>
			<polygon class="st12" points="518.1,1435.8 487.8,1438.3 477.5,1314.2 492.6,1311.4 507.9,1311.7 			"/>
			<g>
				<circle class="st11" cx="495.4" cy="1344.5" r="9.1"/>
			</g>
			<g>
				<circle class="st11" cx="499.8" cy="1397.3" r="9.1"/>
			</g>
			<path class="st13" d="M491.4,1296.5L491.4,1296.5c35.3-3.3,99.8-57.4,105-167.1c1.1-22.2,2.1-58.1,0.3-78.2
				C591.2,989,531.4,941.3,462.5,947l0,0c-68.9,5.7-120.1,62.5-115.3,124.7c1.6,20.2,8.5,55.4,13.2,77.1
				C383.5,1256.3,456.9,1300.4,491.4,1296.5L491.4,1296.5z"/>
			<g>
				<line class="st14" x1="554.8" y1="1057.5" x2="515.9" y2="1054.3"/>
				<line class="st14" x1="388.2" y1="1071.2" x2="426.1" y2="1061.7"/>
			</g>
			<line class="st15" x1="475.7" y1="1227.1" x2="495.4" y2="1225.5"/>
			<line class="st16" x1="459.5" y1="1222.6" x2="510.7" y2="1218.4"/>
			<g>
				<path class="st17" d="M539.4,1097c0.7,8.3-5.5,15.6-13.9,16.3c-8.3,0.8-15.6-5.3-16.3-13.6c-0.7-8.3,5.5-15.6,13.9-16.3
					C531.4,1082.6,538.7,1088.7,539.4,1097z"/>
				<path class="st17" d="M441.4,1105.1c0.7,8.3-5.5,15.6-13.9,16.3s-15.6-5.3-16.3-13.6c-0.7-8.3,5.5-15.6,13.9-16.3
					S440.7,1096.8,441.4,1105.1z"/>
			</g>
			<path class="st18" d="M482.3,1186.8c15.2-1.3,23.6-16.2,21.3-21.6c-2.4-5.5-8.2,6.9-22.4,8.6c-14.2,0.7-22-10.6-23.5-4.8
				C456.3,1174.6,467.1,1188,482.3,1186.8L482.3,1186.8z"/>
			<path class="st7" d="M461.8,939.5c-53.8,4.4-108.3,35.5-100.5,114.6c28.9-11,66.6-19.3,108.1-22.7c41.5-3.4,80-1.4,110.3,4.7
				C574.5,956.8,515.6,935.1,461.8,939.5z"/>
			<g>
				<path class="st7" d="M347.8,1080.4c-2.8-27.2,8.4-53.1,25.5-61l-1.1-42.3l-34.4,39.4l2.6,60.5L347.8,1080.4z"/>
				<path class="st7" d="M597.4,1059.8c-1.7-27.3-17-51-35.1-56l-5.8-41.9l40.4,33.2l7.3,60.1L597.4,1059.8z"/>
			</g>
			<g>
				
					<ellipse transform="matrix(0.9966 -8.238488e-02 8.238488e-02 0.9966 -92.8831 54.3642)" class="st19" cx="612.3" cy="1152.7" rx="12.6" ry="12.9"/>
				
					<ellipse transform="matrix(0.9966 -8.238488e-02 8.238488e-02 0.9966 -95.5776 32.696)" class="st19" cx="348.4" cy="1174.5" rx="12.6" ry="12.9"/>
			</g>
			<path class="st11" d="M411.2,1300.2c-10.1,12.1-16.2,34-16.2,34c4.5,10.6,52,23.8,52,23.8l45.5-46.5
				C466.4,1313.5,412.3,1307.9,411.2,1300.2z"/>
			<path class="st11" d="M571,1286.9c11.9,10.3,21.5,30.9,21.5,30.9c-2.7,11.2-47.4,32-47.4,32l-52.5-38.4
				C518.7,1309.2,571.1,1294.7,571,1286.9z"/>
		</g>
	</g>
	<g>
		<path class="st5" d="M161.8,628.4c14.4-1.2,24.3,6.1,25.3,17.3c0.6,7.2-2.9,13.6-9.1,17.5c8.7,2.2,14.6,8.7,15.3,17.4
			c1,11.7-8.5,21.7-23.3,23l-35.7,3l-6.2-75.3L161.8,628.4z M160.8,659.3c6.9-0.6,10.4-5,10-9.8c-0.4-4.9-4.6-8.7-11.5-8.1
			l-13.8,1.1l1.5,18L160.8,659.3z M149.7,692.5l16.3-1.3c7.4-0.6,11.3-5.6,10.9-11.2c-0.5-5.5-5.1-9.7-12.6-9l-16.3,1.3L149.7,692.5
			z"/>
		<path class="st5" d="M206.1,644.7l13.9-1.1l1.8,10.7c3.1-8,10-12.7,19.7-13.5l1.1,15.9l-3.2,0.3c-10.2,0.8-15.9,6.6-14.9,19.1
			l1.9,22.9l-15.6,1.3L206.1,644.7z"/>
		<path class="st5" d="M272,623.7c0.5,5.6-3.4,10-9.1,10.5c-5.7,0.5-10.1-3.3-10.6-8.9c-0.5-5.5,3.3-9.9,9-10.4
			C267,614.5,271.5,618.2,272,623.7z M255.5,640.6l15.8-1.3l4.6,55.5l-15.8,1.3L255.5,640.6z"/>
		<path class="st5" d="M310.6,636l17.2-1.4l1,12.5l-17.2,1.4l1.9,22.5c0.4,5,2.9,7.1,7.2,6.8c4.4-0.4,8.7-1.9,8.7-1.9l2.9,12.8
			c0,0-5.7,3.1-14.4,3.8c-11.1,0.9-18.7-4.6-19.6-16.1l-2.2-26.5l-10.2,0.8l-1-12.5l10.2-0.8l-1.1-13.3l15.6-1.3L310.6,636z"/>
		<path class="st5" d="M358.8,616.5c0.5,5.6-3.4,10-9.1,10.5c-5.7,0.5-10.1-3.3-10.6-8.9c-0.5-5.5,3.3-9.9,9-10.4
			C353.8,607.3,358.4,611,358.8,616.5z M342.3,633.4l15.8-1.3l4.6,55.5l-15.8,1.3L342.3,633.4z"/>
		<path class="st5" d="M419.4,666.3c0.8,10.1-6.5,18.2-20.8,19.4c-14.2,1.2-23.5-6.2-23.5-6.2l5.9-10.5c0,0,7.7,5.9,16.6,5.1
			c4.5-0.4,6.8-2.7,6.6-5.3c-0.2-2.8-2-4.9-12.5-7.3c-10.3-2.3-16-7.8-16.7-15.4c-0.7-8.6,6.1-17.1,19.9-18.2
			c12.4-1,21.3,5.3,21.3,5.3l-5.8,10.7c0,0-6.5-5.1-14-4.5c-4.4,0.4-6.4,2.7-6.2,4.7c0.2,2.4,1.9,4.4,10.8,6.4
			C412.2,652.9,418.8,658.6,419.4,666.3z"/>
		<path class="st5" d="M429.1,606.3l15.6-1.3l2.3,27.5c3.4-6.1,9.4-9.7,16.5-10.2c11.6-1,21.7,6.3,22.9,21.1l2.8,33.8l-15.6,1.3
			l-2.4-28.8c-0.8-9.4-5.8-13.1-12-12.6c-6.3,0.5-11.4,5-10.6,14.2l2.4,29.1l-15.6,1.3L429.1,606.3z"/>
		<path class="st5" d="M571.8,593.4c19.9-1.6,30,9.8,30,9.8l-11.2,11.5c0,0-6.1-7.1-17.7-6.1c-13.3,1.1-22.3,12.1-21.2,25.5
			c1.1,13.5,11.7,22.9,25.1,21.8c12.3-1,17.5-10.2,17.5-10.2l12.5,9.4c0,0-8.3,14.2-29,15.9c-22.5,1.9-40.7-13.4-42.5-35.2
			C533.4,614,549.3,595.3,571.8,593.4z"/>
		<path class="st5" d="M674.2,633.6c1.3,16.3-10.7,30.3-27.9,31.7c-17.2,1.4-30.8-9.9-32.2-26.2c-1.3-16.3,10.7-30.1,27.9-31.6
			C659.2,606.1,672.8,617.3,674.2,633.6z M658.6,635.2c-0.7-8.2-7.3-14-15.7-13.3c-8.3,0.7-13.9,7.5-13.2,15.7
			c0.7,8.2,7.3,14,15.6,13.3C653.7,650.2,659.3,643.4,658.6,635.2z"/>
		<path class="st5" d="M685.3,585.1l15.8-1.3l6.2,75.3l-15.8,1.3L685.3,585.1z"/>
		<path class="st5" d="M758.2,599l15.6-1.3l4.6,55.5l-13.9,1.1l-1.5-8.4c-3.4,6.6-9.8,10.4-17.5,11.1c-11.8,1-21.5-6.3-22.8-21.1
			l-2.8-33.8l15.6-1.3l2.4,28.8c0.8,9.4,5.7,13.1,11.9,12.6c6.6-0.5,11.5-5.1,10.7-15L758.2,599z"/>
		<path class="st5" d="M791,596.3l13.9-1.1l1.3,8.3c3.4-6.6,9.5-10.3,17-10.9c8.1-0.7,15.3,2.7,19.3,10.1
			c2.9-7.8,9.7-12.5,17.9-13.2c11.5-1,21.1,6.4,22.3,20.9l2.8,34l-15.6,1.3l-2.4-28.9c-0.8-9.4-5.6-13-11.4-12.5
			c-5.9,0.5-10.9,4.7-10.1,13.7l2.4,29.5l-15.6,1.3l-2.4-28.9c-0.8-9.4-5.6-13-11.4-12.5c-5.9,0.5-10.9,4.7-10.1,13.7l2.4,29.5
			l-15.6,1.3L791,596.3z"/>
		<path class="st5" d="M896,567.7l15.6-1.3l2.2,26.7c3.7-5.3,9.4-8.8,16.5-9.4c14.6-1.2,27.9,10,29.3,26.3
			c1.3,16.3-10.1,30.2-25,31.4c-7.6,0.6-14.2-2.2-18.7-7.3l-0.5,7.8l-13,1.1L896,567.7z M943.9,611.6c-0.7-8.2-7.3-14-15.7-13.3
			c-8.3,0.7-13.9,7.5-13.2,15.7c0.7,8.2,7.3,14,15.6,13.3C939,626.6,944.6,619.8,943.9,611.6z"/>
		<path class="st5" d="M988.8,564.5c0.5,5.6-3.4,10-9.1,10.5c-5.7,0.5-10.1-3.3-10.6-8.9c-0.5-5.5,3.3-9.9,9-10.4
			C983.8,555.2,988.3,559,988.8,564.5z M972.3,581.3l15.8-1.3l4.6,55.5l-15.8,1.3L972.3,581.3z"/>
		<path class="st5" d="M1041.4,602l-0.2-2.4c-0.6-7.7-6.3-11.5-13.7-10.9c-8.4,0.7-13.4,5.4-13.4,5.4l-7.2-9.5c0,0,7.7-8,22.6-9.2
			c15.5-1.3,25.9,7.2,27.3,23.1l2.6,31.4l-12.2,1l-1.6-4.6c-3.7,4-9.4,6.6-16.5,7.2c-13.3,1.1-21.9-5.3-22.7-15.1
			c-0.8-9.8,7.1-18.1,20.4-19.2C1032.7,598.7,1037.7,599.9,1041.4,602z M1043,614.8c-0.3-4.2-4.6-7.2-11.3-6.7
			c-6.3,0.5-10.1,4.2-9.7,8.4c0.4,4.3,4.6,7.2,11,6.7C1039.6,622.7,1043.4,619.1,1043,614.8z"/>
	</g>
	<g>
		<path class="st5" d="M1613.8,507.3c19.9-1.6,30,9.8,30,9.8l-11.2,11.5c0,0-6.1-7.1-17.7-6.1c-13.3,1.1-22.3,12.1-21.2,25.5
			c1.1,13.5,11.7,22.9,25.1,21.8c12.3-1,17.5-10.2,17.5-10.2l12.5,9.4c0,0-8.3,14.2-29,15.9c-22.5,1.9-40.7-13.4-42.5-35.2
			C1575.4,527.9,1591.3,509.1,1613.8,507.3z"/>
		<path class="st5" d="M1734.2,574.2l-18.1,1.5l-7.3-15.3l-30.1,2.5l-4.7,16.3l-17.2,1.4l24.3-77.9l16.4-1.4L1734.2,574.2z
			 M1682.1,549.5l21-1.7l-12.7-26.8L1682.1,549.5z"/>
		<path class="st5" d="M1758.9,521.1l4.2,50.8l-16,1.3l-6.2-75.3l17-1.4l38.9,46.6l-4.1-49.5l16-1.3l6.2,75.3l-16,1.3L1758.9,521.1z
			"/>
	</g>
	<g>
		<path class="st5" d="M144.1,521.6c16.1-1.3,27.5,7.2,28.8,23.9l1.9,22.6c1.4,16.8-8.8,27.5-24.9,28.8l-24.5,2l-6.2-75.3
			L144.1,521.6z M139.3,538.8l3.5,42l5.4-0.4c5.5-0.5,8.3-3.9,7.8-10.4l-1.9-22.6c-0.5-6.5-3.9-9.4-9.4-9L139.3,538.8z"/>
		<path class="st5" d="M180.5,518.6l25.7-2.1c15.1-1.2,26.2,8.1,27.4,22.5c0.7,8.5-2.6,15.8-8.6,20.5l14.4,30l-21,1.7l-10.2-25.2
			l-4.8,0.4l2.1,25.8l-18.8,1.6L180.5,518.6z M202.2,552l4.4-0.4c5.5-0.5,8.7-4.7,8.3-10.2c-0.5-5.5-4.1-9.1-9.6-8.6l-4.6,0.4
			L202.2,552z"/>
		<path class="st5" d="M240.2,513.7l19.4-1.6l6.2,75.3l-19.4,1.6L240.2,513.7z"/>
		<path class="st5" d="M265,511.6l20.4-1.7l14.7,44.5l7.3-46.3l19.4-1.6L311,583.7l-17.8,1.5L265,511.6z"/>
		<path class="st5" d="M337.9,581.4l-6.2-75.3l42.5-3.5l1.4,16.7l-23.7,2l1,12.4l19.4-1.6l1.3,15.6l-19.4,1.6l1.2,14l24.2-2
			l1.4,16.7L337.9,581.4z"/>
		<path class="st5" d="M382.3,501.9l25.7-2.1c15.1-1.2,26.2,8.1,27.4,22.5c0.7,8.5-2.6,15.8-8.6,20.5l14.4,30l-21,1.7l-10.2-25.2
			l-4.8,0.4l2.1,25.8l-18.8,1.6L382.3,501.9z M404,535.4l4.4-0.4c5.5-0.5,8.7-4.7,8.3-10.2c-0.5-5.5-4.1-9.1-9.6-8.6l-4.6,0.4
			L404,535.4z"/>
		<path class="st5" d="M460.2,539.2c-9.3-4.8-17-11.5-17.9-22c-1-12.6,9-22,21.6-23c19.8-1.6,25.3,15,25.3,15l-14.7,7.4
			c0,0-2.9-7.3-8.9-6.8c-2.6,0.2-4.8,2.1-4.6,5c0.3,4.1,3.8,6.4,10.9,10c9.6,4.9,18.6,11.2,19.5,22.7c1.2,14.2-9.1,23.2-22.7,24.3
			c-20.2,1.7-27-17.1-27-17.1l14.7-7.4c0,0,4.5,9.4,10.9,8.8c3.6-0.3,5.6-2.6,5.4-6C472.5,545.5,468.2,543.2,460.2,539.2z"/>
		<path class="st5" d="M523.3,490.3l18.8-1.6l4.8,58.1L569,545l1.4,17.2l-40.9,3.4L523.3,490.3z"/>
		<path class="st5" d="M571.2,486.3l19.4-1.6l6.2,75.3l-19.4,1.6L571.2,486.3z"/>
		<path class="st5" d="M623.9,534c0.4,5.2,3.5,7.8,7.7,7.5c4.2-0.3,6.8-3.5,6.3-8.7l-0.4-4.8l18.3-1.5l0.3,4.1
			c1.3,15.5-8.9,26.4-23.4,27.6c-14.9,1.2-26.4-7.5-27.7-23l-2.2-26.9c-1.3-15.5,9.1-26.4,23.9-27.7c14.5-1.2,25.9,7.5,27.1,23
			l0.3,3.4l-18.3,1.5l-0.3-3.8c-0.4-5.2-3.5-7.8-7.7-7.5c-4.2,0.3-6.8,3.5-6.3,8.7L623.9,534z"/>
		<path class="st5" d="M667.8,554.2l-6.2-75.3l42.5-3.5l1.4,16.7l-23.7,2l1,12.4l19.4-1.6l1.3,15.6l-19.4,1.6l1.2,14l24.2-2
			l1.4,16.7L667.8,554.2z"/>
		<path class="st5" d="M732.2,507.2l3.4,41.3l-17.2,1.4l-6.2-75.3l18.3-1.5l20.4,37.5l-3.2-39l17.2-1.4l6.2,75.3l-17.2,1.4
			L732.2,507.2z"/>
		<path class="st5" d="M794.4,511.5c-9.3-4.8-17-11.5-17.9-22c-1-12.6,9-22,21.6-23c19.8-1.6,25.3,15,25.3,15l-14.7,7.4
			c0,0-2.9-7.3-8.9-6.8c-2.6,0.2-4.8,2.1-4.6,5c0.3,4.1,3.8,6.4,10.9,10c9.6,4.9,18.6,11.2,19.5,22.7c1.2,14.2-9.1,23.2-22.7,24.3
			c-20.2,1.7-27-17.1-27-17.1l14.7-7.4c0,0,4.5,9.4,10.9,8.8c3.6-0.3,5.6-2.6,5.4-6C806.7,517.9,802.4,515.5,794.4,511.5z"/>
		<path class="st5" d="M835.9,540.3l-6.2-75.3l42.5-3.5l1.4,16.7l-23.7,2l1,12.4l19.4-1.6l1.3,15.6l-19.4,1.6l1.2,14l24.2-2
			l1.4,16.7L835.9,540.3z"/>
		<path class="st5" d="M971.3,529.1l-19.6,1.6l-4.6-13.2l-18.1,1.5l-2.2,13.7l-18.5,1.5l16.4-77.2l17.8-1.5L971.3,529.1z M935.1,482
			l-3.8,22.7l11.2-0.9L935.1,482z"/>
		<path class="st5" d="M990,485.9l3.4,41.3l-17.2,1.4l-6.2-75.3l18.3-1.5l20.4,37.5l-3.2-39l17.2-1.4l6.2,75.3l-17.2,1.4L990,485.9z
			"/>
		<path class="st5" d="M1058.4,446c16.1-1.3,27.5,7.2,28.8,23.9l1.9,22.6c1.4,16.8-8.8,27.5-24.9,28.8l-24.5,2l-6.2-75.3L1058.4,446
			z M1053.7,463.2l3.5,42l5.4-0.4c5.5-0.5,8.3-3.9,7.8-10.4l-1.9-22.6c-0.5-6.5-3.9-9.4-9.4-9L1053.7,463.2z"/>
		<path class="st5" d="M1141.3,482.9c-9.3-4.8-17-11.5-17.9-22c-1-12.6,9-22,21.6-23c19.8-1.6,25.3,15,25.3,15l-14.7,7.4
			c0,0-2.9-7.3-8.9-6.8c-2.6,0.2-4.8,2.1-4.6,5c0.3,4.1,3.8,6.4,10.9,10c9.6,4.9,18.6,11.2,19.5,22.7c1.2,14.2-9.1,23.2-22.7,24.3
			c-20.2,1.7-27-17.1-27-17.1l14.7-7.4c0,0,4.5,9.4,10.9,8.8c3.6-0.3,5.6-2.6,5.4-6C1153.6,489.2,1149.2,486.9,1141.3,482.9z"/>
		<path class="st5" d="M1182.8,511.6l-6.2-75.3l42.5-3.5l1.4,16.7l-23.7,2l1,12.4l19.4-1.6l1.3,15.6l-19.4,1.6l1.2,14l24.2-2
			l1.4,16.7L1182.8,511.6z"/>
		<path class="st5" d="M1227.2,432.1l25.7-2.1c15.1-1.2,26.2,8.1,27.4,22.5c0.7,8.5-2.6,15.8-8.6,20.5l14.4,30l-21,1.7l-10.2-25.2
			l-4.8,0.4l2.1,25.8l-18.8,1.6L1227.2,432.1z M1248.9,465.5l4.4-0.4c5.5-0.5,8.7-4.7,8.3-10.2c-0.5-5.5-4.1-9.1-9.6-8.6l-4.6,0.4
			L1248.9,465.5z"/>
		<path class="st5" d="M1279.4,427.8l20.4-1.7l14.7,44.5l7.3-46.3l19.4-1.6l-15.8,77.2l-17.8,1.5L1279.4,427.8z"/>
		<path class="st5" d="M1346.7,422.2l19.4-1.6l6.2,75.3l-19.4,1.6L1346.7,422.2z"/>
		<path class="st5" d="M1399.4,469.9c0.4,5.2,3.5,7.8,7.7,7.5c4.2-0.3,6.8-3.5,6.3-8.7l-0.4-4.8l18.3-1.5l0.3,4.1
			c1.3,15.5-8.9,26.4-23.4,27.6c-14.9,1.2-26.4-7.5-27.7-23l-2.2-26.9c-1.3-15.5,9.1-26.4,23.9-27.7c14.5-1.2,25.9,7.5,27.1,23
			l0.3,3.4l-18.3,1.5l-0.3-3.8c-0.4-5.2-3.5-7.8-7.7-7.5c-4.2,0.3-6.8,3.5-6.3,8.7L1399.4,469.9z"/>
		<path class="st5" d="M1443.3,490.1l-6.2-75.3l42.5-3.5l1.4,16.7l-23.7,2l1,12.4l19.4-1.6l1.3,15.6l-19.4,1.6l1.2,14l24.2-2
			l1.4,16.7L1443.3,490.1z"/>
		<path class="st5" d="M1506.4,452.7c-9.3-4.8-17-11.5-17.9-22c-1-12.6,9-22,21.6-23c19.8-1.6,25.3,15,25.3,15l-14.7,7.4
			c0,0-2.9-7.3-8.9-6.8c-2.6,0.2-4.8,2.1-4.6,5c0.3,4.1,3.8,6.4,10.9,10c9.6,4.9,18.6,11.2,19.5,22.7c1.2,14.2-9.1,23.2-22.7,24.3
			c-20.2,1.7-27-17.1-27-17.1l14.7-7.4c0,0,4.5,9.4,10.9,8.8c3.6-0.3,5.6-2.6,5.4-6C1518.6,459,1514.3,456.7,1506.4,452.7z"/>
		<path class="st5" d="M1591.5,454c0.4,5.2,3.5,7.8,7.7,7.5c4.2-0.3,6.8-3.5,6.3-8.7l-0.4-4.8l18.3-1.5l0.3,4.1
			c1.3,15.5-8.9,26.4-23.4,27.6c-14.9,1.2-26.4-7.5-27.7-23l-2.2-26.9c-1.3-15.5,9.1-26.4,23.9-27.7c14.5-1.2,25.9,7.5,27.1,23
			l0.3,3.4l-18.3,1.5l-0.3-3.8c-0.4-5.2-3.5-7.8-7.7-7.5c-4.2,0.3-6.8,3.5-6.3,8.7L1591.5,454z"/>
		<path class="st5" d="M1690.3,469.7l-19.6,1.6l-4.6-13.2l-18.1,1.5l-2.2,13.7l-18.5,1.5l16.4-77.2l17.8-1.5L1690.3,469.7z
			 M1654.1,422.6l-3.8,22.7l11.2-0.9L1654.1,422.6z"/>
		<path class="st5" d="M1688.9,393.9l25.7-2.1c15.1-1.2,26.2,8.1,27.4,22.5c0.7,8.5-2.6,15.8-8.6,20.5l14.4,30l-21,1.7l-10.2-25.2
			l-4.8,0.4l2.1,25.8l-18.8,1.6L1688.9,393.9z M1710.7,427.3l4.4-0.4c5.5-0.5,8.7-4.7,8.3-10.2c-0.5-5.5-4.1-9.1-9.6-8.6l-4.6,0.4
			L1710.7,427.3z"/>
		<path class="st5" d="M1773.1,387c16.1-1.3,27.5,7.2,28.8,23.9l1.9,22.6c1.4,16.8-8.8,27.5-24.9,28.8l-24.5,2l-6.2-75.3L1773.1,387
			z M1768.3,404.2l3.5,42l5.4-0.4c5.5-0.5,8.3-3.9,7.8-10.4l-1.9-22.6c-0.5-6.5-3.9-9.4-9.4-9L1768.3,404.2z"/>
	</g>
	<g>
		<path class="st11" d="M350.2,1623.7c0.2,2-0.5,4.3-1.1,5.7c-2.8,5.5-11.3,12.5-17.7,10.4c-4.6-1.4-8.7-8.5-9.6-14.2
			c-0.5-1.7-0.7-3.6-1.1-5.5c-0.2-1-0.3-9.4-0.8-15.6c-0.3-3.7-0.8-6.7-1.4-6.7c-2.8-0.1-5.8,5.5-5.9,19.7c0,1.4,0.3,3.3,0.5,6.2
			c0.3,3.1,0.5,7.2,0.1,12.7c-0.2,2.5-2.6,4.8-5.5,4.2c-2.5-0.7-3.9-3.8-4.2-6c-0.3-2-1.1-5.4-1.6-11.7c-0.2-3-0.5-6.6-0.5-10.8
			c0-1.7-0.2-3.4-0.3-4.8c-0.4-4.3-1-7.8-1.4-8.5c-1-1.5-1.9-1-2.6,0.1c-6.4,10.1-5.1,21-4.9,29.2c0,1.7,0.6,4.3,0.8,6.7
			c0.1,1.6,0,3.2-0.5,4.4c-1.3,2.4-5.1,3.3-7.2,1.6c-1.9-1.5-1.8-4.8-2-7.1c-0.4-4.7-1.3-20.5-2.2-31.7c-0.2-2.8-0.6-5.3-0.7-7.3
			c-0.3-0.2-0.4-0.6-0.7-0.7c-2.2-1.9-4.1,1.7-6.3,2.3c-2.3,0.4-5.2-1.2-6-3.6c-0.8-2.4-0.1-5.2,2.3-6.4c3-1.4,4.6-1.5,6.4-4.5
			c1.1-2,2.3-5.3,4.1-6.7c1.7-1.1,5.4-1.6,6.9,0.2c0.7,0.3,1.2,0.8,1.6,1.4c0.8,1.2,1.1,2.4,1.2,3.6c0.1,1.2,0.1,2.6,0.2,4l0,1.1
			c-0.2,0.6-0.2,3.1,0.2,3.7c0.9,1.7,1.6-0.1,2.3-1.1c1.5-2.5,3-5.4,4.2-8.1c1.1-2.1,2-5.8,4.2-7.1c2.1-1.3,5,0.7,6.4,2.5
			c1,1.2,1.3,2.6,1.5,4.1c0.1,1.2,0.1,2.5,0,3.6c0,1.2-0.4,7,2.2,5.6c1.8-1,3-5.5,3.6-7.2c1-2.9,1.6-5.7,3.9-8.1
			c0.8-0.8,2-1.3,3.3-1.4c1.4-0.1,3,0.2,4.1,0.9c2.2,1.4,2.5,4,2.5,6.5c0,2.7-0.7,5.3-0.6,8.1c0.1,2.9,0.7,5.7,1,8.5
			c0.2,2.8,1.9,21.9,2.7,24.6c0.5,1.8,1.4,3.6,1.6,5.6c0.3,0.5,0.4,0.8,0.7,1.3c1.9,3.6,4.5,0,6.6-2.2c2-1.9,4.6-5.9,7.9-4.9
			C349.4,1620.9,350,1622.2,350.2,1623.7z"/>
		<path class="st11" d="M393.3,1622.3c-0.5,1.7-1.6,3.4-2.6,5.1c-1.1,2-2.9,3.1-4.5,4.7c-2.6,2.7-5.6,5.1-9.4,5.5
			c-1,0.2-1.9,0.2-2.7,0c-1.4-0.1-2.7-0.9-3.8-1.8c-0.9-0.9-1.7-2-2.3-3.3c-0.7-1.1-1.5-1.5-3.4-0.5c-3.4,1.6-8.5,5.7-13.3,6.1
			c-2.5,0.2-4.9-0.6-7-3.2c-2.2-2.7-3.4-6.2-3.7-9.9c-0.3-3.3,0.1-6.6,0.8-9.4c1.8-7.1,5.4-13.4,10.2-18.7c2.2-2.5,7.7-5.4,10.9-5.3
			c2.2,0.1,3.8,0.7,6,0.5c1.1-0.1,2.2-0.3,3.8-0.9c1.8-0.6,5.6,1.3,5.2,5.3c-0.4,3-1.1,6.3-1.7,9.2c-0.3,2.4-0.2,5.6-0.3,8.7
			c0.2,0.5,0.3,2.1,0.3,2.5c0.3,2.1-0.4,10.5,4.4,6.9c3.2-2.3,4.3-7.2,7.6-9c1.6-0.8,3.9,0.9,4.8,2.2
			C393.9,1618.8,393.6,1620.4,393.3,1622.3z M365.2,1610.1c-0.1-1.5-0.5-2.8-1-4c-2.3-4.9-9,2.2-10.4,4.5c-2,3.3-3,8.5-1.7,12.6
			c0.5,1.7,1.6,2.4,2.8,2.3c2.6-0.2,6.1-3.6,7.4-5.2c0.2-0.3,0.4-0.7,0.7-0.9l0.8-1.1C365,1616.1,365.5,1612.9,365.2,1610.1z"/>
		<path class="st11" d="M423.9,1629.6c-3,2.7-8.6,5.5-12.7,4.7c-7.7-1.5-9.8-8.4-10.4-15.6c-0.3-3.3-0.2-6.8-0.3-9.7
			c-0.1-1.1-0.2-2.5-1.6-2.2c-1.1,0.1-1.5,1.9-1.8,2.6c-0.8,2.6-1.3,5.1-2,7.6c-0.9,3.9-2.7,11.6-8.1,9.5c-1.9-0.8-2.7-2-2.8-3.5
			c-0.2-2.6,1.5-5.7,2.1-8.1c0.6-3.2,1.2-6.8,0.9-10.2c-0.1-1.5-0.4-3-1-4.4c-0.8-2.1-1.9-4.3-1-6.6c0.8-2.2,2.5-3.8,4.9-3.9
			c4.9,0.1,6.8,6.5,11.7,6.8c2.2,0.1,5-1.3,7-0.7c2,0.6,3.5,3.2,3.3,5.1c-0.2,2.4-2,4.7-2.4,7.1c-0.5,2.4-0.3,4.9-0.1,7.5l0,1
			c0,1.2,0.4,3.2,0.6,4.1c0.8,2.2,2.2,2.9,3.7,2.8c2.1-0.2,4.4-2,6-3.7c1.5-1.6,2.4-3.7,4.6-4.6c2.2-0.8,3.9,0.4,4.5,2.6
			C430,1621.8,426.9,1626.9,423.9,1629.6z"/>
		<path class="st11" d="M468.4,1620.7c-1.7,3-5,6-8.4,8.2c-1.4,1.6-2,3.4-2.2,4.8l0,0.1c0.8,3.9,0.8,11-1,16.2
			c-0.4,1.2-1,2.5-1.9,3.7l0,0.1c-0.2,0.1-0.3,0.4-0.6,0.5c-0.8,1.1-1.8,1.9-2.9,2.5c-1.8,1.1-3.9,1.6-5.8,0.5
			c-4.1-2.4-7.1-6.3-8.3-11c-1.2-4.9,0.5-10.9,2.6-15.3c0-0.1,0.1-0.4,0.2-0.5c0-1.1-0.3-1.8-2.1-1c-1.4,1.4-3,2.4-4.9,2.5
			c-1.5,0.1-3-0.2-4.9-1.5c-4.1-2.9-5.3-8.8-5.8-14.1c-0.2-2.2-0.2-4.5-0.3-6.3c-0.1-6-1.4-18.9,5-22.3c3.3-1.8,7.5,0.6,7.1,4.5
			c-0.4,4.1-2.2,7.7-2.1,11.9l-0.1,1.6c0.1,4.5-0.3,8.9,0.6,10.3c2,3.2,6.2-2.9,7.4-5.1c3.7-7,2.9-14.7,4-22.1
			c0.2-1.1,0.7-2.2,1.4-3.1c0,0,0,0,0-0.1c0.6-0.7,1.4-1.4,2.1-1.7c1.1-0.5,2.3-0.7,3.3-0.3c1.3,0.5,2,1.8,2.5,3.2
			c0.9,1.8,1,4,0.8,6c0.5,5.6,0.7,13.5,1,17l0,0.4c-0.2,1.1,0.4,3.2,0.5,4.4c0.1,0.7,0.3,1.6,0.3,2.3c0.7,0.7,1.8,0.7,2.8,0.5
			c1.4-1.1,2.7-2.2,3.5-2.9c2-1.9,5-4.8,7.2-1.3C471.1,1615.4,469.6,1618.6,468.4,1620.7z M448.2,1635c-2.6,2.1-2.8,6.7-2.4,9.7
			c0.4,3.5,2.2,1.3,2.9-0.7c0.5-1.7,0.8-3.6,0.8-5.3l0-1.5C449.5,1636.3,449.2,1635.3,448.2,1635z"/>
		<path class="st11" d="M529,1584.9c0.2,2.4,0.3,4.8,0.1,7.3c-0.2,4.9,0.2,9.6-0.6,14.4c-0.6,3.7-1.8,8.4-4.2,11.4
			c-2.9,3.7-7.1,7.3-11.6,7.7c-1.6,0.1-3.4-0.2-5.1-1.1c-6.7-3.6-10.5-9.1-12.7-16.4c-1.2-4.3-2-9.1-2.6-13.5
			c-0.6-3.9-0.4-6.6-0.4-10.8l-0.1-2.5c-0.4-5.2,1.3-11.3,3.3-16.2c2.4-5.7,7.2-10.6,13.6-10.5c3,0,6.3,0.4,8.8,2.1
			c3.3,2.3,4.6,5.7,6.3,9.3C526.8,1572.7,528.5,1578.5,529,1584.9z M518.8,1581.8c-0.4-4.7-3.1-14.8-9-15.1
			c-7.1-0.2-7.2,12.2-7.4,17.1c-0.1,3.4-0.2,6.9,0.1,10.3c0.4,4.3,1.2,8.7,3,12.7c1.2,2.5,2.9,6.1,5.7,7c3.1,1.1,4.7-1.4,5.8-4
			c2-4.3,2.4-8.7,2.5-13.4c-0.1-2.1-0.6-4.2-0.5-6.4c0-1.7-0.2-4.3-0.3-6.3L518.8,1581.8z"/>
		<path class="st11" d="M565,1605c0.3,3.5-2.2,8.3-3.9,10.3c-3.6,4.3-8.2,7.4-13.7,6.4c-7.7-1.4-9.6-11.5-11.1-17.9
			c-0.9-3.9-1.5-8.1-1.9-12.4c-0.3-3.6-0.4-7.3-0.5-10.7c-0.2-6.8-0.6-15.2,2.1-21.5c1.3-2.7,2.9-5.1,6-3.7c2.7,1.3,3.3,4.1,2.9,6.9
			c-0.5,3.4-1.4,6.7-1.9,10.1c-0.4,4.1,0.3,8.3-0.1,12.5l0.2,1c-0.1,1.3,0,2.7,0.1,4.1c0.3,4.1,1.3,8.5,2,12.2
			c0.5,3.1,1.7,9.8,6.9,7.5c3.7-1.7,5.9-10.2,10.5-8.1C564.2,1602.2,564.8,1603.5,565,1605z"/>
		<path class="st11" d="M584.7,1610.4c-2.6,4.6-8.2,8.9-13.1,10.3c-3.2,1-6.7,1.3-9.6-1.1c-2.3-2.1-2.9-3.5-4.1-6.1
			c-1.2-2.6-1.7-5.6-2-8.7c-0.3-3.6-0.2-7.2-0.3-10.6c0-4.5-0.1-16.4,6.9-15.5c3.3,0.5,3.9,3.9,3.5,6.6c-0.3,2.9-0.5,7.1-0.8,10
			l0,0.5c0.1,1.6,0,4.4,0.2,7.1c0.2,2.4,0.6,4.6,1.9,6c2.6,2.9,9-2.6,11.1-4.5c2-1.8,4.9-4.6,7.2-1.3
			C587.4,1605,585.9,1608.3,584.7,1610.4z M558.4,1567.7c0.2-1.6,1.2-3.1,2.7-3.8c0.9-0.6,2.9-0.7,4-0.2l0.5,0.3
			c0.2-0.1,1.5,2,1.8,2.5c0.6,1.2,0.8,2.5,0.6,3.7c-0.5,2.4-2.9,4.5-5.4,4.3C559,1574.1,557.9,1570.7,558.4,1567.7z"/>
		<path class="st11" d="M619.2,1579.2c0,3.2-2.9,4-6,4.2c-1.2,0.3-3.3,1.1-4.5,3.2c-0.1,0.5-0.2,1-0.2,1.5
			c-0.8,4.4-1.3,7.8-2.4,12.2c-0.9,4.2-2.5,8.1-3.5,12c-0.5,2.7-1.8,3.8-4.6,4.7c-6,2.2-9.8-1.1-12.8-5.8c-4.1-6.3-6-13.8-8.1-20.8
			c-0.7-2.2-2.1-5.4-2.3-8.4c-0.2-2.4,0.4-4.4,2.5-5.8c5.6-3.5,8.7,2.2,8.8,6.6l0.1,1.7c0.6,1.2,1,2.9,1.4,4.4
			c0.5,1.7,3.6,15.3,6.1,13.7c1.3-0.9,2.6-6.7,3.2-8.1c1.2-2.3,1-4.1,1.7-6.6c0.6-2.3,0.9-4.7,1-7.1c0.1-2.2-0.3-5.3,1-7.4
			c0.5-0.9,1.5-1.5,2.6-1.8c0.4-0.3,0.8-0.4,1.2-0.6c2.4-0.7,3.9,0.4,5,1.6C611.3,1575.6,619,1571.4,619.2,1579.2z"/>
		<path class="st11" d="M661.8,1594.8c0.2,2.6-1.1,6-2,7.8c-1.3,2.6-3.1,4.5-5.3,6.2c-3.4,2.5-6.2,3.9-10.2,5.3
			c-1.8,0.6-3.8,1.1-5.9,1.2c-1.9,0.2-3.9,0.1-5.6,0.1c-2.9-0.1-6.5-0.1-9-1.7c-4.6-3.2-7.7-9.8-8.6-15.2c-0.5-3.2,0.3-6.8,1.2-9.9
			c0.7-3.1,1.7-5.6,3.2-8.4c1.9-3.1,4.7-5,7.6-7c2.8-1.9,5.4-2.8,8.9-2.5c4.4,0.5,9.4,3.8,10.7,8.5c1.3,5.3-2.1,9.1-3.7,13.8
			l-0.7,1.1c-1.2,2-2.5,3.2-2.8,5.7c-0.2,2.4,1.4,3.4,3.5,2.7c2.2-0.6,3.4-1.2,5.4-2.4c4.1-2.7,5.7-9.3,10.1-8.6
			C660.8,1591.6,661.7,1593,661.8,1594.8z M636.9,1583.4c-0.1-1.5-1-2.7-3-2.9c-2.5-0.2-4.9,2.6-6.4,4.3c-1.7,1.9-2.3,4.4-2.4,6.9
			c-0.1,2-0.3,5.1,2.2,5.2c2.1,0.1,3.4-2,5.1-3.4l0.8-0.9C634.6,1590.9,637.2,1586.3,636.9,1583.4z"/>
		<path class="st11" d="M682.6,1602.3c-2.6,4.6-8.2,8.9-13.1,10.3c-3.2,1-6.7,1.3-9.6-1.1c-2.3-2.1-2.9-3.5-4.1-6.1
			c-1.2-2.6-1.7-5.6-2-8.7c-0.3-3.6-0.2-7.2-0.3-10.6c0-4.5-0.1-16.4,6.9-15.5c3.3,0.5,3.9,3.9,3.5,6.6c-0.3,2.9-0.5,7.1-0.8,10
			l0,0.5c0.1,1.6,0,4.4,0.2,7.1c0.2,2.4,0.6,4.6,1.9,6c2.6,2.9,9-2.6,11.1-4.5c2-1.8,4.9-4.6,7.2-1.3
			C685.3,1596.9,683.8,1600.2,682.6,1602.3z M656.3,1559.6c0.2-1.6,1.2-3.1,2.7-3.8c0.9-0.6,2.9-0.7,4-0.2l0.5,0.3
			c0.2-0.1,1.5,2,1.8,2.5c0.6,1.2,0.8,2.5,0.6,3.7c-0.5,2.4-2.9,4.5-5.4,4.3C656.9,1566,655.8,1562.6,656.3,1559.6z"/>
		<path class="st11" d="M714.4,1605.6c-3,2.7-8.6,5.5-12.7,4.7c-7.7-1.5-9.8-8.4-10.4-15.6c-0.3-3.3-0.2-6.8-0.3-9.7
			c-0.1-1.1-0.2-2.5-1.6-2.2c-1.1,0.1-1.5,1.9-1.8,2.6c-0.8,2.6-1.3,5.1-2,7.6c-0.9,3.9-2.7,11.6-8.1,9.5c-1.9-0.8-2.7-2-2.8-3.5
			c-0.2-2.6,1.5-5.7,2.1-8.1c0.6-3.2,1.2-6.8,0.9-10.2c-0.1-1.5-0.4-3-1-4.4c-0.8-2.1-1.9-4.3-1-6.6c0.8-2.2,2.5-3.8,4.9-3.9
			c4.9,0.1,6.8,6.5,11.7,6.8c2.2,0.1,5-1.3,7-0.7c2,0.6,3.5,3.2,3.3,5.1c-0.2,2.4-2,4.7-2.4,7.1c-0.5,2.4-0.3,4.9-0.1,7.5l0,1
			c0,1.2,0.4,3.2,0.6,4.1c0.8,2.2,2.2,2.9,3.7,2.8c2.1-0.2,4.4-2,6-3.7c1.5-1.6,2.4-3.7,4.6-4.6c2.2-0.8,3.9,0.4,4.5,2.6
			C720.5,1597.8,717.4,1602.9,714.4,1605.6z"/>
		<path class="st11" d="M764.1,1591.7c-0.5,1.7-1.6,3.4-2.6,5.1c-1.1,2-2.9,3.1-4.5,4.7c-2.6,2.7-5.6,5.1-9.4,5.5
			c-1,0.2-1.9,0.2-2.7,0c-1.4-0.1-2.7-0.9-3.8-1.8c-0.9-0.9-1.7-2-2.3-3.3c-0.7-1.1-1.5-1.5-3.4-0.5c-3.4,1.6-8.5,5.7-13.3,6.1
			c-2.5,0.2-4.9-0.6-7-3.2c-2.2-2.7-3.4-6.2-3.7-9.9c-0.3-3.3,0.1-6.6,0.8-9.4c1.8-7.1,5.4-13.4,10.2-18.7c2.2-2.5,7.7-5.4,10.9-5.3
			c2.2,0.1,3.8,0.7,6,0.5c1.1-0.1,2.2-0.3,3.8-0.9c1.8-0.6,5.6,1.3,5.2,5.3c-0.4,3-1.1,6.3-1.7,9.2c-0.3,2.4-0.2,5.6-0.3,8.7
			c0.2,0.5,0.3,2.1,0.3,2.5c0.3,2.1-0.4,10.5,4.4,6.9c3.2-2.3,4.3-7.2,7.6-9c1.6-0.8,3.9,0.9,4.8,2.2
			C764.7,1588.1,764.5,1589.8,764.1,1591.7z M736.1,1579.4c-0.1-1.5-0.5-2.8-1-4c-2.3-4.9-9,2.2-10.4,4.5c-2,3.3-3,8.5-1.7,12.6
			c0.5,1.7,1.6,2.4,2.8,2.3c2.6-0.2,6.1-3.6,7.4-5.2c0.2-0.3,0.4-0.7,0.7-0.9l0.8-1.1C735.8,1585.4,736.3,1582.3,736.1,1579.4z"/>
	</g>
	<text transform="matrix(0.9966 -8.238007e-02 8.238007e-02 0.9966 1288.8452 835.002)" class="st11 st20 st21">DL 35023944</text>
	<text transform="matrix(0.9966 -8.238007e-02 8.238007e-02 0.9966 139.7462 817.5194)" class="st11 st22 st23 st24">OLIVEIRA, MARY</text>
	<g>
		<line class="st25" x1="855.2" y1="965.4" x2="1397.7" y2="920.6"/>
		<line class="st25" x1="860.1" y1="1024.7" x2="1348.7" y2="984.3"/>
		<line class="st25" x1="865" y1="1083.9" x2="1272.8" y2="1050.2"/>
		<line class="st25" x1="876.1" y1="1218.6" x2="1418.6" y2="1173.7"/>
		<line class="st25" x1="881" y1="1277.8" x2="1369.6" y2="1237.4"/>
		<line class="st25" x1="885.9" y1="1337.1" x2="1428.4" y2="1292.2"/>
		<line class="st25" x1="890.8" y1="1396.3" x2="1244.8" y2="1367"/>
	</g>
	<g>
		<g>
			<path class="st5" d="M1798.3,960.3c0.2-1.6-1.7-3.4-2-3.4c-0.4,0-1.3,3.6-3.6,6c-0.4,0.4-0.9,0.8-1.6,1.2
				c-0.7-0.7-1.5-1.3-2.2-1.8c0,0-3.1-1.5-5.1-2.2c-2.9-0.8-14.6-1.1-15.2,12.8c0,0.4,0,1.9,0,1.9l-0.3,0.2c-4.3,2.1-6,6.2-7,8
				c-2.3,4.4-13,7.8-8.9,12.4c1.8,2,4.1,2.3,5.1,1.7c1.7-0.8,3.9,0,5.5-0.1c1.6-0.3,4.8-1.6,4.8-1.6c3.1-0.6,1.6,1.6,0,2.3
				c-13,5.5-16.2,12.3-17.6,18.5l-0.4,0c-2.7-0.5-13,0.7-13,0.7c-1.6,0.1-3,0.4-3.6,1.2c-0.6,0.9-0.6,1.5-0.3,2.9
				c0.3,1.4,3.4,11.4,3.7,12.8c1.4,6.3,2.4,13.8,2.1,17c0,1.6-0.3,2.5,1,1.7c4.9-3.4,4.9-4.5,5.9-6.2c1.2-2.1-1.3-2.7,1.2-6.3
				c1-1.3-1.6-2-2.7-2.8c-0.9-0.5,0.3-0.2-1.7-3.2c-1-1.5-1.9-7.6-1.9-8.2c0.2-1.6,1.8-3.5,3.3-3.3c1.5,0.4,8.5,5.9,8.5,6
				c2.4,9.6,9.9,12,14.7,13.5c-0.7,0.6-1.4,1.4-2.3,2.1c-8.4,7.4-7.7,9.3-4.9,13.3c2,3,4.7,5.6,1.6,8.2c-3.3,2.4-9.2,6.4-13.4,7.7
				c-2.6,0.9-4.4,4.3-5.1,6.4c-0.8,2.7-1.9,6.9-3.8,9.7c-0.3,0.6,5.4-0.6,7.1-1.7c1.9-1,2.7-1.3,3.1-3.8c0.5-2.9,3.3-2.4,3.3-3.3
				c-0.3-1-1.8-2-0.9-2.8c1-1,3.7-2.1,9.2-4.8c5.4-2.8,9.2-4.1,10.8-4.6c2.2-0.7,2-1.4,1.9-4.4c-0.2-2.8,0.1-5.1,1.1-6.1
				c0.8-1,0.6-1.6,0.3-2.5c-0.3-1-0.9-0.5-0.6-2.4c0.4-1.9,1.2-3.3,1.9-4.7c0.3,0.8,0.4,1.6,0.4,2.7c0.1,5,2.1,6.4,3.6,7.5
				c1.3,1,10.4,6,11.7,6.6c2.4,1.4,1.6,1.6,1.9,3.2c0.6,3.5-1,21.9-2.9,27.2c-0.4,1.5-1.1,2.2,0.5,1.7c5.7-1.9,6-3,7.4-4.2
				c1.6-1.6-0.5-4.2,2.9-5.7c2-1.1-0.7-2.1-1.5-5c-3.3-12.3,3.3-20.6,4-22.3c0.7-1.7,1.1-1.7-0.6-3c-5.5-4.2-6.7-10.4-6.7-10.4
				c0.8,0.8,2.6,2.1,3.8,1.2c1.1-1,0.6-1.9-0.5-2.7c-1.7-1.3-2.4-5.6-6-8.4c-2.5-1.9-12.1-15.1-13.2-22.1c-1.8-11,5.9-22.6,7.2-25.9
				c0.6-0.9,1.5-2.1,2.3-3.2c0,0,0.1,0,0.1,0c10.7-3.7,5.1-15.8,5.1-15.8c-0.3-0.7-0.8-1.4-1.4-2.3c0.2-0.1,0.3-0.2,0.5-0.3
				C1797.7,965.3,1798.2,963.1,1798.3,960.3z"/>
			<path class="st5" d="M1627.5,1089.3c-1.1-2-3.4-5-6.1-5.5c-4.3-0.5-10.7-3.5-14.4-5.4c-3.5-2-1.3-5,0.2-8.3
				c2.1-4.4,2.3-6.4-7.2-12.3c-0.1-0.1-1.2-0.9-2.5-1.7c3.8-1.9,9.1-4.8,10.8-15.3c0,0,1.9-0.7,4.3-3.4c1.6-1.6,1.9-3.2,3.7-4.4
				c1.3-0.8,3.9-0.3,4,2.9c0,0.4,0.1,7.1-0.4,7.8c-1.5,3.1-1,2.9-1.8,3.5c-1,1-1.9,2.3-1,3.4c2.7,2.6,0.1,3.5,1.7,5.4
				c1.3,1.3,2,3.2,7.4,5.8c1.5,0.6,1-0.3,0.7-1.8c-0.8-3.1-1.8-13.7-1.5-20.1c0.2-1.4,1.6-8.3,1.9-9.7c0.4-1.5-0.1-2.8-0.3-3.3
				c-0.6-0.8-1.8-2.5-7-1.5c0,0-7.1,1.5-9.7,2.4c-2.1,0.5-2.5-4-3.9-6.4c-1.5-2.5-3.9-6.8-10-7.8c-2.5-0.5-12.9-0.2-10.4-4.3
				c0,0,0.4-1.3,2.6-1.1c1.6,0.2,6.5,1.2,7.6-0.6c0.3-0.2,0.1-0.4,0.1-0.7c0,0,2.7,0.3,3.6,0.4c1.4-0.1,2.9-0.9,3.7-1.9
				c0.5-0.7,1-2.7,0.7-2c-0.3,0.7-2,1.2-2.7,1.6c-0.6,0.2-2.4,0.3-4,0.2c0.3-0.4,3.7-3.7,3.6-4.2c-0.1-1.1-7.1-2.4-8.2-4.8
				c-1.1-2-4-5.3-8.6-5.7c0,0,2.6-0.4,3.7-0.7c3.1-1.5,4.2-5.1,4.2-5.1s-2.5,1.6-3.8,1.7c-1.9,0-2,1.1-2.6,0.7
				c-0.4-0.1,2.6-2.9,3.6-3.3c1.2-0.6,3.3-3.1,3.8-3.7c2.3-2.5,2.3-8.3,2.3-8.3s-2.2,3-2.5,3.6c-0.8,1.5-1.9,3-2.5,2.3
				c-1.2-1.1,2.8-7.3,3.2-8.1c0.5-0.7,0.9-4.5,0.8-5.6c-0.1-1.4-0.4-2.4-0.4-2.4s-0.9,1.8-1.2,2.6c-0.5,2-1.6,3.9-2.1,4.2
				c-0.3,0.4-1.4-4-2.9-5.6s-3.7-1.8-3.7-1.8s1.4,2.4,1.7,3.1c2,4.6,2.6,8.5-0.5,17.4c-1.2,3.1-1.7,0.8-2-0.7
				c-0.8-2.8-0.6-6.7-0.6-6.7s-2.1,1.9-2.1,4.2c0,1.8,0.2,3,0,4.6c-0.3,3.4-0.6,3.4-1.1,3.8c-0.4,0-1.1-4.9-1.9-6
				c-1.7-3.4-1.5-7.5-1.5-7.5s-2,1.4-2,5.7c0,4.6,1.9,6.4,0.6,7.4c-0.5,0.4-1.9-2-2.5-2.8c-1.2-1.5-3.2-2.4-3.7-4.5
				c-0.8-3.5-4.5-7.1-4.5-7.1s1,3.1,0.9,4.5c-0.3,2.3,0.9,4,0.5,4c-4.2-1.2-3.7-8.2-3.6-9.8c0.3-3.2-1.9-7.5-1.9-7.5s0,2.3-0.7,4.1
				c-1,2.9-0.2,5.7-1,5.6c-2-0.2-2.6-3.7-3.3-5.2c-0.5-1.2-1.4-2.5-1.4-2.5s-0.3,4.5,0.9,8.6c0.5,2.1,2.7,4.9,3.7,6.2
				c0.2,0.2,0.2,0.2,0,0.2c-1.4-0.1-1.8,0-2.7-0.5c-0.7-0.3-3.8-1.5-3.8-1.5s2,3.2,2.6,3.7c2.3,2.1,5.1,2.2,6.6,2.3
				c3.4,0.3,7.6,2.4,9.2,4c1.9,1.8,1.7,1.6,1.7,1.6c-0.2,0-0.8,1.1-1,1.3c0,0-0.1,0.5-1.5-0.9c-2.7-2.8-4.7-1.6-6.9-2.3
				c-2.2-0.9-3.7-1.5-4.2-2c0,0,0.9,4.4,1.9,5.5c1,1.3,1.1,5,6.9,6.3c0.9,0.1,0.7,0.3,0.4,0.9c-0.5,0.4-1.8,7.8,0.2,14.7
				c0.2,0.9,2.8,8.1,10.3,15.1c2.3,2.1,3.2,6.1,3.2,6.1c1.6,4.6-8.4,18.2-10.9,20.2c-4,2.8-5.1,8.6-6.6,10.1c-1.5,1.4-1.6,1.6-2,2.1
				c0,0,2.9,1.2,7.4-2.2c0,0-0.3,7.3-5,12.3c-1.5,1.5-1.1,1.5-0.1,3c1,1.5,8.9,8.7,7.6,21.3c-0.3,3-2.8,4.5-0.6,5.2
				c3.6,0.9,1.9,3.9,3.8,5.2c1.7,0.9,2.1,2,8,2.9c1.6,0.2,0.8-0.4,0.2-1.8c-2.7-4.9-7.4-22.8-7.3-26.3c0-1.6-0.8-1.7,1.3-3.5
				c1.2-0.8,9.3-7.3,10.5-8.5c1-1.1,2.4-2.4,2.5-5.4c1.3,0.6,2.3,1.1,2.3,1.5c-0.1,0.9-0.4,1.6,0.7,2.4c1.1,0.8,1.8,3,2.1,5.9
				c0.4,3,0.3,3.7,2.6,4c1.6,0.2,5.6,1,11.4,2.8c5.8,1.8,8.7,2.5,9.8,3.3c0.9,0.6-0.4,1.8-0.5,2.9c0.1,0.9,2.8-0.1,3.8,2.7
				c0.7,2.4,1.6,2.5,3.6,3.2c1.8,0.7,7.7,1,7.3,0.5C1630.5,1095.8,1628.8,1091.9,1627.5,1089.3z"/>
			<path class="st5" d="M1699.9,1158.1c-2.9,1.3-2.7,1.3-3-1.9c-0.3-3.3-5.6-3.1-6.1-4.8l-0.2-0.3l-0.1,0.4
				c-0.2,1.8-5.5,2.2-5.2,5.7c0.4,3.2,0.4,3.2-2.6,2.3c-3.3-0.8-4.6,4.3-6.4,4.2l-0.5,0l0.4,0.3c1.7,0.7,0.5,6,3.9,6.6
				c3.1,0.8,3.1,0.6,1.3,3.3c-1.9,3,2.6,5.8,2,7.6l0,0.4l0.3-0.2c1.1-1.3,5.8,1.3,7.5-1.7c1.7-2.8,1.5-2.8,3.5-0.3
				c2.3,2.6,6.3-0.7,7.8,0.4l0.4,0.1l-0.2-0.3c-0.8-1.7,3.1-5.2,0.8-7.9c-2-2.3-2.1-2.1,1-3.4c3.1-1.1,1.3-6.1,2.8-7.1l0.1-0.4
				l-0.4,0C1705.4,1161.5,1703.2,1156.7,1699.9,1158.1z"/>
			<path class="st5" d="M1742.3,1158.1c-2.8-1.5-2.8-1.5-0.5-3.5c2.5-2.3-0.9-6.3,0.1-7.8l0.1-0.4l-0.4,0c-1.5,1-5.2-2.8-7.8-0.4
				c-2.3,2.1-2.1,2.1-3.4-0.8c-1.3-3.1-6.3-1.1-7.3-2.4l-0.4-0.3l0,0.4c0.3,1.7-4.3,4.1-2.9,7.3c1.5,2.7,1.5,2.7-1.7,3
				c-3.3,0.5-2.9,5.7-4.6,6.2l-0.3,0.2l0.4,0.1c1.8,0.2,2.6,5.5,6.1,5c3-0.4,3-0.4,2.3,2.6c-0.8,3.3,4.4,4.4,4.4,6.4l0,0.4l0.3-0.4
				c0.7-1.7,6-0.7,6.6-4.1c0.6-3.1,0.5-3,3.2-1.5c3,1.7,5.6-2.8,7.4-2.2l0.4,0l-0.2-0.3C1742.8,1164.4,1745.2,1159.6,1742.3,1158.1z
				"/>
			<path class="st5" d="M1773.5,1131.6c-3-0.5-3-0.5-1.7-3.2c1.7-3-2.9-5.6-2.4-7.2l0-0.5l-0.3,0.4c-1.1,1.3-5.9-0.9-7.4,2.2
				c-1.4,2.8-1.4,2.8-3.5,0.5c-2.5-2.4-6.3,1.1-7.8,0.1l-0.4-0.1l0,0.4c1,1.5-2.6,5.3-0.2,7.8c2.3,2.3,2.3,2.1-0.4,3.4
				c-3.2,1.7-0.9,6.4-2.4,7.5l-0.1,0.4l0.4,0c1.7-0.5,4.2,4.3,7.3,2.6c2.9-1.3,2.7-1.5,3.2,1.7c0.5,3.5,5.7,2.7,6.4,4.4l0.2,0.3
				l0.1-0.4c0.2-1.8,5.3-2.7,4.8-6.2c-0.6-3-0.6-3,2.5-2.3c3.4,0.6,4.4-4.6,6.2-4.8l0.5,0l-0.4-0.3
				C1776.3,1137.4,1776.9,1132,1773.5,1131.6z"/>
			<path class="st5" d="M1664,1157.7c-3.2,0.3-3,0.4-2.2-2.7c1-3.3-4.1-4.8-3.9-6.8l-0.2-0.3l-0.1,0.4c-0.9,1.5-6,0.3-7,3.6
				c-0.6,3.1-0.6,3.1-3.3,1.3c-2.8-1.9-5.8,2.4-7.5,1.7l-0.5,0l0.4,0.3c1.2,1.3-1.6,5.8,1.3,7.7c2.6,1.6,2.6,1.6,0.1,3.5
				c-2.7,2,0.5,6.3-0.6,7.7l-0.1,0.4l0.4,0c1.5-0.8,5,3.1,7.7,1c2.5-2,2.3-2,3.4,1c1.2,3.3,6.1,1.4,7.2,3l0.2,0.3l0-0.4
				c-0.1-1.8,4.6-3.7,3.5-7c-1.1-2.9-1.3-2.9,1.9-3c3.5-0.1,3.3-5.4,5-5.9l0.5-0.2l-0.4-0.1
				C1667.9,1162.8,1667.5,1157.5,1664,1157.7z"/>
			<path class="st5" d="M1630.3,1145.2c-3.1-1-3.1-0.8-1.2-3.4c2.1-2.8-2.3-6-1.5-7.7l0.1-0.4l-0.3,0.2c-1.3,1.3-5.8-1.6-7.7,1.2
				c-1.9,2.6-1.7,2.6-3.5,0.1c-2-2.8-6.4,0.2-7.7-1l-0.4-0.3l0,0.5c0.8,1.5-3.3,4.9-1.3,7.5c2,2.5,2,2.5-1,3.4c-3.3,1-1.8,6.2-3.3,7
				l-0.3,0.4l0.4,0c1.9-0.2,3.8,4.8,7,3.7c2.9-1.1,2.7-1.1,2.8,1.9c-0.1,3.5,5.3,3.6,5.6,5.4l0.2,0.3l0.1-0.4
				c0.4-1.8,5.7-1.9,5.6-5.4c-0.1-3.2-0.1-3,2.8-2.2c3.3,1.1,5-3.8,6.8-3.7l0.5,0l-0.4-0.1
				C1632.3,1151.3,1633.6,1146.2,1630.3,1145.2z"/>
			<path class="st5" d="M1649,1115.9c2.5,0.1,2.9,0.3,4.3,0.9c0.7,0.5,1.6-0.1,0.9-2c-0.6-1.4-3.7-10.5-4.7-11.5
				c-5.5-6.6-15.8-2.2-26.1,1.8c-5.1,2-34.4,19.1-43.2,17.4c-3.6-0.6-5.1-1.7-6-2.3c-1-0.8-1.9-1.3-1.2,0.5c0.7,1.7,6,10.8,7.8,13.3
				c3.6,4.7,11.7,4,20.5-0.5c2.5-1.4,28.7-13.2,33-14.8C1638.6,1117.1,1646.3,1115.7,1649,1115.9z"/>
			<path class="st5" d="M1800.6,1101.4c-0.8,0.8-2.1,2.1-5.6,3.3c-8.4,3.2-39.9-9.5-45.5-10.4c-10.6-2.1-21.6-4.6-26.1,2.9
				c-0.8,1.1-2.3,10.6-2.5,12.1c-0.4,2,0.4,2.4,1.2,1.8c1.3-0.8,1.5-1,3.9-1.6c2.8-0.6,10.6-0.5,14.9,0.4c4.5,0.9,32.2,8.1,35.1,9.1
				c9.3,3,17.4,2.3,20.1-2.9c1.5-2.8,5.2-12.6,5.7-14.5C1802.3,1099.8,1801.4,1100.4,1800.6,1101.4z"/>
			<path class="st5" d="M1662.7,1139.9c2.4,0.9,14.8,5.9,27.5,4.6c12.7-1,24.3-7.9,26.3-9.1c2.2-1.2,5.4-5.1,5.2-7.7
				c-0.1-1.1-0.8-9.5-1-11.6c-0.2-2.3-0.3-3.5-2.4-1.2c-5.5,5.9-21,11.5-29.6,12.2c-8.6,0.7-24.8-2.2-31.2-7.2
				c-2.5-1.9-2.4-0.7-2,1.6c0.2,2.1,0.9,10.6,1,11.6C1656.7,1135.8,1660.3,1139,1662.7,1139.9z"/>
			<path class="st5" d="M1653.4,908.1c-0.1,3-3.3,5.2-3.2,6.5c0,0.4,1.1,0.8,1.7,0.7c0.2,0.2,0.6,0.3,0.6,0.8
				c-0.1,1.2-0.5,2.5,0.5,6.3c0.5,2.3,3.7,4.1,3.7,4.1l0,10.3c0,0-1.6,0.3-1.9,0.7c-0.5,0.4-1.1,1.3-1,2.7l11.3-0.9
				c0,0,0.3-1.1,0.2-1.8c0.4-2.2,1.1-5.6,1.6-6.9c0.3-0.6,6.9-2,9.8-5.8c0.5-0.6,0.6-0.9,1.8-0.1c0.7,0.5,6.1,3.2,7,3.7
				c0.5,0.1,0.2,2.1,0.1,2.8c-0.3,0.9-0.1,2.5-0.6,2.9c-0.7,0.6-2.1,0-3.1,1.3c-0.8,1.5-0.4,1.8-0.3,2.5c0,0,7.4-0.6,9-0.7
				c0.5,0,3.3-11.8,3.9-12.9c0.3-0.7,0.2-1.4-0.7-1.9c-5-2.4-4.9-5.3-4.9-5.3s3.4-1.9,3.1-4.9c-0.2-2.3-0.9-4.7-6.2-4.8
				c-0.9-0.1-0.7-0.1-2.8,0.1c-1.9,0.2-4.4,0.2-4.5-0.9c-0.2-1.9,2.3-2.7,4.4-2.1c2.2,0.4,6.8,0.5,8-2.1c0.9-1.8,0-6.2-0.7-8.3
				c-0.2-0.3-0.6,1.5-1.7,3c-0.8,1.3-3,2.2-6.5,2.8c-4.7,0.7-9.6,2.2-8.9,7.6c0.4,2.8,5.1,4,9.2,3.7c4.2-0.2,3.5,3.6-3.7,4.2
				c-1.8,0.1-4.9-1-5.8-2c0.4,0,1.5-0.7,1.5-1c-0.1-1.2-3.6-2.9-4.2-5.9c-0.4-3-0.6-5.1-0.6-5.4c-0.2-0.5,0.1-0.4,0.8-0.4
				c0.7-0.1,0.8-0.8,0.8-1.1c0-0.5-0.4-0.3-1.1-0.4c-0.7-0.3-0.8-1-0.5-1.2c1.2-1,1.7-3,1.5-4.9c-0.2-2.6-4.8-4.7-7.7-0.8
				c0,0,0-0.5-0.3-0.9l-0.4-4.7l-1.6,0.5l0.4-2l-1.4,0.1l-1.4,0.1l0.5,1.9l-1.6-0.2l0.4,4.7c-0.2,0.5-0.1,0.9-0.1,0.9
				c-2.9-3.1-7.5-1.1-7.4,2c0,1.9,1,3.8,2.3,4.6c0.4,0.1,0.4,0.9-0.3,1.3c-0.7,0.2-1.1,0.1-1,0.6c0,0.4,0.3,1,1,1
				c0.7-0.1,1-0.3,0.9,0.3C1653.2,903,1653.4,905.1,1653.4,908.1z"/>
			<path class="st5" d="M1622.1,977.1c0,0-0.9,8.9,10.1,17.4c7.9,6.6,17.5,5.8,20.4,4.7c2.9-1.1,3.7-2.1,3.7-2.1s3.5,3.6,8.2,6.6
				c2.6,1.6,5.4,3.2,7.9,4.5l-43,3.6l4.3,51.9c1.3,15.5,9.1,29.2,22.8,39.9c10.4,8.5,22.5,13.4,29.6,14.9l2,0.5l2.1-0.9
				c6.7-2.7,17.6-9.4,26.7-19.6c11.5-12.8,17-27.6,15.7-43.1l-4.3-51.9l-41.5,3.4c1.3-0.9,2.7-1.9,4-3c3.2-2.8,7.6-7.9,9.5-10.3
				c5.2,2.3,12.8,0.9,19.6-4.3c1.3-0.8,1.8-1.3,2.8-2.3c0.3-0.3,0.6-0.6,0.8-0.9c0.3-0.3,0.5-0.6,0.7-0.9c7.6-9.4,5.6-17,5.6-17
				c6.9-0.6,13.4-8.7,13.8-15.3c0,0-0.1,0.7-1.7,1.2c-3.1,1.1-5.1,0.2-7.9,1.2c-2.8,0.9-3.4,1.3-3.4,1.3c1.2-2.1,1.4-2.2,2.3-6
				c3.3-14.1-5.6-22.7-5.6-22.7c1.5,5.5-1.5,9.3-4,13.6c-4,6.7-2.9,12.6-2.9,12.6c0.7,2.2,0.6,2.6,0.6,2.6c-1.5-1.1-3.2-2.7-4.5-3.2
				c-1.1-0.4-4-1.1-5.1-5.8c0,0-4.9,5-1.4,12.7c1.1,2.5,4.7,5.7,7.4,10.6c-1.1,4.2-4.5,13.3-12.3,12.1c-3.9-0.6-5.2-5.2-5.7-8.6
				c-0.7-4.5-2.3-6.9-2.3-6.9l-0.4,0c2.6-0.2,2.3-2.1,2.3-2.1c-0.1-1.2-1.1-2-2.3-1.9l0-2.5c6-6.3,4-12,3-14.9
				c-2.6-9.4-17.5-8.1-21.4-1.6l-0.8-9.5l-4.1,1.2l1.9-4.6l-2.8,0.2l-2.8,0.2l2.7,4.2l-4.3-0.5l0.8,9.8c-4.7-6.1-20-5-21.2,4.9
				c-0.3,3-1.4,9,5.6,14.2l0.2,2.5c-0.7,0.1-2.1,0.9-2,1.9c0,0,0.1,1.5,1.5,1.9c-1.1,1.3-2.9,3.7-2.5,6.8c0.4,3.7,2.1,6.6,4.1,8.7
				c-6.1,5.9-15.4,2.5-19.3-9.5c0.3-0.7,0.7-1.5,1.2-2.2c9.4-14.8,0.4-20.9,0.4-20.9c-0.3,4.8-3.1,5.9-4.1,6.5
				c-1,0.6-2.6,2.5-3.9,3.9c0,0,0.3-0.7,0.1-2.7c0,0,0.2-6-4.7-12c-3.3-3.8-7-7-6.2-12.8c0,0-7.5,10-1.8,23.3
				c1.4,3.6,1.6,3.8,3.1,5.6c0,0-0.7-0.3-3.6-0.8c-2.9-0.5-4.7,0.7-8,0.1c-1.4-0.2-1.8-0.9-1.8-0.9
				C1607.4,970.7,1615.4,977.7,1622.1,977.1z"/>
		</g>
		<g>
			<path class="st5" d="M1548.5,1218.2l0.4,0.2l3.2,0c2.7,0,3.2,0.2,3.7,6.2l2.5,30.5c0.7,8.1,0.6,8.1-3,9l-2,0.5l-0.3,0.3
				c-0.6,0.6-0.8,1.5-0.5,2.4c0.2,0.9,0.7,1.5,1.4,1.7l0.3,0.1l0.3,0c1.1-0.1,2.1-0.2,3.2-0.4c2.2-0.3,4.4-0.5,7-0.7
				c2-0.2,4.2-0.3,6.3-0.4c1.7-0.1,3.3-0.2,4.4-0.3c15.9-1.3,24.5-8.2,23.6-19c-0.7-8.1-7.1-12.6-13.2-13.5c3.7-2.3,7-5.8,6.5-11.7
				c-0.4-5.1-3.4-8.9-8.5-10.6c-4.7-1.7-10.6-1.5-15.7-1.1c-8.2,0.7-14.2,1.4-19.2,2.2c-0.3,0.1-1.1,0.3-1.3,1.5
				C1547.4,1216,1547.5,1217.5,1548.5,1218.2z M1565.3,1217.4l0.3-0.2c0.4-0.2,1.4-0.5,3.6-0.7c2.8-0.2,12-0.3,12.7,8.5
				c0.5,6.2-2.7,8.9-11.9,10c-1,0.1-3,0.4-3.2,0.4c-0.1-0.1-0.1-0.7-0.1-1l-1.3-16.3C1565.3,1217.7,1565.3,1217.5,1565.3,1217.4z
				 M1567.2,1240.7c0.2-0.1,1-0.4,3.8-0.6c14.2-1.2,17,6.4,17.4,11c0.7,8.2-6,10.4-11.8,10.9c-3,0.2-4.9-0.2-6.2-1.3
				c-1.6-1.4-2-6.1-2.1-7.7l-1-11.9C1567.2,1240.9,1567.2,1240.7,1567.2,1240.7z"/>
			<path class="st5" d="M1655.7,1256.2l-2.3,0.4l-0.3,0.3c-0.5,0.6-0.7,1.4-0.5,2.3c0.2,0.8,0.7,1.4,1.3,1.6l0.3,0.1l0.3,0
				c3.8-0.4,6.3-0.7,9.5-1c3-0.2,5.6-0.4,9.4-0.6l0.3,0l0.3-0.2c0.8-0.4,1.1-1.4,1-2.2c0-0.9-0.4-1.6-1.1-2l-2.5-0.2
				c-3.5-0.1-3.5-0.1-4-7.1l-2-24.4c-0.6-7.2-0.5-7.2,2.8-7.7l2.2-0.3l0.3-0.2c0.6-0.4,0.9-1.2,0.8-2.1c-0.1-0.7-0.5-1.7-1.4-2
				l-0.3-0.1l-0.3,0c-3.8,0.4-6.3,0.7-9.4,1c-3.2,0.3-5.8,0.4-9.5,0.6l-0.3,0l-0.3,0.2c-0.8,0.4-1.1,1.4-1,2.2c0,0.9,0.4,1.6,1.1,2
				l0.3,0.1l2.2,0c3.3,0,3.4,0,4,7.1l2,24.4C1659.1,1255.6,1659.1,1255.6,1655.7,1256.2z"/>
			<path class="st5" d="M1674.9,1222.3c0.8,0.1,1.5-0.1,2-0.5l0.3-0.2l0.1-0.3c0.6-1.6,1.1-3,2.5-4.5c1.4-1.5,5.9-1.9,7.7-2l3.9-0.3
				c0.2,0,0.5,0,0.8-0.1c0,0.2,0.1,0.5,0.1,0.8l2.5,30.6c0.6,6.9,0.3,7-2.6,7.5l-2.9,0.5l-0.3,0.2c-0.6,0.5-1,1.3-0.8,2.2
				c0.1,0.9,0.6,1.6,1.3,1.9l0.3,0.1l0.3,0c4.5-0.5,7-0.8,9.8-1c2.8-0.2,5.2-0.4,9.3-0.6l0.3,0l0.3-0.2c0.6-0.4,1-1.2,1-2.1
				c0-0.9-0.4-1.6-1-2l-0.3-0.2l-2.6,0c-3,0-3.1,0-3.6-7l-2.5-30.7c0-0.3,0-0.5-0.1-0.8c0.2,0,0.5-0.1,0.7-0.1l5.1-0.4
				c3.6-0.3,6.2,0,7.6,0.8c0.2,0.1,1,1.1,1.6,4l0.1,0.4l0.3,0.3c0.6,0.6,1.6,0.7,2.3,0.6c0.8-0.2,1.4-0.6,1.7-1.3l0.2-0.4l-0.1-0.4
				c-0.4-1.9-0.3-7.3,0.2-10l0.1-0.5l-0.3-0.5c-0.7-1.1-2.3-0.9-3-0.6l-0.4,0.2l-0.2,0.4c-0.6,1.2-0.7,1.3-4.3,1.6l-29.1,2.4
				c0,0,0,0-0.1,0c-3.2,0.3-4.2,0.2-4.5-0.7l-0.1-0.4l-0.3-0.3c-0.9-0.7-2.5-0.3-3,0.1l-0.5,0.4l-0.1,0.6c-0.3,2.7-0.9,7.1-1.8,10.2
				l-0.2,0.6l0.3,0.5C1673.3,1221.7,1674.1,1222.2,1674.9,1222.3z"/>
			<path class="st5" d="M1728.3,1250.2l-2.3,0.4l-0.3,0.3c-0.5,0.6-0.7,1.4-0.5,2.3c0.2,0.8,0.7,1.4,1.3,1.6l0.3,0.1l0.3,0
				c3.8-0.4,6.3-0.7,9.5-1c3-0.2,5.6-0.4,9.4-0.6l0.3,0l0.3-0.2c0.8-0.4,1.1-1.4,1-2.2c0-0.9-0.4-1.6-1.1-2l-2.5-0.2
				c-3.5-0.1-3.5-0.1-4-7.1l-2-24.4c-0.6-7.2-0.5-7.2,2.8-7.7l2.2-0.3l0.3-0.2c0.6-0.4,0.9-1.2,0.8-2.1c-0.1-0.7-0.5-1.7-1.4-2
				l-0.3-0.1l-0.3,0c-3.8,0.4-6.3,0.7-9.4,1c-3.2,0.3-5.8,0.4-9.5,0.6l-0.3,0l-0.3,0.2c-0.8,0.4-1.1,1.4-1,2.2
				c0,0.9,0.4,1.6,1.1,1.9l0.3,0.1l2.2,0c3.3,0,3.4,0,4,7.1l2,24.4C1731.7,1249.6,1731.7,1249.6,1728.3,1250.2z"/>
			<path class="st5" d="M1753.6,1250.3l0.2,0.3l0.3,0.1c2.1,0.8,6.7,2.1,13.4,1.6c11.1-0.9,18.1-7.2,17.4-15.5
				c-0.5-5.8-4.4-10.2-12-13.4l-6.8-2.9c-2.4-1-6.5-3.2-6.7-6.7c-0.2-2.3,0.6-6.3,7.7-6.9c6.6-0.5,8.9,2.7,10.3,6l0.1,0.3l0.2,0.2
				c0.5,0.4,1.2,0.5,2,0.5c0.3,0,1.5-0.3,2.1-1.1l0.3-0.4l0-0.5c-0.2-2.9-1.3-6.9-2.3-8.8l-0.4-0.8l-0.9,0.1c-0.5,0-1.6,0-2.6-0.2
				c-2-0.3-5.1-0.5-7.9-0.3c-12.3,1-17.3,8.1-16.7,14.6c0.4,5,4.1,9.3,10.5,12.2l8,3.6c5.7,2.5,6.4,5.4,6.6,7.9
				c0.2,3-1.8,6.7-8.2,7.2c-7.8,0.6-11.6-4.1-13.4-8.2l-0.3-0.4c-0.4-0.4-1.1-0.7-1.8-0.6c-0.7,0.1-1.7,0.4-2.2,1.1l-0.3,0.4
				l0.1,0.5C1750.8,1243.6,1752.3,1248.6,1753.6,1250.3z"/>
			<path class="st5" d="M1787.9,1205.5l0.3,0.2l2.3,0c2.6,0,3.1,0,3.7,7l2,24.6c0.6,6.7,0.6,6.7-2.5,7.5l-1.6,0.4l-0.3,0.3
				c-0.5,0.6-0.7,1.4-0.5,2.3c0.2,0.8,0.7,1.4,1.3,1.6l0.3,0.1l0.3,0c1-0.1,1.9-0.2,2.9-0.3c1.8-0.2,3.6-0.4,5.6-0.6
				c2.9-0.2,5.4-0.4,9.3-0.6l0.3,0l0.3-0.2c0.7-0.4,1-1.2,1-2.1c0-0.9-0.4-1.6-1.1-2l-0.3-0.1l-2.5,0c-3.1-0.1-3.3-0.1-3.9-6.9
				l-0.8-9.7c0-0.2,0-0.5,0-0.8c0.5-0.1,1.6-0.2,2.3-0.3l21.1-1.7c0.7-0.1,1.8-0.2,2.3-0.1c0,0.2,0.1,0.6,0.1,0.8l0.8,9.7
				c0.6,6.7,0.6,6.7-2.7,7.5l-1.8,0.4l-0.3,0.3c-0.5,0.6-0.7,1.4-0.5,2.3c0.2,0.8,0.7,1.4,1.3,1.6l0.3,0.1l0.3,0
				c3.5-0.4,6-0.7,8.8-0.9c2.9-0.2,5.4-0.4,8.9-0.5l0.3,0l0.3-0.2c0.7-0.4,1-1.2,1-2.1c0-0.9-0.4-1.6-1.1-2l-2.4-0.2
				c-3.3-0.1-3.3-0.1-3.8-7l-2-24.6c-0.6-7-0.5-7,2.6-7.5l1.8-0.3l0.3-0.2c0.6-0.4,0.9-1.2,0.7-2.1c-0.1-1-0.6-1.7-1.4-1.9l-0.3-0.1
				l-0.3,0c-3.3,0.4-5.8,0.7-8.6,0.9c-3.1,0.3-5.7,0.4-8.9,0.5l-0.3,0l-0.3,0.2c-0.7,0.4-1,1.2-1,2.2c0,0.9,0.4,1.6,1.1,1.9l0.3,0.1
				l1.7,0c3.2,0,3.3,0,3.9,7l0.7,7.9c0,0.2,0,0.5,0,0.8c-0.5,0.1-1.5,0.2-2.3,0.3l-21.1,1.7c-0.8,0.1-1.8,0.2-2.3,0.1
				c0-0.2-0.1-0.6-0.1-0.8l-0.7-7.9c-0.6-7-0.5-7,2.6-7.5l1.7-0.3l0.2-0.2c0.6-0.4,0.9-1.2,0.7-2.1c-0.1-1-0.6-1.7-1.4-2l-0.3-0.1
				l-0.3,0c-3.4,0.4-5.8,0.7-8.5,0.9c-1.9,0.2-3.6,0.2-5.4,0.3c-1.2,0.1-2.5,0.1-3.9,0.2l-0.3,0l-0.3,0.2c-0.7,0.4-1,1.2-1,2.1
				C1786.8,1204.5,1787.2,1205.2,1787.9,1205.5z"/>
			<path class="st5" d="M1564,1316.7c-0.9-0.1-1.8,0.1-2.4,0.6l-0.3,0.3l-0.1,0.4c-1.3,4.2-4.9,11.4-15.2,12.3
				c-13.9,1.2-24.1-8.4-25.4-23.7c-1.4-17.5,9.5-24.7,20.2-25.6c8.9-0.7,14.3,2.4,16.6,9.7l0.1,0.4l0.4,0.3c0.6,0.4,1.5,0.6,2.4,0.4
				c0.8-0.2,1.4-0.6,1.8-1.2l0.3-0.5l-0.1-0.5c-1-4.8-1.9-9.9-2.1-11.9l-0.2-1.4l-1.4,0.3c-0.4,0.1-0.8,0-1.8-0.1
				c-4.3-0.8-10.8-1.1-15.2-0.8c-9,0.7-16.9,3.9-22.6,9.2c-6.5,6-9.8,14.7-9.1,23.9c0.8,9.9,5.9,18,14.3,22.8
				c6.1,3.4,13.3,4.7,21.9,4c5.7-0.5,11.6-2.3,13.4-3.1c0.8-0.4,1.7-0.8,2.6-1l0.5-0.1l0.3-0.4c1.3-1.9,3-7.9,3.3-12.3l0-0.5
				l-0.3-0.4C1565.4,1317.2,1564.8,1316.8,1564,1316.7z"/>
			<path class="st5" d="M1590.8,1281.2c-15.4,1.3-26,13.2-24.8,27.7c1,12.2,11.3,23.8,29,22.3c15-1.2,25.4-13,24.2-27.4
				C1618.1,1291.9,1608.9,1279.7,1590.8,1281.2z M1590,1286.1c13-1.1,18.6,10.5,19.5,20.7c1.1,13.5-6.8,19-14,19.6
				c-14.2,1.2-19.1-12.3-19.8-20.4C1574.5,1292.3,1582.7,1286.7,1590,1286.1z"/>
			<path class="st5" d="M1707.6,1276.4c0.4-0.6,0.6-1.4,0.4-2.1c-0.2-0.7-0.6-1.2-1.2-1.5l-0.4-0.2l-0.4,0.1
				c-2.6,0.3-4.5,0.6-7.5,0.8c-2.7,0.2-5.4,0.4-8.2,0.5l-0.4,0l-0.3,0.3c-0.5,0.4-0.8,1-0.9,1.8c0,0.8,0.2,1.5,0.8,2l0.4,0.4l2.4,0
				c1.7,0,2.5,0.4,2.6,0.6c0.3,0.4,1.4,2.7,2.3,13.4l0.7,7.9c0.6,7.7-0.9,17.1-11.8,18c-9.3,0.8-13.8-4.1-14.8-15.8l-1.2-14.8
				c-0.6-7-0.5-7,2.5-7.5l2.1-0.3l0.3-0.2c0.6-0.4,0.8-1.2,0.7-2.1c-0.1-0.7-0.5-1.6-1.3-1.9l-0.3-0.1l-0.3,0
				c-3.5,0.4-5.9,0.7-8.9,0.9c-2.9,0.2-5.3,0.4-9,0.5l-0.3,0l-0.3,0.2c-0.8,0.4-1,1.4-1,2.1c0,0.9,0.4,1.6,1.1,1.9l0.3,0.2l2.1,0
				c3,0,3.1,0,3.7,7l1.3,16.2c0.7,8.4,3.1,13.8,7.6,16.7c3.6,2.4,8.5,3.4,14.7,2.9c6-0.5,11.4-3,14.4-6.6c3.4-4,4.7-9.8,4-17.8
				l-0.6-7.7c-0.3-3.1-0.9-11.4-0.2-13.4c0.1-0.2,0.8-0.8,2.4-1.1l2.3-0.4L1707.6,1276.4z"/>
			<path class="st5" d="M1808.4,1285.3c3.2-2,6-5,5.5-10c-0.4-4.5-3.1-7.8-7.7-9.3c-4.2-1.5-9.6-1.3-14.2-0.9
				c-6.6,0.5-12.3,1.2-17.3,2c-0.7,0.1-1.2,0.6-1.4,1.3c-0.2,0.8,0,2.2,0.8,2.8l0.4,0.3l3.1,0c2.3,0,2.7,0,3.1,5.1l2.2,26.3
				c0.6,6.8,0.6,6.8-2.7,7.6l-1.8,0.4l-0.3,0.3c-0.5,0.6-0.7,1.4-0.5,2.3c0.2,0.8,0.7,1.4,1.4,1.7l0.3,0.1l3.1-0.3
				c2-0.2,4-0.5,6.4-0.7c1.8-0.2,3.8-0.3,5.6-0.3c1.5-0.1,2.9-0.2,4-0.2c14.4-1.2,22.2-7.3,21.5-16.6
				C1819.3,1290.1,1813.7,1286.3,1808.4,1285.3z M1789.6,1270.6l0.2-0.1c0.4-0.2,1.2-0.4,3.2-0.6c2.5-0.2,10.7-0.3,11.3,7.1
				c0.4,4.4-1.3,7.3-10.7,8.4c-0.8,0.1-2.2,0.2-2.8,0.2c0-0.2,0-0.4-0.1-0.6l-1.2-14C1789.6,1270.8,1789.6,1270.7,1789.6,1270.6z
				 M1791.2,1290.7c0.3-0.1,1.1-0.3,3.3-0.5c9.4-0.8,14.9,2.5,15.5,9.3c0.6,6.9-5.4,8.8-10.6,9.3c-2.7,0.2-4.4-0.1-5.5-1.1
				c-0.9-0.8-1.5-3-1.8-6.5l-0.8-10.2C1791.2,1290.8,1791.2,1290.7,1791.2,1290.7z"/>
			<path class="st5" d="M1606.4,1260.2l-3.4,0.6l-0.3,0.3c-0.5,0.6-0.7,1.4-0.5,2.3c0.2,0.8,0.7,1.4,1.3,1.6l0.3,0.1l3.1-0.4
				c1-0.1,1.9-0.2,2.9-0.4c3-0.4,6.1-0.6,9.1-0.7c0.9,0,1.9-0.1,2.9-0.1l3.1-0.2l0.3-0.2c0.6-0.3,1-1,1-1.8c0.1-0.9-0.3-1.7-0.9-2.2
				l-0.4-0.3l-3.5,0c-3.1,0-3.1,0-3.3-3.7l-1-12.3c-0.1-0.8-0.1-1.4-0.1-1.7c0.2,0,0.4,0,0.8-0.1c5-0.4,5-0.4,7.7,3.5l10,15
				c0.7,1,1.7,2.6,3.9,2.4l6.9-0.6l3.1-0.2l0.3-0.2c0.6-0.3,1-1,1-1.8c0.1-0.9-0.3-1.7-0.9-2.2l-0.4-0.3l-2.3,0c-0.4,0-0.7,0-1,0
				c-1.9-0.2-3-1.8-4.2-3.6l-8.4-12.1c-0.6-0.9-1.3-1.9-2.3-2.8c5.5-2.1,10-6.5,9.5-12.8c-0.7-8.6-9.4-11.8-17.7-11.1
				c-2.3,0.2-4.5,0.4-6.7,0.6c-3.4,0.3-6.9,0.7-10.9,0.9c-1.4,0.1-2.9,0.2-4.2,0.3c-2,0.2-2.7,0.9-2.6,2.7c0,0.5,0.2,1.2,0.7,1.7
				c0.6,0.5,1.3,0.5,2,0.4c0.2,0,0.5,0,0.8-0.1c4-0.1,4-0.1,4.3,3.8l2.5,30.5l0.1,0.9C1609.3,1259.7,1609.3,1259.7,1606.4,1260.2z
				 M1628.5,1233.8c-2.5,2-5.4,2.6-9.2,3c-0.3,0-0.5,0.1-0.9,0.1c-0.5,0.1-1.7,0.2-1.9,0.2l-1.1-13.1c-0.4-4.5-0.4-4.5,4.6-4.9
				c6.7-0.6,10.6,2.4,11.1,8.2C1631.4,1230,1630.5,1232.2,1628.5,1233.8z"/>
			<path class="st5" d="M1659.6,1312.6c-0.7-0.3-2.2-0.4-3,0.3l-0.3,0.2l-0.1,0.3c-1.2,3.5-2.8,5.8-3.8,6.5c-0.9,0.6-2.5,1-8.5,1.4
				c-6,0.5-7-0.3-7.4-0.6c-1-0.8-1.3-2.1-1.7-6.3l-2-23.8c-0.6-7-0.5-7,2.7-7.6l2.1-0.3l0.3-0.2c0.6-0.4,0.9-1.2,0.7-2.1
				c-0.1-0.7-0.5-1.6-1.4-2l-0.3-0.1l-0.3,0c-3.7,0.4-6.3,0.7-9.2,1c-3,0.2-5.5,0.4-9.8,0.6l-0.3,0l-0.3,0.2c-0.8,0.4-1,1.4-1,2.2
				c0,0.9,0.4,1.6,1.1,1.9l0.3,0.2l2.2,0c3.6,0,3.7,0,4.2,7l2,24.6c0.6,6.9,0.6,6.9-2.7,7.5l-2.7,0.5l-0.3,0.3
				c-0.5,0.6-0.7,1.4-0.5,2.3c0.2,0.8,0.7,1.4,1.3,1.6l0.3,0.1l0.3,0c4.2-0.5,6.6-0.8,9.7-1l6.9-0.6c8.2-0.7,15.1-1.2,18.7-1.3
				l0.8,0l0.3-0.7c0.9-1.9,2.6-9.4,2.5-10.5C1660.8,1313.8,1660.6,1313,1659.6,1312.6z"/>
			<path class="st5" d="M1842.8,1305.8l-2.4-0.2c-3.3-0.1-3.3-0.1-3.9-7.1l-2-24.4c-0.6-7.2-0.5-7.2,2.7-7.7l2.2-0.3l0.3-0.2
				c0.6-0.4,0.9-1.2,0.7-2.1c-0.1-1-0.6-1.7-1.4-1.9l-0.3-0.1l-0.3,0c-3.7,0.4-6.2,0.7-9.1,1c-3.1,0.3-5.6,0.4-9.3,0.6l-0.3,0
				l-0.3,0.2c-0.7,0.4-1,1.2-1,2.1c0,0.9,0.4,1.6,1.1,2l0.3,0.2l2.2,0c3.2,0,3.3,0,3.9,7.1l2,24.4c0.6,7,0.6,7-2.7,7.6l-2.3,0.4
				l-0.3,0.3c-0.5,0.6-0.7,1.4-0.5,2.3c0.2,0.8,0.7,1.4,1.3,1.6l0.3,0.1l0.3,0c3.7-0.4,6.2-0.7,9.2-1c2.9-0.2,5.4-0.4,9.1-0.5l0.3,0
				l0.3-0.2c0.7-0.4,1-1.2,1-2.1C1843.9,1306.9,1843.5,1306.2,1842.8,1305.8z"/>
			<path class="st5" d="M1766.5,1272.3l3.2-0.5l0.3-0.2c0.6-0.4,0.9-1.2,0.8-2.1c-0.1-0.7-0.5-1.6-1.4-1.9l-0.3-0.1l-0.3,0
				c-0.5,0.1-1,0.1-1.5,0.2c-0.5,0-0.9,0.1-1.3,0.1l-8.1,0.7c-0.9,0.1-2.5,0.2-3.2,2l-12.6,32.9l-15.9-29.3l-0.2-0.5
				c-0.4-1-1.1-2.4-3.3-2.2l-8.4,0.7c-0.4,0-0.9,0.1-1.3,0.1c-0.5,0-1,0.1-1.6,0.1l-0.3,0l-0.3,0.2c-0.8,0.4-1.1,1.4-1,2.2
				c0,0.9,0.4,1.6,1.1,2l0.3,0.1l2.2,0c0.4,0,1.1,0,1.1,0c1.5,0,1.8,0.2,1.8,0.2c0.2,0.2,0.2,1.9,0.2,2.4l0.2,32.4
				c0.1,3.4-0.1,3.8-2.3,4.2l-3.4,0.7l-0.3,0.3c-0.5,0.6-0.7,1.4-0.5,2.3c0.2,0.8,0.7,1.4,1.3,1.6l0.3,0.1l4.7-0.6
				c2.3-0.3,4.7-0.5,7-0.6c0.7,0,1.4,0,2.1-0.1l3.1-0.2l0.3-0.2c0.6-0.3,1-1,1-1.8c0.1-0.9-0.3-1.7-0.9-2.2l-0.3-0.3l-3.5-0.1
				c-1.3,0-2.1-0.2-2.7-0.7c-1-0.9-1.1-3-1.1-5.5l-0.1-25.7l16.7,31.7c0.2,0.5,0.9,2.2,2.6,2.1c1.5-0.1,2-1.5,2.2-2.3l13-34.8
				l2.3,28.1l0,0.4c0.1,0.9,0.3,3-0.4,3.6c-0.3,0.2-1.4,0.6-2.4,0.8c-0.3,0.1-0.6,0.1-1,0.2l-2.3,0.4l-0.3,0.3
				c-0.5,0.6-0.7,1.4-0.5,2.3c0.2,0.8,0.7,1.4,1.3,1.6l0.3,0.1l3.1-0.4c1-0.1,2-0.2,3-0.4c1.6-0.2,3.2-0.4,4.8-0.5
				c1.9-0.2,5.5-0.3,5.5-0.3c0.4,0,0.9,0,1.4,0c0.5,0,1,0,1.5,0l0.3,0l0.3-0.2c0.6-0.3,1-1,1-1.8c0.1-0.9-0.3-1.7-0.9-2.2l-0.3-0.3
				l-3.5-0.1c-0.7,0-1-0.1-1.2-0.3c-0.3-0.2-0.6-1.1-0.9-4.1l-2.5-30c0-0.2-0.1-0.5-0.1-0.9c-0.1-0.7-0.3-2.9,0-3.4
				C1765.1,1272.6,1765.6,1272.4,1766.5,1272.3z"/>
			<path class="st5" d="M1895,1301.6l-0.7-0.4l-0.4,0c-0.4,0-0.7,0-0.9,0c-2-0.3-3.2-2.7-4.3-4.8l-18.6-35.6c-0.3-0.6-1-2.1-2.5-2
				c-1.7,0.1-2.1,1.7-2.3,2.6l-11.6,37.2c-0.8,2.6-1.6,4.8-2.1,5.4c-0.4,0.4-0.9,0.6-1.9,0.8l-3.4,0.6l-0.3,0.3
				c-0.5,0.6-0.7,1.4-0.5,2.3c0.2,0.8,0.7,1.4,1.3,1.6l0.3,0.1l3.1-0.4c1-0.1,1.9-0.2,2.9-0.4c2-0.3,4.1-0.5,6.2-0.5
				c0.6,0,1.3,0,1.9,0l3.1-0.1l0.3-0.2c0.6-0.3,1-1,1-1.8c0.1-0.9-0.3-1.7-0.9-2.2l-0.3-0.3l-3.4-0.1c-2.3-0.1-2.8-0.4-2.8-0.9
				c-0.1-1,0.3-2.4,0.7-3.5l1.8-5.6c0.2-0.4,0.3-0.8,0.4-1.1c0.1-0.4,0.2-0.8,0.3-0.9c0.1-0.1,0.7-0.2,1.6-0.2l10.3-0.8
				c1-0.1,2-0.2,2.2-0.1c0.2,0.1,0.5,0.8,0.8,1.4l3.6,6.6c0.4,0.7,1,2.1,1.1,2.7c0,0.4-0.5,0.6-2.5,1l-3.4,0.5l-0.3,0.3
				c-0.5,0.6-0.7,1.4-0.5,2.3c0.2,0.8,0.7,1.4,1.3,1.6l0.3,0.1l3.1-0.4c0.7-0.1,1.5-0.2,2.2-0.3c3.1-0.4,6-0.6,9-0.7
				c1,0,2-0.1,3-0.1l0.1,0c0.2,0.1,0.4,0.1,1,0l0.3,0l0.3-0.2c0.6-0.3,1-1,1-1.8C1895.9,1302.9,1895.6,1302.1,1895,1301.6z
				 M1863.8,1286.8l-0.3,0c-0.3,0-0.5,0.1-0.8,0.1l4.1-13.1l0-0.1c0,0.1,0,0.1,0,0.1l6.2,11.8c0,0.1,0.1,0.3,0.2,0.4
				c-0.1,0-0.2,0-0.2,0L1863.8,1286.8z"/>
		</g>
	</g>
</g>
</svg>
