<?xml version="1.0" encoding="utf-8"?>
<!-- Generator: Adobe Illustrator 22.0.1, SVG Export Plug-In . SVG Version: 6.00 Build 0)  -->
<svg version="1.1" id="Layer_1" xmlns="http://www.w3.org/2000/svg" xmlns:xlink="http://www.w3.org/1999/xlink" x="0px" y="0px"
	 viewBox="0 0 1757 1727.6" style="enable-background:new 0 0 1757 1727.6;" xml:space="preserve">
<style type="text/css">
	.st0{clip-path:url(#SVGID_2_);}
	.st1{fill:#DB5253;}
	.st2{fill:#FFFFFF;}
	.st3{fill:#704316;}
	.st4{fill:#8E6134;}
	.st5{fill:#7A4D20;}
	.st6{fill:#D2D2D2;}
	.st7{fill:#F49D73;}
	.st8{fill:#E6E6E6;}
	.st9{fill:#6A7493;}
	.st10{fill:none;stroke:#FFFFFF;stroke-width:141.75;stroke-linecap:round;stroke-miterlimit:10;}
	.st11{fill:#384261;}
	.st12{fill:#F99D73;}
	.st13{fill:#F9B086;}
	.st14{fill:#32150B;}
	.st15{fill:#F49369;}
	.st16{fill:none;stroke:#EF6667;stroke-width:24.0975;stroke-linecap:round;stroke-miterlimit:10;}
	.st17{fill:#681B16;}
	.st18{fill:#704316;stroke:#8E6134;stroke-width:19.689;stroke-linecap:round;stroke-miterlimit:10;}
	.st19{fill:none;stroke:#384261;stroke-width:21;stroke-miterlimit:10;}
	.st20{fill:#6C98A7;stroke:#6C98A7;stroke-width:21;stroke-linejoin:round;stroke-miterlimit:10;}
	.st21{fill:#FEF2A7;}
	.st22{fill:#BD3435;}
	.st23{fill:#EF6667;}
	.st24{fill:none;stroke:#F49D73;stroke-width:94.5;stroke-miterlimit:10;}
	.st25{fill:#F4E89D;}
</style>
<g>
	<defs>
		<path id="SVGID_1_" d="M4.7,1034.2c0,150.1,48.7,288.9,131.3,401.4c-233.2,296.6-26.1,561.1,285.2,225.6
			c81.8,34.5,171.7,53.6,266.1,53.6c79.3,0,155.4-13.5,226.2-38.3c183.1,206.1,981.8-345.6,981.8-642.4
			C1895.3,658.2,1015.1-2.9,638.1-2.9C503.4-2.9,282.8,318.9,321,459.7C130.9,580.5,4.7,792.6,4.7,1034.2z"/>
	</defs>
	<clipPath id="SVGID_2_">
		<use xlink:href="#SVGID_1_"  style="overflow:visible;"/>
	</clipPath>
	<g class="st0">
		<path class="st1" d="M4.7,1034.2c0,281.8,171.7,523.6,416.4,627c81.8,34.6,171.7,53.7,266.2,53.7c377,0,682.6-304.8,682.6-680.7
			s-305.6-680.7-682.6-680.7S4.7,658.2,4.7,1034.2z"/>
		<path class="st2" d="M657.5,282.1c0,89.5,79.4,162,177.4,162c31.9,0,61.9-7.7,87.8-21.2c53.5-27.9,89.6-80.5,89.6-140.8
			c0-89.5-79.4-162-177.4-162S657.5,192.7,657.5,282.1z"/>
		<path class="st2" d="M342.2,341.1c0,89.5,79.4,162,177.4,162c31.9,0,61.9-7.7,87.8-21.2C660.9,454,697,401.4,697,341.1
			c0-89.5-79.4-162-177.4-162S342.2,251.6,342.2,341.1z"/>
		<ellipse transform="matrix(0.88 -0.4749 0.4749 0.88 -34.8545 298.0764)" class="st2" cx="572.5" cy="218" rx="100.7" ry="99.2"/>
		<ellipse class="st2" cx="729.2" cy="175.2" rx="106.6" ry="93.7"/>
		<ellipse class="st2" cx="676.4" cy="359.9" rx="101.6" ry="119.8"/>
		<path class="st3" d="M438.7,832.6c0.2-64.5,47.5-106.7,90.6-106.7s70.9,44.8,71.9,106.7c2.4,153.8-35.1,249.6-71.9,289.2
			C492,1078.1,438.2,1000.4,438.7,832.6z"/>
		<path class="st4" d="M489.6,787.7c0.8,87.9,48.8,159.2,109,159.2c60.2,0,109-71.3,109-159.2s-46.5-230.3-106.7-230.3
			S488.1,620.8,489.6,787.7z"/>
		<path class="st5" d="M887.9,837.5c-115,62.7-184.1,78.1-294-5.8s64.3-205.5,64.3-205.5s228.5-88.7,249.3-59.9
			c3.2,4.4,17.4,22.4,20.2,26.9C981.3,677.5,958.3,799,887.9,837.5z"/>
		<path class="st6" d="M1160.6,1306.7c10-14.8,54.8,6.1,74.5,19.5c22.5,15.4,52,44.1,44.7,57.3l-18,28.4l-86.6-13.4l-33.1-62.6
			L1160.6,1306.7z"/>
		<path class="st7" d="M1242.4,1213.9c9.6-7.9,18.6-12.5,25.1-15.2c0,0,264.2,0,273.2,0c9,0,14.2,5.6,8.3,14.2
			c-9.4,13.7-25.5,34.8-44.9,52.4c-38.2,34.6-176.9,2-204.1,23.5c-13,10-63.6,76.3-107,154.5l-82.6-45.9
			C1149.6,1327.1,1209.6,1239.2,1242.4,1213.9z"/>
		
			<rect x="1144.9" y="842.2" transform="matrix(-1 -4.489887e-11 4.489887e-11 -1 2815.5774 2013.1788)" class="st2" width="525.8" height="328.8"/>
		<path class="st8" d="M1160.6,1306.7l-101.3,160.6L955,1271c-18.4-34.6-61.3-47.7-95.8-29.3c-34.6,18.4-47.7,61.3-29.3,95.8
			l161.6,304.1c11.9,22.3,34.7,36.6,59.9,37.6c0.9,0,1.8,0.1,2.6,0.1c24.3,0,46.9-12.4,59.9-33l165.8-262.7
			c-7.9,12.5-50.4,0-72.9-15.3C1187.2,1354.7,1150.3,1323,1160.6,1306.7z"/>
		<path class="st9" d="M658.5,1097.9c58,0,105.1,4.5,105.1,10c0,2.4-8.7,4.6-23.3,6.3l-0.1,0.1c-21.8,1.9-39.8,25.8-39.6,61.4h0
			c0.1-35.6-17.9-57.8-39.8-57.8h-0.1c-0.7,0-1.4,0-2.1,0c-58,0-105.1-4.5-105.1-10C553.4,1102.4,600.4,1097.9,658.5,1097.9z"/>
		<rect x="585" y="974.3" class="st7" width="156.8" height="237.3"/>
		<path class="st2" d="M341.4,1334.3l3.6-83.4c24.4-22,146.8-65,196.4-67.7l233.3,2.1c73.9,16.5,149,41.9,173.2,75
			c44.5,59.5-60.7,103.9-57,166c5.7,61.7-0.3,92.2-6.8,110.3c-1.3,8.2-16.8,34.2-16.8,34.2l-51.5,33.1H521l-47.5-25.3l-43.5-41.9
			l-51-224.9L341.4,1334.3z"/>
		
			<rect x="437.5" y="1522.1" transform="matrix(-1 -4.493484e-11 4.493484e-11 -1 1276.8948 3364.4858)" class="st2" width="402" height="320.3"/>
		<path class="st8" d="M839.6,1643c1.5-38.9,36.3-64.3,44.6-106.4c-10.2,31-50.1,39.2-74.5,39.2H553.5c-48.9,0-88.9-1-88.9-49.9
			l-35.2-9l0,206C481.5,1624.5,796.5,1633.6,839.6,1643z"/>
		<path class="st10" d="M391.7,1304.3"/>
		<path class="st10" d="M391.7,1879.1"/>
		<circle class="st11" cx="615.1" cy="1362.7" r="15.9"/>
		<circle class="st11" cx="783.3" cy="1362.7" r="15.9"/>
		<circle class="st11" cx="625.7" cy="1499.3" r="15.9"/>
		<circle class="st11" cx="793.8" cy="1499.3" r="15.9"/>
		<ellipse class="st11" cx="604.6" cy="1628.2" rx="15.9" ry="13"/>
		<ellipse class="st11" cx="772.8" cy="1628.2" rx="15.9" ry="13"/>
		<circle class="st11" cx="604.6" cy="1741" r="15.9"/>
		<circle class="st11" cx="772.8" cy="1741" r="15.9"/>
		<path class="st12" d="M763.4,1083.6c-125.3-0.2-155-65.8-178.4-107.4C564,946,547.2,836.4,545.3,800.9l97.1-0.1"/>
		<path class="st12" d="M513.4,859.9c9.7,30.6,35.2,49.9,57.1,42.9c21.8-6.9,23.5-34.8,13.9-65.4c-9.7-30.6-27.1-52.4-49-45.5
			S503.8,829.2,513.4,859.9z"/>
		<path class="st13" d="M752.2,566.9c95,0,171.9,73.1,172,174.4c0,12.6-4.8,38-4.8,62.5c0,29.8,5,59.1,4.8,74.8
			c-0.8,121.9-77.1,206.4-160.9,205c-47.7-0.8-94.9-33.6-129.4-92c-13.2-22.3-14.6-58.3-14.6-58.3V663c0,0,0.7-34.5,17.1-49.6
			C667.3,585.2,707.1,566.9,752.2,566.9z"/>
		<path class="st14" d="M698.2,815.9c0,11.5,9.4,20.9,21,21c11.6,0.1,21-9.2,21-20.7s-9.4-20.9-21-21
			C707.7,795,698.2,804.3,698.2,815.9z"/>
		<path class="st15" d="M828.2,915c-8.6,15.8-22.3,18.8-22.3,18.8c-12.6,0.1-27.8-2.4-38.1-14.9c-5.4-6.7,1.3-21.1,7.8-16.9
			c7.6,5,21,14.4,31.1,12.6c11.4-2,13.9-7.2,18.4-10.1C828.9,902,831.3,909.2,828.2,915z"/>
		<path class="st14" d="M834.9,815.9c0,11.5,9.4,20.9,21,21c11.6,0.1,21-9.2,21-20.7s-9.4-20.9-21-21
			C844.3,795,834.9,804.3,834.9,815.9z"/>
		<path class="st4" d="M907.5,566.3c-18.9-17.8-45.4-69-191.1-70.8C581,493.7,520.8,802.1,520.8,802.1c32.1,2.2,40.9,39.8,76,40.7
			c12.7,0,23-10.3,23-23h0c0-24.4-2.9-93.1,34.7-133.3l-2.6,65.8c22.4-11.4,80.2-20.6,143.7-20.9c72-0.3,116.7,20.9,116.7,20.9
			C925.9,705.6,947.3,624.6,907.5,566.3z"/>
		<ellipse class="st13" cx="778.3" cy="1054.1" rx="54.5" ry="43.3"/>
		<line class="st16" x1="804.3" y1="1023.6" x2="776.7" y2="1023.6"/>
		<path class="st17" d="M843.4,971c0,28.3-23.9,51.2-53.3,51.2s-53.3-22.9-53.3-51.2H843.4z"/>
		<path class="st2" d="M736.8,971c0,6.4,1.2,12.5,3.4,18.1h99.7c2.2-5.6,3.4-11.7,3.4-18.1H736.8z"/>
		<line class="st18" x1="885.6" y1="760" x2="840.3" y2="754.1"/>
		<line class="st18" x1="671.6" y1="765.5" x2="734.6" y2="754.1"/>
		<path class="st8" d="M822.6,438.1c2.3-35.6,12.4-108.3,20.6-135.3c-15.7,19-50.9,86.2-56.9,132.9L822.6,438.1z"/>
		<path class="st8" d="M747.2,446.6c-3.9-30.9-9.3-136.1-7.7-153.1c-10,33.2-26.3,121.4-26.3,158.5L747.2,446.6z"/>
		<path class="st8" d="M672,477.4c-5.5-46.8-36.1-126.1-52.9-146.2c6,21.1,18.2,95.3,18.3,127.1L672,477.4z"/>
		<path class="st8" d="M583,487.3c-8.1-50.4-39.4-103.3-59.6-121.9c6.8,13,37.9,104.3,37.9,128.6L583,487.3z"/>
		<path class="st8" d="M876.5,434.3c0-18.4,13.4-58,21.9-70c-9.9,5.7-38.2,31.8-46,53L876.5,434.3z"/>
		<path class="st8" d="M501.4,476.8c-2.9-15.6-29.6-52-29.6-52c17.7,1.8,47,35.5,51.5,42.6L501.4,476.8z"/>
		<path class="st2" d="M902.8,410.1l36,203.3c-59.7-17.2-190.4-21.5-288-2.9c-61.1,11.6-119.6,49.2-154.1,76.7L477,464.9
			C538.2,421.4,786.7,366.6,902.8,410.1z"/>
		<path class="st19" d="M698.8,1193.7l0.8,86.5c-38.4,1.6-123.3,3.2-185.7,25.6c0.5,82.5,41.9,166.5,40.5,247.9
			c-1.4,81.3-38.6,74.4-38.6,195.7"/>
		<path class="st6" d="M500.7,1640.6c13.4-2.1,15.7-46.1,12.2-79c-3.5-32.9-17-63.4-35.2-61s-62,38.1-53.4,92.7
			C429,1623.3,477.3,1645.1,500.7,1640.6z"/>
		<polygon class="st20" points="683.2,1614.9 687.1,1675.6 681,1677.1 659.3,1619.8 		"/>
		<polygon class="st21" points="689.1,1574.9 694.8,1624.8 653,1632 632.1,1583 		"/>
		<path class="st7" d="M654.8,1605.8l32.2-5.6c20.5-3.2,34.7-22.6,31.5-43.2l-11.4-84.3c-3.2-20.5-22.6-34.7-43.2-31.5l-54.7,9.4
			c-38.6,6.4-33.1,43.1-54.3,45.3l-163.2,24.3l13.9,93.5l163.2-24.3C588.6,1587.6,636.9,1609,654.8,1605.8z"/>
		<path class="st2" d="M480.2,1500.4l-121.4,18.1l95.6-181.1c18.3-34.6,5-77.5-29.6-95.8c-34.6-18.3-77.5-5-95.8,29.6l-161,304.9
			c-12.5,23.6-10.6,52.3,4.8,74.1c13.4,18.9,35.1,29.9,57.8,29.9c3.5,0,7-0.3,10.4-0.8l259.5-38.6c-27.8,3.9-36.2-38.4-40-62.6
			C457.3,1556.1,454.1,1504.6,480.2,1500.4z"/>
		<path class="st11" d="M553.4,1107.9c0,5.5,47,10,105.1,10c0.7,0,1.4,0,2.1,0h0.1c21.9-0.1,39.9,22.2,39.8,57.8h0
			c-0.1-35.6,17.9-59.5,39.6-61.4l0.1-0.1c14.6-1.7,23.3-3.9,23.3-6.3c6.7,11.5,11.7,61.8,11.3,85.8c-15.8,8.7-55.1,12.1-74.8,12.7
			c-31.9,0.9-125.9-2.2-158.8-12.7C541,1169.7,546.7,1119.4,553.4,1107.9z"/>
		<circle class="st22" cx="1604.1" cy="792.2" r="37.3"/>
		<circle class="st22" cx="1225.8" cy="792.2" r="37.3"/>
		<circle class="st22" cx="1351.9" cy="792.2" r="37.3"/>
		<circle class="st22" cx="1478" cy="792.2" r="37.3"/>
		<path class="st23" d="M1127.1,855.8c0-20.8,17-37.8,37.8-37.8h485.8c20.8,0,37.8,17,37.8,37.8v129.8c0,12.3-10.1,22.4-22.4,22.4
			c-12.3,0-22.4-10.1-22.4-22.4v-66.8c0-18.5-15.1-33.6-33.6-33.6c-18.5,0-33.6,15.1-33.6,33.6v89.9c0,8.9-7.3,16.2-16.2,16.2
			c-8.9,0-16.2-7.3-16.2-16.2v-55.3c0-14.7-12-26.8-26.8-26.8c-14.7,0-26.8,12-26.8,26.8v55.3c0,8.9-7.3,16.2-16.2,16.2
			c-8.9,0-16.2-7.3-16.2-16.2v-54.1c0-8.9-7.3-16.2-16.2-16.2c-8.9,0-16.2,7.3-16.2,16.2v96.1c0,8.9-7.3,16.2-16.2,16.2
			c-8.9,0-16.2-7.3-16.2-16.2V938c0-12.3-10.1-22.4-22.4-22.4h0c-12.3,0-22.4,10.1-22.4,22.4v58.1c0,12.3-10.1,22.4-22.4,22.4
			c-12.3,0-22.4-10.1-22.4-22.4v-83.6c0-8.9-7.3-16.2-16.2-16.2c-8.9,0-16.2,7.3-16.2,16.2v117.2c0,8.9-7.3,16.2-16.2,16.2h0
			c-8.9,0-16.2-7.3-16.2-16.2V906.5c0-12.3-10.1-22.4-22.4-22.4h0c-12.3,0-22.4,10.1-22.4,22.4V988c0,18.5-15.1,33.6-33.6,33.6
			c-18.5,0-33.6-15.1-33.6-33.6L1127.1,855.8z"/>
		<path class="st8" d="M1701.9,1198.7h-601.8c-20.8,0-37.8-17-37.8-37.8v-0.5h677.4v0.5C1739.7,1181.7,1722.7,1198.7,1701.9,1198.7z
			"/>
		<path class="st24" d="M1143.9,1432.9"/>
		<path class="st24" d="M1241.2,1279.8"/>
		<path class="st21" d="M674.2,1455.6c26.9-28.4,46.8-79.3,44.9-115.7c0,0-87.4-25.6-94.2-36c-6.8-10.4-30.8-2.6-32.3,5.6
			c-1.5,8.3-70.1,68-70.1,68c7.2,31.6,42.5,69.5,83.8,89.7L674.2,1455.6z"/>
		<path class="st25" d="M558.2,1249.8l33.1,55.7l32.9-5.1l3.4-60.6C613.4,1249.2,570.8,1239.8,558.2,1249.8z"/>
		<path class="st25" d="M590.6,1313.6c0.6,0,1.2-0.1,1.8-0.2l32.3-5.6c5.7-1,9.5-6.4,8.5-12.2c-1-5.7-6.5-9.5-12.2-8.5l-32.3,5.6
			c-5.7,1-9.5,6.4-8.5,12.2C581.2,1310,585.6,1313.6,590.6,1313.6z"/>
		<ellipse class="st2" cx="542.3" cy="897.5" rx="17.5" ry="18"/>
	</g>
</g>
</svg>
