<?xml version="1.0" encoding="utf-8"?>
<!-- Generator: Adobe Illustrator 22.0.1, SVG Export Plug-In . SVG Version: 6.00 Build 0)  -->
<svg version="1.1" id="Layer_1" xmlns="http://www.w3.org/2000/svg" xmlns:xlink="http://www.w3.org/1999/xlink" x="0px" y="0px"
	 viewBox="0 0 1168.3 1214.3" style="enable-background:new 0 0 1168.3 1214.3;" xml:space="preserve">
<style type="text/css">
	.st0{clip-path:url(#SVGID_2_);}
	.st1{fill:#9ECAD9;}
	.st2{fill:#54291C;}
	.st3{fill:#693629;}
	.st4{fill:#F49D73;}
	.st5{fill:#6A7493;}
	.st6{fill:#EA9369;}
	.st7{fill:#384261;}
	.st8{fill:#1C283E;}
	.st9{fill:#F9B086;}
	.st10{fill:none;stroke:#422B27;stroke-width:19.6875;stroke-linecap:round;stroke-miterlimit:10;}
	.st11{fill:none;stroke:#F38486;stroke-width:24.0975;stroke-linecap:round;stroke-miterlimit:10;}
	.st12{fill:none;stroke:#E1775A;stroke-width:13.7812;stroke-linecap:round;stroke-miterlimit:10;}
	.st13{fill:#422B27;}
	.st14{fill:#F49369;}
	.st15{fill:#FFFFFF;}
	.st16{fill:#EF6667;}
	.st17{fill:#8AB6C5;}
	.st18{fill:#FEE38F;}
</style>
<g>
	<defs>
		<path id="SVGID_1_" d="M1018.2,434.3c0,239.8-194.4,434.3-434.3,434.3S149.7,674.1,149.7,434.3S344.1,0,584,0
			S1018.2,194.4,1018.2,434.3"/>
	</defs>
	<clipPath id="SVGID_2_">
		<use xlink:href="#SVGID_1_"  style="overflow:visible;"/>
	</clipPath>
	<g class="st0">
		<path class="st1" d="M1095.8,950.8H102.7c-23.3,0-42.3-19.1-42.3-42.3V13.9c0-23.3,19.1-42.3,42.3-42.3h993.1
			c23.3,0,42.3,19.1,42.3,42.3v894.6C1138.1,931.8,1119.1,950.8,1095.8,950.8z"/>
		<ellipse class="st2" cx="584" cy="81.6" rx="85.5" ry="55.7"/>
		<path class="st3" d="M763.9,399.2c17.3-53.8,25.3-203.7-17.3-271.1S644.9,47.7,584,47.7s-120.1,13-162.6,80.4
			s-34.5,217.3-17.3,271.1"/>
		<path class="st4" d="M450,399.2c2.8,32.3,1.3,67.9-20.5,69.8c-21.8,1.9-55.6-30.5-58.3-62.9c-3.6-43.5,12.5-60.1,34.3-62
			C427.2,342.2,447.2,366.8,450,399.2z"/>
		<path class="st3" d="M422.1,392.1c-15.4-3-25.5-23.8-30-56.9c-2.7-31.6,2.7-104.7,59.1-120.8S422.1,392.1,422.1,392.1z"/>
		<path class="st2" d="M679,469.8c78.1,38,40.1,181.4,97,221.5c-21.1,16.9-126.6-14.8-154-73.8S679,469.8,679,469.8z"/>
		<path class="st4" d="M718.6,399.2c-2.8,32.3-1.3,67.9,20.5,69.8c21.8,1.9,55.6-30.5,58.3-62.9c3.6-43.5-12.5-60.1-34.3-62
			C741.3,342.2,721.4,366.8,718.6,399.2z"/>
		<path class="st5" d="M695.4,671.4c0,21.1-49.9,38.6-111.4,38.6s-111-15.4-111.4-38.6c-0.1-3.9,49.9-7.1,111.4-7.1
			S695.4,667.5,695.4,671.4z"/>
		<rect x="495.5" y="550" class="st4" width="176.9" height="186.5"/>
		<path class="st6" d="M495.5,550v42.8c29.6,42.3,86.4,76.3,176.9,78.5V550H495.5z"/>
		<path class="st7" d="M426,735.2"/>
		<path class="st7" d="M903.6,781.3c-24.5-19.3-146.8-65-196.4-67.7H460.8c-49.7,2.6-172,48.4-196.4,67.7
			c-24.5,19.3-35,38.6-35,74.2l0,247.4c46.5,34.9,287.1,55.2,354.7,55.9c67.6-0.6,308.1-21,354.7-55.9l0-247.4
			C938.7,819.8,928.1,800.6,903.6,781.3z"/>
		<polygon class="st8" points="605.2,871.4 562.8,871.4 562.8,698.4 584,696.3 605.2,698.4 		"/>
		<g>
			<circle class="st7" cx="584.1" cy="742.4" r="12.7"/>
		</g>
		<g>
			<circle class="st7" cx="584.1" cy="816" r="12.7"/>
		</g>
		<path class="st9" d="M584,638L584,638c49.3-0.5,144.7-68,164.5-219.3c4-30.6,9.6-80.2,9.4-108.3C757.5,223.8,680.1,151,584,151
			H584c-96.1,0-173.4,72.8-173.9,159.5c-0.2,28.1,5.4,77.7,9.4,108.3C439.3,570,535.9,639.5,584,638L584,638z"/>
		<g>
			<line class="st10" x1="699.2" y1="314.4" x2="645.7" y2="305.5"/>
			<line class="st10" x1="467" y1="314.4" x2="520.5" y2="305.5"/>
		</g>
		<line class="st11" x1="570.2" y1="540.1" x2="597.8" y2="540.1"/>
		<line class="st12" x1="548.3" y1="532.1" x2="619.7" y2="532.1"/>
		<g>
			<path class="st13" d="M673.4,367.3c0,11.5-9.4,20.9-21,21c-11.6,0.1-21-9.2-21-20.7s9.4-20.9,21-21
				C664,346.5,673.4,355.8,673.4,367.3z"/>
			<path class="st13" d="M536.7,367.3c0,11.5-9.4,20.9-21,21c-11.6,0.1-21-9.2-21-20.7s9.4-20.9,21-21
				C527.3,346.5,536.7,355.8,536.7,367.3z"/>
		</g>
		<path class="st14" d="M584,485c21.1,0,34.5-19.7,31.9-27.4c-2.6-7.8-12.2,8.7-31.9,9.3c-19.8-0.6-29.3-17.1-31.9-9.3
			C549.5,465.3,562.8,485,584,485L584,485z"/>
		<path class="st3" d="M584,140.5c-74.9,0-153.9,36.8-152.2,147.1c41.3-11.9,94.3-19.1,152.2-19.1s110.9,7.2,152.2,19.1
			C737.9,177.2,658.9,140.5,584,140.5z"/>
		<g>
			<path class="st3" d="M410.1,322.4c-0.8-38,17.8-72.5,42.2-81.5l3.3-58.7l-52.2,50.6l-3.3,84L410.1,322.4z"/>
			<path class="st3" d="M757.9,322.4c0.8-38-17.8-72.5-42.2-81.5l-3.3-58.7l52.2,50.6l3.3,84L757.9,322.4z"/>
		</g>
		<g>
			<ellipse class="st15" cx="767.9" cy="452.8" rx="17.5" ry="18"/>
			<ellipse class="st15" cx="400.1" cy="452.8" rx="17.5" ry="18"/>
		</g>
		<path class="st8" d="M472.6,671.4c-15.3,15.6-26.3,45.2-26.3,45.2c5.1,15.2,69.3,38.9,69.3,38.9l68.3-59.2
			C547.5,696.2,473.3,682.2,472.6,671.4z"/>
		<path class="st8" d="M695.3,671.4c15.3,15.6,26.3,45.2,26.3,45.2c-5.1,15.2-69.3,38.9-69.3,38.9L584,696.3
			C620.4,696.2,694.6,682.2,695.3,671.4z"/>
	</g>
</g>
<rect y="749.8" class="st7" width="1168.3" height="193.6"/>
<g>
	<path class="st15" d="M353.6,906.6H328V857H280v49.7h-25.6V786.6H280v48.2H328v-48.2h25.6V906.6z"/>
	<path class="st15" d="M466.8,794.3c8.8,8.1,11.3,20.9,11.3,52.4c0,31.3-2.5,44.3-11.3,52.2c-8.3,7.7-17.1,9.9-39.6,9.9
		s-31.3-2.2-39.6-9.9c-8.8-7.9-11.3-20.9-11.3-52.2c0-31.5,2.5-44.3,11.3-52.4c8.1-7.7,16.9-9.9,39.6-9.9S458.7,786.6,466.8,794.3z
		 M406.3,810c-2.9,3.2-4.1,13-4.1,36.7c0,23.6,1.3,33.3,4.1,36.5c2.5,2.9,5.4,3.8,20.9,3.8c15.5,0,18.4-0.9,20.9-3.8
		c2.9-3.2,4.1-13,4.1-36.5c0-23.8-1.3-33.5-4.1-36.7c-2.5-2.9-5.4-3.8-20.9-3.8C411.7,806.2,408.9,807.1,406.3,810z"/>
	<path class="st15" d="M526.4,786.6v98.5h56v21.6h-81.5V786.6H526.4z"/>
	<path class="st15" d="M599.1,906.6V786.6h49.3c18.5,0,28.4,3.1,36.9,12.2c6.3,6.8,9.2,15.7,10.3,26.8c0.7,5.9,0.7,12.2,0.7,21.2
		c0,8.8,0,15.1-0.7,21.1c-1.1,11-4,20.2-10.1,26.8c-8.6,9-18.5,11.9-37.1,11.9H599.1z M624.5,885.1H647c10.6,0,15.7-1.3,18.7-5
		c4-4.9,4.9-12.2,4.9-33.3c0-21.2-0.9-28.6-4.9-33.5c-3.1-3.6-8.1-4.9-18.7-4.9h-22.5V885.1z"/>
	<path class="st15" d="M800.3,808.2h-56V835h51.5v21.6h-51.5v28.4h57.4v21.6H719V786.6h81.4V808.2z"/>
	<path class="st15" d="M819.3,786.6h44.3c20.3,0,30.6,3.1,37.6,10.8c5.9,6.7,8.8,16,8.8,29.7c0,12.8-2.3,21.4-7.6,27.9
		c-2.9,3.4-6.5,6.1-10.8,8.1l22.3,43.6h-28.1l-19.6-39.2h-21.4v39.2h-25.6V786.6z M844.4,845.6h15.3c9.2,0,18.2,0,21.2-2.2
		c3.2-2.2,3.8-6.7,3.8-16.4c0-9.7-0.5-14.2-3.8-16.6c-2.9-2.2-12.2-2.2-21.2-2.2h-15.3V845.6z"/>
</g>
<g>
	<path class="st7" d="M870.2,1214.3H290.7c-61.9,0-112.6-50.7-112.6-112.6v0c0-61.9,50.7-112.6,112.6-112.6h579.5
		c61.9,0,112.6,50.7,112.6,112.6v0C982.8,1163.7,932.1,1214.3,870.2,1214.3z"/>
	<polygon class="st16" points="340.2,1017.7 355.9,1033.2 376.7,1026 384,1046.8 405.9,1049.3 403.5,1071.2 422.2,1083 
		410.5,1101.7 422.2,1120.4 403.5,1132.2 405.9,1154.1 384,1156.6 376.7,1177.4 355.9,1170.2 340.2,1185.8 324.6,1170.2 
		303.8,1177.4 296.4,1156.6 274.5,1154.1 276.9,1132.2 258.3,1120.4 270,1101.7 258.3,1083 276.9,1071.2 274.5,1049.3 296.4,1046.8 
		303.8,1026 324.6,1033.2 	"/>
	<polygon class="st17" points="580.4,1017.7 596,1033.2 616.9,1026 624.2,1046.8 646.1,1049.3 643.7,1071.2 662.4,1083 
		650.7,1101.7 662.4,1120.4 643.7,1132.2 646.1,1154.1 624.2,1156.6 616.9,1177.4 596,1170.2 580.4,1185.8 564.8,1170.2 544,1177.4 
		536.6,1156.6 514.7,1154.1 517.1,1132.2 498.5,1120.4 510.2,1101.7 498.5,1083 517.1,1071.2 514.7,1049.3 536.6,1046.8 544,1026 
		564.8,1033.2 	"/>
	<polygon class="st18" points="820.6,1017.7 836.2,1033.2 857.1,1026 864.4,1046.8 886.3,1049.3 883.9,1071.2 902.5,1083 
		890.9,1101.7 902.5,1120.4 883.9,1132.2 886.3,1154.1 864.4,1156.6 857.1,1177.4 836.2,1170.2 820.6,1185.8 805,1170.2 
		784.1,1177.4 776.8,1156.6 754.9,1154.1 757.3,1132.2 738.7,1120.4 750.4,1101.7 738.7,1083 757.3,1071.2 754.9,1049.3 
		776.8,1046.8 784.1,1026 805,1033.2 	"/>
</g>
</svg>
