<?xml version="1.0" encoding="utf-8"?>
<!-- Generator: Adobe Illustrator 22.0.1, SVG Export Plug-In . SVG Version: 6.00 Build 0)  -->
<svg version="1.1" id="Layer_1" xmlns="http://www.w3.org/2000/svg" xmlns:xlink="http://www.w3.org/1999/xlink" x="0px" y="0px"
	 viewBox="0 0 1813.1 2286" style="enable-background:new 0 0 1813.1 2286;" xml:space="preserve">
<style type="text/css">
	.st0{fill:#6C98A7;}
	.st1{fill:#E6E6E6;}
	.st2{fill:none;stroke:#FFFFFF;stroke-width:96;stroke-linecap:round;stroke-linejoin:round;stroke-miterlimit:10;}
	.st3{fill:#D2D2D2;}
	.st4{fill:none;stroke:#F9B086;stroke-width:67.5;stroke-linecap:round;stroke-miterlimit:10;}
	.st5{fill:#FFB287;}
	.st6{fill:#CDE0DE;}
	.st7{fill:none;stroke:#384261;stroke-width:13.2;stroke-miterlimit:10;}
	.st8{fill:#FFFFFF;}
	.st9{fill:#54291C;}
	.st10{fill:#693629;}
	.st11{fill:#6A7493;}
	.st12{fill:#F49D73;}
	.st13{fill:#384261;}
	.st14{fill:#1C283E;}
	.st15{fill:#628E9D;}
	.st16{fill:none;stroke:#FFFFFF;stroke-width:101.25;stroke-linecap:round;stroke-miterlimit:10;}
	.st17{fill:#F9B086;}
	.st18{fill:#422B27;}
	.st19{fill:#F49369;}
	.st20{fill:none;stroke:#F38486;stroke-width:17.2125;stroke-linecap:round;stroke-miterlimit:10;}
	.st21{fill:none;stroke:#E1775A;stroke-width:9.8438;stroke-linecap:round;stroke-miterlimit:10;}
	.st22{fill:none;stroke:#422B27;stroke-width:14.0625;stroke-linecap:round;stroke-miterlimit:10;}
	.st23{fill:none;stroke:#384261;stroke-width:15;stroke-miterlimit:10;}
	.st24{fill:#0A0C1B;}
	.st25{font-family:'URWDock-Bold';}
	.st26{font-size:194.4px;}
	.st27{fill:none;stroke:#384261;stroke-width:18;stroke-miterlimit:10;}
</style>
<circle class="st0" cx="729" cy="875.6" r="729"/>
<path class="st1" d="M987.8,851.9c-18-0.7-34.4-10.9-42.8-26.8L829.5,607.9c-2-3.8-3.5-7.7-4.5-11.7l35.9-5.3
	c23,70.7,64.7,166.1,78.4,193.3c11.6,23.3,25.1,55.9,65.4,65.4c-4.8,1.5-9.9,2.3-15.1,2.3C989,851.9,988.4,851.9,987.8,851.9z"/>
<polyline class="st2" points="886.8,587.4 958.5,862.5 1121.4,809.4 "/>
<path class="st3" d="M1190.7,737.6c11.8-3.3,26,27.1,30.3,42.7c5,17.8,7.6,45.5-2,49.2l-22,6.8l-39.4-44.8l10.4-46.8L1190.7,737.6z"
	/>
<path class="st4" d="M1163.4,790.2c36.8-11.8,75.1-23.7,80.8-24.2"/>
<path class="st5" d="M1345.8,688.6c12.4-3.4,42.3-5.8,47.1,29.2c4.8,35-27.9,54.2-63.7,64.2c-35.8,10.1-63.9,11.6-89.8,19.8l41.6-97
	C1281,704.9,1333.4,692,1345.8,688.6z"/>
<rect x="1275" y="444.6" class="st6" width="538.1" height="428.6"/>
<polygon class="st0" points="1646.6,647.7 1658.4,659.5 1674.2,654 1679.8,669.7 1696.4,671.7 1694.6,688.3 1708.7,697.2 
	1699.8,711.4 1708.7,725.5 1694.6,734.4 1696.4,751 1679.8,753 1674.2,768.7 1658.4,763.2 1646.6,775 1634.8,763.2 1619,768.7 
	1613.4,753 1596.8,751 1598.7,734.4 1584.5,725.5 1593.4,711.4 1584.5,697.2 1598.7,688.3 1596.8,671.7 1613.4,669.7 1619,654 
	1634.8,659.5 "/>
<polygon class="st7" points="1773.8,510.4 1314.2,510.4 1314.2,480.4 1344.3,480.4 1344.3,837.4 1314.2,837.4 1314.2,807.4 
	1773.8,807.4 1773.8,837.4 1743.7,837.4 1743.7,480.4 1773.8,480.4 "/>
<path class="st5" d="M1214.4,739.4c32.1-10.2,33.8-59.4,58.5-66.9c24.7-7.4,72.9-21.4,78.3-5c5.4,16.4-49.2,26.8-54.9,28.6
	c5.3,15.8-4.5,60.6-50.7,73.4C1216,777.7,1214.4,739.4,1214.4,739.4z"/>
<path class="st8" d="M1187.6,789.6c-4.3-15.6-9.6-48.1,3-52l-92.9,28.9l23.3,93.4l97.9-30.4C1209.3,832.4,1192.6,807.4,1187.6,789.6
	z"/>
<path class="st9" d="M543,241.6c0.2-46.1,33.9-76.2,64.7-76.2c30.8,0,50.6,32,51.3,76.2c1.7,109.8-25.1,178.3-51.3,206.6
	C581.1,416.9,542.6,361.4,543,241.6z"/>
<path class="st10" d="M579.3,209.5c0.6,62.8,34.8,113.7,77.8,113.7S887.4,264.8,887.4,202S890.5-0.4,736.1,0.1
	C618.3,0.4,578.2,90.3,579.3,209.5z"/>
<path class="st9" d="M863.8,245c-82.1,44.8-131.5,55.8-210-4.2s45.9-146.8,45.9-146.8S826.2-4,841.1,16.6c2.3,3.2,26,9.9,44.1,40.1
	C910.5,98.7,914.1,217.6,863.8,245z"/>
<path class="st11" d="M714.9,431.1c41.5,0,75.1,3.2,75.1,7.1c0,1.7-6.2,3.3-16.7,4.5l-0.1,0.1c-15.5,1.3-28.4,18.5-28.3,43.9h0
	c0.1-25.4-12.8-41.3-28.4-41.3h-0.1c-0.5,0-1,0-1.5,0c-41.5,0-75.1-3.2-75.1-7.1C639.9,434.3,673.5,431.1,714.9,431.1z"/>
<rect x="662.5" y="342.7" class="st12" width="112" height="169.5"/>
<path class="st8" d="M488.5,599.9l2.6-59.6c17.4-15.7,104.8-46.4,140.3-48.3l166.7,1.5c52.8,11.8,106.4,29.9,123.7,53.6
	c31.8,42.5-43.3,74.2-40.7,118.6c4,44.1-0.2,65.9-4.9,78.8c-0.9,5.8-12,24.5-12,24.5l-36.8,23.6H616.8l-34-18.1
	c0,0-25.6,26.2-31.1-30c-5.5-56.2-37.5-160.6-37.5-160.6L488.5,599.9z"/>
<polygon class="st13" points="796.3,1337.5 685,1385.8 683.2,1110.5 825,1101.6 "/>
<path class="st13" d="M869,1018.1c20.7,58,29,120.3,35.6,165.5c6.1,42.3-1.4,178.7-174.1,176.1c-200.2-3-227.1-76.9-225.2-169
	c2-92.1,29.3-187.8,29.3-187.8L869,1018.1z"/>
<path class="st13" d="M746.5,2172.4c6.6-27.4,21.3-25.1,52.5-22.8c56.6,4.3,97.6,55.4,123.7,61.4c20.6,4.7,87.9,7,83.6,46.6
	l-7.4,28.3l-133.2-12.1l-50.2-16.1l-39.5,14.2l-37.6-14.2C738.3,2236.3,741.1,2195.2,746.5,2172.4z"/>
<polygon class="st14" points="738.3,2257.7 738.3,2286 806,2286 815.4,2257.7 851.5,2286 998.8,2286 1006.3,2257.7 "/>
<path class="st15" d="M855.5,2179.1c-15.5-1.3-26.5,1.7-38.2,10.7c-12.3,9.4-53.4,16-59.9-5.3c-6.6-21.3,9-46,7.4-70.6
	c-1.6-24.6-27.8-84.4-32.7-137.4l103.4,12.2c0,44.2-12.7,134.4,22.7,185.3C860.8,2177.8,857.8,2179.3,855.5,2179.1z"/>
<path class="st13" d="M551.4,2172.4c6.6-27.4,21.3-25.1,52.5-22.8c56.6,4.3,97.6,55.4,123.7,61.4c20.6,4.7,87.9,7,83.6,46.6
	l-7.4,28.3l-133.2-12.1l-50.2-16.1l-39.5,14.2l-37.6-14.2C543.2,2236.3,545.9,2195.2,551.4,2172.4z"/>
<polygon class="st14" points="543.2,2257.7 543.2,2286 610.9,2286 620.3,2257.7 656.3,2286 803.7,2286 811.1,2257.7 "/>
<path class="st15" d="M660.4,2179.1c-15.5-1.3-26.5,1.7-38.2,10.7c-12.3,9.4-53.4,16-59.9-5.3c-6.6-21.3,9-46,7.4-70.6
	c-1.6-24.6-27.8-84.4-32.7-137.4l103.4,12.2c0,44.2-12.7,134.4,22.7,185.3C665.6,2177.8,662.6,2179.3,660.4,2179.1z"/>
<path class="st13" d="M888.4,1088.4c16.7,75.5,18.4,95.3,17.4,164.8c-1.3,88-27.5,822.7-25.5,879l-135.2,0
	c-37.5-322.6-7.8-787-53.8-1051.3L888.4,1088.4z"/>
<path class="st14" d="M676.4,1080.9l52.8,1.4c45.7,264.5,16.1,727.9,53.6,1049.9l-37.5,0C707.6,1809.6,722.3,1345.2,676.4,1080.9z"
	/>
<polygon class="st13" points="795.5,1336.4 685.2,1388.1 655.9,1126.1 814.4,1133 "/>
<path class="st13" d="M503.1,1261.2c-3.6-128.7,17.8-188.7,17.8-188.7l213.8-2.9c17.9,367.7-59.5,503.2-60.2,1064.5l-135.2,0
	C492.4,1638.2,506.9,1396.1,503.1,1261.2z"/>
<path class="st14" d="M503.1,1261.2c-2.3-81.7,5.5-135.8,11.5-164.3l76.5-5.6c-13.1,86.3-34.3,281.5-32.7,435.9
	c2.2,213.9,7.4,513.8,14,607l-33,0C492.4,1638.2,506.9,1396.1,503.1,1261.2z"/>
<path class="st8" d="M742.3,1209.4c-103.2,0.9-182.4-2-239.9-25.8c1.1-103.3,43-233.4,48.8-306.1c2.3-19.4,6.1-89.5,0-138.6
	l324.8,5.5c-5.9,30.1-30.8,48.2-31.8,76c4.1,150.8,54.6,242.3,62.6,363.2C893.3,1201.8,834.1,1208.6,742.3,1209.4z"/>
<path class="st1" d="M551.3,877.5c2.1-17.7,5.5-78.2,1.3-125.9c-0.3-2.2-0.6-4.7-0.9-7.2c-1.7-17.1-5.8-38.6-10.7-60.2
	c-0.2-1.6-0.5-3.3-0.9-4.9l2-66.5c0,34.9,24.2,162.8,97.8,159.7h183c17.4,0,45.9-5.9,53.2-28c0,0,0,0.1,0,0.1c0,0.1-0.1,0.3-0.1,0.4
	c-6.1,29.8-30.6,47.8-31.7,75.4c0,0,0,0.1,0,0.1c-49.7-7.1-165.2-5.8-237.1,18.5c-29.6,10-32.9,95.4-33.5,128.7
	c-1.3,72.1-18.5,170.3-24.1,230.1c-12.4-3.1-36.3-9.7-47.2-14.2C503.6,1080.3,545.5,950.2,551.3,877.5z"/>
<path class="st16" d="M524.4,578.5"/>
<circle class="st13" cx="684" cy="620.2" r="11.3"/>
<circle class="st13" cx="804.1" cy="620.2" r="11.3"/>
<circle class="st13" cx="691.5" cy="717.8" r="11.3"/>
<circle class="st13" cx="811.6" cy="717.8" r="11.3"/>
<ellipse class="st13" cx="676.5" cy="809.9" rx="11.3" ry="9.3"/>
<ellipse class="st13" cx="796.6" cy="809.9" rx="11.3" ry="9.3"/>
<circle class="st13" cx="676.5" cy="890.4" r="11.3"/>
<circle class="st13" cx="796.6" cy="890.4" r="11.3"/>
<circle class="st13" cx="676.5" cy="984.2" r="11.3"/>
<circle class="st13" cx="800.4" cy="984.2" r="11.3"/>
<circle class="st13" cx="676.5" cy="1078" r="11.3"/>
<circle class="st13" cx="804.1" cy="1078" r="11.3"/>
<path class="st12" d="M774.9,420.9c-89.5-0.1-110.7-47-127.5-76.7c-14.9-21.6-26.9-99.8-28.3-125.2l69.4,0"/>
<path class="st12" d="M596.4,261c6.9,21.9,25.2,35.6,40.8,30.7s16.8-24.8,9.9-46.7s-19.4-37.4-35-32.5
	C596.5,217.4,589.4,239.2,596.4,261z"/>
<path class="st17" d="M766.9,51.8c67.9,0,122.8,52.2,122.9,124.6c0,9-3.5,27.1-3.4,44.7c0,21.3,3.5,42.2,3.5,53.5
	c-0.6,87.1-55.1,147.4-114.9,146.4c-34-0.6-67.8-24-92.5-65.7c-9.4-16-10.5-41.6-10.5-41.6V120.4c0,0,0.5-24.7,12.2-35.4
	C706.2,64.8,734.6,51.8,766.9,51.8z"/>
<path class="st18" d="M728.3,229.6c0,8.2,6.7,15,15,15s15-6.6,15-14.8c0-8.2-6.7-15-15-15S728.3,221.4,728.3,229.6z"/>
<path class="st19" d="M821.2,300.4c-6.1,11.3-15.9,13.4-15.9,13.4c-9,0.1-19.9-1.7-27.2-10.7c-3.9-4.8,1-15.1,5.6-12
	c5.5,3.6,15,10.3,22.2,9c8.1-1.4,9.9-5.1,13.1-7.2C821.7,291.1,823.4,296.3,821.2,300.4z"/>
<line class="st20" x1="808" y1="353" x2="788.3" y2="353"/>
<line class="st21" x1="818.8" y1="347.3" x2="767.8" y2="347.3"/>
<path class="st18" d="M826,229.6c0,8.2,6.7,15,15,15s15-6.6,15-14.8c0-8.2-6.7-15-15-15S826,221.4,826,229.6z"/>
<path class="st10" d="M881.3,50.2C856.5,9.6,819.7-0.8,736.1,0.1c-96.6,1-134.6,219.7-134.6,219.7c22.9,1.6,29.2,28.4,54.3,29
	c9.1,0,16.4-7.3,16.4-16.4h0c0-17.4-2.1-66.5,24.8-95.2l-1.9,47c16-8.1,57.3-14.7,102.6-14.9c51.4-0.2,83.4,14.9,83.4,14.9
	C890.9,150.8,907.1,92.6,881.3,50.2z"/>
<ellipse class="st17" cx="785.6" cy="399.8" rx="39" ry="30.9"/>
<line class="st22" x1="862.2" y1="189.7" x2="829.8" y2="185.5"/>
<line class="st22" x1="711" y1="193.1" x2="754.3" y2="185.5"/>
<path class="st23" d="M743.8,499.5l0.6,61.8c-27.5,1.1-88.1,2.3-132.7,18.3c0.4,58.9,29.9,119,28.9,177
	c-1,58.1-30.8,53.2-27.6,139.8c6,159.4-23.5,319.1-23.5,319.1"/>
<path class="st13" d="M639.9,438.2c0,3.9,33.6,7.1,75.1,7.1c0.5,0,1,0,1.5,0h0.1c15.6,0,28.5,15.9,28.4,41.3h0
	c-0.1-25.4,12.8-42.5,28.3-43.9l0.1-0.1c10.4-1.2,16.7-2.8,16.7-4.5c4.8,8.2,8.3,44.1,8.1,61.3c-11.3,6.2-39.4,8.7-53.4,9
	c-22.8,0.6-89.9-1.6-113.4-9C631,482.3,635.1,446.4,639.9,438.2z"/>
<polygon class="st14" points="789.4,1329.1 744.8,1398 743.8,1359.4 "/>
<g>
	<path class="st8" d="M735.1,1031.3L440.3,921.9c-23-8.5-35.8-32.6-31-55.9l0.3-1.3l60.7-292.7c5.7-27.4,32.5-45,59.9-39.3
		c27.4,5.7,45,32.5,39.3,59.9l-60.7,292.7L478.1,828l288.4,125.3c21.3,9.3,31.1,34.1,21.8,55.4
		C779.4,1029.2,755.9,1039,735.1,1031.3z"/>
</g>
<path class="st4" d="M807.4,1013.1c0,0-38.6-16.7-60-25.2"/>
<path class="st8" d="M739.6,941.6c17.6,7.3,57.7,23.9,57.7,23.9c6.1,11.3-17.3,71-29,77.9c-12.8-4.6-57.5-21.1-57.5-21.1
	c-6.9-2.7,2.6-50.3,2.6-50.3L739.6,941.6z"/>
<path class="st5" d="M813.2,979.1c24.5,10.4,53.4,7.7,79.8,23.6c31.2,18.7,50.9,34.5,40.2,45.7c-6.9,7.2-51-29.8-73.3-30
	c-3.6,0-35.9-13.7-35.9-13.7L813.2,979.1z"/>
<g>
	<path class="st6" d="M1025.5,1116.4l-156.2-38.1c-4.6-1.1-7.5-5.8-6.3-10.4l24.6-101.1c1.1-4.6,5.8-7.5,10.4-6.3l156.2,38.1
		c4.6,1.1,7.5,5.8,6.3,10.4l-24.6,101.1C1034.8,1114.7,1030.1,1117.5,1025.5,1116.4z"/>
	
		<rect x="890.6" y="993.2" transform="matrix(0.9715 0.2369 -0.2369 0.9715 269.7816 -188.7004)" class="st13" width="59" height="70.1"/>
</g>
<path class="st5" d="M783.8,1039.3c32.7,16,9.2,20.3,84.2,59.2c13.4,7,38.1,21.3,64.1,10.7c24-9.7,47.3-34.3,28-39.7
	c-38.9-10.9-96.6-45.7-86.8-51.9l-33.6-20.9L783.8,1039.3z"/>
<rect x="190.7" y="1554.4" class="st14" width="1247.6" height="289.7"/>
<text transform="matrix(1 0 0 1 455.3345 1768.7246)" class="st24 st25 st26">HOLDER</text>
<text transform="matrix(1 0 0 1 448.8481 1762.2383)" class="st8 st25 st26">HOLDER</text>
<line class="st27" x1="1431.7" y1="586.6" x2="1656.3" y2="586.6"/>
<g>
	<line class="st27" x1="1393.5" y1="676.8" x2="1528.1" y2="676.8"/>
	<line class="st27" x1="1393.5" y1="711.4" x2="1498" y2="711.4"/>
	<line class="st27" x1="1393.5" y1="745.9" x2="1468" y2="745.9"/>
</g>
</svg>
