<?xml version="1.0" encoding="utf-8"?>
<!-- Generator: Adobe Illustrator 22.0.1, SVG Export Plug-In . SVG Version: 6.00 Build 0)  -->
<svg version="1.1" id="Layer_1" xmlns="http://www.w3.org/2000/svg" xmlns:xlink="http://www.w3.org/1999/xlink" x="0px" y="0px"
	 viewBox="0 0 1256.6 939.4" style="enable-background:new 0 0 1256.6 939.4;" xml:space="preserve">
<style type="text/css">
	.st0{fill:#384261;}
</style>
<g>
	<g>
		<path class="st0" d="M318.3,297.7c15-11.4,33.7-35.3,33.7-71.5c0-49.8-46.1-106.8-155.5-106.8C103.7,119.3,0,178.4,0,271.7
			c0,53.4,34.2,86.6,77.2,86.6c34.7,0,64.8-19.7,64.8-55.5c0-11.4-6.7-23.8-21.3-23.8c-11.9,0-24.9,10.9-24.9,26.4
			c0,8.3-8.3,18.1-19.2,18.1c-14,0-36.8-12.4-36.8-55.5c0-65.8,79.8-114.6,156.6-114.6c71,0,104.7,36.8,104.7,77.8
			c0,33.7-13.5,52.9-30.6,52.9c-14.5,0-14.5-4.1-31.1-4.1c-13,0-23.8,11.9-23.8,25.4c0,15.5,11.9,21.8,21.8,21.8
			c20.7,0,29.5-10.4,39.9-10.4c11.4,0,36.3,16.1,36.3,53.9c0,47.7-26.4,78.3-68.9,78.3c-15,0-30.6-7.8-47.2-18.1
			c7.8-16.6,12.4-36.3,12.4-60.1c0-44.6-8.3-66.9-8.3-121.3c0-14,4.1-27.5,16.1-29c10.9-1.6,19.2-10.4,19.2-22.3
			c0-11.9-10.4-22.3-29-22.3c-32.7,0-54.4,46.7-54.4,90.2c0,52.4,8.3,71,8.3,113c0,10.4-0.5,18.7-2.1,26.4
			c-20.2-12.4-42-23.3-65.8-23.3c-34.2,0-61.2,23.8-61.2,50.3c0,33.7,31.1,55.5,65.3,55.5c29.5,0,57.5-8.8,77.8-27
			c20.2,11.4,44.1,21.3,72.6,21.3c67.9,0,117.2-39.4,117.2-105.2C365.5,329.3,336.4,303.9,318.3,297.7z M104.7,454.2
			c-17.1,0-32.1-6.7-32.1-19.7c0-9.3,8.3-20.2,22.3-20.2c15,0,31.1,11.9,50.3,25.9C135.3,450.1,121.8,454.2,104.7,454.2z"/>
		<path class="st0" d="M1227,295.6c-11.9,0-20.7,9.3-20.7,26.4c-0.5,17.6-2.1,44.6-13,70c-9.9,22.8-33.7,43.5-44.6,43.5
			c-8.8,0-13-11.4-13-30.1c0-31.6,18.7-59.1,18.7-81.9c0-19.2-14-31.6-28-31.6c-11.9,0-17.1,4.1-22.3,19.7
			c-8.3,24.9-16.6,73.1-16.6,95.4c0,2.4,0,4.8,0.1,7.2c-10.7,12.8-22.9,24.4-32.3,24.4c-8.8,0-16.6-5.2-16.6-17.1
			c0-23.3,17.1-51.3,17.1-79.3c0-14-17.1-26.4-33.2-26.4c-10.4,0-16.1,2.6-24.9,4.7c3.6-9.3,6.2-17.6,6.2-24.4
			c0-27-17.6-40.9-42.5-40.9c-27.5,0-46.7,22.3-46.7,45.1c0,22.3,17.6,37.8,39.4,46.1c-13,23.8-30.6,48.2-38.9,59.6
			c-1.2,1.6-2.5,3.3-3.7,5c-11.6,15.1-29.6,33.9-58,33.9c-7.8,0-32.1-1.6-40.4-24.9c29-13.5,72.6-52.4,72.6-86.1
			c0-27-15.6-42.5-42.5-42.5c-39.9,0-80.4,49.2-80.4,106.8c0,2.8,0.1,5.4,0.3,8c-11.9,15.4-23.7,27.2-35.6,27.2
			c-23.3,0-44.6-16.6-53.9-29.5c30.1-9.9,58.6-40.4,58.6-70.5c0-23.8-15-37.8-36.3-37.8c-16.1,0-31.6,13.5-44.6,29
			c19.2-34.7,36.8-79.8,36.8-112.5c0-27-16.6-43.5-33.2-43.5c-45.6,0-67.9,54.4-67.9,158.1c0,26.2-1.4,60.2-2.4,85.3
			c-10.9,13.9-24.4,26.7-34.4,26.7c-14,0-17.1-29-17.1-58.6c0-29,20.7-46.7,20.7-62.7c0-10.4-8.8-19.7-18.1-19.7
			c-13,0-21.3,11.9-26.4,21.3c-5.2-17.6-21.3-28-41.5-28c-30.1,0-79.3,50.3-79.3,127.5c0,27,16.6,54.9,50.3,54.9
			c21.3,0,41.5-17.1,54.4-43c6.2,21.8,18.7,42,45.1,42c18.6,0,33.3-8.5,45.4-19.6c1.3,13.9,7,20.1,20.5,20.1
			c13,0,25.9-8.8,25.9-23.3c0-10.4-3.1-22.8-3.1-34.2c25.4,13.5,49.2,52.9,87.1,52.9c26.3,0,44.1-14.6,57.8-30.8
			c14.2,26.3,43,38.6,72.8,38.6c42.9,0,69.5-26.1,85.7-46.5c1-1.1,2-2.4,3-3.8c0.1-0.1,0.2-0.2,0.2-0.3c0.5-0.6,0.9-1.2,1.3-1.8
			c1.5-1.9,2.7-3.7,3.7-5.3c11.2-15.9,28.3-40.9,42.5-65.2c5.2,0.5,9.8,0.5,14.5,0.5c5.2,0,8.3,2.6,8.3,8.3
			c0,12.4-13.5,37.3-13.5,59.1c0,30.1,23.3,51.3,52.9,51.3c21.4,0,37.7-11.3,50.7-24.8c6.7,15.2,19.3,25.3,42.1,25.3
			c19.2,0,43-15.6,60.1-33.7c-3.6,250.9-86.6,466-253,466c-104.7,0-171.1-83.5-171.1-161.7c0-77.8,54.9-162.3,149.3-162.3
			c80.3,0,111.5,45.1,111.5,98.5c0,45.6-29,83.5-78.8,83.5c-43.5,0-58.6-26.4-58.6-46.1c0-10.9,20.7-18.1,20.7-34.2
			c0-11.9-7.8-22.3-24.4-22.3c-15,0-36.8,15-36.8,53.4c0,43,36.3,87.1,102.1,87.1c65.8,0,118.7-57,118.7-120.3
			c0-74.7-50.8-134.3-154.5-134.3C792.6,546.5,734,648.6,734,743c0,94.3,63.8,196.5,211,196.5c214.6,0,302.2-265.9,302.2-545.3
			c0-35.3,9.3-50.3,9.3-65.3C1256.6,309.1,1242.1,295.6,1227,295.6z M484.7,386.3c-7.3,18.7-26.4,58.6-35.3,58.6
			c-10.4,0-13.5-9.9-13.5-25.4c0-62.2,24.4-100.6,42-100.6c19.7,0,1.6,39.9,1.6,53.9C479.5,378,480.6,382.2,484.7,386.3z M621,324.1
			c1-87.6,16.1-124.9,28.5-124.9c5.7,0,8.3,5.2,8.3,12.4C657.8,239.6,638.1,289.4,621,324.1z M684.8,326.7c2.6,0,4.7,2.1,4.7,7.8
			c0,28.5-33.2,49.8-51.8,49.8C650.6,361.4,672.9,326.7,684.8,326.7z M837.2,322.6c4.7,0,7.8,5.7,7.8,14.5c0,23.3-14,40.4-33.2,52.4
			C812.8,357.3,828.4,322.6,837.2,322.6z M967.3,319.4c-13-3.6-20.2-11.9-20.2-19.2c0-7.8,4.1-13,11.4-13c6.2,0,13,3.6,13,13.5
			C971.5,306,969.9,312.7,967.3,319.4z"/>
		<path class="st0" d="M432.5,165c5.3-1.2,11.1-4.1,14.6-7l-8.7-36.8c-2.8-11-9.3-33-13.1-43.7l0.5-0.1l33.1,68
			c5.5,1.3,10.8,1.1,15.7,0c5.1-1.2,9.9-3.6,14.4-7.1L488,62.7l0.5-0.1c1.4,11.3,5.4,33.9,7.9,44.9l8.7,36.8
			c4.5,1,10.9,0.9,16.2-0.3c5.6-1.3,11.4-4.2,14.8-7L508.4,20c-5.6-0.9-14.7-0.2-23.1,1.8c-8.2,1.9-16.5,5.4-21.1,8.7l1.7,76.9
			l-33.5-69.4c-5.6-0.9-14.5-0.3-22.7,1.7c-8.4,2-16.8,5.5-21.4,8.8l27.7,117C420.4,166.4,427,166.3,432.5,165z"/>
		<path class="st0" d="M573.5,135.9c7.5-0.8,14.7-2.9,18.3-5.3l2.2-21.6l31-3.1l6.4,20.7c4,1.6,11.6,2.3,19.1,1.5
			c7.3-0.7,14.4-2.9,17.7-5.2L624.1,6.6c-8-1.7-16.7-1.9-25.4-1.1c-8.6,0.9-16.2,2.9-23.8,6l-20,122.9
			C558.8,136,566.1,136.7,573.5,135.9z M601.4,31.1L602,31l15.8,50.3l-21.7,2.2L601.4,31.1z"/>
		<path class="st0" d="M723.7,122.7l0.4-45.7l5,0l23.8,44.7c5.4,3.1,12.6,4.8,19.8,4.8c7.2,0.1,12.6-1.5,18.2-4.5l-27-47.2
			c13.9-4.9,23-17.3,23.1-34.9c0.2-27.2-20.4-39.2-58.9-39.5L688.7,0l-1,122.4c4.1,2,11.3,3.5,18.2,3.6
			C712.5,126,719.5,124.6,723.7,122.7z M724.5,24.9l10.3,0.1c11.2,0.1,16.9,5.5,16.8,15.1c-0.1,10.3-6.1,15.8-17.4,15.7l-9.9-0.1
			L724.5,24.9z"/>
		<path class="st0" d="M835.4,127.3c3.9,2.4,10.7,4.6,17.5,5.3c6.8,0.7,13.9,0,18.1-1.5l4.5-42.4L922,15.5
			c-3.7-2.6-11.1-4.8-19.1-5.6c-7.5-0.8-15.4-0.2-19.4,1.6L861,57.6L848.4,7.8c-3.5-2.6-11.1-4.8-18.6-5.6
			c-8.1-0.8-15.9-0.2-19.9,1.5l30,80.8L835.4,127.3z"/>
		<path class="st0" d="M949.8,74.7c3.2,0.6,6.4,0.3,9.9-1l14.1-19.4c6.6-9.2,10.7-16.3,11.6-21c2.1-10.6-3.8-19.3-14.4-21.3
			c-10.8-2.1-19.6,3.7-21.6,14.1c-1.3,6.9,1.3,13.1,6.7,17.3l-14.2,26.9C944.2,72.7,946.8,74.1,949.8,74.7z"/>
		<path class="st0" d="M1025.7,169.3c33.3,9.9,55.8,1.2,63.6-24.8c8.3-27.4-12-41.1-27-51.1c-11.4-7.7-16.7-11.5-14.8-17.9
			c1.5-5.2,7.7-6.9,16.3-4.3c7.8,2.3,16.8,8,22.3,14.2c9.8,2.5,18-4.8,21.2-16.2c-7.5-10.7-22.1-20.5-36.2-24.7
			c-30.4-9-53-0.6-60.1,23.4c-7.1,23.8,10.7,37.8,25.2,48.3c12.5,8.6,18.9,13,16.1,21.7c-1.9,6.2-10.1,8.1-22,4.5
			c-8.3-2.5-16.9-8.8-21.8-15.7c-9.7-2.7-18.1,5.1-21.4,16.9C995,154.5,1010.7,164.8,1025.7,169.3z"/>
	</g>
	<g>
		<g>
			<path class="st0" d="M261.4,853.8c34.9-3.4,81.4-16.1,101.1-44.9c20.5-30,19.1-73.1,7.1-108.4c-41.3,0.7-88.4,11.7-112.7,44.9
				C235.9,774.2,246.3,822.7,261.4,853.8z"/>
			<path class="st0" d="M366.8,666.4c1.9-38.3-10.5-82.1-42.8-100.6c-38.2-21.8-95.5-9.4-137.5,7.8c1.5,35.4,19.5,79.5,53.4,95.5
				C278.3,687.3,327.6,677.5,366.8,666.4z"/>
			<path class="st0" d="M404.4,824.9c35,1.5,82.9-4.6,106.4-30.4c24.5-26.9,29.2-69.7,22.1-106.3c-41-5.1-89.2-0.7-117.9,28.8
				C390.2,742.5,393.8,791.9,404.4,824.9z"/>
			<path class="st0" d="M408.7,639c35.6,23.4,85.8,20.4,126.1,15c7.3-37.7,1-82.8-28.5-105.5c-34.9-26.9-93.2-22.6-137.2-11.4
				C365.7,572.2,377.4,618.4,408.7,639z"/>
			<path class="st0" d="M550.1,816.1c34.6,6.4,83,7,110.1-15.3c28.1-23.1,38.8-64.9,36.9-102.2c-40.1-10.8-88.7-13.3-121.4,12
				C547.5,732.4,544.1,782,550.1,816.1z"/>
			<path class="st0" d="M580.3,632.6c32.2,28.2,82.6,32.2,123.5,32.5c12.5-36.3,12.5-81.9-13.7-108.5c-31-31.5-89.6-35.4-134.9-30.5
				C546.9,560.5,552,607.9,580.3,632.6z"/>
			<path class="st0" d="M123.9,682.9c-40.2,15.1-66.2,55.2-77.6,95.3c35.5,16.7,81.4,30.3,117.2,16.7c36-13.6,63.2-50.3,80.3-86.4
				C210.6,685.3,163.6,667.9,123.9,682.9z"/>
		</g>
	</g>
</g>
</svg>
