<?xml version="1.0" encoding="utf-8"?>
<!-- Generator: Adobe Illustrator 22.0.1, SVG Export Plug-In . SVG Version: 6.00 Build 0)  -->
<svg version="1.1" id="Layer_1" xmlns="http://www.w3.org/2000/svg" xmlns:xlink="http://www.w3.org/1999/xlink" x="0px" y="0px"
	 viewBox="0 0 1785 1699.2" style="enable-background:new 0 0 1785 1699.2;" xml:space="preserve">
<style type="text/css">
	.st0{clip-path:url(#SVGID_2_);}
	.st1{fill:#DB5253;}
	.st2{fill:#FFFFFF;}
	.st3{fill:#704316;}
	.st4{fill:#8E6134;}
	.st5{fill:#7A4D20;}
	.st6{fill:#D2D2D2;}
	.st7{fill:#F49D73;}
	.st8{fill:#E6E6E6;}
	.st9{fill:#6A7493;}
	.st10{fill:none;stroke:#FFFFFF;stroke-width:141.75;stroke-linecap:round;stroke-miterlimit:10;}
	.st11{fill:#384261;}
	.st12{fill:#F99D73;}
	.st13{fill:#F9B086;}
	.st14{fill:#32150B;}
	.st15{fill:#F49369;}
	.st16{fill:none;stroke:#EF6667;stroke-width:24.0975;stroke-linecap:round;stroke-miterlimit:10;}
	.st17{fill:none;stroke:#C25D42;stroke-width:13.7812;stroke-linecap:round;stroke-miterlimit:10;}
	.st18{fill:#704316;stroke:#8E6134;stroke-width:19.689;stroke-linecap:round;stroke-miterlimit:10;}
	.st19{fill:none;stroke:#384261;stroke-width:21;stroke-miterlimit:10;}
	.st20{fill:#6C98A7;stroke:#6C98A7;stroke-width:21;stroke-linejoin:round;stroke-miterlimit:10;}
	.st21{fill:#FEF2A7;}
	.st22{fill:#BD3435;}
	.st23{fill:#EF6667;}
	.st24{fill:none;stroke:#F49D73;stroke-width:94.5;stroke-miterlimit:10;}
	.st25{fill:#F4E89D;}
</style>
<g>
	<defs>
		<path id="SVGID_1_" d="M19.2,1034.3c0,150.1,48.7,288.9,131.3,401.4c-233.2,296.6-26.1,561.1,285.2,225.6
			c81.8,34.5,171.7,53.6,266.1,53.6c79.3,0,155.4-13.5,226.2-38.3c183.1,206.1,981.8-345.6,981.8-642.4
			C1909.7,658.4,1029.6-2.8,652.6-2.8c-134.8,0-355.3,321.9-317.1,462.6C145.3,580.6,19.2,792.8,19.2,1034.3z"/>
	</defs>
	<clipPath id="SVGID_2_">
		<use xlink:href="#SVGID_1_"  style="overflow:visible;"/>
	</clipPath>
	<g class="st0">
		<path class="st1" d="M19.2,1034.3c0,281.8,171.7,523.6,416.4,627c81.8,34.6,171.7,53.7,266.2,53.7c377,0,682.6-304.8,682.6-680.7
			s-305.6-680.7-682.6-680.7S19.2,658.4,19.2,1034.3z"/>
		<path class="st2" d="M672,282.3c0,89.5,79.4,162,177.4,162c31.9,0,61.9-7.7,87.8-21.2c53.5-27.9,89.6-80.5,89.6-140.8
			c0-89.5-79.4-162-177.4-162S672,192.8,672,282.3z"/>
		<path class="st2" d="M356.6,341.2c0,89.5,79.4,162,177.4,162c31.9,0,61.9-7.7,87.8-21.2c53.5-27.9,89.6-80.5,89.6-140.8
			c0-89.5-79.4-162-177.4-162S356.6,251.8,356.6,341.2z"/>
		<ellipse transform="matrix(0.88 -0.4749 0.4749 0.88 -33.1833 304.9648)" class="st2" cx="587" cy="218.2" rx="100.7" ry="99.2"/>
		<ellipse class="st2" cx="743.7" cy="175.4" rx="106.6" ry="93.7"/>
		<ellipse class="st2" cx="690.9" cy="360" rx="101.6" ry="119.8"/>
		<path class="st3" d="M453.2,832.8c0.2-64.5,47.5-106.7,90.6-106.7c43.1,0,70.9,44.8,71.9,106.7c2.4,153.8-35.1,249.6-71.9,289.2
			C506.5,1078.2,452.6,1000.5,453.2,832.8z"/>
		<path class="st4" d="M504.1,787.9c0.8,87.9,48.8,159.2,109,159.2s109-71.3,109-159.2s-46.5-230.3-106.7-230.3
			C555.2,557.5,502.5,620.9,504.1,787.9z"/>
		<path class="st5" d="M902.3,837.6c-115,62.7-184.1,78.1-294-5.8s64.3-205.5,64.3-205.5s228.5-88.7,249.3-59.9
			c3.2,4.4,17.4,22.4,20.2,26.9C995.8,677.7,972.8,799.2,902.3,837.6z"/>
		<path class="st6" d="M1175,1306.8c10-14.8,54.8,6.1,74.5,19.5c22.5,15.4,52,44.1,44.7,57.3l-18,28.4l-86.6-13.4l-33.1-62.6
			L1175,1306.8z"/>
		<path class="st7" d="M1256.9,1214.1c9.6-7.9,18.6-12.5,25.1-15.2c0,0,264.2,0,273.2,0s14.2,5.6,8.3,14.2
			c-9.4,13.7-25.5,34.8-44.9,52.4c-38.2,34.6-176.9,2-204.1,23.5c-13,10-63.6,76.3-107,154.5l-82.6-45.9
			C1164,1327.2,1224.1,1239.4,1256.9,1214.1z"/>
		
			<rect x="1159.4" y="842.3" transform="matrix(-1 -4.490598e-11 4.490598e-11 -1 2844.5156 2013.4518)" class="st2" width="525.8" height="328.8"/>
		<path class="st8" d="M1175,1306.8l-101.3,160.6l-104.3-196.2c-18.4-34.6-61.3-47.7-95.8-29.3c-34.6,18.4-47.7,61.3-29.3,95.8
			l161.6,304.1c11.9,22.3,34.7,36.6,59.9,37.6c0.9,0,1.8,0.1,2.6,0.1c24.3,0,46.9-12.4,59.9-33l165.8-262.7
			c-7.9,12.5-50.4,0-72.9-15.3C1201.6,1354.8,1164.7,1323.2,1175,1306.8z"/>
		<path class="st9" d="M672.9,1098c58,0,105.1,4.5,105.1,10c0,2.4-8.7,4.6-23.3,6.3l-0.1,0.1c-21.8,1.9-39.8,25.8-39.6,61.4h0
			c0.1-35.6-17.9-57.8-39.8-57.8H675c-0.7,0-1.4,0-2.1,0c-58,0-105.1-4.5-105.1-10C567.9,1102.5,614.9,1098,672.9,1098z"/>
		<rect x="599.4" y="974.4" class="st7" width="156.8" height="237.3"/>
		<path class="st2" d="M355.9,1334.4l3.6-83.4c24.4-22,146.8-65,196.4-67.7l233.3,2.1c73.9,16.5,149,41.9,173.2,75
			c44.5,59.5-60.7,103.9-57,166c5.7,61.7-0.3,92.2-6.8,110.3c-1.3,8.2-16.8,34.2-16.8,34.2l-51.5,33.1H535.5l-47.5-25.3l-43.5-41.9
			l-51-224.9L355.9,1334.4z"/>
		
			<rect x="451.9" y="1522.3" transform="matrix(-1 -4.485358e-11 4.485358e-11 -1 1305.833 3364.7585)" class="st2" width="402" height="320.3"/>
		<path class="st8" d="M854,1643.1c1.5-38.9,36.3-64.3,44.6-106.4c-10.2,31-50.1,39.2-74.5,39.2H568c-48.9,0-88.9-1-88.9-49.9
			l-35.2-9l0,206C495.9,1624.7,810.9,1633.8,854,1643.1z"/>
		<path class="st10" d="M406.2,1304.4"/>
		<path class="st10" d="M406.2,1879.3"/>
		<circle class="st11" cx="629.6" cy="1362.8" r="15.9"/>
		<circle class="st11" cx="797.8" cy="1362.8" r="15.9"/>
		<circle class="st11" cx="640.1" cy="1499.4" r="15.9"/>
		<circle class="st11" cx="808.3" cy="1499.4" r="15.9"/>
		<ellipse class="st11" cx="619.1" cy="1628.4" rx="15.9" ry="13"/>
		<ellipse class="st11" cx="787.2" cy="1628.4" rx="15.9" ry="13"/>
		<circle class="st11" cx="619.1" cy="1741.1" r="15.9"/>
		<circle class="st11" cx="787.2" cy="1741.1" r="15.9"/>
		<path class="st12" d="M777.9,1083.8c-125.3-0.2-155-65.8-178.4-107.4c-20.9-30.2-37.7-139.8-39.7-175.3l97.1-0.1"/>
		<path class="st12" d="M527.9,860c9.7,30.6,35.2,49.9,57.1,42.9s23.5-34.8,13.9-65.4c-9.7-30.6-27.1-52.4-49-45.5
			S518.2,829.4,527.9,860z"/>
		<path class="st13" d="M766.7,567c95,0,171.9,73.1,172,174.4c0,12.6-4.8,38-4.8,62.5c0,29.8,5,59.1,4.8,74.8
			c-0.8,121.9-77.1,206.4-160.9,205c-47.7-0.8-94.9-33.6-129.4-92c-13.2-22.3-14.6-58.3-14.6-58.3V663.1c0,0,0.7-34.5,17.1-49.6
			C681.8,585.3,721.5,567,766.7,567z"/>
		<path class="st14" d="M712.7,816c0,11.5,9.4,20.9,21,21c11.6,0.1,21-9.2,21-20.7s-9.4-20.9-21-21
			C722.1,795.2,712.7,804.5,712.7,816z"/>
		<path class="st15" d="M842.6,915.1c-8.6,15.8-22.3,18.8-22.3,18.8c-12.6,0.1-27.8-2.4-38.1-14.9c-5.4-6.7,1.3-21.1,7.8-16.9
			c7.6,5,21,14.4,31.1,12.6c11.4-2,13.9-7.2,18.4-10.1C843.4,902.1,845.8,909.3,842.6,915.1z"/>
		<line class="st16" x1="824.2" y1="988.8" x2="796.7" y2="988.8"/>
		<line class="st17" x1="839.3" y1="980.8" x2="767.9" y2="980.8"/>
		<path class="st14" d="M849.4,816c0,11.5,9.4,20.9,21,21c11.6,0.1,21-9.2,21-20.7s-9.4-20.9-21-21
			C858.8,795.2,849.4,804.5,849.4,816z"/>
		<path class="st4" d="M922,566.4c-18.9-17.8-45.4-69-191.1-70.8c-135.3-1.7-195.6,306.7-195.6,306.7c32.1,2.2,40.9,39.8,76,40.7
			c12.7,0,23-10.3,23-23h0c0-24.4-2.9-93.1,34.7-133.3l-2.6,65.8c22.4-11.4,80.2-20.6,143.7-20.9c72-0.3,116.7,20.9,116.7,20.9
			C940.3,705.7,961.8,624.8,922,566.4z"/>
		<ellipse class="st13" cx="792.8" cy="1054.3" rx="54.5" ry="43.3"/>
		<line class="st18" x1="900.1" y1="760.1" x2="854.7" y2="754.2"/>
		<line class="st18" x1="686" y1="765.6" x2="749" y2="754.2"/>
		<path class="st8" d="M837.1,438.3c2.3-35.6,12.4-108.3,20.6-135.3c-15.7,19-50.9,86.2-56.9,132.9L837.1,438.3z"/>
		<path class="st8" d="M761.7,446.8c-3.9-30.9-9.3-136.1-7.7-153.1c-10,33.2-26.3,121.4-26.3,158.5L761.7,446.8z"/>
		<path class="st8" d="M686.5,477.5c-5.5-46.8-36.1-126.1-52.9-146.2c6,21.1,18.2,95.3,18.3,127.1L686.5,477.5z"/>
		<path class="st8" d="M597.5,487.5c-8.1-50.4-39.4-103.3-59.6-121.9c6.8,13,37.9,104.3,37.9,128.6L597.5,487.5z"/>
		<path class="st8" d="M891,434.4c0-18.4,13.4-58,21.9-70c-9.9,5.7-38.2,31.8-46,53L891,434.4z"/>
		<path class="st8" d="M515.9,477c-2.9-15.6-29.6-52-29.6-52c17.7,1.8,47,35.5,51.5,42.6L515.9,477z"/>
		<path class="st2" d="M917.3,410.2l36,203.3c-59.7-17.2-190.4-21.5-288-2.9c-61.1,11.6-119.6,49.2-154.1,76.7L491.4,465
			C552.7,421.5,801.2,366.7,917.3,410.2z"/>
		<path class="st19" d="M713.3,1193.8l0.8,86.5c-38.4,1.6-123.3,3.2-185.7,25.6c0.5,82.5,41.9,166.5,40.5,247.9
			c-1.4,81.3-38.6,74.4-38.6,195.7"/>
		<path class="st6" d="M515.2,1640.8c13.4-2.1,15.7-46.1,12.2-79c-3.5-32.9-17-63.4-35.2-61c-18.2,2.3-62,38.1-53.4,92.7
			C443.5,1623.4,491.8,1645.3,515.2,1640.8z"/>
		<polygon class="st20" points="697.7,1615 701.6,1675.7 695.5,1677.2 673.8,1620 		"/>
		<polygon class="st21" points="703.6,1575.1 709.2,1624.9 667.4,1632.1 646.6,1583.1 		"/>
		<path class="st7" d="M669.3,1606l32.2-5.6c20.5-3.2,34.7-22.6,31.5-43.2l-11.4-84.3c-3.2-20.5-22.6-34.7-43.2-31.5l-54.7,9.4
			c-38.6,6.4-33.1,43.1-54.3,45.3l-163.2,24.3l13.9,93.5l163.2-24.3C603.1,1587.7,651.4,1609.1,669.3,1606z"/>
		<g>
			<path class="st2" d="M494.7,1500.5l-121.4,18.1l95.6-181.1c18.3-34.6,5-77.5-29.6-95.8c-34.6-18.3-77.5-5-95.8,29.6l-161,304.9
				c-12.5,23.6-10.6,52.3,4.8,74.1c13.4,18.9,35.1,29.9,57.8,29.9c3.5,0,7-0.3,10.4-0.8l259.5-38.6c-27.8,3.9-36.2-38.4-40-62.6
				C471.7,1556.3,468.6,1504.7,494.7,1500.5z"/>
		</g>
		<path class="st11" d="M567.9,1108c0,5.5,47,10,105.1,10c0.7,0,1.4,0,2.1,0h0.1c21.9-0.1,39.9,22.2,39.8,57.8h0
			c-0.1-35.6,17.9-59.5,39.6-61.4l0.1-0.1c14.6-1.7,23.3-3.9,23.3-6.3c6.7,11.5,11.7,61.8,11.3,85.8c-15.8,8.7-55.1,12.1-74.8,12.7
			c-31.9,0.9-125.9-2.2-158.8-12.7C555.4,1169.8,561.1,1119.5,567.9,1108z"/>
		<circle class="st22" cx="1618.6" cy="792.4" r="37.3"/>
		<circle class="st22" cx="1240.3" cy="792.4" r="37.3"/>
		<circle class="st22" cx="1366.4" cy="792.4" r="37.3"/>
		<circle class="st22" cx="1492.5" cy="792.4" r="37.3"/>
		<path class="st23" d="M1141.6,855.9c0-20.8,17-37.8,37.8-37.8h485.8c20.8,0,37.8,17,37.8,37.8v129.8c0,12.3-10.1,22.4-22.4,22.4
			c-12.3,0-22.4-10.1-22.4-22.4v-66.8c0-18.5-15.1-33.6-33.6-33.6c-18.5,0-33.6,15.1-33.6,33.6v89.9c0,8.9-7.3,16.2-16.2,16.2
			c-8.9,0-16.2-7.3-16.2-16.2v-55.3c0-14.7-12-26.8-26.8-26.8c-14.7,0-26.8,12-26.8,26.8v55.3c0,8.9-7.3,16.2-16.2,16.2
			c-8.9,0-16.2-7.3-16.2-16.2v-54.1c0-8.9-7.3-16.2-16.2-16.2c-8.9,0-16.2,7.3-16.2,16.2v96.1c0,8.9-7.3,16.2-16.2,16.2
			c-8.9,0-16.2-7.3-16.2-16.2V938.1c0-12.3-10.1-22.4-22.4-22.4h0c-12.3,0-22.4,10.1-22.4,22.4v58.1c0,12.3-10.1,22.4-22.4,22.4
			c-12.3,0-22.4-10.1-22.4-22.4v-83.6c0-8.9-7.3-16.2-16.2-16.2c-8.9,0-16.2,7.3-16.2,16.2v117.2c0,8.9-7.3,16.2-16.2,16.2h0
			c-8.9,0-16.2-7.3-16.2-16.2V906.6c0-12.3-10.1-22.4-22.4-22.4h0c-12.3,0-22.4,10.1-22.4,22.4v81.5c0,18.5-15.1,33.6-33.6,33.6
			c-18.5,0-33.6-15.1-33.6-33.6L1141.6,855.9z"/>
		<path class="st8" d="M1716.3,1198.9h-601.8c-20.8,0-37.8-17-37.8-37.8v-0.5h677.4v0.5C1754.1,1181.9,1737.1,1198.9,1716.3,1198.9z
			"/>
		<path class="st24" d="M1158.4,1433"/>
		<path class="st24" d="M1255.6,1279.9"/>
		<path class="st21" d="M688.7,1455.7c26.9-28.4,46.8-79.3,44.9-115.7c0,0-87.4-25.6-94.2-36s-30.8-2.6-32.3,5.6
			c-1.5,8.3-70.1,68-70.1,68c7.2,31.6,42.5,69.5,83.8,89.7L688.7,1455.7z"/>
		<path class="st25" d="M572.7,1249.9l33.1,55.7l32.9-5.1l3.4-60.6C627.9,1249.4,585.3,1239.9,572.7,1249.9z"/>
		<g>
			<path class="st25" d="M605.1,1313.7c0.6,0,1.2-0.1,1.8-0.2l32.3-5.6c5.7-1,9.5-6.4,8.5-12.2c-1-5.7-6.5-9.5-12.2-8.5l-32.3,5.6
				c-5.7,1-9.5,6.4-8.5,12.2C595.7,1310.1,600.1,1313.7,605.1,1313.7z"/>
		</g>
	</g>
</g>
<ellipse class="st2" cx="556.8" cy="897.6" rx="17.5" ry="18"/>
</svg>
