<?xml version="1.0" encoding="utf-8"?>
<!-- Generator: Adobe Illustrator 22.0.1, SVG Export Plug-In . SVG Version: 6.00 Build 0)  -->
<svg version="1.1" id="Layer_1" xmlns="http://www.w3.org/2000/svg" xmlns:xlink="http://www.w3.org/1999/xlink" x="0px" y="0px"
	 viewBox="0 0 1458 2319.5" style="enable-background:new 0 0 1458 2319.5;" xml:space="preserve">
<style type="text/css">
	.st0{fill:#6C98A7;}
	.st1{fill:#BD3435;}
	.st2{fill:#54291C;}
	.st3{fill:#693629;}
	.st4{fill:#E6E6E6;}
	.st5{fill:#6A7493;}
	.st6{fill:#F49D73;}
	.st7{fill:#FFFFFF;}
	.st8{fill:#384261;}
	.st9{fill:#8AB6C5;}
	.st10{fill:#1C283E;}
	.st11{fill:#628E9D;}
	.st12{fill:none;stroke:#FFFFFF;stroke-width:101.25;stroke-linecap:round;stroke-miterlimit:10;}
	.st13{fill:#F9B086;}
	.st14{fill:#422B27;}
	.st15{fill:#F49369;}
	.st16{fill:none;stroke:#F38486;stroke-width:17.2125;stroke-linecap:round;stroke-miterlimit:10;}
	.st17{fill:none;stroke:#E1775A;stroke-width:9.8438;stroke-linecap:round;stroke-miterlimit:10;}
	.st18{fill:none;stroke:#422B27;stroke-width:14.0625;stroke-linecap:round;stroke-miterlimit:10;}
	.st19{fill:none;stroke:#384261;stroke-width:15;stroke-miterlimit:10;}
	.st20{fill:none;stroke:#F49D73;stroke-width:67.5;stroke-miterlimit:10;}
	.st21{fill:none;stroke:#F9B086;stroke-width:67.5;stroke-linecap:round;stroke-miterlimit:10;}
	.st22{fill:#FFB287;}
	.st23{fill:none;stroke:#FFFFFF;stroke-width:96;stroke-linecap:round;stroke-linejoin:round;stroke-miterlimit:10;}
	.st24{fill:#D2D2D2;}
</style>
<circle class="st0" cx="729" cy="831.5" r="729"/>
<polygon class="st1" points="1219.6,217.4 1181.8,255 1131.4,237.5 1113.7,287.8 1060.8,293.9 1066.6,346.8 1021.5,375.3 
	1049.8,420.5 1021.5,465.7 1066.6,494.2 1060.8,547.2 1113.7,553.3 1131.4,603.5 1181.8,586 1219.6,623.6 1257.3,586 1307.7,603.5 
	1325.4,553.3 1378.4,547.2 1372.5,494.2 1417.6,465.7 1389.4,420.5 1417.6,375.3 1372.5,346.8 1378.4,293.9 1325.4,287.8 
	1307.7,237.5 1257.3,255 "/>
<path class="st2" d="M450.8,241.6c0.2-46.1,33.9-76.2,64.7-76.2s50.6,32,51.3,76.2c1.7,109.8-25.1,178.3-51.3,206.6
	C488.9,416.9,450.4,361.4,450.8,241.6z"/>
<path class="st3" d="M487.1,209.5c0.6,62.8,34.8,113.7,77.8,113.7S795.2,264.8,795.2,202S798.3-0.4,643.9,0.1
	C526.1,0.4,486,90.3,487.1,209.5z"/>
<path class="st2" d="M771.6,245c-82.1,44.8-131.5,55.8-210-4.2s45.9-146.8,45.9-146.8S734-4,748.9,16.6c2.3,3.2,26,9.9,44.1,40.1
	C818.3,98.7,821.9,217.6,771.6,245z"/>
<path class="st4" d="M903.4,846.3c-18-0.7-34.4-10.9-42.8-26.8L745.1,602.2c-2-3.8-3.5-7.7-4.5-11.7l35.9-5.3
	c23,70.7,64.7,166.1,78.4,193.3c11.6,23.3,25.1,55.9,65.4,65.4c-4.8,1.5-9.9,2.3-15.1,2.3C904.7,846.3,904,846.3,903.4,846.3z"/>
<path class="st5" d="M622.7,431.1c41.5,0,75.1,3.2,75.1,7.1c0,1.7-6.2,3.3-16.7,4.5l-0.1,0.1c-15.5,1.3-28.4,18.5-28.3,43.9h0
	c0.1-25.4-12.8-41.3-28.4-41.3h-0.1c-0.5,0-1,0-1.5,0c-41.5,0-75.1-3.2-75.1-7.1C547.7,434.3,581.3,431.1,622.7,431.1z"/>
<rect x="570.2" y="342.7" class="st6" width="112" height="169.5"/>
<path class="st7" d="M396.3,599.9l2.6-59.6c17.4-15.7,104.8-46.4,140.3-48.3l166.7,1.5c52.8,11.8,106.4,29.9,123.7,53.6
	c31.8,42.5-43.3,74.2-40.7,118.6c4,44.1-0.2,65.9-4.9,78.8c-0.9,5.8-12,24.5-12,24.5l-36.8,23.6H524.6l-34-18.1
	c0,0-25.6,26.2-31.1-30c-5.5-56.2-37.5-160.6-37.5-160.6L396.3,599.9z"/>
<polygon class="st8" points="704.1,1337.5 592.8,1385.8 591,1110.5 732.8,1101.6 "/>
<path class="st8" d="M776.7,1018.1c20.7,58,29,120.3,35.6,165.5c6.1,42.3-1.4,178.7-174.1,176.1c-200.2-3-227.1-76.9-225.2-169
	c2-92.1,29.3-187.8,29.3-187.8L776.7,1018.1z"/>
<path class="st9" d="M1175.3,2319.5H343c-17.2,0-31.3-14.1-31.3-31.3l0,0c0-17.2,14.1-31.3,31.3-31.3h832.3
	c17.2,0,31.3,14.1,31.3,31.3l0,0C1206.6,2305.5,1192.5,2319.5,1175.3,2319.5z"/>
<path class="st8" d="M654.3,2172.4c6.6-27.4,21.3-25.1,52.5-22.8c56.6,4.3,97.6,55.4,123.7,61.4c20.6,4.7,87.9,7,83.6,46.6
	l-7.4,28.3l-133.2-12.1l-50.2-16.1l-39.5,14.2l-37.6-14.2C646.1,2236.3,648.8,2195.2,654.3,2172.4z"/>
<polygon class="st10" points="646.1,2257.7 646.1,2286 713.8,2286 723.2,2257.7 759.3,2286 906.6,2286 914.1,2257.7 "/>
<path class="st11" d="M763.3,2179.1c-15.5-1.3-26.5,1.7-38.2,10.7c-12.3,9.4-53.4,16-59.9-5.3c-6.6-21.3,9-46,7.4-70.6
	c-1.6-24.6-27.8-84.4-32.7-137.4l103.4,12.2c0,44.2-12.7,134.4,22.7,185.3C768.6,2177.8,765.6,2179.3,763.3,2179.1z"/>
<path class="st8" d="M459.2,2172.4c6.6-27.4,21.3-25.1,52.5-22.8c56.6,4.3,97.6,55.4,123.7,61.4c20.6,4.7,87.9,7,83.6,46.6
	l-7.4,28.3l-133.2-12.1l-50.2-16.1l-39.5,14.2l-37.6-14.2C451,2236.3,453.7,2195.2,459.2,2172.4z"/>
<polygon class="st10" points="451,2257.7 451,2286 518.7,2286 528.1,2257.7 564.1,2286 711.5,2286 718.9,2257.7 "/>
<path class="st11" d="M568.2,2179.1c-15.5-1.3-26.5,1.7-38.2,10.7c-12.3,9.4-53.4,16-59.9-5.3c-6.6-21.3,9-46,7.4-70.6
	c-1.6-24.6-27.8-84.4-32.7-137.4l103.4,12.2c0,44.2-12.7,134.4,22.7,185.3C573.4,2177.8,570.4,2179.3,568.2,2179.1z"/>
<path class="st8" d="M796.2,1088.4c16.7,75.5,18.4,95.3,17.4,164.8c-1.3,88-27.5,822.7-25.5,879l-135.2,0
	c-37.5-322.6-7.8-787-53.8-1051.3L796.2,1088.4z"/>
<path class="st10" d="M584.1,1080.9l52.8,1.4c45.7,264.5,16.1,727.9,53.6,1049.9l-37.5,0C615.4,1809.6,630.1,1345.2,584.1,1080.9z"
	/>
<polygon class="st8" points="703.2,1336.4 593,1388.1 563.7,1126.1 722.2,1133 "/>
<path class="st8" d="M410.9,1261.2c-3.6-128.7,17.8-188.7,17.8-188.7l213.8-2.9c17.9,367.7-59.5,503.2-60.2,1064.5l-135.2,0
	C400.2,1638.2,414.7,1396.1,410.9,1261.2z"/>
<path class="st10" d="M410.9,1261.2c-2.3-81.7,5.5-135.8,11.5-164.3l76.5-5.6c-13.1,86.3-34.3,281.5-32.7,435.9
	c2.2,213.9,7.4,513.8,14,607l-33,0C400.2,1638.2,414.7,1396.1,410.9,1261.2z"/>
<path class="st7" d="M650.1,1209.4c-103.2,0.9-182.4-2-239.9-25.8c1.1-103.3,43-233.4,48.8-306.1c2.3-19.4,6.1-89.5,0-138.6
	l324.8,5.5c-5.9,30.1-30.8,48.2-31.8,76c4.1,150.8,54.6,242.3,62.6,363.2C801.1,1201.8,741.9,1208.6,650.1,1209.4z"/>
<path class="st4" d="M459.1,877.5c2.1-17.7,5.5-78.2,1.3-125.9c-0.3-2.2-0.6-4.7-0.9-7.2c-1.7-17.1-5.8-38.6-10.7-60.2
	c-0.2-1.6-0.5-3.3-0.9-4.9l2-66.5c0,34.9,24.2,162.8,97.8,159.7h183c17.4,0,45.9-5.9,53.2-28c0,0,0,0.1,0,0.1c0,0.1-0.1,0.3-0.1,0.4
	c-6.1,29.8-30.6,47.8-31.7,75.4c0,0,0,0.1,0,0.1c-49.7-7.1-165.2-5.8-237.1,18.5c-29.6,10-32.9,95.4-33.5,128.7
	c-1.3,72.1-18.5,170.3-24.1,230.1c-12.4-3.1-36.3-9.7-47.2-14.2C411.4,1080.3,453.3,950.2,459.1,877.5z"/>
<path class="st12" d="M432.2,578.5"/>
<circle class="st8" cx="591.8" cy="620.2" r="11.3"/>
<circle class="st8" cx="711.9" cy="620.2" r="11.3"/>
<circle class="st8" cx="599.3" cy="717.8" r="11.3"/>
<circle class="st8" cx="719.4" cy="717.8" r="11.3"/>
<ellipse class="st8" cx="584.3" cy="809.9" rx="11.3" ry="9.3"/>
<ellipse class="st8" cx="704.4" cy="809.9" rx="11.3" ry="9.3"/>
<circle class="st8" cx="584.3" cy="890.4" r="11.3"/>
<circle class="st8" cx="704.4" cy="890.4" r="11.3"/>
<circle class="st8" cx="584.3" cy="984.2" r="11.3"/>
<circle class="st8" cx="708.1" cy="984.2" r="11.3"/>
<circle class="st8" cx="584.3" cy="1078" r="11.3"/>
<circle class="st8" cx="711.9" cy="1078" r="11.3"/>
<path class="st6" d="M682.7,420.9c-89.5-0.1-110.7-47-127.5-76.7c-14.9-21.6-26.9-99.8-28.3-125.2l69.4,0"/>
<path class="st6" d="M504.1,261c6.9,21.9,25.2,35.6,40.8,30.7s16.8-24.8,9.9-46.7s-19.4-37.4-35-32.5
	C504.3,217.4,497.2,239.2,504.1,261z"/>
<path class="st13" d="M674.7,51.8c67.9,0,122.8,52.2,122.9,124.6c0,9-3.5,27.1-3.4,44.7c0,21.3,3.5,42.2,3.5,53.5
	c-0.6,87.1-55.1,147.4-114.9,146.4c-34-0.6-67.8-24-92.5-65.7c-9.4-16-10.5-41.6-10.5-41.6V120.4c0,0,0.5-24.7,12.2-35.4
	C614,64.8,642.4,51.8,674.7,51.8z"/>
<path class="st14" d="M636.1,229.6c0,8.2,6.7,15,15,15s15-6.6,15-14.8c0-8.2-6.7-15-15-15S636.1,221.4,636.1,229.6z"/>
<path class="st15" d="M729,300.4c-6.1,11.3-15.9,13.4-15.9,13.4c-9,0.1-19.9-1.7-27.2-10.7c-3.9-4.8,1-15.1,5.6-12
	c5.5,3.6,15,10.3,22.2,9c8.1-1.4,9.9-5.1,13.1-7.2C729.5,291.1,731.2,296.3,729,300.4z"/>
<line class="st16" x1="715.8" y1="353" x2="696.1" y2="353"/>
<line class="st17" x1="726.6" y1="347.3" x2="675.6" y2="347.3"/>
<path class="st14" d="M733.8,229.6c0,8.2,6.7,15,15,15s15-6.6,15-14.8c0-8.2-6.7-15-15-15S733.8,221.4,733.8,229.6z"/>
<path class="st3" d="M789.1,50.2C764.3,9.6,727.4-0.8,643.9,0.1c-96.6,1-134.6,219.7-134.6,219.7c22.9,1.6,29.2,28.4,54.3,29
	c9.1,0,16.4-7.3,16.4-16.4h0c0-17.4-2.1-66.5,24.8-95.2l-1.9,47c16-8.1,57.3-14.7,102.6-14.9C757,169,789,184.2,789,184.2
	C798.7,150.8,814.9,92.6,789.1,50.2z"/>
<ellipse class="st13" cx="693.3" cy="399.8" rx="39" ry="30.9"/>
<line class="st18" x1="770" y1="189.7" x2="737.6" y2="185.5"/>
<line class="st18" x1="618.8" y1="193.1" x2="662.1" y2="185.5"/>
<path class="st19" d="M651.6,499.5l0.6,61.8c-27.5,1.1-88.1,2.3-132.7,18.3c0.4,58.9,29.9,119,28.9,177
	c-1,58.1-30.8,53.2-27.6,139.8c6,159.4-23.5,319.1-23.5,319.1"/>
<path class="st8" d="M547.7,438.2c0,3.9,33.6,7.1,75.1,7.1c0.5,0,1,0,1.5,0h0.1c15.6,0,28.5,15.9,28.4,41.3h0
	c-0.1-25.4,12.8-42.5,28.3-43.9l0.1-0.1c10.4-1.2,16.7-2.8,16.7-4.5c4.8,8.2,8.3,44.1,8.1,61.3c-11.3,6.2-39.4,8.7-53.4,9
	c-22.8,0.6-89.9-1.6-113.4-9C538.8,482.3,542.9,446.4,547.7,438.2z"/>
<path class="st20" d="M969.5,670.3"/>
<polygon class="st10" points="697.2,1329.1 652.6,1398 651.6,1359.4 "/>
<g>
	<path class="st7" d="M342.3,1154.5l-25.9-276.5c-0.4-4.1-0.1-8.1,0.6-11.9l0.3-1.6l60.7-292.7c5.7-27.4,32.5-45,59.9-39.3
		c27.4,5.7,45,32.5,39.3,59.9l-60.7,292.7l1-13.4l8.8,277.5c0.7,23.2-17.5,42.7-40.7,43.4C363.3,1193.4,344.4,1176.5,342.3,1154.5z"
		/>
</g>
<path class="st21" d="M388,1215.5c0,0-0.5-42.1-1.5-65.1"/>
<path class="st7" d="M425.5,1124.4c0.5,19,1.7,62.4,1.7,62.4c-7.8,10.1-71.8,13.2-82.9,5.3c-1-13.5-4.2-61.1-4.2-61.1
	c-0.4-7.4,47-18.2,47-18.2L425.5,1124.4z"/>
<path class="st22" d="M421.4,1207c0.5,26.6,14.7,51.9,11.1,82.5c-4.4,36.2-10.8,60.5-25.3,55.3c-9.4-3.3,6.4-58.7-2.6-79.1
	c-1.5-3.3-2.2-38.4-2.2-38.4L421.4,1207z"/>
<path class="st22" d="M354.3,1204.7c-1.3,36.4-14.8,16.7-19.7,101c-0.9,15.1-3.8,43.5,16.4,62.9c18.7,18,50.6,29.2,47.7,9.4
	c-6-40,2.3-106.8,11.9-100.4l5.3-39.2L354.3,1204.7z"/>
<polyline class="st23" points="802.5,581.7 874.1,856.8 1037,803.8 "/>
<path class="st24" d="M1106.3,732c11.8-3.3,26,27.1,30.3,42.7c5,17.8,7.6,45.5-2,49.2l-22,6.8l-39.4-44.8l10.4-46.8L1106.3,732z"/>
<path class="st13" d="M1140.2,764.2c-4.8-16.3-21.8-25.7-38.1-20.9l-66.7,19.5l12.6,66.4l73.5-27.6
	C1136.3,795.9,1144.7,779.7,1140.2,764.2z"/>
<path class="st6" d="M1254.9,733.3c18.7-9.6,50-26.7,50-26.7c10.6-5.5,23.4,11.3-1.8,33.7c-10.7,9.5-31.5,21.9-49,30.5L1254.9,733.3
	z"/>
<path class="st6" d="M1116,740.9c23.5-17.1,49-39,73.6-38.7c24.6,0.4,52.4-0.4,52.4-0.4c-0.9,24.9-30.3,22.8-43.5,23.5
	c-8.2,12-29.7,18.3-40,21.1C1148.2,749.3,1116,740.9,1116,740.9z"/>
<path class="st13" d="M1101.4,743.8c28.2-7.6,16.2-14.3,42.8-14.8c22-0.4,97,1.9,137,3.7c18.7-9.6,39.5-21.3,39.5-21.3
	c10.6-5.5,23.4,11.3-1.8,33.7c-10.7,9.5-31.5,21.9-49,30.5c0,0-90.4,6.7-98.6,7.2s-30.3,11.6-53.1,19.7"/>
<path class="st7" d="M1103.3,784c-4.3-15.6-9.6-48.1,3-52l-92.9,28.9l23.3,93.4l97.9-30.4C1125,826.8,1108.2,801.7,1103.3,784z"/>
</svg>
