<?xml version="1.0" encoding="utf-8"?>
<!-- Generator: Adobe Illustrator 22.0.1, SVG Export Plug-In . SVG Version: 6.00 Build 0)  -->
<svg version="1.1" id="Layer_1" xmlns="http://www.w3.org/2000/svg" xmlns:xlink="http://www.w3.org/1999/xlink" x="0px" y="0px"
	 viewBox="0 0 1938.4 2286" style="enable-background:new 0 0 1938.4 2286;" xml:space="preserve">
<style type="text/css">
	.st0{fill:#6C98A7;}
	.st1{fill:#54291C;}
	.st2{fill:#693629;}
	.st3{fill:#D2D2D2;}
	.st4{fill:none;stroke:#F9B086;stroke-width:67.5;stroke-linecap:round;stroke-miterlimit:10;}
	.st5{fill:#FFFFFF;}
	.st6{fill:#E6E6E6;}
	.st7{fill:#6A7493;}
	.st8{fill:#F49D73;}
	.st9{fill:#384261;}
	.st10{fill:#1C283E;}
	.st11{fill:#628E9D;}
	.st12{fill:none;stroke:#FFFFFF;stroke-width:101.25;stroke-linecap:round;stroke-miterlimit:10;}
	.st13{fill:#F9B086;}
	.st14{fill:#422B27;}
	.st15{fill:#F49369;}
	.st16{fill:none;stroke:#F38486;stroke-width:17.2125;stroke-linecap:round;stroke-miterlimit:10;}
	.st17{fill:none;stroke:#E1775A;stroke-width:9.8438;stroke-linecap:round;stroke-miterlimit:10;}
	.st18{fill:none;stroke:#422B27;stroke-width:14.0625;stroke-linecap:round;stroke-miterlimit:10;}
	.st19{fill:none;stroke:#384261;stroke-width:15;stroke-miterlimit:10;}
	.st20{fill:none;stroke:#F49D73;stroke-width:67.5;stroke-miterlimit:10;}
	.st21{fill:#FFB287;}
	.st22{fill:#496479;}
	.st23{fill:#213C51;}
	.st24{fill:#0A0C1B;}
	.st25{font-family:'URWDock-Bold';}
	.st26{font-size:194.4px;}
	.st27{enable-background:new    ;}
	.st28{fill:#9ECAD9;}
	.st29{fill:#FEF2A7;}
	.st30{fill:#DB5253;}
</style>
<circle class="st0" cx="729" cy="870.6" r="729"/>
<path class="st1" d="M547.3,241.6c0.2-46.1,33.9-76.2,64.7-76.2s50.6,32,51.3,76.2c1.7,109.8-25.1,178.3-51.3,206.6
	C585.3,416.9,546.9,361.4,547.3,241.6z"/>
<path class="st2" d="M583.6,209.5c0.6,62.8,34.8,113.7,77.8,113.7S891.6,264.8,891.6,202S894.8-0.4,740.4,0.1
	C622.6,0.4,582.5,90.3,583.6,209.5z"/>
<path class="st1" d="M868.1,245c-82.1,44.8-131.5,55.8-210-4.2S704,94.1,704,94.1S830.5-4,845.4,16.6c2.3,3.2,26,9.9,44.1,40.1
	C914.8,98.7,918.4,217.6,868.1,245z"/>
<path class="st3" d="M1077.9,580.2c7.1-10.6,39.1,4.3,53.2,13.9c16.1,11,37.1,31.5,31.9,40.9l-12.8,20.3l-61.9-9.5l-23.6-44.7
	L1077.9,580.2z"/>
<path class="st4" d="M1066,670.3c0,0,78.9-126.6,87-134.7"/>
<path class="st5" d="M1077.9,580.2l-72.4,114.7L931,554.7c-13.1-24.7-43.8-34.1-68.5-20.9c-24.7,13.1-34.1,43.8-20.9,68.5
	l115.5,217.2c8.5,15.9,24.8,26.2,42.8,26.8c0.6,0,1.3,0,1.9,0c17.3,0,33.5-8.9,42.8-23.6L1163,635c-5.6,8.9-36,0-52.1-10.9
	C1096.9,614.5,1070.5,591.9,1077.9,580.2z"/>
<path class="st6" d="M999.9,846.3c-18-0.7-34.4-10.9-42.8-26.8L841.6,602.2c-2-3.8-3.5-7.7-4.5-11.7l35.9-5.3
	c23,70.7,64.7,166.1,78.4,193.3c11.6,23.3,25.1,55.9,65.4,65.4c-4.8,1.5-9.9,2.3-15.1,2.3C1001.1,846.3,1000.5,846.3,999.9,846.3z"
	/>
<path class="st7" d="M719.2,431.1c41.5,0,75.1,3.2,75.1,7.1c0,1.7-6.2,3.3-16.7,4.5l-0.1,0.1c-15.5,1.3-28.4,18.5-28.3,43.9l0,0
	c0.1-25.4-12.8-41.3-28.4-41.3h-0.1c-0.5,0-1,0-1.5,0c-41.5,0-75.1-3.2-75.1-7.1C644.2,434.3,677.8,431.1,719.2,431.1z"/>
<rect x="666.7" y="342.7" class="st8" width="112" height="169.5"/>
<path class="st5" d="M492.8,599.9l2.6-59.6c17.4-15.7,104.8-46.4,140.3-48.3l166.7,1.5c52.8,11.8,106.4,29.9,123.7,53.6
	c31.8,42.5-43.3,74.2-40.7,118.6c4,44.1-0.2,65.9-4.9,78.8c-0.9,5.8-12,24.5-12,24.5l-36.8,23.6H621.1l-34-18.1
	c0,0-25.6,26.2-31.1-30s-37.5-160.6-37.5-160.6L492.8,599.9z"/>
<polygon class="st9" points="800.5,1337.5 689.2,1385.8 687.4,1110.5 829.3,1101.6 "/>
<path class="st9" d="M873.2,1018.1c20.7,58,29,120.3,35.6,165.5c6.1,42.3-1.4,178.7-174.1,176.1c-200.2-3-227.1-76.9-225.2-169
	c2-92.1,29.3-187.8,29.3-187.8L873.2,1018.1z"/>
<path class="st9" d="M750.8,2172.4c6.6-27.4,21.3-25.1,52.5-22.8c56.6,4.3,97.6,55.4,123.7,61.4c20.6,4.7,87.9,7,83.6,46.6
	l-7.4,28.3L870,2273.8l-50.2-16.1l-39.5,14.2l-37.6-14.2C742.6,2236.3,745.3,2195.2,750.8,2172.4z"/>
<polygon class="st10" points="742.6,2257.7 742.6,2286 810.3,2286 819.7,2257.7 855.7,2286 1003.1,2286 1010.6,2257.7 "/>
<path class="st11" d="M859.8,2179.1c-15.5-1.3-26.5,1.7-38.2,10.7c-12.3,9.4-53.4,16-59.9-5.3c-6.6-21.3,9-46,7.4-70.6
	s-27.8-84.4-32.7-137.4l103.4,12.2c0,44.2-12.7,134.4,22.7,185.3C865.1,2177.8,862,2179.3,859.8,2179.1z"/>
<path class="st9" d="M555.7,2172.4c6.6-27.4,21.3-25.1,52.5-22.8c56.6,4.3,97.6,55.4,123.7,61.4c20.6,4.7,87.9,7,83.6,46.6L808,2286
	l-133.2-12.1l-50.2-16.1l-39.5,14.2l-37.6-14.2C547.5,2236.3,550.2,2195.2,555.7,2172.4z"/>
<polygon class="st10" points="547.5,2257.7 547.5,2286 615.1,2286 624.6,2257.7 660.6,2286 808,2286 815.4,2257.7 "/>
<path class="st11" d="M664.6,2179.1c-15.5-1.3-26.5,1.7-38.2,10.7c-12.3,9.4-53.4,16-59.9-5.3c-6.6-21.3,9-46,7.4-70.6
	s-27.8-84.4-32.7-137.4l103.4,12.2c0,44.2-12.7,134.4,22.7,185.3C669.9,2177.8,666.9,2179.3,664.6,2179.1z"/>
<path class="st9" d="M892.7,1088.4c16.7,75.5,18.4,95.3,17.4,164.8c-1.3,88-27.5,822.7-25.5,879H749.4
	c-37.5-322.6-7.8-787-53.8-1051.3L892.7,1088.4z"/>
<path class="st10" d="M680.6,1080.9l52.8,1.4c45.7,264.5,16.1,727.9,53.6,1049.9h-37.5C711.9,1809.6,726.6,1345.2,680.6,1080.9z"/>
<polygon class="st9" points="799.7,1336.4 689.4,1388.1 660.1,1126.1 818.7,1133 "/>
<path class="st9" d="M507.4,1261.2c-3.6-128.7,17.8-188.7,17.8-188.7l213.8-2.9c17.9,367.7-59.5,503.2-60.2,1064.5H543.6
	C496.6,1638.2,511.1,1396.1,507.4,1261.2z"/>
<path class="st10" d="M507.4,1261.2c-2.3-81.7,5.5-135.8,11.5-164.3l76.5-5.6c-13.1,86.3-34.3,281.5-32.7,435.9
	c2.2,213.9,7.4,513.8,14,607h-33C496.6,1638.2,511.1,1396.1,507.4,1261.2z"/>
<path class="st5" d="M746.6,1209.4c-103.2,0.9-182.4-2-239.9-25.8c1.1-103.3,43-233.4,48.8-306.1c2.3-19.4,6.1-89.5,0-138.6
	l324.8,5.5c-5.9,30.1-30.8,48.2-31.8,76c4.1,150.8,54.6,242.3,62.6,363.2C897.6,1201.8,838.4,1208.6,746.6,1209.4z"/>
<path class="st6" d="M555.6,877.5c2.1-17.7,5.5-78.2,1.3-125.9c-0.3-2.2-0.6-4.7-0.9-7.2c-1.7-17.1-5.8-38.6-10.7-60.2
	c-0.2-1.6-0.5-3.3-0.9-4.9l2-66.5c0,34.9,24.2,162.8,97.8,159.7h183c17.4,0,45.9-5.9,53.2-28v0.1c0,0.1-0.1,0.3-0.1,0.4
	c-6.1,29.8-30.6,47.8-31.7,75.4v0.1c-49.7-7.1-165.2-5.8-237.1,18.5c-29.6,10-32.9,95.4-33.5,128.7c-1.3,72.1-18.5,170.3-24.1,230.1
	c-12.4-3.1-36.3-9.7-47.2-14.2C507.8,1080.3,549.7,950.2,555.6,877.5z"/>
<path class="st12" d="M528.7,578.5"/>
<circle class="st9" cx="688.3" cy="620.2" r="11.3"/>
<circle class="st9" cx="808.4" cy="620.2" r="11.3"/>
<circle class="st9" cx="695.8" cy="717.8" r="11.3"/>
<circle class="st9" cx="815.9" cy="717.8" r="11.3"/>
<ellipse class="st9" cx="680.8" cy="809.9" rx="11.3" ry="9.3"/>
<ellipse class="st9" cx="800.9" cy="809.9" rx="11.3" ry="9.3"/>
<circle class="st9" cx="680.8" cy="890.4" r="11.3"/>
<circle class="st9" cx="800.9" cy="890.4" r="11.3"/>
<circle class="st9" cx="680.8" cy="984.2" r="11.3"/>
<circle class="st9" cx="804.6" cy="984.2" r="11.3"/>
<circle class="st9" cx="680.8" cy="1078" r="11.3"/>
<circle class="st9" cx="808.4" cy="1078" r="11.3"/>
<path class="st8" d="M779.2,420.9c-89.5-0.1-110.7-47-127.5-76.7c-14.9-21.6-26.9-99.8-28.3-125.2h69.4"/>
<path class="st8" d="M600.6,261c6.9,21.9,25.2,35.6,40.8,30.7s16.8-24.8,9.9-46.7c-6.9-21.9-19.4-37.4-35-32.5
	C600.7,217.4,593.7,239.2,600.6,261z"/>
<path class="st13" d="M771.2,51.8C839,51.8,893.9,104,894,176.3c0,9-3.5,27.1-3.4,44.7c0,21.3,3.5,42.2,3.5,53.5
	c-0.6,87.1-55.1,147.4-114.9,146.4c-34-0.6-67.8-24-92.5-65.7c-9.4-16-10.5-41.6-10.5-41.6V120.4c0,0,0.5-24.7,12.2-35.4
	C710.5,64.8,738.9,51.8,771.2,51.8z"/>
<path class="st14" d="M732.6,229.6c0,8.2,6.7,15,15,15s15-6.6,15-14.8s-6.7-15-15-15S732.6,221.4,732.6,229.6z"/>
<path class="st15" d="M825.4,300.4c-6.1,11.3-15.9,13.4-15.9,13.4c-9,0.1-19.9-1.7-27.2-10.7c-3.9-4.8,1-15.1,5.6-12
	c5.5,3.6,15,10.3,22.2,9c8.1-1.4,9.9-5.1,13.1-7.2C826,291.1,827.7,296.3,825.4,300.4z"/>
<line class="st16" x1="812.2" y1="353" x2="792.6" y2="353"/>
<line class="st17" x1="823" y1="347.3" x2="772.1" y2="347.3"/>
<path class="st14" d="M830.2,229.6c0,8.2,6.7,15,15,15c8.3,0.1,15-6.6,15-14.8s-6.7-15-15-15C837,214.7,830.2,221.4,830.2,229.6z"/>
<path class="st2" d="M885.6,50.2c-24.9-40.6-61.7-51-145.2-50.1c-96.6,1-134.6,219.7-134.6,219.7c22.9,1.6,29.2,28.4,54.3,29
	c9.1,0,16.4-7.3,16.4-16.4l0,0c0-17.4-2.1-66.5,24.8-95.2l-1.9,47c16-8.1,57.3-14.7,102.6-14.9c51.4-0.2,83.4,14.9,83.4,14.9
	C895.2,150.8,911.4,92.6,885.6,50.2z"/>
<ellipse class="st13" cx="789.8" cy="399.8" rx="39" ry="30.9"/>
<line class="st18" x1="866.5" y1="189.7" x2="834.1" y2="185.5"/>
<line class="st18" x1="715.3" y1="193.1" x2="758.6" y2="185.5"/>
<path class="st19" d="M748,499.5l0.6,61.8c-27.5,1.1-88.1,2.3-132.7,18.3c0.4,58.9,29.9,119,28.9,177c-1,58.1-30.8,53.2-27.6,139.8
	c6,159.4-23.5,319.1-23.5,319.1"/>
<path class="st9" d="M644.2,438.2c0,3.9,33.6,7.1,75.1,7.1c0.5,0,1,0,1.5,0h0.1c15.6,0,28.5,15.9,28.4,41.3l0,0
	c-0.1-25.4,12.8-42.5,28.3-43.9l0.1-0.1c10.4-1.2,16.7-2.8,16.7-4.5c4.8,8.2,8.3,44.1,8.1,61.3c-11.3,6.2-39.4,8.7-53.4,9
	c-22.8,0.6-89.9-1.6-113.4-9C635.3,482.3,639.4,446.4,644.2,438.2z"/>
<path class="st20" d="M1066,670.3"/>
<path class="st20" d="M1135.4,561"/>
<polygon class="st10" points="793.7,1329.1 749.1,1398 748.1,1359.4 "/>
<g>
	<path class="st5" d="M438.8,1154.5L412.9,878c-0.4-4.1-0.1-8.1,0.6-11.9l0.3-1.6l60.7-292.7c5.7-27.4,32.5-45,59.9-39.3
		s45,32.5,39.3,59.9L513,885.2l1-13.4l8.8,277.5c0.7,23.2-17.5,42.7-40.7,43.4C459.7,1193.4,440.9,1176.5,438.8,1154.5z"/>
</g>
<path class="st21" d="M1181.4,411.1c7.3-10.5,28.8-31.6,54.9-7.8c26.1,23.8,13.3,59.5-7.8,90.1c-21,30.6-41.6,49.9-56.3,72.7
	L1142,465C1142.1,465.1,1174.1,421.6,1181.4,411.1z"/>
<path class="st22" d="M1154.3,497.3h130.5c7.4,0,13.5-6.1,13.5-13.5v-223c0-7.4-6.1-13.5-13.5-13.5h-130.5
	c-7.4,0-13.5,6.1-13.5,13.5v223C1140.8,491.2,1146.9,497.3,1154.3,497.3z"/>
<rect x="1140.8" y="274.7" class="st23" width="157.5" height="184.9"/>
<path class="st21" d="M1113,534.2c18.1-28.4-12.1-67.3,2.1-88.8s42.3-63.2,56.9-54s-20.7,52.1-23.9,57.1
	c14.2,8.7,35.3,49.4,8.1,88.8C1138.8,562.6,1113,534.2,1113,534.2z"/>
<path class="st4" d="M484.5,1215.5c0,0-0.5-42.1-1.5-65.1"/>
<path class="st5" d="M522,1124.4c0.5,19,1.7,62.4,1.7,62.4c-7.8,10.1-71.8,13.2-82.9,5.3c-1-13.5-4.2-61.1-4.2-61.1
	c-0.4-7.4,47-18.2,47-18.2L522,1124.4z"/>
<path class="st21" d="M517.8,1207c0.5,26.6,14.7,51.9,11.1,82.5c-4.4,36.2-10.8,60.5-25.3,55.3c-9.4-3.3,6.4-58.7-2.6-79.1
	c-1.5-3.3-2.2-38.4-2.2-38.4L517.8,1207z"/>
<path class="st21" d="M450.8,1204.7c-1.3,36.4-14.8,16.7-19.7,101c-0.9,15.1-3.8,43.5,16.4,62.9c18.7,18,50.6,29.2,47.7,9.4
	c-6-40,2.3-106.8,11.9-100.4l5.3-39.2L450.8,1204.7z"/>
<circle class="st23" cx="1219.6" cy="479" r="13.8"/>
<rect x="195" y="1554.4" class="st10" width="1247.6" height="289.7"/>
<text transform="matrix(1 0 0 1 459.6058 1768.7246)" class="st24 st25 st26">HOLDER</text>
<g class="st27">
	<path class="st5" d="M571.5,1762.2h-24.3V1707h-55.8v55.2h-24.3v-129.7h24.3v53.5h55.8v-53.5h24.3V1762.2z"/>
	<path class="st5" d="M693.4,1640.9c8.4,8.2,11.7,19.2,11.7,56.6c0,37.1-3.3,48.6-11.7,56.4c-8.7,8.2-17.9,10.5-42.2,10.5
		c-24.3,0-33.4-2.3-42.2-10.5c-8.4-7.8-11.7-19.2-11.7-56.4c0-37.3,3.3-48.4,11.7-56.6c8.6-8.4,17.7-10.5,42.2-10.5
		C675.7,1630.4,684.8,1632.6,693.4,1640.9z M626.7,1655.7c-3.3,3.7-4.7,14.6-4.7,41.8c0,27,1.4,37.9,4.7,41.6
		c3.1,3.3,5.6,4.5,24.5,4.5s21.4-1.2,24.5-4.5c3.3-3.7,4.7-14.6,4.7-41.6c0-27.2-1.4-38.1-4.7-41.8c-3.1-3.3-5.6-4.5-24.5-4.5
		S629.8,1652.4,626.7,1655.7z"/>
	<path class="st5" d="M755.2,1632.6v109.1h61.2v20.6h-85.5v-129.7H755.2z"/>
	<path class="st5" d="M835.9,1762.2v-129.7h51.9c19.8,0,29.7,3.1,39.3,13.4c10.9,11.7,11.1,30.7,11.1,51.7s-0.2,39.9-11.1,51.5
		c-9.5,10.3-19.4,13-39.3,13H835.9z M860,1741.6h26.2c12.8,0,18.3-1.7,21.8-6c4.5-5.8,5.6-13.2,5.6-38.1c0-25.1-1.2-32.5-5.6-38.3
		c-3.5-4.3-8.9-6-21.8-6H860V1741.6z"/>
	<path class="st5" d="M988.1,1653.2v33h56.6v20.6h-56.6v34.8h62.6v20.6H964v-129.7h85.1v20.6H988.1z"/>
	<path class="st5" d="M1142.8,1762.2l-21.6-43.7h-26v43.7h-24.3v-129.7h46.5c21.6,0,32.5,3.1,39.7,11.3c6.2,7,9.1,16.7,9.1,31.5
		c0,15-2.9,24.7-9.1,31.9c-3.1,3.5-7,6.2-11.5,7.8l23.9,47.2H1142.8z M1094.8,1697.7h17.5c10.1,0,21.4,0,25.1-2.5
		c3.9-2.7,4.9-8,4.9-19.6s-1-17.1-4.9-19.8c-3.5-2.5-15-2.3-25.1-2.3h-17.5V1697.7z"/>
</g>
<circle class="st28" cx="1627.3" cy="818.9" r="311"/>
<polygon class="st28" points="1370.7,704.7 1234.8,376.2 1518.8,577 "/>
<path class="st22" d="M1881.9,562.3l-83.7,549.2c-2.9,19.3-12.8,35.9-26.7,47.7c-16.7,14.2-39.2,21.4-62.5,17.9l-249.5-38
	c-39.6-6-68-41.3-66.4-80.5c0.1-2.9,0.4-5.8,0.8-8.7l83.7-549.2c6.5-42.6,46.6-72.1,89.2-65.6l249.5,38
	C1858.8,479.6,1888.4,519.7,1881.9,562.3z"/>
<rect x="1365.6" y="608" transform="matrix(0.1507 -0.9886 0.9886 0.1507 586.2952 2308.0408)" class="st23" width="541.6" height="409.6"/>
<circle class="st23" cx="1581.4" cy="1118.6" r="30.2"/>
<path class="st10" d="M1735.6,898.4l-198.1-30.2c-12.7-1.9-21.5-13.9-19.6-26.6l30.7-201.3c1.9-12.7,13.9-21.5,26.6-19.6l198.1,30.2
	c12.7,1.9,21.5,13.9,19.6,26.6l-30.7,201.3C1760.3,891.5,1748.3,900.3,1735.6,898.4z"/>
<path class="st29" d="M1728.4,888.5l-198.1-30.2c-12.7-1.9-21.5-13.9-19.6-26.6l30.7-201.3c1.9-12.7,13.9-21.5,26.6-19.6l198.1,30.2
	c12.7,1.9,21.5,13.9,19.6,26.6L1755,869C1753,881.7,1741.1,890.5,1728.4,888.5z"/>
<path class="st10" d="M1600.9,736.8L1600.9,736.8c-11-1.7-18.6-12-16.9-23l0,0c1.7-11,12-18.6,23-16.9l0,0c11,1.7,18.6,12,16.9,23
	l0,0C1622.2,730.9,1611.9,738.5,1600.9,736.8z"/>
<path class="st10" d="M1697.2,751.5L1697.2,751.5c-11-1.7-18.6-12-16.9-23l0,0c1.7-11,12-18.6,23-16.9l0,0c11,1.7,18.6,12,16.9,23
	l0,0C1718.5,745.6,1708.1,753.2,1697.2,751.5z"/>
<path class="st10" d="M1601.3,777c11.6,8.8,24.5,14.8,38.3,16.9c13.8,2.2,27.9,0.2,41.6-4.7h0.1c3.8-1.4,8,0.6,9.4,4.4
	c1.2,3.4-0.2,7.2-3.3,8.9c-7.4,4.2-15.7,7.2-24.3,8.8c-8.6,1.6-17.5,1.7-26.2,0.4c-8.7-1.4-17.2-4.1-24.9-8.2
	c-7.7-4-14.7-9.4-20.6-15.6c-2.8-3-2.7-7.6,0.3-10.4C1594.4,775,1598.4,774.8,1601.3,777L1601.3,777z"/>
<polygon class="st30" points="1614,886.7 1629.9,902.5 1651.1,895.2 1658.6,916.3 1680.9,918.9 1678.4,941.2 1697.4,953.2 
	1685.5,972.2 1697.4,991.2 1678.4,1003.2 1680.9,1025.5 1658.6,1028.1 1651.1,1049.3 1629.9,1041.9 1614,1057.7 1598.1,1041.9 
	1576.9,1049.3 1569.5,1028.1 1547.2,1025.5 1549.6,1003.2 1530.6,991.2 1542.5,972.2 1530.6,953.2 1549.6,941.2 1547.2,918.9 
	1569.5,916.3 1576.9,895.2 1598.1,902.5 "/>
</svg>
