<?xml version="1.0" encoding="utf-8"?>
<!-- Generator: Adobe Illustrator 22.0.1, SVG Export Plug-In . SVG Version: 6.00 Build 0)  -->
<svg version="1.1" id="Layer_1" xmlns="http://www.w3.org/2000/svg" xmlns:xlink="http://www.w3.org/1999/xlink" x="0px" y="0px"
	 viewBox="0 0 2003.1 1405" style="enable-background:new 0 0 2003.1 1405;" xml:space="preserve">
<style type="text/css">
	.st0{fill:#D7EAE8;}
	.st1{clip-path:url(#SVGID_2_);}
	.st2{fill:#E1F4F2;}
	.st3{clip-path:url(#SVGID_4_);}
	.st4{fill:#4E7A89;}
	.st5{fill:#54291C;}
	.st6{fill:#693629;}
	.st7{fill:#F49D73;}
	.st8{fill:#7E88A7;}
	.st9{fill:#EA9369;}
	.st10{fill:#384261;}
	.st11{fill:#9ECAD9;}
	.st12{fill:#E6E6E6;}
	.st13{fill:#F9B086;}
	.st14{fill:none;stroke:#422B27;stroke-width:14.175;stroke-linecap:round;stroke-miterlimit:10;}
	.st15{fill:none;stroke:#F38486;stroke-width:17.3502;stroke-linecap:round;stroke-miterlimit:10;}
	.st16{fill:none;stroke:#E1775A;stroke-width:9.9225;stroke-linecap:round;stroke-miterlimit:10;}
	.st17{fill:#422B27;}
	.st18{fill:#F49369;}
	.st19{fill:#FFFFFF;}
	.st20{font-family:'UniformCondensed-Bold';}
	.st21{font-size:107.9999px;}
	.st22{font-family:'UniformCondensed-Black';}
	.st23{font-size:80.9999px;}
	.st24{letter-spacing:6;}
	.st25{fill:none;stroke:#384261;stroke-width:23.76;stroke-miterlimit:10;}
</style>
<g>
	<path class="st0" d="M1913.9,1262.4L193.5,1404.6c-53.3,4.4-100.5-35.6-104.9-88.9L0.3,247.4c-4.4-53.3,35.6-100.5,88.9-104.9
		L1809.5,0.3c53.3-4.4,100.5,35.6,104.9,88.9l88.3,1068.3C2007.1,1210.8,1967.1,1258,1913.9,1262.4z"/>
	<g>
		<defs>
			<path id="SVGID_1_" d="M1913.9,1262.4L193.5,1404.6c-53.3,4.4-100.5-35.6-104.9-88.9L0.3,247.4c-4.4-53.3,35.6-100.5,88.9-104.9
				L1809.5,0.3c53.3-4.4,100.5,35.6,104.9,88.9l88.3,1068.3C2007.1,1210.8,1967.1,1258,1913.9,1262.4z"/>
		</defs>
		<clipPath id="SVGID_2_">
			<use xlink:href="#SVGID_1_"  style="overflow:visible;"/>
		</clipPath>
		<g class="st1">
			<path class="st2" d="M315.1,1402.4c-19.8-21.8-58.5-52.1-116.5-44.3l-0.6-7.6c28-16.8,93-39.8,163,48.2L315.1,1402.4
				L315.1,1402.4z"/>
			<path class="st2" d="M256.4,1236.9c0,0,77.3,63.5,124.1,101.1c25,20.1,46.8,39.8,61.8,53.9l109.1-9
				C473.1,1342.3,302.8,1254.8,256.4,1236.9L256.4,1236.9z"/>
			<path class="st2" d="M295.6,1157.3c0,0,92.9,14.2,116.9,66.8c24,52.6,46,81.4,75.5,94.2c22,9.6,61,33.6,75.4,63.6l986.4-81.5
				c6.7-17.7,20.2-41.1,47.5-60.7c51.5-37,54.3-56.9,68.7-93c14.5-36.1,10-64.1,102.4-108.9c0,0-66.9-16.3-117.7,55.6
				c-50.8,71.9-25.2,65.4-77.2,95.9c-52.1,30.5-76.1,56.5-76.1,56.5l171.3-304.6l-237.8,266.4c0,0,4.4-52.8,39.3-79.7
				c34.9-26.9,32.7-79.1,34.9-105.5c2.2-26.4,17.4-80.1,80.1-113.6c0,0-98.3-0.6-109.2,105.1c0,0-9.3,46.6-41.3,82
				c-32,35.4-48.6,45.5-60.1,66.1l87-321.6l-164.5,308.4c0,0-15-49,14.7-86.4c29.7-37.4,17.4-106.2,13.1-132.1
				c-4.3-25.8,11.3-75.2,49.2-117.6c0,0-81.9,39.5-79.4,96.1c2.5,56.6-5.1,96.5-24.5,126.5c-19.4,30-41.8,49.3-45.2,86.7l15.2-344.1
				l-91,352.5c0,0-21.8-52.8-3.4-93.6c18.5-40.8-3.5-95.8-17.3-129.6c-13.7-33.8-3.2-91.5,17.8-128.1c0,0-75.6,36.8-46.7,148
				c28.9,111.2-33.3,125-27.4,170.4l-61.2-318.1l-12.9,319.9c0,0-2-23.9-26.2-52.4c-24.2-28.6-26-76.5-24.3-135.6
				c1.7-59.1-38.8-99.4-70.4-112.1c0,0,48.8,61.5,37.7,112.6c-11.1,51.1-8.2,112,5.3,143.7c13.5,31.6,6.8,82.4,6.8,82.4L787.4,819.7
				l66.1,324.3c0,0-25.6-45.9-48.4-57.1c-22.8-11.2-47.5-72.5-48.9-116.1c-1.4-43.5-62.5-95.3-93.2-97.1c0,0,56.3,47.8,62.4,121.5
				c6.1,73.7,16.4,92.5,40.4,118.9c24,26.4,19.3,74.8,19.3,74.8L572.3,911.7l147.8,308.8c0,0-34.1-43-63.2-51.6
				c-29.1-8.5-52.2-50.3-69-94.7c-16.8-44.5-71.9-77-117.6-75.4c0,0,65.6,27.3,86.1,91.1c20.6,63.8,33.2,84.6,63.7,110.5
				c30.5,25.9,43,70.7,43,70.7l-268.9-215.8L606,1319.4c0,0-42.6-40.2-77.3-37.3c-34.7,2.9-73-37.6-91.4-75.4
				C418.9,1168.9,355.1,1137.1,295.6,1157.3L295.6,1157.3z"/>
			<polygon class="st2" points="1571.3,1298.6 1826.3,1105 1673.2,1290.2 1571.3,1298.6 			"/>
			<path class="st2" d="M1751.4,1283.7c15.2-29.2,63-102.7,148.7-79.1l0.4,4.5c-21.5,5.1-77.6,22.6-99.4,70.5L1751.4,1283.7
				L1751.4,1283.7z"/>
		</g>
	</g>
	<g>
		<defs>
			<path id="SVGID_3_" d="M788,1195.8l-561.9,46.4c-14.9,1.2-28.1-10-29.4-24.9l-53.6-648.5c-1.2-14.9,10-28.1,24.9-29.4l561.9-46.4
				c14.9-1.2,28.1,10,29.4,24.9l53.6,648.5C814.1,1181.4,802.9,1194.6,788,1195.8z"/>
		</defs>
		<clipPath id="SVGID_4_">
			<use xlink:href="#SVGID_3_"  style="overflow:visible;"/>
		</clipPath>
		<g class="st3">
			<path class="st4" d="M788,1195.8l-561.9,46.4c-14.9,1.2-28.1-10-29.4-24.9l-53.6-648.5c-1.2-14.9,10-28.1,24.9-29.4l561.9-46.4
				c14.9-1.2,28.1,10,29.4,24.9l53.6,648.5C814.1,1181.4,802.9,1194.6,788,1195.8z"/>
			
				<ellipse transform="matrix(0.9966 -8.238488e-02 8.238488e-02 0.9966 -47.4973 39.5459)" class="st5" cx="455.4" cy="595.3" rx="61.5" ry="40.1"/>
			<path class="st6" d="M603.4,812.5c9.2-39.6,6-147.7-28.5-193.5s-77.7-51.6-121.5-48c-43.7,3.6-85.4,16.4-111.9,67.3
				c-26.5,50.9-11.9,158,3.7,195.5"/>
			<path class="st7" d="M378.2,831.2c4,23,4.9,48.6-10.6,51.3c-15.5,2.7-41.7-18.6-45.6-41.6c-5.1-31,5.4-43.9,20.9-46.5
				C358.4,791.6,374.2,808.1,378.2,831.2z"/>
			<path class="st6" d="M357.7,827.7c-11.3-1.2-19.7-15.5-24.9-39c-3.8-22.5-4.3-75.3,35.3-90.2
				C407.6,683.7,357.7,827.7,357.7,827.7z"/>
			<path class="st5" d="M546.7,868.2c58.3,22.6,39.5,127.8,82.8,153.2c-14.1,13.4-91.7-3.1-114.9-43.8S546.7,868.2,546.7,868.2z"/>
			<path class="st7" d="M570.9,815.2c-0.1,23.4,3.1,48.8,18.9,48.9c15.7,0.1,38.1-25.2,38.1-48.6c0-31.5-12.5-42.4-28.3-42.5
				S571,791.9,570.9,815.2z"/>
			<path class="st8" d="M568.2,985c1.3,15.1-33.5,30.7-77.6,34.3s-80.6-4.5-82.2-21.1c-0.3-2.8,35.4-8,79.5-11.7
				C532,982.9,567.9,982.2,568.2,985z"/>
			
				<rect x="425.1" y="931.2" transform="matrix(0.9966 -8.238488e-02 8.238488e-02 0.9966 -80.5902 43.6632)" class="st7" width="127.4" height="134.3"/>
			<path class="st9" d="M419.8,936.7l2.5,30.7c23.8,28.6,66.5,49.7,131.6,45.8l-7.2-87L419.8,936.7z"/>
			<path class="st10" d="M380.9,1073.7"/>
			<path class="st11" d="M724.1,1051.5c-18.7-12.4-109.2-37.9-145-36.9l-176.8,14.6c-35.5,4.8-120.5,44.9-136.9,60.2
				c-16.4,15.3-22.9,29.8-20.7,55.3l14.7,177.5c35.5,22.2,209.3,22.6,257.8,19.1c48.4-4.5,219.9-33.4,251.2-61.1l-14.7-177.5
				C751.5,1077.1,742.8,1063.9,724.1,1051.5z"/>
			<polygon class="st12" points="515.3,1133.9 484.9,1136.4 474.7,1012.2 489.7,1009.5 505,1009.7 			"/>
			<g>
				<circle class="st10" cx="492.5" cy="1042.6" r="9.1"/>
			</g>
			<g>
				<circle class="st10" cx="496.9" cy="1095.4" r="9.1"/>
			</g>
			<path class="st13" d="M488.5,994.6L488.5,994.6c35.3-3.3,99.8-57.4,105-167.1c1.1-22.2,2.1-58.1,0.3-78.2
				c-5.5-62.2-65.3-109.8-134.3-104.1l0,0c-68.9,5.7-120.1,62.5-115.3,124.7c1.6,20.2,8.5,55.4,13.2,77.1
				C380.6,954.4,454,998.5,488.5,994.6L488.5,994.6z"/>
			<g>
				<line class="st14" x1="551.9" y1="755.5" x2="513" y2="752.3"/>
				<line class="st14" x1="385.3" y1="769.3" x2="423.2" y2="759.8"/>
			</g>
			<line class="st15" x1="472.8" y1="925.2" x2="492.5" y2="923.5"/>
			<line class="st16" x1="456.6" y1="920.7" x2="507.8" y2="916.5"/>
			<g>
				<path class="st17" d="M536.6,795c0.7,8.3-5.5,15.6-13.9,16.3c-8.3,0.8-15.6-5.3-16.3-13.6c-0.7-8.3,5.5-15.6,13.9-16.3
					C528.6,780.7,535.9,786.8,536.6,795z"/>
				<path class="st17" d="M438.5,803.2c0.7,8.3-5.5,15.6-13.9,16.3c-8.3,0.8-15.6-5.3-16.3-13.6c-0.7-8.3,5.5-15.6,13.9-16.3
					C430.5,788.8,437.8,794.9,438.5,803.2z"/>
			</g>
			<path class="st18" d="M479.4,884.8c15.2-1.3,23.6-16.2,21.3-21.6c-2.4-5.5-8.2,6.9-22.4,8.6c-14.2,0.7-22-10.6-23.5-4.8
				C453.5,872.7,464.2,886.1,479.4,884.8L479.4,884.8z"/>
			<path class="st6" d="M459,637.6c-53.8,4.4-108.3,35.5-100.5,114.6c28.9-11,66.6-19.3,108.1-22.7s80-1.4,110.3,4.7
				C571.6,654.8,512.7,633.1,459,637.6z"/>
			<g>
				<path class="st6" d="M345,778.5c-2.8-27.2,8.4-53.1,25.5-61l-1.1-42.3l-34.4,39.4l2.6,60.5L345,778.5z"/>
				<path class="st6" d="M594.5,757.8c-1.7-27.3-17-51-35.1-56l-5.8-41.9l40.4,33.2l7.3,60.1L594.5,757.8z"/>
			</g>
			<g>
				
					<ellipse transform="matrix(0.9966 -8.238488e-02 8.238488e-02 0.9966 -68.019 53.1015)" class="st19" cx="609.4" cy="850.8" rx="12.6" ry="12.9"/>
				
					<ellipse transform="matrix(0.9966 -8.238488e-02 8.238488e-02 0.9966 -70.7134 31.4333)" class="st19" cx="345.5" cy="872.6" rx="12.6" ry="12.9"/>
			</g>
			<path class="st10" d="M408.3,998.2c-10.1,12.1-16.2,34-16.2,34c4.5,10.6,52,23.8,52,23.8l45.5-46.5
				C463.5,1011.6,409.5,1005.9,408.3,998.2z"/>
			<path class="st10" d="M568.1,985c11.9,10.3,21.5,30.9,21.5,30.9c-2.7,11.2-47.4,32-47.4,32l-52.5-38.4
				C515.9,1007.3,568.2,992.8,568.1,985z"/>
		</g>
	</g>
	<g>
		<path class="st4" d="M158.9,326.5c14.4-1.2,24.3,6.1,25.3,17.3c0.6,7.2-2.9,13.6-9.1,17.5c8.7,2.2,14.6,8.7,15.3,17.4
			c1,11.7-8.5,21.7-23.3,23l-35.7,3l-6.2-75.3L158.9,326.5z M157.9,357.4c6.9-0.6,10.4-5,10-9.8c-0.4-4.9-4.6-8.7-11.5-8.1
			l-13.8,1.1l1.5,18L157.9,357.4z M146.8,390.6l16.3-1.3c7.4-0.6,11.3-5.6,10.9-11.2c-0.5-5.5-5.1-9.7-12.6-9l-16.3,1.3L146.8,390.6
			z"/>
		<path class="st4" d="M203.2,342.7l13.9-1.1l1.8,10.7c3.1-8,10-12.7,19.7-13.5l1.1,15.9l-3.2,0.3c-10.2,0.8-15.9,6.6-14.9,19.1
			l1.9,22.9l-15.6,1.3L203.2,342.7z"/>
		<path class="st4" d="M269.1,321.8c0.5,5.6-3.4,10-9.1,10.5c-5.7,0.5-10.1-3.3-10.6-8.9c-0.5-5.5,3.3-9.9,9-10.4
			C264.1,312.6,268.6,316.3,269.1,321.8z M252.6,338.6l15.8-1.3l4.6,55.5l-15.8,1.3L252.6,338.6z"/>
		<path class="st4" d="M307.7,334.1l17.2-1.4l1,12.5l-17.2,1.4l1.9,22.5c0.4,5,2.9,7.1,7.2,6.8c4.4-0.4,8.7-1.9,8.7-1.9l2.9,12.8
			c0,0-5.7,3.1-14.4,3.8c-11.1,0.9-18.7-4.6-19.6-16.1l-2.2-26.5l-10.2,0.8l-1-12.5l10.2-0.8L291,322l15.6-1.3L307.7,334.1z"/>
		<path class="st4" d="M355.9,314.6c0.5,5.6-3.4,10-9.1,10.5c-5.7,0.5-10.1-3.3-10.6-8.9c-0.5-5.5,3.3-9.9,9-10.4
			C351,305.4,355.5,309.1,355.9,314.6z M339.5,331.5l15.8-1.3l4.6,55.5l-15.8,1.3L339.5,331.5z"/>
		<path class="st4" d="M416.5,364.4c0.8,10.1-6.5,18.2-20.8,19.4c-14.2,1.2-23.5-6.2-23.5-6.2l5.9-10.5c0,0,7.7,5.9,16.6,5.1
			c4.5-0.4,6.8-2.7,6.6-5.3c-0.2-2.8-2-4.9-12.5-7.3c-10.3-2.3-16-7.8-16.7-15.4c-0.7-8.6,6.1-17.1,19.9-18.2
			c12.4-1,21.3,5.3,21.3,5.3l-5.8,10.7c0,0-6.5-5.1-14-4.5c-4.4,0.4-6.4,2.7-6.2,4.7c0.2,2.4,1.9,4.4,10.8,6.4
			C409.3,350.9,415.9,356.7,416.5,364.4z"/>
		<path class="st4" d="M426.2,304.4l15.6-1.3l2.3,27.5c3.4-6.1,9.4-9.7,16.5-10.2c11.6-1,21.7,6.3,22.9,21.1l2.8,33.8l-15.6,1.3
			l-2.4-28.8c-0.8-9.4-5.8-13.1-12-12.6c-6.3,0.5-11.4,5-10.6,14.2l2.4,29.1l-15.6,1.3L426.2,304.4z"/>
		<path class="st4" d="M568.9,291.5c19.9-1.6,30,9.8,30,9.8l-11.2,11.5c0,0-6.1-7.1-17.7-6.1c-13.3,1.1-22.3,12.1-21.2,25.5
			c1.1,13.5,11.7,22.9,25.1,21.8c12.3-1,17.5-10.2,17.5-10.2l12.5,9.4c0,0-8.3,14.2-29,15.9c-22.5,1.9-40.7-13.4-42.5-35.2
			C530.5,312.1,546.4,293.3,568.9,291.5z"/>
		<path class="st4" d="M671.3,331.7c1.3,16.3-10.7,30.3-27.9,31.7c-17.2,1.4-30.8-9.9-32.2-26.2c-1.3-16.3,10.7-30.1,27.9-31.6
			C656.3,304.2,669.9,315.4,671.3,331.7z M655.7,333.3c-0.7-8.2-7.3-14-15.7-13.3c-8.3,0.7-13.9,7.5-13.2,15.7
			c0.7,8.2,7.3,14,15.6,13.3C650.8,348.3,656.4,341.5,655.7,333.3z"/>
		<path class="st4" d="M682.5,283.2l15.8-1.3l6.2,75.3l-15.8,1.3L682.5,283.2z"/>
		<path class="st4" d="M755.3,297.1l15.6-1.3l4.6,55.5l-13.9,1.1l-1.5-8.4c-3.4,6.6-9.8,10.4-17.5,11.1c-11.8,1-21.5-6.3-22.8-21.1
			l-2.8-33.8l15.6-1.3l2.4,28.8c0.8,9.4,5.7,13.1,11.9,12.6c6.6-0.5,11.5-5.1,10.7-15L755.3,297.1z"/>
		<path class="st4" d="M788.2,294.4l13.9-1.1l1.3,8.3c3.4-6.6,9.5-10.3,17-10.9c8.1-0.7,15.3,2.7,19.3,10.1
			c2.9-7.8,9.7-12.5,17.9-13.2c11.5-1,21.1,6.4,22.3,20.9l2.8,34l-15.6,1.3l-2.4-28.9c-0.8-9.4-5.6-13-11.4-12.5
			c-5.9,0.5-10.9,4.7-10.1,13.7l2.4,29.5l-15.6,1.3l-2.4-28.9c-0.8-9.4-5.6-13-11.4-12.5c-5.9,0.5-10.9,4.7-10.1,13.7l2.4,29.5
			l-15.6,1.3L788.2,294.4z"/>
		<path class="st4" d="M893.1,265.8l15.6-1.3l2.2,26.7c3.7-5.3,9.4-8.8,16.5-9.4c14.6-1.2,27.9,10,29.3,26.3
			c1.3,16.3-10.1,30.2-25,31.4c-7.6,0.6-14.2-2.2-18.7-7.3l-0.5,7.8l-13,1.1L893.1,265.8z M941,309.7c-0.7-8.2-7.3-14-15.7-13.3
			c-8.3,0.7-13.9,7.5-13.2,15.7c0.7,8.2,7.3,14,15.6,13.3C936.1,324.7,941.7,317.9,941,309.7z"/>
		<path class="st4" d="M985.9,262.5c0.5,5.6-3.4,10-9.1,10.5c-5.7,0.5-10.1-3.3-10.6-8.9c-0.5-5.5,3.3-9.9,9-10.4
			C980.9,253.3,985.5,257,985.9,262.5z M969.4,279.4l15.8-1.3l4.6,55.5l-15.8,1.3L969.4,279.4z"/>
		<path class="st4" d="M1038.5,300.1l-0.2-2.4c-0.6-7.7-6.3-11.5-13.7-10.9c-8.4,0.7-13.4,5.4-13.4,5.4l-7.2-9.5c0,0,7.7-8,22.6-9.2
			c15.5-1.3,25.9,7.2,27.3,23.1l2.6,31.4l-12.2,1l-1.6-4.6c-3.7,4-9.4,6.6-16.5,7.2c-13.3,1.1-21.9-5.3-22.7-15.1
			c-0.8-9.8,7.1-18.1,20.4-19.2C1029.8,296.8,1034.8,297.9,1038.5,300.1z M1040.1,312.9c-0.3-4.2-4.6-7.2-11.3-6.7
			c-6.3,0.5-10.1,4.2-9.7,8.4c0.4,4.3,4.6,7.2,11,6.7C1036.8,320.7,1040.5,317.2,1040.1,312.9z"/>
	</g>
	<g>
		<path class="st4" d="M1610.9,205.3c19.9-1.6,30,9.8,30,9.8l-11.2,11.5c0,0-6.1-7.1-17.7-6.1c-13.3,1.1-22.3,12.1-21.2,25.5
			c1.1,13.5,11.7,22.9,25.1,21.8c12.3-1,17.5-10.2,17.5-10.2l12.5,9.4c0,0-8.3,14.2-29,15.9c-22.5,1.9-40.7-13.4-42.5-35.2
			C1572.5,226,1588.4,207.2,1610.9,205.3z"/>
		<path class="st4" d="M1731.3,272.3l-18.1,1.5l-7.3-15.3l-30.1,2.5l-4.7,16.3l-17.2,1.4l24.3-77.9l16.4-1.4L1731.3,272.3z
			 M1679.2,247.6l21-1.7l-12.7-26.8L1679.2,247.6z"/>
		<path class="st4" d="M1756.1,219.1l4.2,50.8l-16,1.3l-6.2-75.3l17-1.4l38.9,46.6l-4.1-49.5l16-1.3l6.2,75.3l-16,1.3L1756.1,219.1z
			"/>
	</g>
	<g>
		<path class="st4" d="M141.2,219.7c16.1-1.3,27.5,7.2,28.8,23.9l1.9,22.6c1.4,16.8-8.8,27.5-24.9,28.8l-24.5,2l-6.2-75.3
			L141.2,219.7z M136.5,236.9l3.5,42l5.4-0.4c5.5-0.5,8.3-3.9,7.8-10.4l-1.9-22.6c-0.5-6.5-3.9-9.4-9.4-9L136.5,236.9z"/>
		<path class="st4" d="M177.6,216.7l25.7-2.1c15.1-1.2,26.2,8.1,27.4,22.5c0.7,8.5-2.6,15.8-8.6,20.5l14.4,30l-21,1.7l-10.2-25.2
			l-4.8,0.4l2.1,25.8l-18.8,1.6L177.6,216.7z M199.3,250.1l4.4-0.4c5.5-0.5,8.7-4.7,8.3-10.2c-0.5-5.5-4.1-9.1-9.6-8.6l-4.6,0.4
			L199.3,250.1z"/>
		<path class="st4" d="M237.3,211.8l19.4-1.6l6.2,75.3l-19.4,1.6L237.3,211.8z"/>
		<path class="st4" d="M262.1,209.7l20.4-1.7l14.7,44.5l7.3-46.3l19.4-1.6l-15.8,77.2l-17.8,1.5L262.1,209.7z"/>
		<path class="st4" d="M335.1,279.5l-6.2-75.3l42.5-3.5l1.4,16.7l-23.7,2l1,12.4l19.4-1.6l1.3,15.6l-19.4,1.6l1.2,14l24.2-2
			l1.4,16.7L335.1,279.5z"/>
		<path class="st4" d="M379.4,200l25.7-2.1c15.1-1.2,26.2,8.1,27.4,22.5c0.7,8.5-2.6,15.8-8.6,20.5l14.4,30l-21,1.7l-10.2-25.2
			l-4.8,0.4l2.1,25.8l-18.8,1.6L379.4,200z M401.1,233.4l4.4-0.4c5.5-0.5,8.7-4.7,8.3-10.2c-0.5-5.5-4.1-9.1-9.6-8.6l-4.6,0.4
			L401.1,233.4z"/>
		<path class="st4" d="M457.4,237.2c-9.3-4.8-17-11.5-17.9-22c-1-12.6,9-22,21.6-23c19.8-1.6,25.3,15,25.3,15l-14.7,7.4
			c0,0-2.9-7.3-8.9-6.8c-2.6,0.2-4.8,2.1-4.6,5c0.3,4.1,3.8,6.4,10.9,10c9.6,4.9,18.6,11.2,19.5,22.7c1.2,14.2-9.1,23.2-22.7,24.3
			c-20.2,1.7-27-17.1-27-17.1l14.7-7.4c0,0,4.5,9.4,10.9,8.8c3.6-0.3,5.6-2.6,5.4-6C469.6,243.6,465.3,241.2,457.4,237.2z"/>
		<path class="st4" d="M520.4,188.4l18.8-1.6l4.8,58.1l22.1-1.8l1.4,17.2l-40.9,3.4L520.4,188.4z"/>
		<path class="st4" d="M568.3,184.4l19.4-1.6l6.2,75.3l-19.4,1.6L568.3,184.4z"/>
		<path class="st4" d="M621,232.1c0.4,5.2,3.5,7.8,7.7,7.5s6.8-3.5,6.3-8.7l-0.4-4.8l18.3-1.5l0.3,4.1c1.3,15.5-8.9,26.4-23.4,27.6
			c-14.9,1.2-26.4-7.5-27.7-23l-2.2-26.9c-1.3-15.5,9.1-26.4,23.9-27.7c14.5-1.2,25.9,7.5,27.1,23l0.3,3.4l-18.3,1.5l-0.3-3.8
			c-0.4-5.2-3.5-7.8-7.7-7.5c-4.2,0.3-6.8,3.5-6.3,8.7L621,232.1z"/>
		<path class="st4" d="M664.9,252.3l-6.2-75.3l42.5-3.5l1.4,16.7l-23.7,2l1,12.4l19.4-1.6l1.3,15.6l-19.4,1.6l1.2,14l24.2-2
			l1.4,16.7L664.9,252.3z"/>
		<path class="st4" d="M729.3,205.3l3.4,41.3l-17.2,1.4l-6.2-75.3l18.3-1.5l20.4,37.5l-3.2-39l17.2-1.4l6.2,75.3l-17.2,1.4
			L729.3,205.3z"/>
		<path class="st4" d="M791.6,209.6c-9.3-4.8-17-11.5-17.9-22c-1-12.6,9-22,21.6-23c19.8-1.6,25.3,15,25.3,15l-14.7,7.4
			c0,0-2.9-7.3-8.9-6.8c-2.6,0.2-4.8,2.1-4.6,5c0.3,4.1,3.8,6.4,10.9,10c9.6,4.9,18.6,11.2,19.5,22.7c1.2,14.2-9.1,23.2-22.7,24.3
			c-20.2,1.7-27-17.1-27-17.1l14.7-7.4c0,0,4.5,9.4,10.9,8.8c3.6-0.3,5.6-2.6,5.4-6C803.8,216,799.5,213.6,791.6,209.6z"/>
		<path class="st4" d="M833.1,238.4l-6.2-75.3l42.5-3.5l1.4,16.7l-23.7,2l1,12.4l19.4-1.6l1.3,15.6l-19.4,1.6l1.2,14l24.2-2
			l1.4,16.7L833.1,238.4z"/>
		<path class="st4" d="M968.5,227.2l-19.6,1.6l-4.6-13.2l-18.1,1.5l-2.2,13.7l-18.5,1.5l16.4-77.2l17.8-1.5L968.5,227.2z
			 M932.3,180.1l-3.8,22.7l11.2-0.9L932.3,180.1z"/>
		<path class="st4" d="M987.1,184l3.4,41.3l-17.2,1.4l-6.2-75.3l18.3-1.5l20.4,37.5l-3.2-39l17.2-1.4l6.2,75.3l-17.2,1.4L987.1,184z
			"/>
		<path class="st4" d="M1055.6,144.1c16.1-1.3,27.5,7.2,28.8,23.9l1.9,22.6c1.4,16.8-8.8,27.5-24.9,28.8l-24.5,2l-6.2-75.3
			L1055.6,144.1z M1050.8,161.3l3.5,42l5.4-0.4c5.5-0.5,8.3-3.9,7.8-10.4l-1.9-22.6c-0.5-6.5-3.9-9.4-9.4-9L1050.8,161.3z"/>
		<path class="st4" d="M1138.5,180.9c-9.3-4.8-17-11.5-17.9-22c-1-12.6,9-22,21.6-23c19.8-1.6,25.3,15,25.3,15l-14.7,7.4
			c0,0-2.9-7.3-8.9-6.8c-2.6,0.2-4.8,2.1-4.6,5c0.3,4.1,3.8,6.4,10.9,10c9.6,4.9,18.6,11.2,19.5,22.7c1.2,14.2-9.1,23.2-22.7,24.3
			c-20.2,1.7-27-17.1-27-17.1l14.7-7.4c0,0,4.5,9.4,10.9,8.8c3.6-0.3,5.6-2.6,5.4-6C1150.7,187.3,1146.4,184.9,1138.5,180.9z"/>
		<path class="st4" d="M1180,209.7l-6.2-75.3l42.5-3.5l1.4,16.7l-23.7,2l1,12.4l19.4-1.6l1.3,15.6l-19.4,1.6l1.2,14l24.2-2l1.4,16.7
			L1180,209.7z"/>
		<path class="st4" d="M1224.3,130.2l25.7-2.1c15.1-1.2,26.2,8.1,27.4,22.5c0.7,8.5-2.6,15.8-8.6,20.5l14.4,30l-21,1.7l-10.2-25.2
			l-4.8,0.4l2.1,25.8l-18.8,1.6L1224.3,130.2z M1246,163.6l4.4-0.4c5.5-0.5,8.7-4.7,8.3-10.2c-0.5-5.5-4.1-9.1-9.6-8.6l-4.6,0.4
			L1246,163.6z"/>
		<path class="st4" d="M1276.5,125.9l20.4-1.7l14.7,44.5l7.3-46.3l19.4-1.6l-15.8,77.2l-17.8,1.5L1276.5,125.9z"/>
		<path class="st4" d="M1343.8,120.3l19.4-1.6l6.2,75.3l-19.4,1.6L1343.8,120.3z"/>
		<path class="st4" d="M1396.5,167.9c0.4,5.2,3.5,7.8,7.7,7.5c4.2-0.3,6.8-3.5,6.3-8.7l-0.4-4.8l18.3-1.5l0.3,4.1
			c1.3,15.5-8.9,26.4-23.4,27.6c-14.9,1.2-26.4-7.5-27.7-23l-2.2-26.9c-1.3-15.5,9.1-26.4,23.9-27.7c14.5-1.2,25.9,7.5,27.1,23
			l0.3,3.4l-18.3,1.5l-0.3-3.8c-0.4-5.2-3.5-7.8-7.7-7.5s-6.8,3.5-6.3,8.7L1396.5,167.9z"/>
		<path class="st4" d="M1440.4,188.2l-6.2-75.3l42.5-3.5l1.4,16.7l-23.7,2l1,12.4l19.4-1.6l1.3,15.6l-19.4,1.6l1.2,14l24.2-2
			l1.4,16.7L1440.4,188.2z"/>
		<path class="st4" d="M1503.5,150.8c-9.3-4.8-17-11.5-17.9-22c-1-12.6,9-22,21.6-23c19.8-1.6,25.3,15,25.3,15l-14.7,7.4
			c0,0-2.9-7.3-8.9-6.8c-2.6,0.2-4.8,2.1-4.6,5c0.3,4.1,3.8,6.4,10.9,10c9.6,4.9,18.6,11.2,19.5,22.7c1.2,14.2-9.1,23.2-22.7,24.3
			c-20.2,1.7-27-17.1-27-17.1l14.7-7.4c0,0,4.5,9.4,10.9,8.8c3.6-0.3,5.6-2.6,5.4-6C1515.8,157.1,1511.5,154.8,1503.5,150.8z"/>
		<path class="st4" d="M1588.6,152.1c0.4,5.2,3.5,7.8,7.7,7.5s6.8-3.5,6.3-8.7l-0.4-4.8l18.3-1.5l0.3,4.1
			c1.3,15.5-8.9,26.4-23.4,27.6c-14.9,1.2-26.4-7.5-27.7-23l-2.2-26.9c-1.3-15.5,9.1-26.4,23.9-27.7c14.5-1.2,25.9,7.5,27.1,23
			l0.3,3.4l-18.3,1.5l-0.3-3.8c-0.4-5.2-3.5-7.8-7.7-7.5s-6.8,3.5-6.3,8.7L1588.6,152.1z"/>
		<path class="st4" d="M1687.4,167.7l-19.6,1.6l-4.6-13.2l-18.1,1.5l-2.2,13.7l-18.5,1.5l16.4-77.2l17.8-1.5L1687.4,167.7z
			 M1651.3,120.7l-3.8,22.7l11.2-0.9L1651.3,120.7z"/>
		<path class="st4" d="M1686.1,92l25.7-2.1c15.1-1.2,26.2,8.1,27.4,22.5c0.7,8.5-2.6,15.8-8.6,20.5l14.4,30l-21,1.7l-10.2-25.2
			l-4.8,0.4l2.1,25.8l-18.8,1.6L1686.1,92z M1707.8,125.4l4.4-0.4c5.5-0.5,8.7-4.7,8.3-10.2c-0.5-5.5-4.1-9.1-9.6-8.6l-4.6,0.4
			L1707.8,125.4z"/>
		<path class="st4" d="M1770.2,85c16.1-1.3,27.5,7.2,28.8,23.9l1.9,22.6c1.4,16.8-8.8,27.5-24.9,28.8l-24.5,2l-6.2-75.3L1770.2,85z
			 M1765.5,102.2l3.5,42l5.4-0.4c5.5-0.5,8.3-3.9,7.8-10.4l-1.9-22.6c-0.5-6.5-3.9-9.4-9.4-9L1765.5,102.2z"/>
	</g>
	<g>
		<path class="st10" d="M347.3,1321.7c0.2,2-0.5,4.3-1.1,5.7c-2.8,5.5-11.3,12.5-17.7,10.4c-4.6-1.4-8.7-8.5-9.6-14.2
			c-0.5-1.7-0.7-3.6-1.1-5.5c-0.2-1-0.3-9.4-0.8-15.6c-0.3-3.7-0.8-6.7-1.4-6.7c-2.8-0.1-5.8,5.5-5.9,19.7c0,1.4,0.3,3.3,0.5,6.2
			c0.3,3.1,0.5,7.2,0.1,12.7c-0.2,2.5-2.6,4.8-5.5,4.2c-2.5-0.7-3.9-3.8-4.2-6c-0.3-2-1.1-5.4-1.6-11.7c-0.2-3-0.5-6.6-0.5-10.8
			c0-1.7-0.2-3.4-0.3-4.8c-0.4-4.3-1-7.8-1.4-8.5c-1-1.5-1.9-1-2.6,0.1c-6.4,10.1-5.1,21-4.9,29.2c0,1.7,0.6,4.3,0.8,6.7
			c0.1,1.6,0,3.2-0.5,4.4c-1.3,2.4-5.1,3.3-7.2,1.6c-1.9-1.5-1.8-4.8-2-7.1c-0.4-4.7-1.3-20.5-2.2-31.7c-0.2-2.8-0.6-5.3-0.7-7.3
			c-0.3-0.2-0.4-0.6-0.7-0.7c-2.2-1.9-4.1,1.7-6.3,2.3c-2.3,0.4-5.2-1.2-6-3.6c-0.8-2.4-0.1-5.2,2.3-6.4c3-1.4,4.6-1.5,6.4-4.5
			c1.1-2,2.3-5.3,4.1-6.7c1.7-1.1,5.4-1.6,6.9,0.2c0.7,0.3,1.2,0.8,1.6,1.4c0.8,1.2,1.1,2.4,1.2,3.6c0.1,1.2,0.1,2.6,0.2,4l0,1.1
			c-0.2,0.6-0.2,3.1,0.2,3.7c0.9,1.7,1.6-0.1,2.3-1.1c1.5-2.5,3-5.4,4.2-8.1c1.1-2.1,2-5.8,4.2-7.1c2.1-1.3,5,0.7,6.4,2.5
			c1,1.2,1.3,2.6,1.5,4.1c0.1,1.2,0.1,2.5,0,3.6c0,1.2-0.4,7,2.2,5.6c1.8-1,3-5.5,3.6-7.2c1-2.9,1.6-5.7,3.9-8.1
			c0.8-0.8,2-1.3,3.3-1.4c1.4-0.1,3,0.2,4.1,0.9c2.2,1.4,2.5,4,2.5,6.5c0,2.7-0.7,5.3-0.6,8.1c0.1,2.9,0.7,5.7,1,8.5
			c0.2,2.8,1.9,21.9,2.7,24.6c0.5,1.8,1.4,3.6,1.6,5.6c0.3,0.5,0.4,0.8,0.7,1.3c1.9,3.6,4.5,0,6.6-2.2c2-1.9,4.6-5.9,7.9-4.9
			C346.6,1318.9,347.2,1320.2,347.3,1321.7z"/>
		<path class="st10" d="M390.4,1320.4c-0.5,1.7-1.6,3.4-2.6,5.1c-1.1,2-2.9,3.1-4.5,4.7c-2.6,2.7-5.6,5.1-9.4,5.5
			c-1,0.2-1.9,0.2-2.7,0c-1.4-0.1-2.7-0.9-3.8-1.8c-0.9-0.9-1.7-2-2.3-3.3c-0.7-1.1-1.5-1.5-3.4-0.5c-3.4,1.6-8.5,5.7-13.3,6.1
			c-2.5,0.2-4.9-0.6-7-3.2c-2.2-2.7-3.4-6.2-3.7-9.9c-0.3-3.3,0.1-6.6,0.8-9.4c1.8-7.1,5.4-13.4,10.2-18.7c2.2-2.5,7.7-5.4,10.9-5.3
			c2.2,0.1,3.8,0.7,6,0.5c1.1-0.1,2.2-0.3,3.8-0.9c1.8-0.6,5.6,1.3,5.2,5.3c-0.4,3-1.1,6.3-1.7,9.2c-0.3,2.4-0.2,5.6-0.3,8.7
			c0.2,0.5,0.3,2.1,0.3,2.5c0.3,2.1-0.4,10.5,4.4,6.9c3.2-2.3,4.3-7.2,7.6-9c1.6-0.8,3.9,0.9,4.8,2.2
			C391,1316.9,390.8,1318.5,390.4,1320.4z M362.4,1308.1c-0.1-1.5-0.5-2.8-1-4c-2.3-4.9-9,2.2-10.4,4.5c-2,3.3-3,8.5-1.7,12.6
			c0.5,1.7,1.6,2.4,2.8,2.3c2.6-0.2,6.1-3.6,7.4-5.2c0.2-0.3,0.4-0.7,0.7-0.9l0.8-1.1C362.1,1314.2,362.6,1311,362.4,1308.1z"/>
		<path class="st10" d="M421.1,1327.7c-3,2.7-8.6,5.5-12.7,4.7c-7.7-1.5-9.8-8.4-10.4-15.6c-0.3-3.3-0.2-6.8-0.3-9.7
			c-0.1-1.1-0.2-2.5-1.6-2.2c-1.1,0.1-1.5,1.9-1.8,2.6c-0.8,2.6-1.3,5.1-2,7.6c-0.9,3.9-2.7,11.6-8.1,9.5c-1.9-0.8-2.7-2-2.8-3.5
			c-0.2-2.6,1.5-5.7,2.1-8.1c0.6-3.2,1.2-6.8,0.9-10.2c-0.1-1.5-0.4-3-1-4.4c-0.8-2.1-1.9-4.3-1-6.6c0.8-2.2,2.5-3.8,4.9-3.9
			c4.9,0.1,6.8,6.5,11.7,6.8c2.2,0.1,5-1.3,7-0.7c2,0.6,3.5,3.2,3.3,5.1c-0.2,2.4-2,4.7-2.4,7.1c-0.5,2.4-0.3,4.9-0.1,7.5l0,1
			c0,1.2,0.4,3.2,0.6,4.1c0.8,2.2,2.2,2.9,3.7,2.8c2.1-0.2,4.4-2,6-3.7c1.5-1.6,2.4-3.7,4.6-4.6c2.2-0.8,3.9,0.4,4.5,2.6
			C427.1,1319.9,424.1,1325,421.1,1327.7z"/>
		<path class="st10" d="M465.6,1318.8c-1.7,3-5,6-8.4,8.2c-1.4,1.6-2,3.4-2.2,4.8l0,0.1c0.8,3.9,0.8,11-1,16.2
			c-0.4,1.2-1,2.5-1.9,3.7l0,0.1c-0.2,0.1-0.3,0.4-0.6,0.5c-0.8,1.1-1.8,1.9-2.9,2.5c-1.8,1.1-3.9,1.6-5.8,0.5
			c-4.1-2.4-7.1-6.3-8.3-11c-1.2-4.9,0.5-10.9,2.6-15.3c0-0.1,0.1-0.4,0.2-0.5c0-1.1-0.3-1.8-2.1-1c-1.4,1.4-3,2.4-4.9,2.5
			c-1.5,0.1-3-0.2-4.9-1.5c-4.1-2.9-5.3-8.8-5.8-14.1c-0.2-2.2-0.2-4.5-0.3-6.3c-0.1-6-1.4-18.9,5-22.3c3.3-1.8,7.5,0.6,7.1,4.5
			c-0.4,4.1-2.2,7.7-2.1,11.9l-0.1,1.6c0.1,4.5-0.3,8.9,0.6,10.3c2,3.2,6.2-2.9,7.4-5.1c3.7-7,2.9-14.7,4-22.1
			c0.2-1.1,0.7-2.2,1.4-3.1c0,0,0,0,0-0.1c0.6-0.7,1.4-1.4,2.1-1.7c1.1-0.5,2.3-0.7,3.3-0.3c1.3,0.5,2,1.8,2.5,3.2
			c0.9,1.8,1,4,0.8,6c0.5,5.6,0.7,13.5,1,17l0,0.4c-0.2,1.1,0.4,3.2,0.5,4.4c0.1,0.7,0.3,1.6,0.3,2.3c0.7,0.7,1.8,0.7,2.8,0.5
			c1.4-1.1,2.7-2.2,3.5-2.9c2-1.9,5-4.8,7.2-1.3C468.2,1313.5,466.8,1316.7,465.6,1318.8z M445.3,1333.1c-2.6,2.1-2.8,6.7-2.4,9.7
			c0.4,3.5,2.2,1.3,2.9-0.7c0.5-1.7,0.8-3.6,0.8-5.3l0-1.5C446.7,1334.3,446.3,1333.4,445.3,1333.1z"/>
		<path class="st10" d="M526.2,1283c0.2,2.4,0.3,4.8,0.1,7.3c-0.2,4.9,0.2,9.6-0.6,14.4c-0.6,3.7-1.8,8.4-4.2,11.4
			c-2.9,3.7-7.1,7.3-11.6,7.7c-1.6,0.1-3.4-0.2-5.1-1.1c-6.7-3.6-10.5-9.1-12.7-16.4c-1.2-4.3-2-9.1-2.6-13.5
			c-0.6-3.9-0.4-6.6-0.4-10.8l-0.1-2.5c-0.4-5.2,1.3-11.3,3.3-16.2c2.4-5.7,7.2-10.6,13.6-10.5c3,0,6.3,0.4,8.8,2.1
			c3.3,2.3,4.6,5.7,6.3,9.3C523.9,1270.7,525.6,1276.6,526.2,1283z M515.9,1279.9c-0.4-4.7-3.1-14.8-9-15.1
			c-7.1-0.2-7.2,12.2-7.4,17.1c-0.1,3.4-0.2,6.9,0.1,10.3c0.4,4.3,1.2,8.7,3,12.7c1.2,2.5,2.9,6.1,5.7,7c3.1,1.1,4.7-1.4,5.8-4
			c2-4.3,2.4-8.7,2.5-13.4c-0.1-2.1-0.6-4.2-0.5-6.4c0-1.7-0.2-4.3-0.3-6.3L515.9,1279.9z"/>
		<path class="st10" d="M562.1,1303.1c0.3,3.5-2.2,8.3-3.9,10.3c-3.6,4.3-8.2,7.4-13.7,6.4c-7.7-1.4-9.6-11.5-11.1-17.9
			c-0.9-3.9-1.5-8.1-1.9-12.4c-0.3-3.6-0.4-7.3-0.5-10.7c-0.2-6.8-0.6-15.2,2.1-21.5c1.3-2.7,2.9-5.1,6-3.7c2.7,1.3,3.3,4.1,2.9,6.9
			c-0.5,3.4-1.4,6.7-1.9,10.1c-0.4,4.1,0.3,8.3-0.1,12.5l0.2,1c-0.1,1.3,0,2.7,0.1,4.1c0.3,4.1,1.3,8.5,2,12.2
			c0.5,3.1,1.7,9.8,6.9,7.5c3.7-1.7,5.9-10.2,10.5-8.1C561.4,1300.3,562,1301.6,562.1,1303.1z"/>
		<path class="st10" d="M581.8,1308.4c-2.6,4.6-8.2,8.9-13.1,10.3c-3.2,1-6.7,1.3-9.6-1.1c-2.3-2.1-2.9-3.5-4.1-6.1
			c-1.2-2.6-1.7-5.6-2-8.7c-0.3-3.6-0.2-7.2-0.3-10.6c0-4.5-0.1-16.4,6.9-15.5c3.3,0.5,3.9,3.9,3.5,6.6c-0.3,2.9-0.5,7.1-0.8,10
			l0,0.5c0.1,1.6,0,4.4,0.2,7.1c0.2,2.4,0.6,4.6,1.9,6c2.6,2.9,9-2.6,11.1-4.5c2-1.8,4.9-4.6,7.2-1.3
			C584.5,1303.1,583,1306.4,581.8,1308.4z M555.5,1265.8c0.2-1.6,1.2-3.1,2.7-3.8c0.9-0.6,2.9-0.7,4-0.2l0.5,0.3
			c0.2-0.1,1.5,2,1.8,2.5c0.6,1.2,0.8,2.5,0.6,3.7c-0.5,2.4-2.9,4.5-5.4,4.3C556.2,1272.2,555,1268.8,555.5,1265.8z"/>
		<path class="st10" d="M616.3,1277.3c0,3.2-2.9,4-6,4.2c-1.2,0.3-3.3,1.1-4.5,3.2c-0.1,0.5-0.2,1-0.2,1.5
			c-0.8,4.4-1.3,7.8-2.4,12.2c-0.9,4.2-2.5,8.1-3.5,12c-0.5,2.7-1.8,3.8-4.6,4.7c-6,2.2-9.8-1.1-12.8-5.8c-4.1-6.3-6-13.8-8.1-20.8
			c-0.7-2.2-2.1-5.4-2.3-8.4c-0.2-2.4,0.4-4.4,2.5-5.8c5.6-3.5,8.7,2.2,8.8,6.6l0.1,1.7c0.6,1.2,1,2.9,1.4,4.4
			c0.5,1.7,3.6,15.3,6.1,13.7c1.3-0.9,2.6-6.7,3.2-8.1c1.2-2.3,1-4.1,1.7-6.6c0.6-2.3,0.9-4.7,1-7.1c0.1-2.2-0.3-5.3,1-7.4
			c0.5-0.9,1.5-1.5,2.6-1.8c0.4-0.3,0.8-0.4,1.2-0.6c2.4-0.7,3.9,0.4,5,1.6C608.4,1273.7,616.1,1269.5,616.3,1277.3z"/>
		<path class="st10" d="M658.9,1292.9c0.2,2.6-1.1,6-2,7.8c-1.3,2.6-3.1,4.5-5.3,6.2c-3.4,2.5-6.2,3.9-10.2,5.3
			c-1.8,0.6-3.8,1.1-5.9,1.2c-1.9,0.2-3.9,0.1-5.6,0.1c-2.9-0.1-6.5-0.1-9-1.7c-4.6-3.2-7.7-9.8-8.6-15.2c-0.5-3.2,0.3-6.8,1.2-9.9
			c0.7-3.1,1.7-5.6,3.2-8.4c1.9-3.1,4.7-5,7.6-7c2.8-1.9,5.4-2.8,8.9-2.5c4.4,0.5,9.4,3.8,10.7,8.5c1.3,5.3-2.1,9.1-3.7,13.8
			l-0.7,1.1c-1.2,2-2.5,3.2-2.8,5.7c-0.2,2.4,1.4,3.4,3.5,2.7c2.2-0.6,3.4-1.2,5.4-2.4c4.1-2.7,5.7-9.3,10.1-8.6
			C657.9,1289.7,658.8,1291.1,658.9,1292.9z M634.1,1281.5c-0.1-1.5-1-2.7-3-2.9c-2.5-0.2-4.9,2.6-6.4,4.3c-1.7,1.9-2.3,4.4-2.4,6.9
			c-0.1,2-0.3,5.1,2.2,5.2c2.1,0.1,3.4-2,5.1-3.4l0.8-0.9C631.7,1289,634.3,1284.4,634.1,1281.5z"/>
		<path class="st10" d="M679.8,1300.4c-2.6,4.6-8.2,8.9-13.1,10.3c-3.2,1-6.7,1.3-9.6-1.1c-2.3-2.1-2.9-3.5-4.1-6.1
			c-1.2-2.6-1.7-5.6-2-8.7c-0.3-3.6-0.2-7.2-0.3-10.6c0-4.5-0.1-16.4,6.9-15.5c3.3,0.5,3.9,3.9,3.5,6.6c-0.3,2.9-0.5,7.1-0.8,10
			l0,0.5c0.1,1.6,0,4.4,0.2,7.1c0.2,2.4,0.6,4.6,1.9,6c2.6,2.9,9-2.6,11.1-4.5c2-1.8,4.9-4.6,7.2-1.3
			C682.4,1295,681,1298.3,679.8,1300.4z M653.4,1257.7c0.2-1.6,1.2-3.1,2.7-3.8c0.9-0.6,2.9-0.7,4-0.2l0.5,0.3
			c0.2-0.1,1.5,2,1.8,2.5c0.6,1.2,0.8,2.5,0.6,3.7c-0.5,2.4-2.9,4.5-5.4,4.3C654.1,1264.1,652.9,1260.7,653.4,1257.7z"/>
		<path class="st10" d="M711.6,1303.7c-3,2.7-8.6,5.5-12.7,4.7c-7.7-1.5-9.8-8.4-10.4-15.6c-0.3-3.3-0.2-6.8-0.3-9.7
			c-0.1-1.1-0.2-2.5-1.6-2.2c-1.1,0.1-1.5,1.9-1.8,2.6c-0.8,2.6-1.3,5.1-2,7.6c-0.9,3.9-2.7,11.6-8.1,9.5c-1.9-0.8-2.7-2-2.8-3.5
			c-0.2-2.6,1.5-5.7,2.1-8.1c0.6-3.2,1.2-6.8,0.9-10.2c-0.1-1.5-0.4-3-1-4.4c-0.8-2.1-1.9-4.3-1-6.6c0.8-2.2,2.5-3.8,4.9-3.9
			c4.9,0.1,6.8,6.5,11.7,6.8c2.2,0.1,5-1.3,7-0.7c2,0.6,3.5,3.2,3.3,5.1c-0.2,2.4-2,4.7-2.4,7.1c-0.5,2.4-0.3,4.9-0.1,7.5l0,1
			c0,1.2,0.4,3.2,0.6,4.1c0.8,2.2,2.2,2.9,3.7,2.8c2.1-0.2,4.4-2,6-3.7c1.5-1.6,2.4-3.7,4.6-4.6c2.2-0.8,3.9,0.4,4.5,2.6
			C717.6,1295.9,714.6,1301,711.6,1303.7z"/>
		<path class="st10" d="M761.3,1289.8c-0.5,1.7-1.6,3.4-2.6,5.1c-1.1,2-2.9,3.1-4.5,4.7c-2.6,2.7-5.6,5.1-9.4,5.5
			c-1,0.2-1.9,0.2-2.7,0c-1.4-0.1-2.7-0.9-3.8-1.8c-0.9-0.9-1.7-2-2.3-3.3c-0.7-1.1-1.5-1.5-3.4-0.5c-3.4,1.6-8.5,5.7-13.3,6.1
			c-2.5,0.2-4.9-0.6-7-3.2c-2.2-2.7-3.4-6.2-3.7-9.9c-0.3-3.3,0.1-6.6,0.8-9.4c1.8-7.1,5.4-13.4,10.2-18.7c2.2-2.5,7.7-5.4,10.9-5.3
			c2.2,0.1,3.8,0.7,6,0.5c1.1-0.1,2.2-0.3,3.8-0.9c1.8-0.6,5.6,1.3,5.2,5.3c-0.4,3-1.1,6.3-1.7,9.2c-0.3,2.4-0.2,5.6-0.3,8.7
			c0.2,0.5,0.3,2.1,0.3,2.5c0.3,2.1-0.4,10.5,4.4,6.9c3.2-2.3,4.3-7.2,7.6-9c1.6-0.8,3.9,0.9,4.8,2.2
			C761.8,1286.2,761.6,1287.9,761.3,1289.8z M733.2,1277.5c-0.1-1.5-0.5-2.8-1-4c-2.3-4.9-9,2.2-10.4,4.5c-2,3.3-3,8.5-1.7,12.6
			c0.5,1.7,1.6,2.4,2.8,2.3c2.6-0.2,6.1-3.6,7.4-5.2c0.2-0.3,0.4-0.7,0.7-0.9l0.8-1.1C732.9,1283.5,733.4,1280.3,733.2,1277.5z"/>
	</g>
	<text transform="matrix(0.9966 -8.238007e-02 8.238007e-02 0.9966 1285.9767 533.0792)" class="st10 st20 st21">DL 35023944</text>
	<text transform="matrix(0.9966 -8.238007e-02 8.238007e-02 0.9966 136.8777 515.5967)" class="st10 st22 st23 st24">OLIVEIRA, MARY</text>
	<g>
		<line class="st25" x1="852.3" y1="663.5" x2="1394.8" y2="618.7"/>
		<line class="st25" x1="857.2" y1="722.8" x2="1345.8" y2="682.4"/>
		<line class="st25" x1="862.1" y1="782" x2="1269.9" y2="748.3"/>
		<line class="st25" x1="873.3" y1="916.6" x2="1415.7" y2="871.8"/>
		<line class="st25" x1="878.2" y1="975.9" x2="1366.8" y2="935.5"/>
		<line class="st25" x1="883" y1="1035.1" x2="1425.5" y2="990.3"/>
		<line class="st25" x1="887.9" y1="1094.4" x2="1241.9" y2="1065.1"/>
	</g>
	<g>
		<g>
			<path class="st4" d="M1795.5,658.3c0.2-1.6-1.7-3.4-2-3.4c-0.4,0-1.3,3.6-3.6,6c-0.4,0.4-0.9,0.8-1.6,1.2
				c-0.7-0.7-1.5-1.3-2.2-1.8c0,0-3.1-1.5-5.1-2.2c-2.9-0.8-14.6-1.1-15.2,12.8c0,0.4,0,1.9,0,1.9l-0.3,0.2c-4.3,2.1-6,6.2-7,8
				c-2.3,4.4-13,7.8-8.9,12.4c1.8,2,4.1,2.3,5.1,1.7c1.7-0.8,3.9,0,5.5-0.1c1.6-0.3,4.8-1.6,4.8-1.6c3.1-0.6,1.6,1.6,0,2.3
				c-13,5.5-16.2,12.3-17.6,18.5l-0.4,0c-2.7-0.5-13,0.7-13,0.7c-1.6,0.1-3,0.4-3.6,1.2c-0.6,0.9-0.6,1.5-0.3,2.9
				c0.3,1.4,3.4,11.4,3.7,12.8c1.4,6.3,2.4,13.8,2.1,17c0,1.6-0.3,2.5,1,1.7c4.9-3.4,4.9-4.5,5.9-6.2c1.2-2.1-1.3-2.7,1.2-6.3
				c1-1.3-1.6-2-2.7-2.8c-0.9-0.5,0.3-0.2-1.7-3.2c-1-1.5-1.9-7.6-1.9-8.2c0.2-1.6,1.8-3.5,3.3-3.3c1.5,0.4,8.5,5.9,8.5,6
				c2.4,9.6,9.9,12,14.7,13.5c-0.7,0.6-1.4,1.4-2.3,2.1c-8.4,7.4-7.7,9.3-4.9,13.3c2,3,4.7,5.6,1.6,8.2c-3.3,2.4-9.2,6.4-13.4,7.7
				c-2.6,0.9-4.4,4.3-5.1,6.4c-0.8,2.7-1.9,6.9-3.8,9.7c-0.3,0.6,5.4-0.6,7.1-1.7c1.9-1,2.7-1.3,3.1-3.8c0.5-2.9,3.3-2.4,3.3-3.3
				c-0.3-1-1.8-2-0.9-2.8c1-1,3.7-2.1,9.2-4.8c5.4-2.8,9.2-4.1,10.8-4.6c2.2-0.7,2-1.4,1.9-4.4c-0.2-2.8,0.1-5.1,1.1-6.1
				c0.8-1,0.6-1.6,0.3-2.5c-0.3-1-0.9-0.5-0.6-2.4c0.4-1.9,1.2-3.3,1.9-4.7c0.3,0.8,0.4,1.6,0.4,2.7c0.1,5,2.1,6.4,3.6,7.5
				c1.3,1,10.4,6,11.7,6.6c2.4,1.4,1.6,1.6,1.9,3.2c0.6,3.5-1,21.9-2.9,27.2c-0.4,1.5-1.1,2.2,0.5,1.7c5.7-1.9,6-3,7.4-4.2
				c1.6-1.6-0.5-4.2,2.9-5.7c2-1.1-0.7-2.1-1.5-5c-3.3-12.3,3.3-20.6,4-22.3c0.7-1.7,1.1-1.7-0.6-3c-5.5-4.2-6.7-10.4-6.7-10.4
				c0.8,0.8,2.6,2.1,3.8,1.2c1.1-1,0.6-1.9-0.5-2.7c-1.7-1.3-2.4-5.6-6-8.4c-2.5-1.9-12.1-15.1-13.2-22.1c-1.8-11,5.9-22.6,7.2-25.9
				c0.6-0.9,1.5-2.1,2.3-3.2c0,0,0.1,0,0.1,0c10.7-3.7,5.1-15.8,5.1-15.8c-0.3-0.7-0.8-1.4-1.4-2.3c0.2-0.1,0.3-0.2,0.5-0.3
				C1794.8,663.4,1795.3,661.2,1795.5,658.3z"/>
			<path class="st4" d="M1624.6,787.4c-1.1-2-3.4-5-6.1-5.5c-4.3-0.5-10.7-3.5-14.4-5.4c-3.5-2-1.3-5,0.2-8.3
				c2.1-4.4,2.3-6.4-7.2-12.3c-0.1-0.1-1.2-0.9-2.5-1.7c3.8-1.9,9.1-4.8,10.8-15.3c0,0,1.9-0.7,4.3-3.4c1.6-1.6,1.9-3.2,3.7-4.4
				c1.3-0.8,3.9-0.3,4,2.9c0,0.4,0.1,7.1-0.4,7.8c-1.5,3.1-1,2.9-1.8,3.5c-1,1-1.9,2.3-1,3.4c2.7,2.6,0.1,3.5,1.7,5.4
				c1.3,1.3,2,3.2,7.4,5.8c1.5,0.6,1-0.3,0.7-1.8c-0.8-3.1-1.8-13.7-1.5-20.1c0.2-1.4,1.6-8.3,1.9-9.7c0.4-1.5-0.1-2.8-0.3-3.3
				c-0.6-0.8-1.8-2.5-7-1.5c0,0-7.1,1.5-9.7,2.4c-2.1,0.5-2.5-4-3.9-6.4c-1.5-2.5-3.9-6.8-10-7.8c-2.5-0.5-12.9-0.2-10.4-4.3
				c0,0,0.4-1.3,2.6-1.1c1.6,0.2,6.5,1.2,7.6-0.6c0.3-0.2,0.1-0.4,0.1-0.7c0,0,2.7,0.3,3.6,0.4c1.4-0.1,2.9-0.9,3.7-1.9
				c0.5-0.7,1-2.7,0.7-2c-0.3,0.7-2,1.2-2.7,1.6c-0.6,0.2-2.4,0.3-4,0.2c0.3-0.4,3.7-3.7,3.6-4.2c-0.1-1.1-7.1-2.4-8.2-4.8
				c-1.1-2-4-5.3-8.6-5.7c0,0,2.6-0.4,3.7-0.7c3.1-1.5,4.2-5.1,4.2-5.1s-2.5,1.6-3.8,1.7c-1.9,0-2,1.1-2.6,0.7
				c-0.4-0.1,2.6-2.9,3.6-3.3c1.2-0.6,3.3-3.1,3.8-3.7c2.3-2.5,2.3-8.3,2.3-8.3s-2.2,3-2.5,3.6c-0.8,1.5-1.9,3-2.5,2.3
				c-1.2-1.1,2.8-7.3,3.2-8.1c0.5-0.7,0.9-4.5,0.8-5.6c-0.1-1.4-0.4-2.4-0.4-2.4s-0.9,1.8-1.2,2.6c-0.5,2-1.6,3.9-2.1,4.2
				c-0.3,0.4-1.4-4-2.9-5.6c-1.6-1.6-3.7-1.8-3.7-1.8s1.4,2.4,1.7,3.1c2,4.6,2.6,8.5-0.5,17.4c-1.2,3.1-1.7,0.8-2-0.7
				c-0.8-2.8-0.6-6.7-0.6-6.7s-2.1,1.9-2.1,4.2c0,1.8,0.2,3,0,4.6c-0.3,3.4-0.6,3.4-1.1,3.8c-0.4,0-1.1-4.9-1.9-6
				c-1.7-3.4-1.5-7.5-1.5-7.5s-2,1.4-2,5.7c0,4.6,1.9,6.4,0.6,7.4c-0.5,0.4-1.9-2-2.5-2.8c-1.2-1.5-3.2-2.4-3.7-4.5
				c-0.8-3.5-4.5-7.1-4.5-7.1s1,3.1,0.9,4.5c-0.3,2.3,0.9,4,0.5,4c-4.2-1.2-3.7-8.2-3.6-9.8c0.3-3.2-1.9-7.5-1.9-7.5s0,2.3-0.7,4.1
				c-1,2.9-0.2,5.7-1,5.6c-2-0.2-2.6-3.7-3.3-5.2c-0.5-1.2-1.4-2.5-1.4-2.5s-0.3,4.5,0.9,8.6c0.5,2.1,2.7,4.9,3.7,6.2
				c0.2,0.2,0.2,0.2,0,0.2c-1.4-0.1-1.8,0-2.7-0.5c-0.7-0.3-3.8-1.5-3.8-1.5s2,3.2,2.6,3.7c2.3,2.1,5.1,2.2,6.6,2.3
				c3.4,0.3,7.6,2.4,9.2,4c1.9,1.8,1.7,1.6,1.7,1.6c-0.2,0-0.8,1.1-1,1.3c0,0-0.1,0.5-1.5-0.9c-2.7-2.8-4.7-1.6-6.9-2.3
				c-2.2-0.9-3.7-1.5-4.2-2c0,0,0.9,4.4,1.9,5.5c1,1.3,1.1,5,6.9,6.3c0.9,0.1,0.7,0.3,0.4,0.8c-0.5,0.4-1.8,7.8,0.2,14.7
				c0.2,0.9,2.8,8.1,10.3,15.1c2.3,2.1,3.2,6.1,3.2,6.1c1.6,4.6-8.4,18.2-10.9,20.2c-4,2.8-5.1,8.6-6.6,10.1c-1.5,1.4-1.6,1.6-2,2.1
				c0,0,2.9,1.2,7.4-2.2c0,0-0.3,7.3-5,12.3c-1.5,1.5-1.1,1.5-0.1,3c1,1.5,8.9,8.7,7.6,21.3c-0.3,3-2.8,4.5-0.6,5.2
				c3.6,0.9,1.9,3.9,3.8,5.2c1.7,0.9,2.1,2,8,2.9c1.6,0.2,0.8-0.4,0.2-1.8c-2.7-4.9-7.4-22.8-7.3-26.3c0-1.6-0.8-1.7,1.3-3.5
				c1.2-0.8,9.3-7.3,10.5-8.5c1-1.1,2.4-2.4,2.5-5.4c1.3,0.6,2.3,1.1,2.3,1.5c-0.1,0.9-0.4,1.6,0.7,2.4c1.1,0.8,1.8,3,2.1,5.9
				c0.4,3,0.3,3.7,2.6,4c1.6,0.2,5.6,1,11.4,2.8c5.8,1.8,8.7,2.5,9.8,3.3c0.9,0.6-0.4,1.8-0.5,2.9c0.1,0.9,2.8-0.1,3.8,2.7
				c0.7,2.4,1.6,2.5,3.6,3.2c1.8,0.7,7.7,1,7.3,0.5C1627.6,793.9,1625.9,789.9,1624.6,787.4z"/>
			<path class="st4" d="M1697.1,856.1c-2.9,1.3-2.7,1.3-3-1.9c-0.3-3.3-5.6-3.1-6.1-4.8l-0.2-0.3l-0.1,0.4c-0.2,1.8-5.5,2.2-5.2,5.7
				c0.4,3.2,0.4,3.2-2.6,2.3c-3.3-0.8-4.6,4.3-6.4,4.2l-0.5,0l0.4,0.3c1.7,0.7,0.5,6,3.9,6.6c3.1,0.8,3.1,0.6,1.3,3.3
				c-1.9,3,2.6,5.8,2,7.6l0,0.4l0.3-0.2c1.1-1.3,5.8,1.3,7.5-1.7c1.7-2.8,1.5-2.8,3.5-0.3c2.3,2.6,6.3-0.7,7.8,0.4l0.4,0.1l-0.2-0.3
				c-0.8-1.7,3.1-5.2,0.8-7.9c-2-2.3-2.1-2.1,1-3.4c3.1-1.1,1.3-6.1,2.8-7.1l0.1-0.4l-0.4,0C1702.5,859.6,1700.3,854.8,1697.1,856.1
				z"/>
			<path class="st4" d="M1739.4,856.2c-2.8-1.5-2.8-1.5-0.5-3.5c2.5-2.3-0.9-6.3,0.1-7.8l0.1-0.4l-0.4,0c-1.5,1-5.2-2.8-7.8-0.4
				c-2.3,2.1-2.1,2.1-3.4-0.8c-1.3-3.1-6.3-1.1-7.3-2.4l-0.4-0.3l0,0.4c0.3,1.7-4.3,4.1-2.9,7.3c1.5,2.7,1.5,2.7-1.7,3
				c-3.3,0.5-2.9,5.7-4.6,6.2l-0.3,0.2l0.4,0.1c1.8,0.2,2.6,5.5,6.1,5c3-0.4,3-0.4,2.3,2.6c-0.8,3.3,4.4,4.4,4.4,6.4l0,0.4l0.3-0.4
				c0.7-1.7,6-0.7,6.6-4.1c0.6-3.1,0.5-3,3.2-1.5c3,1.7,5.6-2.8,7.4-2.2l0.4,0l-0.2-0.3C1739.9,862.5,1742.4,857.7,1739.4,856.2z"/>
			<path class="st4" d="M1770.7,829.7c-3-0.5-3-0.5-1.7-3.2c1.7-3-2.9-5.6-2.4-7.2l0-0.5l-0.3,0.4c-1.1,1.3-5.9-0.9-7.4,2.2
				c-1.4,2.8-1.4,2.8-3.5,0.5c-2.5-2.4-6.3,1.1-7.8,0.1l-0.4-0.1l0,0.4c1,1.5-2.6,5.3-0.2,7.8c2.3,2.3,2.3,2.1-0.4,3.4
				c-3.2,1.7-0.9,6.4-2.4,7.5l-0.1,0.4l0.4,0c1.7-0.5,4.2,4.3,7.3,2.6c2.9-1.3,2.7-1.5,3.2,1.7c0.5,3.5,5.7,2.7,6.4,4.4l0.2,0.3
				l0.1-0.4c0.2-1.8,5.3-2.7,4.8-6.2c-0.6-3-0.6-3,2.5-2.3c3.4,0.6,4.4-4.6,6.2-4.8l0.5,0l-0.4-0.3
				C1773.5,835.5,1774.1,830.1,1770.7,829.7z"/>
			<path class="st4" d="M1661.1,855.7c-3.2,0.3-3,0.4-2.2-2.7c1-3.3-4.1-4.8-3.9-6.8l-0.2-0.3l-0.1,0.4c-0.9,1.5-6,0.3-7,3.6
				c-0.6,3.1-0.6,3.1-3.3,1.3c-2.8-1.9-5.8,2.4-7.5,1.7l-0.5,0l0.4,0.3c1.2,1.3-1.6,5.8,1.3,7.7c2.6,1.6,2.6,1.6,0.1,3.5
				c-2.7,2,0.5,6.3-0.6,7.7l-0.1,0.4l0.4,0c1.5-0.8,5,3.1,7.7,1c2.5-2,2.3-2,3.4,1c1.2,3.3,6.1,1.4,7.2,3l0.2,0.3l0-0.4
				c-0.1-1.8,4.6-3.7,3.5-7c-1.1-2.9-1.3-2.9,1.9-3c3.5-0.1,3.3-5.4,5-5.9l0.5-0.2l-0.4-0.1C1665.1,860.9,1664.6,855.6,1661.1,855.7
				z"/>
			<path class="st4" d="M1627.5,843.3c-3.1-1-3.1-0.8-1.2-3.4c2.1-2.8-2.3-6-1.5-7.7l0.1-0.4l-0.3,0.2c-1.3,1.3-5.8-1.6-7.7,1.2
				c-1.9,2.6-1.7,2.6-3.5,0.1c-2-2.8-6.4,0.2-7.7-1l-0.4-0.3l0,0.5c0.8,1.5-3.3,4.9-1.3,7.5c2,2.5,2,2.5-1,3.4c-3.3,1-1.8,6.2-3.3,7
				l-0.3,0.4l0.4,0c1.9-0.2,3.8,4.8,7,3.7c2.9-1.1,2.7-1.1,2.8,1.9c-0.1,3.5,5.3,3.6,5.6,5.4l0.2,0.3l0.1-0.4
				c0.4-1.8,5.7-1.9,5.6-5.4c-0.1-3.2-0.1-3,2.8-2.2c3.3,1.1,5-3.8,6.8-3.7l0.5,0l-0.4-0.1C1629.4,849.3,1630.7,844.3,1627.5,843.3z
				"/>
			<path class="st4" d="M1646.1,813.9c2.5,0.1,2.9,0.3,4.3,0.9c0.7,0.5,1.6-0.1,0.9-2c-0.6-1.4-3.7-10.5-4.7-11.5
				c-5.5-6.6-15.8-2.2-26.1,1.8c-5.1,2-34.4,19.1-43.2,17.4c-3.6-0.6-5.1-1.7-6-2.3c-1-0.8-1.9-1.3-1.2,0.5c0.7,1.7,6,10.8,7.8,13.3
				c3.6,4.7,11.7,4,20.5-0.5c2.5-1.4,28.7-13.2,33-14.8C1635.8,815.2,1643.5,813.8,1646.1,813.9z"/>
			<path class="st4" d="M1797.7,799.5c-0.8,0.8-2.1,2.1-5.6,3.3c-8.4,3.2-39.9-9.5-45.5-10.4c-10.6-2.1-21.6-4.6-26.1,2.9
				c-0.8,1.1-2.3,10.6-2.5,12.1c-0.4,2,0.4,2.4,1.2,1.8c1.3-0.8,1.5-1,3.9-1.6c2.8-0.6,10.6-0.5,14.9,0.4c4.5,0.9,32.2,8.1,35.1,9.1
				c9.3,3,17.4,2.3,20.1-2.9c1.5-2.8,5.2-12.6,5.7-14.5C1799.4,797.9,1798.6,798.5,1797.7,799.5z"/>
			<path class="st4" d="M1659.8,838c2.4,0.9,14.8,5.9,27.5,4.6c12.7-1,24.3-7.9,26.3-9.1c2.2-1.2,5.4-5.1,5.2-7.7
				c-0.1-1.1-0.8-9.5-1-11.6c-0.2-2.3-0.3-3.5-2.4-1.2c-5.5,5.9-21,11.5-29.6,12.2c-8.6,0.7-24.8-2.2-31.2-7.2
				c-2.5-1.9-2.4-0.7-2,1.6c0.2,2.1,0.9,10.6,1,11.6C1653.8,833.9,1657.4,837.1,1659.8,838z"/>
			<path class="st4" d="M1650.6,606.2c-0.1,3-3.3,5.2-3.2,6.5c0,0.4,1.1,0.8,1.7,0.7c0.2,0.2,0.6,0.3,0.6,0.8
				c-0.1,1.2-0.5,2.5,0.5,6.3c0.5,2.3,3.7,4.1,3.7,4.1l0,10.3c0,0-1.6,0.3-1.9,0.7c-0.5,0.4-1.1,1.3-1,2.7l11.3-0.9
				c0,0,0.3-1.1,0.2-1.8c0.4-2.2,1.1-5.6,1.6-6.9c0.3-0.6,6.9-2,9.8-5.8c0.5-0.6,0.6-0.9,1.8-0.1c0.7,0.5,6.1,3.2,7,3.7
				c0.5,0.1,0.2,2.1,0.1,2.8c-0.3,0.9-0.1,2.5-0.6,2.9c-0.7,0.6-2.1,0-3.1,1.3c-0.8,1.5-0.4,1.8-0.3,2.5c0,0,7.4-0.6,9-0.7
				c0.5,0,3.3-11.8,3.9-12.9c0.3-0.7,0.2-1.4-0.7-1.9c-5-2.4-4.9-5.3-4.9-5.3s3.4-1.9,3.1-4.9c-0.2-2.3-0.9-4.7-6.2-4.8
				c-0.9-0.1-0.7-0.1-2.8,0.1c-1.9,0.2-4.4,0.2-4.5-0.9c-0.2-1.9,2.3-2.7,4.4-2.1c2.2,0.4,6.8,0.5,8-2.1c0.9-1.8,0-6.2-0.7-8.3
				c-0.2-0.3-0.6,1.5-1.7,3c-0.8,1.3-3,2.2-6.5,2.8c-4.7,0.7-9.6,2.2-8.9,7.6c0.4,2.8,5.1,4,9.2,3.7c4.2-0.2,3.5,3.6-3.7,4.2
				c-1.8,0.1-4.9-1-5.8-2c0.4,0,1.5-0.7,1.5-1c-0.1-1.2-3.6-2.9-4.2-5.9c-0.4-3-0.6-5.1-0.6-5.4c-0.2-0.5,0.1-0.4,0.8-0.4
				c0.7-0.1,0.8-0.8,0.8-1.1c0-0.5-0.4-0.3-1.1-0.4c-0.7-0.3-0.8-1-0.5-1.2c1.2-1,1.7-3,1.5-4.9c-0.2-2.6-4.8-4.7-7.7-0.8
				c0,0,0-0.5-0.3-0.9l-0.4-4.7l-1.6,0.5l0.4-2l-1.4,0.1l-1.4,0.1l0.5,1.9l-1.6-0.2l0.4,4.7c-0.2,0.5-0.1,0.9-0.1,0.9
				c-2.9-3.1-7.5-1.1-7.4,2c0,1.9,1,3.8,2.3,4.6c0.4,0.1,0.4,0.9-0.3,1.3c-0.7,0.2-1.1,0.1-1,0.6c0,0.4,0.3,1,1,1
				c0.7-0.1,1-0.3,0.9,0.3C1650.3,601.1,1650.5,603.2,1650.6,606.2z"/>
			<path class="st4" d="M1619.2,675.2c0,0-0.9,8.9,10.1,17.4c7.9,6.6,17.5,5.8,20.4,4.7c2.9-1.1,3.7-2.1,3.7-2.1s3.5,3.6,8.2,6.6
				c2.6,1.6,5.4,3.2,7.9,4.5l-43,3.6l4.3,51.9c1.3,15.5,9.1,29.2,22.8,39.9c10.4,8.5,22.5,13.4,29.6,14.9l2,0.5l2.1-0.9
				c6.7-2.7,17.6-9.4,26.7-19.6c11.5-12.8,17-27.6,15.7-43.1l-4.3-51.9l-41.5,3.4c1.3-0.9,2.7-1.9,4-3c3.2-2.8,7.6-7.9,9.5-10.3
				c5.2,2.3,12.8,0.9,19.6-4.3c1.3-0.8,1.8-1.3,2.8-2.3c0.3-0.3,0.6-0.6,0.8-0.9c0.3-0.3,0.5-0.6,0.7-0.9c7.6-9.4,5.6-17,5.6-17
				c6.9-0.6,13.4-8.7,13.8-15.3c0,0-0.1,0.7-1.7,1.2c-3.1,1.1-5.1,0.2-7.9,1.2c-2.8,0.9-3.4,1.3-3.4,1.3c1.2-2.1,1.4-2.2,2.3-6
				c3.3-14.1-5.6-22.7-5.6-22.7c1.5,5.5-1.5,9.3-4,13.6c-4,6.7-2.9,12.6-2.9,12.6c0.7,2.2,0.6,2.6,0.6,2.6c-1.5-1.1-3.2-2.7-4.5-3.2
				c-1.1-0.4-4-1.1-5.1-5.8c0,0-4.9,5-1.4,12.7c1.1,2.5,4.7,5.7,7.4,10.6c-1.1,4.2-4.5,13.3-12.3,12.1c-3.9-0.6-5.2-5.2-5.7-8.6
				c-0.7-4.5-2.3-6.9-2.3-6.9l-0.4,0c2.6-0.2,2.3-2.1,2.3-2.1c-0.1-1.2-1.1-2-2.3-1.9l0-2.5c6-6.3,4-12,3-14.9
				c-2.6-9.4-17.5-8.1-21.4-1.6l-0.8-9.5l-4.1,1.2l1.9-4.6l-2.8,0.2l-2.8,0.2l2.7,4.2l-4.3-0.5l0.8,9.8c-4.7-6.1-20-5-21.2,4.9
				c-0.3,3-1.4,9,5.6,14.2l0.2,2.5c-0.7,0.1-2.1,0.9-2,1.9c0,0,0.1,1.5,1.5,1.9c-1.1,1.3-2.9,3.7-2.5,6.8c0.4,3.7,2.1,6.6,4.1,8.7
				c-6.1,5.9-15.4,2.5-19.3-9.5c0.3-0.7,0.7-1.5,1.2-2.2c9.4-14.8,0.4-20.9,0.4-20.9c-0.3,4.8-3.1,5.9-4.1,6.5
				c-1,0.6-2.6,2.5-3.9,3.9c0,0,0.3-0.7,0.1-2.7c0,0,0.2-6-4.7-12c-3.3-3.8-7-7-6.2-12.8c0,0-7.5,10-1.8,23.3
				c1.4,3.6,1.6,3.8,3.1,5.6c0,0-0.7-0.3-3.6-0.8c-2.9-0.5-4.7,0.7-8,0.1c-1.4-0.2-1.8-0.9-1.8-0.9
				C1604.6,668.8,1612.6,675.8,1619.2,675.2z"/>
		</g>
		<g>
			<path class="st4" d="M1545.6,916.3l0.4,0.2l3.2,0c2.7,0,3.2,0.2,3.7,6.2l2.5,30.5c0.7,8.1,0.6,8.1-3,9l-2,0.5l-0.3,0.3
				c-0.6,0.6-0.8,1.5-0.5,2.4c0.2,0.9,0.7,1.5,1.4,1.7l0.3,0.1l0.3,0c1.1-0.1,2.1-0.2,3.2-0.4c2.2-0.3,4.4-0.5,7-0.7
				c2-0.2,4.2-0.3,6.3-0.4c1.7-0.1,3.3-0.2,4.4-0.3c15.9-1.3,24.5-8.2,23.6-19c-0.7-8.1-7.1-12.6-13.2-13.5c3.7-2.3,7-5.8,6.5-11.7
				c-0.4-5.1-3.4-8.9-8.5-10.6c-4.7-1.7-10.6-1.5-15.7-1.1c-8.2,0.7-14.2,1.4-19.2,2.2c-0.3,0.1-1.1,0.3-1.3,1.5
				C1544.6,914.1,1544.7,915.6,1545.6,916.3z M1562.4,915.5l0.3-0.2c0.4-0.2,1.4-0.5,3.6-0.7c2.8-0.2,12-0.3,12.7,8.5
				c0.5,6.2-2.7,8.9-11.9,10c-1,0.1-3,0.4-3.2,0.4c-0.1-0.1-0.1-0.7-0.1-1l-1.3-16.3C1562.4,915.8,1562.4,915.6,1562.4,915.5z
				 M1564.3,938.8c0.2-0.1,1-0.4,3.8-0.6c14.2-1.2,17,6.4,17.4,11c0.7,8.2-6,10.4-11.8,10.9c-3,0.2-4.9-0.2-6.2-1.3
				c-1.6-1.4-2-6.1-2.1-7.7l-1-11.9C1564.3,938.9,1564.3,938.8,1564.3,938.8z"/>
			<path class="st4" d="M1652.8,954.3l-2.3,0.4l-0.3,0.3c-0.5,0.6-0.7,1.4-0.5,2.3c0.2,0.8,0.7,1.4,1.3,1.6l0.3,0.1l0.3,0
				c3.8-0.4,6.3-0.7,9.5-1c3-0.2,5.6-0.4,9.4-0.6l0.3,0l0.3-0.2c0.8-0.4,1.1-1.4,1-2.2c0-0.9-0.4-1.6-1.1-2l-2.5-0.2
				c-3.5-0.1-3.5-0.1-4-7.1l-2-24.4c-0.6-7.2-0.5-7.2,2.8-7.7l2.2-0.3l0.3-0.2c0.6-0.4,0.9-1.2,0.8-2.1c-0.1-0.7-0.5-1.7-1.4-2
				l-0.3-0.1l-0.3,0c-3.8,0.4-6.3,0.7-9.4,1c-3.2,0.3-5.8,0.4-9.5,0.6l-0.3,0l-0.3,0.2c-0.8,0.4-1.1,1.4-1,2.2c0,0.9,0.4,1.6,1.1,2
				l0.3,0.1l2.2,0c3.3,0,3.4,0,4,7.1l2,24.4C1656.2,953.6,1656.2,953.6,1652.8,954.3z"/>
			<path class="st4" d="M1672,920.4c0.8,0.1,1.5-0.1,2-0.5l0.3-0.2l0.1-0.3c0.6-1.6,1.1-3,2.5-4.5c1.4-1.5,5.9-1.9,7.7-2l3.9-0.3
				c0.2,0,0.5,0,0.8-0.1c0,0.2,0.1,0.5,0.1,0.8l2.5,30.6c0.6,6.9,0.3,7-2.6,7.5l-2.9,0.5l-0.3,0.2c-0.6,0.5-1,1.3-0.8,2.2
				c0.1,0.9,0.6,1.6,1.3,1.9l0.3,0.1l0.3,0c4.5-0.5,7-0.8,9.8-1c2.8-0.2,5.2-0.4,9.3-0.6l0.3,0l0.3-0.2c0.6-0.4,1-1.2,1-2.1
				c0-0.9-0.4-1.6-1-2l-0.3-0.2l-2.6,0c-3,0-3.1,0-3.6-7l-2.5-30.7c0-0.3,0-0.5-0.1-0.8c0.2,0,0.5-0.1,0.7-0.1l5.1-0.4
				c3.6-0.3,6.2,0,7.6,0.8c0.2,0.1,1,1.1,1.6,4l0.1,0.4l0.3,0.3c0.6,0.6,1.6,0.7,2.3,0.6c0.8-0.2,1.4-0.6,1.7-1.3l0.2-0.4l-0.1-0.4
				c-0.4-1.9-0.3-7.3,0.2-10l0.1-0.5l-0.3-0.5c-0.7-1.1-2.3-0.9-3-0.6l-0.4,0.2l-0.2,0.4c-0.6,1.2-0.7,1.3-4.3,1.6l-29.1,2.4
				c0,0,0,0-0.1,0c-3.2,0.3-4.2,0.2-4.5-0.7l-0.1-0.4l-0.3-0.3c-0.9-0.7-2.5-0.3-3,0.1l-0.5,0.4l-0.1,0.6c-0.3,2.7-0.9,7.1-1.8,10.2
				l-0.2,0.6l0.3,0.5C1670.5,919.8,1671.2,920.2,1672,920.4z"/>
			<path class="st4" d="M1725.5,948.3l-2.3,0.4l-0.3,0.3c-0.5,0.6-0.7,1.4-0.5,2.3c0.2,0.8,0.7,1.4,1.3,1.6l0.3,0.1l0.3,0
				c3.8-0.4,6.3-0.7,9.5-1c3-0.2,5.6-0.4,9.4-0.6l0.3,0l0.3-0.2c0.8-0.4,1.1-1.4,1-2.2c0-0.9-0.4-1.6-1.1-2l-2.5-0.2
				c-3.5-0.1-3.5-0.1-4-7.1l-2-24.4c-0.6-7.2-0.5-7.2,2.8-7.7l2.2-0.3l0.3-0.2c0.6-0.4,0.9-1.2,0.8-2.1c-0.1-0.7-0.5-1.7-1.4-2
				l-0.3-0.1l-0.3,0c-3.8,0.4-6.3,0.7-9.4,1c-3.2,0.3-5.8,0.4-9.5,0.6l-0.3,0l-0.3,0.2c-0.8,0.4-1.1,1.4-1,2.2
				c0,0.9,0.4,1.6,1.1,1.9l0.3,0.1l2.2,0c3.3,0,3.4,0,4,7.1l2,24.4C1728.9,947.6,1728.9,947.6,1725.5,948.3z"/>
			<path class="st4" d="M1750.8,948.4l0.2,0.3l0.4,0.1c2.1,0.8,6.7,2.1,13.4,1.6c11.1-0.9,18.1-7.2,17.4-15.5
				c-0.5-5.8-4.4-10.2-12-13.4l-6.8-2.9c-2.4-1-6.5-3.2-6.7-6.7c-0.2-2.3,0.6-6.3,7.7-6.9c6.6-0.5,8.9,2.7,10.3,6l0.1,0.3l0.2,0.2
				c0.5,0.4,1.2,0.5,2,0.5c0.3,0,1.5-0.3,2.1-1.1l0.3-0.4l0-0.5c-0.2-2.9-1.3-6.9-2.3-8.8l-0.4-0.8l-0.9,0.1c-0.5,0-1.6,0-2.6-0.2
				c-2-0.3-5.1-0.5-7.9-0.3c-12.3,1-17.3,8.1-16.7,14.6c0.4,5,4.1,9.3,10.5,12.2l8,3.6c5.7,2.5,6.4,5.4,6.6,7.9
				c0.2,3-1.8,6.7-8.2,7.2c-7.8,0.6-11.6-4.1-13.4-8.2l-0.3-0.4c-0.4-0.4-1.1-0.7-1.8-0.6c-0.7,0.1-1.7,0.4-2.2,1.1l-0.3,0.4
				l0.1,0.5C1748,941.6,1749.4,946.6,1750.8,948.4z"/>
			<path class="st4" d="M1785,903.6l0.3,0.2l2.3,0c2.6,0,3.1,0,3.7,7l2,24.6c0.6,6.7,0.6,6.7-2.5,7.5l-1.6,0.4l-0.3,0.3
				c-0.5,0.6-0.7,1.4-0.5,2.3c0.2,0.8,0.7,1.4,1.3,1.6l0.3,0.1l0.3,0c1-0.1,1.9-0.2,2.9-0.3c1.8-0.2,3.6-0.4,5.6-0.6
				c2.9-0.2,5.4-0.4,9.3-0.6l0.3,0l0.3-0.2c0.7-0.4,1-1.2,1-2.1c0-0.9-0.4-1.6-1.1-2l-0.3-0.1l-2.5,0c-3.1-0.1-3.3-0.1-3.9-6.9
				l-0.8-9.7c0-0.2,0-0.5,0-0.8c0.5-0.1,1.6-0.2,2.3-0.3l21.1-1.7c0.7-0.1,1.8-0.2,2.3-0.1c0,0.2,0.1,0.6,0.1,0.8l0.8,9.7
				c0.6,6.7,0.6,6.7-2.7,7.5l-1.8,0.4l-0.3,0.3c-0.5,0.6-0.7,1.4-0.5,2.3c0.2,0.8,0.7,1.4,1.3,1.6l0.3,0.1l0.3,0
				c3.5-0.4,6-0.7,8.8-0.9c2.9-0.2,5.4-0.4,8.9-0.5l0.3,0l0.3-0.2c0.7-0.4,1-1.2,1-2.1c0-0.9-0.4-1.6-1.1-2l-2.4-0.2
				c-3.3-0.1-3.3-0.1-3.8-7l-2-24.6c-0.6-7-0.5-7,2.6-7.5l1.8-0.3l0.3-0.2c0.6-0.4,0.9-1.2,0.7-2.1c-0.1-1-0.6-1.7-1.4-1.9l-0.3-0.1
				l-0.3,0c-3.3,0.4-5.8,0.7-8.6,0.9c-3.1,0.3-5.7,0.4-8.9,0.5l-0.3,0l-0.3,0.2c-0.7,0.4-1,1.2-1,2.2c0,0.9,0.4,1.6,1.1,1.9l0.3,0.1
				l1.7,0c3.2,0,3.3,0,3.9,7l0.7,7.9c0,0.2,0,0.5,0,0.8c-0.5,0.1-1.5,0.2-2.3,0.3l-21.1,1.7c-0.8,0.1-1.8,0.2-2.3,0.1
				c0-0.2-0.1-0.6-0.1-0.8l-0.7-7.9c-0.6-7-0.5-7,2.6-7.5l1.7-0.3l0.2-0.2c0.6-0.4,0.9-1.2,0.7-2.1c-0.1-1-0.6-1.7-1.4-2l-0.3-0.1
				l-0.3,0c-3.4,0.4-5.8,0.7-8.5,0.9c-1.9,0.2-3.6,0.2-5.4,0.3c-1.2,0.1-2.5,0.1-3.9,0.2l-0.3,0l-0.3,0.2c-0.7,0.4-1,1.2-1,2.1
				C1784,902.6,1784.3,903.3,1785,903.6z"/>
			<path class="st4" d="M1561.1,1014.8c-0.9-0.1-1.8,0.1-2.4,0.6l-0.3,0.3l-0.1,0.4c-1.3,4.2-4.9,11.4-15.2,12.3
				c-13.9,1.2-24.1-8.4-25.4-23.7c-1.4-17.5,9.5-24.7,20.2-25.6c8.9-0.7,14.3,2.4,16.6,9.7l0.1,0.4l0.4,0.3c0.6,0.4,1.5,0.6,2.4,0.4
				c0.8-0.2,1.4-0.6,1.8-1.2l0.3-0.5l-0.1-0.5c-1-4.8-1.9-9.9-2.1-11.9l-0.2-1.4l-1.4,0.3c-0.4,0.1-0.8,0-1.8-0.1
				c-4.3-0.8-10.8-1.1-15.2-0.8c-9,0.7-16.9,3.9-22.6,9.2c-6.5,6-9.8,14.7-9.1,23.9c0.8,9.9,5.9,18,14.3,22.8
				c6.1,3.4,13.3,4.7,21.9,4c5.7-0.5,11.6-2.3,13.4-3.1c0.8-0.4,1.7-0.8,2.6-1l0.5-0.1l0.3-0.4c1.3-1.9,3-7.9,3.3-12.3l0-0.5
				l-0.3-0.4C1562.6,1015.3,1561.9,1014.9,1561.1,1014.8z"/>
			<path class="st4" d="M1587.9,979.3c-15.4,1.3-26,13.2-24.8,27.7c1,12.2,11.3,23.8,29,22.3c15-1.2,25.4-13,24.2-27.4
				C1615.3,990,1606,977.8,1587.9,979.3z M1587.1,984.2c13-1.1,18.6,10.5,19.5,20.7c1.1,13.5-6.8,19-14,19.6
				c-14.2,1.2-19.1-12.3-19.8-20.4C1571.7,990.4,1579.8,984.8,1587.1,984.2z"/>
			<path class="st4" d="M1704.7,974.4c0.4-0.6,0.6-1.4,0.4-2.1c-0.2-0.7-0.6-1.2-1.2-1.5l-0.4-0.2l-0.4,0.1
				c-2.6,0.3-4.5,0.6-7.5,0.8c-2.7,0.2-5.4,0.4-8.2,0.5l-0.4,0l-0.3,0.3c-0.5,0.4-0.8,1-0.9,1.8c0,0.8,0.2,1.5,0.8,2l0.4,0.4l2.4,0
				c1.7,0,2.5,0.4,2.6,0.6c0.3,0.4,1.4,2.7,2.3,13.4l0.7,7.9c0.6,7.7-0.9,17.1-11.8,18c-9.3,0.8-13.8-4.1-14.8-15.8l-1.2-14.8
				c-0.6-7-0.5-7,2.5-7.5l2.1-0.3l0.3-0.2c0.6-0.4,0.8-1.2,0.7-2.1c-0.1-0.7-0.5-1.6-1.3-1.9l-0.3-0.1l-0.3,0
				c-3.5,0.4-5.9,0.7-8.9,0.9c-2.9,0.2-5.3,0.4-9,0.5l-0.3,0l-0.3,0.2c-0.8,0.4-1,1.4-1,2.1c0,0.9,0.4,1.6,1.1,1.9l0.3,0.2l2.1,0
				c3,0,3.1,0,3.7,7l1.3,16.2c0.7,8.4,3.1,13.8,7.6,16.7c3.6,2.4,8.5,3.4,14.7,2.9c6-0.5,11.4-3,14.4-6.6c3.4-4,4.7-9.8,4-17.8
				l-0.6-7.7c-0.3-3.1-0.9-11.4-0.2-13.4c0.1-0.2,0.8-0.8,2.4-1.1l2.3-0.4L1704.7,974.4z"/>
			<path class="st4" d="M1805.5,983.4c3.2-2,6-5,5.5-10c-0.4-4.5-3.1-7.8-7.7-9.3c-4.2-1.5-9.6-1.3-14.2-0.9
				c-6.6,0.5-12.3,1.2-17.3,2c-0.7,0.1-1.2,0.6-1.4,1.3c-0.2,0.8,0,2.2,0.8,2.8l0.4,0.3l3.1,0c2.3,0,2.7,0,3.1,5.1l2.2,26.3
				c0.6,6.8,0.6,6.8-2.7,7.6l-1.8,0.4l-0.3,0.3c-0.5,0.6-0.7,1.4-0.5,2.3c0.2,0.8,0.7,1.4,1.4,1.7l0.3,0.1l3.1-0.3
				c2-0.2,4-0.5,6.4-0.7c1.8-0.2,3.8-0.3,5.6-0.3c1.5-0.1,2.9-0.2,4-0.2c14.4-1.2,22.2-7.3,21.5-16.6
				C1816.4,988.2,1810.9,984.3,1805.5,983.4z M1786.7,968.7l0.2-0.1c0.4-0.2,1.2-0.4,3.2-0.6c2.5-0.2,10.7-0.3,11.3,7.1
				c0.4,4.4-1.3,7.3-10.7,8.4c-0.8,0.1-2.2,0.2-2.8,0.2c0-0.2,0-0.4-0.1-0.6l-1.2-14C1786.7,968.9,1786.7,968.7,1786.7,968.7z
				 M1788.3,988.8c0.3-0.1,1.1-0.3,3.3-0.5c9.4-0.8,14.9,2.5,15.5,9.3c0.6,6.9-5.4,8.8-10.6,9.3c-2.7,0.2-4.4-0.1-5.5-1.1
				c-0.9-0.8-1.5-3-1.8-6.5l-0.8-10.2C1788.3,988.9,1788.3,988.8,1788.3,988.8z"/>
			<path class="st4" d="M1603.5,958.2l-3.4,0.6l-0.3,0.3c-0.5,0.6-0.7,1.4-0.5,2.3c0.2,0.8,0.7,1.4,1.3,1.6l0.3,0.1l3.1-0.4
				c1-0.1,1.9-0.2,2.9-0.4c3-0.4,6.1-0.6,9.1-0.7c0.9,0,1.9-0.1,2.9-0.1l3.1-0.2l0.3-0.2c0.6-0.3,1-1,1-1.8c0.1-0.9-0.3-1.7-0.9-2.2
				l-0.4-0.3l-3.5,0c-3.1,0-3.1,0-3.3-3.7l-1-12.3c-0.1-0.8-0.1-1.4-0.1-1.7c0.2,0,0.4,0,0.8-0.1c5-0.4,5-0.4,7.7,3.5l10,15
				c0.7,1,1.7,2.6,3.9,2.4l6.9-0.6l3.1-0.2l0.3-0.2c0.6-0.3,1-1,1-1.8c0.1-0.9-0.3-1.7-0.9-2.2l-0.4-0.3l-2.3,0c-0.4,0-0.7,0-1,0
				c-1.9-0.2-3-1.8-4.2-3.6l-8.4-12.1c-0.6-0.9-1.3-1.9-2.3-2.8c5.5-2.1,10-6.5,9.5-12.8c-0.7-8.6-9.4-11.8-17.7-11.1
				c-2.3,0.2-4.5,0.4-6.7,0.6c-3.4,0.3-6.9,0.7-10.9,0.9c-1.4,0.1-2.9,0.2-4.2,0.3c-2,0.2-2.7,0.9-2.6,2.7c0,0.5,0.2,1.2,0.7,1.7
				c0.6,0.5,1.3,0.5,2,0.4c0.2,0,0.5,0,0.8-0.1c4-0.1,4-0.1,4.3,3.8l2.5,30.5l0.1,0.9C1606.5,957.7,1606.5,957.7,1603.5,958.2z
				 M1625.6,931.9c-2.5,2-5.4,2.6-9.2,3c-0.3,0-0.5,0.1-0.9,0.1c-0.5,0.1-1.7,0.2-1.9,0.2l-1.1-13.1c-0.4-4.5-0.4-4.5,4.6-4.9
				c6.7-0.6,10.6,2.4,11.1,8.2C1628.5,928.1,1627.6,930.3,1625.6,931.9z"/>
			<path class="st4" d="M1656.7,1010.7c-0.7-0.3-2.2-0.4-3,0.3l-0.3,0.2l-0.1,0.3c-1.2,3.5-2.8,5.8-3.8,6.5c-0.9,0.6-2.5,1-8.5,1.4
				c-6,0.5-7-0.3-7.4-0.6c-1-0.8-1.3-2.1-1.7-6.3l-2-23.8c-0.6-7-0.5-7,2.7-7.6l2.1-0.3l0.3-0.2c0.6-0.4,0.9-1.2,0.7-2.1
				c-0.1-0.7-0.5-1.6-1.4-2l-0.3-0.1l-0.3,0c-3.7,0.4-6.3,0.7-9.2,1c-3,0.2-5.5,0.4-9.8,0.6l-0.3,0l-0.3,0.2c-0.8,0.4-1,1.4-1,2.2
				c0,0.9,0.4,1.6,1.1,1.9l0.3,0.2l2.2,0c3.6,0,3.7,0,4.2,7l2,24.6c0.6,6.9,0.6,6.9-2.7,7.5l-2.7,0.5l-0.3,0.3
				c-0.5,0.6-0.7,1.4-0.5,2.3c0.2,0.8,0.7,1.4,1.3,1.6l0.3,0.1l0.3,0c4.2-0.5,6.6-0.7,9.7-1l6.9-0.6c8.2-0.7,15.1-1.2,18.7-1.3
				l0.8,0l0.3-0.7c0.9-1.9,2.6-9.4,2.5-10.5C1657.9,1011.9,1657.7,1011.1,1656.7,1010.7z"/>
			<path class="st4" d="M1839.9,1003.9l-2.4-0.2c-3.3-0.1-3.3-0.1-3.9-7.1l-2-24.4c-0.6-7.2-0.5-7.2,2.7-7.7l2.2-0.3l0.3-0.2
				c0.6-0.4,0.9-1.2,0.7-2.1c-0.1-1-0.6-1.7-1.4-1.9l-0.3-0.1l-0.3,0c-3.7,0.4-6.2,0.7-9.1,1c-3.1,0.3-5.6,0.4-9.3,0.6l-0.3,0
				l-0.3,0.2c-0.7,0.4-1,1.2-1,2.1c0,0.9,0.4,1.6,1.1,2l0.3,0.2l2.2,0c3.2,0,3.3,0,3.9,7.1l2,24.4c0.6,7,0.6,7-2.7,7.6l-2.3,0.4
				l-0.3,0.3c-0.5,0.6-0.7,1.4-0.5,2.3c0.2,0.8,0.7,1.4,1.3,1.6l0.3,0.1l0.3,0c3.7-0.4,6.2-0.7,9.2-1c2.9-0.2,5.4-0.4,9.1-0.5l0.3,0
				l0.3-0.2c0.7-0.4,1-1.2,1-2.1C1841,1005,1840.6,1004.2,1839.9,1003.9z"/>
			<path class="st4" d="M1763.6,970.4l3.2-0.5l0.3-0.2c0.6-0.4,0.9-1.2,0.8-2.1c-0.1-0.7-0.5-1.6-1.4-1.9l-0.3-0.1l-0.3,0
				c-0.5,0.1-1,0.1-1.5,0.2c-0.5,0-0.9,0.1-1.3,0.1l-8.1,0.7c-0.9,0.1-2.5,0.2-3.2,2l-12.6,32.9l-15.9-29.3l-0.2-0.5
				c-0.4-1-1.1-2.4-3.3-2.2l-8.4,0.7c-0.4,0-0.9,0.1-1.3,0.1c-0.5,0-1,0.1-1.6,0.1l-0.3,0l-0.3,0.2c-0.8,0.4-1.1,1.4-1,2.2
				c0,0.9,0.4,1.6,1.1,2l0.3,0.1l2.2,0c0.4,0,1.1,0,1.1,0c1.5,0,1.8,0.2,1.8,0.2c0.2,0.2,0.2,1.9,0.2,2.4l0.2,32.4
				c0.1,3.4-0.1,3.8-2.3,4.2l-3.4,0.7l-0.3,0.3c-0.5,0.6-0.7,1.4-0.5,2.3c0.2,0.8,0.7,1.4,1.3,1.6l0.3,0.1l4.7-0.6
				c2.3-0.3,4.7-0.5,7-0.6c0.7,0,1.4,0,2.1-0.1l3.1-0.2l0.3-0.2c0.6-0.3,1-1,1-1.8c0.1-0.9-0.3-1.7-0.9-2.2l-0.3-0.3l-3.5-0.1
				c-1.3,0-2.1-0.2-2.7-0.7c-1-0.9-1.1-3-1.1-5.5l-0.1-25.7l16.7,31.7c0.2,0.5,0.9,2.2,2.6,2.1c1.5-0.1,2-1.5,2.2-2.3l13-34.8
				l2.3,28.1l0,0.4c0.1,0.9,0.3,3-0.4,3.6c-0.3,0.2-1.4,0.6-2.4,0.8c-0.3,0.1-0.6,0.1-1,0.2l-2.3,0.4l-0.3,0.3
				c-0.5,0.6-0.7,1.4-0.5,2.3c0.2,0.8,0.7,1.4,1.3,1.6l0.3,0.1l3.1-0.4c1-0.1,2-0.2,3-0.4c1.6-0.2,3.2-0.4,4.8-0.5
				c1.9-0.2,5.5-0.3,5.5-0.3c0.4,0,0.9,0,1.4,0c0.5,0,1,0,1.5,0l0.3,0l0.3-0.2c0.6-0.3,1-1,1-1.8c0.1-0.9-0.3-1.7-0.9-2.2l-0.3-0.3
				l-3.5-0.1c-0.7,0-1-0.1-1.2-0.3c-0.3-0.2-0.6-1.1-0.9-4.1l-2.5-30c0-0.2-0.1-0.5-0.1-0.9c-0.1-0.7-0.3-2.9,0-3.4
				C1762.3,970.7,1762.8,970.5,1763.6,970.4z"/>
			<path class="st4" d="M1892.1,999.7l-0.7-0.4l-0.4,0c-0.4,0-0.7,0-0.9,0c-2-0.3-3.2-2.7-4.3-4.8l-18.6-35.6c-0.3-0.6-1-2.1-2.5-2
				c-1.7,0.1-2.1,1.7-2.3,2.6l-11.6,37.2c-0.8,2.6-1.6,4.8-2.1,5.4c-0.4,0.4-0.9,0.6-1.9,0.8l-3.4,0.6l-0.3,0.3
				c-0.5,0.6-0.7,1.4-0.5,2.3c0.2,0.8,0.7,1.4,1.3,1.6l0.3,0.1l3.1-0.4c1-0.1,1.9-0.2,2.9-0.4c2-0.3,4.1-0.5,6.2-0.5
				c0.6,0,1.3,0,1.9,0l3.1-0.1l0.3-0.2c0.6-0.3,1-1,1-1.8c0.1-0.9-0.3-1.7-0.9-2.2l-0.3-0.3l-3.4-0.1c-2.3-0.1-2.8-0.4-2.8-0.9
				c-0.1-1,0.3-2.4,0.7-3.5l1.8-5.6c0.2-0.4,0.3-0.8,0.4-1.1c0.1-0.4,0.2-0.8,0.3-0.9c0.1-0.1,0.7-0.2,1.6-0.2l10.3-0.8
				c1-0.1,2-0.2,2.2-0.1c0.2,0.1,0.5,0.8,0.8,1.4l3.6,6.6c0.4,0.7,1,2.1,1.1,2.7c0,0.4-0.5,0.6-2.5,1l-3.4,0.5l-0.3,0.3
				c-0.5,0.6-0.7,1.4-0.5,2.3c0.2,0.8,0.7,1.4,1.3,1.6l0.3,0.1l3.1-0.4c0.7-0.1,1.5-0.2,2.2-0.3c3.1-0.4,6-0.6,9-0.7
				c1,0,2-0.1,3-0.1l0.1,0c0.2,0.1,0.4,0.1,1,0l0.3,0l0.3-0.2c0.6-0.3,1-1,1-1.8C1893,1001,1892.7,1000.2,1892.1,999.7z
				 M1860.9,984.9l-0.3,0c-0.3,0-0.5,0.1-0.8,0.1l4.1-13.1l0-0.1c0,0.1,0,0.1,0,0.1l6.2,11.8c0,0.1,0.1,0.3,0.2,0.4
				c-0.1,0-0.2,0-0.2,0L1860.9,984.9z"/>
		</g>
	</g>
</g>
</svg>
