<?xml version="1.0" encoding="utf-8"?>
<!-- Generator: Adobe Illustrator 22.0.1, SVG Export Plug-In . SVG Version: 6.00 Build 0)  -->
<svg version="1.1" id="Layer_1" xmlns="http://www.w3.org/2000/svg" xmlns:xlink="http://www.w3.org/1999/xlink" x="0px" y="0px"
	 viewBox="0 0 1662 1662" style="enable-background:new 0 0 1662 1662;" xml:space="preserve">
<style type="text/css">
	.st0{fill:#DB5253;}
	.st1{fill:#FEF2A7;}
	.st2{fill:#F4D985;}
	.st3{fill:#D6BB67;}
</style>
<g>
	<path class="st0" d="M1418.6,243.4C1261.7,86.4,1053,0,831,0C609,0,400.3,86.4,243.4,243.4S0,609,0,831
		c0,222,86.4,430.6,243.4,587.6C400.3,1575.6,609,1662,831,1662c222,0,430.7-86.4,587.6-243.4c157-157,243.4-365.6,243.4-587.6
		C1662,609,1575.6,400.3,1418.6,243.4z M349.5,1312.5C220.8,1183.9,150,1012.9,150,831c0-156.7,52.5-305.3,149.3-425.6l957.3,957.3
		c-120.4,96.8-269,149.3-425.6,149.3C649.1,1512,478.1,1441.2,349.5,1312.5z M1362.7,1256.6L405.4,299.3
		C525.7,202.5,674.3,150,831,150c181.9,0,352.9,70.8,481.5,199.5l0,0C1441.2,478.1,1512,649.1,1512,831
		C1512,987.7,1459.5,1136.3,1362.7,1256.6z"/>
</g>
<path class="st1" d="M291,793.5v75.1c0,298.2,241.8,540,540,540s540-241.8,540-540v-75.1c0-298.2-241.8-540-540-540
	S291,495.2,291,793.5z"/>
<circle class="st2" cx="831" cy="868.5" r="540"/>
<g>
	<g>
		<path class="st3" d="M990,872.6V867c48.5-15.1,78.3-54,78.3-100.4c0-67.2-55.5-108.7-143.4-108.7h-8.7v-60.8v-11.9h-70.6v11.9
			v60.8h-56.4v-60.8v-11.9h-70.6v11.9v60.8H609.9v11.9v37.7c14.5,2.5,46.3,4.4,79.6,5.7v11.9v305.1c-28.4,1.2-60.3,6.2-79.6,11.3
			v11.9v37.6h108.7v11.9v60.9h70.6V1103v-11.9h56.4v11.9v60.9h70.6V1103v-11.9h6.6c95.6,0,159.3-49,159.3-123.6
			C1082.2,922.9,1049.6,883.3,990,872.6z M802.4,732.6v-11.9h76.9c49.9,0,79.6,21.4,79.6,57.7c0,36.4-29.1,59.7-74.8,59.7h-81.7
			V732.6z M884,1028.3h-81.7V917.2v-11.9h83.7c51.9,0,82.5,23.8,82.5,64C968.6,1005.7,935.4,1028.3,884,1028.3z"/>
	</g>
	<g>
		<path class="st1" d="M978,860.6v-5.6c48.5-15.1,78.3-54,78.3-100.4c0-67.2-55.5-108.7-143.4-108.7h-8.7v-60.8v-11.9h-70.6v11.9
			v60.8h-56.4v-60.8v-11.9h-70.6v11.9v60.8H597.8v11.9v37.7c14.5,2.5,46.3,4.4,79.6,5.7v11.9v305.1c-28.4,1.2-60.3,6.2-79.6,11.3
			v11.9v37.6h108.7v11.9v60.9h70.6V1091v-11.9h56.4v11.9v60.9h70.6V1091v-11.9h6.6c95.6,0,159.3-49,159.3-123.6
			C1070.2,910.9,1037.6,871.3,978,860.6z M790.4,720.6v-11.9h76.9c49.9,0,79.6,21.4,79.6,57.7c0,36.4-29.1,59.7-74.8,59.7h-81.7
			V720.6z M872,1016.3h-81.7V905.2v-11.9h83.7c51.9,0,82.5,23.8,82.5,64C956.6,993.7,923.4,1016.3,872,1016.3z"/>
	</g>
</g>
<g>
	<path class="st3" d="M821.7,1346.3c0-8.6,7-15.6,15.6-15.6l0,0c8.6,0,15.6,7,15.6,15.6l0,0c0,8.6-7,15.6-15.6,15.6l0,0
		C828.7,1361.9,821.7,1354.9,821.7,1346.3z M742.2,1352.7c-8.5-1.7-14-9.9-12.3-18.3l0,0c1.7-8.4,9.9-14,18.3-12.3l0,0
		c8.5,1.7,14,9.9,12.3,18.3l0,0c-1.5,7.4-8,12.6-15.3,12.6l0,0C744.3,1353,743.3,1352.9,742.2,1352.7z M914,1340.3
		c-1.7-8.5,3.8-16.7,12.3-18.4l0,0c8.5-1.7,16.7,3.8,18.3,12.3l0,0c1.7,8.5-3.8,16.7-12.2,18.3l0,0c-1.1,0.2-2.1,0.3-3.1,0.3l0,0
		C922,1352.9,915.4,1347.7,914,1340.3z M650.8,1325c-8-3.3-11.8-12.4-8.5-20.4l0,0c3.3-8,12.4-11.8,20.4-8.5l0,0
		c7.9,3.3,11.8,12.4,8.5,20.4l0,0c-2.5,6-8.3,9.7-14.4,9.7l0,0C654.8,1326.2,652.8,1325.8,650.8,1325z M1003.3,1316.4
		c-3.3-8,0.5-17.1,8.4-20.4l0,0c8-3.3,17.1,0.5,20.4,8.4l0,0c3.3,7.9-0.5,17.1-8.4,20.4l0,0l0,0l0,0c-2,0.8-4,1.2-6,1.2l0,0
		C1011.6,1326,1005.8,1322.4,1003.3,1316.4z M566.5,1280c-7.2-4.8-9.1-14.5-4.3-21.6l0,0c4.8-7.2,14.5-9.1,21.6-4.3l0,0
		c7.2,4.8,9.1,14.5,4.3,21.7l0,0c-3,4.5-7.9,6.9-13,6.9l0,0C572.2,1282.6,569.2,1281.8,566.5,1280z M1086.3,1275.4
		c-4.8-7.2-2.9-16.9,4.3-21.6l0,0c7.2-4.8,16.9-2.9,21.7,4.3l0,0c4.8,7.2,2.9,16.9-4.3,21.7l0,0c-2.7,1.8-5.7,2.6-8.7,2.6l0,0
		C1094.2,1282.3,1089.3,1279.9,1086.3,1275.4z M492.7,1219.4c-6.1-6.1-6.1-16,0-22.1l0,0c6.1-6.1,16-6.1,22.1,0l0,0
		c6.1,6.1,6.1,16,0,22.1l0,0c-3.1,3.1-7,4.6-11,4.6l0,0C499.7,1224,495.7,1222.5,492.7,1219.4z M1159.6,1219c-6.1-6.1-6.1-16,0-22
		l0,0c6.1-6.1,16-6.1,22,0l0,0c6.1,6.1,6.1,16,0,22l0,0c-3,3.1-7,4.6-11,4.6l0,0C1166.7,1223.6,1162.7,1222.1,1159.6,1219z
		 M432,1145.7c-4.8-7.2-2.9-16.9,4.3-21.7l0,0c7.1-4.8,16.8-2.9,21.6,4.3l0,0c4.8,7.1,2.9,16.8-4.3,21.6l0,0
		c-2.7,1.8-5.7,2.6-8.7,2.6l0,0C439.9,1152.6,435,1150.2,432,1145.7z M1220.7,1149.5c-7.1-4.8-9.1-14.5-4.3-21.7h0
		c4.8-7.2,14.5-9.1,21.6-4.3l0,0c7.1,4.8,9.1,14.5,4.3,21.7l0,0c-3,4.5-7.9,6.9-13,6.9l0,0
		C1226.4,1152.1,1223.3,1151.3,1220.7,1149.5z M386.8,1061.5c-3.3-8,0.5-17.1,8.4-20.4l0,0c7.9-3.3,17.1,0.4,20.4,8.4l0,0
		c3.3,8-0.5,17.1-8.4,20.4l0,0c-2,0.8-4,1.2-6,1.2l0,0C395.1,1071.1,389.3,1067.5,386.8,1061.5z M1267,1069.4
		c-8-3.3-11.7-12.4-8.4-20.4l0,0c3.3-8,12.4-11.7,20.4-8.4l0,0c8,3.3,11.7,12.4,8.5,20.4l0,0c-2.5,6-8.3,9.6-14.4,9.6l0,0
		C1271,1070.6,1269,1070.2,1267,1069.4z M359,970.1c-1.7-8.5,3.8-16.7,12.3-18.4l0,0c8.4-1.7,16.6,3.8,18.3,12.3l0,0
		c1.7,8.4-3.8,16.7-12.3,18.3l0,0c-1,0.2-2,0.3-3.1,0.3l0,0C367,982.7,360.5,977.5,359,970.1z M1296.7,981.8
		c-8.4-1.7-14-9.9-12.3-18.3l0,0c1.7-8.5,9.9-14,18.3-12.3l0,0c8.5,1.7,14,9.9,12.3,18.3l0,0c-1.5,7.4-8,12.6-15.3,12.6l0,0
		C1298.8,982.1,1297.8,982,1296.7,981.8z M349.7,875.1L349.7,875.1L349.7,875.1c0-8.6,7-15.6,15.6-15.6l0,0c8.6,0,15.6,7,15.6,15.6
		l0,0c0,8.6-7,15.6-15.6,15.6l0,0C356.7,890.7,349.7,883.7,349.7,875.1z M1293.1,874.5c0-0.2,0-0.3,0-0.5l0,0c0-0.2,0-0.4,0-0.6l0,0
		c0-8.6,7-15.6,15.6-15.6l0,0c8.6,0,15.6,7,15.6,15.6l0,0c0,0.2,0,0.4,0,0.6l0,0c0,0.2,0,0.4,0,0.5l0,0c0,8.6-7,15.6-15.6,15.6l0,0
		C1300.1,890.1,1293.1,883.2,1293.1,874.5z M371.1,798.4c-8.5-1.6-14-9.8-12.3-18.3l0,0c1.7-8.5,9.8-14,18.3-12.3l0,0
		c8.5,1.7,14,9.9,12.3,18.3l0,0c-1.5,7.4-8,12.6-15.3,12.6l0,0C373.1,798.7,372.1,798.6,371.1,798.4z M1284.3,784.5
		c-1.7-8.5,3.8-16.7,12.2-18.4l0,0c8.5-1.7,16.7,3.8,18.4,12.2l0,0l0,0l0,0c1.7,8.4-3.8,16.7-12.2,18.3l0,0c-1,0.2-2.1,0.3-3.1,0.3
		l0,0C1292.3,797.1,1285.8,791.9,1284.3,784.5z M394.8,709c-8-3.3-11.7-12.4-8.5-20.4l0,0c3.3-8,12.4-11.8,20.4-8.5l0,0
		c8,3.3,11.8,12.4,8.5,20.4l0,0c-2.5,6-8.3,9.7-14.4,9.7l0,0C398.8,710.2,396.8,709.8,394.8,709z M1258.2,699L1258.2,699
		c-3.3-8,0.5-17.1,8.4-20.4l0,0c8-3.3,17.1,0.4,20.4,8.4l0,0c3.3,7.9-0.5,17.1-8.4,20.4l0,0c-1.9,0.8-4,1.2-6,1.2l0,0
		C1266.5,708.6,1260.7,705,1258.2,699z M435.7,625.9c-7.1-4.8-9.1-14.5-4.3-21.6l0,0l0,0l0,0c4.8-7.2,14.5-9.1,21.6-4.3l0,0
		c7.2,4.8,9.1,14.5,4.3,21.6h0c-3,4.5-8,7-13,7l0,0C441.3,628.6,438.3,627.7,435.7,625.9z M1215.8,620.3c-4.8-7.2-2.9-16.9,4.2-21.7
		l0,0c7.2-4.8,16.9-2.9,21.7,4.2l0,0c4.8,7.1,2.9,16.9-4.2,21.7l0,0c-2.7,1.8-5.7,2.6-8.7,2.6l0,0
		C1223.7,627.2,1218.8,624.8,1215.8,620.3z M491.9,552.5c-6.1-6.1-6.1-16,0-22l0,0l0,0l0,0c6.1-6.1,16-6.1,22.1,0l0,0
		c6.1,6.1,6.1,16,0,22h0c-3,3.1-7,4.6-11,4.6l0,0C498.9,557,495,555.5,491.9,552.5z M1158.9,551.3L1158.9,551.3
		c-6.1-6.1-6.1-16,0-22.1l0,0c6.1-6.1,16-6.1,22-0.1l0,0l0,0l0,0c6.1,6.1,6.1,16,0,22.1l0,0c-3,3.1-7,4.6-11,4.6l0,0
		C1165.9,555.9,1161.9,554.4,1158.9,551.3z M561.3,491.3c-4.8-7.1-2.9-16.8,4.3-21.6l0,0c7.1-4.8,16.8-2.9,21.7,4.2l0,0
		c4.8,7.2,2.9,16.9-4.3,21.7l0,0c-2.7,1.8-5.7,2.6-8.7,2.6l0,0C569.3,498.2,564.4,495.8,561.3,491.3z M1089.7,494.7
		c-7.2-4.8-9.1-14.5-4.3-21.6l0,0c4.8-7.2,14.5-9.1,21.6-4.3l0,0l0,0l0,0c7.2,4.8,9.1,14.5,4.3,21.6l0,0c-3,4.5-7.9,7-13,7l0,0
		C1095.3,497.3,1092.3,496.5,1089.7,494.7z M641.4,444.9c-3.3-8,0.4-17.1,8.4-20.4l0,0c8-3.3,17.1,0.4,20.4,8.4l0,0
		c3.3,7.9-0.4,17.1-8.4,20.4l0,0c-2,0.8-4,1.2-6,1.2l0,0C649.6,454.5,643.8,450.9,641.4,444.9z M1010.8,452.7
		c-7.9-3.3-11.7-12.4-8.5-20.4l0,0c3.3-8,12.4-11.8,20.4-8.5l0,0c8,3.3,11.8,12.4,8.5,20.3l0,0c-2.5,6-8.3,9.7-14.4,9.7l0,0
		C1014.7,453.8,1012.7,453.5,1010.8,452.7z M728.9,415c-1.7-8.5,3.8-16.7,12.2-18.4l0,0c8.4-1.7,16.6,3.8,18.4,12.2l0,0
		c1.7,8.5-3.8,16.7-12.3,18.4l0,0c-1,0.2-2,0.3-3.1,0.3l0,0C736.9,427.5,730.4,422.4,728.9,415z M925.2,426.9
		c-8.5-1.7-14-9.9-12.3-18.3l0,0c1.6-8.5,9.9-13.9,18.3-12.3l0,0c8.4,1.7,13.9,9.8,12.3,18.3l0,0c-1.5,7.4-8,12.6-15.3,12.6l0,0
		C927.2,427.2,926.2,427.1,925.2,426.9z M820.6,402.8c0-8.6,7-15.6,15.6-15.6l0,0c8.6,0,15.6,6.9,15.6,15.6l0,0
		c0,8.6-7,15.6-15.6,15.6l0,0C827.6,418.4,820.6,411.4,820.6,402.8z"/>
</g>
<g>
	<path class="st1" d="M815.7,1340.3c0-8.6,7-15.6,15.6-15.6l0,0c8.6,0,15.6,7,15.6,15.6l0,0c0,8.6-7,15.6-15.6,15.6l0,0
		C822.7,1355.9,815.7,1348.9,815.7,1340.3z M736.2,1346.7c-8.5-1.7-14-9.9-12.3-18.3l0,0c1.7-8.4,9.9-14,18.3-12.3l0,0
		c8.5,1.7,14,9.9,12.3,18.3l0,0c-1.5,7.4-8,12.6-15.3,12.6l0,0C738.3,1347,737.3,1346.9,736.2,1346.7z M908,1334.3
		c-1.7-8.5,3.8-16.7,12.3-18.4l0,0c8.5-1.7,16.7,3.8,18.3,12.3l0,0c1.7,8.5-3.8,16.7-12.2,18.3l0,0c-1.1,0.2-2.1,0.3-3.1,0.3l0,0
		C916,1346.9,909.4,1341.7,908,1334.3z M644.8,1319c-8-3.3-11.8-12.4-8.5-20.4l0,0c3.3-8,12.4-11.8,20.4-8.5l0,0
		c7.9,3.3,11.8,12.4,8.5,20.4l0,0c-2.5,6-8.3,9.7-14.4,9.7l0,0C648.8,1320.2,646.8,1319.8,644.8,1319z M997.3,1310.4
		c-3.3-8,0.5-17.1,8.4-20.4l0,0c8-3.3,17.1,0.5,20.4,8.4l0,0c3.3,7.9-0.5,17.1-8.4,20.4l0,0l0,0l0,0c-2,0.8-4,1.2-6,1.2l0,0
		C1005.6,1320,999.8,1316.4,997.3,1310.4z M560.5,1274c-7.2-4.8-9.1-14.5-4.3-21.6l0,0c4.8-7.2,14.5-9.1,21.6-4.3l0,0
		c7.2,4.8,9.1,14.5,4.3,21.7l0,0c-3,4.5-7.9,6.9-13,6.9l0,0C566.2,1276.6,563.2,1275.8,560.5,1274z M1080.3,1269.4
		c-4.8-7.2-2.9-16.9,4.3-21.6l0,0c7.2-4.8,16.9-2.9,21.7,4.3l0,0c4.8,7.2,2.9,16.9-4.3,21.7l0,0c-2.7,1.8-5.7,2.6-8.7,2.6l0,0
		C1088.2,1276.3,1083.3,1273.9,1080.3,1269.4z M486.7,1213.4c-6.1-6.1-6.1-16,0-22.1l0,0c6.1-6.1,16-6.1,22.1,0l0,0
		c6.1,6.1,6.1,16,0,22.1l0,0c-3.1,3.1-7,4.6-11,4.6l0,0C493.7,1218,489.7,1216.5,486.7,1213.4z M1153.6,1213c-6.1-6.1-6.1-16,0-22
		l0,0c6.1-6.1,16-6.1,22,0l0,0c6.1,6.1,6.1,16,0,22l0,0c-3,3.1-7,4.6-11,4.6l0,0C1160.7,1217.6,1156.7,1216.1,1153.6,1213z
		 M426,1139.7c-4.8-7.2-2.9-16.9,4.3-21.7l0,0c7.1-4.8,16.8-2.9,21.6,4.3l0,0c4.8,7.1,2.9,16.8-4.3,21.6l0,0
		c-2.7,1.8-5.7,2.6-8.7,2.6l0,0C433.9,1146.6,429,1144.2,426,1139.7z M1214.7,1143.5c-7.1-4.8-9.1-14.5-4.3-21.7h0
		c4.8-7.2,14.5-9.1,21.6-4.3l0,0c7.1,4.8,9.1,14.5,4.3,21.7l0,0c-3,4.5-7.9,6.9-13,6.9l0,0
		C1220.4,1146.1,1217.3,1145.3,1214.7,1143.5z M380.8,1055.5c-3.3-8,0.5-17.1,8.4-20.4l0,0c7.9-3.3,17.1,0.4,20.4,8.4l0,0
		c3.3,8-0.5,17.1-8.4,20.4l0,0c-2,0.8-4,1.2-6,1.2l0,0C389.1,1065.1,383.3,1061.5,380.8,1055.5z M1261,1063.4
		c-8-3.3-11.7-12.4-8.4-20.4l0,0c3.3-8,12.4-11.7,20.4-8.4l0,0c8,3.3,11.7,12.4,8.5,20.4l0,0c-2.5,6-8.3,9.6-14.4,9.6l0,0
		C1265,1064.6,1263,1064.2,1261,1063.4z M353,964.1c-1.7-8.5,3.8-16.7,12.3-18.4l0,0c8.4-1.7,16.6,3.8,18.3,12.3l0,0
		c1.7,8.4-3.8,16.7-12.3,18.3l0,0c-1,0.2-2,0.3-3.1,0.3l0,0C361,976.7,354.5,971.5,353,964.1z M1290.7,975.8
		c-8.4-1.7-14-9.9-12.3-18.3l0,0c1.7-8.5,9.9-14,18.3-12.3l0,0c8.5,1.7,14,9.9,12.3,18.3l0,0c-1.5,7.4-8,12.6-15.3,12.6l0,0
		C1292.8,976.1,1291.8,976,1290.7,975.8z M343.7,869.1L343.7,869.1L343.7,869.1c0-8.6,7-15.6,15.6-15.6l0,0c8.6,0,15.6,7,15.6,15.6
		l0,0c0,8.6-7,15.6-15.6,15.6l0,0C350.7,884.7,343.7,877.7,343.7,869.1z M1287.1,868.5c0-0.2,0-0.3,0-0.5l0,0c0-0.2,0-0.4,0-0.6l0,0
		c0-8.6,7-15.6,15.6-15.6l0,0c8.6,0,15.6,7,15.6,15.6l0,0c0,0.2,0,0.4,0,0.6l0,0c0,0.2,0,0.4,0,0.5l0,0c0,8.6-7,15.6-15.6,15.6l0,0
		C1294.1,884.1,1287.1,877.2,1287.1,868.5z M365.1,792.3c-8.5-1.6-14-9.8-12.3-18.3l0,0c1.7-8.5,9.8-14,18.3-12.3l0,0
		c8.5,1.7,14,9.9,12.3,18.3l0,0c-1.5,7.4-8,12.6-15.3,12.6l0,0C367.1,792.6,366.1,792.6,365.1,792.3z M1278.3,778.5
		c-1.7-8.5,3.8-16.7,12.2-18.4l0,0c8.5-1.7,16.7,3.8,18.4,12.2l0,0l0,0l0,0c1.7,8.4-3.8,16.7-12.2,18.3l0,0c-1,0.2-2.1,0.3-3.1,0.3
		l0,0C1286.3,791.1,1279.8,785.9,1278.3,778.5z M388.8,702.9c-8-3.3-11.7-12.4-8.5-20.4l0,0c3.3-8,12.4-11.8,20.4-8.5l0,0
		c8,3.3,11.8,12.4,8.5,20.4l0,0c-2.5,6-8.3,9.7-14.4,9.7l0,0C392.8,704.1,390.8,703.8,388.8,702.9z M1252.2,693L1252.2,693
		c-3.3-8,0.5-17.1,8.4-20.4l0,0c8-3.3,17.1,0.4,20.4,8.4l0,0c3.3,7.9-0.5,17.1-8.4,20.4l0,0c-1.9,0.8-4,1.2-6,1.2l0,0
		C1260.5,702.6,1254.7,699,1252.2,693z M429.7,619.9c-7.1-4.8-9.1-14.5-4.3-21.6l0,0l0,0l0,0c4.8-7.2,14.5-9.1,21.6-4.3l0,0
		c7.2,4.8,9.1,14.5,4.3,21.6h0c-3,4.5-8,7-13,7l0,0C435.3,622.6,432.3,621.7,429.7,619.9z M1209.8,614.3c-4.8-7.2-2.9-16.9,4.2-21.7
		l0,0c7.2-4.8,16.9-2.9,21.7,4.2l0,0c4.8,7.1,2.9,16.9-4.2,21.7l0,0c-2.7,1.8-5.7,2.6-8.7,2.6l0,0
		C1217.7,621.2,1212.8,618.8,1209.8,614.3z M485.9,546.5c-6.1-6.1-6.1-16,0-22l0,0l0,0l0,0c6.1-6.1,16-6.1,22.1,0l0,0
		c6.1,6.1,6.1,16,0,22h0c-3,3.1-7,4.6-11,4.6l0,0C492.9,551,489,549.5,485.9,546.5z M1152.9,545.3L1152.9,545.3
		c-6.1-6.1-6.1-16,0-22.1l0,0c6.1-6.1,16-6.1,22-0.1l0,0l0,0l0,0c6.1,6.1,6.1,16,0,22.1l0,0c-3,3.1-7,4.6-11,4.6l0,0
		C1159.9,549.9,1155.9,548.4,1152.9,545.3z M555.3,485.3c-4.8-7.1-2.9-16.8,4.3-21.6l0,0c7.1-4.8,16.8-2.9,21.7,4.2l0,0
		c4.8,7.2,2.9,16.9-4.3,21.7l0,0c-2.7,1.8-5.7,2.6-8.7,2.6l0,0C563.3,492.2,558.4,489.8,555.3,485.3z M1083.7,488.7
		c-7.2-4.8-9.1-14.5-4.3-21.6l0,0c4.8-7.2,14.5-9.1,21.6-4.3l0,0l0,0l0,0c7.2,4.8,9.1,14.5,4.3,21.6l0,0c-3,4.5-7.9,7-13,7l0,0
		C1089.3,491.3,1086.3,490.5,1083.7,488.7z M635.4,438.9c-3.3-8,0.4-17.1,8.4-20.4l0,0c8-3.3,17.1,0.4,20.4,8.4l0,0
		c3.3,7.9-0.4,17.1-8.4,20.4l0,0c-2,0.8-4,1.2-6,1.2l0,0C643.6,448.5,637.8,444.9,635.4,438.9z M1004.8,446.7
		c-7.9-3.3-11.7-12.4-8.5-20.4l0,0c3.3-8,12.4-11.8,20.4-8.5l0,0c8,3.3,11.8,12.4,8.5,20.3l0,0c-2.5,6-8.3,9.7-14.4,9.7l0,0
		C1008.7,447.8,1006.7,447.5,1004.8,446.7z M722.9,409c-1.7-8.5,3.8-16.7,12.2-18.4l0,0c8.4-1.7,16.6,3.8,18.4,12.2l0,0
		c1.7,8.5-3.8,16.7-12.3,18.4l0,0c-1,0.2-2,0.3-3.1,0.3l0,0C730.9,421.5,724.4,416.4,722.9,409z M919.2,420.9
		c-8.5-1.7-14-9.9-12.3-18.3l0,0c1.6-8.5,9.9-13.9,18.3-12.3l0,0c8.4,1.7,13.9,9.8,12.3,18.3l0,0c-1.5,7.4-8,12.6-15.3,12.6l0,0
		C921.2,421.2,920.2,421.1,919.2,420.9z M814.6,396.8c0-8.6,7-15.6,15.6-15.6l0,0c8.6,0,15.6,6.9,15.6,15.6l0,0
		c0,8.6-7,15.6-15.6,15.6l0,0C821.6,412.4,814.6,405.4,814.6,396.8z"/>
</g>
</svg>
