<?xml version="1.0" encoding="utf-8"?>
<!-- Generator: Adobe Illustrator 22.0.1, SVG Export Plug-In . SVG Version: 6.00 Build 0)  -->
<svg version="1.1" id="Layer_1" xmlns="http://www.w3.org/2000/svg" xmlns:xlink="http://www.w3.org/1999/xlink" x="0px" y="0px"
	 viewBox="0 0 2008.8 2008.8" style="enable-background:new 0 0 2008.8 2008.8;" xml:space="preserve">
<style type="text/css">
	.st0{fill:#FFFFFF;}
	.st1{fill:#DB5253;}
	.st2{fill:none;stroke:#000000;stroke-width:30;stroke-linecap:round;stroke-miterlimit:10;}
	.st3{fill:#FEF2A7;}
	.st4{fill:#F4D985;}
</style>
<circle class="st0" cx="1004.4" cy="1004.4" r="1004.4"/>
<path class="st1" d="M1592,416.8c-157-157-365.6-243.4-587.6-243.4c-222,0-430.7,86.4-587.6,243.4s-243.4,365.6-243.4,587.6
	c0,222,86.4,430.6,243.4,587.6c157,157,365.6,243.4,587.6,243.4c222,0,430.7-86.4,587.6-243.4c157-157,243.4-365.6,243.4-587.6
	C1835.4,782.4,1749,573.7,1592,416.8z M522.9,1485.9c-128.6-128.6-199.5-299.6-199.5-481.5c0-156.7,52.5-305.3,149.3-425.6
	l957.3,957.3c-120.4,96.8-269,149.3-425.6,149.3C822.5,1685.4,651.5,1614.6,522.9,1485.9z M1536.1,1430L578.8,472.7
	c120.4-96.8,269-149.3,425.6-149.3c181.9,0,352.9,70.8,481.5,199.5l0,0c128.6,128.6,199.5,299.6,199.5,481.5
	C1685.4,1161.1,1632.9,1309.7,1536.1,1430z"/>
<path d="M1644.6,454.5c-298.4,125.6-756.7-108.6-1040.2,0v900.7c283.5-108.6,741.8,125.6,1040.2,0V454.5z"/>
<path class="st0" d="M1403.7,1160.1c-22.2-11.7-49-2.9-59.6,20.3c-1,2.2-1.8,4.5-2.5,6.8c-49.8-28.7-98.8-58.5-147.6-88.8
	c49.8-17,98.9-34.9,147.6-54.7c0.6,2.4,1.5,4.8,2.5,7.1c10.6,24.8,37.4,36.8,59.6,26.1c22.2-10.7,31.6-39.6,21.4-63.6
	c-6-14.2-17.6-23.7-30.8-27.1c6.3-12.6,7.1-28.4,1-42.7c-10.4-24.4-37.1-36-59.8-26.6c-22.7,9.4-32.7,36.9-22,61.9
	c1,2.4,2.2,4.6,3.5,6.8c-63.9,24.7-128.7,46.7-193.8,67.9c-64-40.8-128-81.6-192.7-121.4c1.3-1.9,2.4-3.9,3.4-6.1
	c10.5-22.8,0.7-52.7-21.8-66.2c-22.4-13.5-48.7-5.1-58.9,18.3c-6,13.8-5.2,29.6,1,42.8c-12.9,2.3-24.3,11.2-30.2,25.2
	c-10.1,23.7-0.8,52.4,21,64.8c21.8,12.4,48.2,4.3,58.7-18.7c1-2.2,1.8-4.4,2.4-6.7c49.1,29.8,97.8,60.3,146.3,91.1
	c-49.2,16.4-98,33.6-146.3,52.4c-0.6-2.4-1.4-4.8-2.4-7.2c-10.4-25.1-36.9-37.8-58.7-27.8c-21.8,10-31,38.5-21,62.9
	c5.9,14.4,17.3,24.3,30.2,28.1c-6.2,12.4-7,28.1-1,42.7c10.2,24.7,36.4,37,58.9,28.1c22.4-8.9,32.3-36.2,21.8-61.4
	c-1-2.4-2.2-4.7-3.4-6.9c63.7-23.7,128.1-44.9,192.7-65.9c64.1,40.7,128.4,80.9,193.8,119.4c-1.3,1.9-2.5,4-3.5,6.2
	c-10.7,23-0.7,52.7,22,65.7c22.7,13,49.4,3.8,59.8-19.9c6.1-14,5.3-29.7-1-42.8c13.2-2.7,24.7-12,30.8-26.2
	C1435.3,1200.1,1425.9,1171.8,1403.7,1160.1z"/>
<path class="st0" d="M1015.2,852.3c0,30.1,0,45.1,0,75.1c0,7.7,6,14.8,13.4,15.9c63.1,9.6,126.1,19.7,189.3,28.8
	c7.4,1,13.5-4.4,13.5-12.1c0-30.1,0-45.1,0-75.1c48.6-27.3,74.9-85.7,74.8-139.8c-0.2-100.4-86.2-192.8-183-208.5
	c-97.8-15.9-180.2,60.6-182,157.3C939.9,753.5,971.1,813.4,1015.2,852.3z M1233.5,771.8c12.1,22.7,6.3,63-19.9,73.5
	c-28.8,11.5-59.9-8.3-73-34.8C1156.2,789.6,1210.1,727.7,1233.5,771.8z M1013,738.6c23.9-38.7,79.7,45,92.5,66.4
	c-14.6,25.4-47.6,31.1-72.7,12.8C1008.3,800,997.8,763.3,1013,738.6z"/>
<path class="st2" d="M440,1216.4c24.5-21,86.5-25,119.8-1.3"/>
<path class="st2" d="M440,615.9c24.5-21,86.5-25,119.8-1.3"/>
<path class="st3" d="M552.7,1514V394h-103v1005.7c21.8,30.4,46.2,59.3,73.2,86.3C532.6,1495.6,542.5,1505,552.7,1514z"/>
<circle class="st3" cx="501.2" cy="345.7" r="108"/>
<path class="st4" d="M597.4,296.7c1,6.2,1.5,12.5,1.5,19c0,65.6-53.2,118.8-118.8,118.8c-21,0-40.8-5.5-57.9-15
	c19.7,21.1,47.8,34.3,78.9,34.3c59.6,0,108-48.4,108-108C609.2,328,604.9,311.4,597.4,296.7z"/>
<path class="st4" d="M552.7,1514V421l-41.9,18v1034.5c4,4.2,8,8.3,12.1,12.5C532.6,1495.6,542.5,1505,552.7,1514z"/>
<path class="st2" d="M440,616.6c24.5,21,86.5,25,119.8,1.3c40.9-29.1,91.2-17.1,91.2-17.1"/>
<path class="st2" d="M440,1217.1c24.5,21,86.5,25,119.8,1.3c40.9-29.1,91.2-17.1,91.2-17.1"/>
</svg>
