<?xml version="1.0" encoding="utf-8"?>
<!-- Generator: Adobe Illustrator 22.0.1, SVG Export Plug-In . SVG Version: 6.00 Build 0)  -->
<svg version="1.1" id="Layer_1" xmlns="http://www.w3.org/2000/svg" xmlns:xlink="http://www.w3.org/1999/xlink" x="0px" y="0px"
	 viewBox="0 0 2008.8 2008.8" style="enable-background:new 0 0 2008.8 2008.8;" xml:space="preserve">
<style type="text/css">
	.st0{fill:#9ECAD9;}
	.st1{fill:#DB5253;}
</style>
<circle class="st0" cx="1004.4" cy="1004.4" r="1004.4"/>
<g>
	<g>
		<path class="st1" d="M1592,416.8c-157-157-365.6-243.4-587.6-243.4c-222,0-430.7,86.4-587.6,243.4s-243.4,365.6-243.4,587.6
			c0,222,86.4,430.6,243.4,587.6c157,157,365.6,243.4,587.6,243.4c222,0,430.7-86.4,587.6-243.4c157-157,243.4-365.6,243.4-587.6
			C1835.4,782.4,1749,573.7,1592,416.8z M522.9,1485.9c-128.6-128.6-199.5-299.6-199.5-481.5c0-156.7,52.5-305.3,149.3-425.6
			l957.3,957.3c-120.4,96.8-269,149.3-425.6,149.3C822.5,1685.4,651.5,1614.6,522.9,1485.9z M1536.1,1430L578.8,472.7
			c120.4-96.8,269-149.3,425.6-149.3c181.9,0,352.9,70.8,481.5,199.5l0,0c128.6,128.6,199.5,299.6,199.5,481.5
			C1685.4,1161.1,1632.9,1309.7,1536.1,1430z"/>
	</g>
	<g>
		<path d="M1044.5,508.4c-3.1-12.6-6.2-25.3-9.2-38c-4.1,12.3-8.3,24.5-12.4,36.8C1030.1,507.4,1037.3,507.8,1044.5,508.4z"/>
		<path d="M1647.5,853.8c-4.9-13.4-19.7-20.3-33.1-15.5l-0.5,0.2l-35.4,12.8l-35.9,11.6c-12,3.7-24.2,7.1-36.2,10.7
			c-12.1,3.5-24.4,6.5-36.6,9.7c-2.2,0.5-4.4,1.1-6.5,1.6c-5.9-28.6-14.5-56.7-25.5-83.7c-11-27.1-24.4-53.2-40.1-77.9
			c-31.4-49.2-71.8-92.7-118.8-127.2c-47-34.5-100.5-60.3-157-74.9c-5-1.3-10.1-2.5-15.2-3.6c-0.8-2.8-1.7-5.6-2.5-8.4
			c-7-23.5-13.7-47.1-20.2-70.6c-6.5-23.5-12.7-47.1-18.2-70.5v0c-1.6-8.4-7.3-15.8-15.8-19.2c-13.2-5.2-28,1.2-33.3,14.4l-0.5,1.2
			c-19.1,48.4-38.4,96.7-57.8,145c-3.3,0.3-6.6,0.7-9.8,1.1c-57.7,7.4-114,26.1-164.6,54.8c-25.3,14.2-49.4,30.8-71.6,49.4
			l-16.3,14.4l-15.7,15.1l-15,15.8c-4.8,5.4-9.5,11-14.3,16.4c-36.9,44.8-66.1,96.3-84.9,151.5c-16.1,47.2-24.7,97-25.7,147
			c-44.4,1.2-88.9,2.5-133.3,4.2c-24.8,1.1-46.4,20.9-46.3,46.2c0.1,37.1,24.9,56.6,25,99.8c0,28.8,0,187.1,0,187.1
			c0,10,8.1,18.1,18.1,18.1c10,0,18.1-8.1,18.1-18.1v-193.7v-24c0-9.3,7-17,16.1-18c1.6,0,3.2,0.1,4.8,0.1
			c8.6,1.4,15.2,8.8,15.2,17.8v24h0v38.7c0,10,8.1,18.1,18.1,18.1s18.1-8.1,18.1-18.1c0,0,0-23.2,0-48c0-24.8,18.3-32.1,27.4-32.2
			c9.3-0.1,18.6-0.2,27.9-0.4c6.5,32.5,16.3,64.3,29.6,94.8l4.4,10.1c1.5,3.4,3.2,6.6,4.8,9.9l4.9,9.9c1.6,3.3,3.5,6.5,5.3,9.7
			c3.6,6.5,7.1,12.9,11.2,19.1c4,6.2,7.7,12.6,12.1,18.5c4.7,6.9,9.6,13.6,14.7,20.3c-4.8,10.2-9.6,20.5-14.5,30.6
			c-10.3,21.5-20.8,42.9-31.6,63.7c-10.7,20.8-21.9,41.4-33.1,59.3l-0.2,0.3c-0.5,0.9-1.1,1.7-1.6,2.6
			c-15.4,27.9-5.2,62.9,22.7,78.3c27.9,15.4,62.9,5.2,78.3-22.7c13.2-24,23.8-46.7,34.1-69.6c9.1-20.3,17.8-40.5,26.2-60.8
			c32.8,26,69,47.6,107.5,63.9c23.3,9.8,47.4,17.6,71.9,23.3c15.4,3.6,46.8,11.4,46.5,41.9c-0.2,18.2,0,53.2,0,53.2
			c0,10,8.1,18.1,18.1,18.1c10,0,18.1-8.1,18.1-18.1v-38.7v-24c0-10,8.1-18.1,18.1-18.1c10,0,18.1,8.1,18.1,18.1v101.5h0v38.7
			c0,10,8.1,18.1,18.1,18.1c10,0,18.1-8.1,18.1-18.1c0,0,0-89.8,0-115.1c0.1-30.5,7.6-49.1,32.6-53.4c2.5-0.5,5.4-1,5.4-1l5.4-1.2
			l10.7-2.4l10.6-2.8l5.3-1.4l5.3-1.6c14.1-4,27.8-9,41.4-14.3c44.1-18,85.3-42.9,121.4-73.4c3.9,11.5,7.9,23,11.9,34.5
			c8.3,23.6,17.5,49.4,25.9,70.8c8.4,21.4,19.8,60.2,19.8,81.8c0,21.6,0,93.8,0,93.8c0,10,8.1,18.1,18.1,18.1s18.1-8.1,18.1-18.1
			v-49.1v-24c0-10,8.1-18.1,18.1-18.1s18.1,8.1,18.1,18.1v24h0v142c0,10,8.1,18.1,18.1,18.1c10,0,18.1-8.1,18.1-18.1v-217.7
			c0-0.6,0-1.1-0.1-1.7c-0.1-8.7-2.4-17.4-7.1-25.5l-0.1-0.2c-4.7-8-9.9-18.4-14.8-28.7c-5-10.4-9.8-21.3-14.6-32.3
			c-9.5-21.9-18.7-44.4-27.8-67c-10.2-25.6-20.2-51.3-30-77.2c2.7-3.6,5.2-7.2,7.8-10.9c16.6-23.5,30.3-48.7,42.1-74.7
			c4.9-10.9,0.7-24-9.9-29.8c-11.2-6.2-25.3-2.1-31.5,9.1l-0.2,0.3c-9.1,16.5-19.1,32.4-30.1,47.5c-0.2-0.5-0.4-0.9-0.5-1.4
			c-25.5-69.1-50.3-138.6-74.6-208.4l33.5-7.1c12.7-2.7,25.5-5.8,38.2-8.7c20.4-4.8,40.8-9.8,61.2-15.2c0,26.2-2.5,52.4-7.6,78
			c-0.1,0.5-0.2,1.2-0.3,1.7c-3.4,21.8,11.5,42.1,33.3,45.5c21.8,3.4,42.1-11.5,45.5-33.3l0-0.2c4.5-29.2,6.3-58.7,5.5-88
			c-0.2-8.4-0.5-16.9-1.2-25.3c4.9-1.5,9.9-3.1,14.8-4.7c49.9-16,99.4-34.2,147.3-56.6C1646.1,880.4,1652.1,866.5,1647.5,853.8z
			 M971.4,658c10.1-29.3,20.1-58.6,30.1-87.9c19.9-0.2,39.9,1.2,59.6,4.1c8.1,31.4,16.4,62.7,24.9,94c24.4,90.4,50,180.4,76.3,270.1
			c-47.7,5.8-95.6,10.7-143.5,15c-51.6,4.4-103.3,8-155,10.9c3.7-10.4,7.4-20.8,11.2-31.1C907.7,841.5,939.8,749.8,971.4,658z
			 M1044.5,508.4c-7.2-0.6-14.4-1-21.6-1.2c4.2-12.3,8.3-24.5,12.4-36.8C1038.3,483.1,1041.4,495.7,1044.5,508.4z M631.5,849.2
			c14.5-47.8,37.9-93.1,69.3-132.4l12.1-14.5l12.7-13.9l13.4-13.2l14.1-12.5c19.1-16.3,39.8-30.8,61.6-43.1
			c36.3-20.4,75.9-34.8,116.7-42.6c-7.7,19.1-15.5,38.2-23.2,57.2c-36.5,89.7-73.4,179.3-110.9,268.5c-9.2,22-18.5,43.9-27.8,65.9
			c-18.7,0.7-37.4,1.4-56,2c-33.2,1-66.4,1.8-99.6,2.7C613.4,931.4,619.3,889.4,631.5,849.2z M667.1,1173.4
			c-1.5-2.7-3.2-5.3-4.5-8.1l-4.2-8.2c-1.4-2.8-2.9-5.5-4.2-8.3l-3.8-8.4c-9.5-21.3-17.3-43.4-23.1-66c30.4-1.3,60.7-3.1,91-5.2
			c2.8-0.2,5.5-0.4,8.3-0.6c-14.6,33.6-29.3,67-44.1,100.4c-2.6,5.8-5.2,11.6-7.8,17.4C672,1182.2,669.6,1177.7,667.1,1173.4z
			 M1144.6,1356.3c-47,16.8-97,24.5-146.6,22.4c-24.8-0.9-49.4-4.1-73.5-9.6c-24.1-5.5-47.5-13.5-70.1-23.4
			c-39.2-17.3-75.4-41.2-106.8-70.2c9-22.8,17.8-45.6,26.6-68.4c18.6-48.8,36.8-97.6,54.7-146.5c66.5-5.9,133-13,199.3-21.8
			c51.5-6.8,102.9-14.6,154.2-23.6c0.9-0.1,1.7-0.3,2.6-0.4c22.3,74.4,45.2,148.6,69,222.7c5.1,15.7,10.2,31.4,15.4,47.1
			C1232.2,1315.7,1189.9,1340.4,1144.6,1356.3z M1321.4,914.8c-27.3,4.8-54.7,9.2-82.1,13.3c-31.5-92.3-62.2-185-91.6-277.9
			c-6.3-19.9-12.5-39.8-18.7-59.7c87.1,29.5,162.7,91.1,209.9,169.7c26.5,43.2,44,91.5,52.4,141.2
			C1368,906.1,1344.7,910.6,1321.4,914.8z"/>
	</g>
</g>
</svg>
