<?xml version="1.0" encoding="utf-8"?>
<!-- Generator: Adobe Illustrator 22.0.1, SVG Export Plug-In . SVG Version: 6.00 Build 0)  -->
<svg version="1.1" id="Layer_1" xmlns="http://www.w3.org/2000/svg" xmlns:xlink="http://www.w3.org/1999/xlink" x="0px" y="0px"
	 viewBox="0 0 2008.8 2008.8" style="enable-background:new 0 0 2008.8 2008.8;" xml:space="preserve">
<style type="text/css">
	.st0{fill:#9ECAD9;}
	.st1{fill:#DB5253;}
	.st2{fill:#FEF2A7;}
	.st3{fill:#F4D985;}
	.st4{fill:#D6BB67;}
</style>
<circle class="st0" cx="1004.4" cy="1004.4" r="1004.4"/>
<g>
	<path class="st1" d="M1592,416.8c-157-157-365.6-243.4-587.6-243.4c-222,0-430.7,86.4-587.6,243.4s-243.4,365.6-243.4,587.6
		c0,222,86.4,430.6,243.4,587.6c157,157,365.6,243.4,587.6,243.4c222,0,430.7-86.4,587.6-243.4c157-157,243.4-365.6,243.4-587.6
		C1835.4,782.4,1749,573.7,1592,416.8z M522.9,1485.9c-128.6-128.6-199.5-299.6-199.5-481.5c0-156.7,52.5-305.3,149.3-425.6
		l957.3,957.3c-120.4,96.8-269,149.3-425.6,149.3C822.5,1685.4,651.5,1614.6,522.9,1485.9z M1536.1,1430L578.8,472.7
		c120.4-96.8,269-149.3,425.6-149.3c181.9,0,352.9,70.8,481.5,199.5l0,0c128.6,128.6,199.5,299.6,199.5,481.5
		C1685.4,1161.1,1632.9,1309.7,1536.1,1430z"/>
</g>
<path class="st2" d="M464.4,966.9v75.1c0,298.2,241.8,540,540,540s540-241.8,540-540v-75.1c0-298.2-241.8-540-540-540
	S464.4,668.6,464.4,966.9z"/>
<circle class="st3" cx="1004.4" cy="1041.9" r="540"/>
<g>
	<g>
		<path class="st4" d="M1163.4,1046v-5.6c48.5-15.1,78.3-54,78.3-100.4c0-67.2-55.5-108.7-143.4-108.7h-8.7v-60.8v-11.9H1019v11.9
			v60.8h-56.4v-60.8v-11.9h-70.6v11.9v60.8H783.3v11.9v37.7c14.5,2.5,46.3,4.4,79.6,5.7v11.9v305.1c-28.4,1.2-60.3,6.2-79.6,11.3
			v11.9v37.6h108.7v11.9v60.9h70.6v-60.9v-11.9h56.4v11.9v60.9h70.6v-60.9v-11.9h6.6c95.6,0,159.3-49,159.3-123.6
			C1255.6,1096.3,1223,1056.7,1163.4,1046z M975.8,906v-11.9h76.9c49.9,0,79.6,21.4,79.6,57.7c0,36.4-29.1,59.7-74.8,59.7h-81.7V906
			z M1057.4,1201.7h-81.7v-111.2v-11.9h83.7c51.9,0,82.5,23.8,82.5,64C1142,1179.1,1108.8,1201.7,1057.4,1201.7z"/>
	</g>
	<g>
		<path class="st2" d="M1151.4,1034v-5.6c48.5-15.1,78.3-54,78.3-100.4c0-67.2-55.5-108.7-143.4-108.7h-8.7v-60.8v-11.9H1007v11.9
			v60.8h-56.4v-60.8v-11.9h-70.6v11.9v60.8H771.2v11.9v37.7c14.5,2.5,46.3,4.4,79.6,5.7v11.9v305.1c-28.4,1.2-60.3,6.2-79.6,11.3
			v11.9v37.6h108.7v11.9v60.9h70.6v-60.9v-11.9h56.4v11.9v60.9h70.6v-60.9v-11.9h6.6c95.6,0,159.3-49,159.3-123.6
			C1243.6,1084.3,1211,1044.7,1151.4,1034z M963.8,894v-11.9h76.9c49.9,0,79.6,21.4,79.6,57.7c0,36.4-29.1,59.7-74.8,59.7h-81.7V894
			z M1045.4,1189.7h-81.7v-111.2v-11.9h83.7c51.9,0,82.5,23.8,82.5,64C1130,1167.1,1096.8,1189.7,1045.4,1189.7z"/>
	</g>
</g>
<g>
	<path class="st4" d="M995.1,1519.7c0-8.6,7-15.6,15.6-15.6l0,0c8.6,0,15.6,7,15.6,15.6l0,0c0,8.6-7,15.6-15.6,15.6l0,0
		C1002.1,1535.3,995.1,1528.3,995.1,1519.7z M915.7,1526.1c-8.5-1.7-14-9.9-12.3-18.3l0,0c1.7-8.4,9.9-14,18.3-12.3l0,0
		c8.5,1.7,14,9.9,12.3,18.3l0,0c-1.5,7.4-8,12.6-15.3,12.6l0,0C917.7,1526.4,916.7,1526.3,915.7,1526.1z M1087.4,1513.7
		c-1.7-8.5,3.8-16.7,12.3-18.4l0,0c8.5-1.7,16.7,3.8,18.3,12.3l0,0c1.7,8.5-3.8,16.7-12.2,18.3l0,0c-1.1,0.2-2.1,0.3-3.1,0.3l0,0
		C1095.4,1526.3,1088.8,1521.1,1087.4,1513.7z M824.2,1498.4c-8-3.3-11.8-12.4-8.5-20.4l0,0c3.3-8,12.4-11.8,20.4-8.5l0,0
		c7.9,3.3,11.8,12.4,8.5,20.4l0,0c-2.5,6-8.3,9.7-14.4,9.7l0,0C828.2,1499.6,826.2,1499.2,824.2,1498.4z M1176.7,1489.8
		c-3.3-8,0.5-17.1,8.4-20.4l0,0c8-3.3,17.1,0.5,20.4,8.4l0,0c3.3,7.9-0.5,17.1-8.4,20.4l0,0l0,0l0,0c-2,0.8-4,1.2-6,1.2l0,0
		C1185,1499.4,1179.2,1495.8,1176.7,1489.8z M739.9,1453.4c-7.2-4.8-9.1-14.5-4.3-21.6l0,0c4.8-7.2,14.5-9.1,21.6-4.3l0,0
		c7.2,4.8,9.1,14.5,4.3,21.7l0,0c-3,4.5-7.9,6.9-13,6.9l0,0C745.6,1456,742.6,1455.2,739.9,1453.4z M1259.7,1448.8
		c-4.8-7.2-2.9-16.9,4.3-21.6l0,0c7.2-4.8,16.9-2.9,21.7,4.3l0,0c4.8,7.2,2.9,16.9-4.3,21.7l0,0c-2.7,1.8-5.7,2.6-8.7,2.6l0,0
		C1267.6,1455.7,1262.7,1453.3,1259.7,1448.8z M666.1,1392.8c-6.1-6.1-6.1-16,0-22.1l0,0c6.1-6.1,16-6.1,22.1,0l0,0
		c6.1,6.1,6.1,16,0,22.1l0,0c-3.1,3.1-7,4.6-11,4.6l0,0C673.1,1397.4,669.1,1395.9,666.1,1392.8z M1333,1392.4c-6.1-6.1-6.1-16,0-22
		l0,0c6.1-6.1,16-6.1,22,0l0,0c6.1,6.1,6.1,16,0,22l0,0c-3,3.1-7,4.6-11,4.6l0,0C1340.1,1397,1336.1,1395.5,1333,1392.4z
		 M605.4,1319.1c-4.8-7.2-2.9-16.9,4.3-21.7l0,0c7.1-4.8,16.8-2.9,21.6,4.3l0,0c4.8,7.1,2.9,16.8-4.3,21.6l0,0
		c-2.7,1.8-5.7,2.6-8.7,2.6l0,0C613.3,1326,608.4,1323.6,605.4,1319.1z M1394.1,1322.9c-7.1-4.8-9.1-14.5-4.3-21.7h0
		c4.8-7.2,14.5-9.1,21.6-4.3l0,0c7.1,4.8,9.1,14.5,4.3,21.7l0,0c-3,4.5-7.9,6.9-13,6.9l0,0
		C1399.8,1325.5,1396.7,1324.7,1394.1,1322.9z M560.2,1234.9c-3.3-8,0.5-17.1,8.4-20.4l0,0c7.9-3.3,17.1,0.4,20.4,8.4l0,0
		c3.3,8-0.5,17.1-8.4,20.4l0,0c-2,0.8-4,1.2-6,1.2l0,0C568.5,1244.5,562.7,1240.9,560.2,1234.9z M1440.4,1242.8
		c-8-3.3-11.7-12.4-8.4-20.4l0,0c3.3-8,12.4-11.7,20.4-8.4l0,0c8,3.3,11.7,12.4,8.5,20.4l0,0c-2.5,6-8.3,9.6-14.4,9.6l0,0
		C1444.4,1244,1442.4,1243.6,1440.4,1242.8z M532.4,1143.5c-1.7-8.5,3.8-16.7,12.3-18.4l0,0c8.4-1.7,16.6,3.8,18.3,12.3l0,0
		c1.7,8.4-3.8,16.7-12.3,18.3l0,0c-1,0.2-2,0.3-3.1,0.3l0,0C540.4,1156.1,533.9,1150.9,532.4,1143.5z M1470.1,1155.2
		c-8.4-1.7-14-9.9-12.3-18.3l0,0c1.7-8.5,9.9-14,18.3-12.3l0,0c8.5,1.7,14,9.9,12.3,18.3l0,0c-1.5,7.4-8,12.6-15.3,12.6l0,0
		C1472.2,1155.5,1471.2,1155.4,1470.1,1155.2z M523.1,1048.5L523.1,1048.5L523.1,1048.5c0-8.6,7-15.6,15.6-15.6l0,0
		c8.6,0,15.6,7,15.6,15.6l0,0c0,8.6-7,15.6-15.6,15.6l0,0C530.1,1064.1,523.1,1057.1,523.1,1048.5z M1466.5,1047.9
		c0-0.2,0-0.3,0-0.5l0,0c0-0.2,0-0.4,0-0.6l0,0c0-8.6,7-15.6,15.6-15.6l0,0c8.6,0,15.6,7,15.6,15.6l0,0c0,0.2,0,0.4,0,0.6l0,0
		c0,0.2,0,0.4,0,0.5l0,0c0,8.6-7,15.6-15.6,15.6l0,0C1473.5,1063.5,1466.5,1056.6,1466.5,1047.9z M544.5,971.8
		c-8.5-1.6-14-9.8-12.3-18.3l0,0c1.7-8.5,9.8-14,18.3-12.3l0,0c8.5,1.7,14,9.9,12.3,18.3l0,0c-1.5,7.4-8,12.6-15.3,12.6l0,0
		C546.5,972.1,545.5,972,544.5,971.8z M1457.7,957.9c-1.7-8.5,3.8-16.7,12.2-18.4l0,0c8.5-1.7,16.7,3.8,18.4,12.2l0,0l0,0l0,0
		c1.7,8.4-3.8,16.7-12.2,18.3l0,0c-1,0.2-2.1,0.3-3.1,0.3l0,0C1465.7,970.5,1459.2,965.3,1457.7,957.9z M568.3,882.4
		c-8-3.3-11.7-12.4-8.5-20.4l0,0c3.3-8,12.4-11.8,20.4-8.5l0,0c8,3.3,11.8,12.4,8.5,20.4l0,0c-2.5,6-8.3,9.7-14.4,9.7l0,0
		C572.2,883.6,570.2,883.2,568.3,882.4z M1431.6,872.4L1431.6,872.4c-3.3-8,0.5-17.1,8.4-20.4l0,0c8-3.3,17.1,0.4,20.4,8.4l0,0
		c3.3,7.9-0.5,17.1-8.4,20.4l0,0c-1.9,0.8-4,1.2-6,1.2l0,0C1439.9,882,1434.1,878.4,1431.6,872.4z M609.1,799.3
		c-7.1-4.8-9.1-14.5-4.3-21.6l0,0l0,0l0,0c4.8-7.2,14.5-9.1,21.6-4.3l0,0c7.2,4.8,9.1,14.5,4.3,21.6h0c-3,4.5-8,7-13,7l0,0
		C614.8,802,611.8,801.1,609.1,799.3z M1389.2,793.7c-4.8-7.2-2.9-16.9,4.2-21.7l0,0c7.2-4.8,16.9-2.9,21.7,4.2l0,0
		c4.8,7.1,2.9,16.9-4.2,21.7l0,0c-2.7,1.8-5.7,2.6-8.7,2.6l0,0C1397.2,800.6,1392.2,798.2,1389.2,793.7z M665.3,725.9
		c-6.1-6.1-6.1-16,0-22l0,0l0,0l0,0c6.1-6.1,16-6.1,22.1,0l0,0c6.1,6.1,6.1,16,0,22h0c-3,3.1-7,4.6-11,4.6l0,0
		C672.3,730.4,668.4,728.9,665.3,725.9z M1332.3,724.7L1332.3,724.7c-6.1-6.1-6.1-16,0-22.1l0,0c6.1-6.1,16-6.1,22-0.1l0,0l0,0l0,0
		c6.1,6.1,6.1,16,0,22.1l0,0c-3,3.1-7,4.6-11,4.6l0,0C1339.3,729.3,1335.3,727.8,1332.3,724.7z M734.8,664.7
		c-4.8-7.1-2.9-16.8,4.3-21.6l0,0c7.1-4.8,16.8-2.9,21.7,4.2l0,0c4.8,7.2,2.9,16.9-4.3,21.7l0,0c-2.7,1.8-5.7,2.6-8.7,2.6l0,0
		C742.7,671.6,737.8,669.2,734.8,664.7z M1263.1,668.1c-7.2-4.8-9.1-14.5-4.3-21.6l0,0c4.8-7.2,14.5-9.1,21.6-4.3l0,0l0,0l0,0
		c7.2,4.8,9.1,14.5,4.3,21.6l0,0c-3,4.5-7.9,7-13,7l0,0C1268.8,670.7,1265.8,669.9,1263.1,668.1z M814.8,618.3
		c-3.3-8,0.4-17.1,8.4-20.4l0,0c8-3.3,17.1,0.4,20.4,8.4l0,0c3.3,7.9-0.4,17.1-8.4,20.4l0,0c-2,0.8-4,1.2-6,1.2l0,0
		C823,627.9,817.3,624.3,814.8,618.3z M1184.2,626.1c-7.9-3.3-11.7-12.4-8.5-20.4l0,0c3.3-8,12.4-11.8,20.4-8.5l0,0
		c8,3.3,11.8,12.4,8.5,20.3l0,0c-2.5,6-8.3,9.7-14.4,9.7l0,0C1188.1,627.2,1186.1,626.9,1184.2,626.1z M902.3,588.4
		c-1.7-8.5,3.8-16.7,12.2-18.4l0,0c8.4-1.7,16.6,3.8,18.4,12.2l0,0c1.7,8.5-3.8,16.7-12.3,18.4l0,0c-1,0.2-2,0.3-3.1,0.3l0,0
		C910.3,600.9,903.8,595.8,902.3,588.4z M1098.6,600.3c-8.5-1.7-14-9.9-12.3-18.3l0,0c1.6-8.5,9.9-13.9,18.3-12.3l0,0
		c8.4,1.7,13.9,9.8,12.3,18.3l0,0c-1.5,7.4-8,12.6-15.3,12.6l0,0C1100.6,600.6,1099.6,600.5,1098.6,600.3z M994,576.2
		c0-8.6,7-15.6,15.6-15.6l0,0c8.6,0,15.6,6.9,15.6,15.6l0,0c0,8.6-7,15.6-15.6,15.6l0,0C1001,591.8,994,584.8,994,576.2z"/>
</g>
<g>
	<path class="st2" d="M989.1,1513.7c0-8.6,7-15.6,15.6-15.6l0,0c8.6,0,15.6,7,15.6,15.6l0,0c0,8.6-7,15.6-15.6,15.6l0,0
		C996.1,1529.3,989.1,1522.3,989.1,1513.7z M909.6,1520.1c-8.5-1.7-14-9.9-12.3-18.3l0,0c1.7-8.4,9.9-14,18.3-12.3l0,0
		c8.5,1.7,14,9.9,12.3,18.3l0,0c-1.5,7.4-8,12.6-15.3,12.6l0,0C911.7,1520.4,910.7,1520.3,909.6,1520.1z M1081.4,1507.7
		c-1.7-8.5,3.8-16.7,12.3-18.4l0,0c8.5-1.7,16.7,3.8,18.3,12.3l0,0c1.7,8.5-3.8,16.7-12.2,18.3l0,0c-1.1,0.2-2.1,0.3-3.1,0.3l0,0
		C1089.4,1520.3,1082.8,1515.1,1081.4,1507.7z M818.2,1492.4c-8-3.3-11.8-12.4-8.5-20.4l0,0c3.3-8,12.4-11.8,20.4-8.5l0,0
		c7.9,3.3,11.8,12.4,8.5,20.4l0,0c-2.5,6-8.3,9.7-14.4,9.7l0,0C822.2,1493.6,820.2,1493.2,818.2,1492.4z M1170.7,1483.8
		c-3.3-8,0.5-17.1,8.4-20.4l0,0c8-3.3,17.1,0.5,20.4,8.4l0,0c3.3,7.9-0.5,17.1-8.4,20.4l0,0l0,0l0,0c-2,0.8-4,1.2-6,1.2l0,0
		C1179,1493.4,1173.2,1489.8,1170.7,1483.8z M733.9,1447.4c-7.2-4.8-9.1-14.5-4.3-21.6l0,0c4.8-7.2,14.5-9.1,21.6-4.3l0,0
		c7.2,4.8,9.1,14.5,4.3,21.7l0,0c-3,4.5-7.9,6.9-13,6.9l0,0C739.6,1450,736.6,1449.2,733.9,1447.4z M1253.7,1442.8
		c-4.8-7.2-2.9-16.9,4.3-21.6l0,0c7.2-4.8,16.9-2.9,21.7,4.3l0,0c4.8,7.2,2.9,16.9-4.3,21.7l0,0c-2.7,1.8-5.7,2.6-8.7,2.6l0,0
		C1261.6,1449.7,1256.7,1447.3,1253.7,1442.8z M660.1,1386.8c-6.1-6.1-6.1-16,0-22.1l0,0c6.1-6.1,16-6.1,22.1,0l0,0
		c6.1,6.1,6.1,16,0,22.1l0,0c-3.1,3.1-7,4.6-11,4.6l0,0C667.1,1391.4,663.1,1389.9,660.1,1386.8z M1327,1386.4c-6.1-6.1-6.1-16,0-22
		l0,0c6.1-6.1,16-6.1,22,0l0,0c6.1,6.1,6.1,16,0,22l0,0c-3,3.1-7,4.6-11,4.6l0,0C1334.1,1391,1330.1,1389.5,1327,1386.4z
		 M599.4,1313.1c-4.8-7.2-2.9-16.9,4.3-21.7l0,0c7.1-4.8,16.8-2.9,21.6,4.3l0,0c4.8,7.1,2.9,16.8-4.3,21.6l0,0
		c-2.7,1.8-5.7,2.6-8.7,2.6l0,0C607.3,1320,602.4,1317.6,599.4,1313.1z M1388.1,1316.9c-7.1-4.8-9.1-14.5-4.3-21.7h0
		c4.8-7.2,14.5-9.1,21.6-4.3l0,0c7.1,4.8,9.1,14.5,4.3,21.7l0,0c-3,4.5-7.9,6.9-13,6.9l0,0
		C1393.8,1319.5,1390.7,1318.7,1388.1,1316.9z M554.2,1228.9c-3.3-8,0.5-17.1,8.4-20.4l0,0c7.9-3.3,17.1,0.4,20.4,8.4l0,0
		c3.3,8-0.5,17.1-8.4,20.4l0,0c-2,0.8-4,1.2-6,1.2l0,0C562.5,1238.5,556.7,1234.9,554.2,1228.9z M1434.4,1236.8
		c-8-3.3-11.7-12.4-8.4-20.4l0,0c3.3-8,12.4-11.7,20.4-8.4l0,0c8,3.3,11.7,12.4,8.5,20.4l0,0c-2.5,6-8.3,9.6-14.4,9.6l0,0
		C1438.4,1238,1436.4,1237.6,1434.4,1236.8z M526.4,1137.5c-1.7-8.5,3.8-16.7,12.3-18.4l0,0c8.4-1.7,16.6,3.8,18.3,12.3l0,0
		c1.7,8.4-3.8,16.7-12.3,18.3l0,0c-1,0.2-2,0.3-3.1,0.3l0,0C534.4,1150.1,527.9,1144.9,526.4,1137.5z M1464.1,1149.2
		c-8.4-1.7-14-9.9-12.3-18.3l0,0c1.7-8.5,9.9-14,18.3-12.3l0,0c8.5,1.7,14,9.9,12.3,18.3l0,0c-1.5,7.4-8,12.6-15.3,12.6l0,0
		C1466.2,1149.5,1465.2,1149.4,1464.1,1149.2z M517.1,1042.5L517.1,1042.5L517.1,1042.5c0-8.6,7-15.6,15.6-15.6l0,0
		c8.6,0,15.6,7,15.6,15.6l0,0c0,8.6-7,15.6-15.6,15.6l0,0C524.1,1058.1,517.1,1051.1,517.1,1042.5z M1460.5,1041.9
		c0-0.2,0-0.3,0-0.5l0,0c0-0.2,0-0.4,0-0.6l0,0c0-8.6,7-15.6,15.6-15.6l0,0c8.6,0,15.6,7,15.6,15.6l0,0c0,0.2,0,0.4,0,0.6l0,0
		c0,0.2,0,0.4,0,0.5l0,0c0,8.6-7,15.6-15.6,15.6l0,0C1467.5,1057.5,1460.5,1050.6,1460.5,1041.9z M538.5,965.7
		c-8.5-1.6-14-9.8-12.3-18.3l0,0c1.7-8.5,9.8-14,18.3-12.3l0,0c8.5,1.7,14,9.9,12.3,18.3l0,0c-1.5,7.4-8,12.6-15.3,12.6l0,0
		C540.5,966,539.5,966,538.5,965.7z M1451.7,951.9c-1.7-8.5,3.8-16.7,12.2-18.4l0,0c8.5-1.7,16.7,3.8,18.4,12.2l0,0l0,0l0,0
		c1.7,8.4-3.8,16.7-12.2,18.3l0,0c-1,0.2-2.1,0.3-3.1,0.3l0,0C1459.7,964.5,1453.2,959.3,1451.7,951.9z M562.2,876.3
		c-8-3.3-11.7-12.4-8.5-20.4l0,0c3.3-8,12.4-11.8,20.4-8.5l0,0c8,3.3,11.8,12.4,8.5,20.4l0,0c-2.5,6-8.3,9.7-14.4,9.7l0,0
		C566.2,877.5,564.2,877.2,562.2,876.3z M1425.6,866.4L1425.6,866.4c-3.3-8,0.5-17.1,8.4-20.4l0,0c8-3.3,17.1,0.4,20.4,8.4l0,0
		c3.3,7.9-0.5,17.1-8.4,20.4l0,0c-1.9,0.8-4,1.2-6,1.2l0,0C1433.9,876,1428.1,872.4,1425.6,866.4z M603.1,793.3
		c-7.1-4.8-9.1-14.5-4.3-21.6l0,0l0,0l0,0c4.8-7.2,14.5-9.1,21.6-4.3l0,0c7.2,4.8,9.1,14.5,4.3,21.6h0c-3,4.5-8,7-13,7l0,0
		C608.7,796,605.7,795.1,603.1,793.3z M1383.2,787.7c-4.8-7.2-2.9-16.9,4.2-21.7l0,0c7.2-4.8,16.9-2.9,21.7,4.2l0,0
		c4.8,7.1,2.9,16.9-4.2,21.7l0,0c-2.7,1.8-5.7,2.6-8.7,2.6l0,0C1391.1,794.6,1386.2,792.2,1383.2,787.7z M659.3,719.9
		c-6.1-6.1-6.1-16,0-22l0,0l0,0l0,0c6.1-6.1,16-6.1,22.1,0l0,0c6.1,6.1,6.1,16,0,22h0c-3,3.1-7,4.6-11,4.6l0,0
		C666.3,724.4,662.4,722.9,659.3,719.9z M1326.3,718.7L1326.3,718.7c-6.1-6.1-6.1-16,0-22.1l0,0c6.1-6.1,16-6.1,22-0.1l0,0l0,0l0,0
		c6.1,6.1,6.1,16,0,22.1l0,0c-3,3.1-7,4.6-11,4.6l0,0C1333.3,723.3,1329.3,721.8,1326.3,718.7z M728.7,658.7
		c-4.8-7.1-2.9-16.8,4.3-21.6l0,0c7.1-4.8,16.8-2.9,21.7,4.2l0,0c4.8,7.2,2.9,16.9-4.3,21.7l0,0c-2.7,1.8-5.7,2.6-8.7,2.6l0,0
		C736.7,665.6,731.8,663.2,728.7,658.7z M1257.1,662.1c-7.2-4.8-9.1-14.5-4.3-21.6l0,0c4.8-7.2,14.5-9.1,21.6-4.3l0,0l0,0l0,0
		c7.2,4.8,9.1,14.5,4.3,21.6l0,0c-3,4.5-7.9,7-13,7l0,0C1262.7,664.7,1259.7,663.9,1257.1,662.1z M808.8,612.3
		c-3.3-8,0.4-17.1,8.4-20.4l0,0c8-3.3,17.1,0.4,20.4,8.4l0,0c3.3,7.9-0.4,17.1-8.4,20.4l0,0c-2,0.8-4,1.2-6,1.2l0,0
		C817,621.9,811.2,618.3,808.8,612.3z M1178.2,620.1c-7.9-3.3-11.7-12.4-8.5-20.4l0,0c3.3-8,12.4-11.8,20.4-8.5l0,0
		c8,3.3,11.8,12.4,8.5,20.3l0,0c-2.5,6-8.3,9.7-14.4,9.7l0,0C1182.1,621.2,1180.1,620.9,1178.2,620.1z M896.3,582.4
		c-1.7-8.5,3.8-16.7,12.2-18.4l0,0c8.4-1.7,16.6,3.8,18.4,12.2l0,0c1.7,8.5-3.8,16.7-12.3,18.4l0,0c-1,0.2-2,0.3-3.1,0.3l0,0
		C904.3,594.9,897.8,589.8,896.3,582.4z M1092.6,594.3c-8.5-1.7-14-9.9-12.3-18.3l0,0c1.6-8.5,9.9-13.9,18.3-12.3l0,0
		c8.4,1.7,13.9,9.8,12.3,18.3l0,0c-1.5,7.4-8,12.6-15.3,12.6l0,0C1094.6,594.6,1093.6,594.5,1092.6,594.3z M988,570.2
		c0-8.6,7-15.6,15.6-15.6l0,0c8.6,0,15.6,6.9,15.6,15.6l0,0c0,8.6-7,15.6-15.6,15.6l0,0C995,585.8,988,578.8,988,570.2z"/>
</g>
</svg>
