<?xml version="1.0" encoding="utf-8"?>
<!-- Generator: Adobe Illustrator 22.0.1, SVG Export Plug-In . SVG Version: 6.00 Build 0)  -->
<svg version="1.1" id="Layer_1" xmlns="http://www.w3.org/2000/svg" xmlns:xlink="http://www.w3.org/1999/xlink" x="0px" y="0px"
	 viewBox="0 0 5400 1425.5" style="enable-background:new 0 0 5400 1425.5;" xml:space="preserve">
<style type="text/css">
	.st0{fill:none;stroke:#6C98A7;stroke-width:36;stroke-miterlimit:10;}
	.st1{fill:#6C98A7;}
	.st2{fill:#BD3435;}
	.st3{fill:#B47943;}
	.st4{fill:#FFFFFF;}
	.st5{fill:#E0A865;}
	.st6{fill:#8E6134;}
	.st7{fill:#CDE0DE;}
	.st8{fill:#7A4D20;}
	.st9{fill:#7E8E9E;}
	.st10{fill:#6A7A8A;}
	.st11{fill:#E1F4F2;}
	.st12{fill:#384261;}
	.st13{fill:#2E3857;}
	.st14{fill:#424C6B;}
	.st15{fill:#6A7493;}
	.st16{fill:#1C283E;}
	.st17{fill:#8AB6C5;}
</style>
<line class="st0" x1="446" y1="703.3" x2="808.9" y2="703.3"/>
<polygon class="st1" points="953.2,703.3 741.4,598.7 741.4,680.6 741.4,726 741.4,807.9 "/>
<circle class="st1" cx="291.6" cy="703.3" r="291.6"/>
<polygon class="st2" points="291.6,500.2 253.8,537.7 203.5,520.3 185.7,570.5 132.8,576.6 138.6,629.6 93.6,658.1 121.8,703.3 
	93.6,748.5 138.6,776.9 132.8,829.9 185.7,836 203.5,886.3 253.8,868.8 291.6,906.4 329.4,868.8 379.7,886.3 397.5,836 450.4,829.9 
	444.6,776.9 489.6,748.5 461.4,703.3 489.6,658.1 444.6,629.6 450.4,576.6 397.5,570.5 379.7,520.3 329.4,537.7 "/>
<line class="st0" x1="1880.2" y1="703.3" x2="2243" y2="703.3"/>
<polygon class="st1" points="2387.3,703.3 2175.6,598.7 2175.6,680.6 2175.6,726 2175.6,807.9 "/>
<line class="st0" x1="3446.9" y1="675.6" x2="3809.7" y2="675.6"/>
<polygon class="st1" points="3954,675.6 3742.3,571.1 3742.3,653 3742.3,698.4 3742.3,780.2 "/>
<circle class="st1" cx="1526.5" cy="703.3" r="510.3"/>
<circle class="st1" cx="3039.1" cy="675.6" r="613.5"/>
<circle class="st1" cx="4718.4" cy="689" r="681.6"/>
<path class="st3" d="M1982.1,426.9l-518.6-0.1l-87.6-87.6l-304.9-0.1c-28.9,0-52.5,23.6-52.5,52.5l-0.2,686.6l1016.1,0.3l0.2-599
	C2034.6,450.6,2011,426.9,1982.1,426.9z"/>
<rect x="1097.9" y="470" class="st4" width="840.8" height="231.4"/>
<rect x="1018.4" y="549.5" class="st5" width="1016.1" height="528.9"/>
<path class="st6" d="M3517,149.2l-518.1-22.6l-83.7-91.3l-304.6-13.3c-28.9-1.3-53.5,21.3-54.7,50.2l-29.9,686l1015.1,44.2
	l26.1-598.5C3568.5,175.1,3545.9,150.5,3517,149.2z"/>
<path class="st3" d="M3532.3,264.9l-516.6-45.3l-79.6-94.9l-303.7-26.6c-28.8-2.5-54.4,18.9-56.9,47.7l-60,684l1012.2,88.8
	l52.4-596.8C3582.5,293.1,3561,267.5,3532.3,264.9z"/>
<path class="st5" d="M3487.7,335l-518.6-0.1l-87.6-87.6l-304.9-0.1c-28.9,0-52.5,23.6-52.5,52.5l-0.2,686.6l1016.1,0.3l0.2-599
	C3540.2,358.7,3516.6,335.1,3487.7,335z"/>
<rect x="2467.4" y="379.8" class="st7" width="1123" height="815.2"/>
<path class="st4" d="M3545.4,424.8V1150h-1033V424.8H3545.4 M3590.4,379.8h-1123V1195h1123V379.8L3590.4,379.8z"/>
<g>
	<path class="st8" d="M1414.3,708.6c0,3.4-3.2,5.2-5.6,6.3c-5.2,2.5-12.1,2.2-14.8,10.6c-0.9,3.6-1.6,13.5-1.6,22.7
		c0,24.5,0.5,29.9,0.5,47.2c0,7-0.2,13.9-0.2,19.8c0,9.2,0.7,14.4,2,17.3c2.2,4.5,7,3.6,13,6.3c5.6,2.5,9.2,5.4,9.2,11.7
		c0,1.8-0.2,3.4-0.9,4.5c-1.6,4.1-9.2,5.2-18,5.2c-9.4,0-15.7,0.2-26.1,0.2c-7.6,0-11.7,0.5-20.9,0.5c-7,0-11.7-2.9-11.7-10.6
		c0-9.9,9.9-8.3,16-11.9c2.2-1.1,3.4-2.2,4.3-5.4c0.2-0.9,0.5-2.2,1.3-6.5c1.1-4.9,1.3-11.7,1.3-16.4v-2.9c0-8.8,0.2-17.1,0.2-23.4
		c0-11.7,1.3-26.5,1.3-39.4c0-6.1-0.2-9-1.8-9c-0.9,0-2.5,3.2-4.3,7.4l-5.2,12.4c-6.5,15.5-12.6,29.2-18,43.2l-1.6,4.3
		c-3.8,9.2-10.3,20.2-20.9,20.2c-16.2,0-17.5-10.3-26.3-30.8l-1.6-3.6c-3.4-7.4-17.8-52.4-21.1-52.4c-0.5,0-1.1,1.4-1.1,4.5
		c0,1.3-0.2,3.8-0.2,4.7c0,1.6,0.2,3.4,0.2,5.6c-0.2,6.5-0.2,13.1-0.2,17.6c0,12.8,0.4,16,0.4,24.3c0,10.8,0,19.3,0,26.3
		c0,11.2,0.7,17.1,5.8,18.2c3.8,0.9,7.4,2,10.3,3.4c5,2,8.6,4.9,8.6,9c0,1.3,0,2.9-0.5,4.3c-1.8,6.5-9,6.8-22.5,7
		c-3.8,0-12.6-0.5-16.9-0.5c-7,0-15.3,0.7-20.5,0.7c-5.6,0-10.1-0.9-11.9-4.7c-0.4-0.7-0.7-2-0.7-3.6c0-1.8,0.7-3.1,1.1-4.5
		c2.2-5.4,7.4-7.4,11.2-9c3.2-1.4,6.1-3.4,8.3-10.6c1.3-4.3,2.2-10.4,2.9-19.3c0.2-4.1,0.4-8.6,0.4-11v-10.1
		c0-7.6,0.2-15.5,0.2-19.6c0-4.7-0.2-10.3-0.2-15.5c0-4.3,0.2-8.8,0.2-12.4c0-2.2-0.4-5.8-0.4-8.1c-0.2-2.5-0.2-5.2-0.7-6.8
		c-1.3-4.7-3.8-5.6-11.2-7.4l-3.4-0.9c-4.5-1.3-8.5-3.1-8.5-9c0-3.6,1.6-5.9,3.8-7.7c3.2-2.5,6.3-3.6,10.6-3.6
		c1.1,0,2.5-0.2,3.8-0.2c4.7,0,12.6,0.2,18.7,0.2c8.3,0,18.4,0.9,20.7,1.6c3.4,1.1,7,2.7,8.5,4.9c0.7,0.9,1.3,1.1,2,2.2
		c0.9,1.4,1.6,4.1,3.1,7.4c4.3,9.2,10.8,23.8,13,31.5l2.7,7.2c2.5,6.3,5.8,14.6,8.3,20c1.3,3.1,3.8,7.6,4.7,10.3
		c0.7,2.5,1.3,4.1,2,4.1s1.6-0.9,2.5-3.8c0.7-1.8,2-4.3,3.2-6.8c1.8-4.1,3.1-8.3,4.3-11.2c6.1-15.8,10.8-29.9,17.5-43.9
		c1.3-2.9,2.9-5.6,4.5-8.5c1.1-2,2-4.3,3.8-6.8c4.5-7.2,13-8.8,25.6-8.8c5.6,0,10.1,0.2,13.9,0.2c3.4,0,6.3-0.2,8.5-0.2
		c6.7,0,9.2,1.1,11.5,3.1C1413.2,701.6,1414.3,705,1414.3,708.6z"/>
	<path class="st8" d="M1543.2,859.8c-1.3,0.2-3.1,0.4-4.7,0.4c-5.4,0-11.2-1.8-15.3-6.1c-4.3-4.5-6.1-8.3-7.2-8.3
		c-0.9,0-7.9,5.4-13.9,9c-6.3,3.8-13.5,7.6-24.1,7.6c-9.4,0-18-1.8-23.4-4.9c-5.8-3.4-15.5-10.4-15.5-27.7c0-4.9,0-10.1,1.8-14.6
		c5.8-13.7,23.6-21.6,46.3-23.4c13-1.1,26.8-3.6,26.8-11c0-2-0.7-6.8-0.7-10.8c-0.2-13.1-12.8-13.9-18.9-13.9s-10.3,2.2-12.4,4.9
		c-5.8,8.3-4.3,19.8-20.5,19.8c-9,0-15.1-6.5-15.1-16.2c0-14.6,14.4-22.3,32.4-25.2c5-0.9,10.1-1.4,18.9-1.4c4.5,0,9,0,13.7,0.7
		c7.4,1.1,14.8,4.1,21.1,11c4.1,4.5,7,9.4,7.7,14.6c0.2,2,1.3,4.1,1.6,6.1c1.1,6.1,1.1,12.1,1.1,16.9c0,2.9-0.2,5.6-0.2,8.1
		c0,2.5,0.2,4.7,0.2,6.3c0,3.6-0.4,7-0.4,14.2c0,8.5,0.2,18.4,3.4,18.4c2,0,4.5-4.3,7.4-7c1.8-1.6,3.6-2.5,6.7-2.5
		c2,0,3.4,0.4,4.7,1.3c2,1.4,3.6,3.4,3.6,6.8c0,5.4-3.4,12.4-8.8,17.5C1554.7,855.3,1548.9,858.6,1543.2,859.8z M1484.3,839.7
		c16,0,29-9,29.7-15.1c0.2-2,0.4-3.6,0.4-5.6s-0.2-4.1-0.2-6.3c0-3.6,0-11-2-11c-2.5,0-8.3,2.7-12.8,3.6c-3.4,0.7-9.9,1.8-16.2,3.6
		c-10.1,2.7-13.5,9-13.5,17.1c0,5.2,2,8.3,4.7,10.8C1476.9,839.1,1480,839.7,1484.3,839.7z"/>
	<path class="st8" d="M1687.2,767.3c-0.7,1.3-1.6,4-2.2,5.2c-3.6,4.9-9,7.2-13.9,7.2c-8.1,0-11.2-10.6-17.1-10.6
		c-5.4,0-9.7,4.3-14.6,9.4c-5.8,6.3-7.9,16.2-7.9,29c0,4.9,0.7,13.9,0.7,18.7c0,2.9,0.2,6.8,0.5,7.9c1.1,7,25.9,3.1,25.9,16.4
		c0,5.9-3.4,9.7-11.7,9.9c-3.8,0-8.8-0.4-13.5-0.4c-9.2,0-20.7,0.9-34.6,1.4h-3.4c-7.4-0.2-11.9-3.8-11.9-9.9
		c0-4.9,3.8-7.4,9.2-10.1c5.4-2.5,7.7-4.7,9.2-9.7c0.7-2.2,1.6-5.6,1.8-9.2c0.2-5.2,0.2-11.2,0.2-17.3c0-5.4-0.2-12.6-0.5-17.3
		c-0.4-8.6-1.6-17.1-3.1-19.6c-0.9-1.4-2-2.5-3.6-3.1c-3.8-1.8-9.2-2-12.6-3.6c-1.8-0.9-3.4-2.7-3.4-5.4c0-0.9,0-1.6,0.5-3.1
		c0.7-2.5,1.6-3.6,3.1-5.2c2.7-2.9,7.2-4.5,12.1-5.6c2-0.4,4.1-0.7,5.2-0.7c2.5,0,4-0.4,5.6-0.4c2.5,0,4.5,0.2,6.8,1.1
		c4,1.6,7,3.6,9,9.7c1.6,4.9,3.1,16.2,4,16c2-0.4,6.8-8.8,11.7-14.8c6.3-7.7,14.6-14.2,24.1-14.2c16.4,0,26.1,9.2,26.1,20.9
		C1688.8,763.3,1688.4,765.1,1687.2,767.3z"/>
	<path class="st8" d="M1763.3,748.4c0,0.7,0,1.3-0.2,2c-0.4,1.4-1.1,2.5-2.2,3.4c-2.2,2-5.2,3.8-6.5,5.6c-1.3,2-3.2,3.6-3.2,7.9
		c0,2.5,0.9,4.9,1.3,7.4c2.5,9.9,7.7,25.4,12.2,34.9l5.8,12.8c2.2,5.2,3.4,7.6,4.3,7.6c1.3,0,2.5-3.1,3.6-5.6
		c5.2-12.4,9.2-23.6,12.8-34.4c1.6-4.7,2.7-10.6,3.6-15.5c0.4-2,1.6-7.2,1.6-9.2c0-2.9-2.2-4.9-6.8-6.3c-5.4-1.8-7-4.3-7.4-8.8
		c0-1.1,0.2-2.2,0.4-3.1c1.4-3.8,4.7-7,8.6-7.2c2.9,0,6.3,0.4,7.6,0.4c5.6,0,9.4-0.4,14.2-0.4c6.7,0,10.8,0.4,14.4,0.4
		c2.9,0,7.4,0.4,9.9,2.2c1.8,1.4,2.5,3.4,2.5,6.5c0,1.4-0.2,2.9-0.7,4.3c-1.6,4.9-9,7.2-14.4,12.6c-6.8,6.8-11.7,30.1-17.3,42.3
		c-1.3,2.7-2.2,5.8-3.4,8.3c-4.5,9.7-7.9,20.9-13,31.5c-2,4-3.1,8.1-5.2,12.1c-2.7,5.2-4.3,11-8.3,17.3c-1.8,2.9-3.4,6.7-5.2,9.4
		c-2,3.2-4.1,6.1-6.1,8.8c-7.2,9-15.5,14.8-29,15.5c-1.3,0-4.3-0.2-6.1-0.5c-8.3-1.6-16.2-5.6-18.7-13c-0.4-1.6-1.1-4.5-1.1-6.5
		c0-1.8,0.7-4.1,0.9-5.2c0.9-4.1,2.9-9,9.4-10.6c1.1-0.2,2.2-0.7,3.4-0.7c1.4,0,2.7,0,4.3,0.5c3.6,0.9,5.6,2.9,7.4,4.9
		c1.8,2,2.9,3.8,4.9,3.8c3.8,0,8.8-7.2,13.7-14.8c1.3-2,3.8-7.4,3.8-9.2c0-3.1-2.2-5.8-6.1-12.4c-3.6-6.3-7.6-12.4-9.9-18
		c-1.8-4.3-3.8-8.6-5.4-12.4c-4.5-10.6-6.7-18.9-8.3-22.9c-6.1-15.3-10.6-22-16.2-28.6c-1.6-1.8-3.4-3.6-5.2-5.4
		c-2.5-2.7-8.1-3.4-8.1-8.8c0-9,7.2-11.2,18.4-11.5c3.8,0,9-0.2,12.8-0.2c7,0,11.7-0.2,19.3-0.2c3.6,0,7.2,0.9,9.2,2.5
		C1761.9,743.7,1763.3,745.7,1763.3,748.4z"/>
</g>
<rect x="2781.5" y="751.8" class="st9" width="494.9" height="178.8"/>
<polygon class="st4" points="3276.4,721.8 2781.5,721.8 2751.5,721.8 2751.5,751.8 2751.5,930.7 2751.5,960.7 2781.5,960.7 
	3276.4,960.7 3306.4,960.7 3306.4,930.7 3306.4,751.8 3306.4,721.8 "/>
<rect x="2781.5" y="751.8" class="st9" width="494.9" height="178.8"/>
<polygon class="st10" points="3276.4,799.8 3276.4,751.8 2781.5,751.8 2781.5,930.7 2811.5,930.7 2811.5,799.8 "/>
<g>
	<rect x="4263.3" y="179.7" class="st11" width="910.3" height="248.7"/>
	<rect x="4263.3" y="179.7" class="st7" width="910.3" height="43"/>
	<g>
		<rect x="4227.5" y="0" class="st12" width="982.9" height="194.9"/>
		<rect x="5039.1" y="0" class="st13" width="171.3" height="194.9"/>
		<rect x="4925" y="0" class="st13" width="62.8" height="194.9"/>
		<g>
			<rect x="4227.5" y="0" class="st14" width="171.3" height="194.9"/>
			<rect x="4450.1" y="0" class="st14" width="62.8" height="194.9"/>
		</g>
	</g>
	<rect x="4263.3" y="509.9" class="st11" width="910.3" height="218.7"/>
	<rect x="4263.3" y="509.9" class="st7" width="910.3" height="43"/>
	<g>
		<rect x="4227.5" y="330.3" class="st12" width="982.9" height="194.9"/>
		<rect x="5039.1" y="330.3" class="st13" width="171.3" height="194.9"/>
		<rect x="4925" y="330.3" class="st13" width="62.8" height="194.9"/>
		<g>
			<rect x="4227.5" y="330.3" class="st14" width="171.3" height="194.9"/>
			<rect x="4450.1" y="330.3" class="st14" width="62.8" height="194.9"/>
		</g>
	</g>
	<rect x="4263.3" y="1203.1" class="st15" width="910.3" height="138"/>
	<rect x="4263.3" y="1099.8" class="st16" width="910.3" height="150"/>
	<rect x="4263.3" y="840.2" class="st11" width="910.3" height="248.7"/>
	<rect x="4263.3" y="840.2" class="st7" width="910.3" height="43"/>
	<rect x="4227.5" y="990.8" class="st12" width="982.9" height="237"/>
	<rect x="5039.1" y="990.8" class="st13" width="171.3" height="237"/>
	<rect x="4925" y="990.8" class="st13" width="62.8" height="237"/>
	<g>
		<rect x="4227.5" y="990.8" class="st14" width="171.3" height="237"/>
		<rect x="4450.1" y="990.8" class="st14" width="62.8" height="237"/>
	</g>
	<g>
		<rect x="4227.5" y="660.5" class="st12" width="982.9" height="194.9"/>
		<rect x="5039.1" y="660.5" class="st13" width="171.3" height="194.9"/>
		<rect x="4925" y="660.5" class="st13" width="62.8" height="194.9"/>
		<g>
			<rect x="4227.5" y="660.5" class="st14" width="171.3" height="194.9"/>
			<rect x="4450.1" y="660.5" class="st14" width="62.8" height="194.9"/>
		</g>
	</g>
	<path class="st17" d="M5279,1425.5H4157.8c-17,0-31-13.9-31-31l0,0c0-17,13.9-31,31-31H5279c17,0,31,13.9,31,31l0,0
		C5310,1411.5,5296.1,1425.5,5279,1425.5z"/>
	<rect x="4227.5" y="1304.6" class="st12" width="981.8" height="82.2"/>
	<path class="st5" d="M4801.1,1190.5h-164.3c-12.5,0-22.7-10.2-22.7-22.7l0,0c0-12.5,10.2-22.7,22.7-22.7h164.3
		c12.5,0,22.7,10.2,22.7,22.7l0,0C4823.8,1180.3,4813.6,1190.5,4801.1,1190.5z"/>
</g>
</svg>
