<?xml version="1.0" encoding="utf-8"?>
<!-- Generator: Adobe Illustrator 22.0.1, SVG Export Plug-In . SVG Version: 6.00 Build 0)  -->
<svg version="1.1" id="Layer_1" xmlns="http://www.w3.org/2000/svg" xmlns:xlink="http://www.w3.org/1999/xlink" x="0px" y="0px"
	 viewBox="0 0 1885 1898.6" style="enable-background:new 0 0 1885 1898.6;" xml:space="preserve">
<style type="text/css">
	.st0{fill:#384261;}
	.st1{fill:#6A7493;}
	.st2{fill:#CDE0DE;}
	.st3{fill:#1C283E;}
	.st4{fill:#574D5E;}
	.st5{fill:#FFFFFF;}
	.st6{fill:#4C4C65;}
	.st7{fill:#DB5253;}
	.st8{fill:#BD3435;}
	.st9{clip-path:url(#SVGID_2_);}
	.st10{fill:#8E6134;}
	.st11{clip-path:url(#SVGID_4_);}
	.st12{clip-path:url(#SVGID_6_);}
	.st13{clip-path:url(#SVGID_8_);}
	.st14{fill:#7A4D20;}
	.st15{fill:#B47943;}
	.st16{fill:#32150B;}
	.st17{clip-path:url(#SVGID_10_);}
	.st18{fill:#54291C;}
	.st19{fill:#693629;}
	.st20{fill:#F49D73;}
	.st21{fill:#EA9369;}
	.st22{fill:#F9B086;}
	.st23{fill:none;stroke:#422B27;stroke-width:16.0272;stroke-linecap:round;stroke-miterlimit:10;}
	.st24{fill:none;stroke:#F38486;stroke-width:19.6173;stroke-linecap:round;stroke-miterlimit:10;}
	.st25{fill:none;stroke:#E1775A;stroke-width:11.219;stroke-linecap:round;stroke-miterlimit:10;}
	.st26{fill:#422B27;}
	.st27{fill:#F49369;}
	.st28{fill:#8AB6C5;}
	.st29{fill:none;stroke:#8AB6C5;stroke-width:22.3872;stroke-miterlimit:10;}
</style>
<path class="st0" d="M644,1559c0,11.5,9.4,20.8,20.8,20.8h616.6c11.5,0,20.8-9.4,20.8-20.8v-101.7c0-11.5-9.4-20.8-20.8-20.8H664.8
	c-11.5,0-20.8,9.4-20.8,20.8L644,1559L644,1559z"/>
<path class="st1" d="M1302.6,1422.1v101.6c0,11.5-9.4,20.9-20.9,20.9H665c-11.4,0-20.8-9.4-20.8-20.9v-101.6
	c0-11.5,9.4-20.9,20.8-20.9h616.7C1293.2,1401.2,1302.6,1410.6,1302.6,1422.1z"/>
<path class="st1" d="M455.6,494.8v706.7c0,3.3,0.5,6.6,1.4,9.6c4.2,14.5,17.5,25.1,33.3,25.1h966.2c19.2,0,34.6-15.5,34.6-34.6
	V494.8c0-19.1-15.5-34.6-34.6-34.6H490.3C471.1,460.2,455.6,475.7,455.6,494.8z"/>
<path class="st0" d="M1491.1,529.8v728.9c0,19.1-15.5,34.6-34.6,34.6H490.3c-19.1,0-34.6-17.8-34.6-36.9V529.8
	c0-19.1,15.5-34.6,34.6-34.6h966.2C1475.6,495.1,1491.1,510.7,1491.1,529.8z"/>
<rect x="503.1" y="544.1" class="st2" width="940.5" height="674.7"/>
<path class="st3" d="M1442.1,544.2v656.3H504.6V544.2H1442.1 M1456.5,522.9H490.3c-3.8,0-6.9,3.1-6.9,6.9v692h980.1v-692
	C1463.4,526,1460.3,522.9,1456.5,522.9L1456.5,522.9z"/>
<path class="st4" d="M790.8,1464.7c0,6.4,5.2,11.6,11.6,11.6h342.1c6.4,0,11.6-5.2,11.6-11.6v-112.4c0-6.4-5.2-11.6-11.6-11.6H802.3
	c-6.4,0-11.6,5.2-11.6,11.6L790.8,1464.7L790.8,1464.7z"/>
<path class="st0" d="M790.8,1465.7c0,6.4,5.2,11.6,11.6,11.6h342.1c6.4,0,11.6-5.2,11.6-11.6v-112.4c0-6.4-5.2-11.6-11.6-11.6H802.3
	c-6.4,0-11.6,5.2-11.6,11.6L790.8,1465.7L790.8,1465.7z"/>
<rect x="504.5" y="544.1" class="st5" width="937.6" height="46.3"/>
<path class="st6" d="M540.6,568.1c0,6.5-5.3,11.7-11.7,11.7c-6.5,0-11.7-5.2-11.7-11.7s5.2-11.7,11.7-11.7
	C535.3,556.4,540.6,561.6,540.6,568.1z"/>
<path class="st1" d="M1491.1,1256.3v69.4c0,19.1-15.5,34.6-34.6,34.6H490.3c-19.1,0-34.6-15.5-34.6-34.6v-69.4H1491.1z"/>
<g>
	<circle class="st7" cx="192.3" cy="919.8" r="192.3"/>
	<g>
		<path class="st8" d="M286.5,991.3v52H126.6v-52H180V874.7l-53.4,19.2V836l68.1-25.5h46.8v180.8H286.5z"/>
	</g>
	<g>
		<path class="st5" d="M272.3,977v52H112.4v-52h53.4V860.4l-53.4,19.2v-57.9l68.1-25.5h46.8V977H272.3z"/>
	</g>
</g>
<g>
	<g>
		<defs>
			<circle id="SVGID_1_" cx="384.6" cy="351.7" r="351.7"/>
		</defs>
		<clipPath id="SVGID_2_">
			<use xlink:href="#SVGID_1_"  style="overflow:visible;"/>
		</clipPath>
		<g class="st9">
			<rect x="206.6" y="667.9" class="st10" width="83.5" height="128.8"/>
			<rect x="213.2" y="667.9" class="st3" width="83.5" height="128.8"/>
			<rect x="219.8" y="674.5" class="st0" width="76.9" height="122.2"/>
		</g>
	</g>
	<g>
		<defs>
			<circle id="SVGID_3_" cx="384.6" cy="351.7" r="351.7"/>
		</defs>
		<clipPath id="SVGID_4_">
			<use xlink:href="#SVGID_3_"  style="overflow:visible;"/>
		</clipPath>
		<g class="st11">
			<rect x="334.2" y="667.9" class="st10" width="83.5" height="128.8"/>
			<rect x="340.8" y="667.9" class="st3" width="83.5" height="128.8"/>
			<rect x="347.4" y="674.5" class="st0" width="76.9" height="122.2"/>
		</g>
	</g>
	<g>
		<defs>
			<circle id="SVGID_5_" cx="384.6" cy="351.7" r="351.7"/>
		</defs>
		<clipPath id="SVGID_6_">
			<use xlink:href="#SVGID_5_"  style="overflow:visible;"/>
		</clipPath>
		<g class="st12">
			<rect x="461.8" y="667.9" class="st10" width="83.5" height="128.8"/>
			<rect x="468.4" y="667.9" class="st3" width="83.5" height="128.8"/>
			<rect x="475" y="674.5" class="st0" width="76.9" height="122.2"/>
		</g>
	</g>
	<g>
		<defs>
			<circle id="SVGID_7_" cx="384.6" cy="351.7" r="351.7"/>
		</defs>
		<clipPath id="SVGID_8_">
			<use xlink:href="#SVGID_7_"  style="overflow:visible;"/>
		</clipPath>
		<g class="st13">
			<circle class="st5" cx="384.6" cy="351.7" r="351.7"/>
			<g>
				<rect x="287.7" y="229.3" class="st14" width="47.2" height="46.1"/>
				<rect x="434.3" y="229.3" class="st14" width="47.2" height="46.1"/>
			</g>
			<rect x="167.9" y="308.1" class="st15" width="433.4" height="556.2"/>
			<rect x="145.9" y="266.3" class="st15" width="477.4" height="41.8"/>
			<rect x="167.9" y="308.1" class="st10" width="433.4" height="15"/>
			<g>
				<rect x="206.6" y="351.2" class="st10" width="83.5" height="128.8"/>
				<rect x="213.2" y="351.2" class="st3" width="83.5" height="128.8"/>
				<rect x="219.8" y="357.8" class="st0" width="76.9" height="122.2"/>
			</g>
			<g>
				<rect x="334.2" y="351.2" class="st10" width="83.5" height="128.8"/>
				<rect x="340.8" y="351.2" class="st3" width="83.5" height="128.8"/>
				<rect x="347.4" y="357.8" class="st0" width="76.9" height="122.2"/>
			</g>
			<g>
				<rect x="461.8" y="351.2" class="st10" width="83.5" height="128.8"/>
				<rect x="468.4" y="351.2" class="st3" width="83.5" height="128.8"/>
				<rect x="475" y="357.8" class="st0" width="76.9" height="122.2"/>
			</g>
			<g>
				<rect x="206.6" y="509.6" class="st10" width="83.5" height="128.8"/>
				<rect x="213.2" y="509.6" class="st3" width="83.5" height="128.8"/>
				<rect x="219.8" y="516.2" class="st0" width="76.9" height="122.2"/>
			</g>
			<g>
				<rect x="334.2" y="509.6" class="st10" width="83.5" height="128.8"/>
				<rect x="340.8" y="509.6" class="st3" width="83.5" height="128.8"/>
				<rect x="347.4" y="516.2" class="st0" width="76.9" height="122.2"/>
			</g>
			<g>
				<rect x="461.8" y="509.6" class="st10" width="83.5" height="128.8"/>
				<rect x="468.4" y="509.6" class="st3" width="83.5" height="128.8"/>
				<rect x="475" y="516.2" class="st0" width="76.9" height="122.2"/>
			</g>
			<g>
				<rect x="164.8" y="125.9" class="st10" width="439.7" height="114.5"/>
				<g>
					<g>
						<path class="st16" d="M196.9,163h18.4c9,0,14.6,5.5,14.6,13c0,5.1-2.6,9.2-6.9,11.4c5,2.2,8,6.8,8,12.5
							c0,8.1-6.3,14.4-15.8,14.4H197V163H196.9z M207.3,184.2h5.6c4.1,0,6.7-2.8,6.7-6.6c0-3.9-2.5-6.5-6.5-6.5h-5.7v13.1H207.3z
							 M207.3,206.3h6c4.5,0,7.3-3.2,7.3-7.4s-2.8-7.2-7.3-7.2h-6.1v14.6H207.3z"/>
						<path class="st16" d="M260.9,195.4h10v2.6c0,10.4-7,17-16.6,17c-9.9,0-16.8-6.4-16.8-16.8v-19c0-10.4,7.2-16.9,17-16.9
							c9.7,0,16.4,6.3,16.4,16.7v2.1h-10v-2.2c0-4.7-2.5-7.5-6.5-7.5s-6.4,2.8-6.4,7.5v19.4c0,4.8,2.5,7.5,6.4,7.5
							c4,0,6.5-2.7,6.5-7.5V195.4z"/>
						<path class="st16" d="M319.9,214.3l-6.9-18.7c-0.3,0.1-1.5,0.1-1.8,0.1h-3.8v18.6h-10.3V163h16.2c10.2,0,17.1,6.9,17.1,16.3
							c0,5.9-3.1,10.9-7.9,13.6l9,21.5h-11.6V214.3z M307.5,187.7h4.7c4.8,0,7.9-3.4,7.9-7.9s-3-7.9-7.8-7.9h-4.8L307.5,187.7
							L307.5,187.7z"/>
						<path class="st16" d="M337.4,214.3V163h27.8v9.2h-17.4v11.4h14.5v8.6h-14.5v13h17.8v9.2L337.4,214.3L337.4,214.3z"/>
						<path class="st16" d="M370.4,197.9v-18.3c0-10.6,7.3-17.3,17.4-17.3s17.1,6.4,17.1,17.1v1.1h-10.3v-1.2c0-4.9-2.6-7.8-6.9-7.8
							c-4.2,0-6.8,2.9-6.8,7.8v18.4c0,5.5,2.7,8.4,7.1,8.4s7.2-2.9,7.2-8.4V194h-7.3v-7.5h17v11.1c0,10.6-7.3,17.4-17.3,17.4
							C377.4,215,370.4,208.5,370.4,197.9z"/>
						<path class="st16" d="M413.3,163H424v51.3h-10.7V163z"/>
						<path class="st16" d="M432.2,175.9c0-8.1,6.7-13.6,15.1-13.6c12.8,0,15.6,11.1,15.6,11.1l-8.4,3.4c0,0-1.8-5.9-7-5.9
							c-2.8,0-5,1.8-5,4.5c0,3.5,2.7,5.7,7.8,8.8c6.5,4,11.9,8.9,11.9,16.3c0,9.2-7,14.6-15.8,14.6c-13.3,0-16.7-12.7-16.7-12.7
							l8.4-3.4c0,0,2.6,7.5,8.2,7.5c3.4,0,5.6-2.1,5.6-5.3c0-3.9-3.1-6.2-8.6-9.5C437,187.7,432.2,182.6,432.2,175.9z"/>
						<path class="st16" d="M487,172.4v41.9h-10.4v-41.9h-10.8V163h31.9v9.4H487z"/>
						<path class="st16" d="M526,214.3l-6.9-18.7c-0.3,0.1-1.5,0.1-1.8,0.1h-3.8v18.6h-10.3V163h16.2c10.2,0,17.1,6.9,17.1,16.3
							c0,5.9-3.1,10.9-7.9,13.6l9,21.5H526V214.3z M513.6,187.7h4.7c4.8,0,7.9-3.4,7.9-7.9s-3-7.9-7.8-7.9h-4.8L513.6,187.7
							L513.6,187.7z"/>
						<path class="st16" d="M552.1,195.3L537.3,163h11.6l8.6,21.8l8.7-21.8h11l-14.8,32.2v19h-10.3V195.3z"/>
					</g>
					<g>
						<path class="st5" d="M192,158.1h18.4c9,0,14.6,5.5,14.6,13c0,5.1-2.6,9.2-6.9,11.4c5,2.2,8,6.8,8,12.5
							c0,8.1-6.3,14.4-15.8,14.4H192V158.1z M202.4,179.3h5.6c4.1,0,6.7-2.8,6.7-6.6c0-3.9-2.5-6.5-6.5-6.5h-5.7v13.1H202.4z
							 M202.4,201.4h6c4.5,0,7.3-3.2,7.3-7.4s-2.8-7.2-7.3-7.2h-6.1v14.6H202.4z"/>
						<path class="st5" d="M256.1,190.5h10v2.6c0,10.4-7,17-16.6,17c-9.9,0-16.8-6.4-16.8-16.8v-19c0-10.4,7.2-16.9,17-16.9
							c9.7,0,16.4,6.3,16.4,16.7v2.1h-10V174c0-4.7-2.5-7.5-6.5-7.5s-6.4,2.8-6.4,7.5v19.4c0,4.8,2.5,7.5,6.4,7.5
							c4,0,6.5-2.7,6.5-7.5V190.5z"/>
						<path class="st5" d="M315,209.4l-6.9-18.7c-0.3,0.1-1.5,0.1-1.8,0.1h-3.8v18.6h-10.3v-51.3h16.2c10.2,0,17.1,6.9,17.1,16.3
							c0,5.9-3.1,10.9-7.9,13.6l9,21.5H315V209.4z M302.6,182.8h4.7c4.8,0,7.9-3.4,7.9-7.9s-3-7.9-7.8-7.9h-4.8L302.6,182.8
							L302.6,182.8z"/>
						<path class="st5" d="M332.5,209.4v-51.3h27.8v9.2H343v11.4h14.5v8.6H343v13h17.8v9.2L332.5,209.4L332.5,209.4z"/>
						<path class="st5" d="M365.5,193v-18.3c0-10.6,7.3-17.3,17.4-17.3s17.1,6.4,17.1,17.1v1.1h-10.3v-1.2c0-4.9-2.6-7.8-6.9-7.8
							c-4.2,0-6.8,2.9-6.8,7.8v18.4c0,5.5,2.7,8.4,7.1,8.4s7.2-2.9,7.2-8.4v-3.7H383v-7.5h17v11.1c0,10.6-7.3,17.4-17.3,17.4
							C372.6,210.2,365.5,203.6,365.5,193z"/>
						<path class="st5" d="M408.4,158.1h10.7v51.3h-10.7V158.1z"/>
						<path class="st5" d="M427.4,171c0-8.1,6.7-13.6,15.1-13.6c12.8,0,15.6,11.1,15.6,11.1l-8.4,3.4c0,0-1.8-5.9-7-5.9
							c-2.8,0-5,1.8-5,4.5c0,3.5,2.7,5.7,7.8,8.8c6.5,4,11.9,8.9,11.9,16.3c0,9.2-7,14.6-15.8,14.6c-13.3,0-16.7-12.7-16.7-12.7
							l8.4-3.4c0,0,2.6,7.5,8.2,7.5c3.4,0,5.6-2.1,5.6-5.3c0-3.9-3.1-6.2-8.6-9.5C432.1,182.8,427.4,177.7,427.4,171z"/>
						<path class="st5" d="M482.2,167.5v41.9h-10.4v-41.9H461v-9.4h31.9v9.4H482.2z"/>
						<path class="st5" d="M521.1,209.4l-6.9-18.7c-0.3,0.1-1.5,0.1-1.8,0.1h-3.8v18.6h-10.3v-51.3h16.2c10.2,0,17.1,6.9,17.1,16.3
							c0,5.9-3.1,10.9-7.9,13.6l9,21.5h-11.6V209.4z M508.7,182.8h4.7c4.8,0,7.9-3.4,7.9-7.9s-3-7.9-7.8-7.9h-4.8L508.7,182.8
							L508.7,182.8z"/>
						<path class="st5" d="M547.2,190.4l-14.8-32.2H544l8.6,21.8l8.7-21.8h11l-14.8,32.2v19h-10.3V190.4z"/>
					</g>
				</g>
			</g>
		</g>
	</g>
</g>
<g>
	<g>
		<defs>
			<path id="SVGID_9_" d="M1885,1545.1c0,195.2-158.3,353.5-353.5,353.5S1178,1740.3,1178,1545.1s158.3-353.5,353.5-353.5
				S1885,1349.9,1885,1545.1"/>
		</defs>
		<clipPath id="SVGID_10_">
			<use xlink:href="#SVGID_9_"  style="overflow:visible;"/>
		</clipPath>
		<g class="st17">
			<path class="st5" d="M1948.1,1965.6h-808.5c-19,0-34.5-15.5-34.5-34.5v-728.3c0-19,15.5-34.5,34.5-34.5h808.5
				c19,0,34.5,15.5,34.5,34.5v728.3C1982.6,1950.1,1967.1,1965.6,1948.1,1965.6z"/>
			<ellipse class="st18" cx="1531.4" cy="1258" rx="69.6" ry="45.3"/>
			<path class="st19" d="M1677.9,1516.6c14.1-43.8,20.6-165.8-14.1-220.7c-34.6-54.8-82.8-65.4-132.4-65.4s-97.8,10.6-132.4,65.4
				s-28.1,176.9-14.1,220.7"/>
			<path class="st20" d="M1422.4,1516.6c2.3,26.3,1,55.2-16.7,56.8c-17.7,1.6-45.3-24.8-47.5-51.2c-2.9-35.4,10.2-48.9,27.9-50.5
				S1420.1,1490.2,1422.4,1516.6z"/>
			<path class="st19" d="M1399.6,1510.8c-12.6-2.4-20.8-19.3-24.4-46.3c-2.2-25.8,2.2-85.2,48.1-98.3
				C1469.3,1353.1,1399.6,1510.8,1399.6,1510.8z"/>
			<path class="st18" d="M1608.8,1574c63.5,30.9,32.6,147.7,79,180.3c-17.2,13.7-103-12-125.4-60.1
				C1540.1,1646.1,1608.8,1574,1608.8,1574z"/>
			<path class="st20" d="M1641,1516.6c-2.3,26.3-1,55.2,16.7,56.8s45.3-24.8,47.5-51.2c2.9-35.4-10.2-48.9-27.9-50.5
				S1643.3,1490.2,1641,1516.6z"/>
			<path class="st1" d="M1622.1,1738.2c0,17.1-40.6,31.4-90.7,31.4s-90.4-12.5-90.7-31.4c-0.1-3.2,40.6-5.8,90.7-5.8
				S1622.1,1735,1622.1,1738.2z"/>
			<rect x="1459.5" y="1639.4" class="st20" width="144" height="151.9"/>
			<path class="st21" d="M1459.5,1639.4v34.8c24.1,34.4,70.3,62.1,144,63.9v-98.7L1459.5,1639.4L1459.5,1639.4z"/>
			<path class="st0" d="M1402.9,1790.1"/>
			<path class="st0" d="M1791.7,1827.6c-19.9-15.7-119.5-52.9-159.9-55.1h-200.6c-40.4,2.2-140,39.4-159.9,55.1
				s-28.5,31.4-28.5,60.4v201.4c37.9,28.4,233.7,45,288.7,45.5c55-0.5,250.8-17.1,288.7-45.5V1888
				C1820.2,1859,1811.6,1843.3,1791.7,1827.6z"/>
			<polygon class="st3" points="1548.7,1901 1514.2,1901 1514.2,1760.1 1531.4,1758.5 1548.7,1760.1 			"/>
			<g>
				<circle class="st0" cx="1531.6" cy="1796" r="10.3"/>
			</g>
			<g>
				<circle class="st0" cx="1531.6" cy="1855.9" r="10.3"/>
			</g>
			<path class="st22" d="M1531.5,1711L1531.5,1711c40.1-0.4,117.8-55.4,133.9-178.6c3.3-24.9,7.8-65.3,7.7-88.1
				c-0.4-70.6-63.4-129.8-141.6-129.8l0,0c-78.2,0-141.2,59.3-141.6,129.8c-0.1,22.9,4.4,63.2,7.7,88.1
				C1413.7,1655.6,1492.3,1712.2,1531.5,1711L1531.5,1711z"/>
			<g>
				<line class="st23" x1="1625.2" y1="1447.5" x2="1581.7" y2="1440.3"/>
				<line class="st23" x1="1436.2" y1="1447.5" x2="1479.8" y2="1440.3"/>
			</g>
			<line class="st24" x1="1520.3" y1="1631.3" x2="1542.7" y2="1631.3"/>
			<line class="st25" x1="1502.4" y1="1624.8" x2="1560.5" y2="1624.8"/>
			<g>
				<path class="st26" d="M1604.2,1490.6c0,9.4-7.7,17.1-17.1,17.1s-17.1-7.5-17.1-16.9s7.7-17.1,17.1-17.1
					S1604.2,1481.2,1604.2,1490.6z"/>
				<path class="st26" d="M1493,1490.6c0,9.4-7.7,17.1-17.1,17.1s-17.1-7.5-17.1-16.9s7.7-17.1,17.1-17.1S1493,1481.2,1493,1490.6z"
					/>
			</g>
			<path class="st27" d="M1531.5,1586.5c17.2,0,28.1-16.1,26-22.3c-2.1-6.4-9.9,7.1-26,7.6c-16.1-0.5-23.9-13.9-26-7.6
				C1503.4,1570.4,1514.3,1586.5,1531.5,1586.5L1531.5,1586.5z"/>
			<path class="st19" d="M1531.5,1305.9c-61,0-125.3,29.9-123.9,119.7c33.6-9.7,76.8-15.5,123.9-15.5s90.3,5.8,123.9,15.5
				C1656.8,1335.9,1592.5,1305.9,1531.5,1305.9z"/>
			<g>
				<path class="st19" d="M1389.9,1454.1c-0.6-30.9,14.5-59,34.4-66.3l2.7-47.8l-42.5,41.2l-2.7,68.4L1389.9,1454.1z"/>
				<path class="st19" d="M1673,1454.1c0.6-30.9-14.5-59-34.4-66.3l-2.7-47.8l42.5,41.2l2.7,68.4L1673,1454.1z"/>
			</g>
			<g>
				<ellipse class="st5" cx="1681.2" cy="1560.2" rx="14.3" ry="14.6"/>
				<ellipse class="st5" cx="1381.8" cy="1560.2" rx="14.3" ry="14.6"/>
			</g>
			<path class="st3" d="M1440.8,1738.2c-12.5,12.7-21.4,36.8-21.4,36.8c4.1,12.4,56.4,31.6,56.4,31.6l55.6-48.2
				C1501.8,1758.4,1441.4,1747,1440.8,1738.2z"/>
			<path class="st3" d="M1622.1,1738.2c12.5,12.7,21.4,36.8,21.4,36.8c-4.1,12.4-56.4,31.6-56.4,31.6l-55.6-48.2
				C1561.1,1758.4,1621.5,1747,1622.1,1738.2z"/>
		</g>
	</g>
</g>
<path class="st5" d="M1314.8,1120.5h-310.5c-25.2,0-45.8-20.6-45.8-45.8V696.1c0-25.2,20.6-45.8,45.8-45.8h310.5
	c25.2,0,45.8,20.6,45.8,45.8v378.6C1360.6,1099.9,1340,1120.5,1314.8,1120.5z"/>
<rect x="991.8" y="686.7" class="st28" width="131.4" height="141"/>
<path class="st5" d="M1114,816.6c-0.1-8.8-8.8-13.3-14.1-14.4c-3.7-0.7-20.3-4.4-29.9-6.5v-1.4c0-2.9,0.2-5.5,0.6-7.8
	c2.6-2.5,5-5.6,6.8-9.1c1.3-2.4,2.4-5.3,3.4-8.2c1.7,0.2,4.1,0.3,6,0.1c1.4-0.2,2.8-0.7,3.8-2.4c1.1-1.7,2.9-6.9,3.3-10.6
	c0.4-4.1-1.8-6.8-4.6-6.8c-0.5,0-1,0-1.4,0.1c1.1-3.1,2-6.6,2.1-10.2c0.1-12.8-1-21.6-7.3-27.6c-6.3-6.1-16.8-8-25.3-8.1
	c-8.5,0.1-19,2.1-25.3,8.1c-6.2,6-7.4,14.8-7.3,27.6c0,3.6,0.9,7.1,2.1,10.2c-0.5,0-0.9-0.1-1.4-0.1c-2.7,0.1-5,2.7-4.6,6.8
	c0.4,3.7,2.3,8.9,3.3,10.6c1.1,1.7,2.4,2.3,3.8,2.4c1.9,0.2,4.3,0.1,6-0.1c1,2.9,2.2,5.8,3.4,8.2c1.9,3.6,4.2,6.7,6.8,9.1
	c0.3,2.3,0.6,4.9,0.6,7.8v1.5c-7.9,1.7-25.7,5.5-29.9,6.3c-5.2,1-14,5.5-14.1,14.4v11.1h113L1114,816.6z"/>
<line class="st29" x1="1152.6" y1="710.1" x2="1317.5" y2="710.1"/>
<line class="st29" x1="1152.6" y1="757.2" x2="1292" y2="757.2"/>
<line class="st29" x1="1152.6" y1="804.3" x2="1241.1" y2="804.3"/>
<polygon class="st0" points="1200.6,981.2 1039.9,910.8 1039.9,966 694.3,966 694.3,996.5 1039.9,996.5 1039.9,1051.6 "/>
<polygon class="st7" points="690.4,874.3 710.3,894.1 736.8,884.9 746.1,911.3 774,914.6 770.9,942.4 794.6,957.4 779.7,981.2 
	794.6,1005 770.9,1020 774,1047.9 746.1,1051.1 736.8,1077.5 710.3,1068.3 690.4,1088.1 670.5,1068.3 644,1077.5 634.7,1051.1 
	606.8,1047.9 609.9,1020 586.2,1005 601,981.2 586.2,957.4 609.9,942.4 606.8,914.6 634.7,911.3 644,884.9 670.5,894.1 "/>
</svg>
