<?xml version="1.0" encoding="utf-8"?>
<!-- Generator: Adobe Illustrator 22.0.1, SVG Export Plug-In . SVG Version: 6.00 Build 0)  -->
<svg version="1.1" id="Layer_1" xmlns="http://www.w3.org/2000/svg" xmlns:xlink="http://www.w3.org/1999/xlink" x="0px" y="0px"
	 viewBox="0 0 1869.8 1898.9" style="enable-background:new 0 0 1869.8 1898.9;" xml:space="preserve">
<style type="text/css">
	.st0{fill:#DB5253;}
	.st1{fill:#BD3435;}
	.st2{fill:#FFFFFF;}
	.st3{fill:#384261;}
	.st4{fill:#6A7493;}
	.st5{fill:#CDE0DE;}
	.st6{fill:#1C283E;}
	.st7{fill:#574D5E;}
	.st8{fill:#4C4C65;}
	.st9{fill:none;stroke:#384261;stroke-width:15.9;stroke-miterlimit:10;stroke-dasharray:31.8,31.8;}
	.st10{fill:#8AB6C5;}
	.st11{fill:none;stroke:#8AB6C5;stroke-width:22.3872;stroke-miterlimit:10;}
	.st12{clip-path:url(#SVGID_2_);}
	.st13{fill:#54291C;}
	.st14{fill:#693629;}
	.st15{fill:#F49D73;}
	.st16{fill:#EA9369;}
	.st17{fill:#F9B086;}
	.st18{fill:none;stroke:#422B27;stroke-width:16.0272;stroke-linecap:round;stroke-miterlimit:10;}
	.st19{fill:none;stroke:#F38486;stroke-width:19.6173;stroke-linecap:round;stroke-miterlimit:10;}
	.st20{fill:none;stroke:#E1775A;stroke-width:11.219;stroke-linecap:round;stroke-miterlimit:10;}
	.st21{fill:#422B27;}
	.st22{fill:#F49369;}
	.st23{fill:#B1452D;}
	.st24{clip-path:url(#SVGID_4_);}
	.st25{fill:#D2E4D4;}
	.st26{fill:#8BA382;}
	.st27{fill:#5E796C;}
	.st28{fill:#B4C6B6;}
	.st29{fill:#AABCAC;}
	.st30{fill:#4A6558;}
</style>
<g>
	<circle class="st0" cx="192.3" cy="925.1" r="192.3"/>
	<g>
		<path class="st1" d="M113.6,1011.7c0-35.3,4.5-49.2,20.6-63.2c8.4-7.3,17.1-11.9,37.3-20.6l46.1-19.5c15-6.3,19.6-11.5,19.6-23.7
			c0-19.9-0.7-20.2-25.5-20.2c-22.3,0-25.5,1-28.6,3.5c-3.5,2.8-4.9,8-5.6,33.9h-60c0-34.6,0.3-66,31.1-79.9
			c13.3-5.9,32.1-8.4,60-8.4c31.4,0,47.5,2.8,61.1,11.2c18.5,11.5,28.6,32.8,28.6,60.4c0,31.8-18.8,56.2-55.2,71.9l-47.1,19.5
			c-15,6.6-20.9,11.9-20.9,18.5v4.2h124.6v52H113.6V1011.7z"/>
	</g>
	<g>
		<path class="st2" d="M99.3,997.4c0-35.3,4.5-49.2,20.6-63.2c8.4-7.3,17.1-11.9,37.3-20.6l46.1-19.5c15-6.3,19.6-11.5,19.6-23.7
			c0-19.9-0.7-20.2-25.5-20.2c-22.3,0-25.5,1-28.6,3.5c-3.5,2.8-4.9,8-5.6,33.9h-60c0-34.6,0.3-66,31.1-79.9
			c13.3-5.9,32.1-8.4,60-8.4c31.4,0,47.5,2.8,61.1,11.2c18.5,11.5,28.6,32.8,28.6,60.4c0,31.8-18.8,56.2-55.2,71.9l-47.1,19.5
			c-15,6.6-20.9,11.9-20.9,18.5v4.2h124.6v52H99.3V997.4z"/>
	</g>
</g>
<g>
	<path class="st3" d="M628.3,1564.4c0,11.5,9.4,20.8,20.8,20.8l616.6,0c11.5,0,20.8-9.4,20.8-20.8v-101.7c0-11.5-9.4-20.8-20.8-20.8
		l-616.6,0c-11.5,0-20.8,9.4-20.8,20.8V1564.4z"/>
	<path class="st4" d="M1286.8,1427.5v101.6c0,11.5-9.4,20.9-20.9,20.9H649.3c-11.4,0-20.8-9.4-20.8-20.9v-101.6
		c0-11.5,9.4-20.9,20.8-20.9H1266C1277.4,1406.6,1286.8,1416,1286.8,1427.5z"/>
	<path class="st4" d="M439.9,500.2V1207c0,3.3,0.5,6.6,1.4,9.6c4.2,14.5,17.5,25.1,33.3,25.1l966.2,0c19.2,0,34.6-15.5,34.6-34.6
		V500.2c0-19.1-15.5-34.6-34.6-34.6l-966.2,0C455.4,465.6,439.9,481.1,439.9,500.2z"/>
	<path class="st3" d="M1475.4,535.1V1264c0,19.1-15.5,34.6-34.6,34.6H474.6c-19.1,0-34.6-17.8-34.6-36.9V535.1
		c0-19.1,15.5-34.6,34.6-34.6h966.2C1459.9,500.5,1475.4,516.1,1475.4,535.1z"/>
	<rect x="487.4" y="549.5" class="st5" width="940.5" height="674.7"/>
	<g>
		<path class="st6" d="M1426.4,549.6v656.3H488.9V549.6H1426.4 M1440.8,528.2H474.5c-3.8,0-6.9,3.1-6.9,6.9v692h980.1v-692
			C1447.7,531.4,1444.6,528.2,1440.8,528.2L1440.8,528.2z"/>
	</g>
	<path class="st7" d="M775,1470.1c0,6.4,5.2,11.6,11.6,11.6h342.1c6.4,0,11.6-5.2,11.6-11.6v-112.4c0-6.4-5.2-11.6-11.6-11.6H786.6
		c-6.4,0-11.6,5.2-11.6,11.6V1470.1z"/>
	<path class="st3" d="M775,1471.1c0,6.4,5.2,11.6,11.6,11.6h342.1c6.4,0,11.6-5.2,11.6-11.6v-112.4c0-6.4-5.2-11.6-11.6-11.6H786.6
		c-6.4,0-11.6,5.2-11.6,11.6V1471.1z"/>
	<rect x="488.8" y="549.5" class="st2" width="937.6" height="46.3"/>
	<path class="st8" d="M524.8,573.5c0,6.5-5.3,11.7-11.7,11.7c-6.5,0-11.7-5.2-11.7-11.7c0-6.5,5.2-11.7,11.7-11.7
		C519.6,561.8,524.8,567,524.8,573.5z"/>
	<path class="st4" d="M1475.4,1261.7v69.4c0,19.1-15.5,34.6-34.6,34.6H474.6c-19.1,0-34.6-15.5-34.6-34.6v-69.4H1475.4z"/>
</g>
<path class="st2" d="M917.2,1125.9H606.7c-25.2,0-45.8-20.6-45.8-45.8V701.5c0-25.2,20.6-45.8,45.8-45.8h310.5
	c25.2,0,45.8,20.6,45.8,45.8v378.6C963,1105.3,942.4,1125.9,917.2,1125.9z"/>
<line class="st9" x1="1021.2" y1="987.4" x2="852.1" y2="987.4"/>
<rect x="594.2" y="692" class="st10" width="131.4" height="141"/>
<path class="st2" d="M716.4,821.9c-0.1-8.8-8.8-13.3-14.1-14.4c-3.7-0.7-20.3-4.4-29.9-6.5v-1.4c0-2.9,0.2-5.5,0.6-7.8
	c2.6-2.5,5-5.6,6.8-9.1c1.3-2.4,2.4-5.3,3.4-8.2c1.7,0.2,4.1,0.3,6,0.1c1.4-0.2,2.8-0.7,3.8-2.4s2.9-6.9,3.3-10.6
	c0.4-4.1-1.8-6.8-4.6-6.8c-0.5,0-1,0-1.4,0.1c1.1-3.1,2-6.6,2.1-10.2c0.1-12.8-1-21.6-7.3-27.6c-6.3-6.1-16.8-8-25.3-8.1
	c-8.5,0.1-19,2.1-25.3,8.1c-6.2,6-7.4,14.8-7.3,27.6c0,3.6,0.9,7.1,2.1,10.2c-0.5,0-0.9-0.1-1.4-0.1c-2.7,0.1-5,2.7-4.6,6.8
	c0.4,3.7,2.3,8.9,3.3,10.6c1.1,1.7,2.4,2.3,3.8,2.4c1.9,0.2,4.3,0.1,6-0.1c1,2.9,2.2,5.8,3.4,8.2c1.9,3.6,4.2,6.7,6.8,9.1
	c0.3,2.3,0.6,4.9,0.6,7.8v1.5c-7.9,1.7-25.7,5.5-29.9,6.3c-5.2,1-14,5.5-14.1,14.4v11.1h113L716.4,821.9z"/>
<g>
	<line class="st11" x1="755" y1="715.5" x2="919.8" y2="715.5"/>
	<line class="st11" x1="755" y1="762.6" x2="894.4" y2="762.6"/>
	<line class="st11" x1="755" y1="809.7" x2="843.4" y2="809.7"/>
</g>
<polygon class="st0" points="730.1,879.7 750,899.5 776.5,890.3 785.8,916.7 813.7,919.9 810.6,947.8 834.3,962.8 819.5,986.6 
	834.3,1010.4 810.6,1025.4 813.7,1053.2 785.8,1056.5 776.5,1082.9 750,1073.7 730.1,1093.5 710.2,1073.7 683.7,1082.9 
	674.4,1056.5 646.5,1053.2 649.6,1025.4 625.9,1010.4 640.8,986.6 625.9,962.8 649.6,947.8 646.5,919.9 674.4,916.7 683.7,890.3 
	710.2,899.5 "/>
<g>
	<defs>
		<path id="SVGID_1_" d="M721.6,353.5c0,195.2-158.3,353.5-353.5,353.5S14.6,548.8,14.6,353.5S172.9,0,368.1,0
			S721.6,158.3,721.6,353.5"/>
	</defs>
	<clipPath id="SVGID_2_">
		<use xlink:href="#SVGID_1_"  style="overflow:visible;"/>
	</clipPath>
	<g class="st12">
		<path class="st2" d="M784.8,774.1H-23.7c-19,0-34.5-15.5-34.5-34.5V11.3c0-19,15.5-34.5,34.5-34.5h808.5c19,0,34.5,15.5,34.5,34.5
			v728.3C819.2,758.5,803.7,774.1,784.8,774.1z"/>
		<ellipse class="st13" cx="368.1" cy="66.4" rx="69.6" ry="45.3"/>
		<path class="st14" d="M514.6,325c14.1-43.8,20.6-165.8-14.1-220.7c-34.6-54.8-82.8-65.4-132.4-65.4s-97.8,10.6-132.4,65.4
			S207.6,281.1,221.6,325"/>
		<path class="st15" d="M259.1,325c2.3,26.3,1,55.2-16.7,56.8c-17.7,1.6-45.3-24.8-47.5-51.2c-2.9-35.4,10.2-48.9,27.9-50.5
			C240.5,278.6,256.7,298.6,259.1,325z"/>
		<path class="st14" d="M236.3,319.2c-12.6-2.4-20.8-19.3-24.4-46.3c-2.2-25.8,2.2-85.2,48.1-98.3
			C306,161.5,236.3,319.2,236.3,319.2z"/>
		<path class="st13" d="M445.5,382.4c63.5,30.9,32.6,147.7,79,180.3c-17.2,13.7-103-12-125.4-60.1
			C376.8,454.5,445.5,382.4,445.5,382.4z"/>
		<path class="st15" d="M477.7,325c-2.3,26.3-1,55.2,16.7,56.8c17.7,1.6,45.3-24.8,47.5-51.2c2.9-35.4-10.2-48.9-27.9-50.5
			C496.2,278.6,480,298.6,477.7,325z"/>
		<path class="st4" d="M458.8,546.6c0,17.1-40.6,31.4-90.7,31.4s-90.4-12.5-90.7-31.4c-0.1-3.2,40.6-5.8,90.7-5.8
			S458.8,543.4,458.8,546.6z"/>
		<rect x="296.1" y="447.8" class="st15" width="144" height="151.9"/>
		<path class="st16" d="M296.1,447.8v34.8c24.1,34.4,70.3,62.1,144,63.9v-98.7H296.1z"/>
		<path class="st3" d="M239.5,598.5"/>
		<path class="st3" d="M628.3,636c-19.9-15.7-119.5-52.9-159.9-55.1H267.8c-40.4,2.2-140,39.4-159.9,55.1
			c-19.9,15.7-28.5,31.4-28.5,60.4l0,201.4c37.9,28.4,233.7,45,288.7,45.5c55-0.5,250.8-17.1,288.7-45.5l0-201.4
			C656.8,667.4,648.2,651.7,628.3,636z"/>
		<polygon class="st6" points="385.4,709.4 350.9,709.4 350.9,568.5 368.1,566.9 385.4,568.5 		"/>
		<g>
			<circle class="st3" cx="368.2" cy="604.4" r="10.3"/>
		</g>
		<g>
			<circle class="st3" cx="368.2" cy="664.3" r="10.3"/>
		</g>
		<path class="st17" d="M368.1,519.4L368.1,519.4c40.1-0.4,117.8-55.4,133.9-178.6c3.3-24.9,7.8-65.3,7.7-88.1
			c-0.4-70.6-63.4-129.8-141.6-129.8h0c-78.2,0-141.2,59.3-141.6,129.8c-0.1,22.9,4.4,63.2,7.7,88.1
			C250.3,464,329,520.6,368.1,519.4L368.1,519.4z"/>
		<g>
			<line class="st18" x1="461.9" y1="255.9" x2="418.3" y2="248.7"/>
			<line class="st18" x1="272.9" y1="255.9" x2="316.5" y2="248.7"/>
		</g>
		<line class="st19" x1="356.9" y1="439.7" x2="379.3" y2="439.7"/>
		<line class="st20" x1="339.1" y1="433.2" x2="397.2" y2="433.2"/>
		<g>
			<path class="st21" d="M440.9,299c0,9.4-7.7,17.1-17.1,17.1s-17.1-7.5-17.1-16.9c0-9.4,7.7-17.1,17.1-17.1
				C433.2,282.1,440.9,289.6,440.9,299z"/>
			<path class="st21" d="M329.6,299c0,9.4-7.7,17.1-17.1,17.1s-17.1-7.5-17.1-16.9c0-9.4,7.7-17.1,17.1-17.1
				C322,282.1,329.6,289.6,329.6,299z"/>
		</g>
		<path class="st22" d="M368.2,394.9c17.2,0,28.1-16.1,26-22.3c-2.1-6.4-9.9,7.1-26,7.6c-16.1-0.5-23.9-13.9-26-7.6
			C340,378.8,350.9,394.9,368.2,394.9L368.2,394.9z"/>
		<path class="st14" d="M368.1,114.3c-61,0-125.3,29.9-123.9,119.7c33.6-9.7,76.8-15.5,123.9-15.5s90.3,5.8,123.9,15.5
			C493.4,144.3,429.1,114.3,368.1,114.3z"/>
		<g>
			<path class="st14" d="M226.6,262.5c-0.6-30.9,14.5-59,34.4-66.3l2.7-47.8l-42.5,41.2l-2.7,68.4L226.6,262.5z"/>
			<path class="st14" d="M509.7,262.5c0.6-30.9-14.5-59-34.4-66.3l-2.7-47.8l42.5,41.2l2.7,68.4L509.7,262.5z"/>
		</g>
		<g>
			<ellipse class="st2" cx="517.8" cy="368.6" rx="14.3" ry="14.6"/>
			<ellipse class="st2" cx="218.4" cy="368.6" rx="14.3" ry="14.6"/>
		</g>
		<path class="st6" d="M277.5,546.6C265,559.3,256,583.4,256,583.4c4.1,12.4,56.4,31.6,56.4,31.6l55.6-48.2
			C338.4,566.8,278,555.4,277.5,546.6z"/>
		<path class="st6" d="M458.8,546.6c12.5,12.7,21.4,36.8,21.4,36.8c-4.1,12.4-56.4,31.6-56.4,31.6l-55.6-48.2
			C397.8,566.8,458.2,555.4,458.8,546.6z"/>
	</g>
</g>
<ellipse class="st2" cx="1199.8" cy="986.6" rx="161.7" ry="105.9"/>
<circle class="st23" cx="1156.4" cy="986.6" r="84.8"/>
<circle class="st6" cx="1156.4" cy="986.6" r="42.4"/>
<circle class="st2" cx="1194.7" cy="945.6" r="22.9"/>
<g>
	<defs>
		<circle id="SVGID_3_" cx="1518.1" cy="1547.2" r="351.7"/>
	</defs>
	<clipPath id="SVGID_4_">
		<use xlink:href="#SVGID_3_"  style="overflow:visible;"/>
	</clipPath>
	<g class="st24">
		<circle class="st2" cx="1518.1" cy="1547.2" r="351.7"/>
		<g>
			<rect x="1241.5" y="1505.1" class="st25" width="553.2" height="387.7"/>
			<g>
				<path class="st26" d="M1652,1574.9c0-6.6-5.4-12.1-12.1-12.1h-37.3c-6.6,0-12.1,5.4-12.1,12.1c0,5.7,4,10.5,9.3,11.8V1777h-5.4
					v45.2h53.7V1777h-5.4v-190.3C1648,1585.4,1652,1580.6,1652,1574.9z"/>
				<path class="st26" d="M1755.1,1574.9c0-6.6-5.4-12.1-12.1-12.1h-37.3c-6.6,0-12.1,5.4-12.1,12.1c0,5.7,4,10.5,9.3,11.8V1777
					h-5.4v45.2h53.7V1777h-5.4v-190.3C1751.1,1585.4,1755.1,1580.6,1755.1,1574.9z"/>
				<path class="st26" d="M1548.9,1574.9c0-6.6-5.4-12.1-12.1-12.1h-37.3c-6.6,0-12.1,5.4-12.1,12.1c0,5.7,4,10.5,9.3,11.8V1777
					h-5.4v45.2h53.7V1777h-5.4v-190.3C1544.9,1585.4,1548.9,1580.6,1548.9,1574.9z"/>
				<path class="st26" d="M1445.8,1574.9c0-6.6-5.4-12.1-12.1-12.1h-37.3c-6.6,0-12.1,5.4-12.1,12.1c0,5.7,4,10.5,9.3,11.8V1777
					h-5.4v45.2h53.7V1777h-5.4v-190.3C1441.8,1585.4,1445.8,1580.6,1445.8,1574.9z"/>
				<path class="st26" d="M1342.7,1574.9c0-6.6-5.4-12.1-12.1-12.1h-37.3c-6.6,0-12.1,5.4-12.1,12.1c0,5.7,4,10.5,9.3,11.8V1777
					h-5.4v45.2h53.7V1777h-5.4v-190.3C1338.7,1585.4,1342.7,1580.6,1342.7,1574.9z"/>
			</g>
			<rect x="1266" y="1807.9" class="st27" width="504.3" height="60.3"/>
			<rect x="1241.5" y="1838.9" class="st27" width="553.2" height="92.2"/>
			<polygon class="st27" points="1518.1,1257.7 1241.5,1432.9 1241.5,1482.9 1241.5,1565.4 1794.7,1565.4 1794.7,1482.9 
				1794.7,1432.9 			"/>
			<polygon class="st28" points="1518.1,1297.4 1278,1449.4 1758.3,1449.4 			"/>
			<polygon class="st29" points="1518.1,1297.4 1278,1449.4 1309,1449.4 1533.6,1307.2 			"/>
			<g>
				<path class="st30" d="M1397.6,1490.2v15.5l-5.9,5.9l5.9,5.9v16.4l-9.1,9.1h-84.9v-12.1h13.4v-37.6h-13.4v-12.1h84.9
					L1397.6,1490.2z M1331.8,1505.5h51v-12.3h-51V1505.5z M1382.8,1517.6h-51v13.2h51V1517.6z"/>
				<path class="st30" d="M1518,1530.8v12.1h-42.3v-11.8h13.1l-4.7-6.6h-43.3l-4.7,6.6h13.2v11.8h-41.9v-12.1h11.5l28.6-38h-15.8
					v-11.7h37.6l37.2,49.7H1518z M1476.1,1513.2l-13.5-18.9l-13.6,18.9H1476.1z"/>
				<path class="st30" d="M1637.3,1493.2h-13.4v49.8h-15.5v-0.1l-0.1,0.1l-56.3-45.7v33.7h14.9v12.1h-42.7v-12.1h13.4v-37.7h-13.4
					v-12.1h29.4l55.8,45.4v-33.3h-14.8v-12.1h42.7V1493.2z"/>
				<path class="st30" d="M1748.1,1530.8v12.1h-45.8v-11.7h15l-24.6-17.6l-18.4,8.1v9h12.1v12.1h-40.3v-12.1h13.4v-37.6h-13.4v-12.1
					h40.3v12.1h-12.1v19.3l44.6-19.9h-14v-11.6h41.6v12.1h-9l-32.9,15.8l33.1,21.7H1748.1z"/>
			</g>
			<g>
				<path class="st2" d="M1389.9,1485.1v15.5l-5.9,5.9l5.9,5.9v16.4l-9.1,9.1h-84.9v-12.1h13.4v-37.6h-13.4V1476h84.9L1389.9,1485.1
					z M1324.1,1500.4h51v-12.3h-51V1500.4z M1375.1,1512.4h-51v13.2h51V1512.4z"/>
				<path class="st2" d="M1510.3,1525.7v12.1H1468V1526h13.1l-4.7-6.6h-43.3l-4.7,6.6h13.2v11.8h-41.9v-12.1h11.5l28.6-38H1424V1476
					h37.6l37.2,49.7H1510.3z M1468.3,1508l-13.5-18.9l-13.6,18.9H1468.3z"/>
				<path class="st2" d="M1629.6,1488h-13.4v49.8h-15.5v-0.1l-0.1,0.1l-56.3-45.7v33.7h14.9v12.1h-42.7v-12.1h13.4V1488h-13.4V1476
					h29.4l55.8,45.4V1488h-14.8V1476h42.7V1488z"/>
				<path class="st2" d="M1740.4,1525.7v12.1h-45.8v-11.7h15l-24.6-17.6l-18.4,8.1v9h12.1v12.1h-40.3v-12.1h13.4v-37.6h-13.4V1476
					h40.3v12.1h-12.1v19.3l44.6-19.9h-14V1476h41.6v12.1h-9l-32.9,15.8l33.1,21.7H1740.4z"/>
			</g>
		</g>
	</g>
</g>
</svg>
