<?xml version="1.0" encoding="utf-8"?>
<!-- Generator: Adobe Illustrator 22.0.1, SVG Export Plug-In . SVG Version: 6.00 Build 0)  -->
<svg version="1.1" id="Layer_1" xmlns="http://www.w3.org/2000/svg" xmlns:xlink="http://www.w3.org/1999/xlink" x="0px" y="0px"
	 viewBox="0 0 1871.4 1898.6" style="enable-background:new 0 0 1871.4 1898.6;" xml:space="preserve">
<style type="text/css">
	.st0{fill:#DB5253;}
	.st1{fill:#BD3435;}
	.st2{fill:#FFFFFF;}
	.st3{fill:#8AB6C5;}
	.st4{fill:#384261;}
	.st5{fill:#6A7493;}
	.st6{fill:#CDE0DE;}
	.st7{fill:#1C283E;}
	.st8{fill:#574D5E;}
	.st9{fill:#4C4C65;}
	.st10{clip-path:url(#SVGID_2_);}
	.st11{fill:#54291C;}
	.st12{fill:#693629;}
	.st13{fill:#F49D73;}
	.st14{fill:#EA9369;}
	.st15{fill:#F9B086;}
	.st16{fill:none;stroke:#422B27;stroke-width:16.0272;stroke-linecap:round;stroke-miterlimit:10;}
	.st17{fill:none;stroke:#F38486;stroke-width:19.6173;stroke-linecap:round;stroke-miterlimit:10;}
	.st18{fill:none;stroke:#E1775A;stroke-width:11.219;stroke-linecap:round;stroke-miterlimit:10;}
	.st19{fill:#422B27;}
	.st20{fill:#F49369;}
	.st21{fill:none;stroke:#8AB6C5;stroke-width:22.3872;stroke-miterlimit:10;}
	.st22{clip-path:url(#SVGID_4_);}
	.st23{fill:#D2E4D4;}
	.st24{fill:#8BA382;}
	.st25{fill:#5E796C;}
	.st26{fill:#B4C6B6;}
	.st27{fill:#AABCAC;}
	.st28{fill:#4A6558;}
</style>
<g>
	<circle class="st0" cx="192.3" cy="919.8" r="192.3"/>
	<g>
		<path class="st1" d="M173.3,979.1c0.3,10.5,2.1,14.3,7,15.7c3.8,1,15,2.1,26.2,2.1c33.2,0,33.2,0,33.2-26.9
			c0-22.7,0-22.7-19.2-22.7H175v-49.2h46.1c17.5,0,17.5,0,17.5-22c0-19.5-1.7-19.9-29.3-19.9c-18.1,0-23.7,0.7-26.9,2.4
			c-3.5,2.1-5.2,5.6-6.3,27.2h-60.4c0.7-34.2,4.5-47.5,17.8-60.7c14-13.6,37-19.5,76.4-19.5c34.2,0,52.4,4.2,65.3,14.7
			c15.7,12.9,23.4,31.4,23.4,56.9c0,20.9-5.6,32.8-20.9,45v0.7c16.4,11.5,23.7,26.9,23.7,50.3c0,25.1-7,44.3-20.6,57.2
			c-14.7,14-30.4,17.8-69.8,17.8c-48.5,0-67.4-4.2-81.7-19.2c-15.7-16.8-17.8-36.3-17.5-60.7h61.1L173.3,979.1z"/>
	</g>
	<g>
		<path class="st2" d="M159,964.8c0.3,10.5,2.1,14.3,7,15.7c3.8,1,15,2.1,26.2,2.1c33.2,0,33.2,0,33.2-26.9c0-22.7,0-22.7-19.2-22.7
			h-45.4v-49.2h46.1c17.5,0,17.5,0,17.5-22c0-19.5-1.7-19.9-29.3-19.9c-18.1,0-23.7,0.7-26.9,2.4c-3.5,2.1-5.2,5.6-6.3,27.2h-60.4
			c0.7-34.2,4.5-47.5,17.8-60.7c14-13.6,37-19.5,76.4-19.5c34.2,0,52.4,4.2,65.3,14.7c15.7,12.9,23.4,31.4,23.4,56.9
			c0,20.9-5.6,32.8-20.9,45v0.7c16.4,11.5,23.7,26.9,23.7,50.3c0,25.1-7,44.3-20.6,57.2c-14.7,14-30.4,17.8-69.8,17.8
			c-48.5,0-67.4-4.2-81.7-19.2C99.3,998,97.2,978.4,97.6,954h61.1L159,964.8z"/>
	</g>
</g>
<g>
	<path class="st3" d="M658.5,1587c0,11.5,9.4,20.8,20.8,20.8l616.6,0c11.5,0,20.8-9.4,20.8-20.8v-101.7c0-11.5-9.4-20.8-20.8-20.8
		l-616.6,0c-11.5,0-20.8,9.4-20.8,20.8V1587z"/>
	<path class="st4" d="M630.5,1559c0,11.5,9.4,20.8,20.8,20.8l616.6,0c11.5,0,20.8-9.4,20.8-20.8v-101.7c0-11.5-9.4-20.8-20.8-20.8
		l-616.6,0c-11.5,0-20.8,9.4-20.8,20.8V1559z"/>
	<path class="st5" d="M1289,1422.1v101.6c0,11.5-9.4,20.9-20.9,20.9H651.5c-11.4,0-20.8-9.4-20.8-20.9v-101.6
		c0-11.5,9.4-20.9,20.8-20.9h616.7C1279.6,1401.2,1289,1410.6,1289,1422.1z"/>
	<path class="st5" d="M442.1,494.8v706.7c0,3.3,0.5,6.6,1.4,9.6c4.2,14.5,17.5,25.1,33.3,25.1l966.2,0c19.2,0,34.6-15.5,34.6-34.6
		V494.8c0-19.1-15.5-34.6-34.6-34.6l-966.2,0C457.6,460.2,442.1,475.7,442.1,494.8z"/>
	<path class="st4" d="M1477.6,529.8v728.9c0,19.1-15.5,34.6-34.6,34.6H476.8c-19.1,0-34.6-17.8-34.6-36.9V529.8
		c0-19.1,15.5-34.6,34.6-34.6H1443C1462.1,495.1,1477.6,510.7,1477.6,529.8z"/>
	<rect x="489.6" y="544.1" class="st6" width="940.5" height="674.7"/>
	<g>
		<path class="st7" d="M1428.6,544.2v656.3H491.1V544.2H1428.6 M1443,522.9H476.7c-3.8,0-6.9,3.1-6.9,6.9v692h980.1v-692
			C1449.9,526,1446.8,522.9,1443,522.9L1443,522.9z"/>
	</g>
	<path class="st8" d="M777.2,1464.7c0,6.4,5.2,11.6,11.6,11.6h342.1c6.4,0,11.6-5.2,11.6-11.6v-112.4c0-6.4-5.2-11.6-11.6-11.6
		H788.8c-6.4,0-11.6,5.2-11.6,11.6V1464.7z"/>
	<path class="st4" d="M777.2,1465.7c0,6.4,5.2,11.6,11.6,11.6h342.1c6.4,0,11.6-5.2,11.6-11.6v-112.4c0-6.4-5.2-11.6-11.6-11.6
		H788.8c-6.4,0-11.6,5.2-11.6,11.6V1465.7z"/>
	<rect x="491" y="544.1" class="st2" width="937.6" height="46.3"/>
	<path class="st9" d="M527,568.1c0,6.5-5.3,11.7-11.7,11.7c-6.5,0-11.7-5.2-11.7-11.7c0-6.5,5.2-11.7,11.7-11.7
		C521.8,556.4,527,561.6,527,568.1z"/>
	<path class="st5" d="M1477.6,1256.3v69.4c0,19.1-15.5,34.6-34.6,34.6H476.8c-19.1,0-34.6-15.5-34.6-34.6v-69.4H1477.6z"/>
</g>
<g>
	<defs>
		<path id="SVGID_1_" d="M1871.4,1545.1c0,195.2-158.3,353.5-353.5,353.5s-353.5-158.3-353.5-353.5s158.3-353.5,353.5-353.5
			S1871.4,1349.9,1871.4,1545.1"/>
	</defs>
	<clipPath id="SVGID_2_">
		<use xlink:href="#SVGID_1_"  style="overflow:visible;"/>
	</clipPath>
	<g class="st10">
		<path class="st2" d="M1934.6,1965.6h-808.5c-19,0-34.5-15.5-34.5-34.5v-728.3c0-19,15.5-34.5,34.5-34.5h808.5
			c19,0,34.5,15.5,34.5,34.5v728.3C1969.1,1950.1,1953.5,1965.6,1934.6,1965.6z"/>
		<ellipse class="st11" cx="1517.9" cy="1258" rx="69.6" ry="45.3"/>
		<path class="st12" d="M1664.4,1516.6c14.1-43.8,20.6-165.8-14.1-220.7c-34.6-54.8-82.8-65.4-132.4-65.4s-97.8,10.6-132.4,65.4
			c-34.6,54.8-28.1,176.9-14.1,220.7"/>
		<path class="st13" d="M1408.9,1516.6c2.3,26.3,1,55.2-16.7,56.8c-17.7,1.6-45.3-24.8-47.5-51.2c-2.9-35.4,10.2-48.9,27.9-50.5
			S1406.6,1490.2,1408.9,1516.6z"/>
		<path class="st12" d="M1386.1,1510.8c-12.6-2.4-20.8-19.3-24.4-46.3c-2.2-25.8,2.2-85.2,48.1-98.3S1386.1,1510.8,1386.1,1510.8z"
			/>
		<path class="st11" d="M1595.3,1574c63.5,30.9,32.6,147.7,79,180.3c-17.2,13.7-103-12-125.4-60.1
			C1526.6,1646.1,1595.3,1574,1595.3,1574z"/>
		<path class="st13" d="M1627.5,1516.6c-2.3,26.3-1,55.2,16.7,56.8c17.7,1.6,45.3-24.8,47.5-51.2c2.9-35.4-10.2-48.9-27.9-50.5
			S1629.8,1490.2,1627.5,1516.6z"/>
		<path class="st5" d="M1608.6,1738.2c0,17.1-40.6,31.4-90.7,31.4c-50.1,0-90.4-12.5-90.7-31.4c-0.1-3.2,40.6-5.8,90.7-5.8
			C1568,1732.4,1608.6,1735,1608.6,1738.2z"/>
		<rect x="1445.9" y="1639.4" class="st13" width="144" height="151.9"/>
		<path class="st14" d="M1445.9,1639.4v34.8c24.1,34.4,70.3,62.1,144,63.9v-98.7H1445.9z"/>
		<path class="st4" d="M1389.4,1790.1"/>
		<path class="st4" d="M1778.1,1827.6c-19.9-15.7-119.5-52.9-159.9-55.1h-200.6c-40.4,2.2-140,39.4-159.9,55.1
			c-19.9,15.7-28.5,31.4-28.5,60.4l0,201.4c37.9,28.4,233.7,45,288.7,45.5c55-0.5,250.8-17.1,288.7-45.5l0-201.4
			C1806.7,1859,1798.1,1843.3,1778.1,1827.6z"/>
		<polygon class="st7" points="1535.2,1901 1500.7,1901 1500.7,1760.1 1517.9,1758.5 1535.2,1760.1 		"/>
		<g>
			<circle class="st4" cx="1518" cy="1796" r="10.3"/>
		</g>
		<g>
			<circle class="st4" cx="1518" cy="1855.9" r="10.3"/>
		</g>
		<path class="st15" d="M1518,1711L1518,1711c40.1-0.4,117.8-55.4,133.9-178.6c3.3-24.9,7.8-65.3,7.7-88.1
			c-0.4-70.6-63.4-129.8-141.6-129.8h0c-78.2,0-141.2,59.3-141.6,129.8c-0.1,22.9,4.4,63.2,7.7,88.1
			C1400.1,1655.6,1478.8,1712.2,1518,1711L1518,1711z"/>
		<g>
			<line class="st16" x1="1611.7" y1="1447.5" x2="1568.2" y2="1440.3"/>
			<line class="st16" x1="1422.7" y1="1447.5" x2="1466.3" y2="1440.3"/>
		</g>
		<line class="st17" x1="1506.8" y1="1631.3" x2="1529.2" y2="1631.3"/>
		<line class="st18" x1="1488.9" y1="1624.8" x2="1547" y2="1624.8"/>
		<g>
			<path class="st19" d="M1590.7,1490.6c0,9.4-7.7,17.1-17.1,17.1s-17.1-7.5-17.1-16.9s7.7-17.1,17.1-17.1
				S1590.7,1481.2,1590.7,1490.6z"/>
			<path class="st19" d="M1479.5,1490.6c0,9.4-7.7,17.1-17.1,17.1s-17.1-7.5-17.1-16.9s7.7-17.1,17.1-17.1
				S1479.5,1481.2,1479.5,1490.6z"/>
		</g>
		<path class="st20" d="M1518,1586.5c17.2,0,28.1-16.1,26-22.3c-2.1-6.4-9.9,7.1-26,7.6c-16.1-0.5-23.9-13.9-26-7.6
			C1489.8,1570.4,1500.7,1586.5,1518,1586.5L1518,1586.5z"/>
		<path class="st12" d="M1518,1305.9c-61,0-125.3,29.9-123.9,119.7c33.6-9.7,76.8-15.5,123.9-15.5s90.3,5.8,123.9,15.5
			C1643.3,1335.9,1579,1305.9,1518,1305.9z"/>
		<g>
			<path class="st12" d="M1376.4,1454.1c-0.6-30.9,14.5-59,34.4-66.3l2.7-47.8l-42.5,41.2l-2.7,68.4L1376.4,1454.1z"/>
			<path class="st12" d="M1659.5,1454.1c0.6-30.9-14.5-59-34.4-66.3l-2.7-47.8l42.5,41.2l2.7,68.4L1659.5,1454.1z"/>
		</g>
		<g>
			<ellipse class="st2" cx="1667.7" cy="1560.2" rx="14.3" ry="14.6"/>
			<ellipse class="st2" cx="1368.3" cy="1560.2" rx="14.3" ry="14.6"/>
		</g>
		<path class="st7" d="M1427.3,1738.2c-12.5,12.7-21.4,36.8-21.4,36.8c4.1,12.4,56.4,31.6,56.4,31.6l55.6-48.2
			C1488.2,1758.4,1427.9,1747,1427.3,1738.2z"/>
		<path class="st7" d="M1608.6,1738.2c12.5,12.7,21.4,36.8,21.4,36.8c-4.1,12.4-56.4,31.6-56.4,31.6l-55.6-48.2
			C1547.6,1758.4,1608,1747,1608.6,1738.2z"/>
	</g>
</g>
<path class="st2" d="M1301.3,1120.5H990.8c-25.2,0-45.8-20.6-45.8-45.8V696.1c0-25.2,20.6-45.8,45.8-45.8h310.5
	c25.2,0,45.8,20.6,45.8,45.8v378.6C1347.1,1099.9,1326.5,1120.5,1301.3,1120.5z"/>
<rect x="978.3" y="686.7" class="st3" width="131.4" height="141"/>
<path class="st2" d="M1100.5,816.6c-0.1-8.8-8.8-13.3-14.1-14.4c-3.7-0.7-20.3-4.4-29.9-6.5v-1.4c0-2.9,0.2-5.5,0.6-7.8
	c2.6-2.5,5-5.6,6.8-9.1c1.3-2.4,2.4-5.3,3.4-8.2c1.7,0.2,4.1,0.3,6,0.1c1.4-0.2,2.8-0.7,3.8-2.4c1.1-1.7,2.9-6.9,3.3-10.6
	c0.4-4.1-1.8-6.8-4.6-6.8c-0.5,0-1,0-1.4,0.1c1.1-3.1,2-6.6,2.1-10.2c0.1-12.8-1-21.6-7.3-27.6c-6.3-6.1-16.8-8-25.3-8.1
	c-8.5,0.1-19,2.1-25.3,8.1c-6.2,6-7.4,14.8-7.3,27.6c0,3.6,0.9,7.1,2.1,10.2c-0.5,0-0.9-0.1-1.4-0.1c-2.7,0.1-5,2.7-4.6,6.8
	c0.4,3.7,2.3,8.9,3.3,10.6c1.1,1.7,2.4,2.3,3.8,2.4c1.9,0.2,4.3,0.1,6-0.1c1,2.9,2.2,5.8,3.4,8.2c1.9,3.6,4.2,6.7,6.8,9.1
	c0.3,2.3,0.6,4.9,0.6,7.8v1.5c-7.9,1.7-25.7,5.5-29.9,6.3c-5.2,1-14,5.5-14.1,14.4v11.1h113L1100.5,816.6z"/>
<line class="st21" x1="1139.1" y1="710.1" x2="1303.9" y2="710.1"/>
<line class="st21" x1="1139.1" y1="757.2" x2="1278.5" y2="757.2"/>
<line class="st21" x1="1139.1" y1="804.3" x2="1227.6" y2="804.3"/>
<polygon class="st4" points="1187.1,981.2 1026.4,910.8 1026.4,966 680.8,966 680.8,996.5 1026.4,996.5 1026.4,1051.6 "/>
<g>
	<defs>
		<circle id="SVGID_3_" cx="371.1" cy="351.7" r="351.7"/>
	</defs>
	<clipPath id="SVGID_4_">
		<use xlink:href="#SVGID_3_"  style="overflow:visible;"/>
	</clipPath>
	<g class="st22">
		<circle class="st2" cx="371.1" cy="351.7" r="351.7"/>
		<g>
			<rect x="94.5" y="309.6" class="st23" width="553.2" height="387.7"/>
			<g>
				<path class="st24" d="M505,379.4c0-6.6-5.4-12.1-12.1-12.1h-37.3c-6.6,0-12.1,5.4-12.1,12.1c0,5.7,4,10.5,9.3,11.8v190.3h-5.4
					v45.2h53.7v-45.2h-5.4V391.1C501,389.9,505,385.1,505,379.4z"/>
				<path class="st24" d="M608.1,379.4c0-6.6-5.4-12.1-12.1-12.1h-37.3c-6.6,0-12.1,5.4-12.1,12.1c0,5.7,4,10.5,9.3,11.8v190.3h-5.4
					v45.2h53.7v-45.2h-5.4V391.1C604.1,389.9,608.1,385.1,608.1,379.4z"/>
				<path class="st24" d="M401.9,379.4c0-6.6-5.4-12.1-12.1-12.1h-37.3c-6.6,0-12.1,5.4-12.1,12.1c0,5.7,4,10.5,9.3,11.8v190.3h-5.4
					v45.2H398v-45.2h-5.4V391.1C397.9,389.9,401.9,385.1,401.9,379.4z"/>
				<path class="st24" d="M298.7,379.4c0-6.6-5.4-12.1-12.1-12.1h-37.3c-6.6,0-12.1,5.4-12.1,12.1c0,5.7,4,10.5,9.3,11.8v190.3h-5.4
					v45.2h53.7v-45.2h-5.4V391.1C294.8,389.9,298.7,385.1,298.7,379.4z"/>
				<path class="st24" d="M195.6,379.4c0-6.6-5.4-12.1-12.1-12.1h-37.3c-6.6,0-12.1,5.4-12.1,12.1c0,5.7,4,10.5,9.3,11.8v190.3h-5.4
					v45.2h53.7v-45.2h-5.4V391.1C191.6,389.9,195.6,385.1,195.6,379.4z"/>
			</g>
			<rect x="119" y="612.4" class="st25" width="504.3" height="60.3"/>
			<rect x="94.5" y="643.3" class="st25" width="553.2" height="92.2"/>
			<polygon class="st25" points="371.1,62.2 94.5,237.4 94.5,287.4 94.5,369.9 647.7,369.9 647.7,287.4 647.7,237.4 			"/>
			<polygon class="st26" points="371.1,101.8 131,253.9 611.2,253.9 			"/>
			<polygon class="st27" points="371.1,101.8 131,253.9 161.9,253.9 386.6,111.6 			"/>
			<g>
				<path class="st28" d="M250.6,294.7v15.5l-5.9,5.9l5.9,5.9v16.4l-9.1,9.1h-84.9v-12.1h13.4v-37.6h-13.4v-12.1h84.9L250.6,294.7z
					 M184.8,310h51v-12.3h-51V310z M235.8,322.1h-51v13.2h51V322.1z"/>
				<path class="st28" d="M371,335.3v12.1h-42.3v-11.8h13.1l-4.7-6.6h-43.3l-4.7,6.6h13.2v11.8h-41.9v-12.1h11.5l28.6-38h-15.8
					v-11.7h37.6l37.2,49.7H371z M329.1,317.6l-13.5-18.9l-13.6,18.9H329.1z"/>
				<path class="st28" d="M490.3,297.6h-13.4v49.8h-15.5v-0.1l-0.1,0.1l-56.3-45.7v33.7H420v12.1h-42.7v-12.1h13.4v-37.7h-13.4
					v-12.1h29.4l55.8,45.4v-33.3h-14.8v-12.1h42.7V297.6z"/>
				<path class="st28" d="M601.1,335.3v12.1h-45.8v-11.7h15l-24.6-17.6l-18.4,8.1v9h12.1v12.1h-40.3v-12.1h13.4v-37.6h-13.4v-12.1
					h40.3v12.1h-12.1V317l44.6-19.9h-14v-11.6h41.6v12.1h-9l-32.9,15.8l33.1,21.7H601.1z"/>
			</g>
			<g>
				<path class="st2" d="M242.9,289.5V305l-5.9,5.9l5.9,5.9v16.4l-9.1,9.1h-84.9v-12.1h13.4v-37.6h-13.4v-12.1h84.9L242.9,289.5z
					 M177,304.8h51v-12.3h-51V304.8z M228,316.9h-51v13.2h51V316.9z"/>
				<path class="st2" d="M363.3,330.1v12.1H321v-11.8h13.1l-4.7-6.6h-43.3l-4.7,6.6h13.2v11.8h-41.9v-12.1h11.5l28.6-38H277v-11.7
					h37.6l37.2,49.7H363.3z M321.3,312.5l-13.5-18.9l-13.6,18.9H321.3z"/>
				<path class="st2" d="M482.6,292.5h-13.4v49.8h-15.5v-0.1l-0.1,0.1l-56.3-45.7v33.7h14.9v12.1h-42.7v-12.1h13.4v-37.7h-13.4
					v-12.1h29.4l55.8,45.4v-33.3h-14.8v-12.1h42.7V292.5z"/>
				<path class="st2" d="M593.4,330.1v12.1h-45.8v-11.7h15L537.9,313l-18.4,8.1v9h12.1v12.1h-40.3v-12.1h13.4v-37.6h-13.4v-12.1
					h40.3v12.1h-12.1v19.3l44.6-19.9h-14v-11.6h41.6v12.1h-9l-32.9,15.8l33.1,21.7H593.4z"/>
			</g>
		</g>
	</g>
</g>
<path class="st2" d="M1566.6,1615.7c0,22.8-21.8,41.3-48.7,41.3s-48.7-18.5-48.7-41.3H1566.6z"/>
<g>
	<rect x="559" y="886.4" class="st25" width="344.2" height="219.2"/>
	<rect x="527.1" y="854.5" class="st24" width="344.2" height="219.2"/>
	<g>
		<path class="st2" d="M715.7,948.7c15.5,10.2,24.4,17.6,24.4,32.1c0,17.8-16.3,42.2-34.6,44.3c-3.1,0.5-4.6,1.5-5.3,4.6
			c-1,5.1-2,10.7-2.5,15c-0.5,2.5-2,4.1-4.3,4.1c-1.8,0-10.7-2.3-14-3.6c-2.5-0.8-3.8-3.3-3.8-5.6c0-2.3,1.8-12.2,1.8-14.2
			c0-2.5-1.3-4.3-3.6-5.1c-6.6-2.3-13-5.3-17.6-8.9c-1.8-1-2.5-3.6-2.5-5.6c0-0.8,0.3-2,0.3-2s5.1-13.5,7.6-18.6
			c0.5-1.5,1.8-2.3,3.1-2.3c0.8,0,2,0.5,2.8,1c8.7,5.6,23.9,11.4,33.1,11.4c5.1,0,8.9-2.5,8.9-6.9c-0.3-5.1-4.1-7.9-17.6-16.5
			c-18.6-12.2-30.3-21.4-30.3-39.7c0-14.5,13.5-42,38.2-42c2.8,0,3.3-1,4.3-4.6c1.3-4.6,2.3-9.2,3.3-12.5c0.8-2.5,2.5-4.1,5.1-4.1
			c1.8,0,10.7,1.8,15.5,3.3c2,0.5,3.1,1.8,3.1,3.8s-3.6,13.7-3.6,15.8c0,2.3,1.8,3.1,3.8,3.6c4.6,1.8,9.4,3.6,13.7,5.9
			c1.8,1,2.8,2.8,2.8,4.8c0,3.1-5.1,15.3-7.4,21.1c-0.8,1.5-2.3,2.5-3.8,2.5c-0.8,0-1.3-0.3-2-0.5c-7.6-3.8-21.1-7.9-30.3-8.1
			c-6.6,0-11.7,3.1-11.7,8.4C692.5,937,701.4,939.3,715.7,948.7z"/>
	</g>
</g>
</svg>
