<?xml version="1.0" encoding="utf-8"?>
<!-- Generator: Adobe Illustrator 22.0.1, SVG Export Plug-In . SVG Version: 6.00 Build 0)  -->
<svg version="1.1" id="Layer_1" xmlns="http://www.w3.org/2000/svg" xmlns:xlink="http://www.w3.org/1999/xlink" x="0px" y="0px"
	 viewBox="0 0 1975.7 2148.5" style="enable-background:new 0 0 1975.7 2148.5;" xml:space="preserve">
<style type="text/css">
	.st0{fill:#6C98A7;}
	.st1{fill:#8AB6C5;}
	.st2{fill:none;stroke:#FFFFFF;stroke-width:101.25;stroke-linecap:round;stroke-miterlimit:10;}
	.st3{fill:#1C283E;}
	.st4{fill:#CDE0DE;}
	.st5{fill:#BFCED5;}
	.st6{fill:#808F7D;}
	.st7{fill:#5E796C;}
	.st8{fill:#8BA382;}
	.st9{fill:none;stroke:#1C283E;stroke-width:37.5105;stroke-linecap:round;stroke-linejoin:round;stroke-miterlimit:10;}
	.st10{fill:#384261;}
	.st11{fill:#9E5F26;}
	.st12{fill:#E6E6E6;}
	.st13{fill:#FFFFFF;}
	.st14{fill:#DB5253;}
	.st15{fill:#AC6D29;}
	.st16{fill:#B3BDC8;}
	.st17{fill:#0A0C1B;}
	.st18{fill:#6A7493;}
	.st19{fill:#681B16;}
	.st20{fill:#882921;}
	.st21{fill:#C7C6DE;}
	.st22{fill:#E6E4F2;}
	.st23{fill:#422B27;}
	.st24{fill:none;stroke:#422B27;stroke-width:15.3;stroke-linecap:round;stroke-miterlimit:10;}
	.st25{fill:none;stroke:#882921;stroke-width:17.595;stroke-linecap:round;stroke-miterlimit:10;}
	.st26{fill:#77461E;}
	.st27{fill:none;stroke:#882921;stroke-width:10.3275;stroke-linecap:round;stroke-miterlimit:10;}
	.st28{fill:none;stroke:#422B27;stroke-width:14.3438;stroke-linecap:round;stroke-miterlimit:10;}
	.st29{fill:none;stroke:#422B27;stroke-width:11.475;stroke-linecap:round;stroke-miterlimit:10;}
	.st30{fill:none;stroke:#422B27;stroke-width:15.3;stroke-miterlimit:10;}
	.st31{fill:none;stroke:#422B27;stroke-width:12.6225;stroke-linejoin:round;stroke-miterlimit:10;}
	.st32{fill:#C9813B;}
	.st33{fill:none;stroke:#422B27;stroke-width:14.1525;stroke-linejoin:round;stroke-miterlimit:10;}
</style>
<circle class="st0" cx="1066.4" cy="729" r="729"/>
<path class="st1" d="M1944.4,2148.5H31.3c-17.2,0-31.3-14.1-31.3-31.3l0,0c0-17.2,14.1-31.3,31.3-31.3h1913.2
	c17.2,0,31.3,14.1,31.3,31.3l0,0C1975.7,2134.4,1961.6,2148.5,1944.4,2148.5z"/>
<path class="st2" d="M787.5,1556.7"/>
<g>
	<path class="st3" d="M1332.9,2080c0,21.2-17.2,38.3-38.3,38.3c-21.2,0-38.3-17.2-38.3-38.3"/>
	<path class="st3" d="M1594,2080c0,21.2-17.2,38.3-38.3,38.3c-21.2,0-38.3-17.2-38.3-38.3"/>
	<path class="st3" d="M1802.9,2080c0,21.2-17.2,38.3-38.3,38.3c-21.2,0-38.3-17.2-38.3-38.3"/>
	<rect x="1386.9" y="1621.3" class="st4" width="69.1" height="309.9"/>
	<polygon class="st5" points="1386.9,1622.2 1386.9,1719.2 1455.9,1698 1455.9,1622.2 	"/>
	<polygon class="st3" points="1344.6,1973 1344.6,1994.3 1498.2,1994.3 1498.2,1956.5 	"/>
	<g>
		<path class="st3" d="M1510.9,1578.4c0-20.6-16.9-37.5-37.5-37.5h-104c-20.6,0-37.5,16.9-37.5,37.5v44.3
			c0,20.6,16.9,37.5,37.5,37.5h104c20.6,0,37.5-16.9,37.5-37.5V1578.4z"/>
	</g>
	<g>
		<path class="st3" d="M1637.8,1590c0-17.7-16.9-32.2-37.5-32.2h-357.7c-20.6,0-37.5,14.5-37.5,32.2s16.9,32.2,37.5,32.2h357.7
			C1620.9,1622.2,1637.8,1607.7,1637.8,1590z"/>
	</g>
	<g>
		<path class="st6" d="M1776.2,1541.8c2.8,20.4-11.7,37.2-32.3,37.2h-410.8c-20.6,0-39.8-16.7-42.7-37.2l-31.9-229.7
			c-2.8-20.4-1.2-53.5,3.7-73.6l109-446.1c4.9-20,25.2-40.7,45.2-46l213.2-56c20-5.2,53.2-9.5,73.8-9.5h40.5
			c20.6,0,36.3,16.8,34.8,37.4l-37,519.1c-1.5,20.6-0.3,54.1,2.5,74.6L1776.2,1541.8z"/>
	</g>
	<g>
		<path class="st7" d="M1714.1,1541.8c2.8,20.4-11.7,37.2-32.3,37.2h-402.4c-20.6,0-39.8-16.7-42.7-37.2l-31.9-229.7
			c-2.8-20.4-1.6-53.7,2.7-73.8l111.2-520.6c4.3-20.2,24.4-33.4,44.6-29.4l313.1,61.7c20.2,4,35.6,24.1,34.2,44.7l-30.9,442.9
			c-1.4,20.6-0.3,54.1,2.6,74.6L1714.1,1541.8z"/>
	</g>
	<g>
		<path class="st8" d="M1262.7,1153.5c-20.6-0.4-34-17.2-29.6-37.4l85.6-398.3c4.3-20.2,24.8-36.7,45.4-36.7h317.8
			c20.6,0,36.3,16.8,34.8,37.4l-29,405.7c-1.5,20.6-19.6,37.1-40.2,36.7L1262.7,1153.5z"/>
	</g>
	<g>
		<path class="st7" d="M1719.3,1519c0,33-27,60-60,60h-648.6c-33,0-60-27-60-60v-16.8c0-33,27-60,60-60h648.6c33,0,60,27,60,60V1519
			z"/>
	</g>
	<g>
		<path class="st6" d="M1462.7,1522.7c0,30.9,25.3,56.3,56.3,56.3h165.2c30.9,0,57.6-25.3,59.3-56.2l1.3-24.4
			c1.6-30.9-22.3-56.2-53.3-56.2h-172.5c-30.9,0-56.3,25.3-56.3,56.3V1522.7z"/>
	</g>
	<polyline class="st9" points="1083.1,2006.9 1421.4,1944.5 1764.6,2006.9 	"/>
	<polyline class="st9" points="1294.5,2006.9 1421.4,1944.5 1553.2,2006.9 	"/>
	<path class="st3" d="M1121.7,2080c0,21.2-17.2,38.3-38.3,38.3c-21.2,0-38.3-17.2-38.3-38.3"/>
	<g>
		<path class="st3" d="M1045.1,2081.9c-3.1,0-5.6-2.5-5.6-5.6c0-24.2,19.7-44,44-44c24.2,0,44,19.7,44,44c0,3.1-2.5,5.6-5.6,5.6
			H1045.1z"/>
		<g>
			<path class="st3" d="M1083.4,2037.9c21.2,0,38.3,17.2,38.3,38.3h-76.7C1045.1,2055.1,1062.2,2037.9,1083.4,2037.9 M1083.4,2026.6
				c-27.3,0-49.6,22.2-49.6,49.6c0,6.2,5,11.3,11.3,11.3h76.7c6.2,0,11.3-5,11.3-11.3C1133,2048.9,1110.7,2026.6,1083.4,2026.6
				L1083.4,2026.6z"/>
		</g>
	</g>
	<g>
		<path class="st3" d="M1256.2,2081.9c-3.1,0-5.6-2.5-5.6-5.6c0-24.2,19.7-44,44-44c24.2,0,44,19.7,44,44c0,3.1-2.5,5.6-5.6,5.6
			H1256.2z"/>
		<g>
			<path class="st3" d="M1294.5,2037.9c21.2,0,38.3,17.2,38.3,38.3h-76.7C1256.2,2055.1,1273.4,2037.9,1294.5,2037.9 M1294.5,2026.6
				c-27.3,0-49.6,22.2-49.6,49.6c0,6.2,5,11.3,11.3,11.3h76.7c6.2,0,11.3-5,11.3-11.3C1344.1,2048.9,1321.9,2026.6,1294.5,2026.6
				L1294.5,2026.6z"/>
		</g>
	</g>
	<g>
		<path class="st3" d="M1517.3,2081.9c-3.1,0-5.6-2.5-5.6-5.6c0-24.2,19.7-44,44-44c24.2,0,44,19.7,44,44c0,3.1-2.5,5.6-5.6,5.6
			H1517.3z"/>
		<g>
			<path class="st3" d="M1555.7,2037.9c21.2,0,38.3,17.2,38.3,38.3h-76.7C1517.3,2055.1,1534.5,2037.9,1555.7,2037.9 M1555.7,2026.6
				c-27.3,0-49.6,22.2-49.6,49.6c0,6.2,5,11.3,11.3,11.3h76.7c6.2,0,11.3-5,11.3-11.3C1605.3,2048.9,1583,2026.6,1555.7,2026.6
				L1555.7,2026.6z"/>
		</g>
	</g>
	<g>
		<path class="st3" d="M1726.3,2081.9c-3.1,0-5.6-2.5-5.6-5.6c0-24.2,19.7-44,44-44c24.2,0,44,19.7,44,44c0,3.1-2.5,5.6-5.6,5.6
			H1726.3z"/>
		<g>
			<path class="st3" d="M1764.6,2037.9c21.2,0,38.3,17.2,38.3,38.3h-76.7C1726.3,2055.1,1743.4,2037.9,1764.6,2037.9 M1764.6,2026.6
				c-27.3,0-49.6,22.2-49.6,49.6c0,6.2,5,11.3,11.3,11.3h76.7c6.2,0,11.3-5,11.3-11.3C1814.2,2048.9,1792,2026.6,1764.6,2026.6
				L1764.6,2026.6z"/>
		</g>
	</g>
	<g>
		<path class="st10" d="M1468.6,1934.9v-88.1c0-10.3-8.4-18.8-18.8-18.8h-56.9c-10.3,0-18.8,8.4-18.8,18.8v88.1"/>
	</g>
	<line class="st9" x1="1083.4" y1="2050.1" x2="1083.4" y2="2009.5"/>
	<line class="st9" x1="1294.5" y1="2050.1" x2="1294.5" y2="2009.5"/>
	<line class="st9" x1="1555.7" y1="2050.1" x2="1555.7" y2="2009.5"/>
	<line class="st9" x1="1764.6" y1="2050.1" x2="1764.6" y2="2009.5"/>
</g>
<g>
	<path class="st11" d="M1309.2,640.6L1209,954.7l-0.5,1.6c-4.3,13.5-15.3,23-28.1,26.1l-259.2,62.1c-16.8,4-33.8-6.4-37.8-23.2
		c-3.8-16,5.4-32.1,20.8-37.1l253.4-82.7l-28.6,27.7L1229,615c7.1-22.1,30.7-34.4,52.9-27.3C1304,594.8,1316.3,618.5,1309.2,640.6z"
		/>
</g>
<path class="st12" d="M1162.1,806.7l95.1,33.1l58.9-200.5c9.1-25.9,29.6-81.5,2.1-81.7c-27.9-0.2-78.7,3.3-100.8,66.1
	C1217.1,624.8,1162.1,806.7,1162.1,806.7z"/>
<path class="st13" d="M1250.7,1145.6l-23-500.5c0-45.4,37.9-82.2,84.2-89.5s95.8-8.5,95.8-8.5h74.7c45.4,0,119.8,29.9,128.6,45.7
	l-23,552.7H1250.7z"/>
<path class="st14" d="M1407.4,742c0-37.4-20.4-146-18.9-155.3l-17.1,7.8c0,0-37.6,59.6-37.6,149.9s0,360,0,360l36.2,26.6l37.4-31.3
	C1407.4,1099.6,1407.4,779.3,1407.4,742z"/>
<g>
	<path class="st15" d="M1625.6,645.7l-115.5,348.7l-0.4,1.2c-5.3,15.9-19.5,26.3-35.2,27.4l-315.9,23.6c-17.9,1.3-33.5-12.1-34.9-30
		c-1.3-17.2,11.2-32.3,28.1-34.7l313.9-42.6l-35.5,28.6l115.5-348.7c7.3-22.1,31.1-34,53.2-26.7
		C1621,599.9,1632.9,623.7,1625.6,645.7z"/>
</g>
<path class="st13" d="M1635.1,651.7l-61.4,213.4l-100.4-43.9l67.1-200.3c7.5-26.4,35-41.8,61.5-34.2c26.4,7.5,41.8,35,34.2,61.5
	C1635.9,649.4,1635.5,650.6,1635.1,651.7z"/>
<path class="st10" d="M1588.1,1145.6h-337.4l-1.2,151.7c1.9,62.9,68.7,97.2,154.5,95.3c85.8-1.9,183.1-15.3,184.1-89.6
	C1588.6,1263,1588.1,1145.6,1588.1,1145.6z"/>
<path class="st3" d="M1250.7,1145.6l-0.4,50h337.9c-0.1-28.1-0.2-50-0.2-50H1250.7z"/>
<rect x="1332" y="1145.6" class="st16" width="76.4" height="50"/>
<path class="st11" d="M942.8,1039.1c-65.4,20-56.7-9.2-83-2.4c-21.7,5.6-15.6,18.8-40.5,23.4l-43,10.2c-18.3,5-25.9-5.7-6.1-33.9
	c8.4-11.9,32-40,70.7-48.7c51.7-14.1,54.9-2.6,99.5-15.4C940.4,972.3,954.6,1036.9,942.8,1039.1z"/>
<path class="st15" d="M1188.7,1044.2c-69.8,10.4-56.4-14.4-82.7-7.5c-21.7,5.6-15.6,18.8-40.5,23.4l-43,10.2
	c-18.3,5-25.9-5.7-6.1-33.9c8.4-11.9,32-40,70.7-48.7c51.7-14.1,52.2-2.9,100.6-10.4C1187.6,977.3,1200.5,1042.1,1188.7,1044.2z"/>
<path class="st3" d="M968.1,1991c-7.4-30.8-23.9-28.2-58.8-25.6c-63.5,4.8-109.5,46.8-138.8,53.6c-23.1,5.3-101.1,5.7-93.8,67.6
	l8.3,31.7l149.4-13.6l56.4-18.1l44.4,15.9l42.2-15.9C977.3,2062.6,974.2,2016.6,968.1,1991z"/>
<polygon class="st17" points="977.3,2086.6 977.3,2118.3 886,2118.3 883.1,2094.2 835,2118.3 685,2118.3 676.6,2086.6 "/>
<path class="st17" d="M845.8,1998.5c17.4-1.5,29.7,1.9,42.8,12c13.8,10.6,59.9,18,67.3-6c7.4-24-10.1-51.6-8.3-79.2
	c1.8-27.6,14.4-94.7,19.9-154.1l-116,13.7c0,49.6,31.1,150.8-8.6,207.9C839.9,1997,843.3,1998.7,845.8,1998.5z"/>
<path class="st3" d="M1190.1,1991c-7.4-30.8-23.9-28.2-58.8-25.6c-63.5,4.8-109.5,46.8-138.8,53.6c-23.1,5.3-101.1,5.7-93.8,67.6
	l8.3,31.7l149.4-13.6l56.4-18.1l44.4,15.9l42.2-15.9C1199.3,2062.6,1196.3,2016.6,1190.1,1991z"/>
<polygon class="st17" points="1199.3,2086.6 1199.3,2118.3 1108.1,2118.3 1105.1,2094.2 1057,2118.3 907,2118.3 898.7,2086.6 "/>
<path class="st17" d="M1067.8,1998.5c17.4-1.5,29.7,1.9,42.8,12c13.8,10.6,59.9,18,67.3-6c7.4-24-10.1-51.6-8.3-79.2
	c1.8-27.6,14.4-94.7,19.9-154.1l-116,13.7c0,49.6,31.1,150.8-8.6,207.9C1061.9,1997,1065.3,1998.7,1067.8,1998.5z"/>
<path class="st10" d="M1273.9,1223.6l102.5,118.9l-344.1,97.8L975.6,1972l-168.6,0c0,0,43-604.3,45.8-644.8
	c2.9-40.5,19.1-65.1,59.9-69C953.4,1254.4,1273.9,1223.6,1273.9,1223.6z"/>
<polygon class="st3" points="1337.8,1394.5 1290.6,1312.9 970.6,1348.2 906.7,1972 975.6,1972 1033.7,1426.7 "/>
<path class="st10" d="M1441.5,1255.9l-420.7,35.1l20.3,676.3H1207l3.9-525.1l261.9,0c51.9-0.2,114.6-19.5,115.3-139.2
	c0.5-77.9-78-67.5-78-67.5L1441.5,1255.9z"/>
<rect x="1864.7" y="1103" class="st3" width="58.1" height="1015.3"/>
<rect x="1504.4" y="1103" class="st10" width="58.1" height="1015.3"/>
<rect x="487.4" y="1103" class="st3" width="58.1" height="1015.3"/>
<rect x="127.1" y="1103" class="st10" width="58.1" height="1015.3"/>
<polygon class="st10" points="616.8,1006.7 616.8,1096.9 1097.1,1096.9 1067.1,1006.7 "/>
<polygon class="st18" points="1067.1,1006.7 1268.8,1030.7 1268.8,1096.9 1067.1,1096.9 "/>
<line class="st18" x1="1067.1" y1="1096.9" x2="1067.1" y2="1006.7"/>
<g>
	<rect x="349.8" y="1024.1" class="st18" width="477.1" height="52.6"/>
	<path class="st4" d="M983.1,783l-30-589c-0.5-9.6-8.4-17.1-18-17.1H191.4c-4.9,0-9.7,2-13,5.6s-5.2,8.4-4.9,13.3l30,589
		c0.5,9.6,8.4,17.1,18,17.1h743.7c4.9,0,9.7-2,13-5.6S983.3,787.9,983.1,783z"/>
	<path class="st13" d="M941.1,783l-30-589c-0.5-9.6-8.4-17.1-18-17.1H149.4c-4.9,0-9.7,2-13,5.6s-5.2,8.4-4.9,13.3l30,589
		c0.5,9.6,8.4,17.1,18,17.1h743.7c4.9,0,9.7-2,13-5.6S941.3,787.9,941.1,783z"/>
	<polygon class="st18" points="620.1,635.8 481.6,635.8 391.6,1037.2 566,1037.2 628.3,759.5 	"/>
	<polygon class="st10" points="620,635.8 445.6,635.8 355.5,1037.2 529.9,1037.2 	"/>
	<rect x="199.7" y="1024.1" class="st10" width="477.1" height="52.6"/>
</g>
<rect x="65.4" y="1067.3" class="st19" width="1568.1" height="73.9"/>
<rect x="1546.9" y="1067.3" class="st20" width="422.9" height="73.9"/>
<g>
	<path class="st21" d="M1445,506c-59.6,0-107.9,3.5-107.9,7.8c0,4.3,24.9,7.8,55.6,7.8c59.6,0,107.9-3.5,107.9-7.8
		C1500.6,509.5,1475.7,506,1445,506z"/>
	<rect x="1350" y="416.4" class="st11" width="136.3" height="130.1"/>
	<polygon class="st14" points="1355.9,537.5 1366.4,606.3 1388.9,607.8 1434.8,538.3 1386.4,521.5 	"/>
	<path class="st22" d="M1500.6,513.8c0,4.3-54.1,7.8-113.7,7.8l50.1,70.8c0,0,77.9-11.7,77-35.9L1500.6,513.8z"/>
	<path class="st22" d="M1336.8,592.3l50.1-70.8c-30.7,0-49.8-3.5-49.8-7.8l-13.4,43.2C1323.4,573.9,1328.3,588.3,1336.8,592.3z"/>
	<path class="st11" d="M1413.4,111.7l-61,0l-82,166.8c0,92,64.1,155.1,143,155.1c79,0,142.9-58.3,143-126.5V244
		C1556,202.3,1538.8,113.6,1413.4,111.7z"/>
	<path class="st15" d="M1270.2,278.8l0.1-0.2c0,0,0-0.1,0-0.1L1270.2,278.8z"/>
	<path class="st11" d="M1352.4,111.7l-0.8,388.4c91.9,0,154.9-67.6,154.9-129.7c0-30.7,0-79.2,0-109.1
		C1506.5,202.7,1482.3,112.8,1352.4,111.7z"/>
	<path class="st23" d="M1556.4,307.1l0-91.2l-95.8-23v122.7c0,0,36,0,36.1,0c11.4-3.6-13.9,102.3-4,96.4
		C1531.1,389,1556.3,350,1556.4,307.1z"/>
	<path class="st11" d="M1478.4,324.5V443c18-21.9,28.1-47.7,28.1-72.6c0-13.1,0-29.5,0-46.3C1506.5,320.9,1478.4,324.5,1478.4,324.5
		z"/>
	<line class="st24" x1="1343.1" y1="286.4" x2="1234.1" y2="286.4"/>
	<path class="st23" d="M1412,79.5c-94.4-0.2-168.4,19.4-167.8,135.5l312.1,0.8C1557.4,151.1,1520,79.8,1412,79.5z"/>
	<path class="st15" d="M1461.7,223.8c0-60.1-34.8-112.6-109.3-112.1c-60.3,0.4-110.4,47.3-109,123.6c0.6,30.6,12.2,37.3,11.6,69.5
		s-8.1,71.3-6.4,101.9c3.3,60.2,43.7,93.4,104,93.4c60.3,0,109.2-48.7,109.2-108.8C1461.7,360.8,1461.7,254.4,1461.7,223.8z"/>
	<line class="st25" x1="1305.9" y1="424.1" x2="1339.7" y2="424.1"/>
	<path class="st26" d="M1319.1,364.9c-8.7,0-16.5-2.4-23.1-5.7c-3.2-1.6-5,2.4-5,4.9v1.2c0,5.7,4.6,10.3,10.3,10.3h1.6
		c2.9,2.9,6.8,4.7,11.2,4.7h9.7c4.4,0,8.4-1.8,11.2-4.7h6.3c5.7,0,10.3-4.6,10.3-10.3v-1.2c0-3.5-5-7.2-8.8-5.2
		C1336.1,362.5,1328,364.9,1319.1,364.9z"/>
	<line class="st27" x1="1297.4" y1="420.4" x2="1360.9" y2="420.4"/>
	<path class="st15" d="M1228,294.5"/>
	<line class="st28" x1="1296.8" y1="250.1" x2="1262.2" y2="250.1"/>
	<line class="st28" x1="1417.3" y1="250.1" x2="1365.6" y2="250.1"/>
	<path class="st29" d="M1427.4,311.1"/>
	<path class="st29" d="M1545.1,269.3"/>
	<line class="st30" x1="1544.1" y1="286.4" x2="1435.1" y2="286.4"/>
	<path class="st11" d="M1515.8,269.7c-16.3,0-29.6,20-29.6,44.6c0,24.6,13.2,44.6,29.6,44.6c16.3,0,29.6-20,29.6-44.6
		C1545.4,289.6,1532.1,269.7,1515.8,269.7"/>
	<path class="st23" d="M1296.3,289.4c0,8.2-6.7,15-15,15c-8.3,0.1-15-6.6-15-14.8s6.7-15,15-15
		C1289.6,274.6,1296.3,281.2,1296.3,289.4z"/>
	<path class="st23" d="M1399.7,289.4c0,8.2-6.7,15-15,15c-8.3,0.1-15-6.6-15-14.8s6.7-15,15-15
		C1393,274.6,1399.7,281.2,1399.7,289.4z"/>
	<polygon class="st31" points="1231.2,328.2 1231.2,274.1 1304.7,274.1 1304.7,327.5 	"/>
	<path class="st15" d="M1295.1,352.6c0-9.5,19.6-45.4,23.1-48.4c3.5-3-2.1,30.3-2.1,30.3L1295.1,352.6z"/>
	<polygon class="st31" points="1346,328.2 1346,274.1 1434.8,274.1 1434.8,327.5 	"/>
	<path class="st15" d="M1308.6,500.3c-12.5,0-22.7-10-22.9-22.5c-0.2-12.7,0-23.4,0-23.4l69.2-0.8c0.1,0-0.1,0,0,0
		c12.5,0,15.6,10,15.8,22.5c0.2,12.7-3.1,23.9-15.8,24.2l-45.8,0C1308.9,500.3,1308.7,500.3,1308.6,500.3z"/>
	<ellipse class="st32" cx="1320.7" cy="460" rx="20.9" ry="8.1"/>
	
		<ellipse transform="matrix(0.3934 -0.9194 0.9194 0.3934 612.204 1284.1981)" class="st32" cx="1279.3" cy="178.2" rx="24" ry="15.2"/>
	<path class="st23" d="M1277.9,141.9c17.1-17.9,32.5,0.5,60.5,1.1c28,0.6,75.6-25.1,102.1,9c-6.9-16.6-51.8-49.6-86.7-48.5
		C1318.9,104.6,1294.5,119.5,1277.9,141.9z"/>
	<path class="st33" d="M1347.5,302c-3.6-3.5-12.1-5.9-22-5.9c-9,0-16.8,2-20.9,4.9"/>
</g>
</svg>
