<?xml version="1.0" encoding="utf-8"?>
<!-- Generator: Adobe Illustrator 22.0.1, SVG Export Plug-In . SVG Version: 6.00 Build 0)  -->
<svg version="1.1" id="Layer_1" xmlns="http://www.w3.org/2000/svg" xmlns:xlink="http://www.w3.org/1999/xlink" x="0px" y="0px"
	 viewBox="0 0 1844 2312.5" style="enable-background:new 0 0 1844 2312.5;" xml:space="preserve">
<style type="text/css">
	.st0{fill:#8AB6C5;}
	.st1{fill:#6C98A7;}
	.st2{fill:#C7C6DE;}
	.st3{fill:#AC6D29;}
	.st4{fill:#E6EAF4;}
	.st5{fill:#EAF0F9;}
	.st6{fill:#9E5F26;}
	.st7{fill:#DB5253;}
	.st8{fill:#E6E4F2;}
	.st9{fill:#422B27;}
	.st10{fill:none;stroke:#422B27;stroke-width:15.3;stroke-linecap:round;stroke-miterlimit:10;}
	.st11{fill:none;stroke:#882921;stroke-width:17.595;stroke-linecap:round;stroke-miterlimit:10;}
	.st12{fill:#77461E;}
	.st13{fill:none;stroke:#882921;stroke-width:10.3275;stroke-linecap:round;stroke-miterlimit:10;}
	.st14{fill:none;stroke:#422B27;stroke-width:14.3438;stroke-linecap:round;stroke-miterlimit:10;}
	.st15{fill:none;stroke:#422B27;stroke-width:11.475;stroke-linecap:round;stroke-miterlimit:10;}
	.st16{fill:none;stroke:#422B27;stroke-width:15.3;stroke-miterlimit:10;}
	.st17{fill:none;stroke:#422B27;stroke-width:12.6225;stroke-linejoin:round;stroke-miterlimit:10;}
	.st18{fill:#C9813B;}
	.st19{fill:none;stroke:#422B27;stroke-width:14.1525;stroke-linejoin:round;stroke-miterlimit:10;}
	.st20{fill:#273149;}
	.st21{fill:#1C283E;}
	.st22{fill:#0A0C1B;}
	.st23{fill:#384261;}
	.st24{fill:#121726;}
	.st25{fill:#BDC7D6;}
	.st26{font-family:'URWDock-Bold';}
	.st27{font-size:194.4px;}
	.st28{clip-path:url(#SVGID_2_);}
	.st29{fill:#FFFFFF;}
	.st30{fill:#D2E4D4;}
	.st31{fill:#8BA382;}
	.st32{fill:#5E796C;}
	.st33{fill:#B4C6B6;}
	.st34{fill:#AABCAC;}
	.st35{fill:#4A6558;}
	.st36{enable-background:new    ;}
</style>
<path class="st0" d="M1003.8,2312.5H171.4c-17.2,0-31.3-14.1-31.3-31.3l0,0c0-17.2,14.1-31.3,31.3-31.3h832.3
	c17.2,0,31.3,14.1,31.3,31.3l0,0C1035,2298.4,1021,2312.5,1003.8,2312.5z"/>
<circle class="st1" cx="729" cy="871.2" r="729"/>
<path class="st2" d="M776.7,426.4c-59.6,0-107.9,3.5-107.9,7.8s24.9,7.8,55.6,7.8c59.6,0,107.9-3.5,107.9-7.8
	C832.2,429.9,807.4,426.4,776.7,426.4z"/>
<g>
	<path class="st3" d="M640.2,559.6L540,873.7l-0.5,1.5c-6.8,21.3-29.6,33.1-51,26.3c-0.6-0.2-1.3-0.5-1.9-0.7L221,800.9
		c-16.2-6.1-24.4-24.2-18.3-40.4c5.8-15.4,22.6-23.6,38.1-19.1L513.2,821l-53.4,27.1L560.1,534c7.1-22.1,30.7-34.4,52.9-27.3
		C635.1,513.8,647.3,537.5,640.2,559.6z"/>
</g>
<path class="st4" d="M493.2,725.7l95.1,33.1l58.9-200.5c9.1-25.9,29.6-81.5,2.1-81.7c-27.9-0.2-78.7,3.3-100.8,66.1
	C548.2,543.8,493.2,725.7,493.2,725.7z"/>
<path class="st5" d="M581.8,1064.6l-23-500.5c0-45.4,37.9-82.2,84.2-89.5c46.4-7.3,95.8-8.5,95.8-8.5h74.7
	c45.4,0,119.8,29.9,128.6,45.7l-23,552.7L581.8,1064.6L581.8,1064.6z"/>
<rect x="681.7" y="336.8" class="st6" width="136.3" height="130.1"/>
<polygon class="st7" points="687.6,458 698,526.7 720.5,528.3 766.4,458.7 718,442 "/>
<path class="st8" d="M832.2,434.2c0,4.3-54.1,7.8-113.7,7.8l50.1,70.8c0,0,77.9-11.7,77-35.9L832.2,434.2z"/>
<path class="st8" d="M668.4,512.8l50.1-70.8c-30.7,0-49.8-3.5-49.8-7.8l-13.4,43.2C655.1,494.4,659.9,508.8,668.4,512.8z"/>
<path class="st6" d="M745,32.2h-61L602,199c0,92,64.1,155.1,143,155.1c79,0,142.9-58.3,143-126.5v-63.2
	C887.7,122.8,870.5,34.1,745,32.2z"/>
<path class="st3" d="M601.9,199.2l0.1-0.2v-0.1L601.9,199.2z"/>
<path class="st6" d="M684,32.2l-0.8,388.4c91.9,0,154.9-67.6,154.9-129.7c0-30.7,0-79.2,0-109.1C838.2,123.2,814,33.3,684,32.2z"/>
<path class="st9" d="M888.1,227.6v-91.2l-95.8-23v122.7c0,0,36,0,36.1,0c11.4-3.6-13.9,102.3-4,96.4
	C862.7,309.4,888,270.5,888.1,227.6z"/>
<path class="st6" d="M810,244.9v118.5c18-21.9,28.1-47.7,28.1-72.6c0-13.1,0-29.5,0-46.3C838.2,241.4,810,244.9,810,244.9z"/>
<line class="st10" x1="674.8" y1="206.9" x2="565.8" y2="206.9"/>
<path class="st9" d="M743.7,0c-94.4-0.2-168.4,19.4-167.8,135.5l312.1,0.8C889.1,71.6,851.6,0.3,743.7,0z"/>
<path class="st3" d="M793.4,144.3c0-60.1-34.8-112.6-109.3-112.1c-60.3,0.4-110.4,47.3-109,123.6c0.6,30.6,12.2,37.3,11.6,69.5
	c-0.6,32.2-8.1,71.3-6.4,101.9c3.3,60.2,43.7,93.4,104,93.4s109.2-48.7,109.2-108.8C793.4,281.2,793.4,174.9,793.4,144.3z"/>
<line class="st11" x1="637.6" y1="344.6" x2="671.3" y2="344.6"/>
<path class="st12" d="M650.7,285.4c-8.7,0-16.5-2.4-23.1-5.7c-3.2-1.6-5,2.4-5,4.9v1.2c0,5.7,4.6,10.3,10.3,10.3h1.6
	c2.9,2.9,6.8,4.7,11.2,4.7h9.7c4.4,0,8.4-1.8,11.2-4.7h6.3c5.7,0,10.3-4.6,10.3-10.3v-1.2c0-3.5-5-7.2-8.8-5.2
	C667.7,283,659.7,285.4,650.7,285.4z"/>
<line class="st13" x1="629.1" y1="340.8" x2="692.6" y2="340.8"/>
<path class="st3" d="M559.6,214.9"/>
<line class="st14" x1="628.4" y1="170.5" x2="593.9" y2="170.5"/>
<line class="st14" x1="749" y1="170.5" x2="697.2" y2="170.5"/>
<path class="st15" d="M759.1,231.6"/>
<path class="st15" d="M876.7,189.7"/>
<line class="st16" x1="875.7" y1="206.9" x2="766.8" y2="206.9"/>
<path class="st6" d="M847.5,190.1c-16.3,0-29.6,20-29.6,44.6s13.2,44.6,29.6,44.6c16.3,0,29.6-20,29.6-44.6S863.8,190.1,847.5,190.1
	"/>
<path class="st9" d="M628,209.9c0,8.2-6.7,15-15,15s-15-6.6-15-14.8s6.7-15,15-15S628,201.7,628,209.9z"/>
<path class="st9" d="M731.4,209.9c0,8.2-6.7,15-15,15s-15-6.6-15-14.8s6.7-15,15-15S731.4,201.7,731.4,209.9z"/>
<polygon class="st17" points="562.8,248.6 562.8,194.5 636.3,194.6 636.3,248 "/>
<path class="st3" d="M626.8,273.1c0-9.5,19.6-45.4,23.1-48.4s-2.1,30.3-2.1,30.3L626.8,273.1z"/>
<polygon class="st17" points="677.7,248.6 677.7,194.5 766.5,194.6 766.5,248 "/>
<path class="st3" d="M640.3,420.7c-12.5,0-22.7-10-22.9-22.5c-0.2-12.7,0-23.4,0-23.4l69.2-0.8c0.1,0-0.1,0,0,0
	c12.5,0,15.6,10,15.8,22.5c0.2,12.7-3.1,23.9-15.8,24.2h-45.8C640.5,420.7,640.4,420.7,640.3,420.7z"/>
<ellipse class="st18" cx="652.4" cy="380.4" rx="20.9" ry="8.1"/>
<ellipse transform="matrix(0.3934 -0.9194 0.9194 0.3934 280.0117 621.4692)" class="st18" cx="611" cy="98.5" rx="24" ry="15.2"/>
<path class="st9" d="M609.5,62.3c17.1-17.9,32.5,0.5,60.5,1.1s75.6-25.1,102.1,9c-6.9-16.6-51.8-49.6-86.7-48.5
	C650.6,25.1,626.1,40,609.5,62.3z"/>
<path class="st19" d="M679.2,222.5c-3.6-3.5-12.1-5.9-22-5.9c-9,0-16.8,2-20.9,4.9"/>
<g>
	<path class="st3" d="M946.6,534.1l84.1,264.2l0.3,0.8c1.2,3.9,1.8,8,1.7,11.9l-9.6,424.4c-0.4,18-15.3,32.2-33.3,31.8
		c-17.4-0.4-31.4-14.5-31.8-31.8L948.5,811l2,12.8l-84.1-264.2c-7-22.1,5.2-45.8,27.3-52.9C915.9,499.7,939.6,511.9,946.6,534.1z"/>
</g>
<path class="st4" d="M958,534.1l51.1,187.7L920.7,756L863,563.5c-9.1-25.9,4.6-54.3,30.6-63.4c25.9-9.1,54.3,4.6,63.4,30.6
	C957.3,531.8,957.7,533,958,534.1z"/>
<path class="st20" d="M919.1,1064.6H581.8l-1.2,151.7c1.9,62.9,68.7,97.2,154.5,95.3c85.8-1.9,183.1-15.3,184.1-89.6
	C919.6,1182,919.1,1064.6,919.1,1064.6z"/>
<path class="st7" d="M738.5,661c0-37.4-20.4-146-18.9-155.3l-17.1,7.8c0,0-37.6,59.6-37.6,149.9s0,360,0,360l36.2,26.6l37.4-31.3
	C738.4,1018.6,738.5,698.3,738.5,661z"/>
<path class="st21" d="M672.8,2151.5c-7.4-30.8-23.9-28.2-58.8-25.6c-63.5,4.8-109.5,46.8-138.8,53.6c-23.1,5.3-101.1,5.7-93.8,67.6
	l8.3,31.7l149.4-13.6l56.4-18.1l44.4,15.9l42.2-15.9C682,2223.2,678.9,2177.1,672.8,2151.5z"/>
<polygon class="st22" points="682,2247.2 682,2278.9 590.7,2278.9 587.8,2254.8 539.7,2278.9 389.7,2278.9 381.4,2247.2 "/>
<path class="st22" d="M550.5,2159.1c17.4-1.5,29.7,1.9,42.8,12c13.8,10.6,59.9,18,67.3-6c7.4-24-10.1-51.6-8.3-79.2
	c1.8-27.6,14.4-94.7,19.9-154.1l-116,13.7c0,49.6,31.1,150.8-8.6,207.9C544.6,2157.6,548,2159.3,550.5,2159.1z"/>
<path class="st21" d="M894.8,2151.5c-7.4-30.8-23.9-28.2-58.8-25.6c-63.5,4.8-109.5,46.8-138.8,53.6c-23.1,5.3-101.1,5.7-93.8,67.6
	l8.3,31.7l149.4-13.6l56.4-18.1l44.4,15.9l42.2-15.9C904,2223.2,901,2177.1,894.8,2151.5z"/>
<polygon class="st22" points="904,2247.2 904,2278.9 812.8,2278.9 809.8,2254.8 761.8,2278.9 611.7,2278.9 603.4,2247.2 "/>
<path class="st22" d="M772.5,2159.1c17.4-1.5,29.7,1.9,42.8,12c13.8,10.6,59.9,18,67.3-6c7.4-24-10.1-51.6-8.3-79.2
	c1.8-27.6,14.4-94.7,19.9-154.1l-116,13.7c0,49.6,31.1,150.8-8.6,207.9C766.6,2157.6,770,2159.3,772.5,2159.1z"/>
<polygon class="st23" points="585.3,1097.4 788.4,1118.2 680.4,2132.6 511.7,2132.6 "/>
<polygon class="st21" points="788.4,1118.2 719.5,1118.2 611.5,2132.6 680.4,2132.6 "/>
<polygon class="st21" points="702.6,1331.2 677.9,1257.3 721.6,1290.6 720.6,1320.8 "/>
<polygon class="st23" points="715.2,1107.7 919.3,1107.7 911.7,2127.9 745.8,2127.9 "/>
<rect x="653.9" y="1129.8" transform="matrix(0.5251 -0.8511 0.8511 0.5251 -675.7723 1198.1403)" class="st23" width="163.4" height="149.5"/>
<path class="st24" d="M581.8,1064.6l-0.4,50h337.9c-0.1-28.1-0.2-50-0.2-50H581.8z"/>
<rect x="663" y="1064.6" class="st25" width="76.4" height="50"/>
<path class="st6" d="M84.9,731.4c-19-9.8-51-27.3-51-27.3c-10.8-5.6-23.9,11.6,1.9,34.4c10.9,9.6,32.1,22.3,50,31.1L84.9,731.4z"/>
<path class="st6" d="M226.5,739c-24-17.4-50-39.8-75-39.4c-25.1,0.4-53.4-0.4-53.4-0.4c0.9,25.4,30.9,23.2,44.3,24
	c8.4,12.2,30.3,18.6,40.8,21.5S226.5,739,226.5,739z"/>
<path class="st3" d="M241.5,742.1c-28.8-7.7-16.5-14.6-43.6-15.1c-22.4-0.5-99,2-139.8,3.8C39,720.9,17.7,709,17.7,709
	c-10.8-5.6-23.9,11.6,1.9,34.4c10.9,9.6,32.1,22.3,50,31.1c0,0,92.2,6.8,100.5,7.3c8.3,0.6,30.9,11.8,54.2,20.1"/>
<path class="st3" d="M958.5,1208c-0.5,29.8-16.5,58.3-12.4,92.5c4.9,40.6,12.1,67.9,28.4,62.1c10.5-3.7-7.2-65.9,2.9-88.8
	c1.6-3.7,2.5-43.1,2.5-43.1L958.5,1208z"/>
<path class="st3" d="M1023.8,1184.4c1.2,52.9,21.7,38.9,27.2,133.5c1,16.9,9.2,49.6-13.5,71.5c-20.9,20.1-56.8,32.7-53.5,10.5
	c6.7-44.9-2.6-119.9-13.4-112.7l-6-44L1023.8,1184.4z"/>
<rect x="135.4" y="1547.3" class="st21" width="1247.6" height="289.7"/>
<text transform="matrix(1 0 0 1 371.239 1761.6698)" class="st22 st26 st27">VERIFIER</text>
<g>
	<g>
		<defs>
			<circle id="SVGID_1_" cx="1492.4" cy="623.5" r="351.7"/>
		</defs>
		<clipPath id="SVGID_2_">
			<use xlink:href="#SVGID_1_"  style="overflow:visible;"/>
		</clipPath>
		<g class="st28">
			<circle class="st29" cx="1492.4" cy="623.5" r="351.7"/>
			<g>
				<rect x="1215.7" y="581.4" class="st30" width="553.2" height="387.7"/>
				<g>
					<path class="st31" d="M1626.2,651.2c0-6.6-5.4-12.1-12.1-12.1h-37.3c-6.6,0-12.1,5.4-12.1,12.1c0,5.7,4,10.5,9.3,11.8v190.3
						h-5.4v45.2h53.7v-45.2h-5.4V663C1622.2,661.7,1626.2,656.9,1626.2,651.2z"/>
					<path class="st31" d="M1729.3,651.2c0-6.6-5.4-12.1-12.1-12.1h-37.3c-6.6,0-12.1,5.4-12.1,12.1c0,5.7,4,10.5,9.3,11.8v190.3
						h-5.4v45.2h53.7v-45.2h-5.4V663C1725.3,661.7,1729.3,656.9,1729.3,651.2z"/>
					<path class="st31" d="M1523.1,651.2c0-6.6-5.4-12.1-12.1-12.1h-37.3c-6.6,0-12.1,5.4-12.1,12.1c0,5.7,4,10.5,9.3,11.8v190.3
						h-5.4v45.2h53.7v-45.2h-5.4V663C1519.1,661.7,1523.1,656.9,1523.1,651.2z"/>
					<path class="st31" d="M1420,651.2c0-6.6-5.4-12.1-12.1-12.1h-37.3c-6.6,0-12.1,5.4-12.1,12.1c0,5.7,4,10.5,9.3,11.8v190.3h-5.4
						v45.2h53.7v-45.2h-5.4V663C1416,661.7,1420,656.9,1420,651.2z"/>
					<path class="st31" d="M1316.9,651.2c0-6.6-5.4-12.1-12.1-12.1h-37.3c-6.6,0-12.1,5.4-12.1,12.1c0,5.7,4,10.5,9.3,11.8v190.3
						h-5.4v45.2h53.7v-45.2h-5.4V663C1312.9,661.7,1316.9,656.9,1316.9,651.2z"/>
				</g>
				<rect x="1240.2" y="884.2" class="st32" width="504.3" height="60.3"/>
				<rect x="1215.7" y="915.2" class="st32" width="553.2" height="92.2"/>
				<polygon class="st32" points="1492.3,334 1215.7,509.2 1215.7,559.2 1215.7,641.7 1769,641.7 1769,559.2 1769,509.2 				"/>
				<polygon class="st33" points="1492.3,373.7 1252.2,525.8 1732.5,525.8 				"/>
				<polygon class="st34" points="1492.3,373.7 1252.2,525.8 1283.2,525.8 1507.8,383.5 				"/>
				<g>
					<path class="st35" d="M1371.8,566.6V582l-5.9,5.9l5.9,5.9v16.4l-9.1,9.1h-84.9v-12.1h13.4v-37.6h-13.4v-12.1h84.9L1371.8,566.6
						z M1306,581.9h51v-12.3h-51V581.9z M1357,593.9h-51v13.2h51V593.9z"/>
					<path class="st35" d="M1492.2,607.1v12.1H1450v-11.8h13.1l-4.7-6.6H1415l-4.7,6.6h13.2v11.8h-41.9v-12.1h11.5l28.6-38h-15.8
						v-11.7h37.6l37.2,49.7H1492.2z M1450.3,589.5l-13.5-18.9l-13.6,18.9H1450.3z"/>
					<path class="st35" d="M1611.6,569.5h-13.4v49.8h-15.5v-0.1l-0.1,0.1l-56.3-45.7v33.7h14.9v12.1h-42.7v-12.1h13.4v-37.7h-13.4
						v-12.1h29.4l55.8,45.4v-33.3h-14.8v-12.1h42.7V569.5z"/>
					<path class="st35" d="M1722.4,607.1v12.1h-45.8v-11.7h15l-24.6-17.6l-18.4,8.1v9h12.1v12.1h-40.3V607h13.4v-37.6h-13.4v-12.1
						h40.3v12.1h-12.1v19.3l44.6-19.9h-14v-11.6h41.6v12.1h-9l-32.9,15.8l33.1,21.7h10.4V607.1z"/>
				</g>
				<g>
					<path class="st29" d="M1364.1,561.4v15.5l-5.9,5.9l5.9,5.9V605l-9.1,9.1h-84.9V602h13.4v-37.6h-13.4v-12.1h84.9L1364.1,561.4z
						 M1298.3,576.7h51v-12.3h-51V576.7z M1349.3,588.8h-51V602h51V588.8z"/>
					<path class="st29" d="M1484.5,602v12.1h-42.3v-11.8h13.1l-4.7-6.6h-43.3l-4.7,6.6h13.2v11.8h-41.9V602h11.5l28.6-38h-15.8
						v-11.7h37.6L1473,602H1484.5z M1442.5,584.3l-13.5-18.9l-13.6,18.9H1442.5z"/>
					<path class="st29" d="M1603.8,564.3h-13.4v49.8h-15.5V614l-0.1,0.1l-56.3-45.7V602h14.9v12.1h-42.7V602h13.4v-37.7h-13.4v-12.1
						h29.4l55.8,45.4v-33.3h-14.8v-12.1h42.7V564.3z"/>
					<path class="st29" d="M1714.6,602v12.1h-45.8v-11.7h15l-24.6-17.6l-18.4,8.1v9h12.1V614h-40.3v-12h13.4v-37.6h-13.4v-12.1h40.3
						v12.1h-12.1v19.3l44.6-19.9h-14v-11.6h41.6v12.1h-9l-32.9,15.8l33.1,21.7h10.4V602z"/>
				</g>
			</g>
		</g>
	</g>
</g>
<g class="st36">
	<path class="st29" d="M390.6,1625.5l33.8,98.9h0.8l33.8-98.9h25.9L439,1755.2h-28.4l-45.9-129.7H390.6z"/>
	<path class="st29" d="M527.7,1646.1v33h56.6v20.6h-56.6v34.8h62.6v20.6h-86.7v-129.7h85.1v20.6H527.7z"/>
	<path class="st29" d="M682.4,1755.2l-21.6-43.7h-26v43.7h-24.3v-129.7h46.5c21.6,0,32.5,3.1,39.7,11.3c6.2,7,9.1,16.7,9.1,31.5
		c0,15-2.9,24.7-9.1,31.9c-3.1,3.5-7,6.2-11.5,7.8l23.9,47.2H682.4z M634.4,1690.6h17.5c10.1,0,21.4,0,25.1-2.5
		c3.9-2.7,4.9-8,4.9-19.6s-1-17.1-4.9-19.8c-3.5-2.5-15-2.3-25.1-2.3h-17.5V1690.6z"/>
	<path class="st29" d="M756.3,1755.2H732v-129.7h24.3V1755.2z"/>
	<path class="st29" d="M808.6,1646.1v35H864v20.6h-55.4v53.5h-24.3v-129.7h83.4v20.6H808.6z"/>
	<path class="st29" d="M909.8,1755.2h-24.3v-129.7h24.3V1755.2z"/>
	<path class="st29" d="M961.9,1646.1v33h56.6v20.6h-56.6v34.8h62.6v20.6h-86.7v-129.7h85.1v20.6H961.9z"/>
	<path class="st29" d="M1116.7,1755.2l-21.6-43.7h-26v43.7h-24.3v-129.7h46.5c21.6,0,32.5,3.1,39.7,11.3c6.2,7,9.1,16.7,9.1,31.5
		c0,15-2.9,24.7-9.1,31.9c-3.1,3.5-7,6.2-11.5,7.8l23.9,47.2H1116.7z M1068.7,1690.6h17.5c10.1,0,21.4,0,25.1-2.5
		c3.9-2.7,4.9-8,4.9-19.6s-1-17.1-4.9-19.8c-3.5-2.5-15-2.3-25.1-2.3h-17.5V1690.6z"/>
</g>
</svg>
