<?xml version="1.0" encoding="utf-8"?>
<!-- Generator: Adobe Illustrator 22.0.1, SVG Export Plug-In . SVG Version: 6.00 Build 0)  -->
<svg version="1.1" id="Layer_1" xmlns="http://www.w3.org/2000/svg" xmlns:xlink="http://www.w3.org/1999/xlink" x="0px" y="0px"
	 viewBox="0 0 2206.4 1893.1" style="enable-background:new 0 0 2206.4 1893.1;" xml:space="preserve">
<style type="text/css">
	.st0{fill:#FFB287;}
	.st1{fill:#F58D6C;}
	.st2{fill:#FFC69B;}
	.st3{fill:#DCE1E4;}
	.st4{fill:#B3BDC8;}
	.st5{fill:#384261;}
	.st6{fill:#1C283E;}
	.st7{fill:#628E9D;}
	.st8{fill:#6C98A7;}
	.st9{fill:#8AB6C5;}
	.st10{fill:#FFFFFF;}
	.st11{fill:#7E8E9E;}
	.st12{fill:#8E6134;}
	.st13{fill:#D2E4D4;}
	.st14{fill:#8BA382;}
	.st15{fill:#5E796C;}
	.st16{fill:none;stroke:#0E6057;stroke-width:11.88;stroke-linecap:round;stroke-miterlimit:10;}
	.st17{fill:#B4C6B6;}
	.st18{fill:#AABCAC;}
	.st19{fill:#4A6558;}
</style>
<g>
	<path class="st0" d="M184.6,566.3l94.2-180.1l-84-138.7c3.2-3.1,6.5-6.1,9.7-9.2c-1.5-20.1-2.5-24.3-2.6-24.2
		c-49.8-30.8-58.6-94.2-58.2-94.6c-0.5,0.5-9.1-79.8,28-110c36.1-29.3,46,18.2,46.3,18c5.3,66.3,44.8,95.6,44.5,96
		c42.2,49.8,64.1,81.4,75.3,101.5c0,0,28.5,42.6,36.6,88.2l0,0c0.6,2.5,1.1,5.3,1.5,8.3v-0.1c0,0,7.7,47.1,20.2,52.2l36.5,20.6
		L184.6,566.3z"/>
	<path class="st1" d="M222.8,246.7c-63.2,2.8,101.4,31.7,144.5,39.1c-11.5-33.9-29.5-60.8-29.5-60.8
		c-11.2-20.1-33.2-51.7-75.3-101.5c0.1-0.1-2.2-1.9-5.8-5.6c24.3,44.2,41.6,94.1,41.6,94.1S295.2,243.4,222.8,246.7z"/>
	<path class="st2" d="M199.9,68.5c5.3,6.6,19.1,11.7,31.4,11.8C225,66.4,219.7,48.8,218,27.5c-0.1,0.1-2.1-8.9-7.2-16.6
		C200,25.1,193.8,53.4,199.9,68.5z"/>
	<path class="st0" d="M22.4,233.4c-22.8,11.3-38.9,67.5,6.6,107.9l0,0c-10.2,20.4-22.7,63.1,22.8,103.5c0,0.1,0,0.2,0.1,0.4
		c-1.9,4.1-29.8,67.1,19.5,95.7c0,0.1,0,0.1,0,0.2c-0.4,3.4-10.5,95.3,77.2,95.8l24-1.8c81.4-4.5,84.4-1.6,166.4-9.1
		c24.4-2.4,47.8-18.4,68.1-39.9l0,0c0,0,9-8.3,19.7-10.7l0,0l106.2-3.9l-10.2-281.8l-92.1,5.7l0.3-0.4c-8.6-1.1-18.4-9-22.2-12.2
		c-0.5-0.4-0.9-0.9-1.5-1.3l-0.2-0.2l0,0c-23.2-19.3-61.9-33.9-84.7-35c-81.9-3.2-228.8-13.6-230.1-13.5
		C81.6,233.1,39.5,229.2,22.4,233.4z"/>
	<path class="st1" d="M148.6,636.8l24-1.8c81.4-4.5,84.4-1.6,166.4-9.1c24.4-2.4,47.8-18.4,68.1-39.9l0,0c0,0,9-8.3,19.7-10.6
		l68.2,1.4l1.9-34.1c-72.8-10.3-132.7,30.9-157.8,45.9s-147.6,12.1-164.9,12.6c-14.3,0.4-65.7-0.3-97.8-12.9
		C84.5,612.3,103.7,636.5,148.6,636.8z"/>
	<polygon class="st3" points="473.7,624.7 516.7,252.2 711.1,274.7 668,647.2 	"/>
	<polygon class="st4" points="473.7,624.7 481.5,557.1 675.9,579.5 668,647.2 	"/>
	<polygon class="st5" points="591,676.8 642.7,228.2 1409.4,320 1393.3,626.8 1295.8,758.2 	"/>
	<polygon class="st6" points="938.5,263.6 938.5,717.1 1155.9,742.2 1155.9,289.6 	"/>
	<polygon class="st6" points="591,676.8 603.2,571.2 1369,659.6 1295.8,758.2 	"/>
	<path class="st7" d="M518.3,594.8c1.3-11,11.3-19,22.4-17.8c11,1.3,19,11.3,17.7,22.4c-1.3,11-11.3,19-22.4,17.7
		C525,615.9,517,605.9,518.3,594.8L518.3,594.8z"/>
</g>
<g>
	<g>
		<rect x="1158.1" y="203.6" class="st6" width="56.6" height="41.1"/>
		<rect x="1347.2" y="203.6" class="st6" width="56.6" height="41.1"/>
	</g>
	<rect x="980.9" y="257.5" class="st5" width="600.2" height="1105"/>
	<polygon class="st6" points="1581,257.5 1581,250.6 1581,289.5 980.9,289.5 980.9,257.5 	"/>
	<rect x="970.6" y="237.4" class="st5" width="620.8" height="37.7"/>
	<g>
		<g>
			<rect x="1355.7" y="340.8" class="st6" width="59.9" height="960.6"/>
			<rect x="1364.4" y="340.8" class="st8" width="51.2" height="960.6"/>
			<rect x="1374.5" y="358.3" class="st9" width="41.1" height="943"/>
		</g>
		<g>
			<rect x="1460.4" y="340.8" class="st6" width="59.9" height="960.6"/>
			<rect x="1469.1" y="340.8" class="st8" width="51.2" height="960.6"/>
			<rect x="1479.2" y="358.3" class="st9" width="41.1" height="943"/>
		</g>
		<g>
			<rect x="1251" y="340.8" class="st6" width="59.9" height="960.6"/>
			<rect x="1259.7" y="340.8" class="st8" width="51.2" height="960.6"/>
			<rect x="1269.8" y="358.3" class="st9" width="41.1" height="943"/>
		</g>
		<g>
			<rect x="1146.3" y="340.8" class="st6" width="59.9" height="960.6"/>
			<rect x="1155" y="340.8" class="st8" width="51.2" height="960.6"/>
			<rect x="1165.1" y="358.3" class="st9" width="41.1" height="943"/>
		</g>
		<g>
			<rect x="1041.6" y="340.8" class="st6" width="59.9" height="960.6"/>
			<rect x="1050.3" y="340.8" class="st8" width="51.2" height="960.6"/>
			<rect x="1060.4" y="358.3" class="st9" width="41.1" height="943"/>
		</g>
	</g>
	<g>
		<rect x="1019.2" y="77.7" class="st5" width="523.5" height="135.1"/>
		<g>
			<g>
				<path class="st6" d="M1117.2,164c0,10.4-8.9,18.7-22.5,18.7c-15.6,0-23.8-9.4-23.8-9.4l8-8.6c0,0,6.9,7,16.5,7
					c4.7,0,7.9-2.7,7.9-6.1c0-4-3-6.9-14.2-11.3c-8.6-3.4-14.9-8.9-14.9-17.9c0-10.2,8.6-17.7,21.7-17.7c13.5,0,21.1,8,21.1,8
					l-8,8.6c0,0-5.2-5.6-12.9-5.6c-5.3,0-7.9,2.9-7.9,5.6c0,3.7,2.5,5.9,11.2,9.3C1108.7,148.2,1117.2,153.9,1117.2,164z"/>
				<path class="st6" d="M1128.3,181.8v-62.4h45.9v11.9h-32.3v12.9h27.8v11.1h-27.8v14.8h33.1v11.8h-46.7V181.8z"/>
				<path class="st6" d="M1186.3,119.5h27.9c13.4,0,22.5,8.3,22.5,20.2c0,8.9-5.1,15.9-13.1,18.8l15.8,23.3h-15.8l-14-21.5h-9.6
					v21.5h-13.6L1186.3,119.5L1186.3,119.5z M1199.9,131v18.9h12.6c6.7,0,10.6-3.9,10.6-9.4s-3.9-9.4-10.6-9.4h-12.6V131z"/>
				<path class="st6" d="M1239.7,119.5h15.3l16.7,44.8l16.7-44.8h14.6l-24.9,62.4h-13.5L1239.7,119.5z"/>
				<path class="st6" d="M1310.5,119.5h14v62.4h-14V119.5z"/>
				<path class="st6" d="M1369.1,118.6c16.5,0,24,10.1,24,10.1l-10,8.7c0,0-4.5-6.2-14.2-6.2c-11.1,0-19.2,8.5-19.2,19.5
					c0,11.1,8.1,19.6,19.2,19.6c10.2,0,15.1-7.2,15.1-7.2l9.6,8.6c0,0-7.8,11.1-25,11.1c-18.6,0-32.5-13.8-32.5-31.8
					C1336.1,132.9,1350.5,118.6,1369.1,118.6z"/>
				<path class="st6" d="M1402.9,181.8v-62.4h45.9v11.9h-32.3v12.9h27.8v11.1h-27.8v14.8h33.1v11.8h-46.7V181.8z"/>
				<path class="st6" d="M1501.8,164c0,10.4-8.9,18.7-22.5,18.7c-15.6,0-23.8-9.4-23.8-9.4l8-8.6c0,0,6.9,7,16.5,7
					c4.7,0,7.9-2.7,7.9-6.1c0-4-3-6.9-14.2-11.3c-8.6-3.4-14.9-8.9-14.9-17.9c0-10.2,8.6-17.7,21.7-17.7c13.5,0,21.1,8,21.1,8
					l-8,8.6c0,0-5.2-5.6-12.9-5.6c-5.3,0-7.9,2.9-7.9,5.6c0,3.7,2.5,5.9,11.2,9.3C1493.4,148.2,1501.8,153.9,1501.8,164z"/>
			</g>
			<g>
				<path class="st10" d="M1111.8,158.6c0,10.4-8.9,18.7-22.5,18.7c-15.6,0-23.8-9.4-23.8-9.4l8-8.6c0,0,6.9,7,16.5,7
					c4.7,0,7.9-2.7,7.9-6.1c0-4-3-6.9-14.2-11.3c-8.6-3.4-14.9-8.9-14.9-17.9c0-10.2,8.6-17.7,21.7-17.7c13.5,0,21.1,8,21.1,8
					l-8,8.6c0,0-5.2-5.6-12.9-5.6c-5.3,0-7.9,2.9-7.9,5.6c0,3.7,2.5,5.9,11.2,9.3C1103.3,142.8,1111.8,148.5,1111.8,158.6z"/>
				<path class="st10" d="M1122.9,176.4V114h45.9v11.9h-32.3v12.9h27.8v11.1h-27.8v14.8h33.1v11.8h-46.7V176.4z"/>
				<path class="st10" d="M1180.8,114.1h27.9c13.4,0,22.5,8.3,22.5,20.2c0,8.9-5.1,15.9-13.1,18.8l15.8,23.3h-15.8l-14-21.5h-9.6
					v21.5h-13.6L1180.8,114.1L1180.8,114.1z M1194.5,125.6v18.9h12.6c6.7,0,10.6-3.9,10.6-9.4s-3.9-9.4-10.6-9.4h-12.6V125.6z"/>
				<path class="st10" d="M1234.3,114.1h15.3l16.7,44.8l16.7-44.8h14.6l-24.9,62.4h-13.5L1234.3,114.1z"/>
				<path class="st10" d="M1305.1,114.1h14v62.4h-14V114.1z"/>
				<path class="st10" d="M1363.7,113.2c16.5,0,24,10.1,24,10.1l-10,8.7c0,0-4.5-6.2-14.2-6.2c-11.1,0-19.2,8.5-19.2,19.5
					c0,11.1,8.1,19.6,19.2,19.6c10.2,0,15.1-7.2,15.1-7.2l9.6,8.6c0,0-7.8,11.1-25,11.1c-18.6,0-32.5-13.8-32.5-31.8
					C1330.7,127.5,1345.1,113.2,1363.7,113.2z"/>
				<path class="st10" d="M1397.5,176.4V114h45.9v11.9h-32.2v12.9h27.8v11.1h-27.8v14.8h33.1v11.8h-46.8V176.4z"/>
				<path class="st10" d="M1496.4,158.6c0,10.4-8.9,18.7-22.5,18.7c-15.6,0-23.8-9.4-23.8-9.4l8-8.6c0,0,6.9,7,16.5,7
					c4.7,0,7.9-2.7,7.9-6.1c0-4-3-6.9-14.2-11.3c-8.6-3.4-14.9-8.9-14.9-17.9c0-10.2,8.6-17.7,21.7-17.7c13.5,0,21.1,8,21.1,8
					l-8,8.6c0,0-5.2-5.6-12.9-5.6c-5.3,0-7.9,2.9-7.9,5.6c0,3.7,2.5,5.9,11.2,9.3C1488,142.8,1496.4,148.5,1496.4,158.6z"/>
			</g>
		</g>
	</g>
</g>
<g>
	<rect x="1384.5" y="614.5" class="st3" width="670.6" height="140.7"/>
	<g>
		<path class="st5" d="M1443.6,695.6v22.3h-13.4v-66.2h20c13.7,0,23,9.4,23,21.8c0,12.7-9.4,22-23.3,22h-6.3V695.6z M1443.6,663.2
			v21.3h5.6c6.5,0,10.8-4.4,10.8-10.6s-4.2-10.7-10.7-10.7H1443.6z"/>
		<path class="st5" d="M1511,651.7h13.2v45.2c0,13.4-9.2,21.9-21.8,21.9c-12.8,0-21.6-8.2-21.6-21.6v-45.5h13.5v45.6
			c0,6.1,3.2,9.6,8.3,9.6c5.2,0,8.4-3.5,8.4-9.6V651.7z"/>
		<path class="st5" d="M1535.1,651.7h23.7c11.6,0,18.8,7.1,18.8,16.8c0,6.5-3.3,11.8-8.9,14.7c6.4,2.8,10.3,8.8,10.3,16.1
			c0,10.5-8.1,18.5-20.4,18.5h-23.5V651.7z M1548.5,679h7.2c5.3,0,8.6-3.6,8.6-8.5c0-5-3.2-8.4-8.4-8.4h-7.4L1548.5,679L1548.5,679z
			 M1548.5,707.5h7.8c5.8,0,9.5-4.1,9.5-9.5s-3.6-9.3-9.4-9.3h-7.8v18.8H1548.5z"/>
		<path class="st5" d="M1588.5,651.7h13.4v54h21.1v12.2h-34.5V651.7z"/>
		<path class="st5" d="M1630.6,651.7h13.8v66.2h-13.8V651.7z"/>
		<path class="st5" d="M1685.4,693.5h12.9v3.4c0,13.4-9,21.9-21.5,21.9c-12.8,0-21.6-8.2-21.6-21.6v-24.6c0-13.4,9.3-21.8,21.9-21.8
			c12.5,0,21.2,8.1,21.2,21.5v2.7h-12.9v-2.8c0-6-3.2-9.6-8.4-9.6c-5.1,0-8.3,3.6-8.3,9.6v25c0,6.1,3.2,9.6,8.3,9.6
			c5.2,0,8.4-3.5,8.4-9.6V693.5z"/>
		<path class="st5" d="M1730.9,668.4c0-10.5,8.7-17.6,19.5-17.6c16.5,0,20.1,14.4,20.1,14.4l-10.9,4.3c0,0-2.3-7.6-9-7.6
			c-3.6,0-6.4,2.3-6.4,5.8c0,4.5,3.5,7.4,10.1,11.3c8.4,5.1,15.4,11.4,15.4,21c0,11.9-9,18.8-20.4,18.8c-17.1,0-21.5-16.4-21.5-16.4
			l10.9-4.3c0,0,3.4,9.6,10.6,9.6c4.3,0,7.2-2.7,7.2-6.8c0-5-4-7.9-11.2-12.3C1737.1,683.6,1730.9,677,1730.9,668.4z"/>
		<path class="st5" d="M1825.1,717.9h-14l-3.9-14.1H1789l-3.8,14.1H1772l20.3-66.2h12.7L1825.1,717.9z M1791.5,693.8h13.2l-6.6-23.8
			L1791.5,693.8z"/>
		<path class="st5" d="M1844.2,692.7v25.2h-13.4v-66.2h35.4v11.8h-22v17.7h18.2v11.4L1844.2,692.7L1844.2,692.7z"/>
		<path class="st5" d="M1873.8,717.9v-66.2h35.9v11.8h-22.5v14.7h18.7v11.1h-18.7V706h23v11.9H1873.8z"/>
		<path class="st5" d="M1941.3,663.8v54.1h-13.4v-54.1H1914v-12.1h41.1v12.1H1941.3z"/>
		<path class="st5" d="M1977,693.3l-19.1-41.6h14.9l11.2,28.2l11.2-28.2h14.2l-19.1,41.6v24.6H1977L1977,693.3L1977,693.3z"/>
	</g>
</g>
<g>
	<rect x="1303.5" y="795.9" class="st3" width="832.7" height="863.4"/>
	<rect x="1276.5" y="744.6" class="st3" width="886.7" height="51.3"/>
	<rect x="1303.5" y="795.9" class="st11" width="832.7" height="18.5"/>
	<g>
		<g>
			<rect x="1351" y="848.9" class="st11" width="102.6" height="158.2"/>
			<rect x="1359.1" y="848.9" class="st6" width="102.6" height="158.2"/>
			<rect x="1367.3" y="857" class="st5" width="94.5" height="150.1"/>
		</g>
		<g>
			<rect x="1507.8" y="848.9" class="st11" width="102.6" height="158.2"/>
			<rect x="1515.9" y="848.9" class="st6" width="102.6" height="158.2"/>
			<rect x="1524" y="857" class="st5" width="94.5" height="150.1"/>
		</g>
		<g>
			<rect x="1664.5" y="848.9" class="st11" width="102.6" height="158.2"/>
			<rect x="1672.6" y="848.9" class="st6" width="102.6" height="158.2"/>
			<rect x="1680.7" y="857" class="st5" width="94.5" height="150.1"/>
		</g>
		<g>
			<rect x="1821.2" y="848.9" class="st11" width="102.6" height="158.2"/>
			<rect x="1829.3" y="848.9" class="st6" width="102.6" height="158.2"/>
			<rect x="1837.4" y="857" class="st5" width="94.5" height="150.1"/>
		</g>
		<g>
			<rect x="1977.9" y="848.9" class="st11" width="102.6" height="158.2"/>
			<rect x="1986" y="848.9" class="st6" width="102.6" height="158.2"/>
			<rect x="1994.2" y="857" class="st5" width="94.5" height="150.1"/>
		</g>
	</g>
	<g>
		<g>
			<rect x="1351" y="1043.4" class="st11" width="102.6" height="158.2"/>
			<rect x="1359.1" y="1043.4" class="st6" width="102.6" height="158.2"/>
			<rect x="1367.3" y="1051.5" class="st5" width="94.5" height="150.1"/>
		</g>
		<g>
			<rect x="1507.8" y="1043.4" class="st11" width="102.6" height="158.2"/>
			<rect x="1515.9" y="1043.4" class="st6" width="102.6" height="158.2"/>
			<rect x="1524" y="1051.5" class="st5" width="94.5" height="150.1"/>
		</g>
		<g>
			<rect x="1664.5" y="1043.4" class="st11" width="102.6" height="158.2"/>
			<rect x="1672.6" y="1043.4" class="st6" width="102.6" height="158.2"/>
			<rect x="1680.7" y="1051.5" class="st5" width="94.5" height="150.1"/>
		</g>
		<g>
			<rect x="1821.2" y="1043.4" class="st11" width="102.6" height="158.2"/>
			<rect x="1829.3" y="1043.4" class="st6" width="102.6" height="158.2"/>
			<rect x="1837.4" y="1051.5" class="st5" width="94.5" height="150.1"/>
		</g>
		<g>
			<rect x="1977.9" y="1043.4" class="st11" width="102.6" height="158.2"/>
			<rect x="1986" y="1043.4" class="st6" width="102.6" height="158.2"/>
			<rect x="1994.2" y="1051.5" class="st5" width="94.5" height="150.1"/>
		</g>
	</g>
	<g>
		<g>
			<rect x="1351" y="1238" class="st12" width="102.6" height="158.2"/>
			<rect x="1359.1" y="1238" class="st6" width="102.6" height="158.2"/>
			<rect x="1367.3" y="1246.1" class="st5" width="94.5" height="150.1"/>
		</g>
		<g>
			<rect x="1507.8" y="1238" class="st11" width="102.6" height="158.2"/>
			<rect x="1515.9" y="1238" class="st6" width="102.6" height="158.2"/>
			<rect x="1524" y="1246.1" class="st5" width="94.5" height="150.1"/>
		</g>
		<g>
			<rect x="1664.5" y="1238" class="st11" width="102.6" height="158.2"/>
			<rect x="1672.6" y="1238" class="st6" width="102.6" height="158.2"/>
			<rect x="1680.7" y="1246.1" class="st5" width="94.5" height="150.1"/>
		</g>
		<g>
			<rect x="1821.2" y="1238" class="st11" width="102.6" height="158.2"/>
			<rect x="1829.3" y="1238" class="st6" width="102.6" height="158.2"/>
			<rect x="1837.4" y="1246.1" class="st5" width="94.5" height="150.1"/>
		</g>
		<g>
			<rect x="1977.9" y="1238" class="st11" width="102.6" height="158.2"/>
			<rect x="1986" y="1238" class="st6" width="102.6" height="158.2"/>
			<rect x="1994.2" y="1246.1" class="st5" width="94.5" height="150.1"/>
		</g>
	</g>
	<g>
		<g>
			<rect x="1351" y="1432.5" class="st12" width="102.6" height="158.2"/>
			<rect x="1359.1" y="1432.5" class="st6" width="102.6" height="158.2"/>
			<rect x="1367.3" y="1440.6" class="st5" width="94.5" height="150.1"/>
		</g>
		<g>
			<rect x="1507.8" y="1432.5" class="st11" width="102.6" height="158.2"/>
			<rect x="1515.9" y="1432.5" class="st6" width="102.6" height="158.2"/>
			<rect x="1524" y="1440.6" class="st5" width="94.5" height="150.1"/>
		</g>
		<g>
			<rect x="1652.5" y="1462.6" class="st11" width="126.6" height="212.3"/>
			<rect x="1660.6" y="1462.6" class="st6" width="126.6" height="212.3"/>
			<rect x="1668.7" y="1470.7" class="st5" width="118.5" height="204.2"/>
		</g>
		<g>
			<rect x="1821.2" y="1432.5" class="st11" width="102.6" height="158.2"/>
			<rect x="1829.3" y="1432.5" class="st6" width="102.6" height="158.2"/>
			<rect x="1837.4" y="1440.6" class="st5" width="94.5" height="150.1"/>
		</g>
		<g>
			<rect x="1977.9" y="1432.5" class="st11" width="102.6" height="158.2"/>
			<rect x="1986" y="1432.5" class="st6" width="102.6" height="158.2"/>
			<rect x="1994.2" y="1440.6" class="st5" width="94.5" height="150.1"/>
		</g>
	</g>
</g>
<rect x="839.7" y="1269.5" class="st13" width="579.9" height="406.4"/>
<g>
	<path class="st14" d="M1269.9,1342.8c0-7-5.7-12.7-12.7-12.7h-39c-7,0-12.7,5.7-12.7,12.7c0,6,4.2,11,9.8,12.3v199.5h-5.7v47.4
		h56.3v-47.4h-5.7v-199.5C1265.8,1353.8,1269.9,1348.7,1269.9,1342.8z"/>
	<path class="st14" d="M1378,1342.8c0-7-5.7-12.7-12.7-12.7h-39.1c-7,0-12.7,5.7-12.7,12.7c0,6,4.2,11,9.8,12.3v199.5h-5.7v47.4
		h56.3v-47.4h-5.7v-199.5C1373.8,1353.8,1378,1348.7,1378,1342.8z"/>
	<path class="st14" d="M1161.9,1342.8c0-7-5.7-12.7-12.7-12.7h-39.1c-7,0-12.7,5.7-12.7,12.7c0,6,4.2,11,9.8,12.3v199.5h-5.7v47.4
		h56.3v-47.4h-5.7v-199.5C1157.7,1353.8,1161.9,1348.7,1161.9,1342.8z"/>
	<path class="st14" d="M1053.8,1342.8c0-7-5.7-12.7-12.7-12.7H1002c-7,0-12.7,5.7-12.7,12.7c0,6,4.2,11,9.8,12.3v199.5h-5.7v47.4
		h56.3v-47.4h-5.7v-199.5C1049.6,1353.8,1053.8,1348.7,1053.8,1342.8z"/>
	<path class="st14" d="M945.7,1342.8c0-7-5.7-12.7-12.7-12.7h-39.1c-7,0-12.7,5.7-12.7,12.7c0,6,4.2,11,9.8,12.3v199.5h-5.7v47.4
		h56.3v-47.4h-5.7v-199.5C941.5,1353.8,945.7,1348.7,945.7,1342.8z"/>
</g>
<rect x="865.3" y="1587" class="st15" width="528.6" height="63.2"/>
<rect x="839.7" y="1619.4" class="st15" width="579.9" height="63.2"/>
<path class="st16" d="M1331.7,1096.6"/>
<rect x="776.4" y="1651.7" class="st5" width="1430" height="241.4"/>
<g>
	<path class="st10" d="M1151.6,1712.4l29.3,87.5h0.7l29.2-87.5h27.4l-42.1,120.1h-29.7l-41.9-120.1H1151.6z"/>
	<path class="st10" d="M1335.5,1734h-56v26.8h51.5v21.6h-51.5v28.4h57.4v21.6h-82.7v-120.1h81.4v21.7H1335.5z"/>
	<path class="st10" d="M1354.4,1712.4h44.3c20.3,0,30.6,3.1,37.6,10.8c5.9,6.7,8.8,16,8.8,29.7c0,12.8-2.3,21.4-7.6,27.9
		c-2.9,3.4-6.5,6.1-10.8,8.1l22.3,43.6h-28.1l-19.6-39.2h-21.4v39.2h-25.6v-120.1H1354.4z M1379.6,1771.4h15.3
		c9.2,0,18.2,0,21.2-2.2c3.2-2.2,3.8-6.7,3.8-16.4c0-9.7-0.5-14.2-3.8-16.6c-2.9-2.2-12.2-2.2-21.2-2.2h-15.3V1771.4z"/>
	<path class="st10" d="M1494.1,1832.4h-25.6v-120.1h25.6V1832.4z"/>
	<path class="st10" d="M1598.1,1734h-54v29.2h50.4v21.6h-50.4v47.7h-25.6v-120.1h79.6V1734z"/>
	<path class="st10" d="M1639,1832.4h-25.6v-120.1h25.6V1832.4z"/>
	<path class="st10" d="M1744.8,1734h-56v26.8h51.5v21.6h-51.5v28.4h57.4v21.6h-82.8v-120.1h81.4V1734z"/>
	<path class="st10" d="M1763.7,1712.4h44.3c20.3,0,30.6,3.1,37.6,10.8c5.9,6.7,8.8,16,8.8,29.7c0,12.8-2.3,21.4-7.6,27.9
		c-2.9,3.4-6.5,6.1-10.8,8.1l22.3,43.6h-28.1l-19.6-39.2h-21.4v39.2h-25.6v-120.1H1763.7z M1788.9,1771.4h15.3
		c9.2,0,18.2,0,21.2-2.2c3.2-2.2,3.8-6.7,3.8-16.4c0-9.7-0.5-14.2-3.8-16.6c-2.9-2.2-12.2-2.2-21.2-2.2h-15.3V1771.4z"/>
</g>
<polygon class="st15" points="1129.6,1010.3 839.7,1193.9 839.7,1246.3 839.7,1332.8 1419.6,1332.8 1419.6,1246.3 1419.6,1193.9 "/>
<polygon class="st17" points="1129.6,1051.8 877.9,1211.2 1381.3,1211.2 "/>
<polygon class="st18" points="1129.6,1051.8 877.9,1211.2 910.4,1211.2 1145.8,1062.1 "/>
<g>
	<path class="st19" d="M1003.3,1254v16.2l-6.2,6.2l6.2,6.2v17.2l-9.6,9.6h-89v-12.7h14v-39.4h-14v-12.7h89L1003.3,1254z M934.3,1270
		h53.5v-12.9h-53.5V1270z M987.8,1282.6h-53.5v13.9h53.5V1282.6z"/>
	<path class="st19" d="M1129.5,1296.5v12.7h-44.3v-12.4h13.8l-4.9-6.9h-45.4l-4.9,6.9h13.9v12.4h-43.9v-12.7h12.1l30-39.8h-16.6
		v-12.2h39.4l39,52.1L1129.5,1296.5L1129.5,1296.5z M1085.5,1278l-14.2-19.8L1057,1278H1085.5z"/>
	<path class="st19" d="M1254.6,1257.1h-14.1v52.2h-16.2v-0.1l-0.1,0.1l-59-47.9v35.3h15.6v12.6H1136v-12.6h14v-39.5h-14v-12.6h30.8
		l58.5,47.5v-34.9h-15.6v-12.6h44.8v12.5H1254.6z"/>
	<path class="st19" d="M1370.7,1296.5v12.7h-48V1297h15.7l-25.8-18.5l-19.3,8.5v9.5h12.7v12.7h-42.3v-12.7h14v-39.4h-14v-12.7h42.3
		v12.7h-12.7v20.2l46.7-20.8h-14.7v-12.2h43.6v12.7h-9.4l-34.5,16.6l34.7,22.8h11V1296.5z"/>
</g>
<g>
	<path class="st10" d="M995.2,1248.6v16.2l-6.2,6.2l6.2,6.2v17.2l-9.6,9.6h-89v-12.7h14v-39.4h-14v-12.7h89L995.2,1248.6z
		 M926.2,1264.6h53.5v-12.9h-53.5V1264.6z M979.7,1277.2h-53.5v13.9h53.5V1277.2z"/>
	<path class="st10" d="M1121.4,1291.1v12.7h-44.3v-12.4h13.8l-4.9-6.9h-45.4l-4.9,6.9h13.9v12.4h-43.9v-12.7h12.1l30-39.8h-16.6
		v-12.2h39.4l39,52.1L1121.4,1291.1L1121.4,1291.1z M1077.4,1272.6l-14.2-19.8l-14.3,19.8H1077.4z"/>
	<path class="st10" d="M1246.5,1251.7h-14.1v52.2h-16.2v-0.1l-0.1,0.1l-59-47.9v35.3h15.6v12.6h-44.8v-12.6h14v-39.5h-14v-12.6h30.8
		l58.5,47.5v-34.9h-15.6v-12.6h44.8v12.5H1246.5z"/>
	<path class="st10" d="M1362.6,1291.1v12.7h-48v-12.2h15.7l-25.8-18.5l-19.3,8.5v9.5h12.7v12.7h-42.3v-12.7h14v-39.4h-14V1239h42.3
		v12.7h-12.7v20.2l46.7-20.8h-14.7v-12.2h43.6v12.7h-9.4l-34.5,16.6l34.7,22.8h11V1291.1z"/>
</g>
</svg>
