<?xml version="1.0" encoding="UTF-8" standalone="no"?><svg xmlns="http://www.w3.org/2000/svg" xmlns:xlink="http://www.w3.org/1999/xlink" contentScriptType="application/ecmascript" contentStyleType="text/css" height="693px" preserveAspectRatio="none" style="width:539px;height:693px;" version="1.1" viewBox="0 0 539 693" width="539.55px" zoomAndPan="magnify"><defs><filter height="300%" id="f1ldaukotxzoke" width="300%" x="-1" y="-1"><feGaussianBlur result="blurOut" stdDeviation="1.1"/><feColorMatrix in="blurOut" result="blurOut2" type="matrix" values="0 0 0 0 0 0 0 0 0 0 0 0 0 0 0 0 0 0 .4 0"/><feOffset dx="2.2" dy="2.2" in="blurOut2" result="blurOut3"/><feBlend in="SourceGraphic" in2="blurOut3" mode="normal"/></filter></defs><g><rect fill="#FFFFFF" height="30.4047" rx="4.125" ry="4.125" style="stroke: #4C4C4C; stroke-width: 1.1;" width="100.1" x="222.75" y="1.1"/><text fill="#000000" font-family="sans-serif" font-size="9.9" lengthAdjust="spacingAndGlyphs" textLength="79.75" x="232.925" y="14.1271">TheOrgBook Beta</text><text fill="#000000" font-family="sans-serif" font-size="9.9" lengthAdjust="spacingAndGlyphs" textLength="91.3" x="227.15" y="26.5794">Network Architecture</text><!--cluster The Internet--><path d="M40.8681,308.7047 C40.8681,307.0547 41.9681,305.9547 43.6181,305.9547 C45.2681,305.9547 46.3681,307.0547 46.3681,308.7047 C46.3681,307.0547 47.4681,305.9547 49.1181,305.9547 C50.7681,305.9547 51.8681,307.0547 51.8681,308.7047 C51.8681,307.0547 52.9681,305.9547 54.6181,305.9547 C56.2681,305.9547 57.3681,307.0547 57.3681,308.7047 C57.3681,307.0547 58.4681,305.9547 60.1181,305.9547 C61.7681,305.9547 62.8681,307.0547 62.8681,308.7047 C62.8681,307.0547 63.9681,305.9547 65.6181,305.9547 C67.2681,305.9547 68.3681,307.0547 68.3681,308.7047 C68.3681,307.0547 69.4681,305.9547 71.1181,305.9547 C72.7681,305.9547 73.8681,307.0547 73.8681,308.7047 C73.8681,307.0547 74.9681,305.9547 76.6181,305.9547 C78.2681,305.9547 79.3681,307.0547 79.3681,308.7047 C79.3681,307.0547 80.4681,305.9547 82.1181,305.9547 C83.7681,305.9547 84.8681,307.0547 84.8681,308.7047 C84.8681,307.0547 85.9681,305.9547 87.6181,305.9547 C89.2681,305.9547 90.3681,307.0547 90.3681,308.7047 C90.3681,307.0547 91.4681,305.9547 93.1181,305.9547 C94.7681,305.9547 95.8681,307.0547 95.8681,308.7047 C95.8681,307.0547 96.9681,305.9547 98.6181,305.9547 C100.2681,305.9547 101.3681,307.0547 101.3681,308.7047 C101.3681,307.0547 102.4681,305.9547 104.1181,305.9547 C105.7681,305.9547 106.8681,307.0547 106.8681,308.7047 C106.8681,307.0547 107.9681,305.9547 109.6181,305.9547 C111.2681,305.9547 112.3681,307.0547 112.3681,308.7047 C112.3681,307.0547 113.4681,305.9547 115.1181,305.9547 C116.7681,305.9547 117.8681,307.0547 117.8681,308.7047 C117.8681,307.0547 118.9681,305.9547 120.6181,305.9547 C122.2681,305.9547 123.3681,307.0547 123.3681,308.7047 C123.3681,307.0547 124.4681,305.9547 126.1181,305.9547 C127.7681,305.9547 128.8681,307.0547 128.8681,308.7047 C128.8681,307.0547 129.9681,305.9547 131.6181,305.9547 C133.2681,305.9547 134.3681,307.0547 134.3681,308.7047 C134.3681,307.0547 135.4681,305.9547 137.1181,305.9547 C138.7681,305.9547 139.8681,307.0547 139.8681,308.7047 C139.8681,307.0547 140.9681,305.9547 142.6181,305.9547 C144.2681,305.9547 145.3681,307.0547 145.3681,308.7047 C145.3681,307.0547 146.4681,305.9547 148.1181,305.9547 C149.7681,305.9547 150.8681,307.0547 150.8681,308.7047 C150.8681,307.0547 151.9681,305.9547 153.6181,305.9547 C155.2681,305.9547 156.3681,307.0547 156.3681,308.7047 C156.3681,307.0547 157.4681,305.9547 159.1181,305.9547 C160.7681,305.9547 161.8681,307.0547 161.8681,308.7047 C161.8681,307.0547 162.9681,305.9547 164.6181,305.9547 C166.2681,305.9547 167.3681,307.0547 167.3681,308.7047 C167.3681,307.0547 168.4681,305.9547 170.1181,305.9547 C171.7681,305.9547 172.8681,307.0547 172.8681,308.7047 C172.8681,307.0547 173.9681,305.9547 175.6181,305.9547 C177.2681,305.9547 178.3681,307.0547 178.3681,308.7047 C178.3681,307.0547 179.4681,305.9547 181.1181,305.9547 C182.7681,305.9547 183.8681,307.0547 183.8681,308.7047 C183.8681,307.0547 184.9681,305.9547 186.6181,305.9547 C188.2681,305.9547 189.3681,307.0547 189.3681,308.7047 C189.3681,307.0547 190.4681,305.9547 192.1181,305.9547 C193.7681,305.9547 194.8681,307.0547 194.8681,308.7047 C194.8681,307.0547 195.9681,305.9547 197.6181,305.9547 C199.2681,305.9547 200.3681,307.0547 200.3681,308.7047 C200.3681,307.0547 201.4681,305.9547 203.1181,305.9547 C204.7681,305.9547 205.8681,307.0547 205.8681,308.7047 C205.8681,307.0547 206.9681,305.9547 208.6181,305.9547 C210.2681,305.9547 211.3681,307.0547 211.3681,308.7047 C211.3681,307.0547 212.4681,305.9547 214.1181,305.9547 C215.7681,305.9547 216.8681,307.0547 216.8681,308.7047 C216.8681,307.0547 217.9681,305.9547 219.6181,305.9547 C221.2681,305.9547 222.3681,307.0547 222.3681,308.7047 C222.3681,307.0547 223.4681,305.9547 225.1181,305.9547 C226.7681,305.9547 227.8681,307.0547 227.8681,308.7047 C227.8681,307.0547 228.9681,305.9547 230.6181,305.9547 C232.2681,305.9547 233.3681,307.0547 233.3681,308.7047 C233.3681,307.0547 234.4681,305.9547 236.1181,305.9547 C237.7681,305.9547 238.8681,307.0547 238.8681,308.7047 C238.8681,307.0547 239.9681,305.9547 241.6181,305.9547 C243.2681,305.9547 244.3681,307.0547 244.3681,308.7047 C244.3681,307.0547 245.4681,305.9547 247.1181,305.9547 C248.7681,305.9547 249.8681,307.0547 249.8681,308.7047 C249.8681,307.0547 250.9681,305.9547 252.6181,305.9547 C254.2681,305.9547 255.3681,307.0547 255.3681,308.7047 C255.3681,307.0547 256.4681,305.9547 258.1181,305.9547 C259.7681,305.9547 260.8681,307.0547 260.8681,308.7047 C260.8681,307.0547 261.9681,305.9547 263.6181,305.9547 C265.2681,305.9547 266.3681,307.0547 266.3681,308.7047 C266.3681,307.0547 267.4681,305.9547 269.1181,305.9547 C270.7681,305.9547 271.8681,307.0547 271.8681,308.7047 C271.8681,307.0547 272.9681,305.9547 274.6181,305.9547 C276.2681,305.9547 277.3681,307.0547 277.3681,308.7047 C277.3681,307.0547 278.4681,305.9547 280.1181,305.9547 C281.7681,305.9547 282.8681,307.0547 282.8681,308.7047 C282.8681,307.0547 283.9681,305.9547 285.6181,305.9547 C287.2681,305.9547 288.3681,307.0547 288.3681,308.7047 C288.3681,307.0547 289.4681,305.9547 291.1181,305.9547 C292.7681,305.9547 293.8681,307.0547 293.8681,308.7047 C293.8681,307.0547 294.9681,305.9547 296.6181,305.9547 C298.2681,305.9547 299.3681,307.0547 299.3681,308.7047 C299.3681,307.0547 300.4681,305.9547 302.1181,305.9547 C303.7681,305.9547 304.8681,307.0547 304.8681,308.7047 C306.5181,308.7047 307.6181,309.8047 307.6181,311.4547 C307.6181,313.1047 306.5181,314.2047 304.8681,314.2047 C306.5181,314.2047 307.6181,315.3047 307.6181,316.9547 C307.6181,318.6047 306.5181,319.7047 304.8681,319.7047 C306.5181,319.7047 307.6181,320.8047 307.6181,322.4547 C307.6181,324.1047 306.5181,325.2047 304.8681,325.2047 C306.5181,325.2047 307.6181,326.3047 307.6181,327.9547 C307.6181,329.6047 306.5181,330.7047 304.8681,330.7047 C306.5181,330.7047 307.6181,331.8047 307.6181,333.4547 C307.6181,335.1047 306.5181,336.2047 304.8681,336.2047 C306.5181,336.2047 307.6181,337.3047 307.6181,338.9547 C307.6181,340.6047 306.5181,341.7047 304.8681,341.7047 C306.5181,341.7047 307.6181,342.8047 307.6181,344.4547 C307.6181,346.1047 306.5181,347.2047 304.8681,347.2047 C306.5181,347.2047 307.6181,348.3047 307.6181,349.9547 C307.6181,351.6047 306.5181,352.7047 304.8681,352.7047 C306.5181,352.7047 307.6181,353.8047 307.6181,355.4547 C307.6181,357.1047 306.5181,358.2047 304.8681,358.2047 C306.5181,358.2047 307.6181,359.3047 307.6181,360.9547 C307.6181,362.6047 306.5181,363.7047 304.8681,363.7047 C306.5181,363.7047 307.6181,364.8047 307.6181,366.4547 C307.6181,368.1047 306.5181,369.2047 304.8681,369.2047 C306.5181,369.2047 307.6181,370.3047 307.6181,371.9547 C307.6181,373.6047 306.5181,374.7047 304.8681,374.7047 C306.5181,374.7047 307.6181,375.8047 307.6181,377.4547 C307.6181,379.1047 306.5181,380.2047 304.8681,380.2047 C306.5181,380.2047 307.6181,381.3047 307.6181,382.9547 C307.6181,384.6047 306.5181,385.7047 304.8681,385.7047 C306.5181,385.7047 307.6181,386.8047 307.6181,388.4547 C307.6181,390.1047 306.5181,391.2047 304.8681,391.2047 C306.5181,391.2047 307.6181,392.3047 307.6181,393.9547 C307.6181,395.6047 306.5181,396.7047 304.8681,396.7047 C306.5181,396.7047 307.6181,397.8047 307.6181,399.4547 C307.6181,401.1047 306.5181,402.2047 304.8681,402.2047 C306.5181,402.2047 307.6181,403.3047 307.6181,404.9547 C307.6181,406.6047 306.5181,407.7047 304.8681,407.7047 C306.5181,407.7047 307.6181,408.8047 307.6181,410.4547 C307.6181,412.1047 306.5181,413.2047 304.8681,413.2047 C306.5181,413.2047 307.6181,414.3047 307.6181,415.9547 C307.6181,417.6047 306.5181,418.7047 304.8681,418.7047 C306.5181,418.7047 307.6181,419.8047 307.6181,421.4547 C307.6181,423.1047 306.5181,424.2047 304.8681,424.2047 C304.8681,425.8547 303.2181,426.9547 302.1181,426.9547 C300.4681,426.9547 299.3681,425.8547 299.3681,424.2047 C299.3681,425.8547 297.7181,426.9547 296.6181,426.9547 C294.9681,426.9547 293.8681,425.8547 293.8681,424.2047 C293.8681,425.8547 292.2181,426.9547 291.1181,426.9547 C289.4681,426.9547 288.3681,425.8547 288.3681,424.2047 C288.3681,425.8547 286.7181,426.9547 285.6181,426.9547 C283.9681,426.9547 282.8681,425.8547 282.8681,424.2047 C282.8681,425.8547 281.2181,426.9547 280.1181,426.9547 C278.4681,426.9547 277.3681,425.8547 277.3681,424.2047 C277.3681,425.8547 275.7181,426.9547 274.6181,426.9547 C272.9681,426.9547 271.8681,425.8547 271.8681,424.2047 C271.8681,425.8547 270.2181,426.9547 269.1181,426.9547 C267.4681,426.9547 266.3681,425.8547 266.3681,424.2047 C266.3681,425.8547 264.7181,426.9547 263.6181,426.9547 C261.9681,426.9547 260.8681,425.8547 260.8681,424.2047 C260.8681,425.8547 259.2181,426.9547 258.1181,426.9547 C256.4681,426.9547 255.3681,425.8547 255.3681,424.2047 C255.3681,425.8547 253.7181,426.9547 252.6181,426.9547 C250.9681,426.9547 249.8681,425.8547 249.8681,424.2047 C249.8681,425.8547 248.2181,426.9547 247.1181,426.9547 C245.4681,426.9547 244.3681,425.8547 244.3681,424.2047 C244.3681,425.8547 242.7181,426.9547 241.6181,426.9547 C239.9681,426.9547 238.8681,425.8547 238.8681,424.2047 C238.8681,425.8547 237.2181,426.9547 236.1181,426.9547 C234.4681,426.9547 233.3681,425.8547 233.3681,424.2047 C233.3681,425.8547 231.7181,426.9547 230.6181,426.9547 C228.9681,426.9547 227.8681,425.8547 227.8681,424.2047 C227.8681,425.8547 226.2181,426.9547 225.1181,426.9547 C223.4681,426.9547 222.3681,425.8547 222.3681,424.2047 C222.3681,425.8547 220.7181,426.9547 219.6181,426.9547 C217.9681,426.9547 216.8681,425.8547 216.8681,424.2047 C216.8681,425.8547 215.2181,426.9547 214.1181,426.9547 C212.4681,426.9547 211.3681,425.8547 211.3681,424.2047 C211.3681,425.8547 209.7181,426.9547 208.6181,426.9547 C206.9681,426.9547 205.8681,425.8547 205.8681,424.2047 C205.8681,425.8547 204.2181,426.9547 203.1181,426.9547 C201.4681,426.9547 200.3681,425.8547 200.3681,424.2047 C200.3681,425.8547 198.7181,426.9547 197.6181,426.9547 C195.9681,426.9547 194.8681,425.8547 194.8681,424.2047 C194.8681,425.8547 193.2181,426.9547 192.1181,426.9547 C190.4681,426.9547 189.3681,425.8547 189.3681,424.2047 C189.3681,425.8547 187.7181,426.9547 186.6181,426.9547 C184.9681,426.9547 183.8681,425.8547 183.8681,424.2047 C183.8681,425.8547 182.2181,426.9547 181.1181,426.9547 C179.4681,426.9547 178.3681,425.8547 178.3681,424.2047 C178.3681,425.8547 176.7181,426.9547 175.6181,426.9547 C173.9681,426.9547 172.8681,425.8547 172.8681,424.2047 C172.8681,425.8547 171.2181,426.9547 170.1181,426.9547 C168.4681,426.9547 167.3681,425.8547 167.3681,424.2047 C167.3681,425.8547 165.7181,426.9547 164.6181,426.9547 C162.9681,426.9547 161.8681,425.8547 161.8681,424.2047 C161.8681,425.8547 160.2181,426.9547 159.1181,426.9547 C157.4681,426.9547 156.3681,425.8547 156.3681,424.2047 C156.3681,425.8547 154.7181,426.9547 153.6181,426.9547 C151.9681,426.9547 150.8681,425.8547 150.8681,424.2047 C150.8681,425.8547 149.2181,426.9547 148.1181,426.9547 C146.4681,426.9547 145.3681,425.8547 145.3681,424.2047 C145.3681,425.8547 143.7181,426.9547 142.6181,426.9547 C140.9681,426.9547 139.8681,425.8547 139.8681,424.2047 C139.8681,425.8547 138.2181,426.9547 137.1181,426.9547 C135.4681,426.9547 134.3681,425.8547 134.3681,424.2047 C134.3681,425.8547 132.7181,426.9547 131.6181,426.9547 C129.9681,426.9547 128.8681,425.8547 128.8681,424.2047 C128.8681,425.8547 127.2181,426.9547 126.1181,426.9547 C124.4681,426.9547 123.3681,425.8547 123.3681,424.2047 C123.3681,425.8547 121.7181,426.9547 120.6181,426.9547 C118.9681,426.9547 117.8681,425.8547 117.8681,424.2047 C117.8681,425.8547 116.2181,426.9547 115.1181,426.9547 C113.4681,426.9547 112.3681,425.8547 112.3681,424.2047 C112.3681,425.8547 110.7181,426.9547 109.6181,426.9547 C107.9681,426.9547 106.8681,425.8547 106.8681,424.2047 C106.8681,425.8547 105.2181,426.9547 104.1181,426.9547 C102.4681,426.9547 101.3681,425.8547 101.3681,424.2047 C101.3681,425.8547 99.7181,426.9547 98.6181,426.9547 C96.9681,426.9547 95.8681,425.8547 95.8681,424.2047 C95.8681,425.8547 94.2181,426.9547 93.1181,426.9547 C91.4681,426.9547 90.3681,425.8547 90.3681,424.2047 C90.3681,425.8547 88.7181,426.9547 87.6181,426.9547 C85.9681,426.9547 84.8681,425.8547 84.8681,424.2047 C84.8681,425.8547 83.2181,426.9547 82.1181,426.9547 C80.4681,426.9547 79.3681,425.8547 79.3681,424.2047 C79.3681,425.8547 77.7181,426.9547 76.6181,426.9547 C74.9681,426.9547 73.8681,425.8547 73.8681,424.2047 C73.8681,425.8547 72.2181,426.9547 71.1181,426.9547 C69.4681,426.9547 68.3681,425.8547 68.3681,424.2047 C68.3681,425.8547 66.7181,426.9547 65.6181,426.9547 C63.9681,426.9547 62.8681,425.8547 62.8681,424.2047 C62.8681,425.8547 61.2181,426.9547 60.1181,426.9547 C58.4681,426.9547 57.3681,425.8547 57.3681,424.2047 C57.3681,425.8547 55.7181,426.9547 54.6181,426.9547 C52.9681,426.9547 51.8681,425.8547 51.8681,424.2047 C51.8681,425.8547 50.2181,426.9547 49.1181,426.9547 C47.4681,426.9547 46.3681,425.8547 46.3681,424.2047 C46.3681,425.8547 44.7181,426.9547 43.6181,426.9547 C41.9681,426.9547 40.8681,425.8547 40.8681,424.2047 C39.2181,424.2047 38.1181,423.1047 38.1181,421.4547 C38.1181,419.8047 39.2181,418.7047 40.8681,418.7047 C39.2181,418.7047 38.1181,417.6047 38.1181,415.9547 C38.1181,414.3047 39.2181,413.2047 40.8681,413.2047 C39.2181,413.2047 38.1181,412.1047 38.1181,410.4547 C38.1181,408.8047 39.2181,407.7047 40.8681,407.7047 C39.2181,407.7047 38.1181,406.6047 38.1181,404.9547 C38.1181,403.3047 39.2181,402.2047 40.8681,402.2047 C39.2181,402.2047 38.1181,401.1047 38.1181,399.4547 C38.1181,397.8047 39.2181,396.7047 40.8681,396.7047 C39.2181,396.7047 38.1181,395.6047 38.1181,393.9547 C38.1181,392.3047 39.2181,391.2047 40.8681,391.2047 C39.2181,391.2047 38.1181,390.1047 38.1181,388.4547 C38.1181,386.8047 39.2181,385.7047 40.8681,385.7047 C39.2181,385.7047 38.1181,384.6047 38.1181,382.9547 C38.1181,381.3047 39.2181,380.2047 40.8681,380.2047 C39.2181,380.2047 38.1181,379.1047 38.1181,377.4547 C38.1181,375.8047 39.2181,374.7047 40.8681,374.7047 C39.2181,374.7047 38.1181,373.6047 38.1181,371.9547 C38.1181,370.3047 39.2181,369.2047 40.8681,369.2047 C39.2181,369.2047 38.1181,368.1047 38.1181,366.4547 C38.1181,364.8047 39.2181,363.7047 40.8681,363.7047 C39.2181,363.7047 38.1181,362.6047 38.1181,360.9547 C38.1181,359.3047 39.2181,358.2047 40.8681,358.2047 C39.2181,358.2047 38.1181,357.1047 38.1181,355.4547 C38.1181,353.8047 39.2181,352.7047 40.8681,352.7047 C39.2181,352.7047 38.1181,351.6047 38.1181,349.9547 C38.1181,348.3047 39.2181,347.2047 40.8681,347.2047 C39.2181,347.2047 38.1181,346.1047 38.1181,344.4547 C38.1181,342.8047 39.2181,341.7047 40.8681,341.7047 C39.2181,341.7047 38.1181,340.6047 38.1181,338.9547 C38.1181,337.3047 39.2181,336.2047 40.8681,336.2047 C39.2181,336.2047 38.1181,335.1047 38.1181,333.4547 C38.1181,331.8047 39.2181,330.7047 40.8681,330.7047 C39.2181,330.7047 38.1181,329.6047 38.1181,327.9547 C38.1181,326.3047 39.2181,325.2047 40.8681,325.2047 C39.2181,325.2047 38.1181,324.1047 38.1181,322.4547 C38.1181,320.8047 39.2181,319.7047 40.8681,319.7047 C39.2181,319.7047 38.1181,318.6047 38.1181,316.9547 C38.1181,315.3047 39.2181,314.2047 40.8681,314.2047 C39.2181,314.2047 38.1181,313.1047 38.1181,311.4547 C38.1181,309.8047 39.2181,308.7047 40.8681,308.7047 " fill="#FFFFFF" filter="url(#f1ldaukotxzoke)" style="stroke: #000000; stroke-width: 0.8250000000000001;"/><text fill="#000000" font-family="sans-serif" font-size="7.7" font-weight="bold" lengthAdjust="spacingAndGlyphs" textLength="47.3" x="147.8432" y="319.9979">The Internet</text><!--cluster SL--><polygon fill="#FFFFFF" filter="url(#f1ldaukotxzoke)" points="202.5683,329.0547,265.2683,329.0547,269.1183,342.0398,290.5683,342.0398,290.5683,412.6547,202.5683,412.6547,202.5683,329.0547" style="stroke: #000000; stroke-width: 0.8250000000000001;"/><line style="stroke: #000000; stroke-width: 0.8250000000000001;" x1="202.5683" x2="269.1183" y1="342.0398" y2="342.0398"/><text fill="#000000" font-family="sans-serif" font-size="7.7" font-weight="bold" lengthAdjust="spacingAndGlyphs" textLength="59.4" x="204.7683" y="338.1479">Sovrin Network</text><!--cluster BC Registries VON Issuer/Verifier Agent - OpenShift--><polygon fill="#FFFFFF" filter="url(#f1ldaukotxzoke)" points="147.0183,46.6297,280.6683,46.6297,284.5183,59.6148,423.6683,59.6148,423.6683,263.8797,147.0183,263.8797,147.0183,46.6297" style="stroke: #000000; stroke-width: 0.8250000000000001;"/><line style="stroke: #000000; stroke-width: 0.8250000000000001;" x1="147.0183" x2="284.5183" y1="59.6148" y2="59.6148"/><text fill="#000000" font-family="sans-serif" font-size="7.7" font-weight="bold" lengthAdjust="spacingAndGlyphs" textLength="130.35" x="149.2183" y="55.7229">BC Registries VON Issuer/Verifier Agent - OpenShift</text><!--cluster BCRVONX--><rect fill="#FFFFFF" filter="url(#f1ldaukotxzoke)" height="101.75" style="stroke: #000000; stroke-width: 0.8250000000000001;" width="163.9" x="242.1683" y="144.5297"/><rect fill="#FFFFFF" height="5.5" style="stroke: #000000; stroke-width: 0.8250000000000001;" width="8.25" x="395.0683" y="147.2797"/><rect fill="#FFFFFF" height="1.1" style="stroke: #000000; stroke-width: 0.8250000000000001;" width="2.2" x="393.9683" y="148.3797"/><rect fill="#FFFFFF" height="1.1" style="stroke: #000000; stroke-width: 0.8250000000000001;" width="2.2" x="393.9683" y="150.5797"/><text fill="#000000" font-family="sans-serif" font-size="7.7" font-weight="bold" lengthAdjust="spacingAndGlyphs" textLength="24.2" x="312.0183" y="159.6729">VON-X</text><text fill="#000000" font-family="sans-serif" font-size="7.7" font-weight="bold" lengthAdjust="spacingAndGlyphs" textLength="33" x="307.6183" y="169.3581">Python 3</text><!--cluster BC Registries--><polygon fill="#FFFFFF" filter="url(#f1ldaukotxzoke)" points="57.9181,173.1297,114.0181,173.1297,117.8681,186.1148,133.8183,186.1148,133.8183,227.5797,57.9181,227.5797,57.9181,173.1297" style="stroke: #000000; stroke-width: 0.8250000000000001;"/><line style="stroke: #000000; stroke-width: 0.8250000000000001;" x1="57.9181" x2="117.8681" y1="186.1148" y2="186.1148"/><text fill="#000000" font-family="sans-serif" font-size="7.7" font-weight="bold" lengthAdjust="spacingAndGlyphs" textLength="52.8" x="60.1181" y="182.2229">BC Registries</text><!--cluster TheOrgBook - OpenShift--><polygon fill="#FFFFFF" filter="url(#f1ldaukotxzoke)" points="316.9683,277.0797,414.3183,277.0797,418.1683,290.0648,527.6183,290.0648,527.6183,686.5547,316.9683,686.5547,316.9683,277.0797" style="stroke: #000000; stroke-width: 0.8250000000000001;"/><line style="stroke: #000000; stroke-width: 0.8250000000000001;" x1="316.9683" x2="418.1683" y1="290.0648" y2="290.0648"/><text fill="#000000" font-family="sans-serif" font-size="7.7" font-weight="bold" lengthAdjust="spacingAndGlyphs" textLength="94.05" x="319.1683" y="286.1729">TheOrgBook - OpenShift</text><!--cluster TOBVONX--><rect fill="#FFFFFF" filter="url(#f1ldaukotxzoke)" height="111.1" style="stroke: #000000; stroke-width: 0.8250000000000001;" width="163.9" x="334.5683" y="305.6797"/><rect fill="#FFFFFF" height="5.5" style="stroke: #000000; stroke-width: 0.8250000000000001;" width="8.25" x="487.4683" y="308.4297"/><rect fill="#FFFFFF" height="1.1" style="stroke: #000000; stroke-width: 0.8250000000000001;" width="2.2" x="486.3683" y="309.5297"/><rect fill="#FFFFFF" height="1.1" style="stroke: #000000; stroke-width: 0.8250000000000001;" width="2.2" x="486.3683" y="311.7297"/><text fill="#000000" font-family="sans-serif" font-size="7.7" font-weight="bold" lengthAdjust="spacingAndGlyphs" textLength="24.2" x="404.4183" y="320.8229">VON-X</text><text fill="#000000" font-family="sans-serif" font-size="7.7" font-weight="bold" lengthAdjust="spacingAndGlyphs" textLength="0" x="417.6183" y="330.5081"/><text fill="#000000" font-family="sans-serif" font-size="7.7" font-weight="bold" lengthAdjust="spacingAndGlyphs" textLength="33" x="400.0183" y="340.1933">Python 3</text><!--entity TOBUSER--><ellipse cx="170.1183" cy="353.8047" fill="#F8F8F8" filter="url(#f1ldaukotxzoke)" rx="4.4" ry="4.4" style="stroke: #383838; stroke-width: 1.1;"/><path d="M170.1183,358.2047 L170.1183,373.0547 M162.9683,362.6047 L177.2683,362.6047 M170.1183,373.0547 L162.9683,381.3047 M170.1183,373.0547 L177.2683,381.3047 " fill="none" filter="url(#f1ldaukotxzoke)" style="stroke: #383838; stroke-width: 1.1;"/><text fill="#000000" font-family="sans-serif" font-size="7.7" lengthAdjust="spacingAndGlyphs" textLength="44.55" x="147.8433" y="393.1479">TheOrgBook</text><text fill="#000000" font-family="sans-serif" font-size="7.7" lengthAdjust="spacingAndGlyphs" textLength="15.95" x="162.1433" y="402.8331">User</text><!--entity TOBAPIUSER--><rect fill="#F8F8F8" filter="url(#f1ldaukotxzoke)" height="35.8703" style="stroke: #383838; stroke-width: 0.8250000000000001;" width="80.3" x="48.0181" y="358.4797"/><rect fill="#F8F8F8" height="5.5" style="stroke: #383838; stroke-width: 0.8250000000000001;" width="8.25" x="117.3181" y="361.2297"/><rect fill="#F8F8F8" height="1.1" style="stroke: #383838; stroke-width: 0.8250000000000001;" width="2.2" x="116.2181" y="362.3297"/><rect fill="#F8F8F8" height="1.1" style="stroke: #383838; stroke-width: 0.8250000000000001;" width="2.2" x="116.2181" y="364.5297"/><text fill="#000000" font-family="sans-serif" font-size="7.7" lengthAdjust="spacingAndGlyphs" textLength="58.3" x="56.2681" y="377.4729">TheOrgBook API</text><text fill="#000000" font-family="sans-serif" font-size="7.7" lengthAdjust="spacingAndGlyphs" textLength="19.8" x="75.5181" y="387.1581">Client</text><!--entity DL--><rect fill="#F8F8F8" filter="url(#f1ldaukotxzoke)" height="55.2406" style="stroke: #383838; stroke-width: 0.8250000000000001;" width="69.85" x="211.6433" y="348.8547"/><rect fill="#F8F8F8" height="5.5" style="stroke: #383838; stroke-width: 0.8250000000000001;" width="8.25" x="270.4933" y="351.6047"/><rect fill="#F8F8F8" height="1.1" style="stroke: #383838; stroke-width: 0.8250000000000001;" width="2.2" x="269.3933" y="352.7047"/><rect fill="#F8F8F8" height="1.1" style="stroke: #383838; stroke-width: 0.8250000000000001;" width="2.2" x="269.3933" y="354.9047"/><text fill="#000000" font-family="sans-serif" font-size="7.7" lengthAdjust="spacingAndGlyphs" textLength="37.4" x="225.1183" y="367.8479">Distributed</text><text fill="#000000" font-family="sans-serif" font-size="7.7" lengthAdjust="spacingAndGlyphs" textLength="24.75" x="231.4433" y="377.5331">Ledger</text><text fill="#000000" font-family="sans-serif" font-size="7.7" lengthAdjust="spacingAndGlyphs" textLength="0" x="244.9183" y="387.2183"/><text fill="#000000" font-family="sans-serif" font-size="7.7" lengthAdjust="spacingAndGlyphs" textLength="47.85" x="219.8933" y="396.9034">Indy Node 1.6</text><!--entity BCRFDW--><path d="M156.0933,188.8047 C156.0933,183.3047 191.5683,183.3047 191.5683,183.3047 C191.5683,183.3047 227.0433,183.3047 227.0433,188.8047 L227.0433,222.8102 C227.0433,228.3102 191.5683,228.3102 191.5683,228.3102 C191.5683,228.3102 156.0933,228.3102 156.0933,222.8102 L156.0933,188.8047 " fill="#F8F8F8" filter="url(#f1ldaukotxzoke)" style="stroke: #000000; stroke-width: 0.8250000000000001;"/><path d="M156.0933,188.8047 C156.0933,194.3047 191.5683,194.3047 191.5683,194.3047 C191.5683,194.3047 227.0433,194.3047 227.0433,188.8047 " fill="none" style="stroke: #000000; stroke-width: 0.8250000000000001;"/><text fill="#000000" font-family="sans-serif" font-size="7.7" lengthAdjust="spacingAndGlyphs" textLength="47.3" x="167.9183" y="204.4979">BC Registries</text><text fill="#000000" font-family="sans-serif" font-size="7.7" lengthAdjust="spacingAndGlyphs" textLength="59.95" x="161.5933" y="214.1831">Postgres Foreign</text><text fill="#000000" font-family="sans-serif" font-size="7.7" lengthAdjust="spacingAndGlyphs" textLength="48.95" x="167.0933" y="223.8683">Data Wrapper</text><!--entity BCREP--><rect fill="#F8F8F8" filter="url(#f1ldaukotxzoke)" height="64.9258" style="stroke: #383838; stroke-width: 0.8250000000000001;" width="98.45" x="176.4433" y="66.4297"/><rect fill="#F8F8F8" height="5.5" style="stroke: #383838; stroke-width: 0.8250000000000001;" width="8.25" x="263.8933" y="69.1797"/><rect fill="#F8F8F8" height="1.1" style="stroke: #383838; stroke-width: 0.8250000000000001;" width="2.2" x="262.7933" y="70.2797"/><rect fill="#F8F8F8" height="1.1" style="stroke: #383838; stroke-width: 0.8250000000000001;" width="2.2" x="262.7933" y="72.4797"/><text fill="#000000" font-family="sans-serif" font-size="7.7" lengthAdjust="spacingAndGlyphs" textLength="34.65" x="205.5933" y="85.4229">Registries</text><text fill="#000000" font-family="sans-serif" font-size="7.7" lengthAdjust="spacingAndGlyphs" textLength="19.8" x="213.0183" y="95.1081">Event</text><text fill="#000000" font-family="sans-serif" font-size="7.7" lengthAdjust="spacingAndGlyphs" textLength="35.2" x="205.3183" y="104.7933">Processor</text><text fill="#000000" font-family="sans-serif" font-size="7.7" lengthAdjust="spacingAndGlyphs" textLength="0" x="224.0183" y="114.4784"/><text fill="#000000" font-family="sans-serif" font-size="7.7" lengthAdjust="spacingAndGlyphs" textLength="76.45" x="184.6933" y="124.1636">Python 3 / bash / SQL</text><!--entity BCRWALL--><path d="M335.6683,184.1297 C335.6683,178.6297 364.2683,178.6297 364.2683,178.6297 C364.2683,178.6297 392.8683,178.6297 392.8683,184.1297 L392.8683,227.8203 C392.8683,233.3203 364.2683,233.3203 364.2683,233.3203 C364.2683,233.3203 335.6683,233.3203 335.6683,227.8203 L335.6683,184.1297 " fill="#F8F8F8" filter="url(#f1ldaukotxzoke)" style="stroke: #000000; stroke-width: 0.8250000000000001;"/><path d="M335.6683,184.1297 C335.6683,189.6297 364.2683,189.6297 364.2683,189.6297 C364.2683,189.6297 392.8683,189.6297 392.8683,184.1297 " fill="none" style="stroke: #000000; stroke-width: 0.8250000000000001;"/><text fill="#000000" font-family="sans-serif" font-size="7.7" lengthAdjust="spacingAndGlyphs" textLength="23.1" x="352.7183" y="199.8229">VON-X</text><text fill="#000000" font-family="sans-serif" font-size="7.7" lengthAdjust="spacingAndGlyphs" textLength="21.45" x="353.5433" y="209.5081">Wallet</text><text fill="#000000" font-family="sans-serif" font-size="7.7" lengthAdjust="spacingAndGlyphs" textLength="0" x="365.3683" y="219.1933"/><text fill="#000000" font-family="sans-serif" font-size="7.7" lengthAdjust="spacingAndGlyphs" textLength="46.2" x="341.1683" y="228.8784">PostgresSQL</text><!--entity BCRVONXDA--><polygon fill="#F8F8F8" filter="url(#f1ldaukotxzoke)" points="265.8183,198.1547,271.3183,192.6547,316.4183,192.6547,316.4183,213.3398,310.9183,218.8398,265.8183,218.8398,265.8183,198.1547" style="stroke: #000000; stroke-width: 0.8250000000000001;"/><line style="stroke: #000000; stroke-width: 0.8250000000000001;" x1="310.9183" x2="315.8683" y1="198.1547" y2="193.2047"/><line style="stroke: #000000; stroke-width: 0.8250000000000001;" x1="265.8183" x2="310.9183" y1="198.1547" y2="198.1547"/><line style="stroke: #000000; stroke-width: 0.8250000000000001;" x1="310.9183" x2="310.9183" y1="198.1547" y2="218.8398"/><text fill="#000000" font-family="sans-serif" font-size="7.7" lengthAdjust="spacingAndGlyphs" textLength="28.6" x="274.0683" y="211.6479">DIDAuth</text><!--entity BCRDB--><path d="M66.7183,198.4297 C66.7183,192.9297 95.8683,192.9297 95.8683,192.9297 C95.8683,192.9297 125.0183,192.9297 125.0183,198.4297 L125.0183,213.0648 C125.0183,218.5648 95.8683,218.5648 95.8683,218.5648 C95.8683,218.5648 66.7183,218.5648 66.7183,213.0648 L66.7183,198.4297 " fill="#F8F8F8" filter="url(#f1ldaukotxzoke)" style="stroke: #000000; stroke-width: 0.8250000000000001;"/><path d="M66.7183,198.4297 C66.7183,203.9297 95.8683,203.9297 95.8683,203.9297 C95.8683,203.9297 125.0183,203.9297 125.0183,198.4297 " fill="none" style="stroke: #000000; stroke-width: 0.8250000000000001;"/><text fill="#000000" font-family="sans-serif" font-size="7.7" lengthAdjust="spacingAndGlyphs" textLength="47.3" x="72.2183" y="214.1229">BC Registries</text><!--entity TOBSEARCH--><rect fill="#F8F8F8" filter="url(#f1ldaukotxzoke)" height="55.2406" style="stroke: #383838; stroke-width: 0.8250000000000001;" width="73.15" x="333.1933" y="535.3047"/><rect fill="#F8F8F8" height="5.5" style="stroke: #383838; stroke-width: 0.8250000000000001;" width="8.25" x="395.3433" y="538.0547"/><rect fill="#F8F8F8" height="1.1" style="stroke: #383838; stroke-width: 0.8250000000000001;" width="2.2" x="394.2433" y="539.1547"/><rect fill="#F8F8F8" height="1.1" style="stroke: #383838; stroke-width: 0.8250000000000001;" width="2.2" x="394.2433" y="541.3547"/><text fill="#000000" font-family="sans-serif" font-size="7.7" lengthAdjust="spacingAndGlyphs" textLength="44.55" x="344.7433" y="554.2979">TheOrgBook</text><text fill="#000000" font-family="sans-serif" font-size="7.7" lengthAdjust="spacingAndGlyphs" textLength="51.15" x="341.4433" y="563.9831">Search Engine</text><text fill="#000000" font-family="sans-serif" font-size="7.7" lengthAdjust="spacingAndGlyphs" textLength="0" x="368.1183" y="573.6683"/><text fill="#000000" font-family="sans-serif" font-size="7.7" lengthAdjust="spacingAndGlyphs" textLength="26.95" x="353.5433" y="583.3534">Solr 6.6</text><!--entity TOBDB--><path d="M370.0433,628.8047 C370.0433,623.3047 397.8183,623.3047 397.8183,623.3047 C397.8183,623.3047 425.5933,623.3047 425.5933,628.8047 L425.5933,672.4953 C425.5933,677.9953 397.8183,677.9953 397.8183,677.9953 C397.8183,677.9953 370.0433,677.9953 370.0433,672.4953 L370.0433,628.8047 " fill="#F8F8F8" filter="url(#f1ldaukotxzoke)" style="stroke: #000000; stroke-width: 0.8250000000000001;"/><path d="M370.0433,628.8047 C370.0433,634.3047 397.8183,634.3047 397.8183,634.3047 C397.8183,634.3047 425.5933,634.3047 425.5933,628.8047 " fill="none" style="stroke: #000000; stroke-width: 0.8250000000000001;"/><text fill="#000000" font-family="sans-serif" font-size="7.7" lengthAdjust="spacingAndGlyphs" textLength="44.55" x="375.5433" y="644.4979">TheOrgBook</text><text fill="#000000" font-family="sans-serif" font-size="7.7" lengthAdjust="spacingAndGlyphs" textLength="33.55" x="381.0433" y="654.1831">Database</text><text fill="#000000" font-family="sans-serif" font-size="7.7" lengthAdjust="spacingAndGlyphs" textLength="0" x="398.9183" y="663.8683"/><text fill="#000000" font-family="sans-serif" font-size="7.7" lengthAdjust="spacingAndGlyphs" textLength="42.35" x="376.6433" y="673.5534">PostgreSQL</text><!--entity TOBUI--><rect fill="#F8F8F8" filter="url(#f1ldaukotxzoke)" height="64.9258" style="stroke: #383838; stroke-width: 0.8250000000000001;" width="70.4" x="448.4183" y="437.4047"/><rect fill="#F8F8F8" height="5.5" style="stroke: #383838; stroke-width: 0.8250000000000001;" width="8.25" x="507.8183" y="440.1547"/><rect fill="#F8F8F8" height="1.1" style="stroke: #383838; stroke-width: 0.8250000000000001;" width="2.2" x="506.7183" y="441.2547"/><rect fill="#F8F8F8" height="1.1" style="stroke: #383838; stroke-width: 0.8250000000000001;" width="2.2" x="506.7183" y="443.4547"/><text fill="#000000" font-family="sans-serif" font-size="7.7" lengthAdjust="spacingAndGlyphs" textLength="44.55" x="458.5933" y="456.3979">TheOrgBook</text><text fill="#000000" font-family="sans-serif" font-size="7.7" lengthAdjust="spacingAndGlyphs" textLength="48.4" x="456.6683" y="466.0831">Web Interface</text><text fill="#000000" font-family="sans-serif" font-size="7.7" lengthAdjust="spacingAndGlyphs" textLength="0" x="481.9683" y="475.7683"/><text fill="#000000" font-family="sans-serif" font-size="7.7" lengthAdjust="spacingAndGlyphs" textLength="33.55" x="464.0933" y="485.4534">Angular 4</text><text fill="#000000" font-family="sans-serif" font-size="7.7" lengthAdjust="spacingAndGlyphs" textLength="41.25" x="460.2433" y="495.1386">(JavaScript)</text><!--entity TOBWall--><path d="M428.0683,354.6297 C428.0683,349.1297 456.6683,349.1297 456.6683,349.1297 C456.6683,349.1297 485.2683,349.1297 485.2683,354.6297 L485.2683,398.3203 C485.2683,403.8203 456.6683,403.8203 456.6683,403.8203 C456.6683,403.8203 428.0683,403.8203 428.0683,398.3203 L428.0683,354.6297 " fill="#F8F8F8" filter="url(#f1ldaukotxzoke)" style="stroke: #000000; stroke-width: 0.8250000000000001;"/><path d="M428.0683,354.6297 C428.0683,360.1297 456.6683,360.1297 456.6683,360.1297 C456.6683,360.1297 485.2683,360.1297 485.2683,354.6297 " fill="none" style="stroke: #000000; stroke-width: 0.8250000000000001;"/><text fill="#000000" font-family="sans-serif" font-size="7.7" lengthAdjust="spacingAndGlyphs" textLength="23.1" x="445.1183" y="370.3229">VON-X</text><text fill="#000000" font-family="sans-serif" font-size="7.7" lengthAdjust="spacingAndGlyphs" textLength="21.45" x="445.9433" y="380.0081">Wallet</text><text fill="#000000" font-family="sans-serif" font-size="7.7" lengthAdjust="spacingAndGlyphs" textLength="0" x="457.7683" y="389.6933"/><text fill="#000000" font-family="sans-serif" font-size="7.7" lengthAdjust="spacingAndGlyphs" textLength="46.2" x="433.5683" y="399.3784">PostgresSQL</text><!--entity TOBVONXDA--><polygon fill="#F8F8F8" filter="url(#f1ldaukotxzoke)" points="358.2183,368.6547,363.7183,363.1547,408.8183,363.1547,408.8183,383.8398,403.3183,389.3398,358.2183,389.3398,358.2183,368.6547" style="stroke: #000000; stroke-width: 0.8250000000000001;"/><line style="stroke: #000000; stroke-width: 0.8250000000000001;" x1="403.3183" x2="408.2683" y1="368.6547" y2="363.7047"/><line style="stroke: #000000; stroke-width: 0.8250000000000001;" x1="358.2183" x2="403.3183" y1="368.6547" y2="368.6547"/><line style="stroke: #000000; stroke-width: 0.8250000000000001;" x1="403.3183" x2="403.3183" y1="368.6547" y2="389.3398"/><text fill="#000000" font-family="sans-serif" font-size="7.7" lengthAdjust="spacingAndGlyphs" textLength="28.6" x="366.4683" y="382.1479">DIDAuth</text><!--entity TOBAPI--><rect fill="#FFFFFF" filter="url(#f1ldaukotxzoke)" height="55.2406" style="stroke: #383838; stroke-width: 0.8250000000000001;" width="102.85" x="326.0433" y="442.3547"/><rect fill="#FFFFFF" height="5.5" style="stroke: #383838; stroke-width: 0.8250000000000001;" width="8.25" x="417.8933" y="445.1047"/><rect fill="#FFFFFF" height="1.1" style="stroke: #383838; stroke-width: 0.8250000000000001;" width="2.2" x="416.7933" y="446.2047"/><rect fill="#FFFFFF" height="1.1" style="stroke: #383838; stroke-width: 0.8250000000000001;" width="2.2" x="416.7933" y="448.4047"/><text fill="#000000" font-family="sans-serif" font-size="7.7" lengthAdjust="spacingAndGlyphs" textLength="44.55" x="352.4433" y="461.3479">TheOrgBook</text><text fill="#000000" font-family="sans-serif" font-size="7.7" lengthAdjust="spacingAndGlyphs" textLength="11.55" x="368.9433" y="471.0331">API</text><text fill="#000000" font-family="sans-serif" font-size="7.7" lengthAdjust="spacingAndGlyphs" textLength="0" x="375.8183" y="480.7183"/><text fill="#000000" font-family="sans-serif" font-size="7.7" lengthAdjust="spacingAndGlyphs" textLength="80.85" x="334.2933" y="490.4034">Django 1.11 (Python 3)</text><!--link BCRVONX to DL--><path d="M246.5683,246.5581 C246.5683,246.7656 246.5683,246.9736 246.5683,247.1821 C246.5683,247.599 246.5683,248.018 246.5683,248.4388 C246.5683,251.8057 246.5683,255.2942 246.5683,258.873 C246.5683,287.5032 246.5683,321.908 246.5683,345.9584 " fill="none" id="BCRVONX-DL" style="stroke: #383838; stroke-width: 0.55;"/><polygon fill="#383838" points="246.5683,348.7826,248.7683,343.8326,246.5683,346.0326,244.3683,343.8326,246.5683,348.7826" style="stroke: #383838; stroke-width: 0.55;"/><!--link TOBVONX to DL--><path d="M334.5047,376.3547 C334.2221,376.3547 333.9395,376.3547 333.6568,376.3547 C333.0916,376.3547 332.5264,376.3547 331.9612,376.3547 C329.7003,376.3547 327.4393,376.3547 325.1784,376.3547 C320.6566,376.3547 316.1348,376.3547 311.613,376.3547 C302.5693,376.3547 293.5257,376.3547 284.482,376.3547 " fill="none" id="TOBVONX-DL" style="stroke: #383838; stroke-width: 0.55;"/><polygon fill="#383838" points="281.5791,376.3547,286.5291,378.5547,284.3291,376.3547,286.5291,374.1547,281.5791,376.3547" style="stroke: #383838; stroke-width: 0.55;"/><!--link BCREP to BCRFDW--><path d="M215.3905,131.3407 C210.314,147.102 204.2805,165.835 199.5554,180.5046 " fill="none" id="BCREP-BCRFDW" style="stroke: #383838; stroke-width: 0.55;"/><polygon fill="#383838" points="198.6892,183.1947,202.3006,179.1573,199.5321,180.5771,198.1124,177.8086,198.6892,183.1947" style="stroke: #383838; stroke-width: 0.55;"/><!--link BCREP to BCRVONX--><path d="M243.067,131.3957 C243.5565,132.8422 243.9943,134.2887 244.3683,135.7297 C244.8459,137.5722 245.2731,139.4513 245.6543,141.3556 C245.8449,142.3078 246.0239,143.2662 246.192,144.2295 " fill="none" id="BCREP-BCRVONX" style="stroke: #383838; stroke-width: 0.55;"/><polygon fill="#383838" points="246.192,144.2295,247.5083,138.975,245.7193,141.5204,243.1738,139.7314,246.192,144.2295" style="stroke: #383838; stroke-width: 0.55;"/><!--link BCRDB to BCRFDW--><path d="M127.9267,205.8547 C137.2701,205.8547 146.6141,205.8547 155.958,205.8547 " fill="none" id="BCRDB-BCRFDW" style="stroke: #383838; stroke-width: 0.55;"/><polygon fill="#383838" points="125.0266,205.8547,129.9766,208.0547,127.7766,205.8547,129.9766,203.6547,125.0266,205.8547" style="stroke: #383838; stroke-width: 0.55;"/><!--link BCRVONXDA to TOBVONXDA--><path d="M294.5448,219.1581 C299.128,233.5752 308.7249,256.5603 325.7683,268.2797 C336.963,275.9775 345.8697,263.647 356.0183,272.6797 C381.1038,295.0086 384.4528,337.4125 384.2702,360.2727 " fill="none" id="BCRVONXDA-TOBVONXDA" style="stroke: #383838; stroke-width: 0.55;"/><polygon fill="#383838" points="384.2284,363.0953,386.5017,358.1785,384.2692,360.3456,382.1021,358.1131,384.2284,363.0953" style="stroke: #383838; stroke-width: 0.55;"/><!--link TOBAPI to TOBSEARCH--><path d="M375.1996,497.4658 C374.2794,508.4421 373.2135,521.1581 372.2708,532.4029 " fill="none" id="TOBAPI-TOBSEARCH" style="stroke: #383838; stroke-width: 0.55;"/><polygon fill="#383838" points="372.0338,535.2282,374.6404,530.4798,372.2639,532.4879,370.2558,530.1115,372.0338,535.2282" style="stroke: #383838; stroke-width: 0.55;"/><!--link TOBAPI to TOBDB--><path d="M397.9509,497.5026 C405.1306,508.6104 412.3119,521.976 415.9683,535.3047 C423.7717,563.7551 416.7202,597.1571 409.2484,620.5492 " fill="none" id="TOBAPI-TOBDB" style="stroke: #383838; stroke-width: 0.55;"/><polygon fill="#383838" points="408.3833,623.2084,412.007,619.1822,409.2342,620.5934,407.823,617.8206,408.3833,623.2084" style="stroke: #383838; stroke-width: 0.55;"/><!--link TOBSEARCH to TOBDB--><path d="M378.5661,590.5258 C381.6505,600.0501 385.1282,610.7894 388.2703,620.4942 " fill="none" id="TOBSEARCH-TOBDB" style="stroke: #383838; stroke-width: 0.55;"/><polygon fill="#383838" points="389.147,623.2024,389.7155,617.8154,388.3,620.5861,385.5294,619.1706,389.147,623.2024" style="stroke: #383838; stroke-width: 0.55;"/><!--link BCRVONX to TOBAPI--><path d="M253.4839,246.4005 C253.4662,246.6107 253.4473,246.8208 253.4272,247.0306 C253.3869,247.4502 253.3416,247.8689 253.2911,248.2863 C253.1902,249.1213 253.0685,249.9515 252.9244,250.775 C251.7722,257.3634 249.1903,263.5251 244.3683,268.2797 C236.2503,276.2838 47.1921,264.5331 39.2181,272.6797 C-9.7692,322.7286 -7.3769,377.9711 39.2181,430.2547 C57.7356,451.0331 232.0692,462.3736 322.9408,466.9171 " fill="none" id="BCRVONX-TOBAPI" style="stroke: #383838; stroke-width: 0.55;"/><polygon fill="#383838" points="325.8712,467.0629,321.0367,464.6195,323.1246,466.9261,320.8179,469.014,325.8712,467.0629" style="stroke: #383838; stroke-width: 0.55;"/><!--link TOBVONX to TOBAPI--><path d="M344.8587,416.9725 C344.9084,417.1552 344.9586,417.3379 345.0091,417.5204 C345.4135,418.9808 345.8446,420.4349 346.3043,421.8739 C347.2236,424.7519 348.2569,427.5692 349.4183,430.2547 C350.8175,433.4903 352.5187,436.7216 354.3837,439.861 " fill="none" id="TOBVONX-TOBAPI" style="stroke: #383838; stroke-width: 0.55;"/><polygon fill="#383838" points="355.8396,442.243,355.1353,436.8721,354.4054,439.8966,351.381,439.1667,355.8396,442.243" style="stroke: #383838; stroke-width: 0.55;"/><!--link TOBAPI to TOBUI--><path d="M431.937,469.8547 C437.3787,469.8547 442.8199,469.8547 448.261,469.8547 " fill="none" id="TOBAPI-TOBUI" style="stroke: #383838; stroke-width: 0.55;"/><polygon fill="#383838" points="429.0919,469.8547,434.0419,472.0547,431.8419,469.8547,434.0419,467.6547,429.0919,469.8547" style="stroke: #383838; stroke-width: 0.55;"/><!--link TOBUSER to TOBUI--><path d="M180.257,404.4333 C185.3676,414.3316 192.6375,424.472 202.5683,430.2547 C225.2338,443.4536 413.6451,429.0804 438.5183,437.4047 C440.9224,438.2093 443.311,439.1883 445.6623,440.296 " fill="none" id="TOBUSER-TOBUI" style="stroke: #383838; stroke-width: 0.55;"/><polygon fill="#383838" points="448.1967,441.5473,444.7318,437.3835,445.7307,440.33,442.7842,441.329,448.1967,441.5473" style="stroke: #383838; stroke-width: 0.55;"/><!--link TOBUSER to TOBAPI--><path d="M181.3867,404.4619 C186.5358,413.9378 193.5373,423.7801 202.5683,430.2547 C237.6231,455.3869 286.005,464.7507 322.998,468.0545 " fill="none" id="TOBUSER-TOBAPI" style="stroke: #383838; stroke-width: 0.55;"/><polygon fill="#383838" points="325.8657,468.3004,321.1217,465.6855,323.1257,468.0654,320.7458,470.0694,325.8657,468.3004" style="stroke: #383838; stroke-width: 0.55;"/><!--link TOBAPIUSER to TOBAPI--><path d="M99.8261,394.4321 C108.8362,406.5051 122.4141,421.8342 138.2183,430.2547 C169.3879,446.8619 262.5222,458.4779 322.9749,464.5092 " fill="none" id="TOBAPIUSER-TOBAPI" style="stroke: #383838; stroke-width: 0.55;"/><polygon fill="#383838" points="325.8288,464.7925,321.1205,462.1139,323.0923,464.5206,320.6856,466.4924,325.8288,464.7925" style="stroke: #383838; stroke-width: 0.55;"/><!--
@startuml "TheOrgBook Beta"

skinparam defaultTextAlignment center

skinparam titleBorderRoundCorner 15
skinparam titleBorderThickness 2
skinparam titleBorderColor red
skinparam titleBackgroundColor White
title TheOrgBook Beta\nNetwork Architecture

skinparam monochrome true

skinparam componentStyle uml2

cloud "The Internet" {
   actor "TheOrgBook\nUser" as TOBUSER
   component "TheOrgBook API\nClient" as TOBAPIUSER
    package "Sovrin Network" as SL {
        component "Distributed\nLedger\n\nIndy Node 1.6" as DL
        BCRVONX - -> DL
        TOBVONX - -> DL
    }
}


package "BC Registries VON Issuer/Verifier Agent - OpenShift" {
    database "BC Registries\nPostgres Foreign\nData Wrapper" as BCRFDW
    component "Registries\nEvent\nProcessor\n\nPython 3 / bash / SQL" as BCREP
    BCREP - -> BCRFDW
    component "VON-X\nPython 3" as BCRVONX {
        database "VON-X\nWallet\n\nPostgresSQL" as BCRWALL
        node "DIDAuth" as BCRVONXDA
    }
    BCREP - -> BCRVONX
}

package "BC Registries" {
  database "BC Registries" as BCRDB
}
BCRFDW -left-> BCRDB

package "TheOrgBook - OpenShift" {
    component "VON-X\n\nPython 3" as TOBVONX {
        database "VON-X\nWallet\n\nPostgresSQL" as TOBWall
        node "DIDAuth" as TOBVONXDA
    }
    BCRVONXDA - -> TOBVONXDA

    component "TheOrgBook\nAPI\n\nDjango 1.11 (Python 3)" as TOBAPI {
    }
    component "TheOrgBook\nSearch Engine\n\nSolr 6.6" as TOBSEARCH
    TOBAPI - -> TOBSEARCH
    database "TheOrgBook\nDatabase\n\nPostgreSQL" as TOBDB
    component "TheOrgBook\nWeb Interface\n\nAngular 4\n(JavaScript)" as TOBUI

    TOBAPI - -> TOBDB
    TOBSEARCH - -> TOBDB
}


BCRVONX - -> TOBAPI
TOBVONX - -> TOBAPI
TOBUI -LEFT-> TOBAPI

TOBUSER - -> TOBUI
TOBUSER - -> TOBAPI
TOBAPIUSER - -> TOBAPI


scale .55
@enduml

PlantUML version 1.2018.12(Sun Oct 21 03:15:15 PDT 2018)
(GPL source distribution)
Java Runtime: Java(TM) SE Runtime Environment
JVM: Java HotSpot(TM) 64-Bit Server VM
Java Version: 1.8.0_181-b13
Operating System: Windows 10
OS Version: 10.0
Default Encoding: Cp1252
Language: en
Country: US
--></g></svg>